<svg xmlns="http://www.w3.org/2000/svg" viewBox="0 0 93 99"><path fill="#FFF" fill-opacity=".1" d="M19.8 72.3V33.9h-3.3c-.7 0-1.2-.6-1.2-1.2 0-.7.6-1.2 1.2-1.2h24.6c.7 0 1.2.6 1.2 1.2 0 .7-.6 1.2-1.2 1.2h-2.8v39.6c0 2.5-.9 4.8-2.7 6.6-1.7 1.8-4.1 2.7-6.6 2.8-4.6 0-8.5-3.5-9.1-8H1.8c-.7 0-1.2-.6-1.2-1.2 0-.7.6-1.2 1.2-1.2h18v-.2zm2.5-38.4v39.8c0 2.1 1.1 4.1 2.8 5.3 1.7 1.2 3.9 1.6 5.9 1 2.9-.9 4.8-3.6 4.7-6.6V33.8H22.3v.1z"/><path fill="#0828CC" fill-opacity=".6" d="M19.8 72.3V33.9h-3.3c-.7 0-1.2-.6-1.2-1.2 0-.7.6-1.2 1.2-1.2h24.6c.7 0 1.2.6 1.2 1.2 0 .7-.6 1.2-1.2 1.2h-2.8v39.6c0 2.5-.9 4.8-2.7 6.6-1.7 1.8-4.1 2.7-6.6 2.8-4.6 0-8.5-3.5-9.1-8H1.8c-.7 0-1.2-.6-1.2-1.2 0-.7.6-1.2 1.2-1.2h18v-.2zm2.5-38.4v39.8c0 2.1 1.1 4.1 2.8 5.3 1.7 1.2 3.9 1.6 5.9 1 2.9-.9 4.8-3.6 4.7-6.6V33.8H22.3v.1z"/><path fill="#FFF" fill-opacity=".1" d="M91.7 74.8H72.4c-.7 0-1.2-.6-1.2-1.2 0-.7.6-1.2 1.2-1.2h19.3c.7 0 1.2.6 1.2 1.2s-.5 1.2-1.2 1.2z"/><path fill="#0828CC" d="M24.2 53H34v18.8c0 3.4-1.3 6.2-4.7 6.2-3.3 0-4.7-2.2-5-5.2 0-.4-.1-.8-.1-1.2V53z"/><path fill="#FFF" d="M51.4 98.6c-4.2 0-8.3-1.3-11.8-3.7-6.6-4.7-10.2-12.6-9.2-20.6s6.3-14.9 13.9-17.8c.7-.3.7-.3.7-1.1V37.9c0-.6.4-1 1-1s1 .4 1 1v17.5c0 1.7-.5 2.4-2.1 3-6.9 2.7-11.7 8.9-12.6 16.2-.9 7.3 2.3 14.5 8.3 18.7 4.2 2.9 9.3 4 14.3 3 6.2-1.2 11.3-5.5 13.7-11.3 2.6-6 2.2-12.9-1.2-18.5-2.3-3.8-5.8-6.7-10-8.1-1.1-.3-1.9-1.3-1.9-2.5V37.7c0-.6.4-1 1-1s1 .4 1 1v18.2c0 .3 0 .4.5.6 4.6 1.6 8.5 4.8 11 9 3.8 6.2 4.3 13.8 1.4 20.4-3 7.6-10.6 12.7-19 12.7z"/><path fill="#FFF" d="M57.5 40.5v16.8c0 .8.3 1.1 1.1 1.4 8.8 3 14.2 11.9 12.7 21.1s-9.4 16-18.7 16S35.3 89.2 33.7 80c-1.6-9.2 3.6-18.2 12.4-21.3 1.1-.4 1.3-.7 1.3-1.9V40.6"/><path fill="#0828CC" d="M52.4 97.1c-9.9 0-18.3-7.1-20-16.9-1.7-9.8 3.9-19.3 13.3-22.6.2-.1.3-.1.5-.2V40.7c0-.7.6-1.2 1.2-1.2.7 0 1.2.6 1.2 1.2v16.2c.2 1.4-.7 2.8-2.2 3.1-8.2 2.9-13.1 11.3-11.6 19.9s9 14.8 17.7 14.7 16.1-6.4 17.5-15-3.6-16.9-11.9-19.7c-1.2-.3-2-1.4-2-2.6V40.5c0-.7.6-1.2 1.2-1.2.3 0 .6.1.9.4.2.2.4.6.4.9v16.9s.1 0 .3.1c8.7 3 14.3 11.4 13.7 20.6S65.3 95 56.3 96.8c-1.2.2-2.5.3-3.9.3zM7.6 30.9H5.1v-2.5c0-.3-.1-.5-.4-.6-.2-.1-.5-.1-.8 0-.2.1-.4.4-.4.7V31H1c-.4 0-.7.3-.7.8s.3.7.8.7h2.5V35c0 .4.3.7.8.7s.7-.3.7-.8v-2.5h2.5c.4 0 .7-.3.7-.8s-.3-.7-.7-.7m77.7 60.5h-2.5v-2.5c0-.4-.3-.7-.8-.7-.4 0-.7.3-.7.8v2.5h-2.5c-.3 0-.5.1-.6.4-.1.2-.1.5 0 .8.1.2.4.4.7.4h2.5v2.5c0 .4.3.7.8.7.4 0 .7-.3.7-.8V93h2.5c.4 0 .7-.3.7-.8-.1-.5-.4-.8-.8-.8M12 19.4h-1.2v-1.2c0-.4-.3-.7-.8-.7s-.7.3-.7.8v1.2H8.1c-.3 0-.5.1-.6.4-.1.2-.1.5 0 .8.1.2.4.4.7.4h1.2v1.2c0 .4.3.7.8.7s.7-.3.7-.8V21h1.2c.3 0 .5-.1.6-.4.1-.3.1-.5 0-.8-.2-.3-.4-.4-.7-.4M73.5 4.7h-1.2V3.5c0-.4-.3-.7-.8-.7s-.7.3-.7.8v1.2h-1.2c-.4 0-.7.3-.7.8 0 .4.3.7.8.7h1.2v1.2c0 .4.3.7.8.7.4 0 .7-.3.7-.8V6.2h1.2c.4 0 .7-.3.7-.8 0-.3-.4-.7-.8-.7"/><path fill="#FFF" fill-opacity=".1" d="M36.4 76.8h32.1c-.2 5.7-2.5 10.3-7.3 13.4-5.7 3.7-11.7 3.7-17.5.2-4.6-2.9-7.4-8.1-7.3-13.6zm14.4 14.7c1.3 0 2.4-.8 2.9-1.9.5-1.2.2-2.5-.7-3.4-.9-.9-2.2-1.2-3.4-.7-1.2.5-1.9 1.6-1.9 2.9 0 .8.3 1.6.9 2.2.6.6 1.4.9 2.2.9zm5.4-9.5c-.8 0-1.5.4-1.8 1.1-.3.7-.2 1.5.4 2.1.5.5 1.4.7 2.1.4.7-.3 1.2-1 1.2-1.7 0-1-.8-1.9-1.9-1.9zM46 79.5c0 .6.5 1.2 1.2 1.2.6 0 1.1-.5 1.1-1.2 0-.6-.5-1.1-1.1-1.2-.6.1-1.2.6-1.2 1.2z"/><path fill="#FFF" d="M50.8 91.5c-1.3 0-2.4-.8-2.9-1.9-.5-1.2-.2-2.5.7-3.4.9-.9 2.2-1.2 3.4-.7s1.9 1.6 1.9 2.9c0 .8-.3 1.6-.9 2.2s-1.4.9-2.2.9zm5.4-9.5c1 0 1.9.9 1.8 1.9s-.9 1.9-1.9 1.8c-1-.1-1.9-.9-1.8-1.9 0-.5.2-1 .6-1.3.4-.3.8-.5 1.3-.5zM46 79.5c0-.6.5-1.2 1.2-1.2.6 0 1.1.5 1.1 1.2 0 .6-.5 1.1-1.1 1.2-.6 0-1.2-.5-1.2-1.2z"/><circle fill="#FFF" fill-opacity=".1" cx="47.6" cy="71.3" r="2.2"/><circle fill="#FFF" fill-opacity=".1" cx="53.6" cy="56.6" r="1.1"/><circle fill="#FFF" fill-opacity=".1" cx="51.2" cy="45.8" r="1.1"/><circle fill="#FFF" fill-opacity=".1" cx="30.5" cy="50.5" r="1.1"/><circle fill="#FFF" cx="27.8" cy="56.7" r="1.6"/><circle fill="#FFF" cx="31.3" cy="62.9" r="1"/><circle fill="#FFF" cx="28.5" cy="72.6" r="1.2"/><circle fill="#FFF" fill-opacity=".1" cx="27.3" cy="38.6" r="1.1"/><circle fill="#FFF" fill-opacity=".1" cx="54.7" cy="35.6" r="2.1"/><circle fill="#FFF" fill-opacity=".1" cx="62.3" cy="25.5" r="10.1"/><circle fill="#FFF" fill-opacity=".1" cx="31.9" cy="28" r="1.4"/><path fill="#0828CC" fill-opacity=".6" d="M91.7 74.8H72.4c-.7 0-1.2-.6-1.2-1.2 0-.7.6-1.2 1.2-1.2h19.3c.7 0 1.2.6 1.2 1.2s-.5 1.2-1.2 1.2zm-55.3 2h32.1c-.2 5.7-2.5 10.3-7.3 13.4-5.7 3.7-11.7 3.7-17.5.2-4.6-2.9-7.4-8.1-7.3-13.6zm14.4 14.7c1.3 0 2.4-.8 2.9-1.9.5-1.2.2-2.5-.7-3.4-.9-.9-2.2-1.2-3.4-.7-1.2.5-1.9 1.6-1.9 2.9 0 .8.3 1.6.9 2.2.6.6 1.4.9 2.2.9zm5.4-9.5c-.8 0-1.5.4-1.8 1.1-.3.7-.2 1.5.4 2.1.5.5 1.4.7 2.1.4.7-.3 1.2-1 1.2-1.7 0-1-.8-1.9-1.9-1.9zM46 79.5c0 .6.5 1.2 1.2 1.2.6 0 1.1-.5 1.1-1.2 0-.6-.5-1.1-1.1-1.2-.6.1-1.2.6-1.2 1.2z"/><circle fill="#0828CC" fill-opacity=".6" cx="47.6" cy="71.3" r="2.2"/><circle fill="#0828CC" fill-opacity=".6" cx="53.6" cy="56.6" r="1.1"/><circle fill="#0828CC" fill-opacity=".6" cx="51.2" cy="45.8" r="1.1"/><circle fill="#0828CC" cx="30.5" cy="50.5" r="1.1"/><circle fill="#0828CC" cx="27.3" cy="38.6" r="1.1"/><circle fill="#0828CC" fill-opacity=".6" cx="54.7" cy="35.6" r="2.1"/><circle fill="#0828CC" fill-opacity=".6" cx="62.3" cy="25.5" r="10.1"/><circle fill="#0828CC" cx="31.9" cy="28" r="1.4"/><circle fill="#0828CC" cx="38.4" cy="13" r="13"/><path fill="#FFF" stroke="#FFF" stroke-width=".3" d="M37.8 8.7c0-.1.2-.3.3-.2h.4c.2 0 .3.1.3.2l2.9 7.8c.1.2 0 .3-.2.3h-.3c-.2 0-.3-.1-.3-.2l-.9-2.4h-3.4l-.9 2.4c0 .2-.2.3-.3.2h-.3c-.2 0-.3-.1-.3-.3l3-7.8zm2 4.8l-1.1-3.1c-.1-.4-.3-1.1-.3-1.1s-.2.7-.3 1.1L37 13.5h2.8z"/><path fill="#0828CC" fill-opacity=".1" d="M37.8 8.7c0-.1.2-.3.3-.2h.4c.2 0 .3.1.3.2l2.9 7.8c.1.2 0 .3-.2.3h-.3c-.2 0-.3-.1-.3-.2l-.9-2.4h-3.4l-.9 2.4c0 .2-.2.3-.3.2h-.3c-.2 0-.3-.1-.3-.3l3-7.8zm2 4.8l-1.1-3.1c-.1-.4-.3-1.1-.3-1.1s-.2.7-.3 1.1L37 13.5h2.8z"/><path fill="none" stroke="#0828CC" stroke-width=".3" stroke-opacity=".1" d="M37.7 8.6c.1-.2.3-.4.5-.3h.4c.2 0 .4.1.5.3l2.9 7.9c.1.3-.1.5-.4.5h-.2c-.2 0-.4-.1-.5-.3l-.9-2.3h-3.2l-.8 2.3c-.1.2-.3.4-.5.4h-.3c-.3 0-.5-.2-.4-.5l2.9-8zm.7 1.2c0 .1 0 .1-.1.2v.1c0 .1-.1.2-.1.3l-1.1 2.9h2.5l-1-2.9c0-.1-.1-.2-.1-.3V10c-.1-.1-.1-.1-.1-.2zm-.2-.5h.1v.2-.2h.1c0 .1-.1.3-.1.5 0-.2 0-.3-.1-.5z"/><path fill="#0828CC" d="M61.8 41.7H43.2c-.7 0-1.2-.6-1.2-1.2 0-.7.6-1.2 1.2-1.2h18.6c.7 0 1.2.6 1.2 1.2 0 .7-.6 1.2-1.2 1.2z"/><path fill="#FFF" stroke="#FFF" stroke-width=".258" d="M60.1 22.8c0-.1 0-.1.1-.2 0-.1.1-.1.2-.1h2.2c.5-.1 1 .1 1.4.5.4.3.6.8.6 1.4 0 .7-.3 1.3-.9 1.6.8.2 1.3 1 1.2 1.8 0 .6-.2 1.1-.6 1.5-.4.4-1 .6-1.5.5h-2.3c-.1 0-.1 0-.2-.1 0-.1-.1-.1-.1-.2l-.1-6.7zm2.5 2.9c.3 0 .7-.1.9-.4.2-.2.4-.6.3-.9 0-.3-.1-.7-.3-.9s-.6-.4-.9-.3h-1.8v2.5h1.8zm.1 3.4c.4 0 .8-.1 1-.4.3-.3.4-.7.4-1 0-.4-.1-.8-.4-1-.3-.3-.7-.4-1-.4h-1.8v2.9l1.8-.1z"/><path fill="#0828CC" fill-opacity=".1" d="M60.1 22.8c0-.1 0-.1.1-.2s.1-.1.2-.1h2.2c.5-.1 1 .1 1.4.5.4.3.6.8.6 1.4 0 .7-.3 1.3-.9 1.6.8.2 1.3 1 1.2 1.8 0 .6-.2 1.1-.6 1.5-.4.4-1 .6-1.5.5h-2.3c-.1 0-.1 0-.2-.1 0-.1-.1-.1-.1-.2l-.1-6.7zm2.5 2.9c.3 0 .7-.1.9-.4.2-.2.4-.6.3-.9 0-.3-.1-.7-.3-.9s-.6-.4-.9-.3h-1.8v2.5h1.8zm.1 3.4c.4 0 .8-.1 1-.4.3-.3.4-.7.4-1 0-.4-.1-.8-.4-1-.3-.3-.7-.4-1-.4h-1.8v2.9l1.8-.1z"/><path fill="none" stroke="#0828CC" stroke-width=".3" stroke-opacity=".1" d="M60 22.8c0-.1 0-.2.1-.3s.2-.1.3-.1h2.2c.6-.1 1.1.1 1.5.5s.6.9.6 1.5-.3 1.2-.8 1.6c.7.3 1.1 1.1 1.1 1.8 0 .6-.2 1.2-.7 1.6-.4.4-1.1.6-1.6.6h-2.3c-.1 0-.2 0-.3-.1s-.1-.2-.1-.3v-6.8zm1 2.7h-.1l.1.1v-.1zm0-2.2v-.1l-.1.1h.1zm0 2.2v-2.2h1.6c.3 0 .6.1.8.3.2.2.3.5.3.8s-.1.6-.3.8c-.2.2-.5.3-.8.3H61zm0 .9V29h1.7c.3 0 .7-.1.9-.3.2-.2.4-.6.3-.9 0-.3-.1-.7-.4-.9-.3-.2-.6-.4-.9-.4H61v-.1z"/></svg>