<svg xmlns="http://www.w3.org/2000/svg" viewBox="0 0 14 14"><path d="M12.892 3.053H1.108C.496 3.053 0 3.55 0 4.162v7.548c0 .613.496 1.109 1.108 1.109h11.784c.612 0 1.108-.496 1.108-1.109V4.162c0-.612-.496-1.109-1.108-1.109zM13 11.71c0 .06-.049.109-.108.109H1.108A.109.109 0 0 1 1 11.71V4.162c0-.06.049-.109.108-.109h11.784c.06 0 .108.049.108.109v7.548z"/><path d="M11.585 8.135H8.614a.5.5 0 1 0 0 1h2.97a.5.5 0 1 0 0-1zm.028-1.645H8.641a.5.5 0 1 0 0 1h2.972a.5.5 0 1 0 0-1zM5.668 8.055c.21-.27.34-.62.34-.99 0-.9-.74-1.64-1.64-1.64-.91 0-1.64.74-1.64 1.64 0 .37.12.72.33.99-.65.34-1.15.93-1.39 1.64-.15.44.19.9.66.9l2.05.01h2.03c.46 0 .8-.46.65-.9-.23-.71-.74-1.3-1.39-1.65zm-1.3-1.88c.49 0 .89.4.89.89 0 .3-.15.56-.37.73-.15.1-.33.16-.52.16s-.37-.06-.52-.17a.89.89 0 0 1 .52-1.61zm.01 3.68l-1.97-.01c.24-.62.74-1.08 1.34-1.26.19.08.4.12.62.12.21 0 .42-.04.61-.12h.01c.6.19 1.1.65 1.33 1.27h-1.94z"/></svg>