<svg xmlns="http://www.w3.org/2000/svg" viewBox="0 0 14 14"><path d="M12.367 1.725H2.996c-.876 0-1.588.755-1.588 1.684v.18h-.291C.5 3.589 0 4.089 0 4.706v6.98c0 .616.5 1.116 1.117 1.116h9.917c.617 0 1.117-.5 1.117-1.117v-.204h.216c.876 0 1.589-.755 1.589-1.682v-6.39c0-.929-.713-1.684-1.59-1.684zm-1.224 9.96a.11.11 0 0 1-.109.11H1.117a.11.11 0 0 1-.11-.11v-6.98c0-.06.05-.109.11-.109h9.917c.06 0 .11.05.11.11v6.98zM12.956 9.8c0 .376-.265.682-.59.682h-.215V4.706c0-.617-.5-1.117-1.117-1.117H2.408v-.18c0-.377.264-.684.588-.684h9.37c.325 0 .59.307.59.684v6.39z"/><path d="M10.054 8.48H7.476a.375.375 0 0 0 0 .75h2.578a.375.375 0 0 0 0-.75zm.025-1.552H7.5a.375.375 0 0 0 0 .75h2.578a.375.375 0 0 0 0-.75zM4.835 8.272c.207-.242.338-.552.338-.895a1.384 1.384 0 0 0-2.766 0c0 .342.13.65.336.892a2.664 2.664 0 0 0-1.294 1.586c-.129.417.163.85.568.85l1.784.007h1.758c.404 0 .695-.43.568-.846a2.666 2.666 0 0 0-1.292-1.594zm-1.678-.895a.634.634 0 0 1 1.266 0c0 .345-.28.624-.624.63l-.01.002c-.003 0-.007-.003-.011-.003a.632.632 0 0 1-.621-.63zm.646 2.58L2.214 9.95c.27-.717.888-1.19 1.572-1.19.687 0 1.305.475 1.575 1.195H3.803z"/></svg>