<svg xmlns="http://www.w3.org/2000/svg" viewBox="0 0 14 13.996"><path fill="#010101" d="M13.4 6.482a.5.5 0 0 0-.604.367l-.041.168a3.002 3.002 0 1 0 .388 3.644c.01-.015.016-.031.025-.047a.493.493 0 0 0-.89-.42c.008-.015-.01.015 0 0a2.435 2.435 0 0 1-.695.64 2.002 2.002 0 1 1 .397-3.181l-.273-.034a.5.5 0 0 0-.124.992l.979.122.338.042a.5.5 0 0 0 .548-.378l.026-.108.294-1.203a.5.5 0 0 0-.367-.604zm-1.159 3.787zm-.344-5.117H8.358a.5.5 0 1 1 0-1h3.54a.5.5 0 1 1 0 1zm-8.151.046a1.025 1.025 0 1 1 2.05 0 1.025 1.025 0 0 1-2.05 0zm3.31 1.488a9.969 9.969 0 0 0-.373-.449l-.086-.1c-.01-.01-.02-.015-.03-.025.147-.282.226-.595.228-.914a2.024 2.024 0 1 0-4.05 0c.003.333.089.66.25.952l-.076.087c-.525.596-1.615 1.835-.788 2.778.208.221.501.342.804.332.355.006.71.008 1.066.008.266 0 .532-.002.798-.004.267.002.534.004.802.004.243 0 .645.024.943-.01.115-.013.17-.145.168-.306a3.751 3.751 0 0 1 .112-.93c.094-.351.262-.663.429-.984a.265.265 0 0 0 .032-.084c.018-.131-.156-.262-.228-.355zM6.65 8.343a.107.107 0 0 1-.032.005 119.717 119.717 0 0 1-1.555.007 343.009 343.009 0 0 0-1.695.002c-.136 0-.314.03-.446.001-.218-.047.008-.464.062-.559.061-.106.615-.935.684-.9.015.008.028.01.043.017.602.383 1.356.443 1.983.102.08-.024.165-.086.24-.119a.78.78 0 0 1 .08.093 10.506 10.506 0 0 1 .226.27c.082.103.161.208.236.318.1.147.204.31.245.485.019.08.024.246-.071.278zM1.232 2.705L12.78 2.69c.138 0 .251.112.251.251v2.586a1.4 1.4 0 0 1 1 .18V2.69a.985.985 0 0 0-.983-.984H1.232c-.683 0-1.236.553-1.236 1.235v7.245c0 .683.553 1.236 1.236 1.236h6.226a3.891 3.891 0 0 1-.465-.834.247.247 0 0 0-.228-.158l-5.518.007a.251.251 0 0 1-.252-.25l-.014-7.23c0-.139.112-.251.25-.252z"/></svg>