<svg xmlns="http://www.w3.org/2000/svg" viewBox="0 0 14 14"><path d="M13.786 5.136L8.745.171a.594.594 0 1 0-.834.847l.314.309L.892 8.77c-1.168 1.234-1.14 3.14.09 4.364A3.098 3.098 0 0 0 3.135 14c.815 0 1.627-.317 2.233-.947l7.27-7.38.313.31a.592.592 0 0 0 .84-.007.593.593 0 0 0-.005-.84zm-9.27 7.088a1.923 1.923 0 0 1-2.722.042c-.743-.74-.76-1.916-.013-2.704l2.807-2.85a.49.49 0 0 1 .107-.008c.405.005.814.261.997.622.047.094.083.193.12.292.064.171.13.341.22.5.118.21.266.383.393.525.237.263.534.543.931.698l-2.84 2.883zM8.36 8.32c-.056.02-.272.019-.549-.07-.177-.059-.353-.236-.503-.402a1.951 1.951 0 0 1-.242-.315c-.06-.105-.099-.218-.141-.331a4.154 4.154 0 0 0-.173-.412c-.25-.495-.683-.86-1.184-1.073L9.07 2.16l2.72 2.678L8.36 8.32z"/><ellipse transform="rotate(-81.193 4.65 8.64)" cx="4.651" cy="8.639" rx=".574" ry=".574"/><ellipse transform="rotate(-81.194 3.913 11.005)" cx="3.913" cy="11.005" rx=".859" ry=".859"/></svg>