<svg xmlns="http://www.w3.org/2000/svg" viewBox="0 0 14 14"><circle fill-rule="evenodd" clip-rule="evenodd" fill="#40A3F5" cx="7" cy="7" r="7"/><path fill-rule="evenodd" clip-rule="evenodd" fill="#FFF" d="M7.936 6.417h-.353v-1.69a.584.584 0 0 0-1.166 0v1.69h-1.69a.584.584 0 0 0 0 1.166h1.69v1.69a.584.584 0 0 0 1.166 0v-1.69h1.69c.322 0 .583-.261.583-.583s-.261-.583-.523-.583H7.936z"/><path fill="#FFF" d="M7.936 6.417h-.353v-1.69a.584.584 0 0 0-1.166 0v1.69h-1.69a.584.584 0 0 0 0 1.166h1.69v1.69a.584.584 0 0 0 1.166 0v-1.69h1.69c.322 0 .583-.261.583-.583s-.261-.583-.523-.583H7.936z"/></svg>