<svg xmlns="http://www.w3.org/2000/svg" viewBox="0 0 14 14"><path fill="#40A3F5" d="M7 1c3.308 0 6 2.692 6 6s-2.692 6-6 6-6-2.692-6-6 2.692-6 6-6m0-1a7 7 0 1 0 0 14A7 7 0 0 0 7 0z"/><path fill-rule="evenodd" clip-rule="evenodd" fill="#FFF" d="M7.936 6.417h-.353v-1.69a.584.584 0 0 0-1.166 0v1.69h-1.69a.584.584 0 0 0 0 1.166h1.69v1.69a.584.584 0 0 0 1.166 0v-1.69h1.69c.322 0 .583-.261.583-.583s-.261-.583-.523-.583H7.936z"/><path fill="#40A3F5" d="M7.936 6.417h-.353v-1.69a.584.584 0 0 0-1.166 0v1.69h-1.69a.584.584 0 0 0 0 1.166h1.69v1.69a.584.584 0 0 0 1.166 0v-1.69h1.69c.322 0 .583-.261.583-.583s-.261-.583-.523-.583H7.936z"/></svg>