<svg xmlns="http://www.w3.org/2000/svg" viewBox="331.9 2794.6 80 80"><path fill="#00BFD6" d="M396.9 2834.6c0-13.8-11.2-25-25-25s-25 11.2-25 25 11.2 25 25 25 25-11.1 25-25zm-3.2 0c0 12-9.8 21.8-21.8 21.8s-21.8-9.8-21.8-21.8 9.8-21.8 21.8-21.8 21.8 9.8 21.8 21.8zm-9.9 12l2.7-2.7-10.9-24.4h-4.1l-4.9 11.3-.6-.3c-2.9-1.5-5.2-2.2-6.9-2.2-2.2 0-3.2 1.2-3.6 1.9-1.2 2.2-.5 5.2 2.1 9.2 1 1.5 2 2.9 2.7 3.8h3.9l1.6-3.6-1.7-3.9-2 4.4-.7-.9c-.4-.6-.9-1.2-1.2-1.8-2.1-3.3-2.5-5-2-5.6.5-.6 3.2.2 6.1 1.6 1.6.7 3.3 1.7 4.9 2.8 1.2.7 2.4 1.5 3.7 2.4 5 3.4 9.3 6.8 10.9 8zm-2.5-6.2l-1.8-1.3c-3.5-2.6-6.7-4.7-9.6-6.4l-.6-.4 4.2-9.3 7.8 17.4z"/></svg>