<svg data-name="Layer 1" xmlns="http://www.w3.org/2000/svg" viewBox="0 0 14 13.996"><path d="M10.825 13.96a2.892 2.892 0 1 1 2.893-2.89 2.894 2.894 0 0 1-2.893 2.89zm0-4.754a1.862 1.862 0 1 0 1.863 1.863 1.864 1.864 0 0 0-1.863-1.863z" fill="#010101"/><path d="M11.644 10.705h-.39v-.392a.391.391 0 0 0-.782 0v.392h-.39a.391.391 0 1 0 0 .782h.39v.39a.391.391 0 1 0 .782 0v-.39h.39a.391.391 0 0 0 0-.782z" fill="#010101"/><circle cx="6.653" cy="3.367" r="2.278" fill="none"/><path d="M4.636 5.96c-.784.387-3.099 1.693-3.182 3.711a.652.652 0 0 0 .09.387c.06.089.218.243.658.203l1.506-.006 2.634-.004-1.426-4.09a3.28 3.28 0 0 1-.28-.2zm2.018.708a3.26 3.26 0 0 1-.496-.05l.476 1.365.436-1.357a3.245 3.245 0 0 1-.416.042z" fill="none"/><path d="M9.34 5.271a3.298 3.298 0 1 0-5.437-.086C2.789 5.778.53 7.265.433 9.627a1.66 1.66 0 0 0 .263 1.003 1.706 1.706 0 0 0 1.468.653h.042l1.506-.006c.902-.003 1.803-.007 2.735-.007h.379a5.075 5.075 0 0 1 .246-1.309l.2-.626.567-1.76.408-1.271.026-.078a3.28 3.28 0 0 0 .316-.198 7.808 7.808 0 0 1 1.708 1.23 3.824 3.824 0 0 1 .566-.058 3.86 3.86 0 0 1 .81.089A7.762 7.762 0 0 0 9.34 5.27zm-5.632 4.984l-1.506.006c-.44.04-.599-.114-.659-.203a.652.652 0 0 1-.09-.387c.085-2.018 2.4-3.324 3.183-3.71a3.28 3.28 0 0 0 .28.2l1.426 4.09zm2.926-2.272l-.477-1.365a3.26 3.26 0 0 0 .496.05 3.245 3.245 0 0 0 .417-.042zm.02-2.337A2.278 2.278 0 1 1 8.93 3.367a2.281 2.281 0 0 1-2.277 2.279z" fill="#010202"/></svg>