<svg id="Layer_1" xmlns="http://www.w3.org/2000/svg" viewBox="0 0 14 14"><style></style><path d="M3.12 11.782c.524-.659 1.167-.685 1.735-.07.284.567.202 1.078-.223 1.406a1.01 1.01 0 0 1-1.18.047 1.013 1.013 0 0 1-.43-1.099c.025-.096.065-.189.098-.284z" fill="#f69c12"/><path d="M9.106 11.78c.383-.637 1.394-.665 1.79.01.214.58.107 1.057-.304 1.351a1.018 1.018 0 0 1-1.18.007 1.013 1.013 0 0 1-.397-1.11c.025-.088.06-.173.09-.258z" fill="#9436d9"/><path d="M.098 11.839c.473-.676 1.106-.75 1.7-.2.56.744.044 1.634-.702 1.688A1.022 1.022 0 0 1 .039 12.02c.016-.061.039-.122.059-.182z" fill="#fc0202"/><path d="M12.072 11.835c.503-.71 1.189-.754 1.768-.112.267.554.199 1.026-.197 1.368a1.006 1.006 0 0 1-1.176.093 1.033 1.033 0 0 1-.462-1.14c.017-.071.045-.14.067-.21z" fill="#0482de"/><path d="M6.125 11.756c.402-.602 1.351-.619 1.747-.014.187.374.223.75-.012 1.117-.281.442-.83.597-1.297.372a1.025 1.025 0 0 1-.526-1.247c.025-.077.059-.152.088-.228z" fill="#1aab5b"/><path d="M11.11 8.44c-.122-.418-.28-.827-.326-1.264-.103-.38-.07-.768-.057-1.154 0-.73.013-1.46-.006-2.19-.014-.526-.051-1.055-.273-1.547-.242-.75-.805-1.154-1.522-1.366-.917-.27-1.858-.275-2.8-.192-.72.063-1.4.261-2.007.666-.394.262-.717.586-.856 1.057-.147.24-.156.509-.102.766.075.357.335.56.683.625.334.063.65.05.86-.299a7.12 7.12 0 0 1 .487-.69c.329-.425.803-.574 1.304-.666l.064-.003.655-.005.164.013c.07.017.138.037.208.051.438.091.729.339.858.777.08.272.112.55.14.829-1.238.351-2.5.59-3.757.86-.76.163-1.39.536-1.807 1.218l-.1.248c-.127.228-.147.484-.186.734-.008.396.071.775.221 1.14.211.384.485.715.842.973.892.534 1.85.567 2.83.345.705-.16 1.319-.523 1.892-.952.162-.121.24-.098.34.06.111.178.238.347.373.506.396.468.856.738 1.538.277.224-.226.392-.475.34-.817zM8.364 6.968v-.017.017zm.098-.09zm-.003-.033zm-.033-.052c-.049.042-.063.099-.067.16-.043.024-.052.066-.054.11l-.261.297c-.594.613-1.328.79-2.144.668-.393-.059-.662-.32-.873-.642l-.03-.146-.04-.062c-.08-.75.202-1.171.94-1.373.879-.24 1.786-.358 2.67-.656.052.573-.038 1.11-.14 1.644z" fill="#919191"/></svg>