<svg xmlns="http://www.w3.org/2000/svg" viewBox="0 0 12 12"><path fill="#010101" d="M5.99 8.08c-1.163 0-2.108-.945-2.108-2.107s.945-2.107 2.107-2.107 2.108.945 2.108 2.107S7.15 8.08 5.989 8.08zm0-3.212a1.106 1.106 0 0 0 0 2.21 1.106 1.106 0 0 0 0-2.21z"/><path fill="#19171C" d="M5.97 2.794a.5.5 0 0 1-.5-.501V.5a.5.5 0 1 1 1.002 0v1.792a.5.5 0 0 1-.501.5zm0 9.206a.5.5 0 0 1-.5-.5V9.707a.5.5 0 1 1 1.002 0v1.791A.5.5 0 0 1 5.97 12zm5.53-5.486H9.707a.5.5 0 1 1 0-1.002h1.791a.5.5 0 1 1 0 1.002zm-9.207 0H.5a.5.5 0 1 1 0-1.002h1.792a.5.5 0 1 1 0 1.002zM9.87 10.37a.5.5 0 0 1-.355-.147L8.248 8.956a.5.5 0 1 1 .708-.708l1.267 1.267a.5.5 0 0 1-.354.855zM3.359 3.86a.5.5 0 0 1-.354-.147L1.738 2.446a.5.5 0 1 1 .708-.708l1.267 1.266a.5.5 0 0 1-.354.855zm5.461.174a.5.5 0 0 1-.355-.855l1.267-1.267a.5.5 0 1 1 .709.708L9.174 3.887a.5.5 0 0 1-.354.147zm-6.51 6.51a.5.5 0 0 1-.355-.855l1.267-1.267a.5.5 0 1 1 .708.709l-1.267 1.267a.5.5 0 0 1-.354.146z"/></svg>