<svg xmlns="http://www.w3.org/2000/svg" viewBox="0 0 14 14"><path fill="#8D8D99" d="M12.543 13.998H1.457a1.475 1.475 0 0 1-1.474-1.474V1.476C-.017.663.645.002 1.457.002h7.644c.359 0 .706.13.975.369l3.442 3.036c.317.28.499.683.499 1.105v8.012c0 .813-.662 1.474-1.474 1.474zM1.457 1.2a.275.275 0 0 0-.274.275v11.048c0 .152.123.275.274.275h11.086a.275.275 0 0 0 .274-.275V4.512a.275.275 0 0 0-.092-.205L9.282 1.27a.274.274 0 0 0-.181-.07H1.457z"/><path fill="#8D8D99" d="M5.679 11.086a2.25 2.25 0 0 1-1.104-.298c-.522-.337-.831-.753-.928-1.243-.15-.763.289-1.407.308-1.434l3.083-4.325c.598-.738 1.467-.486 1.845-.254.853.575.592 1.497.337 1.905L6.84 8.95a.975.975 0 0 1-1.263.39c-.59-.463-.436-1.084-.202-1.399L7.31 5.124a.345.345 0 0 1 .568.392L5.935 8.343c-.072.102-.16.282.011.419.04.006.189.017.316-.187l2.38-3.513c.056-.092.348-.628-.133-.951-.045-.025-.58-.328-.922.092L4.518 8.508s-.29.436-.193.909c.06.297.266.562.612.786.096.052 1.048.567 1.688-.315L9.11 6.327a.345.345 0 0 1 .565.395l-2.49 3.566c-.44.605-.998.798-1.507.798z"/></svg>