<svg xmlns="http://www.w3.org/2000/svg" viewBox="0 0 14 14"><path fill="#2FBD8E" d="M6.265 7.357L4.906 5.113h1.24l.486.916c.15.28.275.574.275.574h.012s.118-.287.274-.574l.492-.916h1.24L7.561 7.357 8.92 9.569H7.704l-.511-.935a6.89 6.89 0 0 1-.274-.554h-.012s-.12.274-.275.554l-.51.935h-1.21l1.353-2.212z"/><path fill="#2FBD8E" d="M12.543 13.648H1.457c-.62 0-1.124-.504-1.124-1.124V1.476C.333.856.837.352 1.457.352h7.644c.274 0 .539.1.744.281l3.441 3.036c.242.213.381.52.381.844v8.011c0 .62-.504 1.124-1.124 1.124zM1.457.852a.625.625 0 0 0-.624.624v11.048c0 .345.28.624.624.624h11.086c.344 0 .624-.28.624-.624V4.513c0-.18-.077-.35-.21-.469L9.513 1.008A.622.622 0 0 0 9.1.852H1.457z"/></svg>