<svg xmlns="http://www.w3.org/2000/svg" viewBox="0 0 14 14"><path fill="#FA0" d="M6.133 8.256h-1.39l-.268.935H3.353l1.514-4.456h1.147L7.529 9.19H6.406l-.273-.935zm-.698-2.505s-.1.486-.181.767l-.255.865h.878l-.25-.865a13.03 13.03 0 0 1-.18-.767h-.012zM9.527 7.19h.043v-.056c0-.267-.205-.355-.474-.355-.405 0-.866.305-.866.305l-.374-.76s.555-.417 1.346-.417c.904 0 1.446.492 1.446 1.309V9.19h-.984v-.193c0-.106.012-.2.012-.2h-.012s-.237.467-.91.467c-.599 0-1.09-.399-1.09-1.034 0-.935 1.364-1.04 1.863-1.04zm-.474 1.253c.28 0 .53-.305.53-.567v-.069h-.1c-.343 0-.736.1-.736.368 0 .15.094.268.306.268z"/><path fill="#FA0" d="M12.543 13.648H1.458c-.62 0-1.125-.504-1.125-1.124V1.476C.333.856.838.352 1.458.352h7.643c.274 0 .539.1.744.28l3.441 3.037c.242.213.381.52.381.844v8.011c0 .62-.504 1.124-1.124 1.124zM1.458.852a.625.625 0 0 0-.625.624v11.048c0 .345.28.624.625.624h11.085c.344 0 .624-.28.624-.624V4.513c0-.18-.077-.35-.21-.469L9.514 1.008A.627.627 0 0 0 9.1.852H1.458z"/></svg>