<svg xmlns="http://www.w3.org/2000/svg" viewBox="0 0 14 14"><path fill="#D75050" d="M4.618 4.757h2.73v.935H5.709v.934h1.358v.935H5.71v1.652H4.618V4.757zm3.257 0h1.077v3.128c0 .305.057.411.3.411.068 0 .13-.006.13-.006v.935s-.149.019-.324.019c-.573 0-1.183-.137-1.183-1.215V4.757z"/><path fill="#D75050" d="M12.543 13.648H1.458c-.62 0-1.125-.504-1.125-1.124V1.476C.333.856.838.352 1.458.352h7.643c.274 0 .539.1.744.28l3.441 3.037c.242.213.381.52.381.844v8.011c0 .62-.504 1.124-1.124 1.124zM1.458.852a.625.625 0 0 0-.625.624v11.048c0 .345.28.624.625.624h11.085c.344 0 .624-.28.624-.624V4.513c0-.18-.077-.35-.21-.469L9.514 1.008A.627.627 0 0 0 9.1.852H1.458z"/></svg>