<svg xmlns="http://www.w3.org/2000/svg" viewBox="0 0 14 14"><path fill="#64C7CD" d="M12.509 13.648H1.424c-.62 0-1.125-.504-1.125-1.124V1.476C.299.856.804.352 1.424.352h7.642c.275 0 .54.1.745.28l3.442 3.037c.242.215.38.522.38.844v8.011c0 .62-.504 1.124-1.124 1.124zM1.424.852a.625.625 0 0 0-.625.624v11.048c0 .345.28.624.625.624h11.085c.344 0 .625-.28.625-.624V4.513a.626.626 0 0 0-.212-.47L9.48 1.009a.627.627 0 0 0-.414-.156H1.424z"/><path fill="#64C7CD" d="M3.987 7.167c-.892 0-1.618-.726-1.618-1.618S3.095 3.93 3.987 3.93s1.618.726 1.618 1.618-.725 1.618-1.618 1.618zm0-2.236a.619.619 0 1 0 .002 1.237.619.619 0 0 0-.002-1.237zM.712 12.4a.5.5 0 0 1-.339-.867l2.43-2.238c.25-.308.681-.513 1.136-.513h.004c.457.001.89.208 1.185.569l.658.822L7.433 8c.346-.486.95-.783 1.608-.783.658 0 1.264.296 1.62.793l3.003 3.432a.5.5 0 1 1-.752.658L9.878 8.63c-.2-.273-.5-.413-.836-.413-.336 0-.636.14-.805.375L6.195 11.29a.498.498 0 0 1-.391.198h-.007a.5.5 0 0 1-.39-.188L4.35 9.98c-.104-.126-.277-.17-.412-.198a.53.53 0 0 0-.412.2L1.05 12.269a.5.5 0 0 1-.34.132z"/></svg>