<svg xmlns="http://www.w3.org/2000/svg" viewBox="0 0 21.6 21.6"><path fill="#D85F4A" d="M6.463 14.859l1.27-.57 1.197-.522 1.139-5.144.024.026-.064-1.144.316-2.188L21.6 16.572V0H0v21.6h11.916l-5.453-5.453z"/><path fill="#C04E48" d="M21.6 16.572L10.345 5.317l-.316 2.188.064 1.144-.024-.026-1.139 5.144-1.197.522-1.27.57v1.288l5.453 5.453H21.6z"/><path fill="#FFF" d="M6.866 16.283a.668.668 0 0 1-.403-.136c-.434-.325-.492-.688-.465-.934.076-.678.914-1.388 2.493-2.111a27.994 27.994 0 0 0 1.578-4.478c-.415-.906-.819-2.079-.525-2.768a.855.855 0 0 1 .525-.491.867.867 0 0 1 .276-.048c.21 0 .398.092.529.258.123.157.493.628-.064 2.973.562 1.16 1.357 2.341 2.119 3.15a8.074 8.074 0 0 1 1.399-.149c.652 0 1.048.152 1.209.465.133.259.079.562-.163.9-.232.325-.552.496-.925.496-.507 0-1.096-.32-1.754-.952a20.028 20.028 0 0 0-3.678 1.175c-.348.739-.682 1.334-.993 1.771-.426.6-.794.879-1.158.879zm1.108-2.135c-.89.5-1.253.911-1.279 1.143-.004.038-.016.139.179.288.063-.02.425-.185 1.1-1.431zm5.614-1.842c.339.261.639.404.862.404.098 0 .226-.023.354-.203a.677.677 0 0 0 .096-.173c-.051-.027-.201-.083-.571-.083-.212 0-.461.019-.741.055zm-3.045-2.751a29.686 29.686 0 0 1-1.114 3.151 20.853 20.853 0 0 1 2.706-.842 14.222 14.222 0 0 1-1.592-2.309zm-.212-3.535a.206.206 0 0 0-.04.01c-.041.014-.074.036-.102.101-.107.251-.023.727.141 1.238.136-.881.064-1.255.001-1.349z"/></svg>