<svg xmlns="http://www.w3.org/2000/svg" viewBox="0 0 14 14"><path fill="#AFAFB9" d="M12.543 13.648H1.458c-.62 0-1.125-.504-1.125-1.124V1.476C.333.856.838.352 1.458.352h7.643c.274 0 .539.1.744.28l3.441 3.037c.242.213.381.52.381.844v8.011c0 .62-.504 1.124-1.124 1.124zM1.458.852a.625.625 0 0 0-.625.624v11.048c0 .345.28.624.625.624h11.085c.344 0 .624-.28.624-.624V4.513c0-.18-.077-.35-.21-.469L9.514 1.008A.627.627 0 0 0 9.1.852H1.458z"/><path fill="#AFAFB9" d="M5.592 11.455c-.49 0-.936-.163-1.214-.328-.575-.372-.915-.83-1.022-1.37-.166-.84.317-1.549.337-1.579l3.358-4.706c.662-.816 1.62-.54 2.04-.283.945.636.657 1.656.374 2.108L6.876 9.12a1.082 1.082 0 0 1-1.407.43c-.66-.516-.489-1.207-.23-1.557L7.346 4.93a.4.4 0 0 1 .66.453L5.89 8.458c-.09.126-.155.293.006.423.074.018.205-.03.308-.197l2.59-3.823c.058-.096.365-.661-.137-1-.047-.026-.611-.346-.971.096l-3.34 4.682c.002 0-.307.465-.204.969.064.317.285.6.656.84.1.057 1.116.607 1.802-.337l2.704-3.874a.4.4 0 0 1 .656.458l-2.709 3.88c-.484.667-1.1.88-1.66.88z"/></svg>