<svg xmlns="http://www.w3.org/2000/svg" viewBox="0 0 14 14"><path d="M6.332 14H.798a.552.552 0 0 1-.552-.553l.006-.592c.005-.309.01-.618.03-.927.034-.553.202-.996.514-1.356.258-.298.593-.518.973-.64a18.42 18.42 0 0 1 1.066-.291l.201-.05c.443-.112.86-.216 1.25-.381.209-.09.353-.174.466-.273.16-.14.194-.262.126-.45-.071-.201-.169-.391-.266-.581-.535-1.059-.846-1.918-1.016-2.78-.18-.92-.175-1.686.017-2.413C3.98 1.32 4.917.42 6.318.107a4.127 4.127 0 0 1 2.424.169c1.073.415 1.78 1.204 2.1 2.345.135.487.185 1 .15 1.57a7.786 7.786 0 0 1-.43 2.078.554.554 0 0 1-1.045-.358 6.739 6.739 0 0 0 .373-1.786 3.62 3.62 0 0 0-.114-1.206c-.223-.799-.691-1.326-1.432-1.613a3.041 3.041 0 0 0-1.787-.12c-.999.222-1.612.814-1.876 1.81-.147.558-.147 1.167 0 1.915.15.761.428 1.53.878 2.419.156.307.274.542.36.786.22.613.06 1.216-.438 1.652a2.817 2.817 0 0 1-.762.458c-.47.2-.95.32-1.414.437l-.129.032c-.407.102-.743.186-1.072.29a1.04 1.04 0 0 0-.473.31c-.148.173-.228.396-.246.702-.02.292-.023.584-.027.876l-.001.022h4.975a.552.552 0 0 1 0 1.105z"/><path fill="#050505" d="M11.472 10.207H9.674a.46.46 0 1 1 0-.92h1.798a.46.46 0 1 1 0 .92zm0 1.747H9.674a.46.46 0 1 1 0-.92h1.798a.46.46 0 1 1 0 .92z"/><path d="M12.649 8.419v4.442H8.497V8.42h4.152m.672-1.105H7.824a.433.433 0 0 0-.433.432v5.788c0 .239.194.433.433.433h5.497c.24 0 .433-.194.433-.433V7.746a.433.433 0 0 0-.433-.432z"/></svg>