<svg xmlns="http://www.w3.org/2000/svg" viewBox="0 0 21.6 21.6"><path fill="#5ABE82" d="M5.48 12.556L7.04 10.8l.977-2.633 2.173-.697.99.27.822-1.988 3.122-.364 6.476 6.476V0H0v21.6h11.772l-6.141-6.141z"/><path fill="#48A56E" d="M12.157 21.6H21.6v-9.736l-6.476-6.476-3.122.364-.822 1.988-.99-.27-2.173.697L7.04 10.8l-1.56 1.756.151 2.903 6.141 6.141h.098z"/><path fill="#FFF" d="M16.384 6.942a2.628 2.628 0 0 0-1.193-1.59 2.69 2.69 0 0 0-2.071-.294 2.65 2.65 0 0 0-1.62 1.24l-.37.641a2.686 2.686 0 0 0-1.521-.045A2.623 2.623 0 0 0 8.017 8.09L5.48 12.479c-.729 1.262-.301 2.892.933 3.617a2.663 2.663 0 0 0 1.369.381c.955 0 1.842-.51 2.316-1.332l.367-.637a2.673 2.673 0 0 0 1.524.041 2.651 2.651 0 0 0 1.62-1.241l2.481-4.301a2.64 2.64 0 0 0 .294-2.065m-3.692 5.785a1.57 1.57 0 0 1-1.659.799l1.547-2.682a2.674 2.674 0 0 0 .003-2.749l-.25-.42-.623 1.078.052.129c.178.448.142.962-.104 1.389l-1.587 2.748-.285.494-.629 1.088a1.587 1.587 0 0 1-2.158.579 1.582 1.582 0 0 1-.578-2.156l2.515-4.357a1.57 1.57 0 0 1 1.629-.749l-1.574 2.726a2.672 2.672 0 0 0 .024 2.706l.251.42.623-1.077-.052-.129a1.595 1.595 0 0 1 .096-1.375l1.964-3.402.184-.318.361-.625c.209-.363.55-.624.959-.733.398-.106.836-.05 1.173.141.02.012.039.024.041.024a1.585 1.585 0 0 1 .553 2.162l-2.476 4.289z"/></svg>