<svg xmlns="http://www.w3.org/2000/svg" viewBox="0 0 14 14"><path d="M12.5 14h-11C.6 14 0 13.3 0 12.5v-11C0 .7.6 0 1.5 0h7.6c.4 0 .7.1 1 .4l3.4 3c.3.3.5.7.5 1.1v8c0 .8-.6 1.5-1.5 1.5zM1.5 1.2c-.2 0-.3.1-.3.3v11c0 .2.1.3.3.3h11.1c.2 0 .3-.1.3-.3v-8c0-.1 0-.2-.1-.2l-3.4-3c-.1 0-.1-.1-.2-.1H1.5z"/><path d="M5.7 11.1c-.4 0-.8-.1-1.1-.3-.5-.3-.9-.8-1-1.3-.1-.7.3-1.4.4-1.4l3-4.3c.6-.8 1.5-.5 1.9-.3.8.6.6 1.5.3 1.9L6.8 9c-.4.6-1 .5-1.3.4-.5-.5-.4-1.1-.1-1.5l1.9-2.8c.1-.1.3-.2.5-.1.1.1.2.4.1.5l-2 2.8c-.1.1-.2.3 0 .4 0 0 .2 0 .3-.2L8.6 5c.1 0 .4-.6-.1-.9 0 0-.6-.3-.9.1L4.5 8.5s-.3.4-.2.9c.1.3.3.6.6.8.1.1 1 .6 1.7-.3l2.5-3.6c.1-.2.3-.2.5-.1s.2.3.1.5l-2.5 3.6c-.5.6-1 .8-1.5.8z"/></svg>