<svg xmlns="http://www.w3.org/2000/svg" viewBox="0 0 14 14"><path d="M17.9 6.6l-.5-3 3.1-.5.5 3-3.1.5zm.6-.9l1.5-.2-.2-1.4-1.5.3.2 1.3zm-6 8.3h-11C.6 14 0 13.3 0 12.5v-11C0 .7.6 0 1.5 0h7.6c.4 0 .7.1 1 .4l3.4 3c.3.3.5.7.5 1.1v8c0 .8-.6 1.5-1.5 1.5zM1.5 1.2c-.2 0-.3.1-.3.3v11c0 .2.1.3.3.3h11.1c.2 0 .3-.1.3-.3v-8c0-.1 0-.2-.1-.2l-3.4-3c-.1 0-.1-.1-.2-.1H1.5z"/><path d="M5.7 4.7v1.2H4.5V4.7h1.2m.4-.9h-2c-.3 0-.5.2-.5.5v2c0 .3.2.5.5.5h2c.3 0 .5-.2.5-.5v-2c0-.3-.2-.5-.5-.5zm4 5h-6c-.2 0-.5-.2-.5-.5s.2-.5.5-.5h6c.2 0 .5.2.5.5s-.2.5-.5.5zm0 1.8h-6c-.2 0-.5-.2-.5-.5s.2-.5.5-.5h6c.2 0 .5.2.5.5s-.2.5-.5.5zm0-5.7H8c-.2 0-.5-.2-.5-.5S7.8 4 8 4h2.1c.2 0 .5.2.5.5s-.2.4-.5.4zm0 1.8H8c-.2 0-.5-.2-.5-.5s.3-.4.5-.4h2.1c.2 0 .5.2.5.5s-.2.4-.5.4z"/></svg>