<svg xmlns="http://www.w3.org/2000/svg" viewBox="0 0 14 14"><g fill="#D75050"><path d="M10.16 8.78c-.064-.239-.305-.4-.735-.493a5.14 5.14 0 0 0-.875-.096c-.357-.6-.682-1.417-.873-2.195.667-1.4.497-1.749.433-1.88a.477.477 0 0 0-.335-.264.6.6 0 0 0-.197-.008.601.601 0 0 0-.434.26c-.288.407-.192 1.213-.058 1.826a17.778 17.778 0 0 1-1.564 2.545c-1.093.243-1.72.585-1.865 1.016-.055.164-.069.42.176.701a.483.483 0 0 0 .373.169c.221 0 .47-.133.783-.417.252-.23.539-.554.854-.965a12.811 12.811 0 0 1 2.366-.234h.03c.33.482.662.762.987.832a.77.77 0 0 0 .695-.2c.213-.193.294-.394.24-.596zm-.576.144a.442.442 0 0 1-.04.039c-.052.048-.103.071-.153.071a.214.214 0 0 1-.046-.005c-.101-.022-.225-.108-.358-.244.12.013.227.03.32.05.146.031.23.065.277.089zM7.522 5.073c-.005-.306.034-.529.113-.64a.193.193 0 0 1 .017-.021c.004.089-.01.284-.13.66zm.386 3.116c-.521.013-1.067.061-1.594.14.35-.509.695-1.07.987-1.602.166.518.378 1.03.607 1.462zM4.91 9.227c-.402.442-.61.543-.68.566-.057-.077-.045-.112-.042-.124.035-.102.246-.272.722-.442z"/><path d="M4.206 10.46a.578.578 0 0 1-.45-.204c-.275-.314-.257-.607-.193-.797.154-.461.793-.823 1.9-1.074A17.727 17.727 0 0 0 6.98 5.917c-.192-.895-.165-1.524.082-1.872a.725.725 0 0 1 .732-.292c.182.04.325.153.404.319.076.155.253.517-.416 1.935.185.738.49 1.51.826 2.087a5.1 5.1 0 0 1 .837.095c.47.102.736.287.81.566.066.241-.025.475-.268.697a.873.873 0 0 1-.784.222c-.339-.073-.682-.352-1.017-.829-.723.002-1.573.086-2.288.225-.308.4-.591.72-.842.948-.332.302-.603.443-.85.443zm3.447-6.52a.501.501 0 0 0-.427.222c-.21.296-.224.916-.041 1.747l.007.034-.015.032a17.896 17.896 0 0 1-1.575 2.56l-.023.03-.036.008c-1.041.232-1.66.56-1.791.95-.047.14-.058.36.156.604a.382.382 0 0 0 .298.135c.195 0 .423-.124.716-.391.248-.226.531-.546.842-.952l.022-.03.037-.007a12.956 12.956 0 0 1 2.386-.236h.083l.03.043c.316.46.626.727.925.791a.666.666 0 0 0 .607-.176c.186-.168.254-.33.21-.496-.054-.2-.27-.338-.66-.422a5.044 5.044 0 0 0-.857-.093l-.054-.002-.028-.047c-.361-.606-.692-1.437-.884-2.222l-.009-.035.016-.032c.645-1.358.484-1.687.432-1.795a.381.381 0 0 0-.267-.21.479.479 0 0 0-.1-.01zm-3.46 5.972l-.043-.057c-.06-.08-.078-.15-.057-.215.055-.164.34-.348.784-.506L5.254 9l-.27.295c-.404.444-.626.563-.722.595l-.069.022zm5.198-.777a.295.295 0 0 1-.068-.008c-.12-.026-.258-.118-.407-.272l-.195-.2.278.032c.123.013.234.03.328.05.161.035.254.074.303.099l.118.061-.092.097a.673.673 0 0 1-.046.045.323.323 0 0 1-.22.096zm-3.288-.673l.13-.189c.351-.513.69-1.064.98-1.593l.112-.204.07.22a9.24 9.24 0 0 0 .601 1.447l.076.142-.16.005c-.514.013-1.06.061-1.583.139l-.226.033zm1.175-1.487a19.5 19.5 0 0 1-.755 1.224c.408-.053.824-.089 1.224-.104a9.201 9.201 0 0 1-.469-1.12zm.155-1.29l-.01-.61c-.006-.333.038-.57.13-.7a.301.301 0 0 1 .028-.033l.158-.158.012.224c.006.108-.012.317-.133.696l-.185.582z"/></g><path fill="#D75050" d="M12.543 13.648H1.458c-.62 0-1.125-.504-1.125-1.124V1.476C.333.856.838.352 1.458.352h7.643c.274 0 .539.1.744.28l3.441 3.037c.242.213.381.52.381.844v8.011c0 .62-.504 1.124-1.124 1.124zM1.458.852a.625.625 0 0 0-.625.624v11.048c0 .345.28.624.625.624h11.085c.344 0 .624-.28.624-.624V4.513c0-.18-.077-.35-.21-.469L9.514 1.008A.627.627 0 0 0 9.1.852H1.458z"/></svg>