<svg xmlns="http://www.w3.org/2000/svg" viewBox="0 0 40 40"><path fill="#64C7CD" d="M40 40V0H0v40h18.937z"/><path fill="#2DACBD" d="M30.33 40H40V24.984L29.282 11.34l-12.923-.905-5.89.905.02 18.225L18.938 40h8.302z"/><path fill="#FFF" d="M28.322 29.99H11.678a1.67 1.67 0 0 1-1.668-1.668V11.678c0-.92.748-1.668 1.668-1.668h16.644c.92 0 1.668.748 1.668 1.668v16.644a1.67 1.67 0 0 1-1.668 1.668zM11.678 11.678v16.644h16.644V11.678H11.678z"/><path fill="#FFF" d="M18.859 14.953v2.962h-3.147v-2.962h3.147m.39-1.2h-3.927a.81.81 0 0 0-.81.81v3.742c0 .447.363.81.81.81h3.927a.81.81 0 0 0 .81-.81v-3.742a.81.81 0 0 0-.81-.81zm5.776 8.777h-10.05a.75.75 0 0 1 0-1.5h10.05a.75.75 0 0 1 0 1.5zm0 3.56h-10.05a.75.75 0 0 1 0-1.5h10.05a.75.75 0 0 1 0 1.5zm0-7.12h-2.75a.75.75 0 0 1 0-1.5h2.75a.75.75 0 0 1 0 1.5zm0-3.559h-2.75a.75.75 0 0 1 0-1.5h2.75a.75.75 0 0 1 0 1.5z"/></svg>