<svg xmlns="http://www.w3.org/2000/svg" viewBox="0 0 14 14"><path fill="#FA0" d="M5.348 4.772H7.2c.867 0 1.452.636 1.452 1.534S8.066 7.85 7.2 7.85h-.76v1.377H5.35V4.772zm1.627 2.144c.38 0 .567-.255.567-.61 0-.356-.187-.599-.548-.599h-.555v1.209h.536z"/><path fill="#FA0" d="M12.542 13.648H1.457c-.62 0-1.124-.504-1.124-1.124V1.476C.333.856.837.352 1.457.352h7.644c.273 0 .538.1.743.28l3.442 3.037c.242.215.381.522.381.844v8.011c0 .62-.505 1.124-1.125 1.124zM1.457.852a.625.625 0 0 0-.624.624v11.048c0 .345.28.624.624.624h11.085c.345 0 .625-.28.625-.624V4.513a.626.626 0 0 0-.212-.47L9.514 1.009A.627.627 0 0 0 9.1.852H1.457z"/></svg>