<svg xmlns="http://www.w3.org/2000/svg" viewBox="0 0 21.6 21.6"><path fill="#F6C765" d="M16.719 5.753l.325.321V4.857L21.6 9.413V0H0v21.6h8.356l-4.184-4.184 2.524-.21-2.524-2.525 4.68-1.246V4.184L21.6 16.932v-4.07l-5.995-5.995z"/><path fill="#F1B23C" d="M8.852 13.435l-4.68 1.246 2.524 2.525-2.524.21L8.356 21.6H21.6v-4.668L8.852 4.184zM21.6 11.53V9.413l-4.556-4.556v1.217l-.325-.321-1.114 1.114 5.995 5.995v-.992z"/><g fill="#FFF"><ellipse cx="16.166" cy="5.753" rx="1.262" ry="1.25"/><path d="M17.428 14.681L14.51 10.8l-1.409 1.051-4.249-7.667-4.68 10.497h9.537m-9.537 1.408h13.241v1.327H4.172z"/></g></svg>