<svg xmlns="http://www.w3.org/2000/svg" viewBox="0 0 21.6 21.6"><path fill="#F6C765" d="M8.338 7.583V6.44h4.746l8.516 8.515V0H0v21.6h13.187l-5.578-5.578z"/><path fill="#F1B23C" d="M21.6 14.955L13.084 6.44H8.338v1.143l-.729 8.439 5.578 5.578H21.6z"/><path fill="#FFF" d="M7.609 5.778c.647-.108 1.492-.2 2.569-.2 1.322 0 2.291.307 2.907.861.57.492.907 1.246.907 2.168 0 .939-.277 1.677-.799 2.215-.709.754-1.862 1.138-3.17 1.138-.399 0-.768-.015-1.076-.092v4.153H7.609V5.778zm1.338 4.999c.292.077.661.108 1.107.108 1.616 0 2.6-.785 2.6-2.215 0-1.369-.969-2.031-2.445-2.031-.585 0-1.031.046-1.261.108v4.03z"/></svg>