<svg xmlns="http://www.w3.org/2000/svg" viewBox="0 0 14 14"><path d="M9.4 8.2c-.2 0-.5-.1-.8-.1-.3-.6-.6-1.4-.8-2.1.7-1.4.5-1.8.4-1.9-.1-.2-.2-.3-.4-.3h-.2c-.2 0-.4.1-.5.2-.3.4-.3 1-.1 1.9-.4.8-1 1.7-1.5 2.5-1.2.2-1.8.6-1.9 1.1-.1.2-.1.5.2.8.1.1.2.2.3.2h.1c.2 0 .5-.1.9-.4.3-.2.5-.5.8-.9.7-.1 1.6-.2 2.3-.2.3.5.7.8 1 .8.3.1.6 0 .8-.2.3-.3.3-.5.3-.7-.1-.4-.4-.6-.9-.7zm-1.7-.1c-.4 0-.8.1-1.2.1.3-.4.5-.8.8-1.2.1.4.3.8.4 1.1z"/><path d="M13.5 3.4l-3.4-3c-.3-.3-.6-.4-1-.4H1.5C.6 0 0 .7 0 1.5v11c0 .8.6 1.5 1.5 1.5h11.1c.8 0 1.5-.7 1.5-1.5v-8c-.1-.4-.3-.8-.6-1.1zm-.7 9.1c0 .2-.1.3-.3.3h-11c-.2 0-.3-.1-.3-.3v-11c0-.2.1-.3.3-.3h7.6c.1 0 .1 0 .2.1l3.4 3c.1.1.1.1.1.2v8z"/></svg>