<svg xmlns="http://www.w3.org/2000/svg" viewBox="0 0 14 14"><path fill="#40A3F5" d="M3.91 4.735h1.851c.867 0 1.452.636 1.452 1.533s-.585 1.546-1.452 1.546h-.76V9.19h-1.09V4.735zm1.627 2.144c.38 0 .567-.255.567-.61 0-.356-.187-.599-.548-.599H5v1.21h.536zm2.416 1.19s.355.324.816.324c.162 0 .318-.043.318-.15 0-.28-1.502-.311-1.502-1.358 0-.605.58-.978 1.321-.978.748 0 1.128.367 1.128.367l-.368.767s-.31-.262-.76-.262c-.162 0-.318.044-.318.156 0 .243 1.502.28 1.502 1.315 0 .548-.486 1.015-1.315 1.015-.804 0-1.283-.473-1.283-.473l.461-.723z"/><path fill="#40A3F5" d="M12.543 13.648H1.458c-.62 0-1.125-.504-1.125-1.124V1.476C.333.856.838.352 1.458.352h7.643c.274 0 .539.1.744.28l3.441 3.037c.242.213.381.52.381.844v8.011c0 .62-.504 1.124-1.124 1.124zM1.458.852a.625.625 0 0 0-.625.624v11.048c0 .345.28.624.625.624h11.085c.344 0 .624-.28.624-.624V4.513c0-.18-.077-.35-.21-.469L9.514 1.008A.627.627 0 0 0 9.1.852H1.458z"/></svg>