<svg xmlns="http://www.w3.org/2000/svg" viewBox="0 0 14 14"><path fill="#2FBD8E" d="M12.542 13.648H1.457c-.62 0-1.124-.504-1.124-1.124V1.476C.333.856.837.352 1.457.352h7.644c.273 0 .538.1.743.28l3.442 3.037c.242.215.381.522.381.844v8.011c0 .62-.505 1.124-1.125 1.124zM1.457.852a.625.625 0 0 0-.624.624v11.048c0 .345.28.624.624.624h11.085c.345 0 .625-.28.625-.624V4.513a.626.626 0 0 0-.212-.47L9.514 1.009A.627.627 0 0 0 9.1.852H1.457z"/><path fill="#2FBD8E" d="M7 4.744H3.897a.5.5 0 1 1 0-1H7a.5.5 0 1 1 0 1zm3.102 2.812H3.897a.5.5 0 1 1 0-1h6.205a.5.5 0 1 1 0 1zm0 2.86H3.897a.5.5 0 1 1 0-1h6.205a.5.5 0 1 1 0 1z"/></svg>