<svg xmlns="http://www.w3.org/2000/svg" viewBox="0 0 21.6 21.6"><style>.st-ff3{fill:#f1b23c}</style><g id="Layer_1"><path fill="none" d="M7.083 15.147l1.743 1.743z"/><path d="M0 0v21.6h9.17l-2.687-2.903.188-1.579.998-.361.628.629.529-.496-1.743-1.743 2.114-.999.186-.347-3.312-3.311-.414-1.742.696-1.741 2.103-1.702h4.521l2.153.539.907-1.416.222-.646L21.6 9.123V0z" fill="#f6c765"/><path class="st-ff3" d="M11.87 21.6h1.666l-4.71-4.71-.529.496-.628-.629-.998.361-.188 1.579L9.17 21.6h2.112z"/><path class="st-ff3" d="M16.259 3.782l-.222.646-.907 1.416-2.153-.539H8.456L6.353 7.007l-.696 1.741.414 1.742 3.312 3.311-.186.347-2.114.999 1.743 1.743 4.71 4.71H21.6V9.123z"/><path d="M6.483 16.757h1.186v.36h-.745v.443h.696v.357h-.696v.78h-.441v-1.94zm3.323.95c0 .636-.386 1.022-.953 1.022-.576 0-.913-.435-.913-.987 0-.581.371-1.016.944-1.016.596 0 .922.446.922.981zm-1.402.026c0 .38.179.648.472.648.296 0 .466-.282.466-.66 0-.348-.167-.648-.469-.648-.296.001-.469.283-.469.66zm1.719.964v-1.94h.513l.403.711c.115.205.231.446.316.665h.009a7.153 7.153 0 0 1-.038-.809v-.567h.403v1.94h-.46l-.415-.748a7.16 7.16 0 0 1-.337-.686l-.008.003c.011.257.017.53.017.847v.584h-.403zm2.39-1.571h-.521v-.368h1.491v.368h-.529v1.571h-.441v-1.571zm-.342-2.612l-.118.481a4.713 4.713 0 0 1-.953.127c-.236 0-.627-.025-1.173-.076a13.535 13.535 0 0 0-1.105-.051c-.562 0-1.142.051-1.738.152l.118-.464c.568-.056.982-.174 1.24-.354.186-.129.345-.35.477-.662.132-.312.432-1.402.899-3.27l1.08-4.472.059-.211a15.84 15.84 0 0 0-.751-.025c-1.041 0-1.866.112-2.476.338s-1.07.552-1.377.98c-.307.428-.46.891-.46 1.387 0 .174.031.335.093.482.045.101.169.265.371.49.191.209.287.4.287.575a.518.518 0 0 1-.169.389.566.566 0 0 1-.405.16c-.236 0-.427-.113-.574-.337-.213-.333-.32-.755-.32-1.266 0-.686.212-1.353.637-2 .425-.647 1.009-1.148 1.751-1.502s1.645-.532 2.708-.532c.506 0 1.313.073 2.422.219.787.101 1.358.152 1.713.152s.605-.059.751-.177.219-.276.219-.472c0-.039-.008-.118-.025-.236a1.691 1.691 0 0 1-.025-.211.518.518 0 0 1 .515-.532c.169 0 .308.062.418.186s.165.29.165.498c0 .427-.228.796-.682 1.105-.456.309-1.216.464-2.285.464-.381 0-.789-.017-1.222-.051-.056.203-.233.889-.532 2.059l-.737 2.919-.447 1.78-.465 2.033c.377.045.689.068.937.068.375.001.768-.047 1.179-.143z" fill="#fff"/></g></svg>