<svg xmlns="http://www.w3.org/2000/svg" viewBox="0 0 14 14"><path fill="#0C070D" d="M13.995 4.707a.731.731 0 0 0-1.075-.643l-2.446 1.117V3.717c0-.604-.49-1.094-1.093-1.094H1.094C.49 2.623 0 3.113 0 3.717v6.566c0 .604.49 1.094 1.094 1.094H9.38c.604 0 1.093-.49 1.093-1.094V8.804l2.454 1.11A.731.731 0 0 0 14 9.268l-.005-4.56zm-4.52 5.576a.095.095 0 0 1-.094.094H1.094a.095.095 0 0 1-.095-.094V3.717c0-.052.043-.094.095-.094H9.38c.052 0 .094.042.094.094v6.566zm1.03-2.562l-.002-1.455 2.493-1.138L13 8.85l-2.496-1.13z"/></svg>