<svg xmlns="http://www.w3.org/2000/svg" viewBox="0 0 14 14"><path fill="#40A3F5" d="M5.713 10.064a.4.4 0 0 1-.4-.4V5.142a.4.4 0 0 1 .64-.32l3.099 2.326a.402.402 0 0 1-.009.646L5.944 9.991a.402.402 0 0 1-.231.073zm.4-4.123v2.95l2.02-1.433-2.02-1.517z"/><path fill="#40A3F5" d="M12.543 13.648H1.458c-.62 0-1.125-.504-1.125-1.124V1.476C.333.856.838.352 1.458.352h7.643c.274 0 .539.1.744.281l3.441 3.036c.242.213.381.52.381.844v8.011c0 .62-.504 1.124-1.124 1.124zM1.458.852a.625.625 0 0 0-.625.624v11.048c0 .345.28.624.625.624h11.085c.344 0 .624-.28.624-.624V4.513c0-.18-.077-.35-.21-.469L9.513 1.008A.622.622 0 0 0 9.1.852H1.458z"/></svg>