<svg xmlns="http://www.w3.org/2000/svg" viewBox="0 0 21.6 21.6"><path fill="#4F98D2" d="M5.658 4.959h9.654l.029.071 1.062-.419L21.6 9.808V0H0v21.6h9.808l-4.611-4.611.461-12.03zm-.461 10.914z"/><path fill="#3689C2" d="M9.975 21.6H21.6V9.808l-5.197-5.197-1.061.419-.029-.071H5.658l-.462 12.03L9.808 21.6h.167zm-2.344-3.294l-.907-.906-.23-.23.853.853.216.216.409.409-.341-.342z"/><path fill="#FFF" d="M5.197 4.611v12.378h11.206V4.611H5.197zm.663 1.963v-1.3h1.3v1.3h-1.3zm0 1.952v-1.3h1.3v1.3h-1.3zm0 1.953v-1.3h1.3v1.3h-1.3zm0 1.953v-1.3h1.3v1.3h-1.3zm0 1.952v-1.3h1.3v1.3h-1.3zm0 1.952v-1.3h1.3v1.3h-1.3zm1.942-5.867V5.274h5.975v5.194H7.802zm0 5.857v-5.194h5.975v5.194H7.802zm6.638-9.752v-1.3h1.3v1.3h-1.3zm0 1.952v-1.3h1.3v1.3h-1.3zm0 1.953v-1.3h1.3v1.3h-1.3zm0 1.953v-1.3h1.3v1.3h-1.3zm0 1.952v-1.3h1.3v1.3h-1.3zm0 1.952v-1.3h1.3v1.3h-1.3z"/></svg>