<svg xmlns="http://www.w3.org/2000/svg" viewBox="0 0 14 14"><path fill="#40A3F5" d="M3.86 5.113h1.146L5.567 7.9c.056.274.056.467.056.467h.013s.006-.193.074-.467l.686-2.786h.879L7.94 7.9c.069.274.075.467.075.467h.013s0-.193.056-.467l.61-2.786h1.129L8.695 9.57H7.48l-.56-2.25a3.602 3.602 0 0 1-.088-.523H6.82s-.02.237-.087.523l-.561 2.25H4.944L3.86 5.113z"/><path fill="#40A3F5" d="M12.542 13.648H1.457c-.62 0-1.124-.504-1.124-1.124V1.476C.333.856.837.352 1.457.352h7.644c.273 0 .538.1.743.28l3.442 3.037c.242.215.381.522.381.844v8.011c0 .62-.505 1.124-1.125 1.124zM1.457.852a.625.625 0 0 0-.624.624v11.048c0 .345.28.624.624.624h11.085c.345 0 .625-.28.625-.624V4.513a.626.626 0 0 0-.212-.47L9.514 1.009A.627.627 0 0 0 9.1.852H1.457z"/></svg>