<svg xmlns="http://www.w3.org/2000/svg" viewBox="0 0 14 14"><path d="M13.5 3.4l-3.4-3c-.3-.3-.6-.4-1-.4H1.5C.6 0 0 .7 0 1.5v11c0 .8.6 1.5 1.5 1.5h11.1c.8 0 1.5-.7 1.5-1.5v-8c-.1-.4-.3-.8-.6-1.1zm-.7 9.1c0 .2-.1.3-.3.3h-11c-.2 0-.3-.1-.3-.3v-11c0-.2.1-.3.3-.3h7.6c.1 0 .1 0 .2.1l3.4 3c.1.1.1.1.1.2v8z"/><path d="M4.865 11.858h-.47a.293.293 0 0 1-.294-.293v-.137c0-.162.131-.293.293-.293h.471c.162 0 .293.131.293.293v.137a.293.293 0 0 1-.293.293zm0 1.4h-.47a.293.293 0 0 1-.294-.293v-.137c0-.162.131-.293.293-.293h.471c.162 0 .293.131.293.293v.137a.293.293 0 0 1-.293.293zm1.127-.723H5.52a.293.293 0 0 1-.293-.293v-.137c0-.162.131-.293.293-.293h.47c.163 0 .294.131.294.293v.137a.293.293 0 0 1-.293.293zm-1.127-2.077h-.47a.293.293 0 0 1-.294-.293v-.137c0-.162.131-.293.293-.293h.471c.162 0 .293.131.293.293v.137a.293.293 0 0 1-.293.293zm1.127.677H5.52a.293.293 0 0 1-.293-.293v-.137c0-.161.131-.293.293-.293h.47c.163 0 .294.132.294.293v.137a.293.293 0 0 1-.293.293zM4.865 9.058h-.47a.293.293 0 0 1-.294-.293v-.137c0-.161.131-.292.293-.292h.471c.162 0 .293.13.293.292v.137a.293.293 0 0 1-.293.293zm1.127.677H5.52a.293.293 0 0 1-.293-.292v-.138c0-.161.131-.292.293-.292h.47c.163 0 .294.13.294.292v.138a.293.293 0 0 1-.293.292zM4.865 7.658h-.47a.293.293 0 0 1-.294-.292v-.138c0-.161.131-.292.293-.292h.471c.162 0 .293.13.293.292v.138a.293.293 0 0 1-.293.292zm1.127.678H5.52a.293.293 0 0 1-.293-.293v-.137c0-.162.131-.293.293-.293h.47c.163 0 .294.13.294.293v.137a.293.293 0 0 1-.293.293zm0-1.4H5.52a.293.293 0 0 1-.293-.293v-.137c0-.162.131-.293.293-.293h.47c.163 0 .294.131.294.293v.137a.293.293 0 0 1-.293.293zM5.38 5.85h-.365a.904.904 0 0 1-.904-.904V3.04c0-.18.146-.327.327-.327h1.52c.18 0 .327.147.327.327v1.906c0 .5-.405.905-.905.905zm.364-2.432H4.652a.546.546 0 1 0 1.092 0z"/></svg>