<svg xmlns="http://www.w3.org/2000/svg" viewBox="0 0 40 40"><path fill="#2FBD8E" d="M0 0v39.99h24.67l-6.508-19.746 5.984-11.038L39.99 25.051V0z"/><path fill="#279C75" d="M19.433 7.356l-8.189.398L10.953 30l9.99 9.99h19.048L40 24.044 24.168 8.11z"/><path fill="#FFF" d="M26.468 31.212H13.532a3.162 3.162 0 0 1-3.158-3.158V9.944a3.162 3.162 0 0 1 3.158-3.16h9.055a.57.57 0 0 1 .404.168l6.468 6.469a.57.57 0 0 1 .168.404v2.015a.571.571 0 1 1-1.143 0v-1.779L22.35 7.927h-8.818a2.018 2.018 0 0 0-2.016 2.017v18.11a2.02 2.02 0 0 0 2.016 2.016h12.936a2.018 2.018 0 0 0 2.016-2.016V26.78a.571.571 0 1 1 1.143 0v1.274a3.162 3.162 0 0 1-3.16 3.158z"/><path fill="#FFF" d="M21.948 14.316V9.827c0-.138.167-.207.264-.11l4.49 4.49a.155.155 0 0 1-.11.264h-4.489a.155.155 0 0 1-.155-.155z"/><g fill="#FFF"><path d="M29.063 20.198h-.647v1.293h.647a.648.648 0 0 0 0-1.293z"/><path d="M17.605 18.268v6.359c0 .411.334.745.746.745h12.948a.998.998 0 0 0 .998-.998V18.2a.59.59 0 0 0-.59-.59H18.263a.658.658 0 0 0-.658.657zm5.616 2.22l-2.174 2.172a.073.073 0 0 0 .052.125h2.07c.04 0 .073.033.073.073v1.148c0 .04-.033.073-.073.073h-3.735a.073.073 0 0 1-.073-.073v-1.459c0-.019.008-.038.021-.051l2.174-2.174a.073.073 0 0 0-.052-.124h-2.07a.073.073 0 0 1-.073-.073v-1.148c0-.04.033-.073.073-.073h3.735c.04 0 .073.033.073.073v1.459a.075.075 0 0 1-.021.051zm2.535 3.59h-1.148a.073.073 0 0 1-.072-.072v-5.029c0-.04.032-.073.072-.073h1.148c.04 0 .073.033.073.073v5.029c0 .04-.033.073-.073.073zm3.195-1.293h-.462a.073.073 0 0 0-.073.073v1.148c0 .04-.032.073-.073.073h-1.147a.073.073 0 0 1-.073-.073v-5.029c0-.04.032-.073.073-.073h1.867a1.943 1.943 0 0 1 1.91 2.292c-.167.945-1.063 1.589-2.022 1.589z"/></g></svg>