<svg xmlns="http://www.w3.org/2000/svg" viewBox="0 0 14 14"><path d="M0 7.933a6.067 6.067 0 0 0 12.133 0 .47.47 0 0 0-.466-.466H6.533V2.333a.47.47 0 0 0-.466-.466A6.067 6.067 0 0 0 0 7.933zm6.067 5.134c-1.42 0-2.7-.574-3.63-1.504-.93-.93-1.504-2.21-1.504-3.63s.574-2.699 1.504-3.63A5.113 5.113 0 0 1 5.6 2.824v5.11a.47.47 0 0 0 .467.467h5.11a5.113 5.113 0 0 1-1.48 3.163 5.114 5.114 0 0 1-3.63 1.504z"/><path d="M13.533 6.067H14A6.067 6.067 0 0 0 7.933 0a.47.47 0 0 0-.466.467v5.6a.47.47 0 0 0 .466.466h5.6A.47.47 0 0 0 14 6.067h-.467V5.6H8.4V.467h-.467v.466c1.42 0 2.7.574 3.63 1.504.93.93 1.504 2.21 1.504 3.63h.466V5.6v.467z"/></svg>