<svg xmlns="http://www.w3.org/2000/svg" viewBox="0 0 12 11.223"><path d="M10.244 0c-.27 0-.537.062-.76.175C7.005 1.226 2.983 2.91 2.299 3.17l-.951-.37c-.253-.097-.57-.003-.81.24-.532.539-.54 1.856-.536 2.11-.005.232-.002 1.415.514 1.942.257.261.584.354.849.24l.922-.393c.857.34 4.731 2.08 7.182 3.191.247.121.508.182.774.182A1.76 1.76 0 0 0 12 8.554V1.759A1.76 1.76 0 0 0 10.244 0zm.75 1.759v6.795c0 .653-.64.89-1.098.668C2.568 5.898 2.4 5.898 2.267 5.898a.48.48 0 0 0-.197.041l-.887.377c-.111-.218-.184-.751-.178-1.164-.009-.644.11-1.145.194-1.331l.883.345a.51.51 0 0 0 .18.032c.118 0 .296 0 7.644-3.11.411-.205 1.089.033 1.089.67z"/><path d="M6.23 9.803a1.605 1.605 0 0 1-1.177.412 1.622 1.622 0 0 1-1.125-.54 1.619 1.619 0 0 1-.413-1.18.5.5 0 0 0-.492-.53c-.291.02-.496.21-.511.474a2.63 2.63 0 0 0 2.481 2.778A2.624 2.624 0 0 0 6.9 10.55a.493.493 0 0 0 .168-.347.494.494 0 0 0-.128-.363.517.517 0 0 0-.71-.037z"/></svg>