<svg data-name="Layer 1" xmlns="http://www.w3.org/2000/svg" viewBox="0 0 24 24"><circle cx="12" cy="12" r="12" fill="#fcf7b6"/><path d="M6.14 9.571s-.158-.4.25-.4 4.016.007 4.1 0a.742.742 0 0 1 .607.4c.193.345 1.967 3.7 2.001 3.797s.11.359-.2.359H8.681c-.124 0-.47-.166-.711-.67S6.14 9.571 6.14 9.571z" fill="#83b441"/><path d="M11.291 9.404a.699.699 0 0 1 0-.646c.192-.274 2.469-3.18 2.532-3.225a.223.223 0 0 1 .374.073c.137.246 2.068 3.798 2.113 3.908a.643.643 0 0 1-.073.582c-.155.246-2.46 3.18-2.46 3.18s-.3.163-.436-.074-2.05-3.798-2.05-3.798z" fill="#1091cf"/><path d="M13.706 13.91s-.118-.262.072-.262h2.571s.196-.024.41.396 1.055 1.96 1.087 2.023.12.254-.103.262-2.514.031-2.514.031-.155.052-.433-.425-1.09-2.025-1.09-2.025z" fill="#83b441"/><path d="M11.704 16.171s-.101-.218 0-.353 1.504-1.916 1.504-1.916a.143.143 0 0 1 .244.05c.1.194 1.219 2.22 1.219 2.22a.367.367 0 0 1 0 .428c-.16.219-1.47 1.891-1.47 1.891a.164.164 0 0 1-.27-.059l-1.227-2.26z" fill="#1091cf"/></svg>