<svg xmlns="http://www.w3.org/2000/svg" viewBox="0 0 12 11.6"><path d="M5.457 5.305h-3.81l.824-.87a.496.496 0 1 0-.722-.681L.145 5.45l-.01.01c-.02.021-.029.047-.044.07-.019.028-.041.053-.054.085a.492.492 0 0 0 0 .373c.012.03.034.055.053.083.015.023.025.05.045.07l.009.01v.001L1.75 7.847a.494.494 0 0 0 .702.02.496.496 0 0 0 .02-.702l-.822-.868h3.808a.496.496 0 1 0 0-.992z"/><path d="M10.04.008A.474.474 0 0 0 9.952 0h-4.19c-.038 0-.074.005-.071.008C4.608.073 3.76 1.058 3.76 2.251c0 .271.207.493.462.493.254 0 .46-.222.46-.493 0-.689.48-1.242 1.13-1.265L9.985.99c.612.018 1.092.571 1.092 1.26v7.098c0 .688-.48 1.242-1.126 1.267l-4.173-.005c-.613-.02-1.093-.574-1.093-1.262 0-.271-.207-.492-.462-.492s-.462.22-.462.492c0 1.226.874 2.212 1.957 2.242a.417.417 0 0 0 .09.009h4.19c.038 0 .07-.004.069-.007C11.15 11.528 12 10.543 12 9.35V2.251C11.999 1.026 11.126.04 10.04.008zm-.087.17zM5.806 10.794z"/></svg>