<svg xmlns="http://www.w3.org/2000/svg" viewBox="0 0 11.98 9.549"><path d="M8.254 2.507H3.63a.5.5 0 1 0 0 1h4.623a.5.5 0 1 0 0-1z"/><path d="M11.974 4.929a.495.495 0 0 0-.06-.236L9.54.267A.5.5 0 0 0 9.1.003L2.87 0a.5.5 0 0 0-.44.264L.06 4.694A.496.496 0 0 0 0 4.93v4.119a.5.5 0 0 0 .5.5h10.98a.498.498 0 0 0 .5-.501l-.006-4.12zm-3.449.032c.01.15-.017.587-.24.823-.117.124-.287.184-.518.184H4.133c-.153-.006-.649-.1-.649-1.038v-.5h-2.15L3.172 1l5.63.003 1.837 3.427-2.143.003.03.528zM1 8.55V5.43h1.522c.073.44.245.797.515 1.067a1.63 1.63 0 0 0 1.086.472h3.644c.51 0 .943-.175 1.25-.505.298-.318.423-.716.475-1.033h1.482l.005 3.119H1z"/></svg>