<svg viewBox="0 0 16 16" xmlns="http://www.w3.org/2000/svg"><g fill="none" fill-rule="evenodd"><path d="M8.884 6.73c0-.953.776-1.729 1.73-1.729.953 0 1.729.776 1.729 1.729a1.73 1.73 0 0 1-1.729 1.729c-.954 0-1.73-.775-1.73-1.729zm2.337 3.168c.225-.043.444-.105.65-.192a3.247 3.247 0 0 0 1.421-1.17 3.218 3.218 0 0 0 .551-1.806 3.218 3.218 0 0 0-.946-2.283 3.214 3.214 0 0 0-2.283-.946 3.219 3.219 0 0 0-2.678 1.423 3.219 3.219 0 0 0-.552 1.806 3.219 3.219 0 0 0 2.646 3.171c-3.757.326-4.78 3.582-4.78 5.349a.75.75 0 0 0 1.5 0c0-.159.045-3.882 3.901-3.882 3.692 0 3.823 3.47 3.826 3.863a.75.75 0 1 0 1.5 0c0-1.767-1.017-5.028-4.756-5.333z" fill="#0A0B09"/><path d="M5.859 7.523L3.937 4.524a.749.749 0 1 0-1.263.81l1.214 1.895L2 7.226a.5.5 0 0 1-.5-.499V1.98a.5.5 0 0 1 .5-.5h2.251a.75.75 0 0 0 0-1.5H2a2 2 0 0 0-2 2v4.747a2 2 0 0 0 2 2l1.793.001-1.19 1.785a.75.75 0 1 0 1.248.832l2-3.001a.752.752 0 0 0 .008-.821" fill="#0A0A08"/></g></svg>