<svg xmlns="http://www.w3.org/2000/svg" viewBox="0 0 8.002 12"><path d="M3.737 3.484c-.96 0-1.742-.782-1.742-1.742S2.776 0 3.737 0s1.742.782 1.742 1.742-.782 1.742-1.742 1.742zm0-2.833a1.091 1.091 0 0 0 0 2.181 1.092 1.092 0 0 0 0-2.18zm3.939 9.053h-3.22l.997-.996a.325.325 0 1 0-.46-.46L3.44 9.799a.324.324 0 0 0 0 .462l1.552 1.552a.326.326 0 1 0 .461-.46l-.998-.997h3.221a.326.326 0 1 0 0-.652z"/><path d="M7.31 6.949l.011-.003C6.868 5.466 5.394 4.43 3.737 4.43 1.677 4.431 0 5.971 0 7.866l.006 3.839H.02A.316.316 0 0 0 .33 12a.316.316 0 0 0 .312-.297h.014L.651 7.865c0-1.535 1.384-2.782 3.086-2.782 1.374 0 2.592.844 2.962 2.053l.015-.005c.035.149.149.269.308.269.186 0 .336-.15.336-.337 0-.044-.031-.075-.047-.114z"/></svg>