<svg xmlns="http://www.w3.org/2000/svg" viewBox="0 0 11.856 12"><path d="M3.575 4.807c.449 0 .872-.175 1.193-.494a1.691 1.691 0 0 0 0-2.382c-.612-.612-1.773-.61-2.384 0a1.68 1.68 0 0 0 .001 2.384c.319.318.742.492 1.19.492zm-.667-1.685a.66.66 0 0 1 .196-.471.663.663 0 0 1 .943 0c.26.26.26.683.001.943-.238.235-.706.235-.944.001a.67.67 0 0 1-.196-.473zm5.654-.024c.419 0 .811-.162 1.107-.458a1.57 1.57 0 0 0 0-2.215C9.1-.14 8.02-.143 7.454.425a1.55 1.55 0 0 0-.458 1.109c0 .419.163.812.46 1.108a1.55 1.55 0 0 0 1.106.456zm-.567-1.565a.563.563 0 0 1 .567-.567.568.568 0 0 1 .4.967c-.1.1-.246.158-.4.158s-.3-.057-.401-.157a.567.567 0 0 1-.166-.401zm-4.39 4.04h-.062A3.548 3.548 0 0 0 0 9.117v2.374a.51.51 0 0 0 1.018 0V9.117A2.528 2.528 0 0 1 3.543 6.59h.062a2.53 2.53 0 0 1 2.527 2.526v2.374a.51.51 0 0 0 1.018 0V9.117a3.549 3.549 0 0 0-3.545-3.544zM8.604 3.84h-.056c-.87 0-1.686.338-2.299.952a.5.5 0 0 0-.002.707c.19.188.523.188.708 0a2.24 2.24 0 0 1 1.593-.66h.056a2.254 2.254 0 0 1 2.252 2.252v2.154a.5.5 0 0 0 1 0V7.091a3.255 3.255 0 0 0-3.252-3.25z"/></svg>