<svg xmlns="http://www.w3.org/2000/svg" viewBox="0 0 12 12"><path d="M9.2 3.63a.506.506 0 0 0-.702-.134L5.565 5.494 2.715 3.5a.505.505 0 1 0-.581.828L5.27 6.523a.506.506 0 0 0 .575.004l3.222-2.195a.505.505 0 0 0 .133-.703zm2.692 4.539a.505.505 0 0 0-.11-.553l-1.567-1.568a.506.506 0 1 0-.716.715l.706.705h-2.86a.506.506 0 1 0 0 1.012h2.86l-.706.704a.506.506 0 1 0 .716.716l1.568-1.568a.505.505 0 0 0 .11-.163z"/><path d="M4.836 8.48H2.027A1.085 1.085 0 0 1 .943 7.396v-4.77c0-.597.486-1.083 1.084-1.083H9.18c.598 0 1.084.486 1.084 1.084v1.192a.506.506 0 1 0 1.012 0V2.627c0-1.156-.94-2.096-2.096-2.096H2.027c-1.156 0-2.095.94-2.095 2.096v4.77c0 1.155.94 2.094 2.095 2.094h2.809a.506.506 0 1 0 0-1.011z"/></svg>