<svg xmlns="http://www.w3.org/2000/svg" viewBox="0 0 14 14"><path d="M5.77 9.903a1.1 1.1 0 0 1-1.105-1.105V5.202a1.1 1.1 0 0 1 .604-.985c.369-.19.811-.155 1.15.093l2.465 1.798c.283.208.453.54.453.892s-.17.685-.453.893L6.419 9.69c-.193.141-.42.212-.65.212zm.043-4.55l.049 3.26L8.072 7l-2.26-1.647z"/><path d="M9.265 1.169a.68.68 0 0 1 .403.16l2.965 2.808c.093.089.17.266.17.395v8.065a.234.234 0 0 1-.234.234H1.43a.234.234 0 0 1-.234-.234V1.403c0-.129.106-.234.234-.234h7.834m0-1.169H1.43C.658 0 .03.63.03 1.403v11.194A1.402 1.402 0 0 0 1.43 14h11.14c.773 0 1.402-.63 1.402-1.403V4.532c0-.448-.21-.936-.534-1.243L10.472.48A1.848 1.848 0 0 0 9.265 0z"/></svg>