<svg viewBox="0 0 512 512" xmlns="http://www.w3.org/2000/svg" fill-rule="evenodd" clip-rule="evenodd" stroke-linejoin="round" stroke-miterlimit="1.414"><path d="M256 511C115.262 511 1 396.738 1 256S115.262 1 256 1s255 114.262 255 255-114.262 255-255 255zm0-20.041c129.765 0 234.959-105.188 234.959-234.959 0-129.771-105.194-234.959-234.959-234.959S21.041 126.229 21.041 256c0 129.771 105.194 234.959 234.959 234.959zm78.496-169.714l-64.85-64.85 61.246-61.247c3.661-3.666 3.481-9.786-.389-13.659-3.871-3.873-9.986-4.048-13.647-.382l-61.246 61.247-64.851-64.849c-3.872-3.873-9.985-4.048-13.646-.399-3.662 3.666-3.478 9.77.394 13.643l64.851 64.849-61.253 61.264c-3.656 3.65-3.48 9.77.389 13.643 3.871 3.873 9.991 4.048 13.648.382l61.252-61.248 64.85 64.85c3.871 3.873 9.98 4.064 13.641.399 3.662-3.666 3.482-9.786-.389-13.643z" fill-rule="nonzero"/></svg>