<svg xmlns="http://www.w3.org/2000/svg" viewBox="0 0 12 11.383"><path d="M9.288 5.082c0-.746.607-1.351 1.356-1.351.75 0 1.356.605 1.356 1.35 0 .747-.607 1.352-1.356 1.352a1.354 1.354 0 0 1-1.356-1.351zm0 4.404c0-.746.607-1.35 1.356-1.35.75 0 1.356.604 1.356 1.35 0 .747-.607 1.351-1.356 1.351a1.354 1.354 0 0 1-1.356-1.35zM8.177 5.54C6.583 2.35 3.093 3.587 3.093 3.587v2.35c.396-.406 1.053-.805 1.662-.805 1.204 0 2.18.984 2.18 2.197a2.188 2.188 0 0 1-2.18 2.198 2.16 2.16 0 0 1-.855-.176c-.785-.278-1.426-.996-1.56-1.532-.031-.118.013-.263 0-.388-.037-.314-.113-.38-.113-.38V.866C2.164.027 1.58 0 1.58 0H0v1.856h.619v7.67H0v1.857h1.895l.446-.849c2.116 1.728 4.21.278 4.21.278C9.813 8.78 8.177 5.54 8.177 5.54z"/></svg>