<svg xmlns="http://www.w3.org/2000/svg" viewBox="0 0 14 14"><path fill-rule="evenodd" clip-rule="evenodd" fill="#323232" d="M4.294 9.03a.25.25 0 0 1-.25.25H3.043a.25.25 0 0 1-.25-.25V4.798a.25.25 0 0 1 .25-.25h1.001a.25.25 0 0 1 .25.25V9.03zm2.454-.001a.25.25 0 0 1-.25.251H5.497a.25.25 0 0 1-.25-.251V6.512a.25.25 0 0 1 .25-.252h1a.25.25 0 0 1 .25.252v2.517zm2.232-2.52a.453.453 0 0 0 .221-.365V3.087a.25.25 0 0 0-.25-.25h-1a.25.25 0 0 0-.25.25v4.067c0 .137.084.176.189.086l1.09-.731z"/><path fill="#323232" d="M11.57 0H.44A.442.442 0 0 0 0 .443V11.64c0 .245.197.443.44.443h5.742v-1.51h-4.68V1.51h9.007v4.638h1.5V.443A.442.442 0 0 0 11.57 0z"/><path fill="#2D2D2B" d="M13.856 10.201h-.8a2.528 2.528 0 0 0-2.195-2.193v-.806a.145.145 0 0 0-.144-.144h-.45a.145.145 0 0 0-.144.144v.82a2.534 2.534 0 0 0-2.059 2.179h-.8a.144.144 0 0 0-.143.145v.454c0 .08.064.145.144.145h.808a2.536 2.536 0 0 0 2.05 2.09v.82c0 .08.065.145.144.145h.45a.145.145 0 0 0 .144-.144v-.806a2.53 2.53 0 0 0 2.187-2.105h.808A.145.145 0 0 0 14 10.8v-.455a.145.145 0 0 0-.144-.144zm-2.995 2.154v-.684a.145.145 0 0 0-.144-.145h-.45a.145.145 0 0 0-.144.145v.657a1.846 1.846 0 0 1-1.354-1.383h.667a.145.145 0 0 0 .144-.145v-.455a.145.145 0 0 0-.144-.144h-.684a1.846 1.846 0 0 1 1.371-1.47v.656c0 .08.065.144.144.144h.45a.145.145 0 0 0 .144-.144v-.685a1.843 1.843 0 0 1 1.508 1.499h-.684a.144.144 0 0 0-.144.145v.454c0 .08.064.145.144.145h.666a1.843 1.843 0 0 1-1.49 1.41z"/></svg>