<svg xmlns="http://www.w3.org/2000/svg" viewBox="0 0 12 12"><path fill="#404040" d="M4.96 7.155c-.475.287-1.235.65-1.645.164-.227-.263-.178-.742.032-1.202.136-.293.323-.572.509-.852-.096.22-.346.943.16 1.211.2.103.513.07.888-.088L9.37 4.474l-4.41 2.68z"/><path fill="#404040" d="M11.733 10.058H.267A.267.267 0 0 1 0 9.791V7.353c0-.148.12-.267.267-.267a1.087 1.087 0 0 0 0-2.171A.267.267 0 0 1 0 4.648v-2.44c0-.147.12-.266.267-.266h11.466c.148 0 .267.12.267.267v2.448c0 .14-.109.256-.249.266A1.086 1.086 0 0 0 10.74 6c0 .565.444 1.038 1.011 1.077.14.01.249.126.249.266v2.448c0 .148-.12.267-.267.267zm-.733-1v-1.15A2.086 2.086 0 0 1 9.74 6c0-.847.517-1.587 1.26-1.909v-1.15H1v1.106A2.09 2.09 0 0 1 2.353 6 2.09 2.09 0 0 1 1 7.953v1.105h10z"/></svg>