<svg xmlns="http://www.w3.org/2000/svg" viewBox="0 0 14 14"><path fill="#020202" d="M3.398 11.41c-.367 0-.704-.053-.972-.127-.975-.281-1.668-.83-2.064-1.632-.82-1.664.004-3.803.04-3.893 1.083-2.902 3.85-3.317 5.161-3.129a.57.57 0 0 1 .221 1.051c-.987.614-1.264 1.196-1.335 1.538.718.224 1.267.623 1.638 1.19.745 1.14.443 2.529.43 2.587-.54 1.908-1.975 2.414-3.119 2.414zm.435-7.505c-.853.248-1.837.85-2.364 2.262-.01.026-.678 1.775-.08 2.982.251.507.692.845 1.35 1.034.207.056 2.11.508 2.67-1.47v.001c-.001 0 .193-.966-.283-1.688-.27-.41-.727-.68-1.355-.801a.57.57 0 0 1-.442-.41c-.014-.048-.234-.903.504-1.91zm6.977 7.505c-.367 0-.704-.053-.972-.127-.976-.281-1.669-.83-2.064-1.632-.82-1.664.004-3.803.04-3.893 1.083-2.902 3.847-3.317 5.16-3.129a.57.57 0 0 1 .222 1.051c-.987.614-1.264 1.196-1.336 1.538.718.224 1.268.623 1.638 1.19.745 1.14.444 2.529.43 2.587-.54 1.908-1.975 2.414-3.118 2.414zm.435-7.505c-.853.248-1.838.85-2.364 2.262-.01.026-.678 1.775-.08 2.982.251.507.692.845 1.349 1.034.208.056 2.11.508 2.671-1.47v.001c-.002 0 .193-.966-.284-1.688-.27-.41-.726-.68-1.355-.801a.57.57 0 0 1-.442-.41c-.014-.048-.233-.903.505-1.91z"/></svg>