<svg xmlns="http://www.w3.org/2000/svg" viewBox="0 0 21.6 21.6"><path fill="#F9D550" d="M10.345 15.525l6.675-.887 4.58 4.58V0H0v21.6h10.226l-5.635-5.635 5.129-1.327z"/><path fill="#F0B82F" d="M16.378 21.6H21.6v-6.58l-7.142-7.142-2.896.485-2.728-2.728L4.58 6.962 6.748 9.13l-2.157.075L6.486 11.1l-1.895.357 2.187 2.187-2.187.066 1.792 1.792-1.792.463 5.635 5.635h4.483z"/><path d="M4.58 5.635h4.253v1.327H4.58zm.011 2.243h9.867v1.327H4.591zm0 2.252h7.026v1.327H4.591zm0 2.253h11.812v1.327H4.591zm0 2.255H17.02v1.327H4.591z" fill="#FFF"/></svg>