<svg xmlns="http://www.w3.org/2000/svg" viewBox="0 0 14 14"><path d="M11.275 13.888H1.16c-.64 0-1.16-.52-1.16-1.159V1.17C0 .531.52.011 1.16.011h8.05a.5.5 0 1 1 0 1H1.159a.16.16 0 0 0-.16.16v11.558c0 .088.072.16.16.16h10.116a.159.159 0 0 0 .159-.16V7.632a.5.5 0 1 1 1 0v5.097c0 .64-.52 1.16-1.159 1.16zM8.642 3.824a.5.5 0 0 0-.5-.5H3.358a.5.5 0 1 0 0 1h4.784a.5.5 0 0 0 .5-.5zM7.097 5.94a.5.5 0 0 0-.5-.5H3.358a.5.5 0 1 0 0 1h3.239a.5.5 0 0 0 .5-.5zm1.545 2.12a.5.5 0 0 0-.5-.5H3.358a.5.5 0 1 0 0 1h4.784a.5.5 0 0 0 .5-.5zm-1.545 2.117a.5.5 0 0 0-.5-.5H3.358a.5.5 0 1 0 0 1h3.239a.5.5 0 0 0 .5-.5zM13.78 3.85c-.2-.2-.51-.2-.71 0l-.64.64V.51c0-.27-.22-.5-.5-.5-.27 0-.5.23-.5.5v3.92l-.64-.64a.501.501 0 0 0-.7 0c-.2.2-.2.52 0 .71l1.52 1.52a.485.485 0 0 0 .7 0l1.47-1.47c.19-.19.19-.51 0-.7z"/></svg>