<svg id="Layer_1" xmlns="http://www.w3.org/2000/svg" viewBox="0 0 14 14"><style></style><path d="M14 1.946v10.193c-.377.903-.994 1.554-1.946 1.853-3.907 0-7.815-.003-11.722.008C.056 14 0 13.944 0 13.668.011 9.73.008 5.79.008 1.853.27 1.42.447.934.855.588 1.161.33 1.552.24 1.861 0h10.193c.24.11.488.209.72.334.651.35.975.955 1.226 1.612zM3.8 7.174c0 .94-.002 1.88.002 2.82 0 .156-.065.364.218.357.939-.025 1.885.087 2.815-.08.777-.139 1.385-.553 1.593-1.358.211-.815.038-1.535-.71-2.024-.189-.123-.126-.187-.009-.304.548-.547.683-1.2.404-1.91-.278-.708-.877-1.015-1.597-1.068-.614-.045-1.232-.04-1.848-.036-.624.004-.863.253-.867.875-.005.91-.001 1.819-.001 2.728zm6.175 3.227c.486.001.81-.323.802-.806-.007-.461-.32-.784-.773-.797-.473-.012-.82.319-.828.79-.007.478.32.811.8.813z" fill="#1f3975"/><path d="M3.8 7.174c0-.91-.004-1.819.001-2.728.004-.622.243-.87.867-.875.616-.004 1.234-.009 1.848.036.72.053 1.319.36 1.597 1.068.279.71.144 1.363-.404 1.91-.117.117-.18.18.009.304.748.489.921 1.209.71 2.024-.208.805-.816 1.22-1.593 1.359-.93.166-1.876.054-2.815.079-.283.007-.217-.201-.218-.356-.004-.94-.002-1.88-.002-2.82zm1.307 1.18c0 .832 0 .832.844.83.154 0 .308.003.461-.011a.76.76 0 0 0 .649-.45c.306-.627-.047-1.312-.74-1.351-1.254-.071-1.238-.037-1.214.983zm.002-2.742c-.002.693-.002.693.7.692.108 0 .216.003.323-.003.485-.026.758-.308.773-.793.014-.49-.236-.77-.738-.809-.199-.015-.4-.01-.6-.005-.295.005-.453.157-.458.457-.002.154 0 .308 0 .461z" fill="#fafbfc"/><path d="M9.975 10.4c-.478-.001-.806-.334-.799-.813.007-.47.355-.801.828-.789.452.013.766.336.773.797.007.483-.316.807-.802.806z" fill="#379ad6"/><path d="M5.107 8.355c-.024-1.02-.04-1.054 1.214-.983.693.039 1.046.724.74 1.351a.76.76 0 0 1-.649.45c-.153.014-.307.01-.46.011-.845.002-.845.002-.845-.83z" fill="#233d77"/><path d="M5.109 5.612c0-.153-.002-.307 0-.46.005-.3.163-.453.459-.458.2-.004.4-.01.599.005.502.038.752.318.738.81-.015.484-.288.766-.773.792-.107.006-.215.003-.322.003-.703 0-.703 0-.701-.692z" fill="#213b76"/></svg>