<svg xmlns="http://www.w3.org/2000/svg" viewBox="0 0 14 14"><path d="M13.578.436C13.229.087 12.794 0 12.358 0c-.559 0-1.189.036-1.721.214-.428.143-.806.4-1.148.689a7.346 7.346 0 0 0-.53.491L6.085 4.357h-3.66c-.522 0-.958.174-1.393.522l-.872.872c-.197.198-.13.569 0 .697l2.179 2.178L5.3 11.59l2.179 2.178c.356.356.697.174.784.087l.871-.871c.349-.349.523-.872.523-1.394V7.93l2.875-2.875c.366-.366.722-.757.974-1.212.253-.457.325-.965.404-1.476.054-.35.093-.711.044-1.064-.046-.326-.141-.632-.376-.866zM1.712 5.554c.249-.249.452-.326.713-.326h2.788l-2.527 2.44-1.568-1.569.594-.545zm7.074 6.035c0 .261-.103.451-.349.697l-.523.61-1.568-1.569 2.44-2.44v2.702zm4.331-10.02c.023.469.003.973-.133 1.42a3 3 0 0 1-.558.996 5.676 5.676 0 0 1-.19.221c-.035.04-.178.238-.227.238l-6.273 6.273-.871-.871-.61-.61-.872-.871L9.657 2.09c.344-.344.704-.701 1.127-.95.43-.253.976-.253 1.464-.264.125-.003.246-.008.368.025.321.087.476.244.497.586l.004.082z"/><path d="M11.866 3.756a.496.496 0 0 1-.347-.141l-1.073-1.043a.498.498 0 0 1 .694-.714l1.073 1.043a.498.498 0 0 1-.347.855zM.522 14a.498.498 0 0 1-.475-.647l1.236-3.934a.498.498 0 0 1 .95.299l-.973 3.097 3.04-.724a.499.499 0 0 1 .23.969l-3.893.926A.49.49 0 0 1 .522 14z"/></svg>