<svg xmlns="http://www.w3.org/2000/svg" viewBox="0 0 14 14"><path d="M7.198 13.98a.584.584 0 0 1-.166-.024C.799 12.153.74 7.285.677 2.13l-.006-.545A.6.6 0 0 1 .72 1.34a.6.6 0 0 1 .479-.41l5.83-.903a.587.587 0 0 1 .209.004l5.608 1.11a.6.6 0 0 1 .483.595c-.055 4.926-.563 10.338-5.933 12.21a.592.592 0 0 1-.198.033zM1.877 2.04v.077c.061 5.042.11 9.038 5.303 10.631 3.911-1.46 4.832-5.118 4.941-10.526l-5.013-.993-5.231.811z"/><path d="M9.587 5.864a.163.163 0 0 0-.131-.11L7.86 5.522l-.714-1.447a.163.163 0 0 0-.292 0L6.14 5.522l-1.596.232a.163.163 0 0 0-.09.277l1.155 1.126-.273 1.59a.163.163 0 0 0 .236.171L7 8.168l1.428.75a.163.163 0 0 0 .236-.171l-.273-1.59 1.155-1.126a.163.163 0 0 0 .041-.167z"/></svg>