<svg xmlns="http://www.w3.org/2000/svg" viewBox="0 0 14 14"><path d="M8.09 7.717l-.375-.197-1.312.69a.467.467 0 0 1-.675-.491l.25-1.46-.308-.3-.213.432-1.623.236a.165.165 0 0 0-.091.282l1.173 1.144L4.64 9.67a.165.165 0 0 0 .24.174l1.451-.762 1.452.762a.165.165 0 0 0 .174-.012c.05-.037.076-.1.065-.162l-.277-1.616.345-.336z"/><path d="M7.715 2.93c.063 0 .12.035.148.091l.726 1.47 1.622.236a.165.165 0 0 1 .092.282L9.129 6.154l.277 1.616a.165.165 0 0 1-.24.174l-1.451-.763-1.451.763a.165.165 0 0 1-.24-.174L6.3 6.154 5.127 5.009a.165.165 0 0 1 .091-.282l1.623-.235.725-1.47a.165.165 0 0 1 .149-.093"/><path d="M7.199 13.98a.584.584 0 0 1-.167-.024C.798 12.153.74 7.285.677 2.13L.67 1.586a.6.6 0 0 1 .05-.246.6.6 0 0 1 .479-.409l5.83-.903a.587.587 0 0 1 .208.004l5.609 1.11a.6.6 0 0 1 .483.595c-.055 4.926-.562 10.338-5.933 12.21a.592.592 0 0 1-.197.033zM1.877 2.04v.077c.061 5.042.11 9.038 5.304 10.631 3.91-1.461 4.832-5.118 4.94-10.526l-5.013-.993-5.231.811z"/></svg>