<svg viewBox="0 0 512 512" xmlns="http://www.w3.org/2000/svg" fill-rule="evenodd" clip-rule="evenodd" stroke-linejoin="round" stroke-miterlimit="1.414"><path fill="none" d="M0 0h512v512H0z"/><g fill="#fff"><path d="M401.438 120C419.974 120 435 135.11 435 153.75v202.5c0 18.64-15.026 33.75-33.562 33.75H110.563C92.026 390 77 374.89 77 356.25v-202.5C77 135.11 92.026 120 110.563 120h290.875zm0 247.5c6.168 0 11.187-5.047 11.187-11.25v-202.5c0-6.203-5.019-11.25-11.187-11.25H110.563c-6.169 0-11.188 5.047-11.188 11.25v202.5c0 6.203 5.019 11.25 11.188 11.25h290.875zM300.071 198.067l-66.446 66.818-21.696-21.817c-6.554-6.59-17.179-6.59-23.732 0l-61.531 61.875a16.919 16.919 0 0 0-4.916 11.932v19.688c0 4.659 3.757 8.437 8.391 8.437h251.718c4.634 0 8.391-3.778 8.391-8.438v-64.687c0-4.475-1.768-8.768-4.915-11.933l-61.531-61.875c-6.554-6.589-17.179-6.589-23.733 0zM367.875 322.5v-48.295l-55.937-56.25-78.313 78.75-33.562-33.75-55.938 56.25v3.295h223.75zm-212.562-84.375c21.625 0 39.156-17.629 39.156-39.375s-17.531-39.375-39.156-39.375c-21.626 0-39.157 17.629-39.157 39.375s17.531 39.375 39.157 39.375zm0-56.25c9.253 0 16.781 7.57 16.781 16.875s-7.528 16.875-16.781 16.875c-9.254 0-16.782-7.57-16.782-16.875s7.528-16.875 16.782-16.875zM37.027 64C33.698 64 31 62.209 31 60V44c0-2.209 2.698-4 6.027-4h437.946c3.329 0 6.027 1.791 6.027 4v16c0 2.209-2.698 4-6.027 4H37.027zM37.027 472c-3.329 0-6.027-1.791-6.027-4v-16c0-2.209 2.698-4 6.027-4h437.946c3.329 0 6.027 1.791 6.027 4v16c0 2.209-2.698 4-6.027 4H37.027z"/></g></svg>