<svg width="24" height="24" xmlns="http://www.w3.org/2000/svg"><g fill="#FFF" fill-rule="nonzero"><path d="M22.967 13.267H6.337a1.033 1.033 0 0 1 0-2.067h16.63a1.033 1.033 0 0 1 0 2.067zM22.967 4.657H6.337a1.033 1.033 0 0 1 0-2.067h16.63a1.033 1.033 0 0 1 0 2.067zM22.967 21.877H6.337a1.033 1.033 0 0 1 0-2.067h16.63a1.033 1.033 0 0 1 0 2.067zM2.413 5.875a.592.592 0 0 1-.456-.194c-.113-.123-.17-.299-.17-.523V2.222s-.516.555-.804.7c-.127.063-.373.118-.53-.039a.528.528 0 0 1-.156-.38c0-.21.148-.387.229-.448.08-.061.97-.928 1.143-1.1.16-.16.286-.242.378-.335.074-.075.275-.134.433-.134.173 0 .32.071.422.205a.772.772 0 0 1 .143.485v3.85c0 .739-.395.85-.632.85zM3.649 13.628c-.122-.096-.293-.144-.507-.144H1.74c.128-.14.333-.326.615-.555.34-.279.58-.483.727-.612a2.48 2.48 0 0 0 .456-.575 1.617 1.617 0 0 0 .119-1.424 1.505 1.505 0 0 0-.78-.825 2.343 2.343 0 0 0-.949-.176c-.306 0-.577.047-.809.138a1.709 1.709 0 0 0-.581.37c-.152.15-.334.343-.413.533a1.315 1.315 0 0 0-.125.528c0 .15.045.26.137.361.09.104.485.288.797-.028.074-.075.151-.219.202-.37.044-.133.193-.383.439-.46a.547.547 0 0 1 .051-.016s.326-.084.559.038l.05.028a.531.531 0 0 1 .19.18.543.543 0 0 1 .078.296.783.783 0 0 1-.08.333 1.34 1.34 0 0 1-.25.358 2.801 2.801 0 0 1-.428.367 5.24 5.24 0 0 0-.536.452c-.24.223-.512.49-.816.805a1.317 1.317 0 0 0-.229.36.969.969 0 0 0-.106.392c0 .173.064.324.192.45.126.126.3.19.515.19H3.24c.197 0 .351-.057.456-.168a.56.56 0 0 0 .156-.398.523.523 0 0 0-.203-.428zM3.717 21.223a1.415 1.415 0 0 0-.308-.457 1.921 1.921 0 0 0-.279-.23 1.95 1.95 0 0 0 .28-.352c.114-.187.17-.411.17-.666 0-.194-.038-.38-.115-.549a1.256 1.256 0 0 0-.345-.45 1.549 1.549 0 0 0-.523-.289 2.04 2.04 0 0 0-.65-.098c-.268 0-.514.038-.734.116-.22.077-.409.182-.562.312-.183.16-.397.353-.436.605-.014.09.027.225.083.338.039.061.092.12.175.161 0 0 .244.112.53-.014.215-.095.3-.363.557-.47.122-.05.274-.061.292-.061a.45.45 0 0 1 .488.46c0 .174-.052.3-.162.387-.117.097-.255.183-.561.183-.2 0-.359.047-.47.139-.12.1-.183.194-.183.353 0 .2.084.251.157.316.099.092.236.124.401.138.054.005.378-.012.378-.012a.715.715 0 0 1-.052 1.43.707.707 0 0 1-.562-.29c-.12-.139-.166-.256-.28-.467-.077-.138-.108-.162-.183-.224a.409.409 0 0 0-.276-.101c-.174.01-.211.024-.336.134a.559.559 0 0 0-.178.438c0 .127.038.276.12.455.078.172.194.34.345.496.152.16.347.294.58.4.234.107.502.16.794.16.284 0 .55-.046.787-.137.239-.093.45-.222.622-.385a1.654 1.654 0 0 0 .538-1.228c0-.191-.033-.373-.102-.54z"/></g></svg>