<svg viewBox="0 0 512 512" xmlns="http://www.w3.org/2000/svg" fill-rule="evenodd" clip-rule="evenodd" stroke-linejoin="round" stroke-miterlimit="1.414"><path fill="none" d="M0 0h512v512H0z"/><g fill="#fff"><path d="M355.692 355.186h115.9a9.137 9.137 0 0 1 9.137 9.137v5.89a9.137 9.137 0 0 1-9.137 9.137H336.218a9.142 9.142 0 0 1-9.096-8.249c-.255-2.587-.398-5.359-.398-8.604 0-85.023 122.684-96.348 122.684-159.831 0-26.193-19.836-44.488-48.237-44.488-19.481 0-37.164 11.348-48.191 26.039-2.94 3.917-8.387 4.919-12.45 2.185l-5.439-3.661c-4.205-2.831-5.273-8.522-2.449-12.731 14.328-21.351 40.574-37.36 69.892-37.36 46.318 0 74.446 30.148 74.446 68.653 0 80.645-119.012 92.719-121.288 153.883zM203.664 158.595h22.351v86.965H89.765v-86.965h22.351a9.137 9.137 0 0 0 9.137-9.137v-4.626a9.138 9.138 0 0 0-9.137-9.137H40.408a9.138 9.138 0 0 0-9.137 9.137v4.626a9.137 9.137 0 0 0 9.137 9.137h22.351v197.856H40.408a9.137 9.137 0 0 0-9.137 9.137v4.625a9.137 9.137 0 0 0 9.137 9.137h71.708a9.137 9.137 0 0 0 9.137-9.137v-4.625a9.137 9.137 0 0 0-9.137-9.137H89.765v-87.307h136.25v87.307h-22.351a9.137 9.137 0 0 0-9.137 9.137v4.625a9.137 9.137 0 0 0 9.137 9.137h71.708a9.137 9.137 0 0 0 9.137-9.137v-4.625a9.137 9.137 0 0 0-9.137-9.137h-22.351V158.595h22.351a9.137 9.137 0 0 0 9.137-9.137v-4.626a9.138 9.138 0 0 0-9.137-9.137h-71.708a9.138 9.138 0 0 0-9.137 9.137v4.626a9.137 9.137 0 0 0 9.137 9.137z"/></g></svg>