<svg viewBox="0 0 512 512" xmlns="http://www.w3.org/2000/svg" fill-rule="evenodd" clip-rule="evenodd" stroke-linejoin="round" stroke-miterlimit="1.414"><path fill="none" d="M0 0h512v512H0z"/><path d="M230.791 64h45.215l-74.863 384h-49.381a12 12 0 0 0-11.764 9.632l-1.61 8c-1.496 7.43 4.185 14.368 11.763 14.368h128.817a12 12 0 0 0 11.764-9.632l1.61-8c1.495-7.43-4.186-14.368-11.764-14.368h-45.215l74.864-384h50.011a12 12 0 0 0 11.764-9.632l1.61-8C375.108 38.938 369.427 32 361.849 32H232.401a12 12 0 0 0-11.764 9.632l-1.61 8C217.532 57.062 223.213 64 230.791 64z" fill="#fff"/></svg>