<svg viewBox="0 0 512 512" xmlns="http://www.w3.org/2000/svg" fill-rule="evenodd" clip-rule="evenodd" stroke-linejoin="round" stroke-miterlimit="1.414"><path fill="none" d="M0 0h512v512H0z"/><path d="M456.463 69.666v.021c1.478.011 3.458.318 5.023.726v263.584c-.245.584-.951 2.258-.97 2.403-.347.171-1.89.613-4.826.613h-55.991c-23.48 0-42.514 19.035-42.514 42.515v49.451l-129.092-78.953c-8.704-6.206-23.782-13.013-48.034-13.013H53.105c-1.337 0-1.377-.088-1.628-.088-.128 0-.312.023-.754.093V75.863c0-1.705.007-2.338-.198-4.031-.035-.584-.006-1.318.065-2.036a29.391 29.391 0 0 1 2.515-.099l403.358-.031m.02-42.494c-.514 0-.793.011-.793.011H53.105c-50.782 0-44.897 48.68-44.897 48.68v261.735c0 38.95 31.777 42.04 41.863 42.04 1.903 0 3.034-.11 3.034-.11h126.954c18.369 0 24.031 5.653 24.031 5.653l160.651 98.254c3.878.966 7.322 1.393 10.388 1.393 23.682 0 24.57-25.515 24.57-25.515v-79.785h55.991c45.62 0 48.31-43.081 48.31-43.081V70.2c0-41.456-41.257-43.028-47.517-43.028z" fill="#fff" fill-rule="nonzero"/></svg>