<svg viewBox="0 0 512 512" xmlns="http://www.w3.org/2000/svg" fill-rule="evenodd" clip-rule="evenodd" stroke-linejoin="round" stroke-miterlimit="1.414"><path fill="none" d="M0 0h512v512H0z"/><path d="M442.015 8C476.249 8 504 35.752 504 69.985v372.03C504 476.248 476.248 504 442.015 504H69.985C35.752 504 8 476.248 8 442.015V69.985C8 35.752 35.751 8 69.985 8h372.03zm0 453.486c10.737-.001 19.471-8.735 19.471-19.471V69.985c0-10.736-8.735-19.471-19.471-19.471H69.985c-10.736 0-19.471 8.735-19.471 19.471v372.03c0 10.736 8.735 19.471 19.471 19.471h372.03zm-240.2-91.181c-5.397 0-10.76-2.007-14.912-6.089L99.37 278.101c-8.373-8.235-8.477-21.693-.242-30.066 8.234-8.373 21.658-8.477 30.065-.242l72.553 71.376 172.887-171.573c8.338-8.303 21.797-8.234 30.066.104 8.269 8.338 8.234 21.797-.104 30.066l-187.799 186.38c-4.152 4.118-9.549 6.159-14.981 6.159z" fill="#fff"/></svg>