<svg viewBox="0 0 512 512" xmlns="http://www.w3.org/2000/svg" fill-rule="evenodd" clip-rule="evenodd" stroke-linejoin="round" stroke-miterlimit="1.414"><path fill="none" d="M0 0h512v512H0z"/><g fill="#fff"><path d="M300.972 394.163l-78.892 78.882c-50.58 50.601-132.519 50.626-183.124 0-50.602-50.581-50.626-132.52 0-183.125l78.882-78.892a132.436 132.436 0 0 1 3.518-3.39c7.521-6.977 19.718-1.996 20.129 8.254.193 4.788.596 9.57 1.212 14.328.479 3.703-.744 7.418-3.384 10.057-16.416 16.405-74.85 74.836-75.007 74.993-36.595 36.616-36.588 95.814 0 132.423 36.616 36.595 95.814 36.588 132.423 0l78.891-78.892.359-.359c36.16-36.529 35.999-95.696-.369-132.064-8.182-8.182-17.508-14.523-27.477-19.034-4.549-2.058-7.397-6.642-7.107-11.625a62.01 62.01 0 0 1 2.815-15.2c2.095-6.575 9.494-9.922 15.858-7.251 15.014 6.299 29.073 15.559 41.273 27.759 50.491 50.492 50.482 132.652 0 183.136z"/><path d="M211.028 300.973c12.2 12.2 26.259 21.46 41.273 27.759 6.364 2.67 13.763-.677 15.858-7.251a62.01 62.01 0 0 0 2.815-15.2c.29-4.983-2.559-9.567-7.107-11.625-9.969-4.51-19.295-10.851-27.477-19.034-36.368-36.368-36.529-95.535-.369-132.064l.359-.359 78.891-78.892c36.609-36.588 95.807-36.595 132.423 0 36.588 36.609 36.595 95.807 0 132.423-.156.156-58.59 58.588-75.007 74.993-2.64 2.64-3.863 6.354-3.384 10.057.615 4.756 1.02 9.536 1.212 14.328.411 10.251 12.609 15.231 20.129 8.254a129.336 129.336 0 0 0 3.518-3.39l78.882-78.892c50.626-50.605 50.602-132.544 0-183.125-50.604-50.626-132.544-50.601-183.124 0l-78.892 78.882c-50.482 50.485-50.491 132.645 0 183.136z"/></g></svg>