<svg width="24" height="24" xmlns="http://www.w3.org/2000/svg"><g fill="#FFF" fill-rule="nonzero"><path d="M5.826 19.13c-.63 0-1.207-.09-1.666-.217-1.673-.481-2.861-1.421-3.539-2.797-1.406-2.852.007-6.52.067-6.674C2.546 4.467 7.29 3.757 9.537 4.08a.978.978 0 0 1 .38 1.8c-1.693 1.054-2.168 2.052-2.29 2.638 1.23.383 2.173 1.067 2.807 2.038 1.278 1.955.761 4.337.737 4.437-.925 3.27-3.385 4.138-5.345 4.138zm.745-12.864c-1.463.426-3.15 1.456-4.052 3.878-.018.044-1.163 3.042-.137 5.111.43.87 1.186 1.449 2.312 1.773.357.096 3.618.87 4.58-2.519-.004 0 .33-1.656-.487-2.893-.464-.703-1.245-1.164-2.323-1.373a.977.977 0 0 1-.758-.702c-.024-.084-.4-1.55.865-3.275zM18.532 19.13c-.63 0-1.207-.09-1.667-.217-1.672-.481-2.86-1.421-3.538-2.797-1.407-2.852.006-6.52.067-6.674 1.858-4.975 6.597-5.685 8.848-5.363a.978.978 0 0 1 .38 1.8c-1.692 1.054-2.167 2.052-2.29 2.638 1.231.383 2.173 1.067 2.808 2.038 1.277 1.955.76 4.337.737 4.437-.925 3.27-3.386 4.138-5.345 4.138zm.744-12.864c-1.462.426-3.149 1.456-4.052 3.878-.017.044-1.162 3.042-.137 5.111.43.87 1.187 1.449 2.312 1.773.358.096 3.617.87 4.58-2.519-.003 0 .33-1.656-.486-2.893-.464-.703-1.246-1.164-2.324-1.373a.977.977 0 0 1-.757-.702c-.024-.084-.4-1.55.864-3.275z"/></g></svg>