<svg width="24" height="24" xmlns="http://www.w3.org/2000/svg"><g fill="#FFF" fill-rule="nonzero"><path d="M9.314 22.538a1.038 1.038 0 0 1-1.004-1.304l5.04-19.001a1.038 1.038 0 1 1 2.007.532l-5.04 19a1.04 1.04 0 0 1-1.003.773zM18.146 17.853a1.038 1.038 0 0 1-.747-1.76l4.106-4.248L17.41 7.75a1.04 1.04 0 0 1 1.47-1.468l4.815 4.817c.4.4.406 1.049.012 1.456l-4.815 4.982c-.205.21-.475.316-.747.316zM5.856 17.853c-.266 0-.53-.1-.734-.304L.305 12.733a1.037 1.037 0 0 1-.013-1.456l4.817-4.982a1.037 1.037 0 1 1 1.494 1.443l-4.108 4.248 4.094 4.095a1.038 1.038 0 0 1-.733 1.772z"/></g></svg>