<svg viewBox="0 0 512 512" xmlns="http://www.w3.org/2000/svg" fill-rule="evenodd" clip-rule="evenodd" stroke-linejoin="round" stroke-miterlimit="1.414"><path fill="none" d="M0 0h512v512H0z"/><g fill="#fff"><path d="M443.452 512H51.63c-6.124 0-11.089-5.373-11.089-12v-8c0-6.627 4.965-12 11.089-12h391.822c6.124 0 11.089 5.373 11.089 12v8c0 6.627-4.965 12-11.089 12zM169.292 32c6.553 0 11.865 5.31 11.865 11.859v7.906c0 6.55-5.312 11.86-11.865 11.86H127.05v224.993c0 86.26 46.717 126.076 120.206 126.076 74.846 0 120.777-42.767 120.777-127.216V63.625h-42.242c-6.553 0-11.865-5.31-11.865-11.86v-7.906c0-6.549 5.311-11.859 11.865-11.859h116.885c6.552 0 11.865 5.31 11.865 11.859v7.906c0 6.55-5.313 11.86-11.865 11.86h-42.243V289.76c0 104.046-64.321 156.24-152.607 156.24-90.299 0-153.177-50.682-153.177-156.24V63.625H52.407c-6.553 0-11.866-5.31-11.866-11.86v-7.906C40.541 37.31 45.854 32 52.407 32h116.885z"/></g></svg>