<svg viewBox="0 0 512 512" xmlns="http://www.w3.org/2000/svg" fill-rule="evenodd" clip-rule="evenodd" stroke-linejoin="round" stroke-miterlimit="1.414"><path fill="none" d="M0 0h512v512H0z"/><g fill="#fff"><path d="M188.935 131.359v-5.335c0-5.82 4.718-10.539 10.538-10.539h82.707c5.82 0 10.539 4.719 10.539 10.539v5.335c0 5.82-4.719 10.539-10.539 10.539h-25.779v228.204h25.779c5.82 0 10.539 4.719 10.539 10.539v5.335c0 5.82-4.719 10.539-10.539 10.539h-82.707c-5.82 0-10.538-4.719-10.538-10.539v-5.335c0-5.82 4.718-10.539 10.538-10.539h25.779V269.403H68.103v100.699h25.78c5.82 0 10.538 4.719 10.538 10.539v5.335c0 5.82-4.718 10.539-10.538 10.539H11.175c-5.82 0-10.539-4.719-10.539-10.539v-5.335c0-5.82 4.719-10.539 10.539-10.539h25.779V141.898H11.175c-5.82 0-10.539-4.719-10.539-10.539v-5.335c0-5.82 4.719-10.539 10.539-10.539h82.708c5.82 0 10.538 4.719 10.538 10.539v5.335c0 5.82-4.718 10.539-10.538 10.539h-25.78v100.304h157.149V141.898h-25.779c-5.82 0-10.538-4.719-10.538-10.539zM439.638 115.485h-12.864a10.543 10.543 0 0 0-7.428 3.064l-54.019 53.679c-4.105 4.079-4.153 10.705-.107 14.843l5.072 5.187c4.102 4.195 10.839 4.232 14.987.085l23.305-23.306c5.741-5.536 9.3-9.835 11.417-12.738a315.145 315.145 0 0 0-.184 10.288v201.936h-51.833c-5.82 0-10.538 4.719-10.538 10.539v6.914c0 5.82 4.718 10.539 10.538 10.539h132.841c5.82 0 10.539-4.719 10.539-10.539v-6.914c0-5.82-4.719-10.539-10.539-10.539h-50.648V126.024c0-5.82-4.719-10.539-10.539-10.539z"/></g></svg>