<svg viewBox="0 0 512 512" xmlns="http://www.w3.org/2000/svg" fill-rule="evenodd" clip-rule="evenodd" stroke-linejoin="round" stroke-miterlimit="1.414"><path fill="none" d="M0 0h512v512H0z"/><path d="M272.01 32c31.468 0 56.551 5.505 76.684 16.83 30.166 16.837 49.665 55.129 49.665 97.55 0 42.245-19.298 76.76-53.22 95.748C387.804 257.278 416 301.154 416 353.65c0 52.597-27.802 98.131-70.827 116.002C323.302 478.823 297.614 480 277.68 480H108c-6.627 0-12-5.373-12-12v-8c0-6.627 5.373-12 12-12h19.95V64H108c-6.627 0-12-5.373-12-12v-8c0-6.627 5.373-12 12-12h164.01zm5.67 415.8c22.106 0 38.97-2.589 51.555-7.914 32.215-13.009 51.415-44.767 51.415-84.975 0-56.314-37.837-94.151-94.151-94.151H162.041V447.8H277.68zm5.04-219.239c48.024 0 80.289-33.279 80.289-82.81 0-30.321-12.262-55.419-33.642-68.858-13.663-8.539-32.428-12.692-57.357-12.692H162.041v164.36H282.72z" fill="#fff"/></svg>