<svg xmlns="http://www.w3.org/2000/svg" viewBox="0 0 14 14"><path d="M10.2 8.709c-.522-1.342-2.16-1.93-3.04-2.247-.632-.228-1.347-.523-1.864-.982a1.378 1.378 0 0 1-.366-1.475c.225-.588.735-.807 1.124-.888.815-.17 1.84.12 2.38.672.222.228.38.522.442.828a.597.597 0 1 0 1.17-.24 2.89 2.89 0 0 0-.758-1.423c-.435-.445-1.039-.765-1.69-.937V.597a.597.597 0 1 0-1.193 0v1.286c-.201.007-.4.025-.593.065-.962.199-1.672.777-1.998 1.629-.368.958-.085 2.107.688 2.795.668.595 1.514.947 2.254 1.214.701.252 2.007.722 2.334 1.557.166.427-.01 1.011-.41 1.358-.727.633-1.91.553-2.655.154-.509-.272-.877-.734-.987-1.234a.597.597 0 1 0-1.167.255c.183.837.777 1.597 1.59 2.032.302.162.62.278.944.354v1.34a.597.597 0 1 0 1.193 0v-1.258c.697-.058 1.358-.3 1.866-.741.787-.684 1.09-1.792.738-2.694z"/></svg>