<svg data-name="Layer 1" xmlns="http://www.w3.org/2000/svg" viewBox="0 0 14 14"><path d="M7.906 10.547H5.45a1.062 1.062 0 0 1-1.047-1.121v-.564c0-.071-.074-.12-.097-.133A4.647 4.647 0 0 1 5.583.208a4.696 4.696 0 0 1 3.993.886A4.642 4.642 0 0 1 9.05 8.73c-.022.013-.095.062-.095.133V9.5a1.049 1.049 0 0 1-1.048 1.047zM6.67 1.139a3.79 3.79 0 0 0-.851.097 3.593 3.593 0 0 0-.973 6.586 1.21 1.21 0 0 1 .611 1.04v.564l2.45.066-.008-.63a1.21 1.21 0 0 1 .611-1.04A3.591 3.591 0 0 0 6.67 1.14zM8.367 12.34H5.034a.527.527 0 0 1 0-1.055h3.333a.527.527 0 0 1 0 1.055zm-.255 1.578H5.245a.527.527 0 0 1 0-1.055h2.867a.527.527 0 0 1 0 1.055z" fill="#231f20"/></svg>