<svg xmlns="http://www.w3.org/2000/svg" viewBox="22.938 279.752 14 14"><g fill="#010101"><path d="M33.067 280.252h-.764v-.116c0-.212-.19-.384-.429-.384h-3.87c-.237 0-.432.172-.432.384v.116h-.764a2.214 2.214 0 0 0-2.214 2.214v9.072c0 1.223.991 2.214 2.214 2.214h6.259a2.214 2.214 0 0 0 2.214-2.214v-9.072a2.214 2.214 0 0 0-2.214-2.214zm1.214 11.286c0 .67-.544 1.214-1.214 1.214h-6.259c-.67 0-1.214-.545-1.214-1.214v-9.072c0-.67.544-1.214 1.214-1.214h.764v.227c0 .212.191.384.429.384h3.87c.237 0 .432-.172.432-.384v-.227h.764c.67 0 1.214.545 1.214 1.214v9.072z"/><path d="M32.438 284.194h-5a.5.5 0 1 0 0 1h5a.5.5 0 1 0 0-1zm0 2.956h-5a.5.5 0 1 0 0 1h5a.5.5 0 1 0 0-1zm0 2.859h-5a.5.5 0 1 0 0 1h5a.5.5 0 1 0 0-1z"/></g></svg>