<svg xmlns="http://www.w3.org/2000/svg" viewBox="0 0 14 14"><path d="M7.2 13.868a1.46 1.46 0 0 1-1.135-.54C4.57 11.493 2.061 8.01 2.061 5.308 2.061 2.474 4.366.169 7.2.169s5.139 2.305 5.139 5.139c0 2.703-2.51 6.185-4.005 8.02a1.46 1.46 0 0 1-1.134.54zm0-12.5a3.944 3.944 0 0 0-3.94 3.94c0 2.419 2.613 5.884 3.736 7.262.139.17.27.17.407 0 1.124-1.378 3.736-4.843 3.736-7.262A3.944 3.944 0 0 0 7.2 1.368z"/><path d="M8.82 6.382h-.002c-.267-.684-1.044-.965-1.466-1.117-.234-.084-.529-.202-.723-.376a.348.348 0 0 1-.092-.362c.017-.045.07-.18.304-.229.266-.056.628.042.8.22a.48.48 0 0 1 .125.236c.058.272.335.45.601.395a.511.511 0 0 0 .396-.6 1.51 1.51 0 0 0-.394-.741 1.795 1.795 0 0 0-.66-.414v-.432a.509.509 0 0 0-1.017 0v.33l-.057.01c-.503.105-.875.41-1.048.861a1.37 1.37 0 0 0 .366 1.486c.321.286.714.45 1.058.573.227.082.76.274.86.53.03.076-.008.221-.108.309-.222.192-.616.168-.867.034a.587.587 0 0 1-.301-.366.508.508 0 1 0-.993.217c.094.432.399.823.813 1.045.089.047.181.088.277.122v.391a.509.509 0 0 0 1.017 0v-.328c.277-.057.523-.176.721-.348.42-.364.579-.958.39-1.446z"/></svg>