<svg xmlns="http://www.w3.org/2000/svg" viewBox="0 0 122 70"><path fill="#0828CC" d="M51.326 24.543l3.857 3.853-33.127 33.097a4.059 4.059 0 0 0-1.197 2.89c0 1.095.425 2.122 1.197 2.892s1.8 1.196 2.893 1.196a4.066 4.066 0 0 0 2.895-1.196L60.97 34.18l3.237 3.234-.083.162c-.754 1.462-.53 3.227.557 4.392A3.836 3.836 0 0 0 66.305 43a2.882 2.882 0 0 1 1.852 1.85 3.837 3.837 0 0 0 1.033 1.622 3.772 3.772 0 0 0 2.581.996 3.96 3.96 0 0 0 2.784-1.145l11.543-11.532c1.467-1.467 1.534-3.87.148-5.358a3.84 3.84 0 0 0-1.623-1.034 2.883 2.883 0 0 1-1.852-1.85 3.827 3.827 0 0 0-1.034-1.62c-1.168-1.086-2.934-1.312-4.396-.558l-.162.084-12.883-12.872.083-.162c.754-1.461.53-3.225-.557-4.39A3.84 3.84 0 0 0 62.2 5.996a2.883 2.883 0 0 1-1.851-1.85 3.839 3.839 0 0 0-1.035-1.62c-1.489-1.387-3.895-1.318-5.364.147L42.406 14.207c-1.469 1.466-1.535 3.87-.148 5.357a3.835 3.835 0 0 0 1.623 1.034 2.884 2.884 0 0 1 1.852 1.85 3.767 3.767 0 0 0 3.614 2.618c.63 0 1.258-.152 1.817-.44l.162-.083z"/><path fill="#FFF" d="M24.95 66.92a2.531 2.531 0 0 1-2.539-2.536c0-.679.264-1.316.742-1.794l33.128-33.096 3.592 3.588-33.128 33.097a2.531 2.531 0 0 1-1.796.742z"/><path opacity=".484" fill="#6B7EE0" d="M59.298 63.71a3.517 3.517 0 0 1 3.512-3.516h32.546a3.517 3.517 0 0 1 0 7.034H62.81a3.517 3.517 0 0 1-3.512-3.517z"/><path fill="#E6E9F9" d="M71.772 45.924a2.226 2.226 0 0 1-2.138-1.55 4.476 4.476 0 0 0-.473-1.004l-.107-.169 13.919-13.905.169.107c.316.201.654.36 1.003.472.373.121.697.328.964.616.824.884.775 2.321-.109 3.204L73.456 45.228a2.383 2.383 0 0 1-1.684.696z"/><path fill="#FFF" d="M67.955 42.105l-.17-.107c-.313-.2-.651-.36-1.003-.473a2.245 2.245 0 0 1-.964-.616c-.823-.882-.775-2.32.109-3.202L77.47 26.173c.851-.85 2.356-.902 3.207-.11.289.27.496.593.616.963.112.348.271.686.473 1.004l.107.17-13.919 13.905zM52.52 23.543L63.286 12.77l12.7 12.687L65.22 36.23zm-3.172-.023c-.553 0-1.1-.193-1.522-.585a2.252 2.252 0 0 1-.616-.964 4.42 4.42 0 0 0-.473-1.003l-.107-.169L60.549 6.894l.169.107c.316.2.654.36 1.004.472.369.12.693.326.964.615.823.884.774 2.32-.11 3.204L51.032 22.825a2.387 2.387 0 0 1-1.684.696z"/><path fill="#E6E9F9" d="M45.531 19.702l-.169-.107a4.44 4.44 0 0 0-1.004-.473 2.246 2.246 0 0 1-.963-.614c-.824-.884-.775-2.321.109-3.205L55.048 3.771c.847-.85 2.356-.901 3.206-.11.289.27.496.593.616.964.112.347.272.685.473 1.002l.107.17-13.919 13.905z"/><path fill="#6B7EE0" d="M70.81 25.549a.936.936 0 0 0 1.326 0 .938.938 0 0 0 0-1.327l-7.719-7.719a.939.939 0 0 0-1.327 1.327l7.72 7.719zm-54.712-5.791l-2.488.004-.004-2.55a.75.75 0 0 0-1.5.003l.004 2.549-2.486.004a.75.75 0 0 0 .002 1.5l2.487-.004.004 2.548a.75.75 0 0 0 1.5-.002l-.004-2.548 2.487-.004a.75.75 0 0 0-.002-1.5zm-11.25-3.92l-1.25.002-.002-1.25a.75.75 0 0 0-1.5.002l.002 1.25-1.25.002a.75.75 0 0 0 .003 1.5l1.25-.002.002 1.25a.75.75 0 0 0 1.5-.002L3.6 17.34l1.25-.002a.75.75 0 0 0-.003-1.5zm116.318 47.755l-2.487.004-.004-2.548a.75.75 0 0 0-1.5.002l.004 2.549-2.486.004a.75.75 0 0 0 .002 1.5l2.486-.004.004 2.548a.75.75 0 0 0 1.5-.002l-.004-2.549 2.488-.004a.75.75 0 0 0-.003-1.5z"/></svg>