<svg xmlns="http://www.w3.org/2000/svg" viewBox="0 0 137.8 97.7"><path fill="none" d="M-661.696-374.282h1439.2v899.2h-1439.2z"/><path fill="#40A3F5" d="M12.8 52.9c-.4 0-.8-.3-.8-.8v-6.6c0-.4.3-.8.8-.8s.8.3.8.8v6.6c-.1.4-.4.8-.8.8z"/><path fill="#F1F9FD" d="M39.2 15.5L83 14.2c2.2-.1 4-1.9 4-4.1V4.6c0-2.2-1.8-4-4-4L33 .2c-2.2 0-4.1 1.4-4.1 3.6l-.3 8c0 .7.1 1.4.4 2v27.9c0 2.2 1.8 4 4 4h2.3c2.2 0 4-1.8 4-4V15.5h-.1z"/><path fill="#0096E6" d="M33.5 45.6c-3.1 0-5.5-2.5-5.5-5.5V5.5c0-3 2.5-5.5 5.5-5.5h48.2c3.1 0 5.5 2.5 5.5 5.5v4.6c0 .5-.4.9-.9.9s-.9-.4-.9-.9V5.5c0-2-1.6-3.7-3.6-3.7H33.5c-2 0-3.6 1.6-3.6 3.7V40c0 2 1.6 3.7 3.6 3.7.5 0 .9.4.9.9s-.3 1-.9 1z"/><path fill="#F1F9FD" d="M48.1 30.4l43.8-1.3c2.2-.1 4-1.9 4-4.1v-5.4c0-2.2-1.8-4-4-4l-50-.4c-2.2 0-4.1 1.4-4.1 3.6l-.3 8c0 .7.1 1.4.4 2v27.9c0 2.2 1.8 4 4 4h2.3c2.2 0 4-1.8 4-4V30.4h-.1z"/><path fill="#40A3F5" d="M16 49.6H9.5c-.4 0-.8-.3-.8-.8s.3-.8.8-.8H16c.4 0 .8.3.8.8s-.4.8-.8.8zm-13.2-2c-.4 0-.8-.3-.8-.8v-4c0-.4.3-.8.8-.8s.8.3.8.8v4c-.1.5-.4.8-.8.8z"/><path fill="#40A3F5" d="M4.8 45.6h-4c-.4 0-.8-.3-.8-.8s.3-.8.8-.8h4c.4 0 .8.3.8.8s-.4.8-.8.8zm129 51.3c-.4 0-.8-.3-.8-.8v-6.6c0-.4.3-.8.8-.8s.8.3.8.8v6.6c-.1.4-.4.8-.8.8z"/><path fill="#40A3F5" d="M137 93.6h-6.5c-.4 0-.8-.3-.8-.8s.3-.8.8-.8h6.5c.4 0 .8.3.8.8s-.4.8-.8.8z"/><path fill="#F1F9FD" d="M57.1 44.5l43.8-1.3c2.2-.1 4-1.9 4-4.1v-5.4c0-2.2-1.8-4-4-4l-50-.4c-2.2 0-4.1 1.4-4.1 3.6l-.3 8c0 .7.1 1.4.4 2v27.9c0 2.2 1.8 4 4 4h2.3c2.2 0 4-1.8 4-4V44.5h-.1z"/><path fill="#0096E6" d="M51.5 74.7c-3.1 0-5.5-2.5-5.5-5.5V34.6c0-3.1 2.5-5.5 5.5-5.5h48.2c3.1 0 5.5 2.5 5.5 5.5v4.6c0 .5-.4.9-.9.9s-.9-.4-.9-.9v-4.6c0-2-1.6-3.7-3.6-3.7H51.5c-2 0-3.6 1.6-3.6 3.7v34.5c0 2 1.6 3.7 3.6 3.7.5 0 .9.4.9.9s-.4 1-.9 1z"/><path fill="#0096E6" d="M42.5 60.6c-3.1 0-5.5-2.5-5.5-5.5V20.5c0-3.1 2.5-5.5 5.5-5.5h48.2c3.1 0 5.5 2.5 5.5 5.5v4.6c0 .5-.4.9-.9.9s-.9-.4-.9-.9v-4.6c0-2-1.6-3.7-3.6-3.7H42.5c-2 0-3.6 1.6-3.6 3.7V55c0 2 1.6 3.7 3.6 3.7.5 0 .9.4.9.9s-.4 1-.9 1z"/><path fill="#0096E6" d="M104.3 97.7c-.2 0-.5-.1-.7-.3L92.1 85.9c-.4-.4-.4-1 0-1.3.2-.2.4-.3.7-.3.3 0 .5.1.7.3l9.9 9.9v-6.9c0-.5.4-.9.9-.9h4.6c2 0 3.6-1.6 3.6-3.6V48.4c0-2-1.6-3.7-3.6-3.7H60.7c-2 0-3.6 1.6-3.6 3.7v34.5c0 2 1.6 3.6 3.6 3.6h28.7c.5 0 .9.4.9.9s-.4 1-.9 1H60.7c-3.1 0-5.5-2.5-5.5-5.6V48.4c0-3.1 2.5-5.5 5.5-5.5h48.2c3.1 0 5.5 2.5 5.5 5.5v34.5c0 3.1-2.5 5.5-5.5 5.5h-3.6v8.3c0 .4-.2.7-.6.9-.2.1-.3.1-.4.1z"/><path fill="#94CCFA" d="M67.6 56.3c-.5 0-.9-.4-.9-.9s.4-.9.9-.9h6.9c.5 0 .9.4.9.9s-.4.9-.9.9h-6.9zm11.4 0c-.5 0-.9-.4-.9-.9s.4-.9.9-.9h20.7c.5 0 .9.4.9.9s-.4.9-.9.9H79zm18.4 6.9c-.5 0-.9-.4-.9-.9s.4-.9.9-.9h4.6c.5 0 .9.4.9.9s-.4.9-.9.9h-4.6zm-29.8 0c-.5 0-.9-.4-.9-.9s.4-.9.9-.9H79c.5 0 .9.4.9.9s-.4.9-.9.9H67.6zm20.6 6.9c-.5 0-.9-.4-.9-.9s.4-.9.9-.9h11.5c.5 0 .9.4.9.9s-.4.9-.9.9H88.2zm-20.6 0c-.5 0-.9-.4-.9-.9s.4-.9.9-.9h16.1c.5 0 .9.4.9.9s-.4.9-.9.9H67.6zM90.5 77c-.5 0-.9-.4-.9-.9s.4-1 .9-1H102c.5 0 .9.4.9 1s-.4.9-.9.9H90.5zm-6.9-13.8c-.5 0-.9-.4-.9-.9s.4-.9.9-.9h9.2c.5 0 .9.4.9.9s-.4.9-.9.9h-9.2zM67.6 77c-.5 0-.9-.4-.9-.9s.4-1 .9-1H86c.5 0 .9.4.9 1s-.5.9-1 .9H67.6z"/></svg>