<svg xmlns="http://www.w3.org/2000/svg" viewBox="0 0 122 63"><path fill="#FFF" fill-opacity=".03" d="M32.5 21.5c0-.6.4-1 1-1h55c.6 0 1 .5 1 1v15c0 .6-.4 1-1 1h-55c-.6 0-1-.5-1-1v-15z"/><path fill="#0828CC" d="M16.1 13.8h-2.5v-2.5c0-.4-.3-.7-.8-.7-.4 0-.7.3-.7.8v2.5H9.6c-.4 0-.7.3-.7.8 0 .4.3.7.8.7h2.5v2.5c0 .4.3.7.8.7.4 0 .7-.3.7-.8v-2.5h2.5c.4 0 .7-.3.7-.8-.1-.4-.4-.7-.8-.7zm-11.3-4H3.6V8.6c0-.4-.3-.7-.8-.7-.4 0-.7.3-.7.8v1.2H.9c-.4 0-.7.3-.7.8s.3.7.8.7h1.2v1.2c0 .4.3.7.8.7.4 0 .7-.3.7-.8v-1.2h1.2c.4 0 .7-.3.7-.8 0-.3-.3-.7-.8-.7zm116.4 47.8h-2.5v-2.5c0-.4-.3-.7-.8-.7-.4 0-.7.3-.7.8v2.5h-2.5c-.4 0-.7.3-.7.8 0 .4.3.7.8.7h2.5v2.5c0 .4.3.7.8.7s.7-.3.7-.8v-2.5h2.5c.4 0 .7-.3.7-.8-.1-.4-.4-.7-.8-.7z"/><path fill="#0828CC" fill-opacity=".1" d="M32.5 21.5c0-.6.4-1 1-1h55c.6 0 1 .5 1 1v15c0 .6-.4 1-1 1h-55c-.6 0-1-.5-1-1v-15z"/><path fill="#FFF" fill-opacity=".6" d="M44.4 12.4h1v35h-1zm8.8 37.1c-.4 0-.8-.4-.8-.9s.4-.9.8-.9h9.5c.4 0 .8.4.8.9s-.4.9-.8.9h-9.5zm0-4.3c-.4 0-.8-.4-.8-.9s.4-.9.8-.9h27.7c.4 0 .8.4.8.9s-.4.9-.8.9H53.2zm0-13.1c-.4 0-.8-.4-.8-.9s.4-.9.8-.9h9.5c.4 0 .8.4.8.9s-.4.9-.8.9h-9.5zm0-4.4c-.4 0-.8-.4-.8-.9s.4-.9.8-.9h27.7c.4 0 .8.4.8.9s-.4.9-.8.9H53.2zm0-10.3c-.4 0-.8-.4-.8-.9s.4-.9.8-.9h9.5c.4 0 .8.4.8.9s-.4.9-.8.9h-9.5zm0-4.4c-.4 0-.8-.4-.8-.9s.4-.9.8-.9h27.7c.4 0 .8.4.8.9s-.4.9-.8.9H53.2z"/><path fill="#0828CC" fill-opacity=".6" d="M44.4 12.4h1v35h-1z"/><circle fill="#0828CC" cx="44.9" cy="13.4" r="2.5"/><circle fill="#0828CC" cx="44.9" cy="29" r="2.5"/><circle fill="#0828CC" cx="44.9" cy="46.4" r="2.5"/><path fill="#0828CC" fill-opacity=".6" d="M53.2 49.5c-.4 0-.8-.4-.8-.9s.4-.9.8-.9h9.5c.4 0 .8.4.8.9s-.4.9-.8.9h-9.5zm0-4.3c-.4 0-.8-.4-.8-.9s.4-.9.8-.9h27.7c.4 0 .8.4.8.9s-.4.9-.8.9H53.2zm0-13.1c-.4 0-.8-.4-.8-.9s.4-.9.8-.9h9.5c.4 0 .8.4.8.9s-.4.9-.8.9h-9.5zm0-4.4c-.4 0-.8-.4-.8-.9s.4-.9.8-.9h27.7c.4 0 .8.4.8.9s-.4.9-.8.9H53.2zm0-10.3c-.4 0-.8-.4-.8-.9s.4-.9.8-.9h9.5c.4 0 .8.4.8.9s-.4.9-.8.9h-9.5zm0-4.4c-.4 0-.8-.4-.8-.9s.4-.9.8-.9h27.7c.4 0 .8.4.8.9s-.4.9-.8.9H53.2z"/><path fill="#0828CC" d="M86 2c1.1 0 2 .9 2 2v49.7c0 1.1-.9 2-2 2H35.8c-1.1 0-2-.9-2-2V4c0-1.1.9-2 2-2H86zm0-2H35.8c-2.2 0-4 1.8-4 4v49.7c0 2.2 1.8 4 4 4H86c2.2 0 4-1.8 4-4V4c0-2.2-1.8-4-4-4z"/></svg>