<svg data-name="Layer 1" xmlns="http://www.w3.org/2000/svg" viewBox="0 0 122 70"><path d="M32.5 25.5a.945.945 0 0 1 1-1h55a1.002 1.002 0 0 1 1 1v15a.945.945 0 0 1-1 1h-55a1.002 1.002 0 0 1-1-1z" fill="#fff" fill-opacity=".03"/><path data-name="Shape" d="M16.1 17.8h-2.5v-2.5a.752.752 0 0 0-1.5.1v2.5H9.6a.752.752 0 1 0 .1 1.5h2.5v2.5a.752.752 0 1 0 1.5-.1v-2.5h2.5a.713.713 0 0 0 .7-.8.849.849 0 0 0-.8-.7zm-11.3-4H3.6v-1.2a.713.713 0 0 0-.8-.7.713.713 0 0 0-.7.8v1.2H.9a.713.713 0 0 0-.7.8c0 .5.3.7.8.7h1.2v1.2a.713.713 0 0 0 .8.7.713.713 0 0 0 .7-.8v-1.2h1.2a.713.713 0 0 0 .7-.8.775.775 0 0 0-.8-.7zm116.4 47.8h-2.5v-2.5a.752.752 0 0 0-1.5.1v2.5h-2.5a.752.752 0 0 0 .1 1.5h2.5v2.5a.713.713 0 0 0 .8.7c.5 0 .7-.3.7-.8v-2.5h2.5a.713.713 0 0 0 .7-.8.849.849 0 0 0-.8-.7z" fill="#0828cc"/><path d="M88.5 24.5h-55a.945.945 0 0 0-1 1v13.906l.183.009c2.443-1.019 5.612.538 7.534 2.085H88.5a.945.945 0 0 0 1-1v-15a1.002 1.002 0 0 0-1-1z" fill="#0828cc" fill-opacity=".1"/><path fill="#fff" fill-opacity=".6" d="M44.4 16.4h1v35h-1z"/><path data-name="Shape" d="M53.2 53.5a.906.906 0 0 1 0-1.8h9.5a.906.906 0 0 1 0 1.8zm0-4.3a.906.906 0 0 1 0-1.8h27.7a.906.906 0 0 1 0 1.8zm0-13.1a.906.906 0 0 1 0-1.8h9.5a.906.906 0 0 1 0 1.8zm0-4.4a.906.906 0 0 1 0-1.8h27.7a.906.906 0 0 1 0 1.8zm0-10.3a.906.906 0 0 1 0-1.8h9.5a.906.906 0 0 1 0 1.8zm0-4.4a.906.906 0 0 1 0-1.8h27.7a.906.906 0 0 1 0 1.8z" fill="#fff" fill-opacity=".6"/><circle cx="44.9" cy="17.4" r="2.5" fill="#0828cc"/><circle data-name="Oval" cx="44.9" cy="33" r="2.5" fill="#0828cc"/><path data-name="Shape" d="M53.2 53.5a.906.906 0 0 1 0-1.8h9.5a.906.906 0 0 1 0 1.8zm0-4.3a.906.906 0 0 1 0-1.8h27.7a.906.906 0 0 1 0 1.8zm0-13.1a.906.906 0 0 1 0-1.8h9.5a.906.906 0 0 1 0 1.8zm0-4.4a.906.906 0 0 1 0-1.8h27.7a.906.906 0 0 1 0 1.8zm0-10.3a.906.906 0 0 1 0-1.8h9.5a.906.906 0 0 1 0 1.8zm0-4.4a.906.906 0 0 1 0-1.8h27.7a.906.906 0 0 1 0 1.8z" fill="#0828cc" fill-opacity=".6"/><path fill="none" stroke="#0828cc" stroke-linecap="round" stroke-linejoin="round" stroke-width="2" d="M26.983 52.136l3.625 3.625 9.375-8.124"/><path d="M86.02 59.76H45.29a14.199 14.199 0 0 0-.89-17.28 12.007 12.007 0 0 0-.91-.98 14.164 14.164 0 0 0-9.63-4.09V8.04a2.006 2.006 0 0 1 2-2h50.16a2.014 2.014 0 0 1 2.01 2V24H88v20h.03v13.75a2.017 2.017 0 0 1-2.01 2.01zm0-55.72H35.86a3.999 3.999 0 0 0-4 4v29.45a14.3 14.3 0 1 0 11.77 24.27h42.39a4.016 4.016 0 0 0 4.01-4.01V8.04a4.008 4.008 0 0 0-4.01-4zM42.76 59.76a11.725 11.725 0 0 1-2.22 2 12.295 12.295 0 1 1-8.68-22.25c.21-.03.43-.05.64-.07a10.56 10.56 0 0 1 1.36-.03 12.298 12.298 0 0 1 10.54 6.65 10.94 10.94 0 0 1 .79 1.86v.01a1.514 1.514 0 0 1 .21.03v.71a12.096 12.096 0 0 1 .38 3.03c0 .36-.02.72-.05 1.07a12.247 12.247 0 0 1-2.97 6.99z" fill="#0828cc"/></svg>