<svg xmlns="http://www.w3.org/2000/svg" viewBox="0 0 122 70"><path fill="#6B7EE0" d="M16.098 19.758l-2.488.004-.004-2.55a.75.75 0 0 0-1.5.003l.004 2.549-2.486.004a.75.75 0 0 0 .002 1.5l2.487-.004.004 2.548a.75.75 0 0 0 1.5-.002l-.004-2.548 2.487-.004a.75.75 0 0 0-.002-1.5zm-11.25-3.92l-1.25.002-.002-1.25a.75.75 0 0 0-1.5.002l.002 1.25-1.25.002a.75.75 0 0 0 .003 1.5l1.25-.002.002 1.25a.75.75 0 0 0 1.5-.002L3.6 17.34l1.25-.002a.75.75 0 0 0-.003-1.5zm116.318 47.755l-2.487.004-.004-2.548a.75.75 0 0 0-1.5.002l.004 2.549-2.486.004a.75.75 0 0 0 .002 1.5l2.486-.004.004 2.548a.75.75 0 0 0 1.5-.002l-.004-2.549 2.488-.004a.75.75 0 0 0-.003-1.5zm-78.608-35.79a.95.95 0 0 1 0-1.899h6.887a.949.949 0 0 1 0 1.9h-6.887zm11.477 0a.95.95 0 0 1 0-1.899h20.66a.948.948 0 0 1 0 1.9h-20.66zm18.365 6.9a.95.95 0 0 1 0-1.899h4.59a.949.949 0 0 1 0 1.9H72.4zm-29.842 0a.95.95 0 0 1 0-1.899h11.478a.949.949 0 0 1 0 1.9H42.558zm20.659 6.9a.95.95 0 0 1 0-1.899h11.478a.949.949 0 0 1 0 1.899H63.217zm-20.659 0a.95.95 0 0 1 0-1.899h16.068a.949.949 0 0 1 0 1.899H42.558zm16.068-6.9a.95.95 0 0 1 0-1.899h9.183a.949.949 0 0 1 0 1.9h-9.183zm-16.068 13.8a.95.95 0 0 1 0-1.9h18.364a.95.95 0 0 1 0 1.9H42.558z"/><path fill="#E6E9F9" d="M99.607 31.238l-12.64 17.83c-.244.34-1.753.05-2.141.205l-2.96 1.195-.003-3.273c0-.437-.26-1.766 0-2.128l12.586-17.764c.334-.465 1.222.134 1.789.034.578-.102 1.144.03 1.67.393.968.67 2.38 2.548 1.699 3.508z"/><path fill="#0828CC" d="M79.998 65.604H39.003c-3.862 0-7.003-3.142-7.003-7.002V12.606a7.01 7.01 0 0 1 7.003-7.002h40.995A7.01 7.01 0 0 1 87 12.606v16.313a1 1 0 1 1-2 0V12.606a5.008 5.008 0 0 0-5.002-5.002H39.003A5.008 5.008 0 0 0 34 12.606v45.996a5.008 5.008 0 0 0 5.003 5.002h40.995A5.008 5.008 0 0 0 85 58.602V55.56a1 1 0 1 1 2 0v3.042a7.01 7.01 0 0 1-7.002 7.002z"/><path fill="#0828CC" d="M80.869 52.964c-.226 0-.447-.067-.639-.194a1.128 1.128 0 0 1-.505-.934l-.01-5.512a4.743 4.743 0 0 1 .883-2.762l11.377-16.049c.844-1.185 2.47-1.952 4.142-1.952.995 0 1.9.263 2.616.76a4.843 4.843 0 0 1 2.035 3.119 4.699 4.699 0 0 1-.797 3.578L88.54 49.135a4.867 4.867 0 0 1-2.154 1.695l-5.368 2.124c-.05.006-.1.01-.15.01zm15.084-25.24a2.558 2.558 0 0 0-2.089 1.074L82.49 44.854a2.462 2.462 0 0 0-.466 1.447l.005 3.846 3.497-1.413c.451-.18.842-.487 1.13-.887L98.08 31.731a2.492 2.492 0 0 0 .426-1.89 2.484 2.484 0 0 0-1.042-1.624 2.618 2.618 0 0 0-1.51-.492zM75.642 54.006h-8.464a1 1 0 1 1 0-2h8.464a1 1 0 1 1 0 2z"/></svg>