<svg xmlns="http://www.w3.org/2000/svg" viewBox="0 0 14 14"><path d="M8.375 5.484c-.285-.29-.763-.478-1.248-.479a2.13 2.13 0 0 0-1.416.544c-.365.423-.562.92-.563 1.385 0 .592.196 1.071.565 1.387a1.979 1.979 0 0 0 2.786.044.5.5 0 0 0 .005-.683.498.498 0 0 0-.679 0c-.415.374-1.029.358-1.389-.042a.814.814 0 0 1-.294-.657c-.001-.225.066-.533.27-.682.393-.349.97-.37 1.324-.057.28.19.592.137.744-.088a.54.54 0 0 0 .1-.345.434.434 0 0 0-.205-.327z"/><path d="M0 5.655a.971.971 0 0 0 .283.71l7.351 7.352a.967.967 0 0 0 1.368 0l4.715-4.715a.968.968 0 0 0 0-1.368L6.367.283A.96.96 0 0 0 5.655 0L1.067.127a.967.967 0 0 0-.94.94L0 5.655zm7.604 6.69l4.742-4.74.7.7a.018.018 0 0 1 0 .026l-4.715 4.715c-.002.002-.005.005-.013.005a.018.018 0 0 1-.013-.005l-.7-.7zM.95 5.681l.126-4.588c0-.01.009-.018.018-.018L5.682.948c.005 0 .01.002.013.006l5.944 5.943-4.742 4.741L.954 5.695A.019.019 0 0 1 .95 5.68z"/><path d="M2.101 2.1a1.644 1.644 0 1 0 2.326 0 1.644 1.644 0 0 0-2.326 0zm.671.672a.695.695 0 1 1 .984.983.695.695 0 0 1-.984-.983z"/></svg>