<svg xmlns="http://www.w3.org/2000/svg" viewBox="0 0 14 14"><path fill="#1C62FD" d="M9.2.053H1.398A1.4 1.4 0 0 0 0 1.451v11.152C0 13.373.627 14 1.397 14h11.095c.77 0 1.397-.627 1.397-1.397V4.568c0-.446-.209-.932-.532-1.238L10.403.533a1.841 1.841 0 0 0-1.202-.48zm0 1.165c.129 0 .31.072.403.16l2.953 2.797a.622.622 0 0 1 .169.393v8.035a.234.234 0 0 1-.233.233H1.397a.234.234 0 0 1-.233-.233V1.45c0-.128.105-.233.233-.233h7.804z"/><path fill="#1C62FD" d="M8.547 5.93H5.342v-.534h3.205v.534zM7.48 7.532H5.342v-.534H7.48v.534zM5.342 6.197h3.205v.534H5.342v-.534zm3.74-1.87H4.808a.536.536 0 0 0-.534.534V9.67l1.068-1.068h3.74c.293 0 .534-.24.534-.534V4.86a.536.536 0 0 0-.534-.534z"/></svg>