<svg xmlns="http://www.w3.org/2000/svg" viewBox="0 0 14 14"><path d="M7 0C4.484 0 2.444 2 2.444 4.468v1.49h-.151c-1.086 0-1.974.87-1.974 1.936v1.191c0 1.065.888 1.936 1.974 1.936H3.81a.469.469 0 0 0 .456-.447v-4.17a.469.469 0 0 0-.456-.447h-.455V4.468C3.356 2.48 4.973.894 7 .894s3.644 1.586 3.644 3.574v1.49h-.455a.477.477 0 0 0-.456.446v4.17c0 .234.217.447.456.447h.38c-.092.272-.27.523-.565.745-.398.299-1.014.535-1.884.586A1.224 1.224 0 0 0 7 11.617c-.666 0-1.215.539-1.215 1.192C5.785 13.46 6.335 14 7 14c.51 0 .95-.313 1.13-.754 1.03-.053 1.846-.33 2.429-.768.515-.387.836-.904.95-1.457h.198c1.086 0 1.974-.871 1.974-1.936V7.894c0-1.065-.888-1.937-1.974-1.937h-.151V4.468C11.556 2 9.516 0 7 0z"/></svg>