<svg xmlns="http://www.w3.org/2000/svg" viewBox="0 0 12 12"><path d="M1.5.5h9c.6 0 1 .4 1 1v9c0 .6-.4 1-1 1h-9c-.6 0-1-.4-1-1v-9c0-.6.4-1 1-1z" fill="#00d2f9"/><path d="M1.5.5h9c.6 0 1 .4 1 1v9c0 .6-.4 1-1 1h-9c-.6 0-1-.4-1-1v-9c0-.6.4-1 1-1z" fill="none" stroke="#00d2f9" stroke-linecap="round" stroke-linejoin="round" stroke-miterlimit="10"/><path d="M5 8.5c-.1 0-.3-.1-.4-.2l-2-2c-.2-.2-.2-.6 0-.8.2-.2.6-.2.8 0L5 7.2l3.6-3.6c.2-.2.6-.2.8 0 .2.2.2.6 0 .8l-4 4c-.1.1-.2.1-.4.1z" fill="#fff"/></svg>