<svg width="14" height="14" xmlns="http://www.w3.org/2000/svg"><path d="M4.102.002a.448.448 0 0 0-.305.163L2.074 2.158l-.795-.83a.44.44 0 0 0-.641-.01.49.49 0 0 0 .003.684l1.135 1.185a.44.44 0 0 0 .66-.022L4.478.795a.489.489 0 0 0-.028-.67.442.442 0 0 0-.348-.123zM5.79.751c-.167.015-.297.285-.289.603.008.318.15.564.317.549h7.876c.167.004.305-.25.307-.568.002-.318-.131-.58-.299-.584a.14.14 0 0 0-.008 0H5.789zM4.102 5.269a.448.448 0 0 0-.305.163L2.074 7.424l-.795-.83a.44.44 0 0 0-.641-.009.49.49 0 0 0 .003.684l1.135 1.185a.44.44 0 0 0 .66-.022l2.042-2.37a.49.49 0 0 0-.028-.67.442.442 0 0 0-.348-.123zM5.79 6.4c-.167.015-.297.285-.289.603.008.318.15.564.317.549h7.876c.167.004.305-.25.307-.568.002-.318-.131-.58-.299-.584a.14.14 0 0 0-.008 0H5.817a.17.17 0 0 0-.028 0zm-1.687 4.134a.448.448 0 0 0-.305.163L2.075 12.69l-.795-.83a.44.44 0 0 0-.641-.01.49.49 0 0 0 .003.684l1.135 1.185a.44.44 0 0 0 .66-.022l2.042-2.37a.489.489 0 0 0-.028-.67.442.442 0 0 0-.348-.123zM5.79 12.05c-.167.015-.297.285-.289.603.008.318.15.563.317.549h7.876c.167.004.305-.25.307-.568.002-.318-.131-.58-.299-.584a.14.14 0 0 0-.008 0H5.789z" fill="#82828C"/></svg>