<svg xmlns="http://www.w3.org/2000/svg" viewBox="0 0 14 4.588"><g fill="#323232"><path d="M.013 4.161c.394.702.974.26.974.26L4.351.698h5.223l3.364 3.723c.784.523 1.062-.346 1.062-.346V2.343c-.011-.72-.708-.692-.708-.692h-1.77l.619.606h.974c.316.005.265.26.265.26v1.125c.003.18-.088.086-.088.086L10.016.266c-.196-.328-.53-.26-.53-.26H4.35c-.407-.048-.531.26-.531.26L.722 3.642c-.112.133-.177 0-.177 0V2.516c-.002-.281.265-.26.265-.26h.974l.531-.605H.633c-.717-.001-.62.692-.62.692s-.03 1.764 0 1.818z"/><path d="M3.731 1.65l-.53.607h7.524l-.531-.606H3.73z"/></g></svg>