<svg xmlns="http://www.w3.org/2000/svg" viewBox="0 0 14 14"><path d="M11.515 4.32c-.198 0-.387.042-.558.116a1.416 1.416 0 0 0-1.313-.898c-.222 0-.431.051-.618.143a1.414 1.414 0 0 0-1.71-.69V1.424A1.42 1.42 0 0 0 5.901 0a1.42 1.42 0 0 0-1.414 1.424v5.64L3.469 5.897a1.417 1.417 0 0 0-1.024-.441h-.007c-.377 0-.731.146-.996.412-.468.467-.494 1.161-.071 1.904.547.961 1.141 1.868 1.666 2.667a36.58 36.58 0 0 1 1.01 1.593c.23.396.84 1.68.846 1.694a.477.477 0 0 0 .432.273h6.046a.478.478 0 0 0 .456-.332c.112-.35 1.102-3.46 1.102-4.66V5.745a1.42 1.42 0 0 0-1.414-1.424zm-.457 1.424c0-.257.205-.467.457-.467s.457.21.457.467v3.264c0 .798-.613 2.943-.952 4.036H5.626c-.198-.413-.57-1.177-.751-1.49a36.854 36.854 0 0 0-1.038-1.638C3.32 9.128 2.734 8.236 2.202 7.3c-.139-.244-.266-.573-.084-.755a.467.467 0 0 1 .644-.003l1.844 2.11a.478.478 0 0 0 .838-.315V1.424c0-.258.205-.468.458-.468.252 0 .457.21.457.468v4.464a.478.478 0 0 0 .956 0v-1.55c0-.258.206-.468.458-.468s.457.21.457.467v2.175a.478.478 0 1 0 .956 0v-1.55c0-.258.206-.468.458-.468s.457.21.457.467v2.175a.478.478 0 0 0 .957 0V5.744z"/></svg>