<svg xmlns="http://www.w3.org/2000/svg" viewBox="0 0 14 14"><path d="M7.065 6.866a2.87 2.87 0 0 0 1.115-2.26 2.887 2.887 0 0 0-2.883-2.884 2.887 2.887 0 0 0-2.884 2.884c0 .874.4 1.649 1.016 2.178a5.41 5.41 0 0 0-3.363 3.408c-.13.393-.066.813.178 1.154.248.346.634.545 1.058.547l2.8.004.46.742a.867.867 0 0 0 .73.409.854.854 0 0 0 .728-.401l.47-.746 2.512.004c.422 0 .805-.197 1.054-.54a1.27 1.27 0 0 0 .18-1.152 5.399 5.399 0 0 0-3.17-3.347zM5.97 10.855l-.657 1.044h-.037l-.654-1.057.634-2.415.714 2.428zM5.297 2.72c1.04 0 1.886.846 1.886 1.886s-.846 1.886-1.886 1.886A1.889 1.889 0 0 1 3.41 4.606c0-1.04.846-1.886 1.887-1.886zm-4.243 8.045a.282.282 0 0 1-.042-.257 4.394 4.394 0 0 1 3.445-2.962l-.815 3.101c-.022.084-.017.17-.013.256l-2.324-.007a.305.305 0 0 1-.25-.13zm8.194.016a.296.296 0 0 1-.246.126H6.965a.85.85 0 0 0-.02-.274L6.05 7.597a4.389 4.389 0 0 1 3.239 2.927c.03.09.015.178-.042.257z"/><path d="M13.938 6.434a3.486 3.486 0 0 0-1.56-1.921 2.03 2.03 0 0 0 .692-1.52 2.044 2.044 0 0 0-2.04-2.04 2.044 2.044 0 0 0-2.041 2.04c0 .485.176.924.46 1.275a3.438 3.438 0 0 0-.803.425.499.499 0 1 0 .585.807c.42-.304.912-.465 1.425-.465 1.06 0 1.999.688 2.337 1.712a.205.205 0 0 1-.031.188.218.218 0 0 1-.178.092h-2.111a.498.498 0 1 0 0 .997h2.111c.39 0 .758-.189.986-.505.23-.318.292-.714.17-1.085zm-2.91-4.485a1.045 1.045 0 0 1 0 2.089 1.045 1.045 0 0 1 0-2.089z"/></svg>