<svg xmlns="http://www.w3.org/2000/svg" viewBox="0 0 14 14"><path fill="none" d="M4.909 8.182a6.197 6.197 0 0 0-3.726 3.854.546.546 0 0 0 .079.5.586.586 0 0 0 .476.247l5.056.016-1.587-4.417a3.847 3.847 0 0 1-.298-.2zm2.291.77c-.258 0-.51-.028-.753-.076l.697 1.937.604-1.916c-.181.026-.36.055-.549.055zm2.153-.658c-.14.094-.292.166-.443.24L7.567 12.8h4.701a.577.577 0 0 0 .47-.242.543.543 0 0 0 .08-.496 6.193 6.193 0 0 0-3.465-3.768z"/><path d="M13.957 11.686a7.47 7.47 0 0 0-3.678-4.29 3.825 3.825 0 0 0 .783-2.306 3.867 3.867 0 0 0-3.863-3.862A3.867 3.867 0 0 0 3.337 5.09c0 .807.251 1.556.676 2.176a7.452 7.452 0 0 0-3.968 4.39c-.382 1.141.485 2.323 1.689 2.327L7.038 14h5.23c1.2 0 2.065-1.175 1.69-2.314zm-7.51-2.81c.244.048.495.076.752.076.188 0 .368-.03.549-.055l-.604 1.916-.697-1.937zM7.2 2.428A2.666 2.666 0 0 1 9.862 5.09a2.65 2.65 0 0 1-.746 1.84 2.65 2.65 0 0 1-1.917.823 2.644 2.644 0 0 1-1.986-.909 2.642 2.642 0 0 1-.675-1.754 2.665 2.665 0 0 1 2.661-2.662zM1.738 12.783a.586.586 0 0 1-.476-.247.546.546 0 0 1-.079-.5 6.197 6.197 0 0 1 3.726-3.854c.096.071.195.137.298.2l1.587 4.417-5.056-.016zm11-.225a.577.577 0 0 1-.47.242H7.567L8.91 8.535c.15-.075.304-.147.443-.24a6.193 6.193 0 0 1 3.465 3.767.543.543 0 0 1-.08.496z"/><path fill="#FFF" d="M5.213 6.844a2.644 2.644 0 0 0 1.986.909 2.65 2.65 0 0 0 1.917-.824 2.65 2.65 0 0 0 .746-1.84c0-1.467-1.195-2.661-2.663-2.661S4.538 3.622 4.538 5.09c0 .675.26 1.285.675 1.754z"/></svg>