<svg xmlns="http://www.w3.org/2000/svg" viewBox="0 0 12 11.505"><path d="M6.758 3.046H3.396c-.97 0-1.75.75-1.774 1.708l-.005 2.223a.516.516 0 0 0 1.03 0L2.644 4.88l.006-.073a.742.742 0 0 1 .746-.729h3.362c.412 0 .735.324.75.752l.004 3.252-.008.075a.745.745 0 0 1-.746.73h-2.38a.516.516 0 0 0 0 1.032h2.38c.955 0 1.75-.76 1.772-1.687l.009-.07-.006-3.43a1.778 1.778 0 0 0-1.775-1.686z"/><path d="M11.995 1.683A1.779 1.779 0 0 0 10.221 0H6.858c-.956 0-1.751.757-1.77 1.684l-.01.096c0 .28.227.498.516.498a.505.505 0 0 0 .434-.25.518.518 0 0 0 .083-.268.745.745 0 0 1 .747-.73h3.362c.412 0 .735.325.75.753l.003 3.253-.008.074a.743.743 0 0 1-.745.73h-.432a.516.516 0 0 0 0 1.03h.432c.954 0 1.749-.76 1.772-1.687l.008-.07-.005-3.43zm-9.339 7.72h-.555v-.555a.517.517 0 0 0-1.03 0v.555H.515a.516.516 0 0 0 0 1.03h.556v.556a.516.516 0 0 0 1.03 0v-.555h.555a.517.517 0 0 0 0-1.03z"/></svg>