<svg xmlns="http://www.w3.org/2000/svg" viewBox="0 0 14 14"><path fill="#050505" d="M13.936 11.836c-.575-1.992-2.07-3.57-3.975-4.387a4.34 4.34 0 0 0 1.245-3.053C11.206 2.023 9.32.092 7 .092c-2.32 0-4.207 1.93-4.207 4.304A4.34 4.34 0 0 0 4.04 7.45C2.134 8.268.64 9.845.066 11.837c-.14.483-.051.991.245 1.397.313.43.805.675 1.35.675h10.68a1.65 1.65 0 0 0 1.35-.674 1.6 1.6 0 0 0 .246-1.398zm-9.944-7.44C3.992 2.7 5.342 1.32 7 1.32s3.007 1.38 3.007 3.076S8.658 7.474 7 7.474s-3.008-1.38-3.008-3.078zm8.737 8.102a.472.472 0 0 1-.39.183H1.66a.47.47 0 0 1-.387-.183.352.352 0 0 1-.057-.314c.547-1.895 2.123-3.322 4.073-3.864A4.09 4.09 0 0 0 7 8.701a4.1 4.1 0 0 0 1.712-.38c1.95.541 3.527 1.968 4.073 3.863a.355.355 0 0 1-.056.314z"/></svg>