<svg xmlns="http://www.w3.org/2000/svg" viewBox="0 0 14 14"><path d="M11.885 7.817a.6.6 0 1 0 .85-.85L9.344 3.58 6.912 1.15c-.004-.004-.009-.005-.012-.009L5.953.196a.601.601 0 1 0-.85.85l.532.531-5.459 5.46a.601.601 0 0 0 0 .85l4.963 4.962a.599.599 0 0 0 .849 0l5.464-5.464.433.432zM8.777 4.714L10.6 6.537l-.366.366c-1.108.856-2.983 2.06-4.772 2.06-1.966 0-3.429-1.093-3.96-1.553l4.984-4.983 2.291 2.287zm5.083 7.385l-1.174-2.061-1.132 2a1.27 1.27 0 0 0-.182.628 1.314 1.314 0 0 0 2.628 0 1.29 1.29 0 0 0-.14-.567z"/></svg>