<svg xmlns="http://www.w3.org/2000/svg" viewBox="0 0 12 11.432"><path d="M2.252 11.432v-.063l.082-1.087c.027-.362.052-.724.08-1.086.004-.053-.013-.084-.058-.113A5.403 5.403 0 0 1 .741 7.502 4.524 4.524 0 0 1 .183 6.31a3.773 3.773 0 0 1-.163-.865c-.012-.214-.029-.43-.014-.643.027-.404.105-.799.242-1.182.32-.897.876-1.623 1.612-2.218A6.168 6.168 0 0 1 3.71.384C4.066.258 4.432.164 4.805.1A7.067 7.067 0 0 1 6.65.031C7.787.14 8.84.49 9.785 1.139c.763.524 1.37 1.189 1.776 2.028a4.415 4.415 0 0 1 .43 2.144 5.072 5.072 0 0 1-.094.665 4.308 4.308 0 0 1-.522 1.332c-.477.806-1.137 1.426-1.938 1.902-.42.25-.865.445-1.331.592a6.95 6.95 0 0 1-1.354.282 6.907 6.907 0 0 1-1.374.014c-.206-.019-.41-.052-.615-.084a.188.188 0 0 0-.131.03l-2.316 1.355c-.017.01-.034.018-.064.033z"/></svg>