<svg xmlns="http://www.w3.org/2000/svg" viewBox="0 0 14 14"><path fill="#020202" d="M12.658 1.74v.001a.64.64 0 0 1 .142.02v7.44c-.007.017-.027.064-.027.068a.383.383 0 0 1-.137.018h-1.58a1.2 1.2 0 0 0-1.2 1.2v1.395L6.212 9.654c-.245-.175-.671-.367-1.355-.367H1.273c-.038 0-.039-.003-.046-.003-.003 0-.009 0-.021.003V1.915c0-.048 0-.065-.006-.113a.383.383 0 0 1 .002-.058.838.838 0 0 1 .071-.003h11.385m0-1.2H1.274C-.16.541.006 1.915.006 1.915v7.388c0 1.1.897 1.187 1.181 1.187.054 0 .086-.003.086-.003h3.584c.518 0 .678.16.678.16l4.534 2.773c.11.027.207.039.294.039.668 0 .693-.72.693-.72v-2.252h1.58C13.924 10.487 14 9.27 14 9.27V1.756C14 .586 12.835.54 12.659.54z"/></svg>