<svg xmlns="http://www.w3.org/2000/svg" viewBox="0 0 32 32"><path fill="#60606C" d="M27.007 4h-22c-.6 0-1 .4-1 1v4.199c-.002.052-.005.102 0 .154V27c0 .6.4 1 1 1h22c.6 0 1-.4 1-1V5c0-.6-.4-1-1-1zm-21 16.4l5-5 3.3 3.3c.2.2.4.3.7.3.3 0 .5-.1.7-.3.4-.4.4-1 0-1.4l-1.3-1.3 3.6-3.6 7.8 7.8c.064.064.133.1.2.144V21h-20v-.6zm20-2.8l-7.3-7.3c-.4-.4-1-.4-1.4 0l-4.3 4.3-1.3-1.3c-.4-.4-1-.4-1.4 0l-4.3 4.3v-6.75c.323.087.653.15 1 .15 2.2 0 4-1.8 4-4a3.82 3.82 0 0 0-.15-1h15.15v11.6zM8.732 6c.17.285.275.641.275 1 0 1.1-.9 2-2 2-.345 0-.688-.1-1-.257V6h2.725zM6.007 26v-3h20v3h-20z"/></svg>