<svg data-name="Layer 1" xmlns="http://www.w3.org/2000/svg" viewBox="0 0 14 14"><path d="M7.668 1.205h-6.41a1.208 1.208 0 0 0-1.21 1.21v9.17a1.208 1.208 0 0 0 1.21 1.21h6.41a1.208 1.208 0 0 0 1.21-1.21v-9.17a1.208 1.208 0 0 0-1.21-1.21zm-6.24 10.21v-2.16l1.6-2.88c.07-.15.14-.19.16-.19s.1.04.17.2l2.41 5.03zm6.07 0h-.19l-2.69-5.62a1.58 1.58 0 0 0-1.43-1v-.01a1.558 1.558 0 0 0-1.4.96l-.36.65v-3.81h6.07zm-.46-6.04a.89.89 0 1 1-.89-.89.892.892 0 0 1 .89.89zm6.99 6a.602.602 0 0 1-.6.6h-3.06a.6.6 0 1 1 0-1.2h3.06a.602.602 0 0 1 .6.6zm0-3.05a.602.602 0 0 1-.6.6h-3.06a.6.6 0 1 1 0-1.2h3.06a.602.602 0 0 1 .6.6zm0-6.1a.602.602 0 0 1-.6.6h-3.06a.6.6 0 1 1 0-1.2h3.06a.602.602 0 0 1 .6.6zm0 3.05a.602.602 0 0 1-.6.6h-3.06a.6.6 0 1 1 0-1.2h3.06a.602.602 0 0 1 .6.6z" fill="#010101"/></svg>