<svg xmlns="http://www.w3.org/2000/svg" viewBox="0 0 14 14"><path d="M3.093 13.562c-.226 0-.366-.05-.468-.168-.158-.182-.19-.399-.097-.644.074-.195.23-.299.476-.319l3.47-.001V2.853l-.086-.013c-.372-.055-.84-.11-1.31-.164a49.541 49.541 0 0 1-1.338-.169l-.176-.026.347.813c.424 1.013.84 2.006 1.14 3.02.091.308.173.61.17.922-.005 1.204-.907 2.271-2.098 2.482a2.652 2.652 0 0 1-.465.04 2.547 2.547 0 0 1-2.48-1.907c-.12-.443-.103-.903.052-1.45.273-.96.655-1.892.993-2.677.306-.709.625-1.411.944-2.114.12-.264.288-.38.525-.38.037 0 .077.003.12.01.446.064 1.704.198 2.61.294.45.048 1.056.117 1.056.117V.998c0-.253.127-.447.337-.522a.674.674 0 0 1 .224-.038c.182 0 .352.076.456.205a.574.574 0 0 1 .114.371v.63l.01.18 1.147.166c.867.123 2.011.286 2.51.364.14.017.189.021.234.034a.44.44 0 0 1 .288.263l.21.47c.215.477.429.955.636 1.435.41.954.803 1.892 1.085 2.872.088.303.173.626.171.95-.007 1.125-.792 2.125-1.908 2.432a2.477 2.477 0 0 1-.652.088c-1.252 0-2.342-.926-2.536-2.154-.077-.489.03-.947.143-1.33.268-.903.632-1.784.952-2.538.124-.294.253-.585.382-.876l.215-.488-.08-.14c-.4-.055-.87-.11-1.34-.166-.474-.055-.947-.11-1.347-.166l-.114-.016v9.406l3.388-.001c.213 0 .353.05.454.165.16.18.194.396.102.641-.074.2-.232.306-.48.325l-7.986.002zm8.142-8.965l-.045.098c-.38.881-.772 1.793-1.075 2.724-.093.287-.18.553-.202.826-.031.39.099.765.367 1.055a1.44 1.44 0 0 0 1.053.464c.083 0 .167-.007.252-.022.823-.148 1.275-.943 1.165-1.563a4.677 4.677 0 0 0-.108-.479c-.196-.674-.452-1.313-.742-2.02l-.544-1.297-.121.214zM2.57 3.439c-.4.916-.834 1.941-1.168 2.976-.08.25-.154.479-.169.714-.025.389.108.76.375 1.045a1.42 1.42 0 0 0 1.599.346c.602-.253.956-.864.861-1.486a3.445 3.445 0 0 0-.122-.499c-.286-.928-.663-1.843-1.024-2.7l-.226-.529-.126.133z"/></svg>