<svg xmlns="http://www.w3.org/2000/svg" viewBox="0 0 14 14"><path d="M.6 1.2h12.8a.6.6 0 1 0 0-1.2H.6a.6.6 0 1 0 0 1.2zm12.8 3.366H8.32a.6.6 0 1 0 0 1.2h5.08a.6.6 0 1 0 0-1.2zm0 3.668H8.32a.6.6 0 1 0 0 1.2h5.08a.6.6 0 1 0 0-1.2zm0 4.566H.6a.6.6 0 1 0 0 1.2h12.8a.6.6 0 1 0 0-1.2zM4.768 8.734L3.54 9.914V4.087l1.228 1.18A.6.6 0 0 0 5.6 4.4L3.356 2.246a.565.565 0 0 0-.152-.096c-.01-.006-.015-.018-.026-.022-.003-.002-.007 0-.01-.002a.59.59 0 0 0-.297-.035c-.025.003-.046.01-.07.015a.587.587 0 0 0-.238.118c-.01.008-.024.008-.033.017L.205 4.42a.6.6 0 1 0 .82.875L2.34 4.064v5.873L1.025 8.704a.6.6 0 0 0-.82.875l2.325 2.18c.037.035.082.056.125.08.02.011.039.03.06.038a.597.597 0 0 0 .225.045.6.6 0 0 0 .23-.047c.002-.002.005-.001.008-.002.009-.004.012-.013.02-.017a.586.586 0 0 0 .158-.101L5.6 9.599a.6.6 0 0 0-.832-.865z"/></svg>