<svg data-name="Layer 1" xmlns="http://www.w3.org/2000/svg" viewBox="0 0 14 14"><path d="M1.062 13.512a.574.574 0 0 1-.543-.76l1.322-3.847a9.063 9.063 0 0 1-.483-1.977A6.07 6.07 0 0 1 7.05.5a6.103 6.103 0 0 1 6.45 5.674 6.07 6.07 0 0 1-5.694 6.428 9.062 9.062 0 0 1-2.862-.547l-3.676 1.42a.588.588 0 0 1-.207.037zm6.37-11.876c-.102 0-.206.003-.31.01a4.92 4.92 0 0 0-4.618 5.21 9.085 9.085 0 0 0 .485 1.849.57.57 0 0 1 .004.384l-.987 2.869 2.72-1.05a.574.574 0 0 1 .4-.005 9.044 9.044 0 0 0 2.61.553 4.914 4.914 0 0 0-.304-9.82z" fill="#020202"/></svg>