<svg xmlns="http://www.w3.org/2000/svg" viewBox="0 0 80 80"><g fill="#237ABE"><path d="M34.4 16.1v7l-5.2.5c-3.5 10.8-3.5 21.7 0 32.6l5.2.5v7.2c-4 0-7.8-.3-11.4-1.1-5.6-15.1-5.6-30.3 0-45.8 3.6-.7 7.4-1 11.4-.9zm11.2 0v7l5.2.5c3.5 10.8 3.5 21.7 0 32.6l-5.2.5v7.2c4 0 7.8-.3 11.4-1.1 5.6-15.1 5.6-30.3 0-45.8-3.6-.7-7.4-1-11.4-.9z"/><path d="M48 30.4c-2-.6-3.9-.9-5.7-.7-.6 2.1-1.7 4.5-3 7.1-1-2.4-1.9-4.8-2.6-7.2-1.8 0-3.8.3-5.5.9 1.5 7.6 4.5 14.6 8.7 21 2.3.1 4.5-.2 6.7-.9-1.4-2.3-2.7-4.5-3.9-6.8 2.6-4.5 4.5-9 5.3-13.4z"/></g></svg>