<svg xmlns="http://www.w3.org/2000/svg" viewBox="0 0 80 80"><path fill="#36A7E8" d="M63.3 39.1c.1-2 .7-3 1.7-3s1.6 1 1.6 3h-3.3zm7.6 1.2c0-2.3-.5-4.1-1.5-5.3-1-1.3-2.5-1.9-4.3-1.9-3.9 0-6.2 2.8-6.2 7.4 0 2.6.6 4.5 1.9 5.7 1.1 1.1 2.8 1.6 4.9 1.6 1.9 0 3.7-.5 4.9-1.2l-.6-3.1c-1.1.6-2.4.9-3.9.9-.9 0-1.5-.2-1.9-.6-.5-.4-.7-1.1-.8-2h7.5v-1.5zm-18.1 3.1c-.4.7-.9 1.1-1.6 1.1-.5 0-.9-.1-1.2-.3v-6.8c.8-.8 1.5-.9 1.7-.9 1.2 0 1.7 1.2 1.7 3.7 0 1.4-.2 2.5-.6 3.2zm3.8-8.8c-.8-1-1.9-1.6-3.3-1.6-1.3 0-2.5.5-3.5 1.7l-.2-1.4h-4v19.5l4.5-.7v-4.6c.7.2 1.4.3 2 .3 1.1 0 2.8-.3 4.1-1.7 1.2-1.3 1.8-3.4 1.8-6.1-.1-2.4-.5-4.2-1.4-5.4zm-17.5-1.2h4.5v14.2h-4.5V33.4zm2.3-1.4c1.3 0 2.4-1.1 2.4-2.4 0-1.3-1.1-2.4-2.4-2.4-1.3 0-2.4 1.1-2.4 2.4 0 1.3 1.1 2.4 2.4 2.4zm-4.2 1.2c-1.3 0-2.3.7-2.7 1.9l-.3-1.7h-4v14.2h4.5v-9.2c.6-.7 1.4-.9 2.5-.9.2 0 .5 0 .8.1v-4.2c-.3-.2-.5-.2-.8-.2zm-8.7 3.5l.5-3.4h-2.9v-4.1l-3.9.6-.6 3.4-1.4.2-.5 3.1h1.9v6.6c0 1.7.4 2.9 1.3 3.6.7.6 1.8.9 3.3.9 1.2 0 1.9-.2 2.4-.3V44c-.3.1-.9.2-1.3.2-.9 0-1.3-.5-1.3-1.5v-5.9h2.5zm-13 2c-1.3-.5-2.1-.9-2.1-1.5 0-.5.4-.8 1.2-.8 1.4 0 2.8.5 3.7 1l.5-3.4c-.8-.4-2.3-1-4.5-1-1.5 0-2.8.4-3.7 1.2-.9.8-1.4 1.9-1.4 3.3 0 2.5 1.5 3.5 4 4.4 1.6.6 2.1 1 2.1 1.6 0 .6-.5.9-1.4.9-1.2 0-3-.6-4.3-1.3l-.5 3.4c1.1.6 3 1.2 5.1 1.2 1.6 0 3-.4 3.9-1.1 1-.8 1.6-2 1.6-3.5-.1-2.4-1.7-3.5-4.2-4.4z"/></svg>