<svg id="Layer_1" xmlns="http://www.w3.org/2000/svg" viewBox="0 0 80 80"><style>.st5{fill:#b3b3b3}</style><path d="M78.1 30.8c-1.1.5-2.3.8-3.5 1 1.3-.7 2.2-1.9 2.7-3.4-1.2.7-2.5 1.2-3.8 1.5-1.2-1.2-2.7-1.9-4.5-1.9-3.3 0-6.1 2.7-6.1 6.1 0 .5.1.9.2 1.4-5-.3-9.5-2.7-12.5-6.3-.5.9-.8 1.9-.8 3 0 2.1 1.1 4 2.7 5-1 0-1.9-.3-2.7-.8v.1c0 2.9 2.1 5.4 4.9 5.9-.5.1-1 .2-1.6.2-.4 0-.8 0-1.1-.1.8 2.4 3 4.2 5.7 4.2-2.1 1.6-4.7 2.6-7.5 2.6-.5 0-1 0-1.4-.1 2.7 1.7 5.9 2.7 9.3 2.7 11.1 0 17.2-9.2 17.2-17.2v-.8c1-.8 2-1.8 2.8-3.1z" fill="#55acee"/><path d="M4.2 32.3c.1-1.3 1.2-2.5 2.7-2.4.4 0 .9.1 1.7.6 3.4 2.9 5.4 8.1 4.8 12.6 0 .2-.3.2-.3 0-1-3.2-4.1-6.9-6.9-8-1.4-.6-2.1-1.5-2-2.8" fill="#72bd53"/><path d="M28.2 32c0-2-1.7-3.9-4.2-3.8-4.8.1-11.2 12.4-7.5 23.5 0 .2.3.2.3 0 .5-7.7 5.2-13.8 9.3-16.1 1.6-1.1 2.1-2.2 2.1-3.6" fill="#48c2e0"/><path d="M2.1 43.2c.1 1.5 1.4 2.3 2.6 2.3 2.7 0 6.1 1.3 8.1 2.9.2.1.2.1.1-.3-.8-2.8-5.1-7.6-8.3-7.6-1.6.1-2.6 1.4-2.5 2.7" fill="#f9ae1a"/><path d="M31.3 43.2c-.1 1.5-1.4 2.3-2.6 2.3-2.7 0-6.1 1.3-8.1 2.9-.2.1-.2.1-.1-.3.8-2.8 5.1-7.6 8.3-7.6 1.6.1 2.6 1.4 2.5 2.7" fill="#2289ca"/><path class="st5" d="M39.1 36h1v8h-1z"/><path transform="rotate(90 39.607 40)" class="st5" d="M39.1 36h1v8h-1z"/></svg>