<svg xmlns="http://www.w3.org/2000/svg" viewBox="0 0 74.1 36"><g fill="#39a1de"><path d="M33.5 12.6c-2 0-3 1.7-3 3.3 0 1.6.9 3.5 3 3.5 2 0 2.9-1.8 2.9-3.4 0-1.6-.9-3.4-2.9-3.4zm14.9-.3c-1.7 0-2.8 1.1-3 2.5h6c-.2-1.4-1.2-2.5-3-2.5z"/><path d="M64.6 0h-55C4.3 0 0 4.9 0 10.8v6.9c0 5.9 4.2 10.8 9.5 10.8 2.6.2 4.5 4-1.5 7.5 0 0 8.8.1 14-7.5h42.6c5.3 0 9.5-4.8 9.5-10.8v-6.9C74.1 4.9 69.8 0 64.6 0zM18.3 12.3l-3.8 8.6c-.4.9-.8 1.4-2 1.4s-1.7-.5-2-1.4l-3.8-8.6c-.2-.4-.2-.7-.2-1 0-1.1.9-1.6 2-1.6s1.5.7 1.7 1.2l2.4 6.6h.1l2.4-6.6c.2-.5.6-1.2 1.7-1.2 1 0 2 .6 2 1.6-.2.3-.3.5-.5 1zm5.7 8.1c0 1.1-.8 1.8-1.9 1.8-1.1 0-1.9-.7-1.9-1.8v-8.9c0-1.1.8-1.8 1.9-1.8 1.1 0 1.9.7 1.9 1.8v8.9zm-1.9-12C21 8.4 20 7.5 20 6.5c0-.9 1-1.8 2.1-1.8s2.1.9 2.1 1.8c0 1-.9 1.9-2.1 1.9zm11.9 14c-1.3 0-2.8-.5-3.5-1.5-.2.9-.8 1.4-1.9 1.4-1.1 0-1.9-.7-1.9-1.8V6.2c0-1.1.8-1.8 1.9-1.8 1.1 0 1.9.7 1.9 1.8v4.5c1-.8 2.3-1.2 3.6-1.2 4.1 0 6.1 3.4 6.1 6.6 0 3.2-2.4 6.3-6.2 6.3zm15.1-2.9c1.9 0 3.3-1.3 4.3-1.3.8 0 1.5.7 1.5 1.4 0 1.4-3.4 2.8-6.2 2.8-4.3 0-7.1-2.7-7.1-6.4 0-3.4 2.8-6.4 6.8-6.4 4.1 0 6.8 3.3 6.8 6.1 0 1-.5 1.5-1.7 1.5h-8.1c.4 1.5 1.9 2.3 3.7 2.3zm12.6 2.9c-2.1 0-5.3-1.1-5.3-2.6 0-.5.6-1.5 1.6-1.5 1.5 0 2.1 1.1 3.9 1.1 1.2 0 1.5-.3 1.5-.9 0-1.5-6.6-1.3-6.6-5.1 0-2.3 2.1-3.9 5.1-3.9 1.9 0 4.7.8 4.7 2.4 0 .8-.7 1.5-1.5 1.5-.7 0-2.2-1-3.4-1-.7 0-1.3.3-1.3.9 0 1.5 6.6 1.3 6.6 5.1.1 2.3-2 4-5.3 4z"/></g></svg>