<svg xmlns="http://www.w3.org/2000/svg" viewBox="0 0 80 80"><path fill="#ab2318" d="M57.2 17.9c0-1.1-1.2-2.7-1.7-4.4 0 0-2 .1-4.1.2-2.1.1-3.3 1.2-3.3 1.2-.4.5-1.3 1.2-1.3 1.2-.2.3-1.4 1.3-1.4 1.3v1.1c-.1.7-.6 2.2-.5 3.1 0 .7.9 1.6.9 1.6 1.3.2 4 .2 4 .2s-.2.7-.5 1.4-2.2.9-2.2.9.9 1.5 1.2 2.3 1.2 1.4 1.2 1.4c1.6 2.8 2.5 4.3 2.5 5.9 0 1.5-.9 3.3-.9 3.3 0 1.1-.7 2.4-1.4 3.3-.7 1-1.1 1.7-1.5 2.3-.3.7-.9 1.6-1.3 2.3-.4.7-1.2 1.4-1.6 1.7-.4.3-.4.5-.4.5s1.3 1.7 1.3 2.5c0 .4-.2.7-.2 1.4 0 1.3.5 1.8.5 1.8.7-.1.9.1 1.3.4.7.4 1.9 1.2 2.3 1.4.4.2 3.3 2.4 4 2.9.7.5 1.5.5 2.2.9.4.3 1.6.3 1.6 1.6 0 1-1.5 3.5-2.3 4.5-.4.5-1.1.7-1.1.7-1.2 1.4-1.6 1.4-1.6 1.4-.4 0-1.1.1-1.6.2-1.1.2-1.9-.1-2.7 0-1 .2-1.6.1-2.2 0-.6 0-3.1.1-4.8.1-1.7 0-1.5 0-2.3-.1-.9-.1-1.5-.5-1.9-.6-.5 0-1.3.1-2.1-.3-.7-.4-1.7-.7-2.9-.9-1.2-.2-1.4-.2-1.9-1.1-.5-.9-2.6-4.4-6-8.8s-5.1-7.2-5.4-8.2c-.3-1-.9-4.2-.9-6.2s-.1-4.3-.1-6.4c0-2.2.5-2.5.6-3.3.1-1.5.4-1.9.5-2.4-.1-.9.2-1.5.2-1.5.8-.7 3.1-3.7 5.1-4.9 1.6-1.2 4.6-.7 6.8-1.3-1-1.1-2.4-1.6-3.6-1.6s-1.7.4-1.8.1c-.1-.2.9-.5 1.3-1 .5-.6 1.1-.5 1.9-1.1 0 0 2.3.5 4.1 1.1 1.8.7 2.5.5 2.5.5 6.2-5.5 11.4-9.4 11.4-9.4 2.5-.5 7.3-1 7.3-1s.6.3 1.6.4 1 .5 1 .5c.4.8.8.9 1.1 1.2.5.9 2 2 2 3.2 0 1.8-.9 4.6-.9 4.6s-1.2.2-2.1.2h-1.7c-.8 0-.8-.3-.8-.3s1.9-.8 2.6-2zm-14.1 8.8c-1.5.5-1.7 2-3.6 2-1.9 0-2.9-.1-3.2-.9-.2-.8-.3-.9-1-1.5-8.5 0-11.8 1.3-13.2 5.9 0 0 .1.6-.2 1.8-.3 1.2-.4 3.9-.5 5.3V47s6.1 9.3 9.4 13.4c.7 1 2.1 3 4.2 3.3 2.1.3 4 .3 6.6.5 2.6.3 6.6.1 9.4-2 0 0 0-.4.4-.5l-1.5-1.2c-1-.8-1.7-1.4-2.3-1.6-.5-.3-.9-.3-1.2-.8-.3-.5-1-1-1.5-.9-.5.1-1.2.3-1.2-.3s-.1-1.9-.1-2.7c0-.9.2-2.2-.2-2.7-.4-.4-.8-.5-.9-1.2-.1-.7-.4-2.5-.1-2.9.3-.4 1.3-1.9 1.7-2.8.4-.8 4.1-5.2 4.1-8.5.4-3-3.5-7.5-5.1-9.4z"/><path fill="#ab2318" d="M30.8 56.4s.2-.3.5 0c.2.3.4.3.4.3s.1-.6-1-2c0 0-.4-.5-.6-.9-.2-.4-.5-.9-.9-1.5s-.4-.8-.7-1.9c-.3-1.1-1.3-3.2-1.3-3.2s0-.4-.2-1c-.1-.6-.5-1.8-.5-2.8 0-1 .1-2.3.1-3.6 0-1.3-.1-2.2.1-2.6.2-.4.1-1.3.3-1.6s1.1-1.4 1.1-1.4.3 0 1.3-.3c1-.2 4.1-1.1 5.5-1.1s3.9.5 4.6.6c.7.1 1.4.6 2 1.1.7.5 1.3.9 1.3.9s.1.3-.1.7c-.2.4-.4.8-.5 1.1 0 0-.8 1.6-1.4 2.6-.8 1.3-1.1 2.3-1.1 2.3s-.5 1-1 2.2c-.5 1.1-.7 1.8-1.1 2.5-.1.2-.2 1.1 0 2.6s.2 1.4.4 2.1c.2.7.9 3.8 2.8 7.5 0 0-.2.2-.7 0-.7-.2-.6-.6-1.1-.9-.5-.3-.8-.5-1.4-1.3-.7-.8-.9-1.5-1.4-1.9 0 0-.1-.5-.4-1.4-.4-.8-1.4-2.6-1.9-3.5-.4-.9-1.3-2.3-1.9-3.3-.6-1.1-.6-1.3-.6-2.4.1-1.7-.1-2.3-.1-3.2 0-.8.1-1.3.2-1.8.2-.5 0-1.5 1.1-1.7 0 0 .7-.1 1.4 0 .6.1 1.5 0 1.5 0s1.6.8 1.5 1.3c-.1.6-.2 1.2-.2 2 0 0 0 .4-.2.9s-1.2 2.5-1.2 2.5V43c0-.5-.5-1.1-1-1.1s-1.1.2-1.4 1.5c0 0-.1.2.2 1.5.3 1.3.8 2.3 2 2.3s1.4-1.2 1.4-1.7.4-1.2.5-1.5c.1-.3.7-1.5 1-2.3.4-.7.9-2.1.9-2.7 0-1.5-1.2-3.8-2.8-3.8-1.6 0-2.6 0-3.6.2-1 .3-2.1.5-2.5.6-.4.1-.5.5-.7 1.7-.2 1.2-.4 1.8-.4 2.5 0 .8.1 1 0 1.3-.1.4-.3.8-.3 1.7 0 .9.2 1.4.6 2.3.1.3.2.9.8 1.6 0 0 .6.9 1 1.9.4 1 .8 1.6 1.3 2.2.5.7.9 2.4 2.3 4.1.2.3.8 1.3 1.2 1.9.4.6.5.8 1.7 1.7.4.4.6.7 1 1.1.4.4 3.1 1.9 4.7 1.9 1.5 0 2-.8 1.3-1.4-.7-.6-1.5-1.4-1.9-2.5-.6-1.2-1-2.7-1.3-3.3-.3-.6-.7-1.4-1-2.7-.3-1.3-.6-2.5-.6-3.8s.2-2.4 1-3.8c1.1-1.6 1.4-2.6 1.4-2.6s.7-.8.9-1.8c1.4-1.1 3-4.5 3-5.2 0-.7-.6-.8-.8-1.4-.2-.6-1.3-1.1-1.5-1.5-.3-.4-1-1.8-2-1.8-.8 0-.6.9-1.9.9-1.3 0-3.1 0-6.7-1.3 0 0-.4-.1-1.4.1-1 .3-2.6.3-4.1.4-1.5.1-2.5.8-2.7 2.3-.2 2.2-1 4.5-1 6.8v5.8c0 2.2 1.7 4.4 1.9 5.1 0 0 .8 1.2 2.2 3.1 1.4 1.9 2.7 3.1 2.7 3.1z"/></svg>