<svg xmlns="http://www.w3.org/2000/svg" viewBox="0 0 80 80"><path fill="#E6843D" d="M64 38.8C63.4 26.2 53 16.1 40.2 16h-.1c-12.8 0-23.4 10.1-24 22.8v2c.4 12.8 10.8 23.1 23.7 23.2h.1c13 0 23.5-10.3 24-23.2l.1-2zm-13 0c-.1-3.7-.5-7.3-1.3-10.4h9c1.9 3 3 6.6 3.2 10.4H51zM39.8 62c-2.5 0-5.2-3.2-6.9-8.4h14c-1.8 5.2-4.5 8.4-7.1 8.4zm-7.5-10.4c-.8-3.1-1.3-6.7-1.4-10.7h18c-.1 4-.6 7.7-1.5 10.7H32.3zM31 38.8c.1-3.9.6-7.4 1.5-10.4h15.2c.8 3 1.3 6.5 1.3 10.4H31zm26.3-12.3h-8.1c-1-3.3-2.4-6-4.1-7.9 4.9 1.2 9.2 4 12.2 7.9zM40.1 18c2.5 0 5.2 3.2 6.9 8.5H33c1.9-5.3 4.6-8.5 7.1-8.5zm-4.9.5c-1.7 1.8-3.1 4.6-4.2 7.9h-8.3c3.1-3.9 7.5-6.7 12.5-7.9zm-13.9 10h9.1c-.8 3.1-1.3 6.6-1.4 10.4H18c.2-3.8 1.4-7.4 3.3-10.4zM29 40.8c0 3.9.5 7.5 1.3 10.7h-9c-2-3.1-3.1-6.8-3.3-10.7h11zm-6.3 12.8h8.1c1 3.3 2.4 6 4.1 7.8-4.9-1.2-9.2-4-12.2-7.8zm22.1 7.9c1.7-1.8 3.1-4.5 4.2-7.9h8.3c-3.1 3.9-7.5 6.7-12.5 7.9zm13.9-9.9h-9.1c.8-3.2 1.3-6.8 1.4-10.7h11c-.2 3.9-1.4 7.5-3.3 10.7z"/></svg>