<svg xmlns="http://www.w3.org/2000/svg" viewBox="0 0 14 11.329"><path fill="#71BD51" d="M.995 1.946A1.25 1.25 0 0 1 2.31.77c.203.02.446.04.81.304C4.74 2.492 5.693 4.983 5.41 7.15c-.021.101-.143.101-.163 0-.466-1.54-1.965-3.322-3.281-3.848-.648-.264-1.013-.73-.972-1.357z"/><path fill="#46C3E1" d="M12.52 1.824c0-.992-.831-1.863-2.026-1.823-2.289.061-5.347 5.935-3.605 11.261.02.102.121.081.141-.02.243-3.706 2.471-6.623 4.476-7.757.81-.446 1.013-.992 1.013-1.66z"/><path fill="#FBAF17" d="M.002 7.191c.041.75.669 1.114 1.236 1.114 1.296 0 2.937.608 3.889 1.418.08.06.1.04.04-.142-.385-1.357-2.47-3.625-3.97-3.625-.77-.02-1.235.628-1.195 1.235z"/><path fill="#1C8ACB" d="M13.998 7.191c-.04.75-.669 1.114-1.236 1.114-1.296 0-2.937.608-3.889 1.418-.08.06-.1.04-.04-.142.385-1.357 2.47-3.625 3.97-3.625.77-.02 1.235.628 1.195 1.235z"/></svg>