<svg xmlns="http://www.w3.org/2000/svg" viewBox="0 0 14 14"><g fill="#323232"><path d="M4.248 2.286l5.628-.027c.122 0 .22-.079.22-.175L10.087.172c-.001-.096-.1-.173-.222-.172L4.237.026c-.123.001-.221.08-.22.176l.008 1.912c.001.096.1.173.223.172z"/><path d="M12.833.912h-.628c-.009 0-.015.009-.024.01h-.895v2.553h-.747v.002H2.873v-.003h-.021V.922h-.6c-.009-.001-.015-.01-.024-.01H1.167a.308.308 0 0 0-.307.307v12.473c0 .17.138.308.307.308h11.667a.308.308 0 0 0 .307-.307V1.219a.308.308 0 0 0-.308-.307zM3.885 7.908l.723-.583c.101-.081.227-.09.284-.02l1.09 1.355 3.445-2.776c.063-.052.182-.012.261.088l.583.724c.079.102.093.225.029.277L5.886 10.53c-.058.046-.155.011-.233-.068-.005-.004-.016-.001-.021-.007L3.805 8.181c-.055-.07-.021-.192.08-.273z"/></g></svg>