<svg xmlns="http://www.w3.org/2000/svg" viewBox="0 0 14 14"><path fill="#010101" d="M12.833 14H1.167C.523 14 0 13.442 0 12.798V1.13A1.172 1.172 0 0 1 .713.057C.856-.004 1.009 0 1.167 0h11.666C13.477 0 14 .487 14 1.131v11.667a1.168 1.168 0 0 1-.71 1.074c-.148.062-.3.128-.457.128M1.167 1.167v11.666h11.665l.001-11.666H1.167z"/><path fill="#010101" d="M10.1 4.683H3.9a.6.6 0 1 1 0-1.199h6.2a.6.6 0 1 1 0 1.2zm0 2.917H3.9a.6.6 0 1 1 0-1.2h6.2a.6.6 0 1 1 0 1.2zm0 2.916H3.9a.6.6 0 1 1 0-1.199h6.2a.6.6 0 1 1 0 1.2z"/></svg>