<svg xmlns="http://www.w3.org/2000/svg" viewBox="0 0 12 12"><g fill="#010101"><path d="M6.043 3.726h-4.02c-1.098 0-1.98.86-2.004 1.923l-.01 4.088.008.067a2.008 2.008 0 0 0 2.005 1.905h4.021c1.096 0 1.978-.86 2.005-1.924l.008-4.088-.007-.068a2.01 2.01 0 0 0-2.006-1.903zm1.01 2.017l-.002 3.981a1.005 1.005 0 0 1-1.008.984h-4.02c-.551 0-.994-.432-1.011-1.015l.003-3.983a1.003 1.003 0 0 1 1.007-.983h4.021c.55 0 .992.433 1.01 1.016z"/><path d="M11.983 2.195A2.012 2.012 0 0 0 9.978.29H5.957c-1.098 0-1.98.86-2.002 1.909l-.012.103c0 .27.221.48.501.48a.495.495 0 0 0 .423-.246.507.507 0 0 0 .081-.261 1.005 1.005 0 0 1 1.008-.984h4.02c.55 0 .993.432 1.012 1.015l-.003 3.98a1.006 1.006 0 0 1-1.008.985H9.46a.501.501 0 0 0 0 1.002h.516c1.095 0 1.977-.86 2.003-1.922l.01-4.089-.007-.068zm-7.265.075z"/></g></svg>