<svg xmlns="http://www.w3.org/2000/svg" viewBox="0 0 14 14"><path d="M7.65 2.006a.6.6 0 0 0-.6-.6H1.885A1.837 1.837 0 0 0 .05 3.244v5.164a.6.6 0 0 0 1.2 0V3.243c0-.351.285-.637.635-.637H7.05a.6.6 0 0 0 .6-.6z"/><path d="M8.5 9.943a.6.6 0 0 0-.599-.6h-.303V5.275h.416c.96.06 1.535.49 1.535.873a.6.6 0 0 0 1.199 0c0-1.123-1.094-1.975-2.696-2.071l-2.623.001c-1.048.102-2.18.922-2.18 2.07a.6.6 0 0 0 1.2 0c0-.388.543-.821 1.038-.872h.912v4.067h-.303a.6.6 0 1 0 0 1.2h1.805a.6.6 0 0 0 .6-.6z"/><path d="M13.945 6.273a.598.598 0 1 0-1.2.002l.006 5.164a.639.639 0 0 1-.638.637l-5.17.004a.598.598 0 1 0 0 1.2h.001l5.171-.005c.49 0 .952-.192 1.298-.538a1.82 1.82 0 0 0 .537-1.3l-.005-5.164z"/></svg>