<svg xmlns="http://www.w3.org/2000/svg" viewBox="0 0 14 14"><path d="M12.243 1.528l-1.526.01v2.294l-7.426.002V3.83h-.018V1.538l-1.516-.01a.277.277 0 0 0-.276.276v11.21c0 .153.124.277.276.277h10.486a.277.277 0 0 0 .276-.276V1.805a.277.277 0 0 0-.276-.277zM6.07 11.18a.52.52 0 0 1-.357-.141L3.84 9.275a.522.522 0 1 1 .716-.76L6.06 9.93l3.72-3.72a.522.522 0 1 1 .738.738L6.44 11.026a.52.52 0 0 1-.369.153z"/><path d="M9.41 2.735H4.59a.213.213 0 0 1-.212-.213v-1.6c0-.117.095-.213.213-.213h4.818c.118 0 .213.096.213.213v1.6a.213.213 0 0 1-.213.213z"/></svg>