<svg xmlns="http://www.w3.org/2000/svg" viewBox="0 0 14 14"><path d="M13.486 0H.514A.514.514 0 0 0 0 .514v12.973c0 .283.23.513.514.513h12.973c.283 0 .513-.23.513-.514V.514A.514.514 0 0 0 13.486 0zm-.536 12.95H1.05V7.525h11.9v5.425zm0-6.475H1.05V1.05h11.9v5.425z"/><path d="M11.7 5.312H6.092a.236.236 0 0 1-.236-.237v-.527c0-.13.106-.236.236-.236h5.61c.13 0 .236.105.236.236v.527c0 .13-.106.237-.236.237zm0-2.022H6.092a.236.236 0 0 1-.236-.236v-.527c0-.13.106-.236.236-.236h5.61c.13 0 .236.105.236.236v.527c0 .13-.106.237-.236.237zM4.92 5.313H2.201a.138.138 0 0 1-.139-.138V2.429c0-.076.062-.138.139-.138h2.717c.077 0 .139.062.139.138v2.746a.138.138 0 0 1-.139.138zm6.78 6.472H6.092a.236.236 0 0 1-.236-.236v-.528c0-.13.106-.236.236-.236h5.61c.13 0 .236.106.236.236v.528c0 .13-.106.236-.236.236zm0-2.021H6.092a.236.236 0 0 1-.236-.236V9c0-.13.106-.236.236-.236h5.61c.13 0 .236.106.236.236v.528c0 .13-.106.236-.236.236zm-6.78 2.022H2.201a.138.138 0 0 1-.139-.138V8.902c0-.076.062-.138.139-.138h2.717c.077 0 .139.062.139.138v2.746a.138.138 0 0 1-.139.138z" fill-rule="evenodd" clip-rule="evenodd"/></svg>