<svg xmlns="http://www.w3.org/2000/svg" viewBox="0 0 12 11.941"><path d="M5.527 11.94l-2.037-.544-.547-2.039 1.492-1.492 2.038.546.546 2.039-1.492 1.49zM2.584 9.084L.546 8.538 0 6.499l1.491-1.492 2.04.546.545 2.038-1.492 1.493zm1.098-4.062l-2.037-.547-.547-2.037L2.59.946l2.039.546.547 2.038-1.494 1.492zm5.75 5.809l-2.037-.546-.548-2.038L8.34 6.755l2.037.546.547 2.039-1.492 1.491zM7.675 4.077L5.638 3.53l-.544-2.039L6.584 0l2.038.547.546 2.038-1.493 1.492zM10.51 6.96l-2.04-.548-.545-2.038 1.49-1.492 2.038.546L12 5.467 10.51 6.96z"/></svg>