<svg id="Layer_1" xmlns="http://www.w3.org/2000/svg" viewBox="0 0 14 14"><style>.st33{fill:#fc9916}</style><path d="M12.254 8.686c.607.027.961.28 1.03.732.06.399.033.795-.056 1.183-.307 1.325-1.096 2.247-2.345 2.785-.481.207-.968.387-1.485.49a6.58 6.58 0 0 1-2.13.068 6.36 6.36 0 0 1-2.936-1.133c-1.385-.99-2.26-2.321-2.587-3.994-.284-1.45-.038-2.831.61-4.147.122-.248.216-.494.028-.731-.208-.262-.51-.28-.812-.209-.194.047-.382.124-.571.192-.092.033-.196.06-.272.008-.086-.06-.024-.16-.002-.242.162-.607.606-.953 1.142-1.197.716-.327 1.464-.37 2.224-.18.14.036.233.008.338-.093.9-.872 1.904-1.579 3.108-1.97.809-.26 1.63-.348 2.457-.103.786.232 1.322.718 1.494 1.553.023.113-.059.273.076.33.104.046.238.018.36.024.182.009.36.042.528.113.431.179.56.67.265 1.029-.251.304-.585.455-.973.515-.507.079-.99.023-1.455-.194-.021-.01-.051-.001-.119-.001.246.313.576.41.944.513-.396.166-.773.248-1.139.366-.293.096-.58.207-.863.33-.142.062-.205.163-.2.333a2.443 2.443 0 0 1-1.827 2.431c-.157.041-.32.047-.48.043-.05-.002-.119.004-.145-.051-.03-.06.033-.097.064-.136.102-.125.217-.24.311-.372.129-.18.203-.38.152-.607-.056-.247-.234-.349-.483-.274-.277.083-.504.255-.718.439-.766.662-1.249 1.502-1.403 2.497a3.935 3.935 0 0 0 2.975 4.45c.37.09.74.129 1.127.103-1.172-.334-2.056-1.01-2.566-2.13-.563-1.234-.258-2.853.254-3.297-.096.284-.16.543-.199.806-.165 1.114.043 2.114.907 2.908.028.026.065.043.098.064l.014.005.014-.004H7c.027.028.05.063.081.084.917.609 1.889.709 2.871.213.986-.497 1.485-1.339 1.508-2.444.013-.64.192-.907.793-1.097zM9.739 1.69c-.328-.117-.636 0-.797.281-.158.278-.093.648.148.838a.653.653 0 0 0 .853-.029c-.449-.029-.658-.18-.699-.5-.031-.254.142-.465.495-.59zm.13.336c-.021-.082-.061-.147-.16-.143a.145.145 0 0 0-.144.14c-.004.085.05.15.148.154.102.003.138-.064.157-.151z" fill="#2677e2"/><path class="st33" d="M12.254 8.686c-.6.19-.78.457-.793 1.097-.023 1.105-.522 1.947-1.508 2.444-.982.496-1.954.396-2.87-.213-.032-.02-.055-.056-.082-.085a2.523 2.523 0 0 0 3.321-1.533 2.963 2.963 0 0 0 .08-1.61c-.12-.564.179-1 .773-1.134.443-.099.901.234 1.015.74.023.097.043.196.064.294z"/><path class="st33" d="M7.008 11.93l-.014.004-.014-.005c.01-.008.018-.008.028.001z"/><path d="M9.74 1.69c-.354.125-.527.336-.496.59.04.32.25.471.699.5a.653.653 0 0 1-.853.03c-.241-.19-.306-.56-.148-.839.161-.282.469-.398.797-.28z" fill="#f9fdfe"/><path d="M9.87 2.026c-.02.087-.055.154-.157.151-.098-.003-.152-.069-.148-.154a.145.145 0 0 1 .144-.14c.099-.004.139.061.16.143z" fill="#f3f9fe"/></svg>