<svg xmlns="http://www.w3.org/2000/svg" viewBox="0 0 14 14"><path d="M6.375 6.834a.87.87 0 1 1 .003 1.74.87.87 0 0 1-.003-1.74"/><path d="M5.17 10.996l-1.091.002c-.132-.002-.428-.003-.688-.226a.934.934 0 0 1-.339-.7v-.012s-.024-3.514-.026-4.094a1.455 1.455 0 0 1 .48-1.093l2.13-2.023C6.746 1.796 7.89.71 7.976.63l.097-.093c.105-.1.21-.2.319-.296a.962.962 0 0 1 1.3.033l3.934 3.868c.09.086.201.191.279.354a.95.95 0 0 1-.176 1.08c-.269.278-4.52 4.704-4.693 4.894a1.59 1.59 0 0 1-.83.487l-.382.028-2.654.01zm-.93-1.19h.928l2.823-.014a.422.422 0 0 0 .158-.114c.155-.174 3.787-3.955 4.575-4.774L9.018 1.28l-.126.12-.102.096c-.088.082-1.227 1.165-2.335 2.217L4.32 5.74c-.092.087-.104.157-.104.22.002.487.02 3.038.025 3.845zm4.947-8.68z"/><path d="M12.573 13.973l-11.954.023a.595.595 0 0 1-.596-.594L0 1.534c0-.33.265-.596.593-.597L3.137.932a.595.595 0 0 1 .002 1.19l-1.949.004.021 10.679 10.765-.021-.003-1.27a.595.595 0 1 1 1.19-.003l.003 1.865a.595.595 0 0 1-.593.597z"/></svg>