<svg xmlns="http://www.w3.org/2000/svg" viewBox="0 0 14 14"><path d="M2.826 13.998c.121-.63.406-1.194.258-1.6-.15-.413-.765-.636-1.113-1.003C.177 9.506-.463 7.275.344 4.786 1.189 2.18 3.064.604 5.759.118c3.248-.584 6.418 1.08 7.675 3.94 1.726 3.928-.661 8.49-4.927 9.266-1.843.336-3.727.45-5.68.674zm6.814-3.141c-.176-.512-.333-.892-.43-1.287-.037-.149.009-.39.112-.49 1.026-.988 1.346-2.164.85-3.487-.488-1.298-1.518-1.941-2.879-2.086-1.522-.163-3.123.942-3.483 2.41-.38 1.556.42 3.204 1.91 3.738 1.248.448 2.537.783 3.92 1.202z"/></svg>