<svg data-name="Layer 1" xmlns="http://www.w3.org/2000/svg" viewBox="0 0 24 24"><defs><clipPath id="a"><path d="M18.058 13.759a.393.393 0 0 0-.085-.217l-1.105-1.354a.364.364 0 0 0-.35-.129.376.376 0 0 0-.283.251.397.397 0 0 0 .068.38l.581.713-3.644-.023a.368.368 0 0 0-.327.189.398.398 0 0 0-.003.388.368.368 0 0 0 .325.193l3.644.022-.59.706a.397.397 0 0 0-.072.379.376.376 0 0 0 .28.254.364.364 0 0 0 .352-.124l1.12-1.34a.395.395 0 0 0 .09-.288z" fill="#fff"/></clipPath><clipPath id="b"><path d="M12.955 17.166a.393.393 0 0 1 .09-.215l1.133-1.33a.364.364 0 0 1 .353-.121.376.376 0 0 1 .278.257.397.397 0 0 1-.077.378l-.596.7 3.644.056a.368.368 0 0 1 .323.196.398.398 0 0 1-.006.388.368.368 0 0 1-.329.186l-3.644-.056.575.718a.397.397 0 0 1 .064.38.376.376 0 0 1-.285.248.364.364 0 0 1-.35-.131l-1.09-1.364a.395.395 0 0 1-.083-.29z" fill="#fff"/></clipPath></defs><circle cx="12" cy="12" r="12" fill="#40a3f5"/><path d="M11.35 17.303c-3.416-.195-4.203-1.2-4.328-1.401v-1.379a9.005 9.005 0 0 0 4.324 1.082c0-.02-.006-.037-.006-.056a4.604 4.604 0 0 1 .095-.932 7.74 7.74 0 0 1-4.413-1.268v-1.737a9.92 9.92 0 0 0 5.206 1.1c.044 0 .083-.007.126-.008a4.58 4.58 0 0 1 1.208-1.068 10.706 10.706 0 0 1-1.334.083 8.463 8.463 0 0 1-5.206-1.282V8.618a10.673 10.673 0 0 0 4.894.987 10.672 10.672 0 0 0 4.895-.987v1.744a5.08 5.08 0 0 1-.934.604c.017 0 .034-.005.052-.005a4.556 4.556 0 0 1 1.874.408V7.477h-.002a.862.862 0 0 0 .014-.106c0-1.234-2.641-2.235-5.899-2.235s-5.899 1-5.899 2.235a.86.86 0 0 0 .014.1l-.002.006v8.53a.489.489 0 0 0 .02.139c.057.192.683 1.888 5.245 2.147l.028.001a.496.496 0 0 0 .028-.991zm.566-10.976c2.613 0 4.198.662 4.63 1.044-.432.381-2.017 1.043-4.63 1.043s-4.198-.662-4.63-1.043c.432-.382 2.017-1.044 4.63-1.044z" fill="#fff"/><path d="M18.058 13.759a.393.393 0 0 0-.085-.217l-1.105-1.354a.364.364 0 0 0-.35-.129.376.376 0 0 0-.283.251.397.397 0 0 0 .068.38l.581.713-3.644-.023a.368.368 0 0 0-.327.189.398.398 0 0 0-.003.388.368.368 0 0 0 .325.193l3.644.022-.59.706a.397.397 0 0 0-.072.379.376.376 0 0 0 .28.254.364.364 0 0 0 .352-.124l1.12-1.34a.395.395 0 0 0 .09-.288z" fill="#fff"/><g clip-path="url(#a)"><path fill="#fff" d="M9.944 18.366l.058-9.242 10.974.068-.057 9.242z"/></g><path d="M12.955 17.166a.393.393 0 0 1 .09-.215l1.133-1.33a.364.364 0 0 1 .353-.121.376.376 0 0 1 .278.257.397.397 0 0 1-.077.378l-.596.7 3.644.056a.368.368 0 0 1 .323.196.398.398 0 0 1-.006.388.368.368 0 0 1-.329.186l-3.644-.056.575.718a.397.397 0 0 1 .064.38.376.376 0 0 1-.285.248.364.364 0 0 1-.35-.131l-1.09-1.364a.395.395 0 0 1-.083-.29z" fill="#fff"/><g clip-path="url(#b)"><path fill="#fff" d="M9.993 21.778l.143-9.24 10.973.168-.142 9.241z"/></g><path fill="#40a3f5" d="M15.015 10.301h1.794v.906h-1.794z"/></svg>