<svg xmlns="http://www.w3.org/2000/svg" viewBox="0 0 14 14"><path d="M11.808 1.051h-1.03V.617a.6.6 0 1 0-1.199 0v.434H4.378V.617a.6.6 0 1 0-1.2 0v.434h-.986C.982 1.051 0 2.033 0 3.244v8.547c0 1.21.982 2.192 2.192 2.192h9.616c1.21 0 2.192-.981 2.192-2.192V3.244a2.193 2.193 0 0 0-2.192-2.193zm-9.616 1.2h.987v.366a.6.6 0 1 0 1.199 0V2.25h5.201v.366a.6.6 0 1 0 1.2 0V2.25h1.029c.547 0 .992.446.992.993v1.15H1.2v-1.15c0-.547.445-.993.992-.993zm9.616 10.532H2.192a.994.994 0 0 1-.992-.992V5.594h11.6v6.197a.994.994 0 0 1-.992.992z"/><path d="M6.765 11.278V8.122l-.67.282c-.19.085-.34.007-.4-.19L5.63 8.03c-.06-.19.006-.328.184-.407l1.207-.538c.15-.072.262-.085.472-.085.184 0 .289.111.289.315v3.963c0 .203-.118.315-.321.315H7.08c-.203 0-.315-.112-.315-.315z"/></svg>