<svg xmlns="http://www.w3.org/2000/svg" width="1200" height="841.891"><path fill="#0828CC" d="M197.845 693.347l-11.005 11.21-11.489-11.28a4.737 4.737 0 1 0-6.635 6.763l11.484 11.275-11.005 11.21a4.737 4.737 0 0 0 6.763 6.635l11.006-11.21 11.489 11.28a4.737 4.737 0 1 0 6.634-6.763l-11.483-11.276 11.004-11.21a4.737 4.737 0 1 0-6.763-6.634M785.182 196.94l-7.721 7.746-7.938-7.913a3.298 3.298 0 0 0-4.654 4.673l7.935 7.91-7.72 7.745a3.297 3.297 0 1 0 4.673 4.654l7.72-7.745 7.938 7.913a3.297 3.297 0 1 0 4.654-4.673l-7.934-7.91 7.72-7.745a3.298 3.298 0 0 0-4.673-4.654"/><path fill="#FFF" d="M994.713 647.839c30.71 41.219 54.61 77.874 50.867 80.872-5.038 4.035-54.472-49.537-104.656-112.186-50.186-62.649-90.57-121.205-85.533-125.24 3.746-3 33.255 27.009 66.838 66.056l72.484 90.498z"/><path fill="#0828CC" d="M1018.283 645.868c-2.014-2.891-5.993-3.6-8.874-1.573a6.368 6.368 0 0 0-1.573 8.874c36.152 51.738 48.162 80.505 47.771 88.122-12.202-1.703-60.075-43.107-120.72-118.813-60.64-75.707-90.597-131.463-89.6-143.738 7.532 1.279 33.033 19.326 75.728 66.023a6.367 6.367 0 0 0 9.005.401 6.371 6.371 0 0 0 .4-9.004c-47.192-51.62-77.846-74.806-91.24-69.094a6.321 6.321 0 0 0-2.298 1.17l-44.737 36.118a10.55 10.55 0 0 0-1.529 1.302c-5.732 4.94-8.659 16.491 16.27 59.537 16.934 29.237 42.453 65.553 71.86 102.26 29.818 37.228 59.592 70.34 83.832 93.25 26.588 25.122 39.978 31.982 47.748 31.982 3.057 0 5.24-1.059 7.024-2.485l46.18-36.996c1.093-.874 1.71-2.062 2.053-3.315 8.653-11.714-7.208-46.641-47.3-104.02zm-8.41 133.98c-10.537-.033-57.822-41.273-121.179-120.364-62.134-77.567-91.965-134.235-89.277-144.569l34.424-27.825c2.287 8.867 7.942 21.792 19.153 41.097 16.956 29.19 42.503 65.512 71.943 102.26 29.44 36.751 59.305 69.616 84.1 92.536 16.976 15.693 28.568 24.07 36.775 28.081l-35.939 28.785z"/><path fill="#0828CC" d="M985.352 649.241a6.356 6.356 0 0 1-4.98-2.388 6.37 6.37 0 0 1 .99-8.958l9.366-7.505c9.01-7.222 11.222-19.486 4.93-27.341l-28.542-35.637c-6.299-7.85-18.749-8.365-27.759-1.15l-9.366 7.506c-2.733 2.207-6.763 1.76-8.959-.992a6.368 6.368 0 0 1 .99-8.958l9.367-7.505c14.488-11.613 34.98-10.214 45.677 3.124l28.54 35.643c10.685 13.34 7.59 33.64-6.91 45.259l-9.366 7.505a6.317 6.317 0 0 1-3.978 1.397zM599.243 756.107a6.37 6.37 0 0 1-6.372-6.372V482.996a6.372 6.372 0 1 1 12.744 0v266.74a6.37 6.37 0 0 1-6.372 6.371zm-86.51-3.711a6.373 6.373 0 0 1-6.367-6.164l-8.573-263.027c-.113-3.52 2.648-6.469 6.163-6.582 3.48-.073 6.463 2.644 6.581 6.163l8.574 263.027c.114 3.521-2.648 6.47-6.163 6.583h-.215zm173.082 0h-.214a6.379 6.379 0 0 1-6.163-6.583l8.573-263.027c.119-3.52 3.158-6.259 6.582-6.163 3.514.113 6.276 3.063 6.163 6.582l-8.573 263.027a6.373 6.373 0 0 1-6.368 6.164z"/><g fill="#FFF"><path d="M439.93 130.884a6.371 6.371 0 0 0-6.371 6.372v77.336c0 .564-.067 1.11-.167 1.645l-89.232-94.066 62.9-66.309a6.37 6.37 0 0 0-.237-9.01c-2.552-2.421-6.588-2.325-9.01.238L294.58 155.916a8.112 8.112 0 0 1-5.897 2.552c-2.078.074-4.358-.872-5.926-2.49L151.847 20.933c.338-.038.668-.102 1.015-.102h83.352a6.372 6.372 0 0 0 6.373-6.373 6.371 6.371 0 0 0-6.373-6.372h-83.352c-11.946 0-21.664 9.717-21.664 21.664v184.842c0 5.823 2.337 11.094 6.09 14.99.324.955.799 1.865 1.584 2.605a6.342 6.342 0 0 0 4.37 1.732c.01 0 .02-.006.03-.006 2.904 1.447 6.13 2.338 9.59 2.338H424.64c3.577 0 6.903-.955 9.88-2.496.276.037.538.164.816.164a6.347 6.347 0 0 0 4.386-1.749 6.334 6.334 0 0 0 1.97-4.377c2.847-3.667 4.612-8.21 4.612-13.2v-77.337a6.371 6.371 0 0 0-6.372-6.372zm-151.298 40.334h.124c5.756-.033 11.11-2.354 15.071-6.53l31.548-33.257 87.343 92.075H155.804l46.176-49.022a6.375 6.375 0 0 0-.271-9.01c-2.553-2.411-6.588-2.298-9.01.272l-48.357 51.337c-.234-.796-.399-1.62-.399-2.49V31.1l89.512 92.338c-.703.34-1.367.79-1.927 1.401l-24.426 26.51a6.366 6.366 0 0 0 .368 9.004 6.331 6.331 0 0 0 4.318 1.686c1.715 0 3.43-.69 4.686-2.055l24.426-26.508c.4-.433.623-.95.88-1.45l31.82 32.826c3.984 4.108 9.321 6.366 15.032 6.366z"/><path d="M424.639 8.086H258.28a6.371 6.371 0 0 0-6.372 6.372 6.372 6.372 0 0 0 6.372 6.373h30.43c.021 0 .038.01.058.01s.04-.01.06-.01h135.81c4.919 0 8.92 4.001 8.92 8.919v75.944c0 3.52 2.852 6.372 6.373 6.372s6.372-2.852 6.372-6.372V29.75c0-11.947-9.717-21.664-21.664-21.664z"/></g><path fill="#FFF" d="M297.015 600.224l-5.574 5.592-5.592-5.574a4.737 4.737 0 0 0-6.69 6.708l5.591 5.574-5.574 5.592a4.738 4.738 0 0 0 6.709 6.69l5.574-5.591 5.592 5.574a4.737 4.737 0 0 0 6.69-6.708l-5.592-5.574 5.575-5.592a4.738 4.738 0 0 0-6.709-6.691m633.572-191.608l-4.31 4.323-4.323-4.31a3.663 3.663 0 0 0-5.174 5.187l4.324 4.31-4.31 4.324a3.662 3.662 0 1 0 5.187 5.173l4.31-4.323 4.324 4.31a3.662 3.662 0 1 0 5.173-5.188l-4.323-4.31 4.31-4.323a3.663 3.663 0 1 0-5.188-5.173M615.933 324.34a6.377 6.377 0 0 1-6.22-5.003c-16.837-76.142-60.493-149.392-129.765-217.712a6.374 6.374 0 1 1 8.953-9.078C559.951 162.622 604.79 238 622.164 316.586a6.375 6.375 0 0 1-4.85 7.6 6.406 6.406 0 0 1-1.381.154zm-56.187-27.38a6.385 6.385 0 0 1-6.146-4.704c-9.05-33.226-33.877-74.992-48.32-92.367-2.253-2.705-1.879-6.723.826-8.976 2.706-2.264 6.724-1.879 8.976.827 14.607 17.572 40.861 60.606 50.821 97.166a6.381 6.381 0 0 1-6.157 8.053z"/><path fill="#0828CC" d="M418.476 749.057H302.18a5.192 5.192 0 0 0-5.19 5.19 5.193 5.193 0 0 0 5.19 5.189h116.295a5.192 5.192 0 0 0 5.189-5.19 5.192 5.192 0 0 0-5.19-5.19zm539.981 0H781.47a5.192 5.192 0 0 0-5.19 5.19 5.192 5.192 0 0 0 5.19 5.189h176.987a5.193 5.193 0 0 0 5.19-5.19 5.192 5.192 0 0 0-5.19-5.19z"/><path fill="#FFF" d="M765.168 378.454c0 15.874-74.853 25.714-167.285 25.714s-162.547-9.518-162.547-25.392 71.477-25.67 163.91-25.67 165.922 9.474 165.922 25.348z" opacity=".6"/><path fill="#0828CC" d="M799.897 378.777c0-30.718-86.837-45.603-161.202-49.015-3.447-.283-6.503 2.557-6.66 6.072a6.369 6.369 0 0 0 6.071 6.661c97.177 4.462 148.96 23.908 149.04 36.253l-.006.117c-.28 15.148-73.411 37.073-187.897 37.073s-187.611-21.924-187.89-37.072l-.007-.134c.144-15.149 73.305-37.114 187.897-37.114a6.371 6.371 0 0 0 6.372-6.373 6.371 6.371 0 0 0-6.372-6.372c-99.713 0-200.649 17.143-200.649 49.904 0 .072.02.14.02.21.001.034-.016.063-.014.096l19.298 405.05c0 32.763 91.225 49.9 181.345 49.9s181.35-17.137 181.345-49.595l19.305-405.355c0-.033-.016-.062-.015-.096 0-.07.02-.138.02-.21zM767.85 784.133c0 15.513-64.144 37.154-168.606 37.154-104.456 0-168.6-21.641-168.605-37.459l-18.366-385.652c30.851 20.095 109.275 30.507 186.971 30.507 77.697 0 156.125-10.412 186.978-30.508L767.85 784.133z"/><path fill="#0828CC" d="M297.015 600.224l-5.574 5.592-5.592-5.574a4.737 4.737 0 0 0-6.69 6.708l5.591 5.574-5.574 5.592a4.738 4.738 0 0 0 6.709 6.69l5.574-5.591 5.592 5.574a4.737 4.737 0 0 0 6.69-6.708l-5.592-5.574 5.575-5.592a4.738 4.738 0 0 0-6.709-6.691m633.572-191.608l-4.31 4.323-4.323-4.31a3.663 3.663 0 0 0-5.174 5.187l4.324 4.31-4.31 4.324a3.662 3.662 0 1 0 5.187 5.173l4.31-4.323 4.324 4.31a3.662 3.662 0 1 0 5.173-5.188l-4.323-4.31 4.31-4.323a3.663 3.663 0 1 0-5.188-5.173m-165.419-30.162c0 15.874-74.853 25.714-167.285 25.714s-162.547-9.518-162.547-25.392 71.477-25.67 163.91-25.67 165.922 9.474 165.922 25.348z" opacity=".6"/><path fill="#0828CC" d="M994.713 647.839c30.71 41.219 54.61 77.874 50.867 80.872-5.038 4.035-54.472-49.537-104.656-112.186-50.186-62.649-90.57-121.205-85.533-125.24 3.746-3 33.255 27.009 66.838 66.056l72.484 90.498z" opacity=".1"/><path opacity=".6" fill="#0828CC" d="M615.933 324.34a6.377 6.377 0 0 1-6.22-5.003c-16.837-76.142-60.493-149.392-129.765-217.712a6.374 6.374 0 1 1 8.953-9.078C559.951 162.622 604.79 238 622.164 316.586a6.375 6.375 0 0 1-4.85 7.6 6.406 6.406 0 0 1-1.381.154zm-56.187-27.38a6.385 6.385 0 0 1-6.146-4.704c-9.05-33.226-33.877-74.992-48.32-92.367-2.253-2.705-1.879-6.723.826-8.976 2.706-2.264 6.724-1.879 8.976.827 14.607 17.572 40.861 60.606 50.821 97.166a6.381 6.381 0 0 1-6.157 8.053z"/><g opacity=".6" fill="#0828CC"><path d="M439.93 130.884a6.371 6.371 0 0 0-6.371 6.372v77.336c0 .564-.067 1.11-.167 1.645l-89.232-94.066 62.9-66.309a6.37 6.37 0 0 0-.237-9.01c-2.552-2.421-6.588-2.325-9.01.238L294.58 155.916a8.112 8.112 0 0 1-5.897 2.552c-2.078.074-4.358-.872-5.926-2.49L151.847 20.933c.338-.038.668-.102 1.015-.102h83.352a6.372 6.372 0 0 0 6.373-6.373 6.371 6.371 0 0 0-6.373-6.372h-83.352c-11.946 0-21.664 9.717-21.664 21.664v184.842c0 5.823 2.337 11.094 6.09 14.99.324.955.799 1.865 1.584 2.605a6.342 6.342 0 0 0 4.37 1.732c.01 0 .02-.006.03-.006 2.904 1.447 6.13 2.338 9.59 2.338H424.64c3.577 0 6.903-.955 9.88-2.496.276.037.538.164.816.164a6.347 6.347 0 0 0 4.386-1.749 6.334 6.334 0 0 0 1.97-4.377c2.847-3.667 4.612-8.21 4.612-13.2v-77.337a6.371 6.371 0 0 0-6.372-6.372zm-151.298 40.334h.124c5.756-.033 11.11-2.354 15.071-6.53l31.548-33.257 87.343 92.075H155.804l46.176-49.022a6.375 6.375 0 0 0-.271-9.01c-2.553-2.411-6.588-2.298-9.01.272l-48.357 51.337c-.234-.796-.399-1.62-.399-2.49V31.1l89.512 92.338c-.703.34-1.367.79-1.927 1.401l-24.426 26.51a6.366 6.366 0 0 0 .368 9.004 6.331 6.331 0 0 0 4.318 1.686c1.715 0 3.43-.69 4.686-2.055l24.426-26.508c.4-.433.623-.95.88-1.45l31.82 32.826c3.984 4.108 9.321 6.366 15.032 6.366z"/><path d="M424.639 8.086H258.28a6.371 6.371 0 0 0-6.372 6.372 6.372 6.372 0 0 0 6.372 6.373h30.43c.021 0 .038.01.058.01s.04-.01.06-.01h135.81c4.919 0 8.92 4.001 8.92 8.919v75.944c0 3.52 2.852 6.372 6.373 6.372s6.372-2.852 6.372-6.372V29.75c0-11.947-9.717-21.664-21.664-21.664z"/></g></svg>