<svg xmlns="http://www.w3.org/2000/svg" viewBox="0 0 12 12"><g fill="#19171C"><path d="M10.246 1.757C9.112.624 7.606 0 6.003 0S2.893.624 1.76 1.757C.627 2.891.003 4.397.003 6s.624 3.11 1.757 4.242C2.893 11.376 4.4 12 6.003 12s3.11-.624 4.243-1.758a6.007 6.007 0 0 0 0-8.485zm-.707 7.778A4.968 4.968 0 0 1 6.003 11c-1.336 0-2.591-.52-3.535-1.465S1.003 7.335 1.003 6s.52-2.591 1.465-3.536S4.668 1 6.003 1a4.97 4.97 0 0 1 3.536 1.464 5.006 5.006 0 0 1 0 7.071z"/><path d="M7.982 4.02a.5.5 0 0 0-.707 0L6.003 5.294 4.73 4.02a.5.5 0 1 0-.707.707L5.296 6 4.024 7.27a.5.5 0 1 0 .707.708l1.272-1.273L7.275 7.98a.498.498 0 0 0 .707 0 .5.5 0 0 0 0-.708L6.71 6l1.272-1.272a.5.5 0 0 0 0-.707z"/></g><circle fill="none" stroke="#010101" stroke-miterlimit="10" cx="743.952" cy="424.231" r="6.5"/><path fill="none" stroke="#19171C" stroke-linecap="round" stroke-linejoin="round" stroke-miterlimit="10" d="M743.952 421.514v5.434m2.717-2.717h-5.434"/></svg>