<svg id="Layer_1" xmlns="http://www.w3.org/2000/svg" viewBox="0 0 14 14"><style>.st42{fill:#fc7d04}.st43{fill:#cb6808}.st44{fill:#cb6b0f}</style><path class="st42" d="M8.665 6.092c.85.175 1.646.484 2.36.984.151.107.321.19.448.33-.004.047.026.071.061.095.16.112.297.25.438.385.362.344.635.754.884 1.18.225.385.395.797.526 1.225.065.214.052.258-.162.312-.589.147-1.179.29-1.757.472-.073.023-.116.014-.136-.075-.017-.073-.032-.162-.128-.187-.17-.355-.322-.719-.56-1.038-.088-.118-.212-.208-.276-.345-.008-.048.015-.101-.043-.138-.239-.147-.417-.382-.686-.485-.193-.074-.36-.219-.582-.216l-.008-.066c-.005-.046-.013-.085-.066-.033-.553-.249-1.137-.299-1.734-.281-.334.01-.653.09-.975.172-.44.11-.824.331-1.194.58-.266.18-.48.416-.696.646-.466.494-.764 1.087-.939 1.737a4.08 4.08 0 0 0-.07 1.676c.021.142-.027.18-.14.21-.645.182-1.304.308-1.944.508-.035-.013-.059-.039-.059-.077.002-.174-.062-.339-.07-.51-.028-.558-.048-1.112.042-1.67a6.45 6.45 0 0 1 .669-2.048c.21-.396.47-.758.732-1.12.16-.084.248-.243.368-.368.151-.158.34-.278.464-.462.047-.032.096-.06.141-.095.294-.228.6-.438.933-.606.004.004.007.01.012.012s.015 0 .016-.003c.04-.098.138-.104.218-.14l.504-.23c-.152-.048-.295-.013-.437-.016-.3-.006-.595.018-.9-.08-.206-.065-.449-.063-.668-.126-.167-.048-.345-.078-.483-.196-.056-.047-.115-.046-.179-.043-.052.007-.083-.033-.12-.058-.306-.2-.62-.385-.9-.626A4.69 4.69 0 0 1 .385 3.702c-.097-.204-.153-.427-.28-.618v-.173c.19-.081.393-.118.592-.17.32-.082.635-.193.963-.248.118-.011.141.085.169.162.104.286.25.55.422.8.099.144.194.3.324.413.155.135.335.243.499.372.106.084.205.203.365.196l.065-.001c.022.017.042.04.066.05.67.269 1.353.278 2.043.099.165-.043.325-.1.455-.218-.001-.034.022-.04.048-.056.246-.146.514-.26.724-.462.055.04.086.006.127-.031.113-.102.192-.229.275-.353.034-.01.062-.024.054-.067.112-.11.179-.252.258-.385.216-.363.354-.75.38-1.176.05-.298.032-.597-.004-.894-.014-.121.017-.17.141-.2.429-.102.854-.219 1.28-.33.19-.03.273.044.296.244.042.382.058.76.032 1.147a4.54 4.54 0 0 1-.226 1.135 5.122 5.122 0 0 1-.87 1.58 5.07 5.07 0 0 1-1.62 1.329c-.11.058-.22.12-.33.18.42-.044.832-.038 1.244-.029.265.013.522.096.788.094z"/><path class="st42" d="M5.304 0c.16.096.352.087.52.168.217.105.4.256.6.385a.136.136 0 0 1-.008.023l.034.047-.002-.002.037.036-.001-.004.037.037.007-.007c-.007.021-.025.057-.02.062.157.123.238.287.31.47.297.754.17 1.454-.319 2.065-.548.685-1.448 1.001-2.388.616-.036-.015-.08-.01-.12-.015-.159-.065-.28-.188-.426-.275-.009-.057-.06-.082-.095-.118a2.112 2.112 0 0 1-.49-.87c-.095-.32-.082-.635-.037-.955.132-.6.474-1.049.99-1.37.22-.137.479-.185.712-.293h.659z"/><path class="st43" d="M1.769 14c-.136-.133-.34-.14-.483-.26.64-.2 1.299-.326 1.943-.507.114-.032.162-.069.14-.21a4.08 4.08 0 0 1 .071-1.677c.175-.65.473-1.243.939-1.737.217-.23.43-.467.696-.645.37-.25.754-.47 1.194-.581.322-.081.64-.162.975-.172.597-.018 1.181.032 1.734.281.014.026.04.032.066.033l.008.066c-.029 0-.06.006-.086-.001a3.423 3.423 0 0 0-.944-.133c-.057 0-.133-.03-.154.063-1.242.067-2.255.59-3.061 1.53-.098.066-.2.128-.2.268l-.005.006c-.058.007-.062.051-.065.096l-.003.008c-.063.009-.063.056-.063.104l-.002.001a.854.854 0 0 0-.276.549l-.002.036a2.158 2.158 0 0 0-.203.666 3.27 3.27 0 0 0-.056 1.472c.032.177-.026.217-.17.254-.434.113-.875.202-1.3.352-.048.005-.1-.01-.14.032-.11.018-.228.01-.31.106h-.243zm6.108-8.002a9.654 9.654 0 0 0-1.243.03c.11-.06.219-.123.33-.181a5.058 5.058 0 0 0 1.618-1.329c.383-.48.679-1.004.87-1.58a4.51 4.51 0 0 0 .227-1.135c.026-.387.01-.765-.032-1.147-.023-.2-.106-.273-.296-.244.145-.097.279-.085.402.04.008.007.016.017.026.021.34.158.381.471.41.79.127 1.374-.265 2.59-1.117 3.665-.221.279-.49.514-.755.752-.022 0-.036.01-.041.032V5.71l-.399.288z"/><path class="st44" d="M11.199 10.813c.096.025.111.114.128.187.02.09.063.098.136.075.578-.183 1.168-.325 1.757-.472.214-.054.227-.098.162-.312a5.702 5.702 0 0 0-.526-1.225c-.249-.426-.522-.836-.884-1.18-.141-.135-.277-.273-.438-.385-.035-.024-.065-.048-.061-.095.32.156.562.414.834.633.078.106.173.194.274.277.31.37.594.758.83 1.18-.005.048.018.088.041.128.191.337.317.7.428 1.07.033.112.014.162-.106.198-.225.067-.463.086-.676.196l-.016-.003-.015.007a1.386 1.386 0 0 0-.494.132c-.23.027-.448.104-.669.164-.086.023-.153.02-.226-.027a3.603 3.603 0 0 0-.267-.158c-.13-.07-.182-.184-.198-.322.002-.005.007-.01.006-.013l-.014-.023a.037.037 0 0 1-.006-.032zM7.868 8.52c.021-.094.097-.063.154-.063a3.39 3.39 0 0 1 .944.133c.027.007.057 0 .086 0 .221-.002.389.143.582.217.269.103.447.338.686.485.058.037.035.09.043.138-.136-.068-.217-.2-.332-.29-.399-.315-.865-.464-1.356-.554a4.738 4.738 0 0 0-.807-.066zm-3.675 2.562a.854.854 0 0 1 .276-.549l-.276.549zm.414-.764c0-.14.102-.202.2-.269a.807.807 0 0 1-.2.269zm-.137.214c0-.048 0-.095.064-.104-.002.046-.012.088-.063.104zm.067-.112c.003-.045.007-.089.065-.096 0 .046-.03.073-.065.096z"/><path class="st42" d="M11.205 10.845l.014.023c0 .003-.004.008-.006.013a21.914 21.914 0 0 0-.008-.036z"/><path d="M8.276 5.712c.005-.023.02-.032.041-.032l-.041.032z" fill="#f5ecd6"/><path class="st43" d="M6.528.683c.377.186.63.492.795.866.255.576.215 1.154-.039 1.723-.022.05-.073.094-.041.159v-.002c-.032-.01-.042.004-.035.035h.001c-.03-.007-.039.018-.05.037-.131.093-.183.259-.319.347-.21.203-.478.316-.724.462-.026.015-.05.022-.048.056-.166-.015-.322.033-.48.073a2.22 2.22 0 0 1-1.596-.558c.04.004.083 0 .119.015.94.385 1.84.069 2.388-.616.489-.611.616-1.31.32-2.064-.073-.184-.154-.348-.31-.471-.006-.005.012-.04.019-.062z"/><path class="st44" d="M1.66 2.493c.079-.059.152-.03.223.016.136.087.27.177.407.262.054.034.075.082.092.139a3.09 3.09 0 0 0 .88 1.399c.054.05.146.045.177.127-.16.007-.26-.112-.365-.196-.164-.13-.344-.237-.5-.372-.129-.114-.224-.27-.323-.414a3.585 3.585 0 0 1-.422-.8c-.028-.076-.051-.172-.17-.161zm2.846 4.291c-.076-.142-.227-.099-.343-.129-.563-.146-1.099-.348-1.573-.693.063-.003.122-.004.178.043.138.118.316.148.483.196.22.063.462.06.669.127.304.097.6.073.899.08.142.002.285-.033.437.014l-.504.23c-.08.037-.178.043-.218.141-.001.003-.011.005-.016.003-.005-.001-.008-.008-.012-.012zm4.538 1.741c-.027-.001-.052-.007-.066-.033.053-.052.061-.013.066.033z"/><path d="M7.243 3.43c.018-.01.035-.022.053-.033.008.043-.02.057-.054.067v-.001a.172.172 0 0 0 .002-.034l-.001.002z" fill="#a9a9a9"/></svg>