<svg xmlns="http://www.w3.org/2000/svg" viewBox="0 0 14 14"><path d="M3.373 7.993V.701a.6.6 0 0 0-1.199 0v7.292c-.688.248-1.185.9-1.185 1.673s.497 1.426 1.185 1.674v1.979a.6.6 0 0 0 1.2 0v-1.98c.688-.247 1.184-.9 1.184-1.673s-.496-1.425-1.185-1.673zm-.6 2.258a.586.586 0 0 1 0-1.17.586.586 0 0 1 0 1.17zm10.174-.585a1.78 1.78 0 0 0-1.185-1.673V.701a.6.6 0 0 0-1.2 0v7.292c-.688.248-1.184.9-1.184 1.673s.496 1.426 1.185 1.674v1.979a.6.6 0 0 0 1.199 0v-1.98a1.78 1.78 0 0 0 1.185-1.673zm-1.785.585a.586.586 0 0 1 0-1.17.586.586 0 0 1 0 1.17zM7.461 4.142V.7a.6.6 0 0 0-1.199 0v3.44c-.689.248-1.185.902-1.185 1.675s.496 1.426 1.185 1.673v5.83a.6.6 0 0 0 1.2 0v-5.83c.688-.247 1.184-.9 1.184-1.673S8.15 4.389 7.46 4.142zm-.6 2.259a.586.586 0 0 1-.002-1.17h.005a.586.586 0 0 1-.002 1.17z"/></svg>