<svg xmlns="http://www.w3.org/2000/svg" viewBox="0 0 14 14"><path d="M7.05 4.356H2.406C1.128 4.356.104 5.341.073 6.6l-.009 4.716c0 .039.002.067.008.087a2.338 2.338 0 0 0 2.334 2.21H7.05a2.31 2.31 0 0 0 2.333-2.25l.009-4.713a.328.328 0 0 0-.008-.086A2.34 2.34 0 0 0 7.05 4.356zm-5.79 2.31c.016-.628.52-1.12 1.146-1.12H7.05c.633 0 1.127.497 1.15 1.157l-.003 4.595a1.147 1.147 0 0 1-1.147 1.12H2.406c-.635 0-1.13-.496-1.151-1.153L1.25 6.747l.008-.08z"/><path d="M13.927 2.583A2.342 2.342 0 0 0 11.593.389H6.95c-1.277 0-2.303.987-2.334 2.244l-.008.097c0 .326.256.572.595.572a.59.59 0 0 0 .5-.29.592.592 0 0 0 .1-.312A1.144 1.144 0 0 1 6.95 1.579h4.643c.635 0 1.13.498 1.151 1.156l-.004 4.597a1.144 1.144 0 0 1-1.147 1.12h-.597a.596.596 0 0 0 0 1.192h.597c1.257 0 2.303-1.003 2.33-2.238l.013-4.723a.559.559 0 0 0-.01-.1zm-.901 4.726z"/></svg>