<svg xmlns="http://www.w3.org/2000/svg" viewBox="0 0 75 48"><path fill="#55B949" d="M35.746 35.292l-6.492-.604L40.266 6.34l19.968 25.386-24.488 3.566zm-4.373-1.914l4.334.404 21.745-3.166-16.74-21.282-9.34 24.044z"/><path fill-rule="evenodd" clip-rule="evenodd" fill="#D8EBD5" d="M45.423 3.24c1.316 2.51.835 5.696-1.422 7.335-2.256 1.64-5.434 1.112-7.099-1.178-1.664-2.291-1.183-5.476 1.073-7.116 2.257-1.64 5.768-1.354 7.448.959z"/><path fill="#55B949" d="M41.068 12.276a5.896 5.896 0 0 1-4.773-2.438 5.877 5.877 0 0 1-1.068-4.355 5.725 5.725 0 0 1 2.308-3.809C38.78.768 40.405.352 42 .534c1.675.19 3.106.994 4.03 2.265l.057.093c1.536 2.929.829 6.493-1.645 8.29a5.723 5.723 0 0 1-3.374 1.094zm.193-10.284c-1.032 0-2.044.315-2.844.896a4.237 4.237 0 0 0-1.707 2.818 4.385 4.385 0 0 0 .8 3.25c1.418 1.952 4.132 2.406 6.05 1.013 1.863-1.353 2.384-4.067 1.224-6.331-.674-.902-1.721-1.474-2.953-1.614a5.058 5.058 0 0 0-.57-.032z"/><path fill-rule="evenodd" clip-rule="evenodd" fill="#FFF" d="M40.622 26.61c4.072 6.013 2.897 13.805-2.622 17.814s-13.292 2.72-17.362-2.882c-4.067-5.597-2.891-13.388 2.627-17.398 5.519-4.01 13.486-2.86 17.357 2.467z"/><path fill="#55B949" d="M30.835 47.508c-.724 0-1.453-.06-2.182-.18-3.475-.577-6.537-2.476-8.622-5.345-4.304-5.925-3.051-14.199 2.794-18.446 5.85-4.251 14.278-3.045 18.404 2.633l.014.02c4.278 6.316 3.047 14.592-2.802 18.841a12.885 12.885 0 0 1-7.606 2.477zm-.095-25.023c-2.448 0-4.927.736-7.033 2.266-5.176 3.76-6.28 11.095-2.462 16.35a11.803 11.803 0 0 0 7.653 4.747c3.081.512 6.156-.21 8.661-2.03 5.188-3.77 6.262-11.136 2.449-16.777-2.17-2.977-5.684-4.556-9.268-4.556z"/><path fill-rule="evenodd" clip-rule="evenodd" fill="#F1F7EF" d="M61.944 28.9c1.729 2.377 1.248 5.563-1.008 7.203-2.257 1.64-5.435 1.112-7.098-1.177-1.664-2.29-1.184-5.476 1.073-7.116 2.256-1.64 5.434-1.111 7.033 1.09z"/><path fill="#55B949" d="M58.001 37.804a5.894 5.894 0 0 1-4.77-2.437 5.876 5.876 0 0 1-1.068-4.355 5.724 5.724 0 0 1 2.307-3.809c2.588-1.878 6.212-1.315 8.081 1.256.948 1.304 1.348 2.876 1.126 4.426a5.687 5.687 0 0 1-2.3 3.825A5.722 5.722 0 0 1 58 37.804zm-.138-10.192a4.234 4.234 0 0 0-4.217 3.624 4.384 4.384 0 0 0 .799 3.25c1.418 1.95 4.133 2.404 6.05 1.01a4.196 4.196 0 0 0 1.697-2.824c.166-1.161-.137-2.344-.854-3.33-.82-1.128-2.141-1.73-3.475-1.73zM19.216 7.336l-1.794.003-.003-1.838a.54.54 0 0 0-1.08.002l.002 1.838-1.792.002a.54.54 0 0 0 .001 1.082l1.793-.003.003 1.837a.54.54 0 0 0 1.08-.002l-.002-1.837 1.793-.002a.541.541 0 0 0-.001-1.082zm-8.411-3.144l-.9.002-.002-.902a.54.54 0 0 0-1.082.002l.002.901-.901.002a.54.54 0 0 0 .001 1.081l.901-.001.002.9a.54.54 0 0 0 1.081 0l-.001-.902.901-.001a.54.54 0 0 0-.002-1.082zm19.649 23.109h-.036a4.234 4.234 0 0 0-3.003 1.274 4.276 4.276 0 0 0 .02 5.997l.252.253-.324.15a7.368 7.368 0 0 0-4.267 6.801.718.718 0 1 0 1.436.006c-.13-3.147 2.335-5.823 5.494-5.953a5.39 5.39 0 0 1 .495.002c.068-.003.136-.004.205-.004 3.02 0 5.546 2.417 5.655 5.479.006.153.005.307-.002.461.002.393.334.696.752.705a.679.679 0 0 0 .684-.644v-.066a7.348 7.348 0 0 0-4.249-6.81l-.322-.148.249-.253a4.235 4.235 0 0 0 1.222-3.024 4.234 4.234 0 0 0-1.274-3.003 4.235 4.235 0 0 0-2.987-1.223zm36.623-16.283l-1.794.003-.002-1.838a.54.54 0 0 0-1.082.002l.003 1.837-1.792.003a.54.54 0 0 0 .001 1.081l1.793-.002.003 1.837a.54.54 0 0 0 1.081-.002l-.003-1.837 1.793-.003a.54.54 0 0 0-.001-1.081z"/><path fill="#FFF" d="M30.455 34.393h-.001a2.83 2.83 0 0 1-2.826-2.827 2.835 2.835 0 0 1 2.827-2.827 2.81 2.81 0 0 1 2 .829c.533.534.827 1.244.826 1.999a2.81 2.81 0 0 1-.828 1.999 2.809 2.809 0 0 1-1.998.827z"/></svg>