<svg xmlns="http://www.w3.org/2000/svg" viewBox="0 0 75 48"><path fill="#55B949" d="M11.191 11.787l-1.74.003-.002-1.783a.525.525 0 0 0-1.05.001l.003 1.783-1.74.003a.525.525 0 0 0 .002 1.05l1.74-.003.003 1.782a.525.525 0 0 0 1.049-.001l-.003-1.783 1.74-.003a.525.525 0 0 0-.002-1.049zM3.322 9.045l-.874.001-.002-.874a.525.525 0 0 0-1.049.001l.001.875-.874.001a.525.525 0 0 0 .001 1.05l.875-.002.001.875a.525.525 0 0 0 1.05-.002l-.002-.874.875-.002a.525.525 0 0 0-.002-1.05zm71.152 33.407l-1.74.003-.002-1.783a.525.525 0 0 0-1.05.001l.003 1.783-1.74.003a.525.525 0 0 0 .003 1.05l1.739-.003.003 1.782a.525.525 0 0 0 1.049-.001l-.003-1.783 1.74-.003a.525.525 0 0 0-.002-1.05z"/><path fill-rule="evenodd" clip-rule="evenodd" fill="#E9F4E7" d="M22.665 17.203c0-.386.31-.7.701-.7h38.473c.387 0 .7.319.7.7v10.493c0 .387-.309.7-.7.7H23.366a.703.703 0 0 1-.7-.7V17.203z"/><path fill="#ADEDA6" d="M30.992 10.843h.7v24.484h-.7z"/><circle fill-rule="evenodd" clip-rule="evenodd" fill="#55B949" cx="31.341" cy="11.543" r="1.749"/><circle fill-rule="evenodd" clip-rule="evenodd" fill="#55B949" cx="31.341" cy="22.45" r="1.749"/><circle fill-rule="evenodd" clip-rule="evenodd" fill="#55B949" cx="31.341" cy="34.628" r="1.749"/><path clip-rule="evenodd" fill="none" d="M37.133 36.822c-.3 0-.545-.275-.545-.614s.245-.614.545-.614h6.614c.301 0 .546.275.546.614s-.245.614-.546.614h-6.614zm0-3.065c-.3 0-.545-.275-.545-.614 0-.34.245-.614.545-.614h19.359c.3 0 .545.275.545.614 0 .339-.245.614-.545.614H37.133z"/><path fill="#ABDCA5" d="M37.133 36.822c-.3 0-.545-.275-.545-.614 0-.34.245-.614.545-.614h6.614c.301 0 .546.275.546.614 0 .339-.245.614-.546.614h-6.614zm0-3.065c-.3 0-.545-.275-.545-.614 0-.34.245-.614.545-.614h19.359c.3 0 .545.275.545.614 0 .339-.245.614-.545.614H37.133zm0-9.161c-.3 0-.545-.275-.545-.614 0-.34.245-.614.545-.614h6.614c.301 0 .546.275.546.614 0 .339-.245.614-.546.614h-6.614zm0-3.065c-.3 0-.545-.275-.545-.614 0-.34.245-.614.545-.614h19.359c.3 0 .545.275.545.614 0 .339-.245.614-.545.614H37.133zm0-7.223c-.3 0-.545-.276-.545-.615s.245-.614.545-.614h6.614c.301 0 .546.275.546.614s-.245.615-.546.615h-6.614zm0-3.065c-.3 0-.545-.276-.545-.615 0-.339.245-.614.545-.614h19.359c.3 0 .545.275.545.614 0 .34-.245.615-.545.615H37.133z"/><path fill="#55B949" d="M60.104 3.587c.774 0 1.404.63 1.404 1.404v34.772c0 .774-.63 1.404-1.404 1.404H25.019c-.774 0-1.404-.63-1.404-1.404V4.991c0-.774.63-1.404 1.404-1.404h35.085m0-1.4H25.019a2.803 2.803 0 0 0-2.804 2.804v34.772a2.804 2.804 0 0 0 2.804 2.804h35.085a2.804 2.804 0 0 0 2.803-2.804V4.991a2.804 2.804 0 0 0-2.803-2.803z"/></svg>