<svg xmlns="http://www.w3.org/2000/svg" viewBox="0 0 200 200"><path fill="#FFE300" d="M142.17 73.544v86.298h.009c.14 8.026 4.763 14.484 10.46 14.484 5.698 0 10.321-6.448 10.461-14.484h.028V73.544H142.17zm-26.012 31.846H48.463V65.087h67.695v40.303zm-.028 23.83H48.248v-10.57h67.891v10.57h-.009zm0 21.123H48.248V139.78h67.891v10.562h-.009zm21.314 22.07c-5.361-5.683-5.436-13.92-5.436-14.025V48.604h-99.59v107.402a19.27 19.27 0 0 0-.029 2.2c.112 2.708.804 7.28 3.932 10.839 2.7 3.07 6.706 4.821 11.927 5.242l.271.029h91.035c-1.382-1.167-2.11-1.904-2.11-1.904z"/><path fill-rule="evenodd" clip-rule="evenodd" fill="#FF8500" d="M185.934 177.69h-5.04c-.906 0-1.67.77-1.67 1.718 0 .956.747 1.719 1.67 1.719h5.04v5.163c0 .927.751 1.71 1.678 1.71.933 0 1.678-.766 1.678-1.71v-5.163h5.04c.906 0 1.67-.77 1.67-1.719 0-.955-.748-1.718-1.67-1.718h-5.04v-5.163c0-.927-.752-1.71-1.678-1.71-.933 0-1.678.765-1.678 1.71v5.163zM73.48 21.85c-.376.476-2.377-.545-4.47-2.28-2.092-1.735-3.482-3.528-3.106-4.004.377-.476 2.378.544 4.47 2.28 2.092 1.735 3.483 3.528 3.106 4.004zm-.398 1.836c.135.597-1.883 1.584-4.506 2.204-2.623.62-4.858.639-4.993.042-.134-.597 1.883-1.584 4.506-2.204 2.623-.62 4.859-.64 4.993-.042zm1.197 1.528c.537.269.017 2.496-1.163 4.974s-2.573 4.27-3.11 4c-.538-.268-.018-2.495 1.162-4.973 1.18-2.478 2.573-4.27 3.11-4zm1.836 0c.538-.268 1.93 1.523 3.11 4.001 1.18 2.478 1.701 4.705 1.164 4.974-.538.268-1.93-1.523-3.11-4.001-1.18-2.478-1.702-4.705-1.164-4.974zm1.197-1.528c.134-.597 2.37-.578 4.993.042s4.64 1.607 4.506 2.204c-.135.597-2.37.578-4.994-.042-2.623-.62-4.64-1.607-4.505-2.204zm-.399-1.836c-.376-.476 1.015-2.27 3.107-4.004 2.092-1.736 4.093-2.756 4.47-2.28.376.476-1.015 2.269-3.107 4.004-2.092 1.735-4.093 2.756-4.47 2.28zm-1.716-.865c-.598 0-1.083-2.235-1.083-4.992 0-2.758.485-4.993 1.083-4.993s1.083 2.235 1.083 4.993c0 2.757-.485 4.992-1.083 4.992z"/><path fill="#16D121" d="M142.785 40.187c0-5.58 4.417-10.104 9.865-10.104s9.865 4.524 9.865 10.104-4.417 10.104-9.865 10.104-9.865-4.523-9.865-10.104zm23.675 0c0-7.812-6.183-14.145-13.81-14.145-7.628 0-13.81 6.333-13.81 14.145s6.182 14.146 13.81 14.146c7.627 0 13.81-6.333 13.81-14.146z"/><path fill="#16D1C4" d="M175.883 28.167c0-3.063 2.425-5.547 5.416-5.547 2.991 0 5.416 2.484 5.416 5.547 0 3.064-2.425 5.548-5.416 5.548-2.991 0-5.416-2.484-5.416-5.548zm12.998 0c0-4.289-3.394-7.766-7.582-7.766s-7.582 3.477-7.582 7.766c0 4.29 3.394 7.767 7.582 7.767s7.582-3.478 7.582-7.767z"/><path fill-rule="evenodd" clip-rule="evenodd" fill="#DEA1F8" d="M10.182 109.621a1.098 1.098 0 0 1-.833.72 1.135 1.135 0 0 1-.186 1.1c.161.095.301.232.398.404.1.178.149.372.149.562.183-.034.376-.021.559.047.188.07.347.186.466.332a1.072 1.072 0 0 1 1.024-.385 1.118 1.118 0 0 1 .542-.968 1.108 1.108 0 0 1-.24-.52c-.035-.202-.015-.4.048-.58a1.06 1.06 0 0 1-.51-.24 1.123 1.123 0 0 1-.327-.475c-.16.097-.347.152-.541.152-.2 0-.388-.054-.549-.149zm-.532-1.508v-3.887a1.1 1.1 0 0 1 1.081-1.096c.597 0 1.08.477 1.08 1.096v3.887l2.44-2.977a1.069 1.069 0 0 1 1.516-.13c.457.394.528 1.078.14 1.552l-2.44 2.978 3.737-.675c.582-.105 1.141.315 1.242.9.104.601-.272 1.172-.867 1.28l-3.737.675 3.287 1.943c.512.303.676.993.386 1.507-.298.53-.944.72-1.467.41l-3.286-1.943 1.298 3.652a1.12 1.12 0 0 1-.65 1.409 1.06 1.06 0 0 1-1.381-.652l-1.298-3.652-1.298 3.652a1.08 1.08 0 0 1-1.381.652 1.1 1.1 0 0 1-.65-1.41l1.298-3.651-3.286 1.943c-.512.303-1.178.104-1.467-.41a1.108 1.108 0 0 1 .386-1.507l3.287-1.943-3.737-.675c-.583-.105-.968-.696-.867-1.28.104-.603.647-1.008 1.242-.9l3.737.675-2.44-2.978a1.132 1.132 0 0 1 .14-1.551 1.05 1.05 0 0 1 1.516.129l2.44 2.977z"/><path fill="#4C3A30" d="M68.293 178.367c-10.774 0-18.167-.13-22.33-.393-12.393-.779-16.41-8.107-17.596-14.116l-.073-.746V49.562c0-3.11 2.47-5.64 5.507-5.64h98.036c2.028 0 3.671 1.684 3.671 3.76 0 2.077-1.643 3.76-3.671 3.76h-96.2v111.276c.748 3.413 2.75 7.245 10.776 7.75 7.99.501 29.506.5 63.95-.008 2.057-.112 3.695 1.631 3.725 3.708.029 2.076-1.59 3.784-3.618 3.813-17.484.257-31.493.386-42.177.386z"/><path fill="#4C3A30" d="M147.956 182.333c-10.334 0-18.74-8.612-18.74-19.195V59.536c0-2.076 1.643-3.76 3.67-3.76 2.028 0 3.672 1.684 3.672 3.76v103.602c0 6.437 5.113 11.674 11.398 11.674 6.284 0 11.396-5.237 11.396-11.674V73.715c0-2.077 1.644-3.76 3.672-3.76 2.027 0 3.67 1.683 3.67 3.76v89.423c0 10.583-8.406 19.195-18.738 19.195z"/></svg>