<svg xmlns="http://www.w3.org/2000/svg" viewBox="0 0 75 48"><path fill="#55B949" d="M16.044 40.201l2.216-2.216.03-13.243c0-.972.143-1.92.425-2.82a9.824 9.824 0 0 1 1.204-2.529 9.25 9.25 0 0 1 4.362-3.492l.613-.24-.496-.434a7.108 7.108 0 0 1-1.79-2.391 6.976 6.976 0 0 1-.637-2.936c0-.956.184-1.87.546-2.714a7.277 7.277 0 0 1 1.488-2.239 7.037 7.037 0 0 1 2.208-1.513 6.724 6.724 0 0 1 2.721-.555c.955 0 1.867.187 2.712.555a7.02 7.02 0 0 1 2.217 1.513 7.265 7.265 0 0 1 1.488 2.239c.362.846.547 1.759.547 2.714a6.965 6.965 0 0 1-.639 2.936 7.12 7.12 0 0 1-1.788 2.39l-.494.432.61.242a9.506 9.506 0 0 1 2.46 1.433 9.476 9.476 0 0 1 1.894 2.062 9.652 9.652 0 0 1 1.212 2.526c.282.9.426 1.85.426 2.82v4.232l11.938-12.09h-5.974v-1.668h9.012v9.069h-1.668v-6.415l-17.68 17.899-7.362-5.049-10.629 10.667-1.172-1.185zm11.657-23.28a7.474 7.474 0 0 0-3.023.62 7.953 7.953 0 0 0-2.466 1.686 7.963 7.963 0 0 0-1.664 2.485 7.646 7.646 0 0 0-.61 3.03V36.29l7.714-7.734 7.344 5.05 2.906-2.927.028-5.937a7.646 7.646 0 0 0-.61-3.03 7.963 7.963 0 0 0-1.664-2.485 7.953 7.953 0 0 0-2.466-1.685 7.474 7.474 0 0 0-3.023-.621h-2.466z"/><circle fill-rule="evenodd" clip-rule="evenodd" fill="#E9F4E7" cx="28.877" cy="9.955" r="5.307"/><path fill="#55B949" d="M15.218 6.9l-1.874.004-.003-1.921a.565.565 0 0 0-1.13.002l.002 1.92-1.874.004a.565.565 0 0 0 .002 1.13l1.874-.003.003 1.92a.565.565 0 0 0 1.13-.001l-.003-1.92 1.875-.004a.566.566 0 0 0-.002-1.13zM6.74 3.947l-.942.001-.001-.942a.565.565 0 0 0-1.13.002v.942l-.942.001a.565.565 0 0 0 .002 1.13h.942l.002.941a.565.565 0 0 0 1.13-.001L5.8 5.079l.942-.002a.565.565 0 0 0-.002-1.13zm64.533 37.991l-1.875.003-.003-1.92a.565.565 0 0 0-1.13 0l.003 1.922-1.874.003a.565.565 0 0 0 .002 1.13l1.874-.003.002 1.92a.565.565 0 0 0 1.13 0l-.002-1.921 1.875-.003a.565.565 0 0 0-.002-1.13z"/><path fill="#ABDCA5" d="M40.764 35.853l1.75-1.75 7.74-7.576 5.752 3.726 3.853-3.839 8.646-8.757h-4.531v-1.536h7.303v7.348H69.74v-4.873L55.985 32.521l-5.781-3.965-8.36 8.39z"/></svg>