<svg xmlns="http://www.w3.org/2000/svg" viewBox="0 0 14 14"><path d="M13.73 6.715L7.29.555A.406.406 0 0 0 7 .42c-.146 0-.236.084-.297.141L.262 6.722c-.147.14-.218.299-.211.469 0 .247.149.464.38.555.229.093.478.04.676-.149L1.7 7.03v6.55h4.526V9.995h1.547v3.16l.014.373v.05h4.508V7.024l.575.55c.041.038.089.081.139.114.19.132.427.142.634.022a.6.6 0 0 0 .307-.515.636.636 0 0 0-.22-.48zM5.013 9.207v3.163H2.917l-.001-6.503L7 1.957l4.08 3.906v6.507H8.986V9.204c0-.274-.143-.42-.416-.42H5.433c-.274 0-.419.147-.419.423z"/></svg>