<svg xmlns="http://www.w3.org/2000/svg" viewBox="0 0 200 200"><circle fill-rule="evenodd" clip-rule="evenodd" fill="#FFD400" cx="74.28" cy="66.763" r="21.038"/><circle fill-rule="evenodd" clip-rule="evenodd" fill="#FFCB00" cx="94.036" cy="118.577" r="14.747"/><circle fill-rule="evenodd" clip-rule="evenodd" fill="#E7B200" cx="143.649" cy="88.046" r="12.266"/><circle fill-rule="evenodd" clip-rule="evenodd" fill="#FFCB00" cx="121.609" cy="150.158" r="12.266"/><circle fill-rule="evenodd" clip-rule="evenodd" fill="#FFCB00" cx="47.476" cy="150.158" r="12.266"/><path fill-rule="evenodd" clip-rule="evenodd" fill="#FF8500" d="M160.747 135.198h-5.502c-.988 0-1.822.82-1.822 1.831 0 1.018.816 1.831 1.822 1.831h5.502v5.502c0 .988.82 1.823 1.831 1.823a1.822 1.822 0 0 0 1.831-1.823v-5.502h5.502a1.84 1.84 0 0 0 1.823-1.83 1.822 1.822 0 0 0-1.823-1.832h-5.502v-5.502a1.84 1.84 0 0 0-1.83-1.823 1.822 1.822 0 0 0-1.832 1.823v5.502zM58.04 15.211c-.41.508-2.595-.58-4.878-2.43s-3.802-3.759-3.39-4.266c.41-.508 2.594.58 4.878 2.43s3.801 3.759 3.39 4.266zm-.434 1.957c.147.636-2.055 1.688-4.918 2.349-2.863.66-5.303.68-5.45.044-.147-.636 2.055-1.687 4.918-2.348 2.863-.661 5.303-.681 5.45-.045zm1.306 1.629c.587.286.018 2.659-1.27 5.3-1.288 2.64-2.808 4.55-3.395 4.263-.586-.286-.018-2.659 1.27-5.3 1.288-2.64 2.808-4.55 3.395-4.263zm2.004 0c.587-.287 2.107 1.622 3.395 4.263 1.288 2.641 1.857 5.014 1.27 5.3s-2.107-1.622-3.395-4.263c-1.288-2.641-1.857-5.014-1.27-5.3zm1.306-1.63c.147-.635 2.587-.615 5.45.046 2.863.66 5.065 1.712 4.918 2.348-.147.637-2.587.617-5.45-.044s-5.065-1.713-4.918-2.35zm-.434-1.956c-.411-.507 1.107-2.418 3.39-4.267 2.284-1.849 4.468-2.937 4.88-2.43.41.508-1.108 2.419-3.392 4.268-2.283 1.85-4.467 2.937-4.878 2.43zm-1.874-.921c-.653 0-1.182-2.382-1.182-5.32 0-2.939.53-5.32 1.182-5.32s1.182 2.381 1.182 5.32c0 2.938-.529 5.32-1.182 5.32z"/><path fill="#16D121" d="M133.686 34.752c0-5.946 4.82-10.767 10.767-10.767 5.947 0 10.768 4.82 10.768 10.767S150.4 45.52 144.453 45.52c-5.946 0-10.767-4.82-10.767-10.768zm25.842 0c0-8.325-6.75-15.074-15.075-15.074s-15.074 6.75-15.074 15.074 6.75 15.075 15.074 15.075c8.326 0 15.075-6.75 15.075-15.075z"/><path fill="#16D1C4" d="M169.812 21.943a5.911 5.911 0 1 1 11.823 0 5.911 5.911 0 0 1-11.823 0zm14.188 0a8.276 8.276 0 1 0-16.552 0 8.276 8.276 0 0 0 16.552 0z"/><path fill-rule="evenodd" clip-rule="evenodd" fill="#DEA1F8" d="M31.027 104.737a1.169 1.169 0 0 1-.349.504c-.167.14-.361.228-.56.263a1.196 1.196 0 0 1-.204 1.172 1.19 1.19 0 0 1 .597 1.029 1.18 1.18 0 0 1 1.12.404 1.177 1.177 0 0 1 1.116-.409 1.196 1.196 0 0 1 .592-1.032 1.169 1.169 0 0 1-.261-.554 1.196 1.196 0 0 1 .052-.618 1.17 1.17 0 0 1-.556-.255 1.196 1.196 0 0 1-.358-.507 1.169 1.169 0 0 1-.59.162c-.219 0-.424-.058-.6-.159zm-.58-1.607v-4.142c0-.646.547-1.169 1.179-1.169.651 0 1.18.51 1.18 1.169v4.142l2.662-3.173c.414-.495 1.17-.544 1.654-.137.5.418.577 1.148.153 1.653l-2.663 3.173 4.08-.72a1.187 1.187 0 0 1 1.355.96 1.165 1.165 0 0 1-.946 1.364l-4.08.719 3.588 2.07c.559.323.738 1.059.422 1.606a1.165 1.165 0 0 1-1.602.438l-3.587-2.071 1.417 3.892a1.186 1.186 0 0 1-.709 1.501 1.165 1.165 0 0 1-1.508-.695l-1.416-3.892-1.417 3.892c-.22.607-.913.911-1.508.695a1.165 1.165 0 0 1-.708-1.501l1.416-3.892-3.587 2.07a1.185 1.185 0 0 1-1.601-.437 1.165 1.165 0 0 1 .422-1.605l3.587-2.071-4.079-.72c-.636-.111-1.056-.741-.946-1.364a1.165 1.165 0 0 1 1.356-.958l4.078.719-2.662-3.173c-.415-.494-.332-1.247.153-1.653a1.165 1.165 0 0 1 1.654.137l2.662 3.173z"/><path d="M80.984 132.017c3.38 3.283 7.98 5.315 13.052 5.315a18.63 18.63 0 0 0 8.812-2.209l5.433 5.726a16.17 16.17 0 0 0-2.945 9.309c0 8.973 7.3 16.273 16.273 16.273s16.274-7.3 16.274-16.273c0-8.973-7.3-16.274-16.274-16.274a16.15 16.15 0 0 0-7.249 1.725l-5.412-5.704c2.4-3.151 3.843-7.07 3.843-11.328 0-1.74-.257-3.417-.702-5.017l20.961-13.192a16.186 16.186 0 0 0 10.6 3.951c8.972 0 16.273-7.3 16.273-16.273s-7.3-16.274-16.274-16.274-16.273 7.3-16.273 16.274c0 2.027.389 3.96 1.069 5.751l-20.12 12.663c-3.443-4.054-8.567-6.637-14.289-6.637-.645 0-1.284.033-1.913.097l-4.629-11.921c7.09-4.428 11.83-12.279 11.83-21.236 0-13.81-11.234-25.045-25.044-25.045S49.235 52.953 49.235 66.763a4.007 4.007 0 0 0 8.014 0c0-9.39 7.64-17.03 17.03-17.03s17.031 7.64 17.031 17.03-7.64 17.03-17.03 17.03a4.007 4.007 0 0 0 0 8.015c2.007 0 3.95-.262 5.82-.71l4.41 11.353c-5.513 3.27-9.228 9.265-9.228 16.126 0 2.385.464 4.658 1.28 6.758l-18.647 12.354a16.197 16.197 0 0 0-6.227-3.249 16.16 16.16 0 0 0-12.348 1.624c-7.772 4.487-10.445 14.458-5.958 22.232a4.01 4.01 0 0 0 5.474 1.467 4.01 4.01 0 0 0 1.468-5.475c-2.278-3.944-.922-9.006 3.023-11.282a8.21 8.21 0 0 1 6.267-.825 8.201 8.201 0 0 1 5.013 3.848c2.278 3.943.922 9.005-3.021 11.28a4.009 4.009 0 0 0 4.007 6.943 16.171 16.171 0 0 0 7.582-9.882 16.154 16.154 0 0 0-.595-10.173l18.384-12.18zm62.665-52.23c4.553 0 8.26 3.706 8.26 8.259s-3.707 8.259-8.26 8.259-8.259-3.706-8.259-8.26 3.706-8.258 8.26-8.258zm-13.78 70.37c0 4.554-3.707 8.26-8.26 8.26s-8.259-3.706-8.259-8.26c0-4.552 3.706-8.258 8.26-8.258s8.258 3.706 8.258 8.259zm-35.833-42.32c5.923 0 10.74 4.818 10.74 10.74s-4.817 10.74-10.74 10.74-10.74-4.817-10.74-10.74 4.817-10.74 10.74-10.74zm-39.151 82.149H22.828a4.007 4.007 0 0 0 0 8.014h32.057a4.007 4.007 0 0 0 0-8.014zm106.574 0H71.274a4.007 4.007 0 0 0 0 8.014h90.185a4.007 4.007 0 0 0 0-8.014z" fill="#4C3A30"/></svg>