<svg xmlns="http://www.w3.org/2000/svg" viewBox="0 0 51.638 36"><g fill-rule="evenodd" clip-rule="evenodd"><path fill="#00B2BC" d="M17.296 5.838h-2.38v-2.48a.724.724 0 0 0-.717-.73.724.724 0 0 0-.717.73v2.48h-2.38a.724.724 0 0 0-.717.73c0 .402.321.73.717.73h2.38v2.479c0 .403.321.73.717.73a.724.724 0 0 0 .718-.73v-2.48h2.379a.724.724 0 0 0 .717-.73.724.724 0 0 0-.717-.73zM6.546 1.946H5.35V.73c0-.403-.321-.73-.718-.73s-.717.327-.717.73v1.216H2.719a.724.724 0 0 0-.717.73c0 .403.321.73.717.73h1.196v1.216c0 .402.321.73.717.73s.718-.328.718-.73V3.405h1.196a.724.724 0 0 0 .717-.73.724.724 0 0 0-.717-.73zM50.92 25.78h-1.196v-1.217c0-.403-.321-.73-.717-.73s-.718.327-.718.73v1.216h-1.196a.724.724 0 0 0-.717.73c0 .403.321.73.717.73h1.196v1.216c0 .403.322.73.718.73s.717-.327.717-.73v-1.216h1.196a.724.724 0 0 0 .718-.73.724.724 0 0 0-.718-.73z"/><ellipse fill="#00B2BC" cx="25.821" cy="30.1" rx="13.877" ry="5.9"/><path fill="#FFF" d="M26.555 28.824a.798.798 0 0 1-.577-.247l-7.734-7.952a.87.87 0 0 1 0-1.205.808.808 0 0 1 1.16 0l7.164 7.37 14.13-14.531a.898.898 0 0 1 .647-.259c.226 0 .435.079.572.217.485.495.352.82-.062 1.247l-14.55 14.954-.103.068-.076.097a.791.791 0 0 1-.571.241"/></g></svg>