<svg xmlns="http://www.w3.org/2000/svg" viewBox="0 0 14 14"><path d="M4.32 5.667a1.95 1.95 0 0 0 1.385-.574 1.966 1.966 0 0 0 0-2.771c-.736-.737-2.031-.737-2.77 0-.37.37-.575.863-.575 1.386s.205 1.015.577 1.386c.37.37.862.573 1.383.573zm0-2.69c.195 0 .378.075.516.213.285.286.285.75.002 1.036a.754.754 0 0 1-1.035.001.732.732 0 0 1 .517-1.25zm5.705.733c.486 0 .943-.189 1.287-.533a1.824 1.824 0 0 0 0-2.574 1.844 1.844 0 0 0-2.575 0 1.802 1.802 0 0 0-.532 1.287 1.814 1.814 0 0 0 1.82 1.82zm.438-1.382a.637.637 0 0 1-.877 0 .615.615 0 0 1-.182-.438.614.614 0 0 1 .62-.619c.166 0 .32.064.438.181.24.242.241.635.001.876zM4.354 6.48h-.07a4.09 4.09 0 0 0-4.086 4.085v2.717a.613.613 0 1 0 1.227 0v-2.717a2.861 2.861 0 0 1 2.858-2.857h.07a2.862 2.862 0 0 1 2.861 2.857v2.717a.613.613 0 1 0 1.227 0v-2.717A4.09 4.09 0 0 0 4.354 6.48zm5.719-1.98h-.064a3.72 3.72 0 0 0-2.65 1.098.6.6 0 0 0 .424 1.026.588.588 0 0 0 .423-.176 2.536 2.536 0 0 1 1.803-.746h.064a2.55 2.55 0 0 1 2.548 2.547v2.465a.6.6 0 0 0 1.2 0V8.249A3.752 3.752 0 0 0 10.073 4.5z"/></svg>