<svg xmlns="http://www.w3.org/2000/svg" viewBox="0 0 63.784 64"><circle fill="#F1F0F3" cx="34.268" cy="32" r="29.624"/><path fill="#4FC3C5" d="M45.387 33.068l-5.523 20.26c-.337 1.239-3.427 7.916-4.953 7.5-1.526-.416-.934-7.774-.596-9.012l5.522-20.26c.338-1.239 1.862-1.911 3.388-1.495 1.527.416 2.5 1.769 2.162 3.007z"/><path fill="#495059" d="M35.031 61.596c-.107 0-.213-.013-.317-.042-1.073-.292-1.552-1.81-1.552-4.923-.001-2.03.224-4.27.427-5.013l5.522-20.26c.221-.81.83-1.488 1.67-1.859.8-.353 1.74-.411 2.643-.165.904.247 1.683.774 2.192 1.483.537.747.718 1.64.497 2.45l-5.523 20.26c-.023.086-2.99 8.07-5.559 8.07zm7.286-30.905c-.33 0-.649.062-.928.185-.43.19-.723.502-.826.878l-5.522 20.26c-.41 1.502-.62 7.134.075 8.054 1.023-.453 3.587-5.34 4.022-6.938l5.523-20.26c.102-.376.008-.793-.267-1.175-.305-.423-.802-.755-1.366-.908a2.701 2.701 0 0 0-.71-.096z"/><path fill="#FFF" d="M23.067 60.434H5.718c-2.79 0-5.073-2.283-5.073-5.073V31.934c0-2.79 2.283-5.074 5.073-5.074h17.35c2.79 0 5.073 2.284 5.073 5.074v23.427c0 2.79-2.283 5.073-5.074 5.073z"/><path fill="#495059" d="M23.05 61.187H5.736a5.85 5.85 0 0 1-5.844-5.844V31.951a5.85 5.85 0 0 1 5.844-5.843H23.05a5.85 5.85 0 0 1 5.844 5.843v23.392a5.85 5.85 0 0 1-5.844 5.844zM5.736 27.613a4.343 4.343 0 0 0-4.339 4.338v23.392a4.343 4.343 0 0 0 4.339 4.339H23.05a4.343 4.343 0 0 0 4.339-4.339V31.951a4.343 4.343 0 0 0-4.339-4.338H5.736z"/><path fill="#4FC3C5" d="M23.077 27.634L22.052 24.8a1.43 1.43 0 0 0-1.347-.942H8.055c-.597 0-1.13.375-1.328.936l-.971 2.749a1.692 1.692 0 0 0 .218 1.556c.306.43.81.722 1.401.722h14.16a1.633 1.633 0 0 0 1.542-2.186z"/><path fill="#495059" d="M21.916 39.271H7.07a.752.752 0 0 1-.75-.75v-.005c0-.412.337-.75.75-.75h14.845c.412 0 .75.338.75.75v.005c0 .413-.338.75-.75.75zm.111 6.439H7.182a.752.752 0 0 1-.75-.75v-.004c0-.413.338-.75.75-.75h14.845c.413 0 .75.337.75.75v.005c0 .412-.337.75-.75.75zm0 6.22H7.182a.752.752 0 0 1-.75-.75v-.005c0-.413.338-.75.75-.75h14.845c.413 0 .75.337.75.75v.005c0 .413-.337.75-.75.75zm-.312-20.539H7.15c-.73 0-1.42-.362-1.896-.993-.595-.79-.78-1.856-.493-2.854l1-3.483c.297-1.036 1.137-1.732 2.089-1.732h13.01c.956 0 1.802.698 2.107 1.735l1.055 3.593c.28.95.1 2.01-.466 2.767-.46.614-1.132.967-1.842.967zM7.85 23.834c-.27 0-.534.265-.643.642l-1 3.484c-.153.537-.058 1.125.249 1.533.11.147.348.393.694.393h14.564c.317 0 .535-.229.637-.365.288-.384.375-.936.227-1.44l-1.055-3.593c-.113-.385-.385-.654-.663-.654H7.851z"/></svg>