<svg xmlns="http://www.w3.org/2000/svg" viewBox="0 0 64 64"><circle fill="#F1F0F3" cx="33.682" cy="31.693" r="30.318"/><path fill="#4FC3C5" d="M18.441 61.855h-.507a1.856 1.856 0 0 1-1.851-1.851v-2.685c0-1.017.833-1.85 1.85-1.85h.508c1.018 0 1.85.833 1.85 1.85v2.685c0 1.018-.832 1.85-1.85 1.85z"/><path fill="#495059" d="M18.392 62.625h-.408a2.674 2.674 0 0 1-2.671-2.67v-2.586a2.674 2.674 0 0 1 2.67-2.67h.409a2.674 2.674 0 0 1 2.67 2.67v2.585a2.674 2.674 0 0 1-2.67 2.67zm-.408-6.386c-.623 0-1.13.507-1.13 1.13v2.585c0 .623.507 1.13 1.13 1.13h.408c.622 0 1.13-.507 1.13-1.13V57.37c0-.623-.508-1.13-1.13-1.13h-.408z"/><path fill="#4FC3C5" d="M28.238 61.492h-.508a1.856 1.856 0 0 1-1.85-1.85v-2.685c0-1.018.832-1.851 1.85-1.851h.508c1.017 0 1.85.833 1.85 1.85v2.685c0 1.018-.833 1.85-1.85 1.85z"/><path fill="#495059" d="M28.188 62.262h-.408a2.674 2.674 0 0 1-2.67-2.67v-2.586a2.674 2.674 0 0 1 2.67-2.67h.408a2.674 2.674 0 0 1 2.67 2.67v2.586a2.674 2.674 0 0 1-2.67 2.67zm-.408-6.386c-.623 0-1.13.507-1.13 1.13v2.586c0 .623.507 1.13 1.13 1.13h.408c.623 0 1.13-.507 1.13-1.13v-2.586c0-.623-.507-1.13-1.13-1.13h-.408z"/><circle fill="#FDFDFE" cx="22.948" cy="44.565" r="13.752"/><path fill="#495059" d="M22.948 59.087c-8.008 0-14.522-6.514-14.522-14.522s6.514-14.522 14.522-14.522 14.521 6.515 14.521 14.522-6.514 14.522-14.521 14.522zm0-27.503c-7.159 0-12.982 5.823-12.982 12.981s5.823 12.982 12.982 12.982 12.981-5.823 12.981-12.982-5.823-12.981-12.981-12.981z"/><g fill="#495059"><path d="M22.782 46.148a.77.77 0 0 1-.77-.77v-9.242a.77.77 0 0 1 1.54 0v9.242a.77.77 0 0 1-.77.77z"/><path d="M27.543 50.921a.767.767 0 0 1-.544-.225l-4.73-4.73a.77.77 0 1 1 1.09-1.088l4.729 4.729a.77.77 0 0 1-.545 1.314z"/></g><path fill="#4FC3C5" d="M27.307 27.28H17.138c-.917 0-1.667-.75-1.667-1.667v-.559c0-.916.75-1.666 1.667-1.666h10.17c.916 0 1.666.75 1.666 1.666v.56c0 .916-.75 1.666-1.667 1.666z"/><path fill="#495059" d="M27.263 28.05h-10.08a2.484 2.484 0 0 1-2.482-2.482V25.1a2.485 2.485 0 0 1 2.482-2.482h10.08a2.485 2.485 0 0 1 2.48 2.482v.468a2.484 2.484 0 0 1-2.48 2.482zm-10.08-3.892a.942.942 0 0 0-.941.942v.468c0 .52.422.941.941.941h10.08c.518 0 .94-.422.94-.94v-.47a.942.942 0 0 0-.94-.941h-10.08zm22.109 13.366a.77.77 0 0 1-.504-1.352l3.865-3.35a.77.77 0 1 1 1.009 1.164l-3.866 3.35a.766.766 0 0 1-.504.188zm4.948 16.13a.769.769 0 0 1-.425-.128L39.553 50.7a.77.77 0 0 1 .853-1.284l4.262 2.827a.77.77 0 0 1-.427 1.412zM5.72 37.524a.766.766 0 0 1-.504-.188l-3.866-3.35a.77.77 0 0 1 1.009-1.164l3.865 3.35a.77.77 0 0 1-.504 1.352zM.771 53.654a.77.77 0 0 1-.427-1.412l4.262-2.827a.77.77 0 0 1 .852 1.284l-4.262 2.827a.769.769 0 0 1-.425.128z"/></svg>