<svg xmlns="http://www.w3.org/2000/svg" viewBox="0 0 200 200"><path fill-rule="evenodd" clip-rule="evenodd" fill="#FFE300" d="M38.947 99h26.857v93.474H38.947zm40.421-35.368h26.857v129.531H79.368z"/><path fill-rule="evenodd" clip-rule="evenodd" fill="#E7B200" d="M122.316 45.947h26.857v145.884h-26.857z"/><g fill="#4C3A30"><path d="M46.526 184.94v-80.887h15.411v18.02a5.053 5.053 0 0 0 10.105 0v-20.547c0-4.179-3.4-7.579-7.579-7.579H44c-4.18 0-7.579 3.4-7.579 7.58v83.368H5.651a5.053 5.053 0 0 0 0 10.105h40.421a5.053 5.053 0 0 0 5.053-5.053c0-2.635-2.024-4.773-4.599-5.006z"/><path d="M180.448 184.895h-25.29v-32.842a5.053 5.053 0 0 0-10.105 0v32.842h-17.685V53.526h17.144v15.865a5.053 5.053 0 0 0 10.106 0V51c0-4.18-3.4-7.579-7.58-7.579h-22.196c-4.18 0-7.579 3.4-7.579 7.579v133.895H86.947V66.158h12.595v55.7a5.053 5.053 0 0 0 10.105 0V63.632c0-4.18-3.4-7.58-7.579-7.58H81.895a5.053 5.053 0 0 0-5.053 5.053c0 .222.038.433.065.647-.027.214-.065.425-.065.646v122.497H71.79v-32.842a5.053 5.053 0 0 0-10.105 0v37.236c0 .113.026.218.033.329-.007.111-.033.217-.033.33A5.053 5.053 0 0 0 66.737 195h113.711a5.053 5.053 0 0 0 0-10.105z"/><path d="M150.105 101.526a5.053 5.053 0 0 0-5.052 5.053v26.965a5.053 5.053 0 0 0 10.105 0V106.58a5.053 5.053 0 0 0-5.053-5.053z"/></g><path fill-rule="evenodd" clip-rule="evenodd" fill="#FF8500" d="M93.444 15.353c-.44.542-2.773-.62-5.213-2.596S84.17 8.741 84.61 8.198c.439-.542 2.772.62 5.212 2.596s4.062 4.017 3.623 4.559zm-.465 2.09c.157.68-2.195 1.803-5.254 2.51-3.059.706-5.666.727-5.823.047-.157-.68 2.196-1.803 5.255-2.509 3.058-.706 5.665-.728 5.822-.048zm1.396 1.74c.627.306.02 2.841-1.357 5.663-1.376 2.821-3 4.86-3.627 4.555-.627-.306-.02-2.841 1.357-5.663 1.376-2.821 3-4.86 3.627-4.555zm2.141 0c.627-.306 2.25 1.734 3.627 4.555 1.376 2.822 1.984 5.357 1.357 5.663-.627.306-2.251-1.734-3.628-4.555-1.376-2.822-1.983-5.357-1.356-5.663zm1.395-1.74c.157-.68 2.764-.658 5.823.048 3.059.706 5.411 1.83 5.255 2.51-.157.68-2.764.658-5.823-.048-3.059-.707-5.411-1.83-5.255-2.51zm-.464-2.09c-.439-.542 1.183-2.583 3.623-4.56 2.44-1.975 4.773-3.137 5.212-2.595.44.543-1.183 2.584-3.622 4.56-2.44 1.975-4.774 3.137-5.213 2.595zm-2.002-.985c-.697 0-1.263-2.544-1.263-5.684S94.748 3 95.445 3c.698 0 1.263 2.545 1.263 5.684s-.565 5.684-1.263 5.684z"/><path fill="#16D121" d="M172.391 69.632c0-6.354 5.15-11.504 11.504-11.504 6.353 0 11.503 5.15 11.503 11.504s-5.15 11.503-11.503 11.503c-6.354 0-11.504-5.15-11.504-11.503zm27.609 0c0-8.895-7.21-16.106-16.105-16.106s-16.106 7.21-16.106 16.106S175 85.737 183.895 85.737c8.894 0 16.105-7.21 16.105-16.105z"/><path fill="#16D1C4" d="M11.158 29.526a6.316 6.316 0 1 1 12.631 0 6.316 6.316 0 0 1-12.631 0zm15.158 0a8.842 8.842 0 1 0-17.684 0 8.842 8.842 0 0 0 17.684 0z"/><path fill-rule="evenodd" clip-rule="evenodd" fill="#FF8500" d="M188.247 154.825h-5.879a1.965 1.965 0 0 0-1.947 1.957c0 1.088.872 1.956 1.947 1.956h5.879v5.878c0 1.056.875 1.948 1.956 1.948a1.947 1.947 0 0 0 1.956-1.948v-5.878h5.878a1.965 1.965 0 0 0 1.948-1.956 1.947 1.947 0 0 0-1.948-1.957h-5.878v-5.878a1.965 1.965 0 0 0-1.956-1.947 1.947 1.947 0 0 0-1.956 1.947v5.878z"/><path fill-rule="evenodd" clip-rule="evenodd" fill="#DEA1F8" d="M44.38 58.024a1.214 1.214 0 0 1-.923.779 1.214 1.214 0 0 1-.207 1.19c.18.102.334.25.442.437.111.192.165.402.165.607.203-.037.417-.023.62.051.208.076.384.202.516.36.132-.16.305-.286.507-.36.21-.076.424-.092.627-.057a1.207 1.207 0 0 1 .601-1.047 1.187 1.187 0 0 1-.265-.562 1.214 1.214 0 0 1 .052-.627 1.187 1.187 0 0 1-.564-.26 1.214 1.214 0 0 1-.363-.514 1.187 1.187 0 0 1-.6.164 1.22 1.22 0 0 1-.608-.161zm-.589-1.632v-4.206c0-.655.555-1.186 1.197-1.186.662 0 1.198.517 1.198 1.186v4.206l2.703-3.222c.421-.502 1.188-.552 1.68-.139.506.425.585 1.166.155 1.679l-2.704 3.22 4.14-.73a1.204 1.204 0 0 1 1.377.973c.115.651-.3 1.27-.96 1.385l-4.142.73 3.642 2.103c.568.328.75 1.074.429 1.63a1.183 1.183 0 0 1-1.626.444l-3.642-2.102 1.438 3.951c.224.616-.116 1.305-.72 1.525a1.183 1.183 0 0 1-1.53-.706l-1.439-3.951-1.438 3.951c-.224.616-.928.925-1.53.706a1.183 1.183 0 0 1-.72-1.525l1.438-3.951-3.642 2.102c-.567.328-1.305.112-1.626-.444a1.183 1.183 0 0 1 .429-1.63l3.641-2.102-4.14-.73a1.205 1.205 0 0 1-.961-1.386 1.183 1.183 0 0 1 1.376-.973l4.141.73-2.703-3.221a1.206 1.206 0 0 1 .155-1.679 1.183 1.183 0 0 1 1.68.14l2.703 3.22z"/></svg>