<svg xmlns="http://www.w3.org/2000/svg" viewBox="0 0 200 200"><path fill="#FFCB00" d="M100.522 169.245c-8.578 0-15.555-6.986-15.555-15.573s6.977-15.573 15.555-15.573c8.574 0 15.55 6.986 15.55 15.573s-6.976 15.573-15.55 15.573zm19.582-38.789l-1.21-1.211c-4.908-4.914-11.432-7.622-18.37-7.622h-.004c-6.936.002-13.458 2.71-18.36 7.622l-1.21 1.211-12.202-12.222 1.205-1.207c8.164-8.18 19.02-12.683 30.569-12.683 11.55 0 22.407 4.504 30.57 12.683l1.206 1.207-12.194 12.222zM61.376 98.774l-12.2-12.22 1.205-1.208c13.39-13.412 31.197-20.799 50.14-20.799 18.947 0 36.754 7.387 50.144 20.8l1.205 1.208-12.208 12.22-1.21-1.212c-10.134-10.147-23.606-15.736-37.936-15.736h-.002c-14.328.001-27.798 5.59-37.929 15.736l-1.21 1.211z"/><path fill="#4C3A30" d="M65.9 197H33.732a4.021 4.021 0 0 1 0-8.042h32.166a4.021 4.021 0 0 1 0 8.042zm106.934 0h-90.49a4.021 4.021 0 0 1 0-8.042h90.49a4.021 4.021 0 0 1 0 8.042z"/><path fill-rule="evenodd" clip-rule="evenodd" fill="#FF8500" d="M158.047 162.13h-5.52c-.992 0-1.83.823-1.83 1.838a1.83 1.83 0 0 0 1.83 1.837h5.52v5.52c0 .992.823 1.83 1.838 1.83a1.829 1.829 0 0 0 1.837-1.83v-5.52h5.52c.992 0 1.83-.822 1.83-1.837a1.829 1.829 0 0 0-1.83-1.837h-5.52v-5.52c0-.993-.823-1.83-1.837-1.83a1.829 1.829 0 0 0-1.838 1.83v5.52zM50.971 15.601c-.412.51-2.604-.582-4.895-2.437-2.291-1.856-3.815-3.773-3.402-4.282.412-.51 2.604.582 4.895 2.438s3.815 3.772 3.402 4.281zm-.436 1.963c.147.639-2.062 1.694-4.935 2.357-2.872.663-5.32.684-5.468.045-.147-.638 2.062-1.693 4.935-2.357 2.872-.663 5.32-.683 5.468-.045zm1.31 1.635c.59.287.02 2.668-1.273 5.318-1.293 2.65-2.818 4.565-3.407 4.278-.589-.287-.018-2.668 1.274-5.318 1.293-2.65 2.818-4.566 3.407-4.278zm2.012 0c.589-.288 2.114 1.628 3.406 4.278 1.293 2.65 1.863 5.03 1.274 5.318-.589.287-2.114-1.628-3.406-4.278-1.293-2.65-1.863-5.031-1.274-5.318zm1.31-1.635c.148-.638 2.596-.618 5.469.045s5.082 1.719 4.934 2.357c-.147.639-2.595.618-5.468-.045-2.873-.663-5.082-1.718-4.935-2.357zm-.436-1.963c-.412-.509 1.111-2.426 3.402-4.281 2.292-1.856 4.483-2.947 4.896-2.438.412.51-1.111 2.426-3.403 4.282-2.29 1.855-4.482 2.946-4.895 2.437zm-1.88-.924c-.655 0-1.186-2.39-1.186-5.339C51.665 6.39 52.196 4 52.85 4c.655 0 1.187 2.39 1.187 5.338 0 2.949-.532 5.339-1.187 5.339z"/><path fill="#16D121" d="M126.874 35.209c0-5.967 4.837-10.804 10.804-10.804 5.966 0 10.803 4.837 10.803 10.804s-4.837 10.804-10.803 10.804c-5.967 0-10.804-4.837-10.804-10.804zm25.929 0c0-8.354-6.772-15.126-15.125-15.126-8.354 0-15.126 6.772-15.126 15.126s6.772 15.125 15.126 15.125c8.353 0 15.125-6.772 15.125-15.125z"/><path fill="#16D1C4" d="M163.14 22.356a5.932 5.932 0 1 1 11.863 0 5.932 5.932 0 0 1-11.863 0zm14.235 0a8.304 8.304 0 1 0-16.608 0 8.304 8.304 0 0 0 16.608 0z"/><path fill-rule="evenodd" clip-rule="evenodd" fill="#DEA1F8" d="M23.866 105.431a1.173 1.173 0 0 1-.35.505 1.2 1.2 0 0 1-.563.265c.071.191.094.402.057.612a1.2 1.2 0 0 1-.261.564 1.183 1.183 0 0 1 .6 1.032 1.188 1.188 0 0 1 1.122.406 1.17 1.17 0 0 1 .502-.356 1.2 1.2 0 0 1 .62-.056c-.002-.204.049-.41.155-.594a1.2 1.2 0 0 1 .438-.441 1.173 1.173 0 0 1-.262-.555 1.2 1.2 0 0 1 .052-.62 1.173 1.173 0 0 1-.558-.257 1.2 1.2 0 0 1-.358-.508c-.177.103-.38.162-.593.162a1.2 1.2 0 0 1-.601-.159zm-.582-1.613v-4.156a1.19 1.19 0 0 1 1.183-1.172c.654 0 1.183.51 1.183 1.172v4.156l2.672-3.184c.416-.496 1.174-.545 1.66-.137.5.42.578 1.152.153 1.659l-2.672 3.183 4.093-.721c.638-.113 1.25.337 1.36.962a1.169 1.169 0 0 1-.949 1.369l-4.093.721 3.6 2.078c.56.324.74 1.062.423 1.611a1.169 1.169 0 0 1-1.607.439l-3.599-2.078 1.421 3.905a1.19 1.19 0 0 1-.71 1.507 1.169 1.169 0 0 1-1.514-.697l-1.421-3.905-1.421 3.905a1.192 1.192 0 0 1-1.514.697 1.169 1.169 0 0 1-.71-1.507l1.42-3.905-3.598 2.078c-.561.324-1.29.11-1.607-.439a1.169 1.169 0 0 1 .423-1.61l3.6-2.079-4.093-.721a1.192 1.192 0 0 1-.95-1.37 1.169 1.169 0 0 1 1.36-.961l4.093.721-2.67-3.183c-.417-.496-.334-1.251.152-1.66.5-.42 1.235-.369 1.66.138l2.672 3.184z"/><path fill="#4C3A30" d="M148.636 103.828a4.016 4.016 0 0 1-2.844-1.18 63.897 63.897 0 0 0-17.707-12.552c-24.422-11.663-53.695-6.624-72.839 12.552-1.507 1.512-4.182 1.512-5.69 0l-12.03-12.05a4.022 4.022 0 0 1 .004-5.688 4.022 4.022 0 0 1 5.685.005l9.265 9.28c21.526-19.276 52.791-23.908 79.072-11.356a71.694 71.694 0 0 1 17.006 11.357l6.365-6.371a81.133 81.133 0 0 0-12.962-9.613 80.739 80.739 0 0 0-89.059 4.085 4.019 4.019 0 0 1-5.617-.88 4.022 4.022 0 0 1 .882-5.618 88.76 88.76 0 0 1 97.915-4.492 89.404 89.404 0 0 1 17.438 13.608 4.02 4.02 0 0 1 0 5.683l-12.039 12.05a4.02 4.02 0 0 1-2.845 1.18zm-49.204 74.177a4.021 4.021 0 0 1 0-8.042c8.925 0 16.188-7.262 16.188-16.187s-7.263-16.187-16.188-16.187-16.187 7.262-16.187 16.187a4.021 4.021 0 0 1-8.042 0c0-13.36 10.87-24.229 24.23-24.229s24.228 10.869 24.228 24.229-10.868 24.23-24.229 24.23z"/><path fill="#4C3A30" d="M127.272 132.062a4.016 4.016 0 0 1-2.845-1.18c-6.387-6.394-14.874-9.915-23.903-9.915h-.006c-9.025.002-17.509 3.523-23.887 9.915-1.512 1.512-4.184 1.512-5.692 0L57.571 117.49a4.022 4.022 0 0 1-.002-5.681c7.994-8.01 15.318-13.043 22.385-15.383a4.016 4.016 0 0 1 5.081 2.552 4.02 4.02 0 0 1-2.552 5.081c-4.963 1.644-10.445 5.219-16.329 10.647l7.763 7.779c7.473-6.19 16.777-9.557 26.601-9.56h.006c9.826 0 19.134 3.368 26.612 9.558l7.708-7.728c-9.418-8.12-21.286-12.608-33.835-12.724a4.021 4.021 0 0 1 .037-8.041h.037c16.015.147 31.072 6.475 42.394 17.819a4.023 4.023 0 0 1 0 5.68l-13.358 13.391a4.021 4.021 0 0 1-2.845 1.182h-.002z"/></svg>