<svg xmlns="http://www.w3.org/2000/svg" viewBox="0 0 14 14"><rect x="-780.701" y="-734.315" fill="none"/><path d="M8.43 14H2.823c-.719 0-1.304-.557-1.304-1.242V1.243C1.518.557 2.103 0 2.822 0h5.609c.718 0 1.304.557 1.304 1.243V3.46a.601.601 0 0 1-1.203 0V1.243c-.003-.007-.037-.041-.101-.041H2.822c-.064 0-.098.034-.102.044v11.512c.005.008.039.04.102.04h5.609c.063 0 .097-.032.102-.044v-2.023a.601.601 0 0 1 1.202 0v2.027c0 .685-.586 1.242-1.304 1.242z"/><path fill="#010101" d="M5.888 10.115a.501.501 0 0 1-.483-.636l.436-1.55a.502.502 0 0 1 .176-.26l4.005-3.096c.045-.039.588-.472 1.228-.424.329.03.62.186.844.454.671.803.345 1.593-.038 1.927l-4.28 3.345a.49.49 0 0 1-.266.104l-1.58.135a.619.619 0 0 1-.042.001zm1.58-.635h.01-.01zM6.76 8.36l-.196.694.712-.06 4.141-3.235c.112-.113.09-.294-.093-.514-.067-.08-.12-.094-.164-.098-.196-.022-.439.146-.512.207L6.761 8.36z"/></svg>