<svg xmlns="http://www.w3.org/2000/svg" viewBox="0 0 12 8.531"><path d="M3.384 8.53H.5a.5.5 0 1 1 0-1.002h2.884a.5.5 0 0 1 .5.501v.002a.5.5 0 0 1-.5.5zM11.531.423c-.561-.564-1.636-.564-2.202 0L5.331 4.422a1.54 1.54 0 0 0-.433.835l-.271 1.57a.502.502 0 0 0 .493.587l1.636-.34c.294-.062.562-.208.775-.42l4.016-4.016A1.54 1.54 0 0 0 12 1.535a1.581 1.581 0 0 0-.469-1.112zm-.693 1.507L6.824 5.945a.559.559 0 0 1-.278.15l-.806.174.146-.843a.543.543 0 0 1 .154-.295l3.998-4a.557.557 0 0 1 .8.015.556.556 0 0 1 0 .784z"/></svg>