<svg id="Layer_1" xmlns="http://www.w3.org/2000/svg" viewBox="0 0 14 14"><style></style><path d="M1.83 1.825c-.042-.27.1-.393.357-.292.306.12.593.285.918.355.386.083.773.13 1.165.052.161-.031.301-.098.325-.297.053.075.076.15.09.229.051.28-.05.42-.334.455-.216.027-.43-.001-.645-.029-.059-.007-.117-.03-.214.003.568.252 1.097.526 1.701.575.307.024.405-.1.347-.397-.006-.032-.048-.073.005-.105l-.003.005c.103.123.198.25.254.402.1.266-.008.436-.292.46a2.744 2.744 0 0 1-.73-.053 1.276 1.276 0 0 0-.339-.03l.741.655-.395.023c-.072.004-.092.03-.049.094.236.355.472.71.706 1.067.06.093.122.022.176.003 1.108-.393 2.226-.43 3.35-.083.659.204 1.236.546 1.661 1.106.227.299.39.63.444 1.003.102.715-.18 1.226-.879 1.616-.585.327-1.218.381-1.87.322-1.23-.113-2.198-.711-2.987-1.632-.233-.272-.456-.553-.683-.83l-.121-.141c-.129.436-.103.85-.036 1.266.163 1.025.748 1.79 1.51 2.44.55.471 1.137.898 1.823 1.15 2.093.769 4.104-.6 4.48-2.598.258-1.368-.104-2.573-.883-3.67-.986-1.39-2.305-2.32-3.968-2.74-.004 0-.005-.01-.011-.024.31-.024.609.043.906.1 1.488.281 2.83.872 3.948 1.913.87.81 1.459 1.782 1.648 2.97.296 1.86-.641 3.48-2.41 4.166-.887.345-1.81.431-2.75.368-.87-.058-1.732-.175-2.558-.469-1.139-.404-2.062-1.08-2.62-2.18-.316-.622-.483-1.275-.292-1.976a2.51 2.51 0 0 1 .701-1.17c.083-.08.088-.128.02-.221-.256-.348-.5-.705-.751-1.056-.038-.053-.064-.122-.146-.132-.425-.048-.725-.303-.996-.605-.01-.02-.03-.042-.047-.027-.024.021-.007.049.012.07.139.413.305.807.742 1-.074.025-.14.008-.209-.015a2.435 2.435 0 0 1-1.198-.892c-.301-.406-.52-.859-.747-1.353.168.07.25.179.341.271.262.267.588.354.946.356.078 0 .16-.014.234-.038.092-.03.133-.1.064-.183-.326-.391-.683-.75-1.155-.964-.24-.109-.337-.05-.45.24C.34 1.89.136 1.379.003.79c.663.288 1.232.674 1.79 1.079l.047.026c.013-.026.01-.049-.01-.07zM5.603 5.24c.723.93 1.35 1.897 2.226 2.658.332.288.695.53 1.113.68.45.16.875-.072.941-.54.101-.715-.125-1.344-.61-1.862-.532-.57-1.221-.872-1.978-1.024a3.279 3.279 0 0 0-1.692.088zM2.287 2.21c.192.18.36.33.55.454.072.046.147.088.237.075.093-.014.136-.082.142-.166.007-.086-.072-.049-.112-.058a1.063 1.063 0 0 1-.357-.15.963.963 0 0 0-.46-.155z" fill="#e60314"/><path d="M6.68 13.155c-.072.105-.152.03-.221.023-1.203-.113-2.34-.448-3.39-1.051-1.227-.705-2.196-1.65-2.736-2.985A4.646 4.646 0 0 1 0 7.361c0-.2.082-.352.212-.484.374-.385.855-.467 1.362-.467.116 0 .066.085.058.135A5.038 5.038 0 0 0 1.83 8.92c.412 1.238 1.194 2.21 2.215 3.002a6.392 6.392 0 0 0 2.634 1.233z" fill="#e60214"/></svg>