<svg xmlns="http://www.w3.org/2000/svg" viewBox="0 0 14 14"><path d="M13.396 0H.596c-.33 0-.59.27-.59.6v12.8c0 .33.26.6.59.6h12.8c.34 0 .6-.27.6-.6V.6c0-.33-.26-.6-.6-.6zm-12.2 12.18v-4.1c.01.02.03.03.05.04L4.516 10l-3.29 2.15c-.01.01-.02.01-.03.03zm.88-4.97h9.86l-4.02 2.22c-.01.01-.02.02-.04.02l-.97.54-4.83-2.78zm.36 5.59l3.25-2.13.92.53a.61.61 0 0 0 .59.01l.97-.54 3.39 2.13h-9.12zm10.36-.63c-.01-.02-.02-.02-.03-.03L9.376 10l3.38-1.87c.02-.01.03-.02.04-.03v4.07zm-11.6-6.16V1.2h11.6v4.81h-11.6zm3.996-2.636h-2.39a.6.6 0 0 1 0-1.2h2.39a.6.6 0 0 1 0 1.2zm-.025 1.891h-2.39a.6.6 0 0 1 0-1.199h2.39a.6.6 0 0 1 0 1.2z"/></svg>