<svg xmlns="http://www.w3.org/2000/svg" viewBox="0 0 12 12"><g fill="#010101"><path d="M9 4.5L5.972 6.56 2.915 4.423a.5.5 0 0 0-.573.82L5.68 7.579a.506.506 0 0 0 .568.003l3.43-2.337a.498.498 0 0 0 .132-.694C9.655 4.32 9.345 4.263 9 4.5z"/><path d="M9.821 1.25H2.205A2.222 2.222 0 0 0 0 3.462v5.076c0 1.21.996 2.212 2.205 2.212h7.617C11.03 10.75 12 9.747 12 8.538V3.462c0-1.21-.97-2.212-2.179-2.212M11 8.538A1.19 1.19 0 0 1 9.821 9.75H2.205A1.222 1.222 0 0 1 1 8.538V3.462c0-.658.548-1.212 1.205-1.212h7.616c.657 0 1.179.554 1.179 1.212v5.076z"/></g></svg>