<svg xmlns="http://www.w3.org/2000/svg" viewBox="0 0 10.451 12"><path fill="#19171D" d="M5.795 10.414a.306.306 0 0 0-.307.307.667.667 0 0 1-1.334 0 .307.307 0 0 0-.612 0c0 .705.574 1.279 1.28 1.279.705 0 1.279-.574 1.279-1.28a.306.306 0 0 0-.306-.306"/><path d="M7.53 7.55c.009-.174.03-.344.063-.51a2.48 2.48 0 0 1 .143-.472 1.162 1.162 0 0 1 .662-.659c.163-.065.359-.099.587-.099.227 0 .423.034.587.1a1.162 1.162 0 0 1 .662.658c.062.15.11.308.143.473.033.165.054.335.062.51a10.999 10.999 0 0 1 0 1.007c-.008.173-.03.343-.062.509-.033.166-.08.322-.143.47-.062.146-.147.276-.255.388s-.242.2-.404.264a1.596 1.596 0 0 1-.59.096c-.228 0-.424-.032-.588-.096a1.134 1.134 0 0 1-.661-.653 2.406 2.406 0 0 1-.143-.47 3.394 3.394 0 0 1-.063-.508 10.548 10.548 0 0 1 0-1.007zm.563 1.054c.01.205.043.397.1.578.055.18.145.332.27.457.124.124.298.186.522.186.224 0 .397-.062.522-.186.124-.125.214-.277.27-.457.056-.18.089-.373.1-.578a11.263 11.263 0 0 0 .012-.914 3.164 3.164 0 0 0-.112-.774 1.016 1.016 0 0 0-.155-.326.804.804 0 0 0-.258-.227.769.769 0 0 0-.38-.087.77.77 0 0 0-.379.087.808.808 0 0 0-.258.227c-.068.094-.12.202-.155.326a2.898 2.898 0 0 0-.112.774l-.003.358c0 .165.005.35.016.556z"/><path fill="#19171D" d="M6.539 9.963h-.233A.307.307 0 0 1 6 9.657c0-.169.138-.307.306-.307h.233a.307.307 0 0 1 0 .612z"/><path fill="#19171D" d="M8.643 4.634L8.085 2.5C7.701 1.028 6.368 0 4.8 0a3.353 3.353 0 0 0-3.243 2.501L.044 8.281c-.106.406-.019.828.237 1.16.256.332.643.522 1.063.522h5.195c.168 0 .306-.138.306-.306s-.138-.307-.306-.307H1.344a.725.725 0 0 1-.578-.283.726.726 0 0 1-.13-.63l1.513-5.78C2.464 1.453 3.553.613 4.845.613c1.244 0 2.333.84 2.647 2.044l.505 1.931.044.2c.002.007.011.01.014.018l.016.064c.007-.004.015-.005.022-.009.065.112.18.189.313.16.164-.037.27-.2.233-.365l-.004-.019c.003 0 .005-.002.008-.003z"/></svg>