<svg xmlns="http://www.w3.org/2000/svg" viewBox="0 0 80 80"><g fill="#D6D6DB"><path d="M17.636 26.68c0 .762.652 1.379 1.455 1.379h31.041c.803 0 1.455-.617 1.455-1.378 0-.761-.652-1.378-1.455-1.378H19.091c-.803 0-1.455.617-1.455 1.378zm32.496 4.134H19.091c-.803 0-1.455.617-1.455 1.378 0 .761.652 1.378 1.455 1.378h31.041c.803 0 1.455-.617 1.455-1.378 0-.76-.652-1.378-1.455-1.378zm0 6.43H19.091c-.803 0-1.455.617-1.455 1.378S18.288 40 19.09 40h31.041c.803 0 1.455-.617 1.455-1.378s-.652-1.378-1.455-1.378zm0 16.534H19.091c-.803 0-1.455.618-1.455 1.378 0 .761.652 1.378 1.455 1.378h31.041c.803 0 1.455-.617 1.455-1.378 0-.76-.652-1.378-1.455-1.378zm1.455 6.89c0-.761-.652-1.378-1.455-1.378H19.091c-.803 0-1.455.617-1.455 1.378s.652 1.378 1.455 1.378h31.041c.803 0 1.455-.618 1.455-1.378zM19.09 65.72c-.802 0-1.454.617-1.454 1.378s.652 1.378 1.455 1.378h20.37c.804 0 1.456-.618 1.456-1.378s-.652-1.378-1.455-1.378H19.09z"/><path d="M66.56 29.938a1.47 1.47 0 0 0-1.47 1.47v42.455a3.201 3.201 0 0 1-3.197 3.198H7.33a3.201 3.201 0 0 1-3.198-3.198V13.154A3.201 3.201 0 0 1 7.33 9.957h40.765a1.47 1.47 0 1 0 0-2.94H7.331a6.144 6.144 0 0 0-6.137 6.137v60.71A6.144 6.144 0 0 0 7.331 80h54.562a6.143 6.143 0 0 0 6.136-6.137V31.408a1.47 1.47 0 0 0-1.47-1.47z"/><path d="M65.267 0c-7.466 0-13.54 6.073-13.54 13.539s6.074 13.539 13.54 13.539 13.539-6.073 13.539-13.539S72.732 0 65.266 0zm0 24.4c-5.989 0-10.862-4.872-10.862-10.861S59.278 2.678 65.267 2.678c5.99 0 10.862 4.872 10.862 10.861s-4.873 10.862-10.862 10.862z"/><path d="M63.89 13.991c0 1.014.38 1.837 1.383 1.837 1.003 0 1.372-.823 1.372-1.837v-4.96c0-1.014 0-2.296-1.378-2.296-1.456 0-1.378 1.282-1.378 2.296v4.96z"/><circle cx="65.267" cy="19.231" r="2.049"/></g></svg>