<svg xmlns="http://www.w3.org/2000/svg" viewBox="0 0 64 64"><circle fill="#F1F0F3" cx="36.088" cy="27.912" r="27.912"/><circle fill="#FFF" cx="31.278" cy="29.058" r="8.462"/><path fill="#495059" d="M31.278 38.27c-5.08 0-9.212-4.132-9.212-9.212s4.132-9.212 9.212-9.212 9.211 4.133 9.211 9.212-4.132 9.213-9.211 9.213zm0-16.924c-4.253 0-7.712 3.46-7.712 7.712s3.46 7.713 7.712 7.713 7.711-3.46 7.711-7.713-3.459-7.712-7.711-7.712z"/><path fill="#FFF" d="M12.84 55.824c0-10.183 8.255-18.438 18.438-18.438s18.438 8.255 18.438 18.438"/><path fill="#495059" d="M50.466 55.824h-1.5c0-9.754-7.935-17.688-17.688-17.688S13.589 46.07 13.589 55.824h-1.5c0-10.58 8.608-19.188 19.189-19.188s19.188 8.608 19.188 19.188z"/><circle fill="#4FC3C5" cx="13.638" cy="46.541" r="9.283"/><path fill="#495059" d="M13.638 56.574c-5.532 0-10.033-4.5-10.033-10.033s4.501-10.032 10.033-10.032 10.033 4.5 10.033 10.032-4.5 10.033-10.033 10.033zm0-18.565c-4.705 0-8.533 3.827-8.533 8.532s3.828 8.533 8.533 8.533 8.533-3.828 8.533-8.533-3.828-8.532-8.533-8.532z"/><path fill="#495059" d="M8.124 54.592L1.53 63.729a.657.657 0 0 1-.914.148l-.345-.25a.657.657 0 0 1-.148-.914l6.594-9.137a.657.657 0 0 1 .914-.148l.345.25c.293.21.359.622.148.914z"/></svg>