<svg xmlns="http://www.w3.org/2000/svg" viewBox="0 0 128 128"><circle fill="#F1F0F3" cx="64" cy="63.359" r="63.373"/><path fill="#FDFEFF" d="M73.082 68.376H47.285L34.092 83.997v35.643c0 3.78 2.612 6.873 5.805 6.873h33.185c3.193 0 5.805-3.093 5.805-6.873V75.25c0-3.781-2.612-6.874-5.805-6.874z"/><path fill="#495059" d="M73.082 127.513H39.897c-3.752 0-6.805-3.532-6.805-7.873V83.631l13.729-16.255h26.26c3.753 0 6.806 3.532 6.806 7.874v44.39c0 4.341-3.053 7.873-6.805 7.873zm-37.99-43.15v35.277c0 3.239 2.155 5.873 4.805 5.873h33.185c2.65 0 4.805-2.634 4.805-5.873V75.25c0-3.24-2.156-5.874-4.805-5.874H47.749L35.092 84.364z"/><path fill="#FDFEFF" d="M63.796 61.39H38L24.806 77.01v35.643c0 3.78 2.612 6.874 5.805 6.874h33.185c3.193 0 5.805-3.093 5.805-6.874v-44.39c0-3.781-2.612-6.874-5.805-6.874z"/><path fill="#495059" d="M63.796 120.528H30.611c-3.752 0-6.804-3.532-6.804-7.874V76.645L37.535 60.39h26.261c3.752 0 6.805 3.532 6.805 7.873v44.39c0 4.343-3.053 7.875-6.805 7.875zm-37.99-43.15v35.276c0 3.24 2.156 5.874 4.805 5.874h33.185c2.65 0 4.805-2.635 4.805-5.874v-44.39c0-3.239-2.155-5.874-4.805-5.874H38.463L25.807 77.378z"/><path fill="#4FC3C5" d="M24.806 76.506v.07h11.506a1.936 1.936 0 0 0 1.936-1.936V62.101L24.806 76.506z"/><path fill="#495059" d="M36.311 77.577H23.807v-1.395l.269-.358 15.172-16.26V74.64a2.94 2.94 0 0 1-2.937 2.937zm-9.27-2h9.27c.517 0 .937-.42.937-.937V64.638L27.042 75.577z"/><path fill="#FAFDFD" d="M40.131 91.578h-4.819c-1.1 0-2-.9-2-2V84.76c0-1.1.9-2 2-2h4.82c1.1 0 2 .9 2 2v4.82c0 1.1-.9 2-2 2z"/><path fill="#495059" d="M40.131 92.578h-4.819c-1.654 0-3-1.346-3-3v-4.819c0-1.654 1.346-3 3-3h4.82c1.654 0 3 1.346 3 3v4.819c0 1.654-1.346 3-3 3zm-4.819-8.819c-.55 0-1 .449-1 1v4.819c0 .551.45 1 1 1h4.82c.55 0 1-.449 1-1v-4.819c0-.551-.45-1-1-1h-4.82zm25.934 4.302h-13.76a.895.895 0 0 1-.893-.892c0-.491.402-.893.893-.893h13.76c.49 0 .892.402.892.893a.895.895 0 0 1-.892.892zm.993 11.463H33.465a.895.895 0 0 1-.893-.893c0-.491.402-.893.893-.893h28.774c.49 0 .892.402.892.893a.895.895 0 0 1-.892.893zm0 7.079H33.465a.895.895 0 0 1-.893-.892c0-.491.402-.893.893-.893h28.774c.49 0 .892.402.892.893a.895.895 0 0 1-.892.892z"/><path fill="#FFF" d="M27.118 90.665c6.858 0 12.417 5.559 12.417 12.417s-5.559 12.417-12.417 12.417"/><circle fill="#4FC3C5" cx="21.45" cy="104.555" r="12.417"/><path fill="#495059" d="M21.45 117.971c-7.398 0-13.417-6.018-13.417-13.417s6.02-13.417 13.418-13.417 13.417 6.019 13.417 13.417-6.02 13.417-13.417 13.417zm0-24.834c-6.295 0-11.417 5.122-11.417 11.417s5.122 11.417 11.418 11.417 11.417-5.122 11.417-11.417-5.122-11.417-11.417-11.417z"/><path fill="#495059" d="M14.203 116.117l-8.154 11.3a1.45 1.45 0 0 1-2.018.326 1.45 1.45 0 0 1-.326-2.018l8.154-11.299a1.45 1.45 0 0 1 2.018-.326 1.45 1.45 0 0 1 .326 2.017z"/></svg>