<svg xmlns="http://www.w3.org/2000/svg" viewBox="0.001 1.712 11.969 9.111"><path d="M11.544 8.34a3.178 3.178 0 0 0-.057-.461 2.307 2.307 0 0 0-.13-.43 1.08 1.08 0 0 0-.607-.606c-.151-.06-.331-.09-.537-.09s-.387.03-.538.09a1.068 1.068 0 0 0-.607.606c-.056.135-.1.279-.13.43-.03.151-.05.306-.057.46a9.855 9.855 0 0 0 0 .908c.007.156.027.31.057.462.03.15.074.294.13.426a1.046 1.046 0 0 0 .608.6c.15.058.33.088.537.088.21 0 .39-.03.54-.088.148-.06.273-.142.37-.244a1.14 1.14 0 0 0 .234-.356 2.2 2.2 0 0 0 .13-.426c.029-.145.048-.3.057-.462a9.764 9.764 0 0 0 0-.907zm-.54.448c0 .147-.004.316-.013.5a2.12 2.12 0 0 1-.088.512.965.965 0 0 1-.238.402c-.106.107-.259.16-.452.16s-.347-.053-.453-.16a.965.965 0 0 1-.238-.402 2.075 2.075 0 0 1-.088-.513 10.24 10.24 0 0 1-.01-.82 2.74 2.74 0 0 1 .1-.69.86.86 0 0 1 .135-.286.717.717 0 0 1 .223-.197c.091-.05.202-.075.33-.075s.24.025.33.075c.089.05.164.116.224.197a.86.86 0 0 1 .136.287 2.74 2.74 0 0 1 .1.69l.003.32z"/><g fill="#010101"><path d="M7.43 4.691l-1.978 1.98-.883-.883a.3.3 0 1 0-.425.425L5.24 7.308a.299.299 0 0 0 .425 0l2.191-2.192a.301.301 0 0 0-.425-.425z"/><path d="M11.944 5.572c-.219-2.16-2.016-3.86-4.234-3.86H4.29A4.293 4.293 0 0 0 0 5.999a4.294 4.294 0 0 0 4.29 4.29h3.472a.302.302 0 0 0 0-.602H4.29A3.692 3.692 0 0 1 .602 5.999 3.69 3.69 0 0 1 4.29 2.313h3.42c1.943 0 3.522 1.515 3.66 3.421v.194c0 .16.131.29.291.29h.018c.16 0 .29-.13.29-.29v-.294c0-.024-.02-.04-.025-.062z"/></g></svg>