<svg xmlns="http://www.w3.org/2000/svg" viewBox="0 0 12 12"><path d="M6.908 2.498H2.824c-.987 0-1.78.773-1.806 1.762a.259.259 0 0 0-.004.049v2.61a.275.275 0 0 0 .55 0V4.314a.28.28 0 0 0 .003-.038 1.252 1.252 0 0 1 1.257-1.227h4.084c.686 0 1.238.54 1.257 1.227 0 .013.002.026.004.038v4.012a.273.273 0 0 0-.004.038 1.254 1.254 0 0 1-1.257 1.228h-2.89a.275.275 0 0 0 0 .55h2.89a1.8 1.8 0 0 0 1.807-1.763.264.264 0 0 0 .004-.048V4.268a.261.261 0 0 0-.006-.057 1.8 1.8 0 0 0-1.805-1.713z"/><path d="M11.742 1.713A1.8 1.8 0 0 0 9.938 0H5.853c-.986 0-1.78.774-1.806 1.762a.264.264 0 0 0-.004.049c0 .152.123.254.275.254.098 0 .184-.06.232-.143a.278.278 0 0 0 .046-.145A1.252 1.252 0 0 1 5.853.55h4.084c.686 0 1.238.539 1.257 1.227 0 .013.002.026.004.038v4.012a.275.275 0 0 0-.004.038 1.254 1.254 0 0 1-1.257 1.227h-.524a.275.275 0 0 0 0 .55h.524c.985 0 1.779-.774 1.807-1.762a.269.269 0 0 0 .004-.049V1.77a.262.262 0 0 0-.006-.056zM2.686 9.264a2.134 2.134 0 0 0-.121-.399 1.087 1.087 0 0 0-.217-.334 1.018 1.018 0 0 0-.35-.23c-.135-.055-.303-.083-.498-.083s-.363.028-.5.084a1.025 1.025 0 0 0-.347.23 1.062 1.062 0 0 0-.218.333c-.052.126-.093.26-.12.399s-.046.283-.053.43a8.412 8.412 0 0 0 0 .841c.007.147.024.291.052.429.029.14.07.274.12.396a1.1 1.1 0 0 0 .219.332.96.96 0 0 0 .348.226c.137.055.3.082.499.082.202 0 .366-.027.502-.082a.957.957 0 0 0 .346-.226c.09-.095.164-.207.217-.332.052-.12.093-.255.12-.396a2.89 2.89 0 0 0 .053-.429 8.183 8.183 0 0 0 0-.842 2.968 2.968 0 0 0-.052-.43zm-.467 1.307a1.938 1.938 0 0 1-.082.477.895.895 0 0 1-.22.37c-.098.099-.238.148-.417.148-.18 0-.32-.05-.418-.148a.89.89 0 0 1-.22-.37 1.938 1.938 0 0 1-.08-.477 9.031 9.031 0 0 1-.012-.76 2.545 2.545 0 0 1 .093-.64.826.826 0 0 1 .126-.263.663.663 0 0 1 .207-.182c.082-.046.184-.07.304-.07s.222.024.304.07a.658.658 0 0 1 .208.182.825.825 0 0 1 .125.264 2.599 2.599 0 0 1 .092.639l.003.297c0 .148-.005.303-.013.463z"/></svg>