<svg xmlns="http://www.w3.org/2000/svg" viewBox="0 0 10.171 12"><path d="M9.764.38A1.338 1.338 0 0 0 8.818 0c-.359 0-.704.138-.945.38L3.954 4.3a1.33 1.33 0 0 0-.372.716l-.266 1.54a.306.306 0 0 0 .3.355.31.31 0 0 0 .062-.008l1.5-.322a1.33 1.33 0 0 0 .667-.361l3.934-3.935c.252-.251.392-.587.392-.945 0-.363-.14-.695-.407-.96zm-.2.96a.731.731 0 0 1-.213.517L5.416 5.792a.733.733 0 0 1-.363.198l-1.063.226.19-1.097a.738.738 0 0 1 .203-.392L8.3.807a.735.735 0 0 1 1.05.015.731.731 0 0 1 .213.518zM8.019 7.416c.204 0 .4.029.59.072V5.792a.304.304 0 1 0-.606 0v1.626l.016-.002z"/><path d="M5.882 11.39l-3.856.004c-.783 0-1.42-.637-1.42-1.421V3.012c0-.783.637-1.42 1.42-1.42H4.43a.304.304 0 0 0 .303-.303.304.304 0 0 0-.303-.303H2.026A2.028 2.028 0 0 0 0 3.012v6.96A2.03 2.03 0 0 0 2.026 12h4.218c-.193-.176-.228-.383-.362-.61zm3.124-1.686a2.42 2.42 0 0 0-.046-.373 1.777 1.777 0 0 0-.106-.352.91.91 0 0 0-.522-.52 1.37 1.37 0 0 0-.906-.001.917.917 0 0 0-.523.52 1.823 1.823 0 0 0-.106.353 2.64 2.64 0 0 0-.047.373 7.52 7.52 0 0 0 0 .714c.007.127.023.253.046.373.025.124.06.241.107.35a.964.964 0 0 0 .2.305.9.9 0 0 0 .324.212c.126.05.278.075.451.075.177 0 .33-.025.454-.075a.913.913 0 0 0 .522-.516 1.72 1.72 0 0 0 .106-.35c.025-.118.04-.24.046-.374a7.449 7.449 0 0 0 0-.714zm-.603.353c0 .114-.003.242-.011.384a1.478 1.478 0 0 1-.064.377.664.664 0 0 1-.163.275c-.065.065-.159.097-.287.097s-.221-.032-.287-.098a.655.655 0 0 1-.162-.274 1.522 1.522 0 0 1-.065-.378 7.98 7.98 0 0 1-.01-.383l.002-.25a1.952 1.952 0 0 1 .073-.512.593.593 0 0 1 .093-.193c.039-.053.086-.095.143-.127s.128-.047.213-.047.157.015.211.046c.06.034.109.076.147.128.04.054.07.12.09.192a1.927 1.927 0 0 1 .074.515c.003.091.003.173.003.248z"/></svg>