<svg xmlns="http://www.w3.org/2000/svg" viewBox="0 0 64 64"><circle fill="#F1F0F3" cx="34.944" cy="30.586" r="29.056"/><path fill="#FDFDFE" d="M30.918 55.518V37.882c0-6.539-6.158-11.889-13.685-11.889S3.55 31.343 3.55 37.882v17.636h27.369z"/><path fill="#495059" d="M31.656 56.256H2.811V37.882c0-6.962 6.47-12.627 14.422-12.627s14.423 5.665 14.423 12.627v18.374zM4.287 54.779H30.18V37.882c0-6.148-5.808-11.15-12.947-11.15S4.287 31.734 4.287 37.882v16.897z"/><circle fill="#4FC3C5" cx="17.233" cy="23.786" r="3.042"/><path fill="#495059" d="M17.233 27.566c-2.084 0-3.78-1.695-3.78-3.78s1.696-3.78 3.78-3.78 3.78 1.695 3.78 3.78-1.695 3.78-3.78 3.78zm0-6.084a2.307 2.307 0 0 0-2.304 2.304c0 1.27 1.034 2.304 2.304 2.304s2.305-1.033 2.305-2.304a2.307 2.307 0 0 0-2.305-2.304zM16.136 62.47c-3.094 0-5.611-2.495-5.611-5.561 0-.493.08-.99.249-1.563l.157-.528h10.41l.156.527c.17.571.25 1.068.25 1.564 0 3.066-2.517 5.561-5.611 5.561zm-4.076-6.176c-.04.217-.059.419-.059.615 0 2.252 1.855 4.085 4.135 4.085s4.134-1.833 4.134-4.085c0-.197-.02-.4-.059-.615h-8.15z"/><path fill="#495059" d="M33.729 56.333H.739a.738.738 0 0 1 0-1.476h32.99a.738.738 0 0 1 0 1.476z"/><path fill="#4FC3C5" d="M33.355 45.026l-.372.253-6.413-.248c-1.133 0-1.757 1.74-1.757 2.795v.347c0 .877.644 1.613 1.512 1.838.004.001.004.005 0 .007-.868.224-1.512.96-1.512 1.837v.352c0 .876.644 1.612 1.512 1.837.004.001.004.006 0 .007-.868.225-1.512.961-1.512 1.837v.348c0 1.055.928 1.919 2.062 1.919h9.029c1.134 0 2.062-.864 2.062-1.919V45.859l-.698-5.522-3.175.852-.738 3.837z"/><path fill="#495059" d="M35.855 59.302H26.57a2.861 2.861 0 0 1-2.857-2.858v-.384c0-.784.327-1.513.867-2.037a2.823 2.823 0 0 1-.867-2.03v-.39c0-.78.325-1.507.862-2.03a2.859 2.859 0 0 1-.862-2.038v-.384a2.861 2.861 0 0 1 2.857-2.858h6.047V42.53a2.861 2.861 0 0 1 2.858-2.858h.38a2.861 2.861 0 0 1 2.857 2.858v13.914a2.861 2.861 0 0 1-2.857 2.858zM26.57 45.77c-.761 0-1.381.62-1.381 1.382v.384c0 .61.417 1.153 1.014 1.32.32.089.543.383.543.714a.746.746 0 0 1-.508.704c-.632.178-1.05.72-1.05 1.33v.39c0 .61.418 1.152 1.015 1.318.32.09.543.384.543.715a.744.744 0 0 1-.581.724c-.56.157-.976.7-.976 1.31v.384c0 .762.62 1.382 1.381 1.382h9.285c.761 0 1.381-.62 1.381-1.382V42.53c0-.762-.62-1.382-1.381-1.382h-.38c-.762 0-1.382.62-1.382 1.382v2.497a.746.746 0 0 1-.743.742h-6.78z"/></svg>