<svg xmlns="http://www.w3.org/2000/svg" viewBox="0 3.946 12 8.054"><path d="M10.085 6.49a.266.266 0 0 0-.368-.071L5.95 8.986 2.285 6.42a.266.266 0 0 0-.304.435l3.814 2.669a.265.265 0 0 0 .302.002l3.918-2.67a.265.265 0 0 0 .07-.367z"/><path d="M11.993 5.74a1.884 1.884 0 0 0-1.888-1.794h-8.21A1.882 1.882 0 0 0 .004 5.789.438.438 0 0 0 0 5.84v4.309a.2.2 0 0 0 .007.056A1.882 1.882 0 0 0 1.895 12h6.403a.265.265 0 0 0 0-.53H1.895a1.356 1.356 0 0 1-1.361-1.328c0-.014-.002-.026-.004-.04V5.843a.264.264 0 0 0 .004-.04 1.356 1.356 0 0 1 1.36-1.327h8.211c.742 0 1.34.584 1.36 1.328 0 .014.003.027.005.04v1.843c0 .146.12.265.265.265s.265-.12.265-.265v-1.89a.22.22 0 0 0-.007-.057z"/><path d="M11.54 9.598a1.777 1.777 0 0 0-.107-.352.91.91 0 0 0-.522-.52 1.37 1.37 0 0 0-.906-.001.917.917 0 0 0-.524.52 1.78 1.78 0 0 0-.105.353c-.024.119-.04.245-.047.373a7.52 7.52 0 0 0 0 .714c.007.127.023.252.046.373.024.124.06.24.106.35a.964.964 0 0 0 .2.305.9.9 0 0 0 .325.212c.126.05.278.075.451.075.177 0 .33-.025.454-.075a.913.913 0 0 0 .522-.517c.046-.107.082-.224.106-.35.024-.118.04-.24.046-.373a7.449 7.449 0 0 0 0-.714 2.42 2.42 0 0 0-.046-.373zm-.57 1.11a1.478 1.478 0 0 1-.064.377.664.664 0 0 1-.162.274c-.065.066-.159.098-.287.098s-.222-.032-.287-.099a.655.655 0 0 1-.162-.273 1.522 1.522 0 0 1-.066-.378 7.98 7.98 0 0 1-.01-.384l.003-.249a1.952 1.952 0 0 1 .073-.512.593.593 0 0 1 .093-.194c.039-.053.086-.095.143-.127s.128-.047.213-.047.156.016.211.046c.06.034.108.076.146.128.04.055.07.12.091.193a1.927 1.927 0 0 1 .074.515 7.015 7.015 0 0 1-.009.633z"/></svg>