<svg xmlns="http://www.w3.org/2000/svg" viewBox="2.874 0 9.126 12"><path d="M11.94 9.598a1.777 1.777 0 0 0-.106-.352.91.91 0 0 0-.522-.52 1.37 1.37 0 0 0-.906-.001.917.917 0 0 0-.523.52c-.047.111-.082.23-.106.353-.024.119-.04.245-.046.373a7.522 7.522 0 0 0 0 .714c.006.127.022.252.045.373.025.124.061.24.107.35a.964.964 0 0 0 .2.305.9.9 0 0 0 .324.212c.126.05.279.075.451.075.177 0 .33-.025.455-.075a.913.913 0 0 0 .521-.517c.046-.107.082-.224.107-.35.024-.118.039-.24.045-.373a7.449 7.449 0 0 0 0-.714 2.42 2.42 0 0 0-.045-.373zm-.568 1.11a1.478 1.478 0 0 1-.064.377.664.664 0 0 1-.162.274c-.066.066-.16.098-.288.098s-.221-.032-.287-.099a.655.655 0 0 1-.162-.273 1.522 1.522 0 0 1-.065-.378 7.98 7.98 0 0 1-.01-.384l.002-.249a1.952 1.952 0 0 1 .073-.512.593.593 0 0 1 .093-.194c.04-.053.086-.095.144-.127s.128-.047.212-.047c.085 0 .157.016.211.046a.447.447 0 0 1 .147.128c.04.055.07.12.09.193a1.927 1.927 0 0 1 .074.515 7.016 7.016 0 0 1-.009.633zm.626-7.128v-.21a.254.254 0 0 0-.26-.246c-.144 0-.26.11-.26.246v.208h-.002v4.093c.052-.004.102-.017.155-.017.126 0 .248.02.369.04V3.578h-.002zM3.39 10.335V1.683C3.392.992 3.87.515 4.564.515h.833v.006h5.326c.33 0 .598.254.598.566s-.268.566-.598.566H5.396v.52h5.326c.633 0 1.149-.487 1.149-1.086C11.87.488 11.355 0 10.722 0H4.591c-.093 0-.187 0-.278.015-.89.15-1.437.796-1.438 1.698-.001 2.862-.001 5.724.001 8.586 0 .132.011.267.04.395.18.787.83 1.304 1.639 1.305 1.36.002 2.719 0 4.078 0v-.515H4.546a1.127 1.127 0 0 1-1.155-1.149z"/></svg>