<svg xmlns="http://www.w3.org/2000/svg" viewBox="0 0 14 14"><path d="M13.855 2.628v-.003c0-.018-.008-.033-.01-.05a.583.583 0 0 0-.033-.17c-.016-.04-.043-.071-.066-.106-.018-.026-.028-.056-.05-.08L11.784.187a.59.59 0 1 0-.862.81l.973 1.036H5.702c-1.422 0-3.035.194-4.212 1.631C.563 4.797.075 6.341.152 7.898a.591.591 0 1 0 1.181-.058c-.06-1.25.34-2.53 1.073-3.427.814-.993 1.906-1.197 3.296-1.197h6.155l-.926.946a.592.592 0 1 0 .846.828l1.906-1.947.004-.004c.021-.022.031-.05.049-.075.026-.037.057-.07.074-.113a.591.591 0 0 0 .045-.223zm-.626 2.912a.59.59 0 0 0-.562.62c.06 1.25-.34 2.531-1.073 3.426-.814.994-1.907 1.198-3.296 1.198H2.143l.926-.946a.592.592 0 1 0-.845-.828L.317 10.957l-.004.005c-.021.022-.031.05-.049.074-.026.037-.057.07-.074.113a.591.591 0 0 0-.045.224v.003c0 .017.008.032.01.05a.583.583 0 0 0 .033.17c.016.039.043.07.066.105.018.026.028.056.05.08l1.912 2.033a.59.59 0 0 0 .836.025.592.592 0 0 0 .026-.836l-.974-1.036h6.194c1.422 0 3.035-.194 4.212-1.631.927-1.132 1.415-2.675 1.338-4.234a.597.597 0 0 0-.62-.562z"/></svg>