<svg xmlns="http://www.w3.org/2000/svg" viewBox="0 0 12 12"><path d="M9.73 4.354a.53.53 0 0 0 .363-.138l1.774-1.698a.514.514 0 0 0 .096-.142.481.481 0 0 0 .038-.19.468.468 0 0 0-.149-.354L10.11.143A.535.535 0 0 0 9.739 0a.525.525 0 0 0-.365.141.487.487 0 0 0-.002.705l.863.835h-.063l-4.108-.013V1.66h-1.32c-1.487 0-2.66.44-3.485 1.308C-.194 4.496.01 6.734.017 6.828a.517.517 0 0 0 .521.459l.049-.001a.511.511 0 0 0 .473-.547c-.002-.015-.148-1.917.974-3.095.617-.65 1.53-.98 2.71-.98l5.487.015-.045.042-.822.785a.487.487 0 0 0-.004.706c.094.09.228.142.37.142zm-2.467 5.981c1.488 0 2.66-.44 3.484-1.308 1.45-1.526 1.25-3.766 1.242-3.862a.52.52 0 0 0-.523-.457l-.045.001a.51.51 0 0 0-.474.547c.015.197.108 1.96-.974 3.095-.617.649-1.53.979-2.71.979l-5.487-.013.045-.042.821-.786a.49.49 0 0 0 .004-.705.535.535 0 0 0-.37-.142c-.14 0-.272.05-.362.138L.156 9.46a.505.505 0 0 0-.112.159.495.495 0 0 0 .11.545l1.745 1.689a.523.523 0 0 0 .367.147.526.526 0 0 0 .366-.145.49.49 0 0 0 .003-.705l-.864-.836h.063l4.108.012v.009h1.32z"/></svg>