<svg xmlns="http://www.w3.org/2000/svg" viewBox="0 0 128 128"><circle fill="#F1F0F2" cx="66.338" cy="61.93" r="61.662"/><path fill="#51C3C5" d="M61.894 106.688H3.775a2.961 2.961 0 0 1-2.952-2.952v-4.927a2.961 2.961 0 0 1 2.952-2.952h58.12a2.961 2.961 0 0 1 2.952 2.952v4.927a2.961 2.961 0 0 1-2.953 2.952z"/><path fill="#FFF" d="M61.894 96.528H3.775a2.961 2.961 0 0 1-2.952-2.952V61.08a2.961 2.961 0 0 1 2.952-2.953h58.12a2.961 2.961 0 0 1 2.952 2.953v32.495a2.961 2.961 0 0 1-2.953 2.952z"/><path fill="#4A515A" d="M61.193 107.2H4.4a4.405 4.405 0 0 1-4.4-4.4V61.39c0-2.426 1.974-4.4 4.4-4.4h56.793c2.426 0 4.4 1.974 4.4 4.4v41.41c0 2.427-1.974 4.4-4.4 4.4zM4.4 58.978a2.416 2.416 0 0 0-2.414 2.413v41.41a2.416 2.416 0 0 0 2.414 2.413h56.792a2.416 2.416 0 0 0 2.413-2.413V61.39a2.416 2.416 0 0 0-2.413-2.413H4.4z"/><path fill="#4A515A" d="M.823 95.414h63.81v1.987H.823zm43.966 23.152l-4.967-11.072H25.095L20.64 118.53l-1.843-.744 4.959-12.28H41.11l5.493 12.245z"/><path fill="#4A515A" d="M8.236 123.753c3.901-3.553 15-6.615 18.228-.769.619 1.12 2.335.118 1.716-1.003-3.971-7.19-16.422-4.12-21.349.367-.947.863.461 2.265 1.405 1.405zm31.669 3.492c2.347-2.138 9.249-4.112 11.207-.567.618 1.12 2.335.118 1.715-1.003-2.681-4.856-10.982-2.882-14.327.165-.948.863.46 2.265 1.405 1.405z"/><path fill="#4A515A" d="M27.48 123.655c1.563-1.3 8.638-4.107 10.258-.79.33.676 1.37.618 1.715 0 3.656-6.527 13.678-3.585 18.078.286.956.841 2.367-.559 1.405-1.406-5.386-4.738-16.887-7.581-21.198.117h1.715c-2.27-4.651-10.257-2.207-13.378.388-.984.818.429 2.217 1.406 1.405zm-12.394 3.935c.865-.498 1.834-.645 2.816-.733.513-.046 2.695-.402 3.013.153.636 1.11 2.353.11 1.716-1.003-.812-1.416-2.608-1.26-4.024-1.182-1.566.086-3.143.254-4.524 1.05-1.107.638-.108 2.356 1.003 1.716z"/><circle fill="#4A515A" cx="24.547" cy="74.33" r="1.786"/><circle fill="#4A515A" cx="41.898" cy="74.33" r="1.786"/><path fill="#4A515A" d="M40.147 87.475a.993.993 0 0 1-.994-.994c0-1.073-2.198-2.274-5.139-2.274s-5.138 1.201-5.138 2.274a.993.993 0 1 1-1.987 0c0-2.43 3.063-4.261 7.125-4.261s7.126 1.832 7.126 4.261c0 .55-.445.994-.993.994z"/></svg>