<svg xmlns="http://www.w3.org/2000/svg" viewBox="0 0 80 80"><path fill="#E78324" d="M62.4 45.4c-1.9 2-4.5 3-7.2 3-.7 0-1.4-.1-2-.2l-.6-.1-.3.5c-1.3 2.3-3.7 3.7-6.4 3.7-1.1 0-2.2-.2-3.2-.7l-.8-.4-.3.8c-1.3 3.1-4.4 5.1-7.7 5.1-1.8 0-3.4-.5-4.9-1.5-1.4-1-2.4-2.4-3-4l-.3-.6-.7.1c-.5.1-1.1.2-1.6.2-4.3 0-7.8-3.5-7.8-7.8 0-1.4.4-2.8 1.1-4 .7-1.2 1.7-2.1 2.8-2.8l.6-.4-.3-.7c-.5-1.1-.8-2.4-.8-3.6 0-2.4 1-4.7 2.7-6.5 1.7-1.7 4-2.7 6.5-2.7 1.5 0 2.8.3 4.1 1 1.2.6 2.3 1.5 3.2 2.6l.6.8.7-.7c1.6-1.6 3.7-2.5 5.9-2.5 1.5 0 2.9.4 4.2 1.2 1.2.8 2.3 1.8 3 3.1l.4.6.7-.3c1.3-.6 2.7-.9 4.1-.9 2.7 0 5.3 1.1 7.2 3 1.9 2 3 4.6 3 7.3.1 2.8-1 5.4-2.9 7.4z"/></svg>