<svg data-name="Layer 1" xmlns="http://www.w3.org/2000/svg" viewBox="0 0 24 24"><circle cx="12" cy="12" r="12" fill="#f59833"/><path d="M8.461 18.36c-.269 0-.539.001-.808-.001-.24-.002-.345-.153-.247-.375a2.033 2.033 0 0 1 .221-.348q1.892-2.63 3.79-5.254a.292.292 0 0 0-.002-.414Q9.443 9.263 7.492 6.542a.678.678 0 0 1-.119-.274.226.226 0 0 1 .24-.29c.56-.007 1.12-.019 1.68.01a.622.622 0 0 1 .404.249c1.408 1.925 2.802 3.86 4.206 5.789a.21.21 0 0 1 .003.3q-1.409 1.928-2.81 3.863c-.465.641-.933 1.28-1.395 1.924a.534.534 0 0 1-.497.25c-.247-.013-.495-.002-.743-.002zm6.312-7.24l-1.224-1.687 1.41-1.95c.3-.412.601-.822.895-1.237a.596.596 0 0 1 .534-.275c.495.007.99-.006 1.483.008.102.002.263.055.289.124a.464.464 0 0 1-.042.364c-.21.33-.45.643-.679.962l-2.601 3.604zm-.002 2.117l1.044 1.444q1.097 1.521 2.19 3.046a1.088 1.088 0 0 1 .18.363c.038.162-.052.268-.228.269-.567.002-1.136.01-1.703-.01a.519.519 0 0 1-.343-.193c-.77-1.04-1.528-2.09-2.284-3.139a.186.186 0 0 1-.01-.17c.372-.529.751-1.052 1.154-1.61z" fill="#fff"/></svg>