<svg xmlns="http://www.w3.org/2000/svg" viewBox="1.76 1.001 10.481 12"><path d="M2.818 12.996c-.26 0-.522.002-.782 0-.232-.002-.334-.149-.24-.363.055-.121.137-.23.215-.338 1.221-1.697 2.442-3.394 3.668-5.087.108-.148.113-.245 0-.4a1048.683 1048.683 0 0 1-3.8-5.253.656.656 0 0 1-.114-.266c-.028-.168.06-.279.231-.28.543-.007 1.086-.019 1.628.01.136.006.306.123.39.24 1.364 1.865 2.713 3.738 4.073 5.605.081.112.084.18.003.29-.91 1.245-1.814 2.493-2.72 3.74-.45.621-.904 1.24-1.352 1.863-.12.168-.267.254-.48.243-.24-.013-.48-.003-.72-.003 0-.002 0 0 0 0zm6.112-7.01L7.743 4.353 9.11 2.465c.289-.398.581-.795.866-1.197a.577.577 0 0 1 .517-.267c.479.007.958-.005 1.436.008.099.003.255.054.28.121a.45.45 0 0 1-.04.352c-.205.32-.436.622-.658.931a8893.686 8893.686 0 0 0-2.582 3.573zm-.002 2.05l1.01 1.398c.708.982 1.417 1.965 2.12 2.95.076.105.144.226.174.35.037.158-.05.26-.22.261-.55.002-1.1.01-1.649-.01a.502.502 0 0 1-.331-.186 295.461 295.461 0 0 1-2.213-3.04c-.028-.039-.035-.129-.009-.165.36-.51.728-1.017 1.118-1.558z"/></svg>