<svg id="Layer_1" xmlns="http://www.w3.org/2000/svg" viewBox="0 0 14 14"><style></style><path d="M0 6.09c.138-.216.12-.472.177-.708A6.973 6.973 0 0 1 5.995.078a6.971 6.971 0 0 1 7.26 3.801c.027.054.048.11.072.165-.504.023-.988.138-1.469.287-.516.16-1.042.285-1.557.447-.19.06-.31.023-.454-.103C8.614 3.603 7.37 2.543 6.14 1.469c-.201-.176-.374-.171-.6-.048.679.905 1.338 1.8 2.015 2.68.242.315.427.647.55 1.023.06.185.067.264-.16.327-1.06.292-2.12.59-3.158.958C3.223 6.962 1.65 7.494.08 8.035.05 7.99.078 7.912 0 7.895V6.088zm13.586-1.4c.736 2.145.487 4.185-.718 6.091-1.488 2.353-4.402 3.613-7.058 3.098-2.937-.57-5.13-2.695-5.671-5.497 1.771-.414 3.542-.832 5.315-1.24.926-.214 1.832-.501 2.748-.749.087-.024.228-.14.264.05.056.293.176.573.148.883-.1 1.106-.193 2.213-.287 3.32-.012.143-.045.287-.006.428.278-.011.397-.142.472-.388.47-1.55.962-3.093 1.436-4.642.06-.197.164-.274.357-.338 1.004-.328 2.077-.453 3-1.016z" fill="#203660"/><path d="M13.586 4.69c-.923.563-1.996.688-3 1.016-.193.064-.296.141-.357.338-.474 1.549-.965 3.092-1.436 4.642-.075.246-.194.377-.472.388-.04-.141-.006-.285.006-.428.094-1.107.187-2.214.287-3.32.028-.31-.092-.59-.148-.883-.036-.19-.177-.074-.264-.05-.916.248-1.822.535-2.748.748-1.773.41-3.544.827-5.315 1.241L.08 8.035c1.57-.54 3.143-1.073 4.708-1.626 1.039-.368 2.097-.666 3.158-.958.227-.063.22-.142.16-.327a3.393 3.393 0 0 0-.55-1.022C6.88 3.22 6.22 2.326 5.542 1.422c.225-.124.398-.129.6.047 1.23 1.074 2.472 2.134 3.705 3.206.144.126.264.163.454.103.515-.162 1.041-.287 1.557-.447.48-.15.965-.264 1.469-.287.108.207.201.419.259.646z" fill="#f2b516"/></svg>