<svg xmlns="http://www.w3.org/2000/svg" viewBox="0 0 14 14"><path d="M13.33 13.9H.67a.6.6 0 0 1-.599-.6V9.747a.6.6 0 1 1 1.2 0V12.7h11.458V9.747a.6.6 0 1 1 1.2 0V13.3a.6.6 0 0 1-.6.6z"/><path d="M3.656 7.495l2.816 2.703a.594.594 0 0 0 .157.101c.008.004.012.014.02.018.003.001.007 0 .01.002.073.03.15.047.229.047a.598.598 0 0 0 .224-.045c.023-.01.042-.028.064-.04.042-.024.086-.044.122-.078l2.916-2.734a.6.6 0 1 0-.82-.875L7.486 8.381V.7a.6.6 0 1 0-1.199 0v7.658l-1.8-1.728a.6.6 0 1 0-.832.865z"/></svg>