<svg xmlns="http://www.w3.org/2000/svg" viewBox="0 0 14 14"><path fill="#19171D" d="M12.576 0H3.839c-.746 0-1.352.607-1.352 1.353v5.263H1.424c-.746 0-1.353.606-1.353 1.352v4.68C.071 13.392.678 14 1.424 14h4.678c.746 0 1.353-.607 1.353-1.353v-1.204h5.121c.746 0 1.353-.607 1.353-1.353V1.353C13.929.607 13.322 0 12.576 0zM6.234 12.647a.13.13 0 0 1-.132.13H1.424a.13.13 0 0 1-.131-.13V7.968a.13.13 0 0 1 .131-.13h4.678a.13.13 0 0 1 .132.13v4.68zm6.473-2.557a.13.13 0 0 1-.131.13h-5.12V8.13c.024 0 .017-.002 0-.005v-.157a1.34 1.34 0 0 0-.103-.503l2.38-2.38v2.036a.611.611 0 1 0 1.222 0v-3.51a.61.61 0 0 0-.38-.566.61.61 0 0 0-.202-.04c-.01 0-.019-.006-.03-.006L6.833 3a.61.61 0 1 0 0 1.223l2.035-.001-2.456 2.456c-.102-.025-.2-.062-.31-.062H3.71V1.353a.13.13 0 0 1 .13-.13h8.737a.13.13 0 0 1 .131.13v8.737z"/></svg>