<svg xmlns="http://www.w3.org/2000/svg" viewBox="0 0 14 14"><path fill="#231F20" d="M13.571 3.988c0-.144-.004-.305-.036-.476l.054-.018-.101-.163a1.251 1.251 0 0 0-.289-.466l-.079-.075c-.506-.55-1.184-.733-1.679-.867-.26-.07-.507-.136-.744-.24l-1.953-.67C7.993.693 7.108.383 6.087.736a295.51 295.51 0 0 1-4.371 1.48C.854 2.5.404 3.14.413 4.065c.02 2.094.02 3.942-.002 5.651-.012.944.43 1.587 1.319 1.913.89.327 1.774.667 2.659 1.007l.825.322c.544.24 1.12.462 1.764.462.284 0 .581-.043.895-.147.509-.191 1.028-.383 1.55-.575 1.045-.387 2.126-.785 3.153-1.192.458-.183 1.004-.611.999-1.618a684.265 684.265 0 0 1-.004-3.791v-2.11zm-7.063 7.124l-.026 1.249c-.048-.012-.099-.027-.158-.043l-.891-.344H5.43l-.537-.205a186.67 186.67 0 0 0-2.82-1.07c-.503-.184-.679-.438-.671-.97.022-1.676.023-3.532.002-5.674-.005-.504.164-.747.622-.898A279.284 279.284 0 0 0 6.414 1.67c.607-.214 1.27-.027 1.865.221l-.598.285c-1.254.478-2.51.955-3.766 1.43-1.252.474-1.529.963-1.287 2.275.089.49.413.752.988.802.192.023.343-.024.442-.125.163-.164.139-.417.119-.62l-.009-.097c-.04-.616.212-.963.872-1.198a87.946 87.946 0 0 0 3.65-1.415c.108-.044.22-.082.33-.119l1.417-.458.103.035c.222.08.446.14.652.197.17.046.336.091.49.143l-.046.018-.298.105-.249.089a68.35 68.35 0 0 0-1.144.442l-.039.015c-.613.243-1.248.494-1.898.713-1.037.351-1.533 1.079-1.515 2.223.025 1.545.02 3.106.015 4.481z"/></svg>