<svg xmlns="http://www.w3.org/2000/svg" xmlns:xlink="http://www.w3.org/1999/xlink" viewBox="0 0 14 14"><defs><path id="a" d="M-410.978-481.11c.577 0 1.087.217 1.528.651.442.434.663.946.663 1.537v15.572c0 .59-.221 1.112-.663 1.563-.441.451-.95.677-1.528.677h-4.331l-3.26 3.333-3.262-3.333h-4.33c-.612 0-1.13-.226-1.555-.677s-.637-.972-.637-1.563v-15.572c0-.59.213-1.103.637-1.537s.943-.651 1.554-.651h15.184z"/></defs><clipPath id="b"><use xlink:href="#a" overflow="visible"/></clipPath><g clip-path="url(#b)"><defs><path id="c" d="M-732.353-588.11h1441v1181h-1441z"/></defs><clipPath id="d"><use xlink:href="#c" overflow="visible"/></clipPath><path opacity=".116" clip-path="url(#d)" fill="#3EC6EF" d="M-433.353-486.11h29.565v33.333h-29.565z"/></g><defs><path id="e" d="M-418.383-467.928c-.77-.024-1.406.521-1.43 1.376-.024.853.58 1.418 1.351 1.44.804.025 1.423-.502 1.448-1.357.023-.854-.564-1.435-1.369-1.459zm2.942-8.774c-.771-.568-1.74-.852-2.906-.852-.887 0-1.635.2-2.243.6-.965.626-1.478 1.69-1.54 3.19h2.236c0-.437.125-.857.374-1.264.25-.405.673-.607 1.27-.607.608 0 1.026.164 1.254.493.23.33.344.694.344 1.093 0 .349-.17.668-.377.957a1.972 1.972 0 0 1-.447.466s-1.212.795-1.745 1.433c-.308.37-.336.925-.364 1.72-.001.057.02.175.213.175h1.74c.172 0 .208-.13.21-.19a2.11 2.11 0 0 1 .096-.605c.097-.316.364-.59.662-.829l.615-.433c.556-.443 1-.806 1.195-1.091.334-.467.57-1.044.57-1.728 0-1.117-.386-1.958-1.157-2.528z"/></defs><clipPath id="f"><use xlink:href="#e" overflow="visible"/></clipPath><g clip-path="url(#f)"><defs><path id="g" d="M-732.353-588.11h1441v1181h-1441z"/></defs><clipPath id="h"><use xlink:href="#g" overflow="visible"/></clipPath><path clip-path="url(#h)" fill="#00A8CC" d="M-427.13-482.554h17.846v22.444h-17.846z"/></g><path fill="#010101" d="M9.031 5.5c.417-.417.625-.917.625-1.5 0-.73-.26-1.36-.781-1.89S7.729 1.312 7 1.312s-1.354.265-1.875.796S4.344 3.271 4.344 4h1.312c0-.354.136-.667.407-.938.27-.27.583-.406.937-.406s.667.136.938.406c.27.271.406.584.406.938s-.136.667-.406.938l-.813.843c-.52.563-.781 1.188-.781 1.875V8h1.312c0-.708.26-1.344.782-1.906L9.03 5.5zm-1.375 5.156V9.312H6.344v1.344h1.312zm4-10.656c.354 0 .667.13.938.39s.406.568.406.922v9.344c0 .354-.135.667-.406.938s-.584.406-.938.406H9l-2 2-2-2H2.344c-.375 0-.693-.135-.953-.406S1 11.01 1 10.656V1.312c0-.354.13-.661.39-.921S1.97 0 2.345 0h9.312z"/></svg>