<svg xmlns="http://www.w3.org/2000/svg" viewBox="0 0 14 14"><path d="M5.9 0H.15A.15.15 0 0 0 0 .15V5.9c0 .082.067.15.15.15H5.9a.15.15 0 0 0 .15-.15V.15A.15.15 0 0 0 5.9 0zM4.75 4.4a.35.35 0 0 1-.35.35H1.65a.35.35 0 0 1-.35-.35V1.65a.35.35 0 0 1 .35-.35H4.4a.35.35 0 0 1 .35.35V4.4zm9.1-4.4H8.1a.15.15 0 0 0-.15.15V5.9c0 .082.067.15.15.15h5.75A.15.15 0 0 0 14 5.9V.15a.15.15 0 0 0-.15-.15zM12.7 4.4a.35.35 0 0 1-.35.35H9.6a.35.35 0 0 1-.35-.35V1.65a.35.35 0 0 1 .35-.35h2.75a.35.35 0 0 1 .35.35V4.4zM5.9 7.95H.15A.15.15 0 0 0 0 8.1v5.75c0 .083.067.15.15.15H5.9a.15.15 0 0 0 .15-.15V8.1a.15.15 0 0 0-.15-.15zm-1.15 4.4a.35.35 0 0 1-.35.35H1.65a.35.35 0 0 1-.35-.35V9.6a.35.35 0 0 1 .35-.35H4.4a.35.35 0 0 1 .35.35v2.75zm9.1-4.4H8.1a.15.15 0 0 0-.15.15v5.75c0 .083.067.15.15.15h5.75a.15.15 0 0 0 .15-.15V8.1a.15.15 0 0 0-.15-.15zm-1.15 4.4a.35.35 0 0 1-.35.35H9.6a.35.35 0 0 1-.35-.35V9.6a.35.35 0 0 1 .35-.35h2.75a.35.35 0 0 1 .35.35v2.75z"/></svg>