<svg xmlns="http://www.w3.org/2000/svg" viewBox="0 0 14 14"><path d="M12.647 2.372L10.182.302A1.293 1.293 0 0 0 9.351 0H1.919A.919.919 0 0 0 1 .919V13.08c0 .508.411.919.919.919H12.08a.919.919 0 0 0 .919-.919V3.13a.99.99 0 0 0-.353-.758zm-1.194.564H9.805V1.552l1.648 1.384zM2.2 12.8V1.2h6.405v2.336a.6.6 0 0 0 .6.6H11.8V12.8H2.2zm6.65-5.79c-.1.1-.23.15-.36.15s-.25-.05-.35-.15l-.64-.64v3.92c0 .28-.22.5-.5.5s-.5-.22-.5-.5V6.31l-.64.65c-.19.19-.51.19-.71 0a.513.513 0 0 1 0-.71l1.47-1.47c.19-.19.52-.19.71 0L8.85 6.3c.19.2.19.51 0 .71z"/></svg>