<svg xmlns="http://www.w3.org/2000/svg" viewBox="0 0 14 14"><path d="M7 5.401H3.897a.5.5 0 1 1 0-1H7a.5.5 0 1 1 0 1zM10.101 8.214H3.897a.5.5 0 1 1 0-1h6.204a.5.5 0 1 1 0 1zM10.101 11.074H3.897a.5.5 0 1 1 0-1h6.204a.5.5 0 1 1 0 1z"/><path d="M12.647 2.372L10.182.302A1.293 1.293 0 0 0 9.351 0H1.919A.919.919 0 0 0 1 .919V13.08c0 .508.411.919.919.919H12.08a.919.919 0 0 0 .919-.919V3.13a.99.99 0 0 0-.353-.758zm-1.194.564H9.805V1.552l1.648 1.384zM2.2 12.8V1.2h6.405v2.336a.6.6 0 0 0 .6.6H11.8V12.8H2.2z"/></svg>