<svg xmlns="http://www.w3.org/2000/svg" viewBox="0 0 12 12"><path d="M11.556 2.512h-1.162c-.224-.86-1-1.5-1.93-1.5s-1.704.64-1.928 1.5H.444a.5.5 0 1 0 0 1h6.092c.224.86 1 1.5 1.929 1.5s1.705-.64 1.929-1.5h1.162a.5.5 0 1 0 0-1zm-3.091 1.5a.986.986 0 0 1-.847-.5c-.088-.15-.153-.314-.153-.5s.065-.35.153-.5c.175-.294.481-.5.847-.5s.672.206.846.5c.089.15.154.314.154.5s-.065.35-.154.5a.986.986 0 0 1-.846.5zm3.091 4.493H5.464c-.224-.86-1-1.5-1.929-1.5s-1.705.64-1.929 1.5H.444a.5.5 0 1 0 0 1h1.162c.224.86 1 1.5 1.93 1.5s1.704-.64 1.928-1.5h6.092a.5.5 0 1 0 0-1zm-8.02 1.5a.986.986 0 0 1-.847-.5c-.09-.15-.154-.314-.154-.5s.065-.35.154-.5c.174-.293.48-.5.846-.5s.672.207.847.5c.088.15.153.314.153.5s-.065.35-.153.5a.986.986 0 0 1-.847.5z"/></svg>