<svg xmlns="http://www.w3.org/2000/svg" viewBox="0 0 14 14"><path d="M.616 11.848c-.204 0-.349-.05-.456-.158a.493.493 0 0 1-.16-.37l.025-.203 2.46-8.053c.079-.26.233-.473.474-.65a1.38 1.38 0 0 1 .831-.262c.302 0 .57.087.797.26.232.176.394.397.482.66l2.465 8.191c.017.159 0 .27-.14.412-.11.108-.255.159-.458.159a.614.614 0 0 1-.381-.13.556.556 0 0 1-.218-.278L5.591 9.07H1.975l-.73 2.334a.568.568 0 0 1-.228.308.638.638 0 0 1-.4.136zM3.45 4.214c-.15.382-.252.79-.373 1.181L2.5 7.25l-.22.707h2.955l-.317-1.054-.576-1.915c-.06-.202-.123-.403-.182-.605-.156-.539-.21-.559-.34-.559-.219 0-.24.118-.253.135a.29.29 0 0 0-.04.068 4.055 4.055 0 0 0-.078.187zm7.421 7.634a2.06 2.06 0 0 1-.812-.159 2.17 2.17 0 0 1-.662-.43A1.964 1.964 0 0 1 8.8 9.837c0-.271.053-.528.157-.764.107-.244.254-.463.438-.651.182-.186.4-.333.648-.437.25-.107.528-.16.827-.16h1.987v-.751c0-.31-.089-.568-.261-.765a.893.893 0 0 0-.682-.31H9.726c-.195 0-.33-.046-.428-.144a.473.473 0 0 1-.144-.354.52.52 0 0 1 .147-.365c.092-.1.221-.148.41-.148h2.322a1.914 1.914 0 0 1 1.413.587c.172.18.309.398.406.648.099.253.148.525.148.806v4.13a.64.64 0 0 1-.201.49c-.138.136-.312.2-.546.2h-2.382zm-.014-2.999a.9.9 0 0 0-.67.306 1.02 1.02 0 0 0-.273.71.94.94 0 0 0 .286.702.92.92 0 0 0 .657.27h1.986V8.85h-1.986z"/></svg>