<svg xmlns="http://www.w3.org/2000/svg" viewBox="0 0 8.477 12"><path d="M.084 6.25L0 1.448C-.016.507.36.122 1.311.104 3.291.068 5.27.034 7.248.001c1-.017 1.358.36 1.19 1.337a375.527 375.527 0 0 1-1.065 5.82c-.13.69-.423.906-1.14.92-.481.008-.964.037-1.444.018-.338-.014-.553.12-.759.373-.865 1.058-1.747 2.102-2.62 3.153-.21.252-.439.468-.797.34-.366-.13-.438-.444-.444-.79-.027-1.64-.056-3.28-.085-4.921zM1.43 9.769c.167-.19.256-.282.336-.382.58-.72 1.163-1.437 1.734-2.164.201-.256.436-.381.768-.374.481.012.963-.024 1.445-.016.352.006.53-.16.587-.49.063-.371.132-.741.188-1.114.062-.412-.086-.587-.498-.584-.6.004-1.198.021-1.797.028-.468.006-.623-.141-.63-.584-.007-.437.144-.584.621-.594.73-.015 1.458-.03 2.188-.038.303-.004.49-.13.542-.442.063-.371.146-.739.202-1.11.078-.514-.036-.642-.543-.633-1.563.025-3.125.053-4.688.081-.54.01-.626.102-.616.654.041 2.422.084 4.844.127 7.266.002.125.016.25.034.496z"/></svg>