<svg xmlns="http://www.w3.org/2000/svg" viewBox="0 0 10.9 12"><path d="M0 6.184v-4.85C.002.384.389.002 1.356 0l6.023.001C8.394.002 8.751.39 8.562 1.372A377.398 377.398 0 0 1 7.38 7.228c-.144.693-.446.907-1.173.908-.489 0-.979.021-1.466-.007-.342-.02-.563.112-.776.363-.896 1.053-1.81 2.092-2.715 3.137-.217.25-.453.465-.814.329-.369-.139-.436-.456-.436-.805.002-1.656 0-3.313 0-4.969zm1.303 3.574c.174-.189.265-.28.348-.38.601-.716 1.206-1.43 1.798-2.153.209-.255.449-.378.785-.364.488.02.978-.007 1.467.009.357.012.541-.152.604-.484.071-.374.147-.747.21-1.121.07-.415-.076-.594-.495-.599-.607-.007-1.215 0-1.823-.003-.475-.002-.63-.153-.629-.601.001-.44.157-.587.641-.588.74-.003 1.48-.004 2.22 0 .308.001.5-.123.558-.437.07-.373.162-.743.225-1.117.088-.517-.025-.648-.54-.648a2346.97 2346.97 0 0 0-4.757 0c-.549 0-.637.09-.637.649v7.336c0 .125.012.251.025.5zm6.524-.651h1.11v-.944H8.82l-.993.838z"/><path d="M10.68 8.163H9.174v1.165h-.001v.008H7.827v2.45c0 .119.098.214.22.214h2.634c.121 0 .22-.095.22-.213v-3.41a.216.216 0 0 0-.22-.214zm-.466 3.244H8.513v-.229h1.701v.23zm0-.636H8.513v-.229h1.701v.229zm0-.636H8.513v-.229h1.701v.229z"/></svg>