<svg xmlns="http://www.w3.org/2000/svg" viewBox="0.979 4.638 12 4.724"><path d="M.98 9.276c0 .047.038.086.085.086h1.062a.086.086 0 0 0 .086-.086V7.6c0-.048.04-.086.086-.086H4a.086.086 0 0 0 .086-.086v-.843A.086.086 0 0 0 4 6.499H2.3a.086.086 0 0 1-.087-.086v-.611c0-.048.04-.086.086-.086h1.99a.086.086 0 0 0 .085-.086v-.906a.086.086 0 0 0-.086-.086H1.065a.086.086 0 0 0-.086.086v4.552zm7.529-3.078c0-.194-.031-.386-.09-.572a1.38 1.38 0 0 0-.821-.856c-.211-.088-.676-.125-.676-.125a2.6 2.6 0 0 0-.171-.007H4.78a.086.086 0 0 0-.087.086v4.552c0 .047.039.086.086.086h1.062a.086.086 0 0 0 .086-.086V7.844c0-.047.038-.086.086-.086h.737a2.6 2.6 0 0 0 .171-.007s.465-.037.676-.125a1.372 1.372 0 0 0 .82-.86c.06-.187.09-.378.09-.568zm-1.26.284a.411.411 0 0 1-.146.157.63.63 0 0 1-.23.08c-.097.016-.22.02-.22.02a5.735 5.735 0 0 1-.172.004h-.467a.086.086 0 0 1-.086-.086v-.918c0-.047.038-.086.086-.086h.467l.172.003s.123.005.22.02a.64.64 0 0 1 .23.08.41.41 0 0 1 .147.158c.037.068.056.164.056.284s-.02.216-.056.284z"/><path d="M11.42 6.97a.14.14 0 0 1 0-.142l1.422-2.118c.026-.04.01-.072-.038-.072h-1.208a.175.175 0 0 0-.132.073l-.746 1.172c-.026.04-.067.04-.091-.001l-.72-1.17a.171.171 0 0 0-.13-.074H8.503c-.048 0-.065.032-.038.071l1.429 2.113a.139.139 0 0 1 0 .143L8.347 9.29c-.026.04-.008.072.039.072h1.233a.176.176 0 0 0 .132-.073l.833-1.295c.026-.04.067-.04.093 0l.817 1.295c.025.04.085.073.132.073h1.303c.047 0 .064-.032.038-.072L11.42 6.97z"/></svg>