<svg xmlns="http://www.w3.org/2000/svg" viewBox="0 0 14 14"><text transform="translate(0 -2.742)"><tspan x="0" y="0" fill="#FFF" font-family="'MyriadPro-Regular'" font-size="1.987">Funding </tspan><tspan x="0" y="2.385" fill="#FFF" font-family="'MyriadPro-Regular'" font-size="1.987">Source</tspan></text><path d="M8.494 9.448h-.001c-.268-.684-1.044-.964-1.466-1.117-.234-.084-.53-.202-.724-.376a.348.348 0 0 1-.092-.362c.017-.045.07-.18.304-.229.267-.056.628.042.8.22.063.066.108.15.126.236.058.272.335.45.6.395a.511.511 0 0 0 .397-.6 1.51 1.51 0 0 0-.395-.74 1.795 1.795 0 0 0-.66-.415v-.432a.509.509 0 0 0-1.016 0v.33l-.058.01c-.503.105-.875.41-1.048.862a1.37 1.37 0 0 0 .366 1.485c.322.286.714.45 1.058.573.228.082.76.275.86.53.03.076-.007.221-.108.31-.222.191-.615.167-.866.033a.587.587 0 0 1-.302-.366.508.508 0 1 0-.993.217c.095.432.4.823.813 1.045.09.048.182.089.278.122v.391a.509.509 0 0 0 1.016 0v-.328c.278-.057.524-.175.722-.348.419-.364.578-.958.389-1.446z"/><path d="M13.946 8.964c-.454-3.12-3.808-5.351-4.897-6L10.335.779a.522.522 0 0 0-.45-.787L4.003-.014H4a.522.522 0 0 0-.457.776l1.269 2.286C3.599 3.794.49 5.971.055 8.964c-.347 2.385 1.86 3.956 3.996 4.607.65.197 1.331.293 2.01.334.427.025.876.05 1.32.05.269 0 .536-.01.795-.032a8.815 8.815 0 0 0 3.032-.84c1.66-.8 3.01-2.242 2.738-4.12zM8.972 1.036l-.967 1.642c-.016.027-.02.057-.03.086H5.833c-.009-.025-.01-.051-.023-.075l-.921-1.657 4.083.004zm1.777 11.093a7.755 7.755 0 0 1-2.664.74 8.157 8.157 0 0 1-.704.026c-.43 0-.874-.024-1.256-.047-.681-.041-1.259-.136-1.766-.29-.6-.183-3.58-1.209-3.256-3.442.397-2.73 3.61-4.785 4.476-5.293h2.843c.868.509 4.079 2.564 4.476 5.293.243 1.668-1.422 2.663-2.15 3.013z"/></svg>