<svg xmlns="http://www.w3.org/2000/svg" viewBox="0 0 14 14"><text transform="translate(0 -2.742)"><tspan x="0" y="0" fill="#FFF" font-family="'MyriadPro-Regular'" font-size="1.987">Funding </tspan><tspan x="0" y="2.385" fill="#FFF" font-family="'MyriadPro-Regular'" font-size="1.987">Instruments</tspan></text><path d="M12.546 2.173H1.47c-.815 0-1.476.66-1.476 1.475v1.34c-.004.026-.015.05-.015.077s.011.05.015.076v5.211c0 .815.66 1.475 1.476 1.475h11.076c.815 0 1.475-.66 1.475-1.475V3.648c0-.815-.66-1.475-1.475-1.475zM1.47 3.217h11.076a.43.43 0 0 1 .43.43v.895H1.04v-.894a.43.43 0 0 1 .43-.43zm11.076 7.566H1.47a.431.431 0 0 1-.431-.43V5.586h11.938v4.765a.43.43 0 0 1-.431.43z"/><path fill="none" d="M10.495 9.208a.572.572 0 0 0 .21.043c.32 0 .582-.262.582-.582s-.262-.582-.583-.582a.572.572 0 0 0-.21.043c.079.165.13.344.13.539s-.051.374-.13.54z"/><path d="M10.704 7.388c-.256 0-.48.094-.681.224-.2-.13-.426-.224-.682-.224a1.282 1.282 0 0 0 0 2.562c.256 0 .482-.094.682-.224.2.13.425.224.681.224a1.282 1.282 0 0 0 0-2.562zM9.341 9.25c-.32 0-.582-.262-.582-.582s.262-.582.582-.582c.075 0 .145.017.21.043.218.084.373.293.373.539s-.155.455-.372.54a.576.576 0 0 1-.21.042zm1.363 0a.572.572 0 0 1-.21-.043c.079-.165.13-.344.13-.539s-.051-.374-.13-.54a.572.572 0 0 1 .21-.042c.32 0 .583.262.583.582s-.262.582-.583.582z"/></svg>