<svg xmlns="http://www.w3.org/2000/svg" viewBox="0 0 14 14"><g fill="#323232"><path d="M10.868 14L7.017 6.998 14 10.848h-3.092z"/><path d="M8.858 12.553c-.6.205-1.24.322-1.908.322-3.266 0-5.923-2.658-5.923-5.924S3.684 1.028 6.95 1.028s5.923 2.657 5.923 5.923c0 .659-.113 1.29-.313 1.882l.908.501a6.88 6.88 0 0 0 .433-2.383C13.901 3.118 10.784 0 6.951 0S0 3.118 0 6.951s3.118 6.951 6.951 6.951c.848 0 1.655-.163 2.406-.443l-.499-.906z"/><path d="M7.788 10.607a3.67 3.67 0 0 1-.837.108c-2.075 0-3.764-1.689-3.764-3.764s1.688-3.764 3.764-3.764 3.764 1.688 3.764 3.764c0 .279-.042.547-.101.809l1.019.562c.129-.435.199-.894.199-1.37 0-2.691-2.19-4.881-4.881-4.881S2.07 4.259 2.07 6.951s2.19 4.882 4.881 4.882a4.82 4.82 0 0 0 1.398-.207l-.561-1.019z"/><path d="M6.809 8.825a1.885 1.885 0 0 1-1.747-1.874A1.89 1.89 0 0 1 6.95 5.063c.98 0 1.778.753 1.87 1.708l.642.354c.006-.058.016-.115.016-.174 0-1.393-1.133-2.527-2.527-2.527S4.424 5.557 4.424 6.951s1.133 2.527 2.527 2.527c.071 0 .138-.011.207-.018l-.349-.635z"/></g></svg>