<svg data-name="Layer 1" xmlns="http://www.w3.org/2000/svg" viewBox="0 0 14 14"><path d="M7 3.733a2.487 2.487 0 0 0-2.512 2.462c0 .974 1.292 2.84 2.023 3.817a.614.614 0 0 0 .978 0c.731-.977 2.024-2.842 2.024-3.817A2.487 2.487 0 0 0 7 3.733zM7 7.17a1.024 1.024 0 1 1 1.045-1.024A1.034 1.034 0 0 1 7 7.17z"/><path d="M13.526 6.494h-.418A6.136 6.136 0 0 0 7.5.886V.468a.5.5 0 0 0-1 0v.418A6.137 6.137 0 0 0 .892 6.494H.473a.5.5 0 1 0 0 1h.42A6.137 6.137 0 0 0 6.5 13.103v.418a.5.5 0 0 0 1 0v-.418a6.136 6.136 0 0 0 5.608-5.609h.418a.5.5 0 0 0 0-1zM7.5 12.078v-.343a.5.5 0 0 0-1 0v.343a5.107 5.107 0 0 1-4.582-4.584h.342a.5.5 0 1 0 0-1h-.342A5.107 5.107 0 0 1 6.5 1.911v.343a.5.5 0 0 0 1 0v-.343a5.107 5.107 0 0 1 4.583 4.583h-.342a.5.5 0 0 0 0 1h.342A5.107 5.107 0 0 1 7.5 12.078z"/></svg>