<svg xmlns="http://www.w3.org/2000/svg" viewBox="0 0 14 14"><path d="M8.774 1.07c-.29 0-.579.033-.861.098a3.635 3.635 0 0 0-.985 6.664c.38.215.615.616.62 1.053v.57l2.477.067-.007-.637c.004-.436.24-.837.618-1.053A3.634 3.634 0 0 0 8.774 1.07zm1.251 9.519H7.54a1.075 1.075 0 0 1-1.06-1.134v-.57c0-.073-.074-.122-.097-.136A4.702 4.702 0 0 1 7.675.127a4.752 4.752 0 0 1 4.04.898 4.696 4.696 0 0 1-.534 7.724c-.022.014-.096.063-.096.136v.645a1.061 1.061 0 0 1-1.06 1.059zm.465 1.814H7.12a.534.534 0 0 1 0-1.067h3.372a.534.534 0 1 1 0 1.067zM10.233 14h-2.9a.534.534 0 1 1 0-1.067h2.9a.534.534 0 0 1 0 1.067zM2.878 7.121a.433.433 0 0 0-.012.613l1.249 1.301H.94a.433.433 0 1 0 0 .867h3.19l-1.29 1.377a.433.433 0 1 0 .632.593l1.976-2.107c.025-.026.039-.058.056-.088.009-.016.022-.03.03-.047a.432.432 0 0 0-.003-.327c-.004-.013-.01-.016-.014-.022a.429.429 0 0 0-.072-.113L3.49 7.133a.434.434 0 0 0-.613-.012z"/></svg>