<svg xmlns="http://www.w3.org/2000/svg" viewBox="0 0 11.91 12"><g fill-rule="evenodd" clip-rule="evenodd"><path d="M9.942 7.2l1.243-1.774S9.703 3.81 7.353 3.86 3.8 4.59 3.418 5.843c-.383 1.252-.157 2.667.517 3.026l-1.139 1.774-.518.104-.103-1.356-1.347-.418.518-1.356L0 6.574 1.14 5.53.103 4.487l1.45-.835-.311-1.46h1.553V.73l1.554.522L5.074 0l1.243 1.043 1.14-.939.724 1.357 1.45-.313v1.565h1.45l-.518 1.46 1.347.94-.933 1.148.829 1.147-.932.522-.932-.73z"/><path d="M9.217 6.887l.828-1.357s-.836-.843-2.796-.835c-1.96.009-3.092.7-3.107 1.879-.014 1.178.17 1.766.829 2.086.658.32 2.476.425 2.796.73.32.307.678 1.02-.725 1.044S4.66 9.6 4.66 9.6l-1.035 1.357S4.898 11.981 6.421 12c1.523.02 3.692-.407 3.832-1.67.139-1.261-.085-1.964-.829-2.295-.744-.33-3.132-.521-3.107-1.252.026-.73.819-.676 1.347-.521s1.553.626 1.553.626z"/></g></svg>