<svg xmlns="http://www.w3.org/2000/svg" viewBox="3.043 1 7.914 12"><path d="M4.949 10.353c.029.81.237 1.06.992 1.186.733.123 1.472.154 2.192-.063a1.89 1.89 0 0 0 .672-.379c.299-.26.281-.633-.002-.912-.323-.317-.743-.429-1.168-.49-.674-.095-1.36-.12-2.028-.241-.518-.094-1.045-.23-1.52-.451-.884-.412-1.045-1.276-.396-2.004.249-.28.58-.486.83-.69-.122-.144-.27-.332-.435-.506-1.225-1.292-.78-3.382.659-4.265 1.23-.755 2.87-.713 4.048.118l.113.074c.676-.592 1.252-.796 2.051-.712v1.339l-1.35.176c.355.563.493 1.1.476 1.685-.04 1.37-.82 2.333-2.171 2.6-.454.09-.927.081-1.391.124-.306.028-.613.052-.915.106-.215.039-.382.164-.385.414a.418.418 0 0 0 .366.434c.522.091 1.05.145 1.576.214.71.092 1.433.133 2.13.29.817.182 1.409.665 1.568 1.553.172.953-.194 1.684-.947 2.236-.782.574-1.694.759-2.64.8-.947.04-1.888-.012-2.793-.33-.464-.162-.883-.4-1.17-.824-.274-.404-.31-.853-.233-1.316.01-.064.13-.157.202-.158.55-.014 1.099-.008 1.669-.008zm1.84-4.917c.8.004 1.426-.615 1.43-1.413a1.405 1.405 0 0 0-1.415-1.429c-.839-.003-1.464.591-1.474 1.4-.01.822.614 1.439 1.459 1.442z"/></svg>