<svg xmlns="http://www.w3.org/2000/svg" viewBox="0 0 14 14"><path d="M5.226 1.07c.29 0 .579.033.861.098a3.635 3.635 0 0 1 .985 6.664c-.38.215-.615.616-.62 1.053v.57l-2.477.067.007-.637a1.225 1.225 0 0 0-.618-1.053A3.634 3.634 0 0 1 5.226 1.07zm-1.251 9.519H6.46a1.075 1.075 0 0 0 1.06-1.134v-.57c0-.073.074-.122.097-.136A4.702 4.702 0 0 0 6.325.127a4.752 4.752 0 0 0-4.04.898 4.696 4.696 0 0 0 .534 7.724c.022.014.096.063.096.136v.645a1.061 1.061 0 0 0 1.06 1.059zm-.465 1.814h3.37a.534.534 0 1 0 0-1.067H3.509a.534.534 0 1 0 0 1.067zM3.767 14h2.9a.534.534 0 1 0 0-1.067h-2.9a.534.534 0 0 0 0 1.067zm7.355-6.879c.173.165.179.44.012.613L9.885 9.035h3.174a.433.433 0 1 1 0 .867h-3.19l1.291 1.377a.433.433 0 1 1-.632.593L8.552 9.765c-.025-.026-.039-.058-.056-.088-.009-.016-.022-.03-.03-.047a.432.432 0 0 1 .003-.327c.004-.013.01-.016.014-.022a.41.41 0 0 1 .072-.113l1.954-2.035a.434.434 0 0 1 .613-.012z"/></svg>