<svg xmlns="http://www.w3.org/2000/svg" viewBox="0 0 14 14"><path fill="#F2F2F2" d="M13.261 3.284l-.894 9.157H1.633l-.72-8.98L7 6.939z"/><path fill="#F2F2F2" d="M12.958 1.559L7 7.269 1.042 1.56H7z"/><path fill="#F14336" d="M1.633 4.196v8.245H.66a.667.667 0 0 1-.66-.673V2.98l1.066.03.567 1.185z"/><path fill="#D32E2A" d="M14 2.981v8.787a.667.667 0 0 1-.66.673h-.973V4.196l.539-1.298L14 2.98z"/><path fill="#F14336" d="M14 2.232v.75l-1.633 1.214L7 8.188 1.633 4.196 0 2.98v-.749c0-.372.296-.673.66-.673h.382L7 5.989l5.958-4.43h.382c.364 0 .66.301.66.673z"/><path fill="#D32E2A" d="M1.633 4.196L0 3.937v-.956z"/></svg>