<svg xmlns="http://www.w3.org/2000/svg" viewBox="0 0 14 14"><path fill="#231F20" d="M13.691 5.727H7.16v2.705h3.76a3.153 3.153 0 0 1-1.432 2.092c-.632.398-1.427.612-2.328.612A4.131 4.131 0 0 1 3.227 8.3l-.01.002.008-.007A4.14 4.14 0 0 1 3.227 5.7 4.131 4.131 0 0 1 7.16 2.864c.988 0 1.88.35 2.581.922l2.04-2.036C10.536.668 8.943 0 7.16 0A6.99 6.99 0 0 0 .15 7c0 1.115.258 2.166.717 3.099l.002-.002v.004A6.989 6.989 0 0 0 7.158 14c1.71 0 3.342-.607 4.568-1.745C13.014 11.061 13.85 9.282 13.85 7c0-.414-.064-.86-.16-1.273z"/></svg>