<svg xmlns="http://www.w3.org/2000/svg" viewBox="0 0 11.804 12"><path d="M2.808 12c-1.108 0-1.81-.23-2.083-.684-.157-.262-.152-.58.016-.896.223-.422.877-.58 1.406-.638-.273-.545-.408-1.334.041-2.378a8.545 8.545 0 0 1-.297-.102c-.102.209-.309.391-.7.352C.86 7.618.612 7.405.547 7.1a.643.643 0 0 1 .286-.696c.092-.055.3-.148.556-.262.436-.194 1.457-.647 1.56-.845a2.338 2.338 0 0 0-.01-.576c-.315.315-.879.81-1.515 1.046a1.896 1.896 0 0 1-.487.065c-.392 0-.683-.135-.842-.39-.078-.126-.148-.343-.042-.67.164-.507.658-1.014.998-1.152.049-.034.594-.373 1.1-.532-.358-.453-.981-1.36-.89-2.095.039-.316.199-.568.473-.749A.688.688 0 0 1 2.04.182c.23 0 .637.087 1.009.608.135-.22.271-.398.368-.477C3.453.283 3.8 0 4.137 0c.13 0 .442.047.55.487.177.723-.199 1.895-.57 2.632.723.329 2.913 1.498 3.173 3.718.061.53.04 1.008-.062 1.422l.192.244c.408.52.793 1.01 1.18 1.133.003-.009.6.078 1.295.078.502 0 .919-.042 1.239-.126a.187.187 0 0 1 .061-.007c.044.001.429.021.566.308.095.198.036.44-.174.718-.403.534-2.28 1.105-4.431 1.105-.72 0-1.428-.063-2.108-.186-.32.234-.774.38-1.35.43a9.942 9.942 0 0 1-.89.044zm-.4-1.805c-.669.044-1.167.208-1.283.428-.096.181-.105.34-.027.469.086.142.424.473 1.71.473.259 0 .545-.014.849-.04.277-.026.518-.073.722-.142-.192-.048-.38-.1-.565-.158-.044-.016-.85-.314-1.406-1.03zm2.993.95c.57.088 1.158.133 1.754.133 2.22 0 3.838-.608 4.084-.933.129-.172.134-.256.129-.268-.011-.023-.092-.051-.16-.06-.35.088-.792.132-1.314.132-.733 0-1.364-.087-1.39-.09-.55-.171-.976-.713-1.427-1.287l-.02-.027c-.392.833-1.106 1.087-1.535 1.104.106.38.135.877-.12 1.296zm-2.415-.956c.448.432.96.622.967.624.307.096.635.179.969.247.504-.533.073-1.378.069-1.387a.218.218 0 0 1 .039-.255.221.221 0 0 1 .254-.038c.02.01.08.035.194.035.32 0 .977-.225 1.267-1.06C6.06 7.529 5.45 7.11 4.68 7.529c-.44.237-.705.55-.788.93-.151.695.324 1.442.448 1.62a.22.22 0 0 1 .083.172c0 .122-.09.228-.224.217a.23.23 0 0 1-.154-.06c-.084-.08-.469-.194-1.058-.218zm-.23-.44c.305 0 .646.024.94.081-.18-.384-.347-.922-.23-1.461.11-.512.449-.923 1.007-1.224.271-.146.543-.22.808-.22.622 0 1.13.401 1.583.903a3.997 3.997 0 0 0-.008-.941C6.583 4.539 3.763 3.44 3.735 3.429a.217.217 0 0 1-.112-.31c.426-.744.786-1.938.64-2.529C4.226.434 4.17.434 4.138.434c-.143 0-.361.145-.444.215-.067.054-.233.278-.395.578.089.192.169.41.239.652.03.095.179.615-.037.893a.48.48 0 0 1-.373.192c-.14 0-.397-.07-.556-.537-.114-.334.055-.82.239-1.2C2.39.479 1.928.63 1.928.63a.594.594 0 0 0-.235.416C1.61 1.712 2.4 2.74 2.712 3.08a.216.216 0 0 1-.146.364c-.388.025-1.082.414-1.316.562-.273.115-.666.543-.783.902-.03.092-.055.22-.002.305.077.122.236.185.473.185.19 0 .353-.043.354-.043.828-.31 1.57-1.186 1.577-1.195a.22.22 0 0 1 .273-.05c.292.164.26 1.088.232 1.273-.05.326-.599.62-1.808 1.157-.235.105-.427.19-.512.24-.08.047-.098.15-.081.23.012.056.062.191.264.213.232.028.286-.127.291-.217a.22.22 0 0 1 .297-.193c.2.078.388.145.562.199.156-.212.648-.819 1.106-.819a.5.5 0 0 1 .204.042c.259.116.49.51.416.865-.034.154-.18.515-.834.515-.19 0-.414-.03-.668-.091-.383.853-.377 1.6.016 2.228l.13-.002zm.088-2.62c.165.034.31.05.435.05.14 0 .377-.022.409-.171.03-.149-.093-.343-.168-.376h-.004c-.18 0-.466.256-.672.497zM3.05 1.78c-.085.255-.095.426-.067.507.064.189.131.239.146.242.071-.08.054-.328-.008-.525a6.105 6.105 0 0 0-.07-.224z"/></svg>