<svg xmlns="http://www.w3.org/2000/svg" viewBox="0 0 14 14"><path fill="#010101" d="M.592 1.255h12.816a.591.591 0 1 0 0-1.183H.592a.591.591 0 1 0 0 1.183zm12.816 11.49H.592a.591.591 0 1 0 0 1.183h12.816a.591.591 0 1 0 0-1.183zm0-4.225H7.766a.591.591 0 1 0 0 1.183h5.642a.591.591 0 1 0 0-1.182zm0-4.223H7.766a.591.591 0 1 0 0 1.182h5.642a.591.591 0 1 0 0-1.182zM1.187 7.592h1.52v1.52a.591.591 0 0 0 1.183 0v-1.52h1.52a.591.591 0 1 0 0-1.183H3.89V4.89a.591.591 0 0 0-1.184 0v1.52h-1.52a.591.591 0 1 0 0 1.183z"/></svg>