<svg data-name="Layer 1" xmlns="http://www.w3.org/2000/svg" viewBox="0 0 14 14"><path d="M13.448 6.258c0 2.508-1.164 4.086-3.023 4.086A1.681 1.681 0 0 1 8.62 9.086h-.14a1.91 1.91 0 0 1-1.9 1.219c-1.624 0-2.71-1.328-2.71-3.305 0-1.898 1.086-3.21 2.664-3.21a1.91 1.91 0 0 1 1.82 1.108h.14v-.945h1.43v4.305c0 .555.29.875.797.875.868 0 1.415-1.094 1.415-2.797 0-2.828-2.024-4.703-5.047-4.703A5.065 5.065 0 0 0 1.925 7.03c0 3.235 2.117 5.29 5.445 5.29a7.414 7.414 0 0 0 2.305-.305v1.172a8.596 8.596 0 0 1-2.383.312c-4.055 0-6.68-2.562-6.68-6.508A6.223 6.223 0 0 1 7.16.47c3.727 0 6.289 2.36 6.289 5.789zm-8 .781c0 1.203.547 1.93 1.438 1.93.921 0 1.507-.742 1.507-1.93s-.578-1.93-1.5-1.93c-.906 0-1.445.72-1.445 1.93z" fill="#121218"/></svg>