<svg data-name="Layer 1" xmlns="http://www.w3.org/2000/svg" viewBox="0 0 24 24"><circle cx="12" cy="12" r="12" fill="#f7761f"/><path d="M15.28 9.9V8.184a1.252 1.252 0 1 0-1.074 0V9.89a3.689 3.689 0 0 0-1.097.346L8.53 6.883a1.248 1.248 0 0 0 .072-.429 1.368 1.368 0 1 0-.596 1.133l4.34 3.185A3.448 3.448 0 0 0 12 15.495l-1.443 1.36a1.118 1.118 0 0 0-.406-.084 1.073 1.073 0 1 0 1.074 1.073 1.108 1.108 0 0 0-.06-.346l1.479-1.395A3.46 3.46 0 1 0 15.28 9.9zm-.596 5.32a1.908 1.908 0 1 1 1.908-1.908 1.914 1.914 0 0 1-1.908 1.908z" fill="#fff"/></svg>