<svg xmlns="http://www.w3.org/2000/svg" viewBox="0 0 80 80"><path fill="#EA8039" d="M49.3 34v-4.9c1.3-.6 2.2-1.8 2.2-3.3 0-2-1.6-3.6-3.6-3.6s-3.6 1.6-3.6 3.6c0 1.5.9 2.7 2.1 3.3V34c-1.2.2-2.3.5-3.3 1L30 25.2c.1-.3.1-.7.1-1.1 0-2.3-1.8-4.1-4.1-4.1s-4.1 1.8-4.1 4.1 1.8 4.1 4.1 4.1c.8 0 1.5-.2 2.2-.6l12.6 9.1c-1.9 1.8-3.1 4.3-3.1 7.1 0 2.3.8 4.4 2.2 6.1l-4 4c-.3-.1-.7-.2-1.1-.2-1.7 0-3.1 1.4-3.1 3.1 0 1.7 1.4 3.1 3.1 3.1 1.7 0 3.1-1.4 3.1-3.1 0-.3 0-.6-.1-.9l4.1-4.1c1.7 1.2 3.7 1.9 6 1.9 5.6 0 10.2-4.4 10.2-9.9 0-5-3.8-9.1-8.8-9.8zm-1.5 15.4c-3 0-5.4-2.4-5.4-5.4 0-3 2.4-5.4 5.4-5.4 3 0 5.4 2.4 5.4 5.4 0 2.9-2.4 5.4-5.4 5.4z"/></svg>