<svg id="Layer_1" xmlns="http://www.w3.org/2000/svg" viewBox="0 0 12 12"><style></style><path d="M7.938 1.01a.58.58 0 0 1 .345.138l2.536 2.403c.08.075.146.227.146.337v6.901a.2.2 0 0 1-.2.2h-9.53a.2.2 0 0 1-.2-.2V1.211c0-.11.09-.2.2-.2h6.703m0-1H1.235c-.661 0-1.2.538-1.2 1.2v9.578c0 .662.539 1.2 1.2 1.2h9.53c.661 0 1.2-.538 1.2-1.2v-6.9c0-.384-.18-.801-.458-1.064L8.97.422A1.582 1.582 0 0 0 7.938.011z"/><path d="M5.373 6.304L4.216 4.392h1.056l.414.78c.128.24.234.49.234.49h.011s.1-.245.233-.49l.42-.78H7.64L6.478 6.304l1.158 1.885H6.6l-.436-.796c-.132-.24-.233-.473-.233-.473h-.01s-.102.233-.235.473l-.435.796h-1.03l1.152-1.885z"/></svg>