<svg xmlns="http://www.w3.org/2000/svg" viewBox="0 0 14 14"><path d="M13.33 13.9H.67a.6.6 0 0 1-.599-.6V9.747a.6.6 0 1 1 1.2 0V12.7h11.458V9.747a.6.6 0 1 1 1.2 0V13.3a.6.6 0 0 1-.6.6z"/><path d="M3.64 3.819a.6.6 0 0 0 .848.017l1.8-1.728v7.658a.6.6 0 1 0 1.2 0v-7.68l1.905 1.786a.6.6 0 1 0 .82-.875L7.299.262C7.262.23 7.218.21 7.176.186c-.022-.013-.04-.032-.064-.041A.598.598 0 0 0 6.888.1a.598.598 0 0 0-.23.047c-.002.001-.006 0-.009.002-.008.004-.012.014-.02.018a.594.594 0 0 0-.157.1L3.656 2.97a.6.6 0 0 0-.016.849z"/></svg>