<svg xmlns="http://www.w3.org/2000/svg" viewBox="0 0 315.112 131.472"><path fill="#6B7EE0" d="M8.477 50.321H5.364v-3.178a.75.75 0 0 0-1.5 0v3.178H.75a.75.75 0 0 0 0 1.5h3.114V55a.75.75 0 0 0 1.5 0v-3.179h3.113a.75.75 0 0 0 0-1.5zm11.409-17.714h-2.34V30a.75.75 0 0 0-1.5 0v2.607h-2.569a.75.75 0 0 0 0 1.5h2.568V36.5a.75.75 0 0 0 1.5 0v-2.393h2.341a.75.75 0 0 0 0-1.5zm279.383 72.603h-2.146V103a.75.75 0 0 0-1.5 0v2.21h-2.145a.75.75 0 0 0 0 1.5h2.145v2.211a.75.75 0 0 0 1.5 0v-2.21h2.146a.75.75 0 0 0 0-1.5z"/><path fill="#0828CC" d="M276.63 131.472a1 1 0 0 1-1-1V3.008c0-.556-.45-1.008-1.004-1.008H40.482a.996.996 0 0 0-1.005 1.008v127.464a1 1 0 1 1-2 0V3.008A3.01 3.01 0 0 1 40.482 0h234.144a3.01 3.01 0 0 1 3.005 3.008v127.464a1 1 0 0 1-1 1z"/><path fill="#E6E9F9" d="M78.051 106.17H59.477a1 1 0 1 1 0-2h18.574a1 1 0 1 1 0 2zm47.395 6.83H59.477a1 1 0 1 1 0-2h65.969a1 1 0 1 1 0 2z"/><path opacity=".818" fill="#E6E9F9" d="M260.27 29H57.476v1.261H260.27zm0 32H57.476v1.261H260.27zm0 30H57.476v1.261H260.27z"/><path fill="#6B7EE0" d="M152.416 93.625c-1.099 0-2.141-.457-3.105-1.362-3.609-3.387-6.813-17.061-10.206-31.54-2.806-11.978-6.65-28.385-9.464-28.915-2.58-.475-6.045 14.635-8.352 24.637-3.07 13.314-5.97 25.888-9.777 28.579-1.002.708-2.09.968-3.238.766-3.596-.627-7.172-5.742-10.96-11.157-3.802-5.438-7.735-11.062-11.486-11.885-5.658-1.242-12.099 2.333-18.328 5.79-3.205 1.778-6.519 3.618-9.743 4.82a.8.8 0 1 1-.56-1.499c3.113-1.16 6.374-2.97 9.527-4.72 6.489-3.602 13.2-7.327 19.446-5.954 4.362.957 8.476 6.841 12.456 12.532 3.433 4.908 6.982 9.984 9.923 10.496.721.128 1.39-.036 2.04-.496 3.309-2.338 6.408-15.775 9.141-27.631 3.806-16.503 6.363-26.57 10.207-25.85 3.652.688 6.456 11.895 10.727 30.122 3.04 12.976 6.486 27.683 9.741 30.74.758.71 1.514 1.004 2.315.908 2.902-.358 6.259-5.577 9.504-10.623 3.26-5.069 6.339-9.857 9.65-11.295 4.512-1.96 9.557-.791 14.009.241 3.346.776 6.506 1.511 9.067.906 5.61-1.323 8.686-4.273 13.342-8.738l1.248-1.194c2.245-2.14 4.611-5.418 7.116-8.888 3.501-4.851 7.122-9.867 10.872-12.36 4.357-2.896 8.98-3.106 13.453-3.308 2.153-.098 4.377-.2 6.505-.61a.8.8 0 1 1 .303 1.571c-2.241.433-4.526.537-6.735.637-4.45.202-8.654.392-12.64 3.043-3.509 2.331-7.043 7.228-10.46 11.964-2.55 3.531-4.958 6.868-7.31 9.11l-1.245 1.19c-4.845 4.647-8.047 7.717-14.082 9.14-2.919.688-6.26-.084-9.796-.904-4.414-1.024-8.977-2.083-13.01-.332-2.865 1.244-5.954 6.047-8.941 10.692-3.604 5.604-7.007 10.896-10.654 11.346-.168.02-.335.031-.5.031z"/><path fill="#0828CC" d="M184.986 92.775c-5.699 0-10.772-5.68-15.678-11.172-3.686-4.127-7.497-8.395-11.237-9.732-4.543-1.626-8.793-.589-13.292.509-4.077.994-8.293 2.022-13.197 1.317-4.473-.643-9.225-2.674-14.255-4.822-6.69-2.858-13.608-5.814-20.557-5.814-8.12 0-17.126 3.184-25.835 6.262-4.4 1.555-8.95 3.164-13.357 4.354a.8.8 0 1 1-.417-1.545c4.348-1.174 8.868-2.772 13.24-4.318 8.837-3.123 17.974-6.353 26.369-6.353 7.277 0 14.348 3.02 21.186 5.942 4.93 2.107 9.589 4.097 13.853 4.71 4.6.662 8.662-.33 12.59-1.288 4.742-1.155 9.219-2.247 14.211-.461 4.123 1.475 7.896 5.7 11.891 10.173 4.672 5.23 9.503 10.638 14.485 10.638 4.871 0 10.456-5.175 15.857-10.18 4.818-4.466 9.8-9.083 14.755-10.641 6.084-1.912 12.666-.808 19.035.26 4.685.788 9.114 1.53 12.763.906a.8.8 0 0 1 .269 1.577c-3.919.671-8.474-.095-13.298-.904-6.18-1.038-12.57-2.11-18.289-.313-4.61 1.45-9.459 5.943-14.148 10.288-5.886 5.455-11.445 10.607-16.944 10.607z"/><ellipse fill="#6B7EE0" cx="152.895" cy="92.399" rx="2.218" ry="2.199"/><ellipse fill="#FFF" cx="152.895" cy="92.399" rx=".618" ry=".599"/><ellipse fill="#6B7EE0" cx="196.895" cy="71.365" rx="2.218" ry="2.199"/><ellipse fill="#FFF" cx="196.895" cy="71.365" rx=".618" ry=".599"/><ellipse fill="#6B7EE0" cx="248.896" cy="36.399" rx="2.218" ry="2.199"/><ellipse fill="#FFF" cx="248.896" cy="36.399" rx=".618" ry=".599"/><ellipse fill="#6B7EE0" cx="129.895" cy="31.399" rx="2.218" ry="2.199"/><ellipse fill="#FFF" cx="129.895" cy="31.399" rx=".618" ry=".599"/><ellipse fill="#6B7EE0" cx="109.895" cy="84.399" rx="2.218" ry="2.199"/><ellipse fill="#FFF" cx="109.895" cy="84.399" rx=".618" ry=".599"/><ellipse fill="#6B7EE0" cx="83.895" cy="61.399" rx="2.218" ry="2.199"/><ellipse fill="#FFF" cx="83.895" cy="61.399" rx=".618" ry=".599"/><ellipse fill="#0828CC" cx="56.895" cy="73.751" rx="2.218" ry="2.199"/><ellipse fill="#FFF" cx="56.895" cy="73.751" rx=".618" ry=".599"/><ellipse fill="#0828CC" cx="99.157" cy="62.399" rx="2.218" ry="2.199"/><ellipse fill="#FFF" cx="99.157" cy="62.399" rx=".618" ry=".599"/><ellipse fill="#0828CC" cx="133.849" cy="72.751" rx="2.218" ry="2.199"/><ellipse fill="#FFF" cx="133.849" cy="72.751" rx=".618" ry=".599"/><ellipse fill="#0828CC" cx="155.926" cy="69.967" rx="2.218" ry="2.199"/><ellipse fill="#FFF" cx="155.926" cy="69.967" rx=".618" ry=".599"/><ellipse fill="#0828CC" cx="184.942" cy="92.041" rx="2.218" ry="2.199"/><ellipse fill="#FFF" cx="184.942" cy="92.041" rx=".618" ry=".599"/><ellipse fill="#0828CC" cx="247.388" cy="72.49" rx="2.218" ry="2.199"/><ellipse fill="#FFF" cx="247.388" cy="72.49" rx=".618" ry=".599"/></svg>