<svg xmlns="http://www.w3.org/2000/svg" viewBox="0 0 12 12"><path d="M10.447 11.33H1.553c-.562 0-1.064-.29-1.344-.777a1.533 1.533 0 0 1 .001-1.55L4.657 1.3C4.937.815 5.44.525 6 .525s1.064.29 1.344.775l4.446 7.702c.28.486.28 1.066 0 1.552s-.782.775-1.343.775zM6 1.524a.539.539 0 0 0-.476.275L1.075 9.502c-.143.25-.047.469 0 .552s.19.275.478.275h8.894c.288 0 .43-.192.477-.275s.145-.303 0-.552L6.478 1.8A.54.54 0 0 0 6 1.525z"/><path d="M6.085 7.505a.5.5 0 0 1-.5-.5V4.252a.5.5 0 1 1 1 0v2.753a.5.5 0 0 1-.5.5z"/><circle cx="6.085" cy="8.671" r=".6"/></svg>