<svg xmlns="http://www.w3.org/2000/svg" width="24" height="12"><path fill="#0A0A14" d="M18.042 12c-2.59 0-4.409-1.95-6.066-4.16C10.351 10.046 8.562 12 5.958 12 2.668 12 0 9.314 0 6s2.667-6 5.958-6c2.553 0 4.35 2.025 6.006 4.264C13.608 2.018 15.408 0 18.042 0 21.332 0 24 2.686 24 6s-2.667 6-5.958 6zm-4.784-5.95c1.502 2.065 2.974 3.848 4.784 3.848 2.138 0 3.87-1.745 3.87-3.898s-1.732-3.898-3.87-3.898c-1.832 0-3.287 1.85-4.784 3.948zm-7.3-3.948c-2.138 0-3.87 1.745-3.87 3.898s1.732 3.898 3.87 3.898c1.812 0 3.253-1.785 4.725-3.839-1.515-2.095-2.978-3.957-4.725-3.957z"/></svg>