<svg xmlns="http://www.w3.org/2000/svg" viewBox="0 0 14 14"><path fill="none" d="M8.014 2.98c-.28.221-.63.36-1.014.36a1.63 1.63 0 0 1-.87-.256L4.196 4.537h5.708l-1.89-1.558z"/><circle fill="none" cx="7" cy="1.694" r=".646"/><path d="M13.496 4.537H11.75c-.028-.038-.051-.078-.089-.109L8.622 1.926c.011-.077.024-.153.024-.232C8.646.786 7.907.048 7 .048S5.355.786 5.355 1.694c0 .148.025.288.062.425L2.36 4.417c-.044.034-.074.078-.106.12H.504A.504.504 0 0 0 0 5.04v8.507c0 .278.226.504.504.504h12.992a.504.504 0 0 0 .504-.504V5.04a.504.504 0 0 0-.504-.504zM7 1.048a.646.646 0 1 1-.646.646c0-.356.29-.646.646-.646zm-.87 2.036c.253.16.55.255.87.255a1.63 1.63 0 0 0 1.014-.36l1.891 1.558H4.197L6.13 3.084zm6.86 9.463a.504.504 0 0 1-.503.504H1.522a.504.504 0 0 1-.504-.504V6.006c0-.279.226-.505.504-.505h10.965c.278 0 .504.226.504.505v6.541z"/><path fill="#FFF" d="M5.97 11.362c.101.108.203.109.258.116.12.013.288.023.452-.154a.794.794 0 0 0 .13-.19l-.988-.071a.694.694 0 0 0 .148.299zM4.638 9.475l.06.318 4.607.59-.554-3.216z"/><path fill="#FFF" d="M12.487 5.501H1.522a.504.504 0 0 0-.504.505v6.541c0 .279.226.504.504.504h10.965a.504.504 0 0 0 .504-.504V6.006a.504.504 0 0 0-.504-.505zm-2.377 5.55a1.09 1.09 0 0 1-.946.322l-1.567-.222c-.058.21-.161.463-.37.686a1.198 1.198 0 0 1-1.042.386 1.04 1.04 0 0 1-.766-.353c-.327-.355-.378-.824-.378-1.08l-.51-.073c-.414-.058-.742-.353-.815-.737l-.072-.382c-.075-.388.127-.787.5-.993L8.23 6.368a1.09 1.09 0 0 1 .99-.036c.274.13.462.365.514.649l.623 3.273a.903.903 0 0 1-.246.797z"/><path d="M9.22 6.332a1.09 1.09 0 0 0-.991.036L4.145 8.605c-.374.206-.576.605-.501.993l.072.382c.073.384.401.68.815.737l.51.072c0 .257.05.726.378 1.081.314.34.69.359.766.353a1.198 1.198 0 0 0 1.042-.386c.209-.223.312-.476.37-.686l1.567.222a1.09 1.09 0 0 0 .946-.322.9.9 0 0 0 .246-.797l-.623-3.273a.899.899 0 0 0-.513-.649zm-2.54 4.992c-.164.177-.331.167-.452.154-.055-.007-.157-.008-.258-.116a.694.694 0 0 1-.148-.3l.988.072a.794.794 0 0 1-.13.19zm-1.982-1.53l-.06-.32L8.75 7.168l.554 3.216-4.607-.59z"/></svg>