<svg xmlns="http://www.w3.org/2000/svg" viewBox="0 0 12 11.998"><path d="M0 2.293l.002.017v-.034L0 2.293zm.002.017a2.285 2.285 0 0 0 0-.02v.02zm0-.034v.013c0-.019.005-.037.005-.056 0 .015-.005.028-.005.043zm.046.476c-.001-.006 0-.013-.002-.02l.002.02zm9.08 3.251A3.132 3.132 0 0 1 7.684 8.64a3.132 3.132 0 0 1-3.367.008 3.004 3.004 0 0 1-.957-.965 3.034 3.034 0 0 1-.495-1.68c0-.655.201-1.26.546-1.763H0v5.466a2.29 2.29 0 0 0 2.293 2.292h7.414A2.295 2.295 0 0 0 12 9.706V4.24H8.591c.336.504.537 1.108.537 1.763z"/><path d="M6 8.328A2.344 2.344 0 1 0 6 3.64a2.344 2.344 0 0 0 0 4.688zM6 4.27a1.714 1.714 0 1 1 0 3.428A1.714 1.714 0 0 1 6 4.27z"/><path d="M9.708 0h-6.55v2.905H2.68V0h-.36v2.905h-.471V.046a2.262 2.262 0 0 0-.361.108v2.784h-.479V.395L1.003.4C.722.41.28 1.2.28 1.2h.01l-.046.085c-.05.102-.09.208-.126.318-.017.053-.036.104-.05.158-.036.153-.057.31-.062.473 0 .02-.005.037-.005.056 0 .152.016.3.044.443.002.007.001.014.002.02l.001.006a2.286 2.286 0 0 1-.047-.448v1.57h.64c-.015-.018-.03-.037-.046-.054H.6a.61.61 0 0 0 .044.053h3.069c.17-.185.366-.34.573-.48h.001a3.075 3.075 0 0 1 3.406-.024v.009c.218.134.42.302.596.495H12V2.292A2.29 2.29 0 0 0 9.708 0zm1.301 2.594a.34.34 0 0 1-.344.345H9.271a.348.348 0 0 1-.352-.345V1.201c0-.193.16-.353.352-.353h1.394c.193 0 .344.16.344.353v1.393z"/></svg>