<svg xmlns="http://www.w3.org/2000/svg" viewBox="0 0 12 12"><path fill="#48484A" d="M11.516 11.703a.51.51 0 0 1-.178-.032c-.99-.376-2.11-.78-2.529-.902a5.671 5.671 0 0 1-7.988-1.82 5.703 5.703 0 0 1-.81-2.438 5.652 5.652 0 0 1 1.274-4.165A5.602 5.602 0 0 1 5.13.32a5.68 5.68 0 0 1 5.39 2.73 5.71 5.71 0 0 1 .81 2.44 5.673 5.673 0 0 1-.582 3.103l1.214 2.385a.5.5 0 0 1-.445.726zM5.22 1.316a4.611 4.611 0 0 0-3.164 1.666 4.654 4.654 0 0 0-1.05 3.433c.07.723.295 1.4.668 2.015a4.703 4.703 0 0 0 4.446 2.254 4.68 4.68 0 0 0 2.288-.852c.213-.151.285-.209 2.079.451l-.664-1.305a.71.71 0 0 1-.024-.73 4.669 4.669 0 0 0 .534-2.664 4.71 4.71 0 0 0-.668-2.015A4.692 4.692 0 0 0 5.22 1.316z"/></svg>