<svg xmlns="http://www.w3.org/2000/svg" viewBox="0 0 12 12"><path fill="#48484A" d="M10.417 1.434C9.353.715 7.66.54 6 2.04 4.34.54 2.647.715 1.583 1.434c-1.364.92-2.19 3-1.035 5.042.967 1.71 2.875 3.38 5.234 4.582.06.03.125.045.19.045.01 0 .018-.007.028-.007.01 0 .019.007.029.007a.423.423 0 0 0 .189-.045c2.359-1.202 4.267-2.872 5.234-4.582 1.155-2.041.329-4.122-1.035-5.042zM6 10.044c-2.076-1.1-3.74-2.571-4.581-4.06-.86-1.52-.27-3.051.723-3.722a2.136 2.136 0 0 1 1.2-.365c.668 0 1.337.298 1.988.886l.67.605.67-.605c.65-.588 1.32-.886 1.99-.886.543 0 .95.199 1.197.365.993.67 1.583 2.202.725 3.722C9.74 7.47 8.078 8.94 6 10.044z"/></svg>