<svg xmlns="http://www.w3.org/2000/svg" viewBox="0 0 14 14"><path fill="none" d="M4.41 3.263a.474.474 0 0 0-.603.07.463.463 0 0 0-.028.605.44.44 0 0 0 .275.172.45.45 0 0 0 .378-.085l.104-.076.045-.117a.475.475 0 0 0-.17-.569zm.035 5.667l-.142-.107a1.134 1.134 0 0 0-.687-.239c-.34 0-.653.16-.852.39a1.124 1.124 0 0 0-.005 1.441c.376.43.986.523 1.449.223.242-.156.397-.363.473-.632a1.11 1.11 0 0 0-.145-.932l-.09-.144zm3.092-3.089l-.116-.071c-.284-.173-.53-.18-.815-.017l-.126.073-.07.117c-.175.29-.173.542.006.837l.068.112.126.07c.287.155.535.15.8-.012l.12-.072.072-.127c.157-.276.159-.51.006-.782l-.07-.128zm1.948-1.873l.107.071a.424.424 0 0 0 .333.074.472.472 0 0 0 .393-.503c-.03-.262-.25-.457-.505-.423a.469.469 0 0 0-.37.24.437.437 0 0 0-.018.412l.06.129z"/><path fill="none" d="M12.65 1.169H1.371a.205.205 0 0 0-.205.205v11.279c0 .113.092.204.205.204h11.28a.205.205 0 0 0 .204-.204V1.373a.205.205 0 0 0-.205-.204zm-1.808 10.595c-.568.13-1.173.01-1.662-.333a2.104 2.104 0 0 1-.886-1.458c-.048-.392.004-.76.152-1.103l-.88-.89c-.354.125-.72.13-1.082.012l-.915.915c.18.44.204.907.075 1.37a2.06 2.06 0 0 1-.894 1.2 2.087 2.087 0 0 1-1.137.339 2.116 2.116 0 0 1-1.608-3.492 2.13 2.13 0 0 1 2.52-.529l.86-.86a1.657 1.657 0 0 1-.006-1.144l-.751-.75a1.44 1.44 0 0 1-.764.05 1.436 1.436 0 0 1-.874-.539 1.457 1.457 0 0 1 .09-1.903 1.475 1.475 0 0 1 1.895-.21c.467.32.7.87.626 1.417l.867.867a1.64 1.64 0 0 1 1.112.017l.826-.827a1.46 1.46 0 0 1 .167-.981A1.48 1.48 0 0 1 9.72 2.19a1.462 1.462 0 0 1 1.59 1.3 1.465 1.465 0 0 1-1.24 1.612 1.455 1.455 0 0 1-.65-.047l-.781.782c.111.347.11.701-.007 1.049l.887.887a2.09 2.09 0 0 1 1.983.13c.512.318.863.83.964 1.409a2.11 2.11 0 0 1-1.624 2.45z"/><path fill="none" d="M10.976 8.754a1.096 1.096 0 0 0-1.248.049l-.207.15-.07.152c-.144.225-.198.47-.165.746a1.1 1.1 0 0 0 .468.76c.257.181.572.247.863.178a1.11 1.11 0 0 0 .864-1.304 1.09 1.09 0 0 0-.505-.73z"/><path d="M11.502 7.905a2.09 2.09 0 0 0-1.983-.131l-.887-.887c.116-.348.118-.702.007-1.049l.782-.782c.206.064.42.079.648.047a1.465 1.465 0 0 0 1.242-1.612 1.462 1.462 0 0 0-1.591-1.3 1.48 1.48 0 0 0-1.147.74 1.46 1.46 0 0 0-.167.982l-.826.827a1.649 1.649 0 0 0-1.112-.017L5.6 3.856a1.472 1.472 0 0 0-.626-1.417 1.475 1.475 0 0 0-1.896.21 1.457 1.457 0 0 0-.089 1.903c.223.286.526.473.874.54.264.05.522.034.764-.052l.75.751c-.133.38-.13.765.007 1.144l-.86.86a2.13 2.13 0 0 0-2.52.529 2.116 2.116 0 0 0 1.608 3.492c.39 0 .785-.11 1.137-.338.45-.29.75-.694.894-1.2.13-.464.104-.931-.075-1.37l.915-.916c.362.118.728.113 1.082-.012l.88.89c-.148.342-.2.711-.152 1.103.072.582.394 1.114.886 1.458a2.084 2.084 0 0 0 1.662.333 2.11 2.11 0 0 0 1.624-2.451 2.086 2.086 0 0 0-.964-1.408zM9.443 3.426a.469.469 0 0 1 .37-.24c.255-.033.474.162.505.424a.472.472 0 0 1-.393.503.424.424 0 0 1-.333-.074l-.107-.071-.06-.129a.437.437 0 0 1 .018-.413zm-4.862.406l-.045.117-.104.076a.45.45 0 0 1-.378.085.433.433 0 0 1-.275-.172.463.463 0 0 1 .029-.605.474.474 0 0 1 .602-.07.475.475 0 0 1 .171.57zm.1 6.174c-.076.269-.23.476-.473.632-.463.3-1.073.207-1.45-.223a1.124 1.124 0 0 1 .006-1.44c.199-.232.512-.39.852-.39.227 0 .464.07.687.238l.142.107.091.144c.189.303.236.608.145.932zM7.6 6.751l-.072.127-.119.072c-.265.162-.513.167-.8.011l-.126-.07-.068-.111c-.179-.295-.18-.546-.007-.837l.07-.117.127-.073c.286-.163.53-.156.815.017l.116.071.071.128c.153.272.15.506-.006.782zm3.016 4.038a1.08 1.08 0 0 1-.863-.177 1.1 1.1 0 0 1-.468-.761c-.033-.276.02-.52.164-.746l.07-.152.208-.15a1.096 1.096 0 0 1 1.248-.049c.27.167.453.434.505.73a1.11 1.11 0 0 1-.864 1.305z"/><path d="M12.994 0H1.006C.451 0 0 .45 0 1.006v11.988C0 13.549.45 14 1.006 14h11.988c.555 0 1.006-.45 1.006-1.006V1.006C14 .451 13.55 0 12.994 0zm-.139 12.653a.205.205 0 0 1-.205.204H1.371a.205.205 0 0 1-.205-.204V1.373c0-.113.092-.204.205-.204h11.28c.112 0 .204.091.204.205v11.279z"/></svg>