<svg xmlns="http://www.w3.org/2000/svg" viewBox="0 0 14 14"><path d="M8.999 6.651a5.446 5.446 0 0 0-.838-.364 3.424 3.424 0 0 0 1.213-2.604c0-1.9-1.545-3.445-3.445-3.445a3.448 3.448 0 0 0-3.445 3.445c0 1.05.483 1.98 1.226 2.613C.062 7.572 0 11.83 0 11.881a.6.6 0 1 0 1.198 0c0-.194.055-4.752 4.775-4.752.727 0 1.33.122 1.85.313a4.175 4.175 0 0 1 1.176-.79zm-3.07-5.213a2.248 2.248 0 0 1 2.246 2.245A2.249 2.249 0 0 1 5.929 5.93a2.248 2.248 0 0 1-2.245-2.246 2.248 2.248 0 0 1 2.245-2.245zm5.751 8.617h-.577v-.583a.405.405 0 0 0-.404-.406.405.405 0 0 0-.402.406v.583h-.578a.405.405 0 0 0-.403.406c0 .224.18.406.403.406h.578v.583c0 .224.18.406.402.406a.405.405 0 0 0 .404-.406v-.583h.578a.405.405 0 0 0 .403-.406.405.405 0 0 0-.403-.406z"/><path d="M10.7 7.16a3.301 3.301 0 1 0 0 6.602 3.301 3.301 0 0 0 0-6.602zm0 5.602c-1.27 0-2.301-1.032-2.301-2.301s1.032-2.301 2.3-2.301c1.27 0 2.302 1.032 2.302 2.3s-1.032 2.302-2.301 2.302z"/></svg>