<svg xmlns="http://www.w3.org/2000/svg" viewBox="0 0 3.776 12"><path d="M0 9.903c.139-.044.284-.073.415-.134.526-.242.801-.653.802-1.239l.002-6.266V2.12c.318.052.623.105.928.152.507.079 1.013.156 1.521.227.085.012.104.043.104.12 0 2.121 0 4.242.004 6.363.001.731-.207 1.383-.713 1.924-.386.413-.862.685-1.389.873-.233.084-.474.147-.711.22H.92c-.247-.564-.492-1.129-.74-1.692-.057-.13-.12-.256-.18-.383v-.022z"/><path d="M0 9.925c.06.127.123.254.18.383.248.563.493 1.128.74 1.692H0V9.925zM1.226 0h2.539v1.72c-.188-.013-.372-.024-.555-.04l-1.894-.164c-.06-.006-.1-.01-.099-.088.003-.46.002-.92.002-1.38 0-.013.004-.026.007-.048z"/></svg>