<svg xmlns="http://www.w3.org/2000/svg" viewBox="0 0 14 14"><path d="M3.847 5.281c-.897 0-1.626-.73-1.626-1.626a1.627 1.627 0 0 1 3.252.001c0 .896-.73 1.626-1.626 1.626zm0-2.252c-.345 0-.626.282-.626.626s.281.626.626.626a.627.627 0 0 0 0-1.252z"/><path d="M13.437 3.289L10.472.48A1.848 1.848 0 0 0 9.265 0H1.43C.658 0 .03.63.03 1.403v11.194A1.402 1.402 0 0 0 1.43 14h11.14c.773 0 1.402-.63 1.402-1.403V4.532c0-.448-.21-.936-.534-1.243zM1.43 1.169h7.834a.68.68 0 0 1 .403.16l2.965 2.808c.093.089.17.266.17.395v7.486l-2.44-3.41a1.394 1.394 0 0 0-1.135-.57h-.001c-.455 0-.88.213-1.135.57l-.432.604-.855-1.176a1.548 1.548 0 0 0-1.253-.62H5.55c-.502 0-.97.233-1.252.621l-3.102 4.264V1.403c0-.129.106-.234.234-.234zM8.81 12.83H2.295L5.27 8.742a.344.344 0 0 1 .28-.127h.002c.119 0 .224.048.282.127l2.975 4.09zm-.405-2.595l.664-.93c.046-.064.134-.069.16-.069.026 0 .114.005.16.07l2.521 3.524h-1.617l-1.888-2.595z"/></svg>