<svg xmlns="http://www.w3.org/2000/svg" viewBox="0 0 14 14"><path d="M2.084 13.958a.92.92 0 0 1-.907-.751l-.23-1.283a1.63 1.63 0 0 1 .252-1.12L4.603 6.02a6.701 6.701 0 0 1-.443-1.4 3.252 3.252 0 0 1 .554-2.488C5.383 1.18 6.526.5 7.851.271c2.234-.39 4.373 1.088 4.769 3.292.23 1.285-.016 2.562-.675 3.502A3.34 3.34 0 0 1 9.738 8.47a6.958 6.958 0 0 1-1.618.062l-1.6 2.443-.967.169-1.298 1.985c-.202.307-.61.573-.973.634l-1.044.181a.925.925 0 0 1-.155.014zm6.483-12.75c-.18 0-.362.016-.545.048-1.05.181-1.979.724-2.487 1.45a2.245 2.245 0 0 0-.39 1.738c.064.353.253.961.48 1.395l.14.272-3.751 5.273a.663.663 0 0 0-.082.364l.215 1.197.967-.168a.636.636 0 0 0 .306-.197l1.592-2.357.91-.159 1.71-2.614.321.054c.481.081 1.198.052 1.613-.02a2.33 2.33 0 0 0 1.56-.992c.5-.714.69-1.743.51-2.752-.267-1.484-1.586-2.532-3.069-2.532z"/><path d="M9.394 6.152c-.463 0-.877-.296-1.312-.606l-.487-.336c-.504-.335-.98-.652-1.078-1.187-.058-.313.032-.64.266-.97a2.23 2.23 0 0 1 3.072-.534 2.162 2.162 0 0 1 .544 3.044c-.234.328-.511.521-.825.574-.06.01-.12.015-.18.015zm-.802-3.026a1.22 1.22 0 0 0-.994.507c-.089.125-.1.193-.098.208.023.12.4.37.649.537l.514.354c.26.185.614.44.745.418.03-.004.094-.051.176-.167.182-.256.253-.568.199-.876a1.173 1.173 0 0 0-.495-.765 1.223 1.223 0 0 0-.696-.216z"/></svg>