<svg xmlns="http://www.w3.org/2000/svg" viewBox="0 0 14 14"><path d="M11.746 5.068h-.95v-.49h.95c1.22 0 2.21-1 2.21-2.22 0-1.22-.99-2.21-2.21-2.21-1.23 0-2.22.99-2.22 2.21v.95h-.49v-.95c0-1.22-1-2.21-2.22-2.21-1.22 0-2.21.99-2.21 2.21s.99 2.22 2.21 2.22h.95v.49h-.95c-.49 0-.95.16-1.31.44.03.03.06.05.09.08l.83.83c.12-.05.25-.08.39-.08h.95v.95c0 .14-.03.28-.09.4l.91.92c.28-.36.45-.82.45-1.32v-.95h.49v.95c0 1.22.99 2.21 2.22 2.21 1.22 0 2.21-.99 2.21-2.21 0-1.23-.99-2.22-2.21-2.22zm-.95-2.71a.95.95 0 1 1 .95.95h-.95v-.95zm-3.03.95h-.95a.95.95 0 1 1 .95-.95v.95zm1.76 1.76h-.49v-.49h.49v.49zm2.22 3.17a.95.95 0 0 1-.95-.95v-.95h.95a.95.95 0 1 1 0 1.9zm-1.9 2.08l-.51-.52c-.02-.01-.03-.02-.05-.04l-.9-.91-.89-.9-1.34-1.34-.71-.72a.517.517 0 0 0-.22-.14.778.778 0 0 0-.46.01c-.07.02-.14.07-.2.13l-3.83 3.87-.01.01-.55.55a.63.63 0 0 0-.14.69c.1.23.33.39.59.39h1.49v1.82c0 .35.29.64.63.64h4.52c.35 0 .63-.29.63-.64v-1.82h1.5c.26 0 .49-.16.58-.39.1-.24.05-.51-.13-.69zm-2.58-.19c-.35 0-.63.29-.63.63v1.83h-3.25v-1.83c0-.34-.29-.63-.64-.63h-.61l2.5-2.52.37-.37 2.2 2.22.67.67h-.61z"/></svg>