<svg xmlns="http://www.w3.org/2000/svg" viewBox="0 0 14 14"><path d="M6.663 3.432H1.3a.6.6 0 0 1 0-1.2h5.363a.6.6 0 0 1 0 1.2zm6.237 0H9.307a.6.6 0 0 1 0-1.2H12.9a.6.6 0 0 1 0 1.2zM3.982 6.21H1.3a.6.6 0 0 1 0-1.199h2.682a.6.6 0 0 1 0 1.2zm4.864 0H6.164a.6.6 0 0 1 0-1.199h2.682a.6.6 0 0 1 0 1.2zm4.054 0h-1.796a.6.6 0 0 1 0-1.199H12.9a.6.6 0 0 1 0 1.2zM5.822 8.989H1.3a.6.6 0 0 1 0-1.2h4.522a.6.6 0 0 1 0 1.2zm7.078 0H7.804a.6.6 0 0 1 0-1.2H12.9a.6.6 0 0 1 0 1.2zm-8.918 2.778H1.3a.6.6 0 0 1 0-1.2h2.682a.6.6 0 0 1 0 1.2zm8.918 0H6.164a.6.6 0 0 1 0-1.2H12.9a.6.6 0 0 1 0 1.2z"/></svg>