<svg xmlns="http://www.w3.org/2000/svg" viewBox="0 0 12 9.184"><path d="M11.758 0C7.925.006 4.091.006.258 0 .062 0-.001.048 0 .255c.008 2.256.005 4.513.005 6.77v.225h.34c2.505 0 5.01-.002 7.514.004.153 0 .32.043.457.11 1.12.55 2.234 1.11 3.35 1.666.096.048.194.094.32.154.004-.092.009-.143.009-.193 0-2.921-.001-5.842.005-8.763 0-.191-.07-.228-.242-.227zM4.724 4.164c-.331-.059-.512.108-.684.37-.331.507-.701.989-1.048 1.485-.088.125-.184.184-.342.18-.487-.01-.973-.003-1.525-.003l1.12-1.488c.251-.332.497-.668.755-.994.095-.12.09-.204.002-.325-.522-.712-1.037-1.43-1.554-2.146-.04-.056-.077-.116-.149-.228h.498c.329 0 .657.006.986-.002.14-.004.228.048.306.162.347.514.709 1.019 1.05 1.537.12.185.256.266.48.251.286-.019.287-.003.288.284 0 .24-.005.482.001.722.004.136-.04.22-.184.195zm5.924 2.05c-.438 0-.876-.008-1.314.003-.15.003-.24-.05-.323-.17-.403-.573-.816-1.14-1.22-1.712-.074-.105-.151-.16-.286-.153a5.052 5.052 0 0 1-.59 0c-.158-.01-.2.053-.199.202.007.519.003 1.037.003 1.556v.272c-.446 0-.86.005-1.275-.006-.05-.002-.105-.086-.14-.142-.02-.032-.005-.086-.005-.13 0-1.555.004-3.11-.005-4.665-.001-.221.06-.298.283-.285.299.018.6.015.898 0 .187-.009.255.04.249.24-.016.482-.005.965-.005 1.447v.269c.314 0 .603.009.89-.007.06-.003.13-.085.173-.146.376-.538.751-1.078 1.117-1.623a.356.356 0 0 1 .341-.18c.416.01.832.003 1.249.004.069 0 .138.009.251.016-.061.093-.098.153-.138.209-.513.71-1.02 1.425-1.544 2.127-.126.168-.112.273.01.43.562.728 1.112 1.465 1.665 2.2.047.061.09.126.159.222-.107.01-.175.02-.244.02z"/></svg>