<svg data-name="Layer 1" xmlns="http://www.w3.org/2000/svg" viewBox="0 0 14 14"><path d="M12.752 2.888h-2.56c.01-.19 0-.41 0-.63v-.1a1.769 1.769 0 0 0-1.77-1.78h-2.63a1.778 1.778 0 0 0-1.78 1.78v.1c0 .22-.01.43-.01.63h-2.75a1.25 1.25 0 0 0-1.25 1.25v8.61a1.25 1.25 0 0 0 1.25 1.25h11.5a1.25 1.25 0 0 0 1.25-1.25v-8.61a1.25 1.25 0 0 0-1.25-1.25zm-7.55-.17c0-.14.01-.3.01-.46v-.1a.583.583 0 0 1 .58-.59h2.63a.583.583 0 0 1 .58.59v.69l-3.81-.01c0-.04.01-.08.01-.12zm7.6 10.03a.054.054 0 0 1-.05.05h-11.5a.047.047 0 0 1-.05-.05v-5.54h11.6zm0-6.73h-11.6v-1.88a.047.047 0 0 1 .05-.05h11.5a.054.054 0 0 1 .05.05z" fill="#0f0f16"/></svg>