<svg xmlns="http://www.w3.org/2000/svg" viewBox="0 0 9.732 12"><path d="M1.055 10.149a.5.5 0 0 0-.293-.086.487.487 0 0 0-.417.2c-.045.061-.077.13-.099.209s-.031.16-.031.244c0 .092.01.18.031.261a.624.624 0 0 0 .099.215.485.485 0 0 0 .419.2.49.49 0 0 0 .189-.035.427.427 0 0 0 .236-.245.621.621 0 0 0 .04-.186h.215a.733.733 0 0 1-.21.475c-.119.113-.282.17-.488.17a.775.775 0 0 1-.328-.065.64.64 0 0 1-.233-.177.76.76 0 0 1-.139-.267 1.14 1.14 0 0 1 .004-.661c.033-.103.081-.193.146-.27s.144-.138.24-.182a.772.772 0 0 1 .328-.067c.084 0 .164.011.24.034s.142.056.2.1a.56.56 0 0 1 .224.39h-.214a.4.4 0 0 0-.16-.257zm.597.561a.511.511 0 0 1 .287-.324.59.59 0 0 1 .244-.047c.094 0 .176.015.246.047a.512.512 0 0 1 .286.324.778.778 0 0 1 .036.241.767.767 0 0 1-.036.24.546.546 0 0 1-.109.193.497.497 0 0 1-.177.129.605.605 0 0 1-.246.046.607.607 0 0 1-.244-.046.497.497 0 0 1-.178-.129.55.55 0 0 1-.109-.193.773.773 0 0 1-.036-.24c0-.086.012-.166.036-.24zm.196.43a.41.41 0 0 0 .078.138.34.34 0 0 0 .257.114.348.348 0 0 0 .258-.114.397.397 0 0 0 .078-.138.578.578 0 0 0 .028-.189.58.58 0 0 0-.028-.189.407.407 0 0 0-.078-.139.333.333 0 0 0-.258-.115.343.343 0 0 0-.257.115.404.404 0 0 0-.078.14.58.58 0 0 0-.028.188c0 .071.009.134.028.189zm1.31-.774v.172h.004a.425.425 0 0 1 .378-.2c.072 0 .138.016.196.046.06.03.1.081.125.154a.408.408 0 0 1 .154-.147.437.437 0 0 1 .212-.052c.058 0 .112.006.16.019a.333.333 0 0 1 .121.06c.034.027.06.062.08.105a.385.385 0 0 1 .028.155v.856h-.193v-.766a.545.545 0 0 0-.009-.102.208.208 0 0 0-.033-.082.17.17 0 0 0-.07-.055.271.271 0 0 0-.114-.02.302.302 0 0 0-.223.08.293.293 0 0 0-.082.217v.728H3.7v-.766a.507.507 0 0 0-.01-.104.225.225 0 0 0-.035-.082.166.166 0 0 0-.067-.055.26.26 0 0 0-.107-.019.288.288 0 0 0-.144.034.324.324 0 0 0-.168.264v.728h-.192v-1.168h.18zm1.946 0v.158h.004a.288.288 0 0 1 .15-.141.557.557 0 0 1 .223-.044c.09 0 .17.016.236.05a.479.479 0 0 1 .168.134.59.59 0 0 1 .1.195.826.826 0 0 1 .001.47c-.021.074-.055.139-.099.194s-.1.098-.167.13a.544.544 0 0 1-.33.038.527.527 0 0 1-.105-.03.408.408 0 0 1-.099-.055.312.312 0 0 1-.078-.087h-.004v.602h-.192v-1.614h.192zm.69.415a.43.43 0 0 0-.065-.14.322.322 0 0 0-.275-.133.33.33 0 0 0-.165.039.33.33 0 0 0-.11.1.424.424 0 0 0-.063.142.683.683 0 0 0 .001.326.41.41 0 0 0 .065.141.328.328 0 0 0 .284.136.33.33 0 0 0 .166-.038.311.311 0 0 0 .107-.102.442.442 0 0 0 .059-.145.778.778 0 0 0 .018-.167.598.598 0 0 0-.022-.16zm1.349.779a.166.166 0 0 1-.12-.042c-.029-.028-.043-.074-.043-.137a.46.46 0 0 1-.184.137.631.631 0 0 1-.376.025.336.336 0 0 1-.124-.057.276.276 0 0 1-.084-.102.338.338 0 0 1-.03-.15.297.297 0 0 1 .123-.266.416.416 0 0 1 .127-.06 1.86 1.86 0 0 1 .296-.058.822.822 0 0 0 .125-.022.211.211 0 0 0 .086-.043c.021-.019.032-.046.032-.082a.191.191 0 0 0-.024-.102.162.162 0 0 0-.06-.059.254.254 0 0 0-.085-.027.645.645 0 0 0-.091-.007.405.405 0 0 0-.204.047c-.054.03-.083.089-.088.175h-.192a.415.415 0 0 1 .045-.183.341.341 0 0 1 .109-.121.453.453 0 0 1 .156-.067.816.816 0 0 1 .185-.02c.053 0 .105.004.157.011.052.007.1.023.141.046a.27.27 0 0 1 .102.099.314.314 0 0 1 .039.165v.601a.45.45 0 0 0 .007.1c.006.02.023.031.054.031a.188.188 0 0 0 .058-.011v.149a.272.272 0 0 1-.137.03zm-.27-.59a.929.929 0 0 1-.123.02 3.873 3.873 0 0 0-.13.019.478.478 0 0 0-.117.033.211.211 0 0 0-.085.064.18.18 0 0 0-.033.114.15.15 0 0 0 .02.08.16.16 0 0 0 .05.054c.02.013.044.023.072.029a.456.456 0 0 0 .247-.017.343.343 0 0 0 .11-.066.257.257 0 0 0 .064-.086c.014-.03.02-.06.02-.087v-.196a.239.239 0 0 1-.094.04zm.767-.604v.185h.004a.405.405 0 0 1 .38-.212c.077 0 .14.01.192.031a.317.317 0 0 1 .191.223c.013.052.02.11.02.173v.768h-.193v-.79a.232.232 0 0 0-.063-.172.235.235 0 0 0-.174-.064c-.059 0-.11.01-.153.027a.288.288 0 0 0-.107.077.328.328 0 0 0-.064.117.468.468 0 0 0-.022.145v.66H7.46v-1.168h.18zm1.468 1.467a.394.394 0 0 1-.072.096.246.246 0 0 1-.087.054.337.337 0 0 1-.114.017.51.51 0 0 1-.067-.004.329.329 0 0 1-.066-.016v-.177l.055.018c.02.006.039.01.058.01.04 0 .07-.01.095-.028a.23.23 0 0 0 .063-.079l.08-.196-.464-1.162h.217l.342.956h.004l.328-.956h.203l-.509 1.322a1.194 1.194 0 0 1-.066.145z"/><path d="M2.245 9.257V3.012H.168v6.245h2.077zM1.21 2.159c.72 0 1.173-.48 1.173-1.08C2.369.466 1.93 0 1.222 0 .51 0 .045.466.045 1.08c0 .598.45 1.079 1.147 1.079h.016zm2.185 7.098H5.47V5.77c0-.187.014-.373.068-.507.15-.373.493-.76 1.064-.76.752 0 1.053.574 1.053 1.413v3.34h2.077v-3.58c0-1.918-1.026-2.81-2.391-2.81-1.12 0-1.612.625-1.886 1.051h.015v-.905H3.395c.024.585 0 6.245 0 6.245z" fill-rule="evenodd" clip-rule="evenodd"/></svg>