<svg xmlns="http://www.w3.org/2000/svg" viewBox="0 0 9.097 12"><path d="M1.672 11.311c-.118.042-.35.112-.625.112-.309 0-.562-.079-.762-.27-.175-.168-.284-.44-.284-.757.003-.608.42-1.052 1.103-1.052.236 0 .42.052.508.094l-.064.214a1.058 1.058 0 0 0-.45-.087c-.496 0-.819.308-.819.818 0 .517.311.822.786.822a.86.86 0 0 0 .35-.054v-.607h-.414v-.212h.67v.979zm.394-.915c0-.173-.003-.32-.012-.457h.232l.01.287h.012c.066-.196.226-.32.404-.32.03 0 .052.003.076.01v.25a.409.409 0 0 0-.09-.009c-.188 0-.321.142-.357.341a.73.73 0 0 0-.013.124v.78h-.262v-1.006zm2.281.262c0 .541-.374.777-.728.777-.396 0-.7-.29-.7-.752 0-.49.32-.777.724-.777.42 0 .704.305.704.752zm-1.16.016c0 .32.184.561.444.561.254 0 .444-.238.444-.568 0-.247-.123-.561-.438-.561-.314 0-.45.29-.45.568zm2.72.329c0 .15.003.284.012.399h-.235l-.015-.239h-.007a.55.55 0 0 1-.483.272c-.23 0-.504-.127-.504-.64v-.856h.265v.81c0 .278.085.465.327.465a.384.384 0 0 0 .35-.241.384.384 0 0 0 .024-.136v-.898h.266v1.064zm.442-.586c0-.188-.006-.339-.012-.478h.239l.012.251h.006a.575.575 0 0 1 .52-.284c.353 0 .619.3.619.743 0 .526-.32.786-.665.786a.513.513 0 0 1-.45-.23h-.006V12h-.263v-1.583zm.263.39a.41.41 0 0 0 .41.42c.282 0 .445-.23.445-.566 0-.293-.154-.543-.435-.543-.182 0-.35.13-.402.329a.428.428 0 0 0-.018.109v.25zm1.421.323a.696.696 0 0 0 .35.105c.194 0 .284-.096.284-.217 0-.127-.075-.196-.272-.269-.263-.094-.386-.239-.386-.414 0-.235.19-.429.504-.429.148 0 .278.042.36.09l-.067.194a.57.57 0 0 0-.299-.084c-.157 0-.245.09-.245.199 0 .12.088.175.278.248.254.096.384.223.384.44 0 .258-.2.439-.547.439a.835.835 0 0 1-.41-.1l.066-.202z"/><path fill-rule="evenodd" clip-rule="evenodd" d="M2.065 8.694V2.829H.114v5.865h1.951zm-.973-6.666c.677 0 1.102-.452 1.102-1.014C2.18.438 1.769 0 1.104 0 .436 0 0 .438 0 1.014c0 .562.423 1.014 1.077 1.014h.015zm2.053 6.666h1.949V5.419c0-.176.013-.35.064-.476.14-.35.463-.714 1-.714.706 0 .988.539.988 1.327v3.138h1.951V5.33c0-1.8-.963-2.64-2.246-2.64-1.052 0-1.514.59-1.77.99h.013v-.851h-1.95c.024.55 0 5.865 0 5.865z"/></svg>