<svg xmlns="http://www.w3.org/2000/svg" viewBox="0 0 14 14"><circle fill="#2D2D2D" cx="7" cy="7" r="7"/><path fill="#FFF" d="M7.818 9.455c.067 0 .133-.002.199-.006-.032.035-.065.07-.1.105L6.69 10.78a2.454 2.454 0 1 1-3.47-3.47l1.227-1.228.105-.099a2.456 2.456 0 0 1 3.846.777.816.816 0 0 1-.819.204 1.645 1.645 0 0 0-.542-.542 1.637 1.637 0 0 0-2.011.24l-.369.368-.859.858a1.637 1.637 0 0 0 2.315 2.315l.858-.86c.27.073.555.112.848.112zm2.963-6.236a2.455 2.455 0 0 0-3.471 0L6.083 4.446a2.45 2.45 0 0 0-.1.105 3.267 3.267 0 0 1 1.046.105l.86-.859a1.636 1.636 0 0 1 2.314 2.315l-.86.858-.368.369a1.637 1.637 0 0 1-2.553-.303.818.818 0 0 0-.82.204A2.454 2.454 0 0 0 6.76 8.397a2.456 2.456 0 0 0 2.794-.48L10.78 6.69a2.454 2.454 0 0 0 0-3.471z"/></svg>