<svg data-name="Layer 1" xmlns="http://www.w3.org/2000/svg" viewBox="0 0 24 24"><circle cx="12" cy="12" r="12" fill="#40a3f5"/><path d="M11.518 10.5H8.9a8.006 8.006 0 0 1 .37-2.246h2.252c0 .724-.004 1.514-.004 2.246zm-2.618.494h2.618v2.1c-.073.004-.185 0-.262 0-.602 0-1.23.013-1.832 0A.179.179 0 0 1 9.248 13a6.784 6.784 0 0 1-.348-2.005zm-2.488 0h1.964c.115.729.147 1.371.262 2.1-.5 0-1.052.007-1.571 0-.043 0-.044-.02-.065-.06a4.539 4.539 0 0 1-.59-2.04zm2.226-2.718c-.09.534-.141.997-.22 1.499a3.28 3.28 0 0 0-.035.477c-.002.122.002.126-.138.124-.56-.006-1.14.004-1.702 0a.474.474 0 0 1-.13 0 5.16 5.16 0 0 1 .452-1.789c.115-.275.278-.31.595-.311h1.178zm2.88 7.537c-.276-.034-.542-.061-.792-.102a.298.298 0 0 1-.173-.105 7.724 7.724 0 0 1-1.058-1.886c-.008-.02-.07-.1-.071-.131h2.094zm-1.796-.39a5.593 5.593 0 0 1-2.393-1.834c.504 0 1.118-.008 1.57 0 .045 0 .11.202.132.247.267.551.42 1.015.691 1.587zM7.329 7.782a5.721 5.721 0 0 1 2.405-1.834c-.027.071-.041.116-.061.157-.242.488-.482.977-.73 1.463-.033.065-.118.212-.174.214-.446.013-.936 0-1.44 0zm4.729 2.71h2.61a8.051 8.051 0 0 0-.37-2.249h-2.243l.003 2.249zm2.872-2.227c.09.534.14.998.22 1.5a3.316 3.316 0 0 1 .033.48c.002.12-.002.125.138.123.56-.007 1.136.004 1.696 0a.472.472 0 0 0 .13 0 5.188 5.188 0 0 0-.45-1.792c-.115-.275-.278-.31-.593-.311h-1.175zm1.304-.495a5.706 5.706 0 0 0-2.398-1.837c.028.071.042.116.062.157.24.49.48.979.727 1.465.033.065.118.213.174.215.444.013.933 0 1.435 0zm-4.716.036H9.424c0-.031.063-.111.07-.131a7.724 7.724 0 0 1 1.059-1.886.298.298 0 0 1 .173-.105c.25-.041.516-.068.792-.102zm.529-2.254c.277.034.543.06.793.102a.298.298 0 0 1 .173.105 7.724 7.724 0 0 1 1.058 1.886c.008.02.07.1.071.131h-2.095zm8.195 12.943l-2.08-2.081a3.378 3.378 0 0 0-2.692-5.42 3.336 3.336 0 0 0-.997.167h-2.265v2.374a3.345 3.345 0 0 0-.118.839 3.377 3.377 0 0 0 5.414 2.695l2.082 2.081a.464.464 0 1 0 .656-.655zm-4.772-1.669a2.452 2.452 0 1 1 2.451-2.452 2.456 2.456 0 0 1-2.45 2.452z" fill="#fff"/></svg>