<svg width="111" height="73" xmlns="http://www.w3.org/2000/svg"><g transform="translate(0 1)" fill="none" fill-rule="evenodd"><g transform="translate(0 24.188)"><path d="M29.768 30.319c-.392 0-.785-.225-1.009-.619-.112-.281-.168-.562-.056-.844.112-.281.28-.506.56-.619 7.513-3.768 17.267-5.85 27.358-5.85 7.4 0 14.352 1.126 19.565 3.15 1.234.507 1.57 1.463 1.458 1.688-.056.112-.392 1.012-.953 1.012-.28 0-.617-.168-1.01-.506-2.634-2.137-10.483-2.925-16.986-2.925-11.043 0-21.695 2.025-28.478 5.4-.112.057-.28.113-.449.113z" fill="#FFF"/><path d="M3.083 47.306c-.112 0-.224-.056-.336-.112-.28-.169-.336-.507-.112-.788C14.688 29.25 34.309 19.013 55.164 19.013c20.854 0 40.475 10.237 52.528 27.393.169.282.113.619-.112.788-.28.168-.616.112-.785-.113C94.967 30.263 75.682 20.194 55.22 20.194c-20.462 0-39.803 10.069-51.576 26.887-.224.113-.392.225-.56.225z" fill="#0828CC"/><path d="M110.13 26.732h-2.797v-2.84c0-.48-.4-.83-.844-.83a.836.836 0 0 0-.844.83v2.84h-2.797a.836.836 0 0 0-.844.83c0 .437.4.83.844.83h2.797v2.84c0 .481.4.83.844.83a.836.836 0 0 0 .844-.83v-2.84h2.797a.836.836 0 0 0 .844-.83.836.836 0 0 0-.844-.83z" fill="#6B7EE0"/><path d="M95.864 21.894h-1.122a.55.55 0 0 1-.56-.554c0-.346.21-.553.56-.553h1.122v-1.108a.55.55 0 0 1 .56-.554c.35 0 .56.208.56.554v1.108h1.122c.28 0 .56.207.56.553a.55.55 0 0 1-.56.554h-1.121v1.177c-.07.346-.28.554-.56.554a.55.55 0 0 1-.561-.554v-1.177z" fill="#0828CC"/><path d="M1.628 25.93v1.016H.615a.635.635 0 0 0-.615.616c0 .327.29.617.615.617h1.013v1.017c0 .326.289.616.614.616.326 0 .615-.29.615-.616v-1.017H3.87c.326 0 .615-.29.615-.616a.635.635 0 0 0-.615-.617H2.857v-1.017a.635.635 0 0 0-.615-.616.61.61 0 0 0-.614.616" fill="#6B7EE0"/><path d="M31.602 2.459h-1.537V.916a.914.914 0 0 0-1.826 0V2.46H26.7a.914.914 0 0 0-.913.916c0 .482.432.916.913.916h1.538v1.543a.914.914 0 0 0 1.826 0V4.29h1.537a.914.914 0 0 0 .913-.916c0-.482-.432-.916-.913-.916z" fill="#0828CC"/><path d="M25.227 32.569a.874.874 0 0 1-.336.45c-1.065.843-2.13 1.8-3.083 2.756a1.034 1.034 0 0 1-1.402.056 1.043 1.043 0 0 1-.056-1.406 32.445 32.445 0 0 1 3.252-2.981c.448-.338 1.065-.281 1.401.168.28.282.336.676.224.957zm48.1 9.056c-7.456-2.138-13.006-5.794-12.501-8.212.504-2.42 7.007-2.644 14.407-.563 7.456 2.137 13.006 5.794 12.502 8.212l-.897 1.632-2.243 1.125h-3.868l-2.522-.563-3.084-.843L74 41.85" fill="#FFF"/><ellipse fill="#FFF" transform="rotate(-9.997 29.402 40.479)" cx="29.402" cy="40.479" rx="5.607" ry="3.656"/><path d="M29.768 30.319c-.392 0-.785-.225-1.009-.619-.112-.281-.168-.562-.056-.844.112-.281.28-.506.56-.619 7.513-3.768 17.267-5.85 27.358-5.85 7.4 0 14.352 1.126 19.565 3.15 1.234.507 1.57 1.463 1.458 1.688-.056.112-.392 1.012-.953 1.012-.28 0-.617-.168-1.01-.506-2.634-2.137-10.483-2.925-16.986-2.925-11.043 0-21.695 2.025-28.478 5.4-.112.057-.28.113-.449.113zm-4.541 2.25a.874.874 0 0 1-.336.45c-1.065.843-2.13 1.8-3.083 2.756a1.034 1.034 0 0 1-1.402.056 1.043 1.043 0 0 1-.056-1.406 32.445 32.445 0 0 1 3.252-2.981c.448-.338 1.065-.281 1.401.168.28.282.336.676.224.957zm48.1 9.056c-7.456-2.138-13.006-5.794-12.501-8.212.504-2.42 7.007-2.644 14.407-.563 7.456 2.137 13.006 5.794 12.502 8.212l-.897 1.632-2.243 1.125h-3.868l-2.522-.563-3.084-.843L74 41.85" fill-opacity=".1" fill="#0828CC"/><ellipse fill-opacity=".1" fill="#0828CC" transform="rotate(-9.997 29.402 40.479)" cx="29.402" cy="40.479" rx="5.607" ry="3.656"/><path d="M73.327 42.188h-.168c-6.783-1.913-13.567-5.682-12.894-8.888.112-.619.56-1.125 1.177-1.519 2.299-1.406 7.905-1.181 13.96.563 6.783 1.912 13.566 5.681 12.893 8.887a.582.582 0 0 1-.672.45c-.28-.056-.505-.393-.449-.675.393-1.8-4.485-5.343-12.109-7.537-5.662-1.632-11.044-1.857-13.062-.675-.392.225-.617.506-.673.787-.392 1.8 4.485 5.344 12.11 7.538.28.112.448.394.392.675 0 .225-.224.394-.505.394zm-46.362 2.587c-1.513 0-2.803-.45-3.588-1.294a2.523 2.523 0 0 1-.616-2.25c.28-1.462 1.625-3.037 3.587-4.05 3.14-1.687 6.84-1.687 8.354 0 .224.225.168.563-.057.788-.224.225-.56.169-.784-.056-1.178-1.294-4.373-1.182-7.008.225-1.682.9-2.86 2.137-3.027 3.262-.112.506.056.956.336 1.35 1.177 1.294 4.373 1.181 7.008-.225.28-.169.616-.056.785.225.168.281.056.619-.225.788-1.57.843-3.307 1.237-4.765 1.237z" fill="#0828CC"/></g><ellipse fill="#6B7EE0" fill-rule="nonzero" cx="55.5" cy="51.469" rx="11.773" ry="2.531"/><g fill-rule="nonzero"><path d="M55.22 0c-9.75 0-17.66 8.024-17.66 17.916 0 8.516 5.32 18.96 15.961 31.331a2.24 2.24 0 0 0 3.397 0c10.64-12.371 15.96-22.815 15.96-31.331C72.879 8.024 64.97 0 55.22 0zm0 26.264c-4.72 0-8.55-3.84-8.55-8.57s3.83-8.569 8.55-8.569c4.719 0 8.549 3.84 8.549 8.57s-3.83 8.569-8.55 8.569z" stroke="#03C" stroke-width="1.456" fill="#FFF"/><path d="M43.56 27c2.175 5.494 5.889 10.98 11.143 16.458" stroke="#E6E9F9" stroke-width="2" stroke-linecap="round"/></g></g></svg>