<svg xmlns="http://www.w3.org/2000/svg" viewBox="0 0 8.869 13.873"><path fill="#323232" d="M8.803 3.678c-.193-1.082-.71-1.981-1.56-2.671C6.203.163 5.009-.151 3.686.067a4.26 4.26 0 0 0-2.68 1.559C.106 2.732-.163 4.003.092 5.394c.11.596.302 1.168.532 1.728.371.904.821 1.768 1.309 2.612.65 1.125 1.844 3.148 1.844 3.148.07.118.129.215.132.215.003 0 .061.097.13.217l.271.47c.069.119.181.119.25 0l.271-.47c.069-.119.128-.217.132-.217.004 0 .064-.097.134-.215l.655-1.108c.727-1.231 1.463-2.457 2.087-3.745.383-.791.719-1.601.904-2.465.133-.625.173-1.253.06-1.886zM4.43 5.916c-.881 0-1.586-.71-1.585-1.595a1.593 1.593 0 0 1 1.589-1.586c.881 0 1.591.715 1.59 1.602A1.586 1.586 0 0 1 4.43 5.916z"/></svg>