<svg xmlns="http://www.w3.org/2000/svg" viewBox="0 0 14 14"><path d="M11.177 4.862h-1.2V3.118C9.977 1.4 8.58 0 6.86 0S3.741 1.4 3.741 3.118v1.744h-.917c-.772 0-1.401.629-1.401 1.401V12.6c0 .772.629 1.4 1.4 1.4h8.354c.772 0 1.4-.628 1.4-1.4V6.263c0-.772-.628-1.4-1.4-1.4zM4.95 3.118c0-1.052.857-1.91 1.91-1.91s1.91.858 1.91 1.91v1.744H4.95V3.118zm6.42 9.482a.192.192 0 0 1-.192.191H2.824a.192.192 0 0 1-.193-.191V6.263c0-.106.086-.192.193-.192h8.353c.106 0 .192.086.192.192V12.6z"/><path d="M7.98 9.557a.98.98 0 1 0-1.96 0c0 .32.164.59.4.77v1.248a.604.604 0 1 0 1.209 0v-1.282a.964.964 0 0 0 .351-.736z"/></svg>