<svg xmlns="http://www.w3.org/2000/svg" viewBox="0 0 14 14"><path fill-rule="evenodd" clip-rule="evenodd" d="M10.864 5.778h-.653v-2.24A3.059 3.059 0 0 0 7.156.481H6.71a3.059 3.059 0 0 0-3.056 3.055v2.24h-.519c-.902 0-1.636.734-1.636 1.636v4.47c0 .901.734 1.635 1.636 1.635h7.728c.902 0 1.636-.734 1.636-1.636V7.413c0-.902-.734-1.635-1.636-1.635zM7.6 10.096v.937a.6.6 0 1 1-1.199 0v-.848a1.072 1.072 0 0 1-.553-.926 1.086 1.086 0 0 1 2.172 0c0 .344-.17.638-.42.837zm1.39-4.318H4.878v-2.24c0-1.012.822-1.834 1.833-1.834h.445c1.01 0 1.833.822 1.833 1.833v2.24z"/></svg>