<svg xmlns="http://www.w3.org/2000/svg" viewBox="0 0 14 14"><path d="M7.066 14h-.13a.62.62 0 0 1-.1-.008c-.956-.07-1.54-.554-1.607-.613L.986 9.28C-.36 7.96.37 6.314.942 5.627c1.552-1.558 3.185-.771 3.834-.142l2.191 2.279 2.25-2.27c.658-.638 2.288-1.425 3.807.093.608.727 1.337 2.374-.005 3.69l-4.223 4.081c-.089.079-.674.564-1.63.634a.62.62 0 0 1-.1.008zm-1.033-1.497c.003 0 .368.286.968.306.612-.02.98-.32.996-.332l4.192-4.053c.873-.856.052-1.92-.045-2.038-.985-.982-1.919-.209-2.094-.043L7.383 9.034a.598.598 0 0 1-.851-.006l-2.6-2.703c-.157-.147-1.092-.92-2.112.103-.06.076-.88 1.14-.005 2l4.217 4.075z"/><path d="M7.001 1.19a1.5 1.5 0 0 1 1.498 1.498 1.5 1.5 0 0 1-2.997 0A1.5 1.5 0 0 1 7 1.19M7 0a2.688 2.688 0 1 0 0 5.375A2.688 2.688 0 0 0 7 0z"/></svg>