<svg id="Layer_1" xmlns="http://www.w3.org/2000/svg" viewBox="0 0 14 14"><style>.st0{fill:#010101}</style><path class="st0" d="M11.1 4.7c-.2-.1-.4 0-.6.1-1.1.8-2.3 1.6-3.4 2.4-.1.1-.2.1-.3 0-1.1-.8-2.3-1.6-3.4-2.4-.1 0-.2-.1-.3-.1-.3 0-.5.2-.6.5-.1.3 0 .5.3.7 1.2.8 2.5 1.6 3.7 2.5.3.2.5.2.9 0 1.3-.9 2.5-1.7 3.8-2.6.1 0 .1-.1.2-.1.3-.3.2-.8-.3-1z"/><path class="st0" d="M11.6 1.3H2.4C1.1 1.3 0 2.3 0 3.7v6.7c0 1.3 1.1 2.4 2.4 2.4h9.2c1.3 0 2.4-1.1 2.4-2.4V3.7c0-1.4-1.1-2.4-2.4-2.4zm1.2 9c0 .7-.5 1.2-1.2 1.2H2.4c-.7 0-1.2-.5-1.2-1.2V3.7c0-.7.5-1.2 1.2-1.2h9.2c.7 0 1.2.5 1.2 1.2v6.6z"/></svg>