<svg xmlns="http://www.w3.org/2000/svg" viewBox="0 0 12 12"><path d="M6.538 1v10H5.462V1h1.076m.279-1H5.183a.722.722 0 0 0-.721.722v10.556c0 .399.323.722.721.722h1.634a.722.722 0 0 0 .721-.722V.722A.722.722 0 0 0 6.817 0zM11 1v10H9.923V1H11m.278-1H9.645a.722.722 0 0 0-.722.722v10.556c0 .399.323.722.722.722h1.633a.722.722 0 0 0 .722-.722V.722A.722.722 0 0 0 11.278 0zM2.077 1v10H1V1h1.077m.278-1H.722A.722.722 0 0 0 0 .722v10.556c0 .399.323.722.722.722h1.633a.722.722 0 0 0 .722-.722V.722A.722.722 0 0 0 2.355 0z" fill="#010101"/></svg>