<svg xmlns="http://www.w3.org/2000/svg" viewBox="0 0 14 14"><path d="M10.16 5.425c.038-.306-.24-.577-.646-.601l-1.18-.042a.954.954 0 0 0-.98.709c-.32 1.266-.637 2.533-.956 3.8-.106.422.114.794.535.895.443.107.888.21 1.333.31.417.093.786-.136.88-.55.293-1.29.582-2.582.872-3.873.049-.216.145-.647.141-.648zM5.902 6.2c-.209-.003-1.017-.013-1.212-.013-.448 0-.857.291-.954.716-.157.683-.31 1.367-.46 2.052-.089.401.171.74.58.784.434.045.868.095 1.301.15a.804.804 0 0 0 .887-.625c.157-.775.309-1.55.46-2.326.08-.405-.188-.733-.602-.738zM2.285 7.69c-.285 0-.57 0-.855.005-.155.002-.315-.006-.463.03-.486.12-.775.45-.903.923a1.893 1.893 0 0 0-.063.43c-.014.337.167.53.504.54.275.007.55 0 .825 0v-.01c.254 0 .51-.001.764.001.33.003.574-.139.727-.429.146-.278.188-.58.153-.887-.046-.402-.286-.603-.689-.603zM13.42 2.3c-.44-.011-.88-.012-1.32-.014a.971.971 0 0 0-.947.745c-.124.515-.245 1.03-.368 1.545l-1.298 5.453a.82.82 0 0 0 .553.982c.226.076.452.15.676.232.419.153.836.31 1.268.471.015-.038.033-.073.043-.11.067-.263.139-.525.199-.79.41-1.809.818-3.619 1.227-5.429.177-.784.354-1.568.528-2.352.09-.403-.151-.722-.56-.733z"/></svg>