<svg xmlns="http://www.w3.org/2000/svg" viewBox="0 0 80 80"><path fill="#8D70C9" d="M66 21.4h-5.6c-1.4 0-2.8 1.1-3.1 2.4l-7.3 31c3.9 1.2 7.1 2.5 9.7 3.8l8.2-34.8c.3-1.3-.5-2.4-1.9-2.4zm-15.3 9.7H45c-1.4 0-2.8 1.1-3.1 2.4L37.6 52c3.8.6 7.1 1.3 10.1 2.1l4.8-20.7c.4-1.2-.5-2.3-1.8-2.3zm-28.8 12h-5.6c-1.4 0-2.8 1.1-3.1 2.4L12 50.6c.9-.1 1.8-.1 2.7-.1 2.8 0 5.4 0 7.9.1l1.2-5.1c.3-1.3-.5-2.4-1.9-2.4zm14.8-6.5H31c-1.4 0-2.8 1.1-3.1 2.4l-2.7 11.7c3.7.2 7.2.6 10.4 1l3-12.7c.3-1.3-.6-2.4-1.9-2.4z"/></svg>