<svg data-name="Layer 1" xmlns="http://www.w3.org/2000/svg" viewBox="0 0 24 24"><g data-name="Layer 1"><circle cx="12" cy="12" r="12" fill="#5359a2"/><path d="M15.343 10.48l-.01-.003a1.541 1.541 0 0 0-.026-.163.622.622 0 0 0-.635-.46c-.41-.012-.82-.023-1.229-.043a.993.993 0 0 0-1.019.738q-.5 1.977-.995 3.955a.733.733 0 0 0 .556.932q.693.167 1.388.323a.739.739 0 0 0 .916-.574q.457-2.014.907-4.03l.147-.675zm-4.431.807c-.217-.003-.434-.001-.651-.001v-.011c-.203 0-.407.007-.61-.001a.997.997 0 0 0-.993.745q-.246 1.066-.48 2.135a.658.658 0 0 0 .605.816q.678.07 1.354.156a.837.837 0 0 0 .923-.65c.163-.806.322-1.613.48-2.42a.62.62 0 0 0-.628-.77zm-3.764 1.551c-.297 0-.593 0-.89.005a2.196 2.196 0 0 0-.483.032 1.248 1.248 0 0 0-.94.96 2.032 2.032 0 0 0-.065.448.488.488 0 0 0 .525.56c.286.009.572.002.858.002v-.01c.265 0 .53-.002.796 0a.788.788 0 0 0 .756-.446 1.57 1.57 0 0 0 .16-.924.645.645 0 0 0-.717-.627zm11.59-5.61c-.459-.012-.917-.013-1.375-.015a1.011 1.011 0 0 0-.986.776l-.382 1.608-1.351 5.676a.854.854 0 0 0 .576 1.021c.235.079.47.157.702.242.437.159.871.323 1.32.49a1.022 1.022 0 0 0 .045-.115c.07-.274.145-.546.207-.82q.64-2.826 1.277-5.652.277-1.224.55-2.449a.59.59 0 0 0-.583-.762z" fill="#fff"/></g></svg>