<svg xmlns="http://www.w3.org/2000/svg" viewBox="0 0 14 14"><path d="M11.93 7.13c-.27 0-.5.23-.5.5v5.1c0 .09-.07.16-.15.16H1.16c-.09 0-.16-.07-.16-.16V1.17c0-.09.07-.16.16-.16h8.05c.28 0 .5-.22.5-.5 0-.27-.22-.5-.5-.5H1.16C.52.01 0 .53 0 1.17v11.56c0 .64.52 1.16 1.16 1.16h10.12c.63 0 1.15-.52 1.15-1.16v-5.1c0-.27-.22-.5-.5-.5zm-3.39-.8a1.25 1.25 0 0 0-.23-.23L5.84 4.3c-.18-.13-.4-.2-.62-.2-.17 0-.33.04-.48.11-.35.18-.57.55-.57.94v3.6c0 .4.22.76.57.94.36.18.78.14 1.1-.09l2.47-1.8c.47-.34.57-1 .23-1.47zm-.99.66L5.26 8.66v-.09l-.05-3.36.08.05 2.32 1.69-.06.04zM5.21 5.2v.01l.08.05-.08-.06zm8.57-3.52L12.26.16c-.19-.2-.51-.2-.71 0l-1.46 1.46c-.2.2-.2.51 0 .71.19.2.51.2.7 0l.64-.63v3.97c0 .27.23.5.5.5.28 0 .5-.23.5-.5V1.74l.64.64c.1.1.23.15.36.15a.501.501 0 0 0 .35-.85z"/></svg>