<svg xmlns="http://www.w3.org/2000/svg" viewBox="0 0 14 14"><path d="M4.976 4.713A.5.5 0 0 1 4.7 4.63L1.898 2.776a.5.5 0 1 1 .552-.834l2.519 1.666 2.468-1.721a.5.5 0 0 1 .573.82L5.262 4.623a.499.499 0 0 1-.286.09z"/><path d="M3.8 7.759H1.86c-1.288 0-1.756-.987-1.756-1.65V1.725C.104.475 1.233.022 1.991.022h5.915c1.614 0 1.967 1.152 1.967 1.596V3.67a.5.5 0 1 1-1 0V1.618c-.006-.132-.095-.596-.967-.596H1.991c-.145.002-.887.044-.887.703v4.384c.005.191.09.65.757.65H3.8a.5.5 0 1 1 0 1zm5.02.396a.666.666 0 1 1-1.332.002.666.666 0 0 1 1.332-.002"/><path d="M10.052 13.978a.502.502 0 0 1-.354-.146l-3.98-3.986a.502.502 0 0 1-.146-.354V6.127a.5.5 0 0 1 .484-.5l3.521-.112a.474.474 0 0 1 .381.158l3.803 4.07a.5.5 0 0 1-.01.692L10.41 13.83a.568.568 0 0 1-.357.15zm-3.48-4.693l3.478 3.483 2.653-2.693-3.32-3.554-2.81.09v2.674z"/></svg>