<svg xmlns="http://www.w3.org/2000/svg" viewBox="0 0 14 14"><path d="M7.017 1.48c1.467 0 2.934-.002 4.401 0 1.265.002 2.289.839 2.534 2.074.033.167.045.34.045.51.003 1.954.004 3.909.002 5.864-.002 1.467-1.125 2.592-2.59 2.592-2.94.002-5.88.002-8.82 0-1.459 0-2.585-1.123-2.587-2.58C0 7.977 0 6.01.002 4.047A2.537 2.537 0 0 1 2.568 1.48c1.483-.003 2.966 0 4.449 0zM7 2.626H2.63c-.883 0-1.48.6-1.48 1.486v5.756c0 .884.587 1.473 1.47 1.473h8.758c.88 0 1.475-.595 1.475-1.472V4.114c0-.885-.6-1.487-1.48-1.487H7z"/><path d="M3.06 5.02c.123.058.26.098.37.174a507.63 507.63 0 0 1 3.373 2.361c.112.079.182.08.295.001 1.147-.79 2.3-1.574 3.448-2.362.187-.128.382-.186.6-.11a.576.576 0 0 1 .199.973c-.05.045-.107.082-.162.12L7.369 8.776c-.333.227-.523.226-.85-.003l-3.743-2.62c-.268-.187-.364-.412-.292-.674.073-.262.29-.428.575-.458z"/></svg>