<svg xmlns="http://www.w3.org/2000/svg" viewBox="0 0 14 14"><path fill="none" d="M1.116 12.216c0 .293.238.531.531.531h4.926a.532.532 0 0 0 .532-.531v-1.322h-5.99v1.322zm2.994-.976a.5.5 0 1 1 0 1 .5.5 0 0 1 0-1zm3.117-3.523a.343.343 0 0 0 .285.063.495.495 0 0 0 .417-.25.81.81 0 0 0 .09-.224l-1.005.139a.68.68 0 0 0 .213.272zM5.503 6.125l.129.307 4.695-.385-1.222-3.08z"/><circle cx="4.11" cy="11.74" r=".5"/><path d="M7.105 9.009v.885h-5.99V1.648c0-.294.239-.532.532-.532h4.926c.294 0 .532.238.532.532v.153c.207-.13.45-.21.713-.21.175 0 .34.037.494.098v-.502C8.312.5 7.756-.055 7.07-.055H1.168c-.686 0-1.242.556-1.242 1.242v11.516c0 .686.556 1.242 1.242 1.242H7.07c.686 0 1.242-.556 1.242-1.242V9.121a1.322 1.322 0 0 1-1.207-.113zm0 3.207a.532.532 0 0 1-.532.531H1.647a.532.532 0 0 1-.531-.531v-1.322h5.989v1.322z"/><path d="M11.336 5.694L10.027 2.58a.908.908 0 0 0-.64-.529 1.1 1.1 0 0 0-.97.243l-3.573 3.08c-.326.28-.442.716-.286 1.083l.152.362c.143.34.492.556.883.556.025 0 .05 0 .074-.002l.524-.036c.054.253.2.709.602.992.2.142.433.214.636.214a.765.765 0 0 0 .193-.024c.142-.008.63-.072.95-.602.16-.267.208-.544.22-.76l1.604-.112c.358-.025.682-.218.866-.516a.906.906 0 0 0 .074-.835zM7.929 7.53a.495.495 0 0 1-.417.249.343.343 0 0 1-.285-.063.68.68 0 0 1-.213-.272l1.006-.14a.81.81 0 0 1-.091.226zm-2.297-1.1l-.13-.306 3.603-3.158 1.222 3.08-4.695.385z"/></svg>