<svg xmlns="http://www.w3.org/2000/svg" viewBox="0 0 14 14"><path fill="none" d="M1.19 12.27c0 .294.238.533.532.533h4.925a.532.532 0 0 0 .532-.532v-1.322h-5.99v1.322zm2.994-.975a.5.5 0 1 1 0 1 .5.5 0 0 1 0-1zm8.091-8.626v.547h.975V1.43h-1.786V2h.143c.369 0 .668.3.668.669zm-.749 6.333h-.441v.579h1.717V7.863h-.608v.471c0 .37-.3.668-.668.668zm-1.131-2.467h.283V4.63h-.364a.668.668 0 0 1-.668-.668v-.574l-2.968.032.043 3.999 3.006-.032v-.183c0-.369.299-.668.668-.668zm-7.915.116l1.717-.042v-1.76l-1.76.041z"/><circle cx="4.184" cy="11.795" r=".5"/><path d="M7.594 9.274a1.03 1.03 0 0 1-.415-.09v.765h-5.99V1.703c0-.293.239-.532.533-.532h4.925c.294 0 .532.239.532.532v.033a1.03 1.03 0 0 1 .415-.09h.616c.062 0 .117.026.176.037v-.441C8.386.556 7.83 0 7.144 0H1.242C.556 0 0 .556 0 1.242v11.516C0 13.444.556 14 1.242 14h5.902c.686 0 1.242-.556 1.242-1.242v-3.52c-.06.01-.114.036-.176.036h-.616zM7.18 12.27a.532.532 0 0 1-.532.532H1.722a.532.532 0 0 1-.532-.532v-1.322h5.989v1.322z"/><path d="M2.437 4.14a.708.708 0 0 0-.707.708v1.803c0 .39.317.707.707.707h1.802c.39 0 .708-.317.708-.707V4.848a.709.709 0 0 0-.708-.708H2.437zm1.76 2.469l-1.717.042-.043-1.76 1.76-.043V6.61zM13.668.68h-2.621a.332.332 0 0 0-.333.332v.989h.75V1.43h1.786v1.786h-.975v.745l-.001.005h1.394A.332.332 0 0 0 14 3.633v-2.62a.332.332 0 0 0-.332-.333z"/><path fill="#FFF" d="M10.314 4.629h.364V3.376l-1.032.01v.575c0 .369.3.668.668.668z"/><path fill="#FFF" d="M12.275 3.216v-.547c0-.37-.3-.668-.668-.668h-1.293a.668.668 0 0 0-.668.668h1.075c.39 0 .707.317.707.707v1.253h.179a.667.667 0 0 0 .667-.663v-.75z"/><path d="M11.428 3.376a.708.708 0 0 0-.707-.707H6.678a.708.708 0 0 0-.707.707v4.042c0 .39.317.708.707.708h3.049v-.74l-3.006.032-.043-4 2.968-.031 1.032-.011v3.159h.75V3.376z"/><path fill="#FFF" d="M10.395 6.535c-.369 0-.668.3-.668.668v1.131c0 .348.269.624.608.656V7.691c0-.118.044-.221.105-.313a.572.572 0 0 1 .238-.213.568.568 0 0 1 .234-.052h1.264a.66.66 0 0 0-.65-.578h-1.131z"/><path fill="#FFF" d="M11.085 7.863v1.139h.441a.668.668 0 0 0 .668-.668v-.471h-1.109z"/><path d="M10.912 7.113a.568.568 0 0 0-.234.052.572.572 0 0 0-.238.213.563.563 0 0 0-.105.313v2.063c0 .318.259.577.577.577h2.063a.578.578 0 0 0 .577-.577V7.69a.578.578 0 0 0-.577-.578h-2.063zm1.282.75h.608V9.58h-1.717V7.863h1.109z"/></svg>