<svg xmlns="http://www.w3.org/2000/svg" viewBox="0 0 14 14"><path d="M12.999.98H8.646a2.23 2.23 0 0 0-1.642.728A2.23 2.23 0 0 0 5.36.98H1.008a.93.93 0 0 0-.93.93v9.172c0 .513.417.93.93.93h4.367a1.03 1.03 0 0 1 1.029 1.028.6.6 0 0 0 1.2 0 1.03 1.03 0 0 1 1.028-1.028h4.367a.93.93 0 0 0 .93-.93V1.91a.93.93 0 0 0-.93-.93zM6.404 11.065a2.216 2.216 0 0 0-1.03-.252H1.278V2.179H5.36c.575 0 1.044.468 1.044 1.043v7.843zm6.325-.252H8.632c-.37 0-.72.09-1.029.25v-7.84c0-.576.468-1.044 1.043-1.044h4.083v8.634z"/><path d="M5.347 4.593H2.334a.6.6 0 0 1 0-1.2h3.013a.6.6 0 0 1 0 1.2zm0 2.452H2.334a.6.6 0 0 1 0-1.199h3.013a.6.6 0 0 1 0 1.2zm0 2.451H2.334a.6.6 0 0 1 0-1.199h3.013a.6.6 0 0 1 0 1.2zm6.327-4.903H8.659a.6.6 0 0 1 0-1.2h3.015a.6.6 0 0 1 0 1.2zm0 2.452H8.659a.6.6 0 0 1 0-1.199h3.015a.6.6 0 0 1 0 1.2zm0 2.451H8.659a.6.6 0 0 1 0-1.199h3.015a.6.6 0 0 1 0 1.2z"/></svg>