<svg xmlns="http://www.w3.org/2000/svg" viewBox="1 1.214 12 11.57"><path d="M2.336 3.444c.085-.054.173-.102.266-.144.08-.036.09-.075.025-.14a.14.14 0 0 0-.015-.017c-.198-.205-.295-.46-.337-.744-.357.302-.622 1.042-.558 1.57.195-.201.395-.382.62-.525zm10.661 3.447l-.001-.048-.005-.105c0-.02-.002-.037-.003-.056a3.433 3.433 0 0 0-.007-.097l-.005-.057-.01-.096-.006-.055-.013-.096-.008-.053-.015-.099-.009-.049a4.418 4.418 0 0 0-.02-.104l-.008-.042a5.095 5.095 0 0 0-.024-.111l-.008-.034a3.243 3.243 0 0 0-.03-.124l-.006-.02a5.472 5.472 0 0 0-.37-.997c-.232-.94-.852-1.659-1.84-2.176l-.015-.007c.212.492.727.77.936 1.22-.224-.208-.474-.434-.717-.667-.247-.24-.504-.465-.819-.615-.3-.142-.603-.274-.938-.327a5.134 5.134 0 0 1 1.517 1.544c-.282-.167-.542-.377-.944-.377.806.765 1.213 1.652 1.126 2.786-.146-.196-.26-.361-.486-.47.041.39.082.744.114 1.098.034.369-.038.723-.144 1.11-.041-.065-.06-.095-.078-.126-.023-.04-.043-.082-.098-.063-.123.6-.22 1.212-.664 1.677-.085.09-.185.371-.4.096-.042-.053-.133.035-.178.093-.091.116-.175.24-.304.321-.037.023-.079.038-.119.057-.096-.205-.233-.04-.345-.028-.285.031-.567.106-.852.127-.305.023-.606-.013-.864-.218.09-.09.192-.004.286-.06a.665.665 0 0 0-.438-.153c-.459-.015-.772-.277-1.078-.566-.591-.56-.764-1.726-.317-2.354.143-.201.08-.23-.098-.282-.54-.16-1.15.267-1.29.893-.078.353.01.685.102 1.019-.36-.562-.294-1.335.142-1.768a1.23 1.23 0 0 1 .702-.368c.444-.063.776.163 1.11.468.037-.342.051-.616-.15-.881a1.647 1.647 0 0 1-.317-1.337c.094-.503.314-.942.665-1.319.063-.067.172-.115.167-.248-.827-.023-1.328.481-1.798 1.108.006-.092-.003-.14.013-.178.107-.263-.013-.334-.26-.347-.808-.04-1.462.266-1.94.894a5.173 5.173 0 0 0-.268.385 5.478 5.478 0 0 0-.54 1.87l-.002.008c-.005.053-.01.107-.013.162l-.003.043a3.445 3.445 0 0 0-.007.133l-.002.047a5.832 5.832 0 0 0 .037.837c.08.668.283 1.302.584 1.88v.002a5.582 5.582 0 0 0 .873 1.236c0 .002.002.003.003.004.097.105.197.206.302.304l.007.007c.104.096.212.189.323.279l.008.007c.112.089.227.175.345.257l.006.004a6.003 6.003 0 0 0 .56.343l.009.005c.127.068.256.132.39.191l.013.006c.131.059.266.114.402.162l.015.006c.137.05.276.094.419.133l.012.004c.072.02.144.038.216.056a.3.3 0 0 0 .125.029 6.068 6.068 0 0 0 1.005.135c.049.003.099.004.148.006.066.007.133.013.201.015.039 0 .12.014.133-.013.113-.003.225-.008.338-.017h.004l.157-.013.026-.003.135-.015.033-.005.128-.018.034-.005.126-.021.032-.006a3.18 3.18 0 0 0 .13-.026l.026-.005c.047-.01.094-.02.141-.032l.013-.002a6.09 6.09 0 0 0 1.064-.36 5.375 5.375 0 0 0 .285-.135l.073-.038.06-.032a5.8 5.8 0 0 0 .215-.121h.002a6.3 6.3 0 0 0 .49-.325c.002 0 .003-.002.005-.003.104-.077.206-.157.305-.24l.003-.003a5.75 5.75 0 0 0 .422-.39l.01-.011a5.23 5.23 0 0 0 .255-.28l.007-.007a5.93 5.93 0 0 0 .112-.136l.011-.014a5.773 5.773 0 0 0 .33-.46l.006-.01c.034-.052.066-.104.098-.158l.008-.015c.028-.046.055-.093.081-.141l.016-.03c.058-.105.112-.211.162-.32l.016-.034.06-.138a4.845 4.845 0 0 0 .08-.197l.008-.02.053-.147.015-.042.049-.152.005-.018c.017-.056.032-.114.048-.171l.01-.041.033-.137.01-.044a5.735 5.735 0 0 0 .067-.352l.007-.05.02-.146.004-.036a4.172 4.172 0 0 0 .028-.415 3.357 3.357 0 0 0 .002-.339z"/><path d="M5.4 8.856a.63.63 0 0 0 .382.132c.643.042 1.178-.2 1.658-.596a.599.599 0 0 1 .454-.16c.23.018.298-.102.194-.306a.59.59 0 0 0-.305-.271c-.388-.168-.777-.185-1.147.038-.329.198-.666.203-1.019.101-.288-.084-.536-.242-.809-.457-.052.64.116 1.139.593 1.519zM2.765 3.02c.085.085.142.05.206-.018.032-.033.066-.065.102-.095 1.266-1.118 2.74-1.587 4.424-1.395.798.09 1.535.417 2.34.58-.033-.028-.051-.05-.074-.064a6.965 6.965 0 0 0-.922-.432c-1.511-.574-3.047-.503-4.605.224a5.298 5.298 0 0 0-1.43 1c-.054.052-.13.097-.056.185l.015.014zm2.91 2.577c.263-.209.585-.317.86-.504a.495.495 0 0 0 .202-.538c-.046-.203-.253-.141-.4-.156-.354-.035-.726.061-1.065-.171-.146.499-.02.91.238 1.292.037.055.069.153.165.077z"/></svg>