<svg xmlns="http://www.w3.org/2000/svg" viewBox="0 0 48 48"><path fill-rule="evenodd" clip-rule="evenodd" fill="#3C5A9A" d="M3 0h21v24H0V3a3 3 0 0 1 3-3z"/><path fill-rule="evenodd" clip-rule="evenodd" fill="#097CB8" d="M0 24h24v24H3a3 3 0 0 1-3-3V24z"/><path fill-rule="evenodd" clip-rule="evenodd" fill="#15A8E1" d="M24 0h21a3 3 0 0 1 3 3v21H24V0z"/><path fill-rule="evenodd" clip-rule="evenodd" fill="#F26E60" d="M24 24h24v21a3 3 0 0 1-3 3H24V24z"/><path fill="#FFF" d="M14.263 7.819v1.754h-1.005c-.065 0-.13.003-.194.008-.214.018-.323.123-.345.338a2.62 2.62 0 0 0-.014.268V11.1h1.562l-.15 1.692h-1.409v5.06h-2.023v-5.038h-1.05v-1.71h1.05v-.077c0-.447-.004-.894 0-1.34.003-.309.05-.61.177-.895.17-.377.455-.63.834-.784.32-.13.657-.182.999-.188.512-.01 1.023-.003 1.535-.004l.033.003zM30.67 8.425s1.518 2.162 4.734 2.367c0 0-.334-1.775 1.159-2.573 1.492-.798 2.625.488 2.625.488s.669-.05 1.363-.566c0 0 .129.463-.875 1.235 0 0 .54-.051 1.184-.309 0 0-.206.643-1.055 1.158 0 0 .412 2.702-2.316 5.276-2.728 2.575-6.948 1.056-7.489.541 0 0 2.033.078 3.191-1.029 0 0-1.312-.051-1.98-1.518 0 0 .539.078 1.028-.103 0 0-1.672-.412-1.826-2.136 0 0 .334.206.9.103 0 0-1.467-1.004-.644-2.934zM17.467 40.041h-2.059v-3.315c0-.832-.299-1.401-1.044-1.401-.57 0-.909.383-1.056.754-.055.133-.069.318-.069.502v3.46h-2.06s.027-5.615 0-6.197h2.06v.88c.274-.421.76-1.025 1.857-1.025 1.355 0 2.371.886 2.371 2.79v3.552zM9.01 33h-.015c-.69 0-1.138-.476-1.138-1.071 0-.609.46-1.07 1.166-1.07.705 0 1.14.462 1.152 1.07 0 .595-.447 1.071-1.165 1.071zm1.03 7.042H7.98v-6.197h2.06v6.197zM33.811 35.244v1.512l2.06-.002c-.322.98-.824 1.514-2.06 1.514-1.25 0-2.226-1.015-2.226-2.268s.976-2.268 2.226-2.268c.661 0 1.088.233 1.48.557.314-.314.287-.359 1.085-1.113a3.794 3.794 0 0 0-2.565-.994A3.815 3.815 0 0 0 30 36a3.815 3.815 0 0 0 3.811 3.818c3.147 0 3.916-2.744 3.66-4.574h-3.66zm6.868.076v-1.324h-.943v1.324h-1.359v.945h1.359v1.36h.943v-1.36H42v-.945h-1.32z"/></svg>