<svg xmlns="http://www.w3.org/2000/svg" viewBox="0 0 14 14"><path fill="#020202" d="M13.82 7.841a.597.597 0 0 0-.85.008l-1.55 1.595-.023-6.38a.604.604 0 0 0-.6-.605h-.003a.604.604 0 0 0-.599.61l.024 6.396-1.572-1.602a.595.595 0 0 0-.85-.003.613.613 0 0 0-.004.86l2.594 2.641a.596.596 0 0 0 .85.003c.008-.007.01-.017.017-.025.007-.006.017-.009.024-.016l2.55-2.623a.612.612 0 0 0-.008-.859z"/><path d="M2.15 12.903l.608-.758c.61-.761 1.24-1.547 1.875-2.307.253-.303.24-.61.228-.882l-.007-.32H.752v1.1H3.21c-.207.254-.412.51-.618.765-.567.702-1.153 1.428-1.752 2.12-.355.409-.36.83-.312 1.224l.02.155H4.93v-1.097H2.15zM3.248 0H2.182L0 5.662h1.186l.578-1.568h1.864l.563 1.568h1.246L3.247 0zm.002 3.055H2.145l.557-1.55.548 1.55z"/></svg>