<svg xmlns="http://www.w3.org/2000/svg" viewBox="0 0 12 12"><path fill="#19171C" d="M8.952 7.773a.5.5 0 0 1-.5-.5v-3.43a.5.5 0 1 1 1 0v3.43a.5.5 0 0 1-.5.5zm-2.514 0a.5.5 0 0 1-.5-.5v-3.43a.5.5 0 1 1 1 0v3.43a.5.5 0 0 1-.5.5zm-2.515 0a.5.5 0 0 1-.5-.5v-3.43a.5.5 0 1 1 1 0v3.43a.5.5 0 0 1-.5.5z"/><path d="M3.73 9.38H2.6V8.248a.5.5 0 1 0-1 0V9.38H.467a.5.5 0 1 0 0 1h1.132v1.132a.5.5 0 1 0 1 0V10.38H3.73a.5.5 0 1 0 0-1z"/><path d="M9.306.431H3.57A2.755 2.755 0 0 0 .818 3.183V6.18H.82l-.002.015a.5.5 0 0 0 1 0c0-.006-.003-.01-.003-.015h.003V3.183c0-.966.786-1.752 1.752-1.752h5.736c.966 0 1.752.786 1.752 1.752v4.75c0 .966-.786 1.752-1.752 1.752H5.848v.018c-.232.044-.41.238-.41.482s.178.438.41.482v.018h3.458a2.755 2.755 0 0 0 2.752-2.752v-4.75A2.755 2.755 0 0 0 9.306.43z"/></svg>