<svg xmlns="http://www.w3.org/2000/svg" viewBox="0 0 12 4.273"><path d="M1.726.003l-.015.029a3.339 3.339 0 0 0-.374.894 1.845 1.845 0 0 0-.053.566c.032.468.353.844.81.948.212.048.426.05.642.033.321-.025.63-.114.938-.196l3.668-.974L11.238.267l.735-.195a.047.047 0 0 1 .027 0l-.033.014L4.73 3.183c-.546.234-1.092.468-1.64.697a5.462 5.462 0 0 1-1.093.333 2.812 2.812 0 0 1-.764.052C.948 4.24.681 4.163.455 3.98a1.154 1.154 0 0 1-.444-.79 1.991 1.991 0 0 1 .096-.826A3.92 3.92 0 0 1 .636 1.31c.25-.366.537-.703.833-1.032L1.685.04 1.722 0l.004.003z"/></svg>