<svg xmlns="http://www.w3.org/2000/svg" viewBox="0 0 177.687 81.932"><path fill="#F7F8FD" d="M23 1.8h69.955c1.213 0 2.2.987 2.2 2.2v46.805H20.8V4c0-1.213.987-2.2 2.2-2.2zM103.527 31.84c0-1.212.987-2.2 2.2-2.2H155c1.213 0 2.2.988 2.2 2.2v36.49h-53.673V31.84z"/><path fill="#A9A9B2" d="M165.732 17.835h-1.978v-1.978a.926.926 0 0 0-1.85 0v1.978h-1.979a.925.925 0 0 0 0 1.85h1.979v1.979a.925.925 0 1 0 1.85 0v-1.978h1.978a.926.926 0 0 0 0-1.851zM6.732 3.835H4.754V1.857a.926.926 0 0 0-1.85 0v1.978H.924a.925.925 0 0 0 0 1.85h1.978v1.979a.925.925 0 1 0 1.851 0V5.686h1.978a.926.926 0 0 0 0-1.851zM115.823 18.957L114.4 19l-.042-1.423c-.011-.367-.328-.633-.686-.645a.667.667 0 0 0-.646.686l.043 1.422-1.423.043a.667.667 0 0 0 .02 1.332h.02l1.423-.043.043 1.423c.01.36.306.646.665.646h.02a.667.667 0 0 0 .646-.686l-.043-1.423 1.423-.043a.667.667 0 0 0 .646-.686.67.67 0 0 0-.686-.646zM106.029 10.628h-1.061v-1.06a.636.636 0 0 0-1.272 0v1.06h-1.06a.636.636 0 0 0 0 1.272h1.06v1.06a.636.636 0 0 0 1.272 0V11.9h1.06a.636.636 0 0 0 0-1.272z"/><path fill-rule="evenodd" clip-rule="evenodd" fill="#E6EAFA" d="M24.773 56.477H54.59a1 1 0 0 1 1 1v1.182a1 1 0 0 1-1 1H24.773a1 1 0 0 1-1-1v-1.182a1 1 0 0 1 1-1zM24.773 63.636h21.863a1 1 0 0 1 1 1v.387a1 1 0 0 1-1 1H24.773a1 1 0 0 1-1-1v-.387a1 1 0 0 1 1-1z"/><path fill="#FF606C" d="M49.081 36.695c-.035-.041-.04-.13-.014-.235.056-.221.479-1.318 3.539-2.692-.438.693-1.123 1.683-1.876 2.423-.53.497-.942.75-1.226.75-.101 0-.241-.028-.423-.246zm7.094-5.398c.532-1.078 1.128-2.65 1.452-3.539.65 1.092 1.524 2.105 2.03 2.655a41.584 41.584 0 0 0-3.482.884zm.713-11.515c.134 0 .222.043.295.144.423.588.082 2.51-.333 4.015-.4-1.29-.7-3.27-.278-3.965.083-.136.177-.194.316-.194zm7.2 11.177c1.468 0 1.856.487 1.856.745 0 .162-.061.69-.848.69-.706 0-1.925-.41-3.124-1.298.5-.066 1.24-.137 2.115-.137zm.13-1.08c-1.236 0-2.783.216-3.289.292-2.095-2.196-2.69-3.444-2.825-3.777.182-.469.814-2.249.904-4.535.044-1.144-.197-2-.716-2.542a1.881 1.881 0 0 0-1.327-.583c-.63 0-1.69.32-1.69 2.466 0 1.862.865 3.837 1.104 4.347-1.26 3.681-2.611 6.2-2.898 6.719-5.06 1.912-5.456 3.761-5.456 4.285 0 .942.668 1.504 1.787 1.504 2.72 0 5.2-4.582 5.61-5.378 1.932-.772 4.517-1.25 5.174-1.365 1.885 1.802 4.064 2.283 4.97 2.283.68 0 2.276 0 2.276-1.646 0-1.528-1.952-2.07-3.624-2.07z"/><path fill-rule="evenodd" clip-rule="evenodd" fill="#E6EAFA" d="M107.5 73.977h21.864a1 1 0 0 1 1 1v.387a1 1 0 0 1-1 1H107.5a1 1 0 0 1-1-1v-.387a1 1 0 0 1 1-1z"/><path fill="#FFC638" d="M133.518 49.691c.93 0 1.686-.76 1.686-1.697 0-.936-.755-1.696-1.686-1.696s-1.686.76-1.686 1.696c0 .937.755 1.697 1.686 1.697zm1.038 2.548l-2.367 2.178-5.484-8.28-4.47 10.34h16.188l-3.867-4.238z"/><path fill="#8F8FA5" d="M92.955 0H23a4 4 0 0 0-4 4v63.59a4 4 0 0 0 4 4h69.955a4 4 0 0 0 4-4V4a4 4 0 0 0-4-4zM23 1.8h69.955c1.213 0 2.2.987 2.2 2.2v46.805H20.8V4c0-1.213.987-2.2 2.2-2.2zm69.955 67.99H23c-1.213 0-2.2-.986-2.2-2.2V52.606h74.355V67.59c0 1.213-.987 2.2-2.2 2.2zM155 27.84h-49.273a4 4 0 0 0-4 4v46.092a4 4 0 0 0 4 4H155a4 4 0 0 0 4-4V31.84a4 4 0 0 0-4-4zm-51.473 4c0-1.212.987-2.2 2.2-2.2H155c1.213 0 2.2.988 2.2 2.2v36.49h-53.673V31.84zM155 80.133h-49.273c-1.213 0-2.2-.987-2.2-2.2V70.08H157.2v7.852c0 1.213-.987 2.2-2.2 2.2z"/></svg>