<svg xmlns="http://www.w3.org/2000/svg" viewBox="0 0 121.818 62.176"><path fill="#E6E9F9" d="M85.919 2a2.01 2.01 0 0 1 2.007 2.008v49.706a2.01 2.01 0 0 1-2.007 2.008H35.765a2.01 2.01 0 0 1-2.008-2.008V4.008A2.01 2.01 0 0 1 35.765 2h50.154"/><path fill="none" d="M35.484 1.028h51a3 3 0 0 1 3 3v50a3 3 0 0 1-3 3h-51a3 3 0 0 1-3-3v-50a3 3 0 0 1 3-3z"/><path fill="#0828CC" d="M15.998 13.722l-2.487.004-.004-2.549a.75.75 0 0 0-1.5.003l.004 2.548-2.487.004a.75.75 0 0 0 .003 1.5l2.487-.004.004 2.55a.75.75 0 0 0 1.5-.004l-.004-2.548 2.487-.004a.75.75 0 0 0-.003-1.5M4.749 9.802l-1.25.002-.002-1.25a.75.75 0 0 0-1.5.002l.002 1.25-1.25.002a.75.75 0 1 0 .002 1.5l1.25-.002.002 1.25a.75.75 0 1 0 1.5-.002l-.002-1.25 1.25-.002a.75.75 0 1 0-.002-1.5M121.066 57.558l-2.486.004-.004-2.55a.75.75 0 0 0-1.5.004l.004 2.548-2.487.004a.75.75 0 0 0 .002 1.5l2.487-.004.004 2.549a.75.75 0 0 0 1.5-.003l-.004-2.548 2.487-.004a.75.75 0 1 0-.003-1.5M85.919 0H35.765a4.008 4.008 0 0 0-4.008 4.008v49.706a4.009 4.009 0 0 0 4.008 4.008h50.154a4.008 4.008 0 0 0 4.007-4.008V4.008A4.007 4.007 0 0 0 85.919 0m0 2a2.01 2.01 0 0 1 2.007 2.008v49.706a2.01 2.01 0 0 1-2.007 2.008H35.765a2.01 2.01 0 0 1-2.008-2.008V4.008A2.01 2.01 0 0 1 35.765 2h50.154"/><ellipse fill="none" cx="74.95" cy="12.528" rx="4.466" ry="4.5"/><ellipse fill="#FFF" cx="74.95" cy="12.528" rx="4.466" ry="4.5"/><path fill="#0828CC" d="M74.95 18.028a5.5 5.5 0 1 1 5.466-5.5 5.49 5.49 0 0 1-5.467 5.5zm0-9a3.5 3.5 0 1 0 3.466 3.5 3.487 3.487 0 0 0-3.467-3.5z"/><path fill="none" d="M65.256 45.155l6.597-7.375c.449-.62 1.221-1.094 1.495-.951.6.055 1.14.387 1.46.898L87.44 55.103a1 1 0 0 1-.809 1.588H72.225l-6.969-11.536zm7.074 11.417H35.614a1 1 0 0 1-.85-1.525l15.018-24.37a4.025 4.025 0 0 1 6.793-.017L72.33 56.572z"/><path fill="#FFF" d="M65.256 45.155l6.597-7.375c.449-.62 1.221-1.094 1.495-.951.6.055 1.14.387 1.46.898L87.44 55.103a1 1 0 0 1-.809 1.588H72.225l-6.969-11.536zm7.074 11.417H35.614a1 1 0 0 1-.85-1.525l15.018-24.37a4.025 4.025 0 0 1 6.793-.017L72.33 56.572z"/><path fill="#0828CC" d="M86.631 57.691H71.677l-.076-.119H35.614a2 2 0 0 1-1.703-3.048l15.019-24.37a4.905 4.905 0 0 1 4.258-2.35h.003a4.88 4.88 0 0 1 4.242 2.342l8.055 13.25 5.588-6.248c.51-.677 1.544-1.521 2.449-1.312.85.106 1.613.58 2.086 1.296l12.638 17.383a2 2 0 0 1-1.618 3.176zm-13.667-2h13.667L73.999 38.315a1.042 1.042 0 0 0-.651-.486h-.09c-.232.138-.435.32-.596.538l-.064.08-6.024 6.735 6.39 10.51zM53.188 29.804a2.925 2.925 0 0 0-2.55 1.388l-15.024 24.38h34.767l-3.104-5.138-3.26-5.394.078-.087L55.72 31.18a2.9 2.9 0 0 0-2.532-1.376h-.001z"/></svg>