<svg xmlns="http://www.w3.org/2000/svg" viewBox="0 0 219 111"><path d="M28.7 1h163v18.7h-163zm15.5 45c0 .3.2.5.5.5h131c.3 0 .5-.2.5-.5s-.2-.5-.5-.5h-131c-.3 0-.5.2-.5.5 0 0 0-.3 0 0zm0 16c0 .3.2.5.5.5h131c.3 0 .5-.2.5-.5s-.2-.5-.5-.5h-131c-.3 0-.5.2-.5.5 0 0 0-.3 0 0zm0 16c0 .3.2.5.5.5h131c.3 0 .5-.2.5-.5s-.2-.5-.5-.5h-131c-.3 0-.5.2-.5.5 0 0 0-.3 0 0zm0 16c0 .3.2.5.5.5h131c.3 0 .5-.2.5-.5s-.2-.5-.5-.5h-131c-.3 0-.5.2-.5.5 0 0 0-.3 0 0z" fill="#FFF"/><path d="M28.7 1h163v18.7h-163zm15.5 45c0 .3.2.5.5.5h131c.3 0 .5-.2.5-.5s-.2-.5-.5-.5h-131c-.3 0-.5.2-.5.5 0 0 0-.3 0 0zm0 16c0 .3.2.5.5.5h131c.3 0 .5-.2.5-.5s-.2-.5-.5-.5h-131c-.3 0-.5.2-.5.5 0 0 0-.3 0 0zm0 16c0 .3.2.5.5.5h131c.3 0 .5-.2.5-.5s-.2-.5-.5-.5h-131c-.3 0-.5.2-.5.5 0 0 0-.3 0 0zm0 16c0 .3.2.5.5.5h131c.3 0 .5-.2.5-.5s-.2-.5-.5-.5h-131c-.3 0-.5.2-.5.5 0 0 0-.3 0 0z" fill="#0828CC" fill-opacity=".1"/><path fill="#0828CC" d="M191.1 110.8c-.6 0-1-.4-1-1V3c0-.6-.4-1-1-1H30.7c-.5 0-1 .5-1 1v106.8c0 .6-.4 1-1 1s-1-.4-1-1V3c0-1.7 1.3-3 3-3h158.5c1.7 0 3 1.3 3 3v106.8c-.1.6-.5 1-1.1 1zM9.5 86.3H6.4v-3.2c0-.4-.3-.8-.8-.8s-.8.3-.8.8v3.2H1.7c-.4 0-.8.3-.8.8s.3.8.8.8h3.1v3.2c0 .4.3.8.8.8s.8-.3.8-.8v-3.2h3.1c.4 0 .8-.3.8-.8s-.4-.8-.8-.8zm11.6-17.7h-2.3V66c0-.4-.3-.8-.8-.8s-.8.3-.8.8v2.6h-2.6c-.4 0-.8.3-.8.8s.3.8.8.8h2.6v2.4c0 .4.3.8.8.8s.8-.3.8-.8v-2.4h2.3c.4 0 .8-.3.8-.8s-.3-.8-.8-.8zm197.1 19.6H216V86c0-.4-.3-.8-.8-.8s-.8.3-.8.8v2.2h-2.1c-.4 0-.8.3-.8.8s.3.8.8.8h2.1V92c0 .4.3.8.8.8s.8-.3.8-.8v-2.2h2.1c.4 0 .8-.3.8-.8s-.3-.8-.7-.8z"/><path fill="#0828CC" d="M51 11.5c0-.6-.5-1.1-1.1-1.1-.1 0-.4 0-.6.2-3 1.7-3.3 5.2-3.3 5.2s1.6-2.6 4.3-3.2c.3-.1.7-.6.7-1.1m-1.8-4c0-1-.8-1.8-1.8-1.8-.3 0-.8.1-1.3.6-3.1 2.6-2 9.6-1.9 10.3.1-.7.5-5.6 3.9-7.3.7-.5 1.1-1.1 1.1-1.8M38.8 9.7h-.4c-.8 0-1.4.6-1.4 1.4 0 .7.5 1.2 1.1 1.4 2.6.6 4.4 3.1 4.4 3.1s-1-5.3-3.7-5.9m1.5-4c-.3-.2-.6-.3-.8-.3-.6.1-1 .6-1 1.2 0 .3.2.6.5.8 3.2 1.7 3.6 4.5 3.6 4.5s.3-4.3-2.3-6.2m45.2 24.6h-22c-.6 0-1-.4-1-1s.4-1 1-1h22c.6 0 1 .4 1 1s-.4 1-1 1zm35.7 0h-22c-.6 0-1-.4-1-1s.4-1 1-1h22c.6 0 1 .4 1 1s-.4 1-1 1zm34.4 0h-22c-.6 0-1-.4-1-1s.4-1 1-1h22c.6 0 1 .4 1 1s-.4 1-1 1z"/></svg>