<svg xmlns="http://www.w3.org/2000/svg" viewBox="0 0 63.517 50.75"><path fill="#E8EAF9" d="M32.999 10.884c-10.202 0-18.501 8.298-18.501 18.497 0 3.75 1.127 7.37 3.26 10.467l.814 1.18.678-1.262c2.58-4.797 7.976-7.897 13.749-7.897 5.772 0 11.168 3.1 13.748 7.897l.677 1.262.814-1.179A18.382 18.382 0 0 0 51.5 29.381c0-10.199-8.3-18.497-18.501-18.497zm.115 14.615a3.321 3.321 0 1 1 3.323-3.32 3.321 3.321 0 0 1-3.323 3.32z"/><path fill="#0828CC" d="M33.114 16.931c-2.893 0-5.246 2.355-5.246 5.248s2.353 5.247 5.246 5.247 5.247-2.353 5.247-5.247-2.354-5.248-5.247-5.248zm0 8.599c-1.848 0-3.353-1.503-3.353-3.35s1.505-3.353 3.353-3.353c1.85 0 3.353 1.504 3.353 3.352s-1.504 3.35-3.353 3.35z"/><path fill="#0828CC" d="M32.999 8.988c-11.246 0-20.395 9.148-20.395 20.393s9.149 20.395 20.395 20.395c11.245 0 20.394-9.15 20.394-20.395S44.243 8.988 33 8.988zm12.471 34.02c-3.43 3.144-7.86 4.874-12.47 4.874-4.611 0-9.041-1.73-12.473-4.874l-.437-.401.21-.554c1.873-4.957 6.976-8.288 12.7-8.288 5.722 0 10.826 3.331 12.699 8.288l.209.554-.437.401zm1.954-1.98l-.677-1.262c-2.58-4.797-7.976-7.897-13.748-7.897-5.773 0-11.17 3.1-13.749 7.897l-.678 1.263-.813-1.181a18.378 18.378 0 0 1-3.261-10.467c0-10.199 8.299-18.497 18.5-18.497 10.202 0 18.502 8.298 18.502 18.497 0 3.75-1.128 7.37-3.262 10.468l-.814 1.179zM17.08.222L15.311 1.99 13.544.222c-.283-.283-.707-.283-1.06.07-.284.283-.284.708.07 1.061l1.768 1.768-1.768 1.768c-.283.283-.283.707.07 1.06.283.283.708.283 1.061-.07l1.768-1.768 1.768 1.768c.283.283.707.283 1.06-.07.283-.284.283-.708-.07-1.062L16.443 2.98l1.768-1.768c.283-.283.283-.707-.071-1.06-.354-.213-.778-.213-1.06.07zM2.962 14.619l-.849.849-.848-.849c-.283-.283-.707-.283-1.061.07-.283.284-.283.708.07 1.061l.85.849-.85.848c-.282.283-.282.708.071 1.061.354.354.708.283 1.061-.07l.849-.85.848.85c.283.282.707.282 1.06-.071.284-.283.284-.707-.07-1.061l-.848-.849.848-.848c.283-.283.283-.707-.07-1.06-.213-.213-.708-.284-1.061.07zm59.12 29.966l-1.768 1.767-1.767-1.767c-.283-.283-.708-.283-1.061.07-.283.283-.283.707.07 1.06l1.768 1.769-1.767 1.767c-.283.283-.283.708.07 1.061.283.283.707.283 1.061-.07l1.768-1.768 1.767 1.767c.283.283.708.283 1.061-.07s.283-.707-.07-1.061l-1.768-1.768 1.767-1.768c.283-.282.283-.707-.07-1.06-.354-.212-.778-.212-1.06.07z"/></svg>