<svg xmlns="http://www.w3.org/2000/svg" viewBox="0 0 145.164 81.805"><path fill="none" d="M-634.555-412.215h1440v900h-1440z"/><path fill="none" d="M-634.555-412.215h1440v900h-1440z"/><path fill="none" d="M-634.555-412.215h1440v900h-1440z"/><path fill="none" d="M-634.555-412.215h1440v900h-1440z"/><path fill="none" d="M-634.555-412.215h1440v900h-1440z"/><path fill="#0828CC" d="M8.478 69.126H5.363v-3.178a.75.75 0 0 0-1.5 0v3.178H.75a.75.75 0 0 0 0 1.5h3.113v3.18a.75.75 0 0 0 1.5 0v-3.18h3.115a.75.75 0 0 0 0-1.5zM20.137 51.412h-2.341v-2.607a.75.75 0 0 0-1.5 0v2.607h-2.569a.75.75 0 0 0 0 1.5h2.569v2.393a.75.75 0 0 0 1.5 0v-2.393h2.34a.75.75 0 0 0 0-1.5zM127.168 11.015h-2.146v-2.21a.75.75 0 0 0-1.5 0v2.21h-2.145a.75.75 0 0 0 0 1.5h2.145v2.211a.75.75 0 0 0 1.5 0v-2.21h2.146a.75.75 0 0 0 0-1.5z"/><path fill-rule="evenodd" clip-rule="evenodd" fill="#0828CC" d="M59.388 18.846h24.179v1.813H59.388zM48.205 31.238h1.813v24.179h-1.813zM94.146 31.238h1.813v24.179h-1.813z"/><path fill="#FFF" d="M34 50.581h30.224v30.224H34z"/><path fill-rule="evenodd" clip-rule="evenodd" fill="none" d="M34 50.581h30.224v30.224H34z"/><path fill="#0828CC" d="M36 78.805h26.224V52.581H36v26.224zm-2-28.224h30.224v30.224H34V50.581z"/><path fill="#6684DC" d="M75.3 19.753L95.051-.001l19.753 19.753-19.753 19.754z"/><path fill-rule="evenodd" clip-rule="evenodd" fill="none" d="M75.3 19.753L95.051-.001l19.753 19.753-19.753 19.754z"/><circle fill-rule="evenodd" clip-rule="evenodd" fill="#E6EBF9" cx="95.053" cy="65.693" r="14.111"/><path fill="#0828CC" d="M95.053 81.805c-8.885 0-16.113-7.227-16.113-16.112s7.228-16.112 16.113-16.112c8.884 0 16.111 7.228 16.111 16.112s-7.227 16.112-16.111 16.112zm0-30.224c-7.781 0-14.113 6.33-14.113 14.112s6.332 14.112 14.113 14.112 14.111-6.33 14.111-14.112c0-7.781-6.33-14.112-14.111-14.112zM78.128 19.753l16.924 16.924 16.925-16.924L95.052 2.829 78.128 19.753zM95.052 0l19.753 19.753-19.753 19.753L75.3 19.753 95.052 0z"/><g><circle fill-rule="evenodd" clip-rule="evenodd" fill="#E6EBF9" cx="49.112" cy="19.753" r="14.111"/><path fill="#0828CC" d="M49.112 35.865C40.228 35.865 33 28.637 33 19.753S40.228 3.641 49.112 3.641c8.884 0 16.112 7.228 16.112 16.112s-7.228 16.112-16.112 16.112zm0-30.224C41.332 5.64 35 11.97 35 19.753c0 7.781 6.331 14.112 14.112 14.112s14.112-6.33 14.112-14.112-6.33-14.112-14.112-14.112z"/></g></svg>