<svg xmlns="http://www.w3.org/2000/svg" xmlns:xlink="http://www.w3.org/1999/xlink" viewBox="0 0 692 576"><defs><path id="a" d="M-3107.592-1424.558h4677.191v2923.245h-4677.191z"/></defs><clipPath id="b"><use xlink:href="#a" overflow="visible"/></clipPath><path clip-path="url(#b)" fill="none" stroke="#9ACBF4" stroke-miterlimit="10" d="M75.497 417.086V124.785c0-3.6 2.93-6.52 6.495-6.52h519.69a6.49 6.49 0 0 1 6.495 6.516v285.805"/><path clip-path="url(#b)" fill="none" stroke="#42A4F6" stroke-linecap="square" stroke-miterlimit="10" d="M51.137 274.172v16.241m-8.12-8.121h16.24m589.521 37.353v16.24m-8.12-8.12h16.24"/><circle clip-path="url(#b)" fill="none" stroke="#42A4F6" stroke-miterlimit="10" cx="34.896" cy="223.827" r="8.12"/><circle clip-path="url(#b)" fill="none" stroke="#42A4F6" stroke-miterlimit="10" cx="632.538" cy="366.742" r="8.12"/><path clip-path="url(#b)" fill="none" stroke="#42A4F6" stroke-miterlimit="10" d="M190.803 301.781h48.721v103.938h-48.721zm64.961-55.217h48.721v159.154h-48.721zm64.961 38.976h45.473v120.178h-45.473z"/><defs><path id="c" d="M380.814 218.955h51.969v188.387h-51.969z"/></defs><clipPath id="d"><use xlink:href="#c" overflow="visible"/></clipPath><g clip-path="url(#d)"><defs><path id="e" d="M-3107.592-1424.558h4677.191v2923.245h-4677.191z"/></defs><clipPath id="f"><use xlink:href="#e" overflow="visible"/></clipPath><g clip-path="url(#f)"><defs><path id="g" d="M348.333 186.475h116.93v253.348h-116.93z"/></defs><clipPath id="h"><use xlink:href="#g" overflow="visible"/></clipPath><g clip-path="url(#h)"><defs><path id="i" d="M377.566 218.955h55.217v188.387h-55.217z"/></defs><clipPath id="j"><use xlink:href="#i" overflow="visible"/></clipPath><path clip-path="url(#j)" fill="none" stroke="#9ACBF4" stroke-width="2" stroke-miterlimit="10" stroke-dasharray="4,2" d="M380.814 218.955h51.969v188.387h-51.969z"/></g></g></g><defs><path id="k" d="M-3107.592-1424.558h4677.191v2923.245h-4677.191z"/></defs><clipPath id="l"><use xlink:href="#k" overflow="visible"/></clipPath><path clip-path="url(#l)" fill="none" stroke="#9ACBF4" stroke-miterlimit="10" stroke-dasharray="4,4" d="M488 202.715h-42.225v204.653"/><circle clip-path="url(#l)" fill="none" stroke="#42A4F6" stroke-miterlimit="10" cx="215.163" cy="261.18" r="12.992"/><circle clip-path="url(#l)" fill="none" stroke="#42A4F6" stroke-miterlimit="10" cx="276.876" cy="205.963" r="12.992"/><circle clip-path="url(#l)" fill="none" stroke="#42A4F6" stroke-miterlimit="10" cx="341.837" cy="235.196" r="12.992"/><path clip-path="url(#l)" fill="none" stroke="#42A4F6" stroke-miterlimit="10" d="M223.283 253.06l42.225-38.977m22.736-3.248l42.225 19.489"/><path clip-path="url(#l)" fill="none" stroke="#9ACBF4" stroke-miterlimit="10" stroke-dasharray="4,4" d="M353.205 230.324l89.322-76.33"/><path clip-path="url(#l)" fill="none" stroke="#9ACBF4" stroke-linecap="square" stroke-miterlimit="10" d="M164.818 405.718h354.767"/></svg>