<svg xmlns="http://www.w3.org/2000/svg" xmlns:xlink="http://www.w3.org/1999/xlink" viewBox="0 0 14 14"><defs><path id="a" d="M176.35 105.701a1.4 1.4 0 1 1 0-2.8 1.4 1.4 0 0 1 0 2.8zm-5.6 0a1.4 1.4 0 1 1 0-2.8 1.4 1.4 0 0 1 0 2.8zm-5.6 0a1.4 1.4 0 1 1 0-2.8 1.4 1.4 0 0 1 0 2.8z"/></defs><clipPath id="b"><use xlink:href="#a" overflow="visible"/></clipPath><path d="M10.53 8.235a.669.669 0 0 0-.203-.923 5.799 5.799 0 0 0-1.238-.577 3.813 3.813 0 0 0 1.35-2.899C10.44 1.721 8.72 0 6.604 0S2.767 1.72 2.767 3.836c0 1.17.537 2.206 1.365 2.91C.07 8.166 0 12.908 0 12.964a.668.668 0 1 0 1.336 0c0-.216.06-5.29 5.316-5.29 1.17 0 2.164.256 2.954.763.31.2.724.108.923-.202zM6.602 1.336c1.379 0 2.5 1.122 2.5 2.5 0 1.38-1.121 2.5-2.5 2.5s-2.5-1.12-2.5-2.5c0-1.378 1.122-2.5 2.5-2.5z"/><path d="M11.747 11.383l1.476-1.476a.668.668 0 1 0-.945-.945l-1.476 1.476-1.476-1.476a.668.668 0 1 0-.945.945l1.476 1.476L8.38 12.86a.668.668 0 1 0 .945.945l1.476-1.476 1.476 1.476a.667.667 0 0 0 .945 0 .668.668 0 0 0 0-.945l-1.476-1.476z"/></svg>