<svg xmlns="http://www.w3.org/2000/svg" viewBox="0 0 14 14"><g fill="#010101"><path d="M7.76 7l2.03-2.028c.105-.102.162-.239.162-.385s-.057-.282-.158-.379a.528.528 0 0 0-.376-.16h-.005a.538.538 0 0 0-.382.158L7 6.237 4.97 4.206a.544.544 0 0 0-.765 0 .54.54 0 0 0 0 .763l2.031 2.032-2.032 2.032a.543.543 0 0 0 0 .76.554.554 0 0 0 .763.001L7 7.764l2.03 2.028a.536.536 0 0 0 .757.006.53.53 0 0 0 .004-.768L7.761 7z"/><path d="M7 1.005c3.305 0 5.995 2.69 5.995 5.995S10.305 12.995 7 12.995 1.005 10.305 1.005 7 3.695 1.005 7 1.005M7 0a7 7 0 1 0 0 14A7 7 0 0 0 7 0z"/></g></svg>