<svg data-name="Layer 1" xmlns="http://www.w3.org/2000/svg" viewBox="0 0 14 13.996"><path d="M13.322 3.08l-2.147-1.24V.466a.5.5 0 1 0-1 0V1.84L8.028 3.08a.5.5 0 0 0-.25.433v2.475l-1.892 1.09-1.893-1.092V4.584a.5.5 0 0 0-1 0v1.402L.846 7.225a.5.5 0 0 0-.25.433v2.768a.5.5 0 0 0 .25.433l2.147 1.24v1.373a.5.5 0 0 0 1 0V12.1l1.893-1.093L7.779 12.1v1.373a.5.5 0 0 0 1 0V12.1l2.148-1.24a.5.5 0 0 0 .25-.433V7.952l2.145-1.239a.5.5 0 0 0 .25-.432V3.512a.5.5 0 0 0-.25-.432zM1.596 7.947L3.493 6.85l1.889 1.09v2.201l-1.889 1.092-1.897-1.097zm6.683 3.287l-1.888-1.092v-2.2l1.882-1.087 1.904 1.099v2.183zm4.293-5.242l-1.89 1.091-1.904-1.099V3.801l1.897-1.096L12.572 3.8z" fill="#010101"/></svg>