<svg xmlns="http://www.w3.org/2000/svg" viewBox="0 0 10.322 12"><path d="M9.855.421c-.56-.561-1.631-.561-2.195 0L3.675 4.407a1.537 1.537 0 0 0-.431.833l-.27 1.564a.5.5 0 0 0 .49.585l1.631-.338a1.55 1.55 0 0 0 .773-.42L9.87 2.63c.294-.294.454-.685.452-1.1A1.576 1.576 0 0 0 9.855.42zm-.691 1.503l-4 4.001a.557.557 0 0 1-.278.15l-.803.173.145-.84a.54.54 0 0 1 .154-.294l3.984-3.987a.555.555 0 0 1 .799.015.554.554 0 0 1-.001.782z"/><path d="M7.802 7.095c-.271 0-.49.235-.49.525 0 .026.01.048.013.072h-.033v2.025c0 .66-.458 1.183-1.063 1.217l-2.083.002-2.08-.002C1.457 10.9 1 10.377 1 9.717V2.642c0-.17.035-.337.106-.51.173-.419.532-.683.96-.706l2.08-.001v-.017a.533.533 0 0 0 .54-.525.533.533 0 0 0-.54-.524h-2.11a.248.248 0 0 0-.086.01c-.027.001-.053.007-.08.012a.53.53 0 0 1-.054.01C.926.504.211 1.23.041 2.198A2.4 2.4 0 0 0 0 2.642v7.075c0 .148.014.297.04.443.168.958.873 1.683 1.752 1.803l.061.013a.855.855 0 0 0 .103.016.27.27 0 0 0 .081.008h4.22a.267.267 0 0 0 .08-.008.854.854 0 0 0 .102-.016.639.639 0 0 1 .063-.012c.878-.12 1.582-.846 1.75-1.804.027-.142.04-.29.04-.443V7.692H8.28c.003-.024.013-.046.013-.072 0-.29-.22-.525-.49-.525z"/></svg>