<svg xmlns="http://www.w3.org/2000/svg" viewBox="0 0 14 14"><path fill-rule="evenodd" clip-rule="evenodd" d="M4.327 11.742a2.71 2.71 0 0 0 5.345 0h2.984c.273 0 .519-.19.619-.48.101-.29.038-.505-.16-.72-1.276-1.388-1.534-3.292-1.784-5.134C10.987 2.873 10.598 0 7 0S3.013 2.873 2.669 5.408C2.419 7.25 2.16 9.154.885 10.542c-.198.215-.261.43-.16.72.1.29.346.48.619.48h2.983zm-2.262-1.175l.233-.292c.943-1.181 1.121-2.647 1.293-4.065l.085-.674c.371-2.714.78-4.361 3.323-4.361 2.545 0 2.953 1.648 3.323 4.362.03.223.058.45.086.679.172 1.412.35 2.872 1.294 4.059l.233.292h-9.87zm6.353 1.175c-.207.584-.765 1.003-1.418 1.003s-1.212-.42-1.419-1.003h2.837z"/></svg>