<svg xmlns="http://www.w3.org/2000/svg" viewBox="0 0 12 12"><path d="M10.808 7.283L9.336 2.117a.447.447 0 0 0-.063-.14C8.823.792 7.592-.003 6.211-.003S3.6.791 3.164 1.943L1.615 7.282a1.65 1.65 0 0 0 .279 1.453c.362.48.96.767 1.6.767h5.434c.64 0 1.237-.286 1.6-.766.32-.424.422-.953.28-1.453zm-1.078.85c-.174.232-.474.37-.802.37H3.494c-.328 0-.628-.138-.802-.37a.651.651 0 0 1-.116-.577l1.448-5.102.06-.122C4.39 1.533 5.245.996 6.212.996c.969 0 1.823.537 2.129 1.34.014.037.037.084.035.057l1.472 5.163a.658.658 0 0 1-.117.577zm-2.476 1.959a.496.496 0 0 0-.491.459h-.007c-.032.374-.393.474-.58.474-.14 0-.472-.047-.51-.473l.002-.008a.5.5 0 0 0-1 0c0 .031.013.059.018.089l-.016.001c.07.818.688 1.39 1.507 1.39.724 0 1.498-.477 1.575-1.39h-.006c.001-.015.008-.027.008-.042a.5.5 0 0 0-.5-.5z" fill="#19171C"/></svg>