<svg xmlns="http://www.w3.org/2000/svg" viewBox="0 0 14 14"><path fill="#020202" d="M13.398 7.739H3.696a.603.603 0 0 1 0-1.206h9.702a.603.603 0 0 1 0 1.206zm0-5.022H3.696a.603.603 0 0 1 0-1.206h9.702a.603.603 0 0 1 0 1.206zm0 10.044H3.696a.603.603 0 0 1 0-1.205h9.702a.603.603 0 0 1 0 1.205z"/><path d="M1.407 3.427a.345.345 0 0 1-.265-.113.437.437 0 0 1-.1-.305V1.296s-.3.324-.469.408c-.073.037-.217.07-.309-.022a.308.308 0 0 1-.09-.222.36.36 0 0 1 .133-.261C.354 1.163.873.657.974.557c.093-.093.167-.14.22-.195.043-.044.16-.079.253-.079a.3.3 0 0 1 .246.12.45.45 0 0 1 .083.283v2.246c0 .43-.23.495-.369.495zm.721 4.523a.468.468 0 0 0-.295-.085h-.818c.075-.081.194-.19.359-.323.198-.163.338-.282.424-.357.091-.082.178-.191.266-.335a.943.943 0 0 0 .07-.831.9.9 0 0 0-.456-.481 1.367 1.367 0 0 0-.553-.103 1.29 1.29 0 0 0-.472.08.997.997 0 0 0-.34.216c-.088.088-.194.2-.24.311A.767.767 0 0 0 0 6.35c0 .087.026.152.08.211.053.06.283.168.465-.017a.606.606 0 0 0 .118-.216c.025-.077.112-.223.255-.268a.32.32 0 0 1 .03-.01s.19-.048.326.023l.03.016a.31.31 0 0 1 .11.105c.032.05.046.107.046.173a.456.456 0 0 1-.047.194.782.782 0 0 1-.145.21 1.634 1.634 0 0 1-.25.213c-.063.042-.168.13-.313.264-.14.13-.298.286-.476.47a.768.768 0 0 0-.133.21.565.565 0 0 0-.062.228c0 .1.037.19.112.263.073.073.174.11.3.11H1.89c.115 0 .205-.033.266-.098a.327.327 0 0 0 .091-.232.305.305 0 0 0-.119-.25zm.04 4.43a.826.826 0 0 0-.18-.267 1.12 1.12 0 0 0-.162-.134 1.16 1.16 0 0 0 .164-.205.748.748 0 0 0 .099-.388.733.733 0 0 0-.269-.583.904.904 0 0 0-.305-.169 1.19 1.19 0 0 0-.38-.057c-.156 0-.299.022-.427.067a1.024 1.024 0 0 0-.328.183c-.107.093-.232.206-.255.353a.38.38 0 0 0 .049.197c.023.036.054.07.102.094 0 0 .142.065.309-.009.126-.055.175-.211.325-.273.07-.03.16-.036.17-.036.09 0 .158.025.208.078a.263.263 0 0 1 .077.19c0 .101-.03.175-.094.226a.457.457 0 0 1-.328.107.42.42 0 0 0-.274.08c-.07.059-.107.114-.107.207 0 .116.05.146.092.184.058.054.137.072.234.08.032.003.22-.007.22-.007a.417.417 0 0 1-.03.835.412.412 0 0 1-.328-.17c-.07-.08-.096-.149-.163-.272a.337.337 0 0 0-.107-.13.238.238 0 0 0-.161-.06c-.102.006-.123.014-.196.078a.326.326 0 0 0-.104.256.67.67 0 0 0 .07.266 1.085 1.085 0 0 0 1.003.616c.166 0 .32-.027.46-.08.138-.055.261-.13.362-.225a.965.965 0 0 0 .314-.716.825.825 0 0 0-.06-.316z"/></svg>