<svg xmlns="http://www.w3.org/2000/svg" viewBox="0 0 14 14"><path d="M1.536 9.633V5.44l-.889.375c-.253.113-.453.009-.532-.253l-.087-.244c-.078-.253.009-.436.244-.54l1.605-.715c.2-.097.348-.114.628-.114.244 0 .383.148.383.419v5.266c0 .27-.157.419-.427.419h-.506c-.27 0-.419-.148-.419-.419zm2.382.035l-.017-.113c-.035-.218.026-.384.2-.54l2.11-1.91c.472-.41.82-.803.82-1.308 0-.524-.41-.829-.96-.829-.522 0-.775.218-.888.47-.114.237-.201.368-.454.368h-.48c-.279 0-.453-.166-.392-.437.166-.767.803-1.517 2.241-1.517 1.334 0 2.241.759 2.241 1.97 0 .882-.55 1.535-1.133 2.033L5.889 8.97l.008.035a22 22 0 0 1 1.265-.053h1.02c.27 0 .42.157.42.427v.253c0 .27-.15.419-.42.419h-3.81c-.254 0-.41-.13-.454-.384zm5.504-.044c-.2-.139-.209-.34-.061-.531l.21-.27c.139-.184.313-.21.522-.096a2.26 2.26 0 0 0 1.204.305c.916 0 1.36-.532 1.36-1.064 0-.584-.497-.96-1.125-.96-.14 0-.33.018-.523.088-.218.061-.375.035-.505-.148l-.097-.122c-.13-.192-.104-.376.079-.532l1.421-1.247H9.841c-.244 0-.384-.14-.384-.384v-.34c0-.235.14-.375.384-.375h3.558c.235 0 .374.14.374.375v.13c0 .193-.07.332-.218.463l-1.508 1.3c.122 0 .244.008.357.034.855.122 1.596.724 1.596 1.753 0 1.194-.915 2.145-2.608 2.145-.758 0-1.447-.183-1.97-.524z"/></svg>