<svg xmlns="http://www.w3.org/2000/svg" viewBox="0 0 14 14"><path d="M10.989 3.616s1.281-.065 2.25.999c.322.354.628.808.803 1.445-.464-3.437-3.42-6.088-7-6.091-3.58.003-6.537 2.654-7 6.09a3.468 3.468 0 0 1 .803-1.444c.968-1.064 2.25-.999 2.25-.999 3.187.16 3.2 3.352 3.2 3.352v7.03c.15.015.3.026.453.033V6.525c0-1.024-.323-2.019-1.038-2.729a3.454 3.454 0 0 0-2.402-1.031c.38-.66.91-1.215 1.537-1.602A4.173 4.173 0 0 1 7.04.537V.535v.002c.775 0 1.536.217 2.197.626a4.515 4.515 0 0 1 1.537 1.602 3.452 3.452 0 0 0-2.401 1.031c-.716.71-1.038 1.705-1.038 2.729v7.506c.151-.007.303-.018.452-.033v-7.03s.014-3.192 3.2-3.352m.287 3.798s-.478.008-.881.26c-.482.3-.981.906-.981 2.161v3.798a7.11 7.11 0 0 0 3.463-2.675c.552-.894.58-1.607.44-2.12-.196-.664-.808-1.493-2.04-1.424m1.802-1.652c-.43-.333-1.068-.587-2.018-.587 0 0-2.683.016-2.683 2.361v6.38c.151-.03.3-.063.449-.101V8.162s-.014-.454.24-.957c.276-.574.866-1.2 2.132-1.235 0 0 1.067-.099 1.861.766.374.426.712.93.72 2.356.668-1.98-.354-3.031-.701-3.33M3.024 5.175c-.95 0-1.587.254-2.017.587-.347.299-1.37 1.35-.701 3.33.007-1.427.345-1.93.72-2.356.795-.865 1.861-.766 1.861-.766 1.265.035 1.856.661 2.13 1.235.256.503.242.957.242.957v5.653c.148.038.298.071.45.101v-6.38c0-2.345-2.685-2.361-2.685-2.361m.668 2.5c-.404-.253-.882-.261-.882-.261-1.234-.069-1.846.76-2.041 1.424-.139.513-.112 1.226.44 2.12a7.118 7.118 0 0 0 3.463 2.675V9.835c0-1.255-.5-1.861-.98-2.16"/></svg>