<svg id="Layer_1" data-name="Layer 1" xmlns="http://www.w3.org/2000/svg" viewBox="0 0 531.53 119.16"><defs><style>.cls-1{fill:#fff}</style></defs><path class="cls-1" d="M873.86 435.92h-.94v-2.23H874c.78 0 1.38.26 1.38 1.12 0 .52-.26 1.11-1.55 1.11m2.14-1.11c0-.6-.34-1.8-2.22-1.8h-1.64v6.09h.78v-2.66h1.29l1.11 2.66h.71l-1-2.75a1.44 1.44 0 0 0 1-1.54m-2.05 5.75a4.65 4.65 0 0 1-4.56-4.55 4.59 4.59 0 0 1 4.56-4.54 4.46 4.46 0 0 1 4.47 4.54 4.51 4.51 0 0 1-4.47 4.55m0-9.7a5.15 5.15 0 0 0 0 10.3 5.11 5.11 0 0 0 5.15-5.16 5 5 0 0 0-5.16-5.15" transform="translate(-347.57 -336.38)"/><path class="cls-1" d="M201.8 103.53l-50.76-64.7v63.55h-5.72V25.31l1.35-.32 50.34 63.97V26.14h5.83v77.18l-1.04.21z"/><path class="cls-1" d="M596.17 439.8c-17.68 0-28.29-10.3-28.29-28.71v-48.57h5.83V411c0 15.6 8.84 23.51 22.47 23.51s22.67-8.11 22.67-23.51v-48.48h5.93v48.58c0 17.89-11.34 28.71-28.6 28.71m84.13.19c-8.11 0-15.4-2.7-22.05-7.07l2.81-5.1c6.14 4.16 12.9 6.86 19.76 6.86 10.09 0 16.85-6.45 16.85-14.87 0-8.84-5.93-12.69-16.75-17.58-11.75-5.24-18.93-10.6-18.93-21.1 0-11 9.26-19.87 22.88-19.87a31 31 0 0 1 17.16 5.2l-2.81 4.89a26.39 26.39 0 0 0-14.87-4.78c-10.19 0-16.54 6.24-16.54 14.15 0 8.22 6.45 12.17 15.71 16.43 13.1 5.93 20.07 11 20.07 21.95 0 12.48-10.4 20.91-23.3 20.91" transform="translate(-347.57 -336.38)"/><path class="cls-1" d="M413.34 102.38l-36.92-37.65v37.65h-5.82V26.14h5.82v35.47l35.68-35.47h7.48l-37.54 37.03 39 39.21h-7.7zm19.34-76.24h5.83v76.24h-5.83zm80.82 77.39l-50.76-64.7v63.55h-5.72V25.31l1.35-.32 50.35 63.97V26.14h5.82v77.18l-1.04.21z"/><path class="cls-1" d="M440 367.28a25.93 25.93 0 0 1 19 8.46 29.63 29.63 0 0 1 6.84 12.26 59.7 59.7 0 0 0-59.13-51.6 59.7 59.7 0 0 0-59.14 51.6 29.61 29.61 0 0 1 6.78-12.24 25.93 25.93 0 0 1 19-8.46c26.92 1.38 27 28.4 27 28.4v59.58c1.27.12 2.54.21 3.82.28v-63.6c0-8.68-2.73-17.11-8.77-23.12a29.17 29.17 0 0 0-20.27-8.76 38.24 38.24 0 0 1 13-13.57 35.27 35.27 0 0 1 18.55-5.31 35.3 35.3 0 0 1 18.55 5.31 38.25 38.25 0 0 1 13 13.57 29.15 29.15 0 0 0-20.23 8.74c-6 6-8.78 14.44-8.78 23.12v63.6c1.29-.06 2.56-.16 3.83-.28v-59.58s.12-27 27-28.4m2.42 32.19a16.2 16.2 0 0 0-7.45 2.2c-4.05 2.53-8.28 7.67-8.28 18.31v32.18A60.09 60.09 0 0 0 456 429.5c4.65-7.58 4.88-13.62 3.7-18-1.65-5.62-6.82-12.65-17.24-12.06m15.23-14c-3.63-2.84-9-5-17-5 0 0-22.66.14-22.66 20v54.07c1.28-.25 2.54-.54 3.8-.87V405.8a18.57 18.57 0 0 1 2-8.11c2.33-4.86 7.31-10.16 18-10.47a20.36 20.36 0 0 1 15.72 6.49c3.16 3.62 6 7.88 6.08 20 5.65-16.77-3-25.69-5.92-28.21m-84.92-5c-8 0-13.42 2.14-17.05 5-2.92 2.52-11.56 11.44-5.93 28.21.08-12.1 2.93-16.35 6.09-20a20.38 20.38 0 0 1 15.73-6.49c10.69.3 15.67 5.61 18 10.47a18.38 18.38 0 0 1 2 8.11v47.9c1.26.33 2.53.62 3.81.87V400.5c0-19.86-22.68-20-22.68-20m5.63 21.18a16.16 16.16 0 0 0-7.44-2.2c-10.42-.59-15.58 6.45-17.24 12.06-1.18 4.35-1 10.38 3.7 18a60.06 60.06 0 0 0 29.27 22.66V420c0-10.64-4.25-15.79-8.29-18.31" transform="translate(-347.57 -336.38)"/></svg>