<svg xmlns="http://www.w3.org/2000/svg" viewBox="0 0 14 14"><path fill="#231F20" d="M13.494 10.731L12.362 9.59l.63-.625c.363-.359.518-.872.414-1.372-.103-.5-.448-.909-.924-1.095l-2.107-.825c.02-.164.043-.328.043-.498C10.418 2.321 8.098 0 5.245 0S.072 2.32.072 5.174s2.32 5.174 5.173 5.174c.117 0 .23-.013.345-.022l.829 2.178c.224.588.775.968 1.405.968.398 0 .773-.155 1.057-.435l.63-.625 1.133 1.143c.284.287.663.445 1.067.445.399 0 .775-.155 1.058-.435l.715-.709a1.505 1.505 0 0 0 .01-2.125zM1.254 5.174c0-2.2 1.79-3.991 3.99-3.991s3.992 1.79 3.992 3.991l-.003.051-.976-.382C8.102 3.29 6.803 2.067 5.208 2.067a3.082 3.082 0 0 0-3.079 3.08 3.074 3.074 0 0 0 2.646 3.036l.37.972a3.99 3.99 0 0 1-3.891-3.981zm2.625.654l.427 1.123A2.018 2.018 0 0 1 3.18 5.147 2.03 2.03 0 0 1 5.208 3.12c.848 0 1.571.524 1.874 1.263L5.83 3.894a1.502 1.502 0 0 0-1.952 1.934zm8.773 6.188l-.715.709a.32.32 0 0 1-.453-.002l-1.74-1.756a.32.32 0 0 0-.452-.002l-1.243 1.232a.32.32 0 0 1-.525-.114l-2.54-6.676a.32.32 0 0 1 .416-.412l6.651 2.603a.32.32 0 0 1 .11.526l-1.244 1.231a.32.32 0 0 0-.002.453l1.739 1.756a.32.32 0 0 1-.002.452z"/></svg>