<svg xmlns="http://www.w3.org/2000/svg" viewBox="0 0 14 14"><path fill-rule="evenodd" clip-rule="evenodd" d="M1.2 12.288l.008-7.052h11.588l-.008 7.064L1.2 12.288zM12.788.5H1.212C.542.5 0 1.043 0 1.712v10.576c0 .67.543 1.212 1.212 1.212h11.576c.67 0 1.212-.543 1.212-1.212V1.712C14 1.042 13.457.5 12.788.5zm-9.42 3.247h.055c.256 0 .463-.22.463-.49s-.207-.49-.463-.49h-.055a.477.477 0 0 0-.463.49c0 .27.207.49.463.49zm1.753 0h.055c.256 0 .463-.22.463-.49s-.207-.49-.463-.49H5.12a.477.477 0 0 0-.464.49c0 .27.208.49.464.49zm-3.473 0h.055c.256 0 .463-.22.463-.49s-.207-.49-.463-.49h-.055a.477.477 0 0 0-.464.49c0 .27.208.49.464.49z"/></svg>