<svg data-name="Layer 1" xmlns="http://www.w3.org/2000/svg" viewBox="0 0 146.7 77.9"><path d="M136.3 65a.632.632 0 1 0-1.2.4l1.2 3.6-13.9-6.1a1.58 1.58 0 0 0-1.6-1.6h-.2l-2.3-4a1.598 1.598 0 0 0-.4-2.2 1.655 1.655 0 0 0-2 .1L51.3 36.7l-2-4.7a1.557 1.557 0 1 0-2.3-2.1l-13.7-4.5A1.594 1.594 0 0 0 32 24l-1.7-5.8a1.556 1.556 0 0 0-2.2-2.2L5.8 7.8a.53.53 0 0 0-.8.3.597.597 0 0 0 .4.8L27.7 17a1.538 1.538 0 0 0 1.5 1.5l1.6 5.7a1.556 1.556 0 1 0 2.2 2.2L46.7 31a1.7 1.7 0 0 0 1.5 1.5l2.1 5.2 65.1 18.7a1.499 1.499 0 0 0 1.5 1.6h.2l2.3 4a1.538 1.538 0 0 0 .5 2.2 1.513 1.513 0 0 0 1.9-.2l13.8 6.1-3.3 1.1a.632.632 0 0 0 .4 1.2l5.2-1.7z" fill="#bde0ff"/><path d="M57.5 66.4V48.7a15.749 15.749 0 0 1 15.6-15.9 16.409 16.409 0 0 1 16.3 16.5v17" fill="#bde0ff"/><path d="M146.2 76.2H94.7v-9.8a.86.86 0 0 0-.8-.8h-3.2V49.2a17.455 17.455 0 0 0-17.5-17.5 16.772 16.772 0 0 0-16.8 16.8v17h-3.2a.86.86 0 0 0-.8.8v9.8H.8a.961.961 0 0 0-.8.9.789.789 0 0 0 .8.8h145.4a.8.8 0 1 0 0-1.6zM58 48.6a15.193 15.193 0 0 1 15.2-15.2A15.834 15.834 0 0 1 89 49.2v16.4H58zm-4 27.6v-9h39v9z" fill="#40a3f5"/><path d="M61.9 64.2a.945.945 0 0 1-1-1V48.6a12.398 12.398 0 0 1 12.4-12.4 1 1 0 0 1 0 2 10.392 10.392 0 0 0-10.4 10.4v14.6a1.002 1.002 0 0 1-1 1z" fill="#fff"/><path d="M73 29a.86.86 0 0 1-.8-.8v-5.4a.8.8 0 0 1 1.6 0v5.4c0 .4-.3.7-.8.8zm-14 4.6a1.421 1.421 0 0 1-.6-.2l-3.7-3.8a.781.781 0 0 1 1-1.2l.1.1 3.8 3.8a.785.785 0 0 1 0 1.1.735.735 0 0 1-.6.2zm-5.6 11.7h-.2L48 43.9a.825.825 0 0 1 .4-1.6l5.2 1.4a.832.832 0 0 1 .6 1 .871.871 0 0 1-.8.6zm-1 13.9h-5.3a.8.8 0 1 1 0-1.6h5.3a.86.86 0 0 1 .8.8.789.789 0 0 1-.8.8zm35.5-25.6a.789.789 0 0 1-.8-.8 1.421 1.421 0 0 1 .2-.6l3.8-3.8a.713.713 0 0 1 1.1.1.785.785 0 0 1 0 1.1l-3.8 3.8a.764.764 0 0 1-.5.2zm5.6 11.7a.789.789 0 0 1-.8-.8.76.76 0 0 1 .6-.8l5.2-1.4a.825.825 0 0 1 .4 1.6l-5.2 1.4zm6.3 13.9h-5.3a.8.8 0 1 1 0-1.6h5.3a.86.86 0 0 1 .8.8.789.789 0 0 1-.8.8z" fill="#40a3f5"/><path d="M32 65l1.6-1.6a.566.566 0 1 0-.8-.8l-1.6 1.6-1.6-1.6a.746.746 0 0 0-.9 0 .608.608 0 0 0 0 .8l1.5 1.6-1.6 1.6a.608.608 0 0 0 0 .8.746.746 0 0 0 .9 0l1.6-1.6 1.6 1.6a.566.566 0 1 0 .8-.8zM57.6 4.3l1.6-1.6a.608.608 0 0 0 0-.8.608.608 0 0 0-.8 0l-1.6 1.6-1.6-1.6a.608.608 0 0 0-.8 0 .608.608 0 0 0 0 .8L56 4.3l-1.6 1.6a.608.608 0 0 0 0 .8.468.468 0 0 0 .8 0l1.6-1.6 1.6 1.6a.566.566 0 0 0 .8-.8zm85.1 33.5l1.6-1.6a.746.746 0 0 0 0-.9c-.2-.3-.6-.2-.9 0l-1.6 1.6-1.6-1.6a.746.746 0 0 0-.9 0c-.3.2-.2.6 0 .9l1.5 1.5-1.6 1.6a.746.746 0 0 0 0 .9c.2.3.6.2.9 0l1.6-1.6 1.6 1.6a.746.746 0 0 0 .9 0c.3-.2.2-.6 0-.9zm-29-22.4l-2.6-2.2a.57.57 0 0 1 .7-.9l1.9 1.6 2-1.6a.57.57 0 0 1 .7.9zm0-4.3l-2.6-2.2a.57.57 0 0 1 .7-.9l1.9 1.6 2-1.6a.57.57 0 0 1 .7.9zM12 47l-2.6-2.2a.57.57 0 1 1 .7-.9l1.9 1.6 2-1.6a.57.57 0 1 1 .7.9zm0-4.4l-2.6-2.2a.57.57 0 1 1 .7-.9l1.9 1.6 2-1.6a.57.57 0 1 1 .7.9z" fill="#bde0ff"/></svg>