<svg data-name="Layer 1" xmlns="http://www.w3.org/2000/svg" viewBox="0 0 146.72 77.95"><path d="M142.22 49.5l-2.92-2.68a.6.6 0 0 0-.81.88l2.09 1.92h-43.2a1.56 1.56 0 0 0-2.65-.39L51.14 36.71l-1.92-4.66a1.56 1.56 0 1 0-2.28-2.13l-13.72-4.56a1.55 1.55 0 0 0-1.38-1.43l-1.67-5.76a1.56 1.56 0 1 0-2.106-2.302q-.033.03-.064.062L5.63 7.77a.601.601 0 1 0-.41 1.13L27.55 17A1.56 1.56 0 0 0 29 18.58l1.64 5.68a1.56 1.56 0 1 0 2.15 2.24l13.72 4.56a1.56 1.56 0 0 0 1.55 1.45l2 4.92a.6.6 0 0 0 .39.35l43.94 12.6a1.56 1.56 0 0 0 3 .44h43l-1.69 2.3a.613.613 0 0 0 1 .71l2.59-3.54a.6.6 0 0 0-.07-.79z" fill="#ffabb9"/><path d="M57.37 66.44V48.73a15.75 15.75 0 0 1 15.609-15.89H73a16.41 16.41 0 0 1 16.26 16.55v17.05" fill="#ffabb9"/><path d="M146.06 76.22H94.51v-9.78a.8.8 0 0 0-.8-.8H90.5V49.26A17.5 17.5 0 0 0 73 31.79a16.83 16.83 0 0 0-16.79 16.8v17H53a.8.8 0 0 0-.8.8v9.78H.66a.805.805 0 1 0 0 1.61h145.4a.805.805 0 0 0 0-1.61zM57.82 48.59A15.22 15.22 0 0 1 73 33.39a15.89 15.89 0 0 1 15.9 15.87v16.38H57.82zm-4 27.63v-9h39.09v9z" fill="#ff606c"/><path d="M61.74 64.24a1 1 0 0 1-1-1v-14.6a12.45 12.45 0 0 1 12.43-12.43 1 1 0 0 1 0 2 10.44 10.44 0 0 0-10.43 10.43v14.59a1 1 0 0 1-.99 1.01z" fill="#fff"/><path d="M72.83 29a.8.8 0 0 1-.8-.8v-5.39a.805.805 0 1 1 1.61 0v5.35a.8.8 0 0 1-.759.84h-.051zm-13.92 4.65a.8.8 0 0 1-.57-.24l-3.78-3.78a.8.8 0 0 1 1.13-1.13l3.78 3.78a.8.8 0 0 1-.57 1.37zM53.28 45.3h-.21l-5.17-1.41a.803.803 0 0 1 .42-1.55l5.17 1.38a.8.8 0 0 1-.21 1.58zm-.99 13.88h-5.35a.805.805 0 1 1 0-1.61h5.35a.805.805 0 0 1 0 1.61zm35.43-25.53a.8.8 0 0 1-.57-1.37l3.78-3.78a.8.8 0 0 1 1.13 1.13l-3.78 3.78a.8.8 0 0 1-.56.24zm5.63 11.65a.8.8 0 0 1-.21-1.58l5.17-1.38a.803.803 0 1 1 .42 1.55l-5.17 1.38zm6.34 13.88h-5.34a.805.805 0 0 1 0-1.61h5.35a.805.805 0 1 1 0 1.61z" fill="#ff606c"/><path d="M121.34 3h-2.2V.84a.6.6 0 0 0-1.2 0V3h-2.2a.6.6 0 0 0 0 1.2h2.2v2.2a.6.6 0 0 0 1.2 0V4.24h2.2a.6.6 0 0 0 0-1.2zM55.09 14.86h-2.2v-2.2a.6.6 0 1 0-1.2 0v2.2h-2.2a.6.6 0 0 0 0 1.2h2.2v2.2a.6.6 0 1 0 1.2 0v-2.2h2.2a.6.6 0 0 0 0-1.2zm63.45 50.58h-2.2v-2.2a.6.6 0 0 0-1.2 0v2.2h-2.2a.6.6 0 0 0 0 1.2h2.2v2.2a.6.6 0 0 0 1.2 0v-2.2h2.2a.6.6 0 0 0 .003-1.2zM18.51 51.19h-2.2V49a.6.6 0 0 0-1.2 0v2.2H12.9a.6.6 0 0 0 0 1.2h2.2v2.2a.6.6 0 0 0 1.2 0v-2.2h2.2a.6.6 0 0 0 0-1.2z" fill="#ffabb9"/></svg>