<svg xmlns="http://www.w3.org/2000/svg" viewBox="0 0 14 14"><path d="M13.446 11.254l-.516-1.736L10.4.673a.587.587 0 0 0-.722-.4.586.586 0 0 0-.4.722l.19.668a4341.51 4341.51 0 0 0-3.453 2.26c-1.556 1.02-3.114 2.037-4.67 3.06a2.072 2.072 0 0 0-.902 2.165c.041.204.11.403.17.604.157.53.47.943.946 1.227.35.212.734.302 1.143.292h.395a3.078 3.078 0 0 0 3.014 2.479 3.078 3.078 0 0 0 3.015-2.48h.728v.01h.4v.01h1.966l.235.818a.586.586 0 0 0 .722.401.58.58 0 0 0 .413-.566.387.387 0 0 0 .002-.168c-.036-.176-.095-.349-.146-.521M6.11 12.62a1.94 1.94 0 0 1-1.84-1.35h3.682a1.941 1.941 0 0 1-1.842 1.35m4.37-2.19l-2.094-6.8c.336-.22.957-.777 1.343-1.054l2.234 7.815c-.469.008-1.062.039-1.483.039"/></svg>