<svg xmlns="http://www.w3.org/2000/svg" viewBox="0 0 12 12"><path d="M6.794 12.001c-.715 0-1.428-.03-1.86-.053-.098-.005-.972-.07-1.506-.771L.514 7.708C.189 7.322.1 6.774.294 6.342c.176-.394.492-.654.89-.73.523-.1 1.075.12 1.483.377L1.434 3.242c-.202-.451-.205-.98-.009-1.383a1.369 1.369 0 0 1 1.306-.787c.56.013 1.042.336 1.259.842l.471 1.044-.028-1.404c-.001-.074.004-.703.443-1.149.185-.187.505-.423 1.062-.405.474 0 1.21.32 1.311 1.22l.047.799c.07-.188.16-.365.281-.52C7.974.996 8.64.822 9.2 1.075c.362.165.647.489.78.887.155.454.095.904-.002 1.322.18-.088.39-.134.635-.118.386.025.716.205.93.507.262.368.336.912.194 1.419-.263.788-.513 1.555-.763 2.321l-.397 1.21c-.193.587-.388 1.173-.588 1.758-.151.442-.404 1.183-1.13 1.44-.395.14-1.231.181-2.064.181zM1.45 6.586a.395.395 0 0 0-.077.007c-.052.01-.11.031-.167.157-.036.081-.004.224.07.313.027.03 2.932 3.49 2.932 3.49.274.36.775.397.78.397 1.71.086 3.166.058 3.535-.073.25-.088.382-.424.519-.821.198-.581.39-1.163.584-1.747l.394-1.207c.251-.77.502-1.538.76-2.305.052-.189.032-.423-.054-.547-.03-.04-.072-.08-.18-.087-.281-.017-.474.401-.694.95a5.175 5.175 0 0 1-.23.517c-.116.218-.36.669-.812.508-.104-.037-.433-.2-.327-.738.076-.377.155-.753.235-1.128l.102-.485c.029-.136.066-.276.103-.42.102-.388.208-.79.108-1.085a.497.497 0 0 0-.248-.298c-.161-.074-.326.015-.42.133-.178.227-.26.716-.324 1.108a9.04 9.04 0 0 1-.088.478l-.264 1.173c-.063.26-.181.798-.68.754-.18-.012-.49-.12-.544-.697l-.21-3.628c-.023-.189-.136-.3-.337-.305-.223 0-.303.082-.33.108-.13.133-.155.385-.154.43l.06 3.1c.02.103.096.615-.328.806-.254.115-.548.023-.766-.238a.504.504 0 0 1-.07-.114L3.074 2.317a.404.404 0 0 0-.368-.246.41.41 0 0 0-.383.227c-.067.137-.057.356.022.535l1.7 3.787a.51.51 0 0 1 .013.029c.067.18.274.73-.118 1.04-.238.186-.574.168-.899-.053l-.588-.558c-.258-.249-.715-.492-1.003-.492zm3.06-1.747z"/></svg>