<svg xmlns="http://www.w3.org/2000/svg" xmlns:xlink="http://www.w3.org/1999/xlink" viewBox="0 0 14 14"><defs><path id="a" d="M176.35 105.701a1.4 1.4 0 1 1 0-2.8 1.4 1.4 0 0 1 0 2.8zm-5.6 0a1.4 1.4 0 1 1 0-2.8 1.4 1.4 0 0 1 0 2.8zm-5.6 0a1.4 1.4 0 1 1 0-2.8 1.4 1.4 0 0 1 0 2.8z"/></defs><clipPath id="b"><use xlink:href="#a" overflow="visible"/></clipPath><path d="M13.329 12.7H1.27V.747a.6.6 0 1 0-1.2 0V13.3a.6.6 0 0 0 .6.6h12.66a.6.6 0 1 0 0-1.2z"/><path d="M4.428 10.088a.599.599 0 0 0 .425-.176l7.716-7.716v3.546a.6.6 0 1 0 1.2 0V.745a.579.579 0 0 0-.132-.357.594.594 0 0 0-.224-.183c-.006-.003-.008-.01-.014-.012-.01-.004-.022 0-.032-.003a.644.644 0 0 0-.201-.043l-5.012.03a.6.6 0 0 0 .004 1.2h.003l3.55-.02-7.707 7.706a.6.6 0 0 0 .424 1.025z"/></svg>