<svg xmlns="http://www.w3.org/2000/svg" viewBox="0 0 14 14"><path d="M9.848 6.2A3.282 3.282 0 0 0 7.488.64a3.282 3.282 0 0 0-2.36 5.56 4.816 4.816 0 0 0-2.51 4.16h1.2c.04-1.58 1.07-2.9 2.49-3.38a3.565 3.565 0 0 1 2.36 0c.75.26 1.39.75 1.84 1.38.45-.12.92-.12 1.36-.02a4.755 4.755 0 0 0-2.02-2.14zm-1.29-.5c-.34-.08-.7-.12-1.07-.12s-.73.04-1.07.12a2.054 2.054 0 0 1-1.01-1.78c0-1.15.93-2.08 2.08-2.08s2.08.93 2.08 2.08c0 .76-.4 1.42-1.01 1.78zm3.48 2.99h-.02c-.13-.04-.26-.07-.4-.09-.14-.02-.28-.03-.42-.03a2.087 2.087 0 0 0-.47.05h-.01c-.01-.01-.02-.01-.04 0-.04.01-.08.01-.11.03a.83.83 0 0 0-.21.06c-.01 0-.02 0-.04.01-.13.04-.26.1-.39.16-.13.07-.25.15-.37.23 0 .01-.01.01-.01.01-.5.37-.87.92-1.02 1.55H.938c-.33 0-.6.27-.6.6v1.98c0 .33.27.6.6.6.33 0 .6-.27.6-.6v-1.38h1.1v.68c0 .33.27.6.6.6.33 0 .6-.27.6-.6v-.68h4.67a2.747 2.747 0 0 0 2.69 2.19c1.52 0 2.75-1.23 2.75-2.74 0-1.23-.8-2.26-1.91-2.63zm-.84 4.17c-.85 0-1.55-.69-1.55-1.54 0-.83.64-1.49 1.45-1.54.03-.01.07-.01.1-.01a1.545 1.545 0 1 1 0 3.09zm-.48-4.24c-.01 0-.02 0-.03.01-.04 0-.08.01-.12.02.03-.02.07-.02.11-.03.02-.01.03-.01.04 0z"/></svg>