<svg xmlns="http://www.w3.org/2000/svg" viewBox="0 0 14 14"><path d="M13.415 9.378l-1.983-1.983c-.3-.3-.66-.48-1.082-.541-.84-.12-1.622.36-2.042 1.142l-.33.688a34.432 34.432 0 0 1-1.473-1.29c-.45-.408-.84-.873-1.198-1.336l.597-.286c.781-.42 1.262-1.261 1.142-2.042-.06-.421-.24-.842-.541-1.142L4.522.605A2.155 2.155 0 0 0 2.54.125c-.3.06-.6.24-.84.48l-.962.961c-1.022.962-.962 2.704.06 4.807.66 1.322 1.682 2.704 2.884 3.906 1.262 1.262 2.584 2.223 3.906 2.884 1.081.54 2.042.781 2.884.781s1.502-.24 1.982-.66a.595.595 0 0 0 .15-.27l.812-.812c.24-.24.36-.541.48-.842.24-.72.06-1.442-.48-1.982zm-.721 1.682c0 .18-.06.24-.18.36l-.962.962a.62.62 0 0 0-.136.206c-.664.42-1.875.26-3.289-.446-1.201-.601-2.463-1.503-3.605-2.644C3.381 8.356 2.48 7.094 1.878 5.893c-.78-1.563-.9-2.884-.3-3.485l.961-1.022.36-.18c.301-.06.602 0 .782.18L5.664 3.43c.12.12.24.24.24.42.06.361-.24.662-.48.782l-1.191.57a.725.725 0 0 0-.252.09c-.041.034-.067.073-.099.11a.482.482 0 0 0-.108.156c-.014.03-.028.057-.036.088a.527.527 0 0 0 .063.488c.48.721 1.082 1.442 1.803 2.163A28.614 28.614 0 0 0 7.767 10.1l.098.045c.009.004.013.011.022.015.015.009.03.008.045.016l.027.009c.284.124.598.012.71-.266l.66-1.382c.12-.3.42-.54.781-.48.12.06.3.12.42.24l1.984 1.983c.18.18.24.48.18.781z"/></svg>