<svg xmlns="http://www.w3.org/2000/svg" viewBox="0 0 14 14"><path fill="#020202" d="M13.4 7.6H5.24a.6.6 0 1 1 0-1.2h8.16a.6.6 0 1 1 0 1.2zm0-5H5.24a.6.6 0 1 1 0-1.2h8.16a.6.6 0 1 1 0 1.2zm0 10H5.24a.6.6 0 1 1 0-1.2h8.16a.6.6 0 1 1 0 1.2z"/><circle fill="#020202" cx="1.5" cy="2" r="1.5"/><path fill="#020202" d="M1.5 8.5C.673 8.5 0 7.827 0 7s.673-1.5 1.5-1.5S3 6.173 3 7s-.673 1.5-1.5 1.5zm0-2a.5.5 0 1 0 0 1 .5.5 0 0 0 0-1zm0 7C.673 13.5 0 12.827 0 12s.673-1.5 1.5-1.5S3 11.173 3 12s-.673 1.5-1.5 1.5zm0-2a.5.5 0 1 0 0 1 .5.5 0 0 0 0-1z"/></svg>