<svg xmlns="http://www.w3.org/2000/svg" viewBox="0 0 12 11.996"><path fill="#010101" d="M7.167 10.056c-.409 0-.804-.171-1.115-.482l-3.49-3.49c-.414-.413-.578-.988-.428-1.496.13-.435.474-.751.922-.846l1.179-.266a.636.636 0 0 1 .043-.045L6.876.833C7.95-.24 9.836-.241 10.91.833l.246.246c.537.536.833 1.252.833 2.017 0 .763-.296 1.479-.833 2.015L8.619 7.647 8.4 9.045a1.224 1.224 0 0 1-1.234 1.011zM8.893 1c-.497 0-.962.192-1.31.54L4.79 4.377l-1.519.342c-.098.021-.151.069-.177.153-.034.117-.01.32.176.506l3.49 3.489c.242.241.608.249.658.003l.258-1.664.128-.167 2.645-2.635c.348-.348.54-.812.54-1.308 0-.498-.192-.962-.54-1.31l-.246-.246A1.838 1.838 0 0 0 8.893 1z"/><path d="M.512 11.996a.5.5 0 0 1-.355-.852l2.67-2.703a.5.5 0 1 1 .71.703l-2.67 2.703a.5.5 0 0 1-.355.149z"/></svg>