<svg xmlns="http://www.w3.org/2000/svg" viewBox="0 0 9.366 12"><path d="M3.904 7.81c-.342 1.534-.677 3.031-1.867 4.19-.032-.244-.068-.488-.096-.733-.115-1.015.085-1.993.335-2.97.22-.857.419-1.721.617-2.585a.662.662 0 0 0-.027-.333c-.194-.607-.23-1.214.02-1.81.198-.47.516-.836 1.07-.884.578-.05 1.005.294 1.003.87-.002.416-.107.836-.203 1.245-.111.472-.29.928-.391 1.401-.16.75.46 1.377 1.23 1.286a1.72 1.72 0 0 0 1.122-.597c.57-.647.82-1.43.905-2.262.048-.471.066-.961-.01-1.426-.14-.86-.652-1.495-1.48-1.79-1.377-.492-2.684-.337-3.777.68-.859.798-1.159 1.828-.924 2.977.055.267.232.515.38.755.087.14.146.262.089.428-.05.145-.074.299-.116.447-.071.256-.188.31-.43.2A2.023 2.023 0 0 1 .261 5.693c-.565-1.6-.198-3.02.953-4.225C2.38.249 3.88-.113 5.52.029c1.064.093 1.995.51 2.745 1.28.716.736 1.101 1.613 1.1 2.644 0 1.2-.26 2.329-.993 3.308-.647.865-1.511 1.359-2.612 1.4-.735.029-1.355-.214-1.856-.85z"/></svg>