<svg xmlns="http://www.w3.org/2000/svg" viewBox="0 0 14 14"><path d="M7.175 4.591c.66 0 1.28.257 1.746.723.466.467.723 1.087.723 1.746s-.257 1.28-.723 1.746c-.466.466-1.086.723-1.746.723s-1.279-.257-1.745-.723c-.467-.467-.723-1.087-.723-1.746s.256-1.28.723-1.746a2.453 2.453 0 0 1 1.745-.723m0-1.044a3.513 3.513 0 1 0 0 7.026 3.513 3.513 0 0 0 0-7.026zM2.999.58a.523.523 0 0 0-.523.523v.636L.891.154a.522.522 0 1 0-.738.738l1.552 1.552h-.57a.523.523 0 0 0 0 1.045H3a.523.523 0 0 0 .522-.523V1.103A.523.523 0 0 0 3 .581zm10.848 12.528l-1.552-1.552h.57a.523.523 0 0 0 0-1.045h-1.864a.523.523 0 0 0-.522.522v1.863a.523.523 0 0 0 1.045 0v-.635l1.585 1.586a.517.517 0 0 0 .738 0 .522.522 0 0 0 0-.739zm-10.88-2.629H1.103a.523.523 0 0 0 0 1.044h.636L.153 13.108a.522.522 0 1 0 .738.739l1.553-1.552v.57a.523.523 0 0 0 1.045 0V11a.523.523 0 0 0-.522-.522zM13.847.154a.52.52 0 0 0-.738 0l-1.553 1.552v-.57a.523.523 0 0 0-1.045 0V3c0 .288.234.522.522.522h1.865a.523.523 0 0 0 0-1.045h-.637L13.847.892a.522.522 0 0 0 0-.738z"/></svg>