<svg xmlns="http://www.w3.org/2000/svg" xmlns:xlink="http://www.w3.org/1999/xlink" viewBox="0 0 91.491 189.921"><defs><path id="a" d="M0 .921h91v189H0z"/></defs><clipPath id="b"><use xlink:href="#a" overflow="visible"/></clipPath><path clip-path="url(#b)" fill="#FFF" d="M0 0h91.491v189.921H0z"/><path transform="rotate(11.687 43.966 53.217)" clip-path="url(#b)" fill="#D7DEE1" d="M9.303 6.89H78.63v92.653H9.303z"/><path clip-path="url(#b)" fill="#85909F" d="M1.277 91.618L19.825 1.943l66.833 13.824-18.55 89.675-66.83-13.824zM0 92.457l68.948 14.261 18.987-91.79L18.987.668 0 92.457z"/><path transform="rotate(-13.796 46.127 53.909)" clip-path="url(#b)" fill="#D7DEE1" d="M11.463 7.582h69.328v92.653H11.463z"/><path clip-path="url(#b)" fill="#85909F" d="M2.07 17.58L68.348 1.306l21.836 88.931-66.28 16.274L2.07 17.58zm-1.307-.79l22.351 91.027 68.377-16.789L69.139 0 .763 16.79z"/><path clip-path="url(#b)" fill="#FFF" d="M12.252 8.412v91.097H80.08V23.247L66.01 8.412z"/><path clip-path="url(#b)" fill="#FFF" d="M66.393 8.783v14.229h13.432z"/><path clip-path="url(#b)" fill="#85909F" d="M81.601 23.859v-1.212L66.665 6.891H10.731v94.139h70.87V23.924h-.027l.027-.065zM66.393 8.784L79.825 23.01H66.393V8.784zM80.08 99.509H12.252V8.411h52.62v16.121H80.08V99.51z"/><path clip-path="url(#b)" fill="#D7DEE1" d="M70.803 173.725V134.64h-43.8v-6.843H1.15v53.461c.76 3.918 3.836 7.218 7.524 7.98h37.035v-15.513h25.094z"/><path clip-path="url(#b)" fill="#FFF" d="M18.791 141.94v38.022c0 5.091-3.74 9.21-8.51 9.222-.007 0 .2-.01.048-.01l59.589-.023c9.827 0 17.006-9.31 17.006-19.797V141.94H18.79z"/><path clip-path="url(#b)" fill="none" stroke="#000" stroke-linecap="round" stroke-linejoin="round" stroke-miterlimit="10" d="M10.255 188.373h-.002.002m.02 0h-.02"/><path clip-path="url(#b)" fill="#ED6666" d="M10.255 188.373h.028l.022-.003-.05.003zm-.001 0h-.002v.004l.032-.004h-.01z"/><path clip-path="url(#b)" fill="none" stroke="#000" stroke-linecap="round" stroke-linejoin="round" stroke-miterlimit="10" d="M10.252 188.373h.002"/><path clip-path="url(#b)" fill="#D7DEE1" d="M18.943 179.335v.627c0 4.968-3.62 9.007-8.226 9.213l59.333-.044c6.736 0 12.274-4.305 15.088-10.54H18.943v.744z"/><path clip-path="url(#b)" fill="#85909F" d="M23.66 132.147H4.724a.458.458 0 0 1-.457-.456v-.576a.46.46 0 0 1 .457-.457H23.66c.25 0 .455.206.455.457v.576a.457.457 0 0 1-.455.456zm22.945-29.687a.89.89 0 0 0 .888-.887v-4.25c0-.488-.4-.888-.888-.888s-.888.4-.888.888v4.25c0 .488.4.888.888.888zm0 9.551a.89.89 0 0 0 .888-.888v-5.392a.89.89 0 0 0-.888-.887.89.89 0 0 0-.888.887v5.392c0 .489.4.888.888.888zm0 10.099a.89.89 0 0 0 .888-.887v-6.152a.89.89 0 0 0-.888-.887.89.89 0 0 0-.888.887v6.152c0 .489.4.888.888.888zm0 9.947a.89.89 0 0 0 .888-.888v-6.007c0-.488-.4-.888-.888-.888s-.888.4-.888.888v6.007c0 .489.4.888.888.888zm3.268 4.513c-.345-.344-.965-.344-1.311 0l-1.18 1.126v-2.394c0-.488-.272-.888-.76-.888s-.76.4-.76.888v2.459l-1.263-1.091a.88.88 0 0 0-1.322.1h-.003c-.345.15-.347.81-.001 1.155l2.65 2.6c.177.179.414.24.65.234a.896.896 0 0 0 .65-.27l2.65-2.657a.898.898 0 0 0 0-1.261zm-3.268-41.62a.89.89 0 0 0 .888-.888v-.839a.89.89 0 0 0-.888-.888.89.89 0 0 0-.888.888v.84c0 .488.4.887.888.887zm-12.198 76.257H19.284a.458.458 0 0 1-.457-.456v-1.07c0-.25.206-.455.457-.455h15.123c.251 0 .456.205.456.455v1.07c0 .25-.205.456-.456.456z"/><path clip-path="url(#b)" fill="#FFF" d="M17.944 152.626h18.11v16.162h-18.11z"/><path clip-path="url(#b)" fill="#85909F" d="M36.464 169.225H17.531v-17.038h18.933v17.038zm-18.11-.876h17.287v-15.285H18.355v15.285z"/><path clip-path="url(#b)" fill="#85909F" d="M46.47 189.972l23.448-.01c4.884 0 9.414-2.215 12.757-6.24 3.23-3.887 5.01-8.99 5.01-14.368V141.18H71.564v-7.3h-43.8v-6.843H.389v53.267l.016 1.12c-.016 4.602 4.153 8.563 8.133 8.563m.171-1.66c-3.32 0-6.799-3.651-6.799-7.153V128.71h24.334v6.691h43.799v5.78H18.03v38.782c0 4.569-3.21 8.21-7.376 8.363m75.509-18.97c0 4.908-1.687 9.753-4.627 13.292-3.05 3.67-7.177 5.692-11.62 5.692l-23.447.01h-1.521l-29.57.013a9.385 9.385 0 0 0 1.489-1.316c1.731-1.884 2.683-4.4 2.683-7.084V142.7h66.612v26.654z"/><path clip-path="url(#b)" fill="#85909F" d="M23.373 159.886h-7.32v.912h7.32a.53.53 0 0 1 .513.533.53.53 0 0 1-.513.531l-7.375.074a1.244 1.244 0 0 1-1.208-1.252c0-.692.478-1.254 1.238-1.254l2.002-.007v-.906h-1.976a2.164 2.164 0 0 0-2.177 2.167c0 1.174.91 2.125 2.086 2.164l7.41-.073c.786 0 1.426-.648 1.426-1.444 0-.798-.64-1.445-1.426-1.445z"/><path clip-path="url(#b)" fill="#D7DEE1" d="M65.118 36.359H27.213c-1.246 0-2.262-.716-2.262-1.597 0-.878 1.016-1.597 2.262-1.597h37.905c1.246 0 2.263.72 2.263 1.597 0 .881-1.017 1.597-2.263 1.597zm0 9.601H27.213c-1.246 0-2.262-.718-2.262-1.596 0-.878 1.016-1.6 2.262-1.6h37.905c1.246 0 2.263.722 2.263 1.6 0 .878-1.017 1.597-2.263 1.597zm0 9.6H27.213c-1.246 0-2.262-.716-2.262-1.594 0-.881 1.016-1.6 2.262-1.6h37.905c1.246 0 2.263.719 2.263 1.6 0 .878-1.017 1.593-2.263 1.593zm0 9.598H27.213c-1.246 0-2.262-.716-2.262-1.593 0-.882 1.016-1.601 2.262-1.601h37.905c1.246 0 2.263.72 2.263 1.6 0 .878-1.017 1.594-2.263 1.594zm0 9.599H27.213c-1.246 0-2.262-.716-2.262-1.594 0-.881 1.016-1.6 2.262-1.6h37.905c1.246 0 2.263.719 2.263 1.6 0 .878-1.017 1.594-2.263 1.594z"/></svg>