<svg xmlns="http://www.w3.org/2000/svg" viewBox="0 0 11.012 12"><path d="M5.153 7.605h.07v1.954c0 .258.22.468.493.468a.48.48 0 0 0 .491-.468V7.136a.481.481 0 0 0-.491-.468h-.563c-.272 0-.493.21-.493.468s.22.469.493.469z"/><path d="M11.004 3.691a2.527 2.527 0 0 0-2.186-2.368v-.83a.494.494 0 0 0-.987 0v.797H3.097V.494a.494.494 0 0 0-.986 0v.843C.94 1.53.068 2.496.013 3.655A.43.43 0 0 0 0 3.77v5.75c0 .04.004.076.007.076A2.529 2.529 0 0 0 2.535 12h5.943c1.345 0 2.455-1.053 2.523-2.371a.525.525 0 0 0 .011-.108V3.777a.242.242 0 0 0-.007-.086zm-.976 5.74a.443.443 0 0 0-.008.076 1.54 1.54 0 0 1-1.542 1.507H2.534A1.54 1.54 0 0 1 .992 9.502a.15.15 0 0 0-.005-.041v.006-3.844h9.038l.003 3.808zM2.604 4.075a.494.494 0 0 0 .493-.494V2.278h4.734v1.303a.494.494 0 0 0 .987 0V2.323c.687.15 1.182.736 1.202 1.455 0 .025.002.05.004.05l.001-.001v.808H.987l-.003-.777a.425.425 0 0 0 .008-.075 1.536 1.536 0 0 1 1.119-1.44V3.58c0 .272.22.494.493.494z"/></svg>