<svg xmlns="http://www.w3.org/2000/svg" viewBox="0 0 14 14"><path fill-rule="evenodd" clip-rule="evenodd" d="M8.763.25C5.201-.77 1.525 1.426.551 5.154a7.253 7.253 0 0 0 .745 5.485 6.764 6.764 0 0 0 1.604-.534c.877-.42 1.634-1.012 2.298-1.747a9.45 9.45 0 0 0 1.499-2.269c.018-.039.033-.08.054-.118.09-.167.042-.277-.105-.389-.473-.359-.936-.732-1.402-1.1-.045-.036-.085-.08-.169-.157.291-.028.53-.052.77-.073l2.636-.224c.535-.045 1.07-.086 1.604-.136.117-.011.157.027.176.144.2 1.185.404 2.37.607 3.555.083.485.167.97.248 1.454.01.058.007.118.01.176l-.052.028c-.074-.059-.148-.116-.221-.176L9.586 8.035c-.2-.165-.208-.165-.343.072a9.927 9.927 0 0 1-3.072 3.344 8.407 8.407 0 0 1-2.996 1.282c.611.447 1.3.8 2.06 1.017 3.562 1.02 7.239-1.176 8.213-4.904.974-3.728-1.124-7.577-4.685-8.596z"/></svg>