<svg xmlns="http://www.w3.org/2000/svg" viewBox="0 0 12 12"><path fill="#19171D" d="M7.328 10.81H4.672c-2.57 0-4.66-2.091-4.66-4.662s2.09-4.66 4.66-4.66h2.656c2.57 0 4.661 2.09 4.661 4.66S9.9 10.81 7.328 10.81zM4.672 2.487c-2.018 0-3.66 1.643-3.66 3.661S2.653 9.81 4.671 9.81h2.656c2.019 0 3.661-1.643 3.661-3.662s-1.642-3.66-3.661-3.66H4.672z"/><path fill="#19171D" d="M4.89 8.317a.838.838 0 0 1-.831-.842V4.82c0-.614.725-1.039 1.253-.726l2.22 1.328a.835.835 0 0 1 .408.724.836.836 0 0 1-.408.727L5.312 8.2a.818.818 0 0 1-.422.117zm.17-3.207v2.078l1.738-1.039L5.059 5.11z"/></svg>