<svg xmlns="http://www.w3.org/2000/svg" viewBox="0 0 24 24"><path fill="#1C62FD" d="M8.063 8H11a1 1 0 0 1 1 1v3a1 1 0 0 1-1 1H8.063a1 1 0 0 1-1-1V9a1 1 0 0 1 1-1zM13.5 8h3a.5.5 0 1 1 0 1.001h-3A.5.5 0 1 1 13.5 8zm0 2h3a.5.5 0 1 1 0 1.001h-3a.5.5 0 1 1 0-1.001zm0 2h3a.5.5 0 1 1 0 1.001h-3a.5.5 0 1 1 0-1.001zm-6 2h9a.5.5 0 1 1 0 1.001h-9A.5.5 0 1 1 7.5 14zm0 2h9a.5.5 0 1 1 0 1.001h-9A.5.5 0 1 1 7.5 16z"/><path fill="#1C62FD" d="M15.833 0H2.404A2.407 2.407 0 0 0 0 2.404v19.192A2.407 2.407 0 0 0 2.404 24h19.093a2.407 2.407 0 0 0 2.405-2.404V7.768c0-.766-.36-1.603-.917-2.13L17.903.824A3.169 3.169 0 0 0 15.833 0zm0 2.004c.22 0 .532.124.692.275l5.082 4.813c.16.152.291.456.291.676v13.828c0 .22-.18.4-.4.4H2.403c-.22 0-.4-.18-.4-.4V2.404c0-.22.18-.4.4-.4h13.43z"/></svg>