<svg xmlns="http://www.w3.org/2000/svg" viewBox="0 0 14 14"><path d="M9.058 8.08c-.337-.866-1.37-1.237-1.927-1.437-.378-.137-.805-.313-1.111-.585a.74.74 0 0 1-.198-.794c.122-.318.403-.439.617-.484.462-.098 1.064.073 1.369.384a.938.938 0 0 1 .245.46.464.464 0 0 0 .55.363.464.464 0 0 0 .365-.55 1.873 1.873 0 0 0-.492-.923 2.326 2.326 0 0 0-1.01-.582v-.796a.467.467 0 0 0-.932 0v.694a2.14 2.14 0 0 0-.284.037c-.626.13-1.087.506-1.3 1.062a1.681 1.681 0 0 0 .45 1.826c.424.379.954.599 1.416.766.416.15 1.19.427 1.373.897.086.222-.012.54-.223.723-.414.358-1.09.308-1.518.082-.286-.154-.494-.413-.555-.692a.46.46 0 0 0-.205-.293.463.463 0 0 0-.707.492c.119.544.502 1.035 1.027 1.315.164.088.34.157.526.207v.745a.467.467 0 0 0 .933 0v-.682a2.045 2.045 0 0 0 1.11-.47c.516-.447.713-1.173.481-1.766zM6.14 13.917a.686.686 0 0 1-.09-.006l-.097-.014a.6.6 0 0 1-.507-.681.607.607 0 0 1 .681-.507l.1.015a.6.6 0 0 1-.087 1.193zm3.841-.68a.6.6 0 0 1-.283-1.13c.291-.156.698-.069.854.222s.092.631-.198.788c-.002.001-.09.048-.091.05a.599.599 0 0 1-.282.07zm2.769-2.88a.599.599 0 0 1-.54-.861c.143-.297.52-.464.815-.328.298.14.45.446.314.746a5.09 5.09 0 0 1-.048.104.6.6 0 0 1-.541.34zm.51-3.963a.6.6 0 0 1-.59-.493c-.058-.324.144-.681.466-.745.322-.067.625.095.693.416l.023.114a.6.6 0 0 1-.591.708z"/><path d="M2.492 12.108a.602.602 0 0 1-.425-.175A6.93 6.93 0 0 1 .024 7 6.983 6.983 0 0 1 7 .025c1.731 0 3.392.638 4.675 1.797a.6.6 0 0 1-.805.891A5.762 5.762 0 0 0 7 1.223 5.783 5.783 0 0 0 1.225 7c0 1.543.6 2.993 1.691 4.083a.6.6 0 0 1-.424 1.025z"/></svg>