<svg xmlns="http://www.w3.org/2000/svg" viewBox="0 0 14 14"><path fill="none" d="M9.653 3.445a5.17 5.17 0 0 0 2.342 1.398c.03.009.055.027.082.042.15-.31.187-.692.101-1.107-.127-.61-.495-1.205-1.038-1.676-.6-.52-1.323-.792-1.954-.792-.265 0-.51.053-.728.15.014.023.03.043.04.069a5.17 5.17 0 0 0 1.155 1.916zM8.755 4.85c.873.757 2 .977 2.731.612a5.825 5.825 0 0 1-2.376-1.5 5.93 5.93 0 0 1-1.237-1.977c-.19.323-.25.733-.155 1.188.127.611.495 1.206 1.037 1.677zm-4.821 5.398c.05.02.094.05.13.086l5.108-3.832a4.565 4.565 0 0 1-1.204-.746 4.542 4.542 0 0 1-1.06-1.36L3.042 9.513l.639.638.252.097z"/><path d="M2.748 10.914l.721.721a.602.602 0 0 0 .784.057l6.253-4.69a.596.596 0 0 0 .15-.168c.016 0 .033.005.05.005.82 0 1.578-.294 2.094-.889.55-.632.745-1.49.553-2.417-.18-.866-.687-1.696-1.426-2.337C10.354-.17 8.188-.256 7.097 1c-.456.525-.654 1.208-.603 1.953L1.77 9.206a.598.598 0 0 0 .055.785l.368.369a2.75 2.75 0 0 0-.89.829c-.09.134-.86 1.318-.3 2.007.221.272.58.36.954.36.591 0 1.22-.222 1.4-.29.21-.081.533-.211.918-.398l.403-.204c.397-.2.846-.427 1.37-.614.269-.097.501-.18.83-.24.325-.06.657-.085.96-.069.36.055.715.137 1.051.244.295.093.908.32 1.702.803a.373.373 0 0 0 .515-.126.374.374 0 0 0-.126-.514c-.817-.497-1.465-.752-1.864-.878a7.713 7.713 0 0 0-1.202-.275 5.208 5.208 0 0 0-1.171.077c-.39.07-.661.168-.95.272-.565.202-1.037.44-1.47.66l-.374.189c-.362.174-.662.297-.86.372-.576.22-1.358.337-1.505.158-.115-.143.05-.685.34-1.114.233-.347.54-.558.823-.695zM9.186 1.31c.63 0 1.355.271 1.954.792.543.47.911 1.065 1.038 1.676.086.415.05.797-.101 1.107-.027-.015-.051-.033-.082-.042a5.17 5.17 0 0 1-2.342-1.398 5.17 5.17 0 0 1-1.155-1.916c-.01-.026-.026-.046-.04-.069.217-.097.463-.15.728-.15zm-1.313.675c.28.733.7 1.415 1.237 1.977a5.825 5.825 0 0 0 2.376 1.5c-.732.365-1.858.145-2.73-.612-.543-.47-.91-1.066-1.038-1.677-.095-.455-.034-.865.155-1.188zm-.966 2.41c.257.5.608.968 1.061 1.361.375.325.785.567 1.204.746l-5.108 3.832a.371.371 0 0 0-.13-.086l-.252-.097-.639-.638 3.864-5.117z"/></svg>