<svg xmlns="http://www.w3.org/2000/svg" viewBox="0 0 12 12"><path d="M6 10.187c-2.735 0-4.963-2.505-5.793-3.58a.99.99 0 0 1 0-1.214c.83-1.076 3.058-3.58 5.793-3.58s4.963 2.504 5.793 3.58a.99.99 0 0 1 0 1.213c-.83 1.076-3.057 3.581-5.793 3.581zm0-7.375c-2.356 0-4.423 2.444-5.002 3.193.579.739 2.646 3.182 5.002 3.182s4.424-2.443 5.002-3.192C10.424 5.255 8.357 2.812 6 2.812z"/><path d="M5.926 7.805A1.827 1.827 0 0 1 4.102 5.98c0-1.006.818-1.824 1.824-1.824S7.75 4.974 7.75 5.98a1.827 1.827 0 0 1-1.824 1.825zm0-2.649a.826.826 0 0 0 0 1.65.826.826 0 0 0 0-1.65z"/></svg>