<svg xmlns="http://www.w3.org/2000/svg" viewBox="0 0 14 14"><path fill="#138EF3" d="M7 0C3.13 0 0 3.13 0 7s3.13 7 7 7 7-3.13 7-7-3.13-7-7-7zm.1 2h.6v-.6c0-.1.1-.2.2-.2s.2.1.2.2V2h.6c.1 0 .2.1.2.2 0 .22-.1.3-.2.3h-.6V3c0 .1-.1.2-.2.2s-.3 0-.3-.2v-.5h-.5c-.1 0-.2-.1-.2-.2s0-.3.2-.3zM7 4.01c1.1 0 1.99.89 1.99 1.99S8.1 7.99 7 7.99 5.01 7.1 5.01 6 5.9 4.01 7 4.01zm0 9.87c-1.8 0-3.4-.7-4.6-1.8.7-1.8 2.5-3.2 4.6-3.1 2.1 0 3.9 1.2 4.6 3.1-1.2 1.2-2.8 1.8-4.6 1.8zm4.72-9.78H10.7v1.1c0 .2-.08.4-.3.4-.4 0-.4-.3-.4-.5v-1H9c-.2 0-.3-.2-.3-.4s.1-.3.3-.3h1V2.3c0-.2.1-.3.3-.3s.3.2.3.4v1h1.1c.2 0 .3.14.3.34s-.08.36-.28.36z"/></svg>