<svg xmlns="http://www.w3.org/2000/svg" viewBox="0 0 14 14"><path fill="none" d="M12.78 2.113h-.023l.023.01v-.01zm-9.488 9.453h.054c-.018-.008-.04-.008-.054-.022v.022zm8.675.048c.022 0 .04-.011.062-.013H9.511l2.456.013zM3.292 2.113v.037c.024-.022.057-.028.089-.037h-.089z"/><path d="M13.082.913H2.99a.904.904 0 0 0-.897.91V2.95H.823a.803.803 0 0 0-.802.803l.005 7.428c.113.839.767 1.51 1.521 1.562l.095.003.01-.001c.145.025.292.031.41.028l.554-.01 9.348.05c1.112 0 2.015-.931 2.015-2.076V1.823a.904.904 0 0 0-.897-.91zM1.54 11.598c-.005 0-.009.003-.014.003h-.019a.652.652 0 0 1-.652-.653V4.262c0-.113.092-.205.205-.205h.91a.2.2 0 0 1 .123.05c.015.013.023.028.034.044.021.032.044.065.044.107v6.698a.63.63 0 0 1-.078.29.635.635 0 0 1-.218.238.627.627 0 0 1-.335.114zm11.374-.78a.784.784 0 0 1-.784.783h-.1c-.022.002-.04.013-.063.013l-2.456-.013H3.428c-.032 0-.055-.021-.082-.034h-.054v-.023a.198.198 0 0 1-.053-.11c-.003-.014-.015-.023-.015-.038V2.298a.2.2 0 0 1 .068-.148v-.037h.089c.017-.004.029-.02.047-.02h9.281c.019 0 .03.016.048.02h.023v.01c.074.03.134.09.134.175v8.52z"/><path fill="#FFF" d="M7.059 4.148H5.502a.198.198 0 0 0-.198.198v1.557c0 .11.088.199.198.199H7.06c.11 0 .198-.09.198-.199V4.346a.198.198 0 0 0-.198-.198z"/><path fill="#FFF" d="M12.78 2.123l-.023-.01c-.018-.004-.03-.02-.048-.02H3.43c-.02 0-.031.016-.048.02-.032.009-.065.015-.089.037a.2.2 0 0 0-.068.148v9.098c0 .015.012.024.015.038.01.043.023.082.053.11.015.014.036.014.054.023.027.013.05.034.082.034h8.702a.784.784 0 0 0 .784-.784V2.298c0-.085-.06-.144-.134-.175zm-.982 2.451H9.621a.6.6 0 0 1 0-1.2h2.177a.6.6 0 0 1 0 1.2zm.6 1.94a.6.6 0 0 1-.6.6H9.621a.6.6 0 1 1 0-1.2h2.177a.6.6 0 0 1 .6.6zm-4.33-2.8v2.821a.365.365 0 0 1-.365.366H4.882a.365.365 0 0 1-.365-.366v-2.82c0-.203.163-.366.365-.366h2.821c.202 0 .366.163.366.365zm3.957 5.895H4.81a.6.6 0 0 1 0-1.199h7.214a.6.6 0 0 1 0 1.2zm-9.932 1.638a.63.63 0 0 0 .078-.291V4.257c0-.04-.023-.074-.044-.106-.011-.016-.019-.03-.034-.043a.196.196 0 0 0-.123-.051h-.91a.205.205 0 0 0-.205.205v6.686c0 .36.292.653.652.653h.019c.005 0 .01-.003.014-.003a.627.627 0 0 0 .335-.114.635.635 0 0 0 .218-.237z"/><path d="M11.798 3.374H9.621a.6.6 0 0 0 0 1.2h2.177a.6.6 0 0 0 0-1.2zm0 2.541H9.621a.6.6 0 0 0 0 1.2h2.177a.6.6 0 1 0 0-1.2zm.826 3.095a.6.6 0 0 0-.6-.6H4.812a.6.6 0 0 0 0 1.2h7.214a.6.6 0 0 0 .6-.6zM4.882 3.349a.365.365 0 0 0-.365.365v2.821c0 .202.163.366.365.366h2.821a.365.365 0 0 0 .366-.366v-2.82a.365.365 0 0 0-.366-.366H4.882zm2.375 2.554c0 .11-.089.199-.198.199H5.502a.198.198 0 0 1-.198-.199V4.346c0-.11.088-.198.198-.198H7.06c.11 0 .198.089.198.198v1.557z"/></svg>