<svg xmlns="http://www.w3.org/2000/svg" viewBox="0 0 14 14"><path fill="#010101" d="M14.012 6.912s-.91-1.291-2.386-2.45l2.2-1.49a.5.5 0 0 0-.56-.829l-2.514 1.703C9.721 3.19 8.502 2.68 7.166 2.659 3.266 2.597.187 6.69.187 6.69a.37.37 0 0 0-.006.408s.869 1.229 2.28 2.366L.15 11.029a.5.5 0 0 0 .56.828l2.612-1.769c1.056.692 2.319 1.24 3.706 1.262 3.9.063 6.979-4.03 6.979-4.03a.37.37 0 0 0 .006-.408zm-9.63.05A2.716 2.716 0 0 1 7.14 4.287a2.698 2.698 0 0 1 1.833.763l-1.427.967a1.087 1.087 0 0 0-1.536.97c0 .022.01.04.012.063l-1.442.976a2.706 2.706 0 0 1-.199-1.066zm2.67 2.758a2.704 2.704 0 0 1-1.928-.853l1.41-.955c.161.101.34.176.545.18.6.009 1.094-.47 1.104-1.07.001-.071-.026-.134-.038-.202l1.408-.954c.167.36.266.758.259 1.181a2.716 2.716 0 0 1-2.76 2.673z"/></svg>