<svg xmlns="http://www.w3.org/2000/svg" viewBox="0 0 14 14"><path d="M13.142 2.789c-.016-.028-.041-.045-.062-.07-.032-.037-.056-.08-.097-.108-.02-.014-.044-.013-.064-.024-.015-.008-.023-.025-.039-.032L6.977.118a.565.565 0 0 0-.43 0L.643 2.555c-.017.007-.024.024-.04.033-.02.01-.044.01-.063.023-.041.028-.065.071-.097.108-.021.025-.046.042-.062.07a.552.552 0 0 0-.087.287v7.857a.56.56 0 0 0 .35.52l5.904 2.421a.565.565 0 0 0 .428 0l5.903-2.42a.562.562 0 0 0 .35-.521V3.076c0-.105-.035-.2-.087-.287zm-6.38-1.542l4.394 1.814-1.245.487-4.455-1.761 1.306-.54zm-2.78 1.148c.027.016.048.039.079.05L8.37 4.15l-.684.268-.925.362-.992-.388L2.367 3.06l1.615-.666zM1.422 3.9l2.822 1.103 1.954.765v6.745l-4.777-1.959V3.901zm10.68 6.654l-1.72.705V9.61a.564.564 0 0 0-1.127 0v2.055c0 .02.01.036.011.054l-1.94.796V5.769l1.93-.755v1.612a.564.564 0 0 0 1.126 0V4.573l1.72-.672v6.654z"/></svg>