<svg xmlns="http://www.w3.org/2000/svg" viewBox="0 0 14 14"><path d="M11.454 13.981H2.478a1.388 1.388 0 0 1-1.387-1.386V1.626c0-.031.001-.063.003-.094v-.01a.493.493 0 0 1 .019-.157A1.61 1.61 0 0 1 2.699.02h9.71a.5.5 0 1 1 0 1h-9.71a.608.608 0 0 0-.602.524c.057.576.602.7 1.057.7h8.46c.64 0 1.222.66 1.222 1.386l.004 8.966c0 .764-.622 1.386-1.386 1.386zM2.09 3.024v9.57c0 .214.174.387.387.387h8.976a.388.388 0 0 0 .386-.386l-.004-8.966c0-.22-.173-.374-.234-.388l-8.448.001c-.352 0-.729-.065-1.063-.218z"/><path d="M10.053 6.09c-.012-.02-.029-.032-.044-.05-.022-.026-.04-.057-.07-.077-.013-.009-.03-.009-.044-.016-.011-.006-.017-.019-.028-.024l-2.714-1.12a.41.41 0 0 0-.305 0l-2.715 1.12c-.012.005-.017.018-.028.024-.014.007-.031.007-.045.016-.03.02-.047.051-.07.078-.014.017-.031.03-.043.049a.393.393 0 0 0-.062.203v3.613a.4.4 0 0 0 .25.37l2.714 1.113a.406.406 0 0 0 .303 0l2.714-1.113a.4.4 0 0 0 .249-.37V6.293a.393.393 0 0 0-.062-.203zM7 5.605l1.642.679L7 6.925l-1.642-.641L7 5.605zM4.686 6.879l1.914.75v2.793l-1.914-.785V6.88zm4.628 2.758l-1.913.785V7.628l1.913-.749v2.758z"/></svg>