<svg data-name="Layer 1" xmlns="http://www.w3.org/2000/svg" viewBox="0 0 14 14"><path d="M9.274 4.135a.714.714 0 0 0-.035-.054.52.52 0 0 0-.214-.174l-2.646-1.12a.533.533 0 0 0-.41-.001L3.265 3.91a.533.533 0 0 0-.216.179.306.306 0 0 0-.031.048.51.51 0 0 0-.078.259l-.023 3.577a.522.522 0 0 0 .338.497l2.697 1.053a.527.527 0 0 0 .39-.002l2.674-1.07a.53.53 0 0 0 .334-.492V4.396a.509.509 0 0 0-.076-.261zm-3.66 1.68v2.438L3.98 7.614l.014-2.438zm1.819-1.43l-1.262.51-1.29-.508 1.29-.537zm.857.798V7.6l-1.616.646v-2.41z"/><path d="M13.739 12.882l-2.944-2.827a6.113 6.113 0 1 0-.859.84l2.97 2.852a.6.6 0 0 0 .833-.865zm-12.49-6.73a4.885 4.885 0 1 1 4.884 4.885 4.89 4.89 0 0 1-4.885-4.885z"/></svg>