<svg xmlns="http://www.w3.org/2000/svg" viewBox="0 0 12 12"><g fill="#010101"><path d="M6.003.01v.63c2.915 0 5.318 2.373 5.356 5.29a5.317 5.317 0 0 1-1.063 3.267 4.83 4.83 0 0 0-4.213-2.508H5.99a4.794 4.794 0 0 0-4.238 2.56A5.326 5.326 0 0 1 2.16 2.26c1-1.025 2.337-1.6 3.77-1.619h.072V.009h-.081a5.99 5.99 0 1 0 .077 11.981h.08A5.99 5.99 0 0 0 6.002.01m.067 11.35H6a5.34 5.34 0 0 1-3.803-1.6 4.169 4.169 0 0 1 3.794-2.44h.092c1.609 0 3.092.939 3.781 2.391l-.025.03a5.322 5.322 0 0 1-3.769 1.618"/><path d="M4.83 3.063a1.658 1.658 0 0 0 .001 2.341c.313.312.729.484 1.17.484a1.65 1.65 0 0 0 1.17-.484 1.66 1.66 0 0 0 0-2.34c-.626-.627-1.713-.627-2.341-.001m1.895 1.894a1.05 1.05 0 0 1-1.448 0 1.025 1.025 0 0 1 .725-1.748c.272 0 .53.106.723.3.398.399.398 1.05 0 1.448"/></g></svg>