<svg xmlns="http://www.w3.org/2000/svg" viewBox="0 0 14 14"><path fill="#E6E6ED" d="M7 14C3.256 13.96.198 11.036.032 7.3-.138 3.46 2.852.2 6.692.03c.106-.005.21-.005.312-.005a6.955 6.955 0 0 1 6.963 6.658c.168 3.839-2.82 7.101-6.66 7.27C7.203 13.957 7.1 14 7 14z"/><path fill="#B4B4B4" d="M7.005.048a6.934 6.934 0 0 1 6.94 6.638c.165 3.826-2.814 7.074-6.64 7.242a6.93 6.93 0 0 1-7.247-6.63A6.953 6.953 0 0 1 7.004.048m0-.048c-.104 0-.208 0-.313.005A6.997 6.997 0 0 0 .007 7.3c.164 3.753 3.264 6.685 6.99 6.685a7.001 7.001 0 0 0 6.995-7.302A6.997 6.997 0 0 0 7.006 0"/><path fill="#FFF" d="M8.75 5.84c.09 1.13-.776 1.991-1.843 1.991s-1.931-.86-1.931-1.928a1.93 1.93 0 0 1 1.93-1.931c1.068 0 1.844.865 1.844 1.868zM7 9.046c-2.152-.14-3.949 1.228-4.624 3.132a6.907 6.907 0 0 0 9.209-.006C10.908 10.274 9.111 9.046 7 9.046z"/></svg>