<svg xmlns="http://www.w3.org/2000/svg" viewBox="0 0 14 14"><path d="M13.697.445a.549.549 0 0 0-.18-.18s0-.01-.01-.01a.634.634 0 0 0-.57-.03l-.11.05-11.12 5.38c-.21.11-.35.33-.33.57.01.24.16.45.38.53l3.95 1.49 1.63 4.07c.09.22.3.37.54.37h.02c.23 0 .44-.13.54-.34l5.3-11.32c.02-.05.04-.1.04-.16.02-.07.01-.15 0-.22a.496.496 0 0 0-.08-.2zm-3.48 2.43l-4.2 4.2-2.52-.95 6.72-3.25zm-2.28 7.71l-1.06-2.68 4.36-4.36-3.3 7.04zm5.57-10.33a.634.634 0 0 0-.57-.03l-.11.05a.57.57 0 0 1 .68-.02zM5.37 13.809a.6.6 0 0 1-.556-.378l-1.227-3.066L.446 9.286a.6.6 0 0 1 .391-1.135L4.238 9.32a.598.598 0 0 1 .362.345l1.328 3.321a.6.6 0 0 1-.557.824zm-2.506.215a.6.6 0 0 1-.556-.378l-.566-1.412-1.363-.511A.6.6 0 1 1 .802 10.6l1.611.604a.594.594 0 0 1 .346.339l.663 1.658a.6.6 0 0 1-.557.823z"/></svg>