<svg xmlns="http://www.w3.org/2000/svg" viewBox="0 0 12 10.744"><path d="M11.14 8.258c-.15-.06-.31.02-.37.17-.05.15.03.32.18.37.18.06.32.19.4.36.09.18.1.37.03.55-.06.18-.19.32-.36.41-.17.08-.37.09-.55.03-.24-.09-.4-.31-.55-.55-.66-1.51 1.05-2.93 1.24-3.08.07-.06.11-.12.12-.2a.301.301 0 0 0-.05-.21.28.28 0 0 0-.23-.12c-.06 0-.12.02-.18.06-.09.07-2.33 1.79-1.43 3.78v.01c.01.01.01.03.02.04.21.33.45.66.87.81.06.02.13.04.18.05.03.01.05.01.07.01.04.01.07.01.08.01.04 0 .08 0 .12-.01.04 0 .07 0 .11-.01.52-.07.92-.38 1.09-.84.05-.14.07-.28.07-.42 0-.54-.33-1.04-.86-1.22zm-3.33 0a.278.278 0 0 0-.37.17c-.06.15.02.32.17.37.18.06.33.19.41.36.08.18.09.37.03.55-.06.18-.19.32-.37.41-.17.08-.37.09-.54.02-.25-.08-.4-.3-.55-.54-.66-1.52 1.04-2.93 1.24-3.08.07-.06.11-.12.12-.2s-.01-.15-.06-.21a.268.268 0 0 0-.23-.12c-.06 0-.12.02-.17.06-.1.07-2.34 1.79-1.43 3.79 0 .02.01.03.02.04.2.33.44.66.87.81.07.02.14.04.21.05.04.01.07.01.11.01.04.01.07.01.11.01.03 0 .06 0 .09-.01.04 0 .07 0 .1-.01.13-.01.25-.05.36-.1.31-.15.55-.41.66-.74.24-.67-.11-1.41-.78-1.64zm4.06-7.18a.649.649 0 0 0-.52-.26l-.19.01c-.12 0-.18-.01-.31-.01h-.15a2.88 2.88 0 0 0-4.88 2.07c0 .07 0 .13.01.2A6.832 6.832 0 0 1 1.58.948a.658.658 0 0 0-1.09.19c-.35.87-.49 1.67-.49 2.41 0 2.47 1.67 4.16 3.08 4.78-.61.35-1.31.56-2.01.6-.22.02-.4.16-.48.36-.07.2-.01.43.15.58.28.26 1.17.87 3.29.87.66 0 1.28-.09 1.86-.23.04-.01.05-.03.06-.05.01-.03 0-.05-.03-.08-.11-.12-.2-.24-.29-.41 0 0-.04-.05-.07-.07-.04-.01-.06-.01-.1-.01-.45.1-.93.16-1.43.16-1.2 0-2.03-.22-2.51-.47.7-.1 1.38-.34 1.99-.69.21-.13.34-.36.32-.6a.66.66 0 0 0-.4-.56c-1.15-.47-3.78-2.52-2.32-6.27a7.548 7.548 0 0 0 4.69 2.32h.07c.18 0 .35-.07.48-.2.12-.14.18-.32.17-.51 0-.02-.01-.04-.01-.06-.05-.99.59-1.94 1.55-2.22.79-.22 1.6-.01 2.16.53.12.12.28.18.44.19h.17c.14 0 .2.01.33.01h.13c-.07.26-.13.45-.23.75l-.14.43a.9.9 0 0 1-.03.16v.06c0 .09.01.18.01.26 0 .85-.14 1.6-.45 2.41.01-.01-.01.05.05.02.19-.16.39-.29.64-.33.07-.01.14-.06.16-.13.18-.65.29-1.31.29-1.97v-.31l.13-.39c.1-.33.17-.53.25-.83.02-.06.03-.12.03-.18a.7.7 0 0 0-.13-.39zM0-.002v.01h12v-.01H0zm11.93 9.9c.05-.14.07-.28.07-.42 0-.54-.33-1.04-.86-1.22-.15-.06-.31.02-.37.17-.05.15.03.32.18.37.18.06.32.19.4.36.09.18.1.37.03.55-.06.18-.19.32-.36.41-.17.08-.37.09-.55.03-.24-.09-.4-.31-.55-.55-.66-1.51 1.05-2.93 1.24-3.08.07-.06.11-.12.12-.2a.301.301 0 0 0-.05-.21.28.28 0 0 0-.23-.12c-.06 0-.12.02-.18.06-.09.07-2.33 1.79-1.43 3.78v.01c.01.01.01.03.02.04.21.33.45.66.87.81.06.02.13.04.18.05H7.57c.13-.01.25-.05.36-.1.31-.15.55-.41.66-.74.24-.67-.11-1.41-.78-1.64a.278.278 0 0 0-.37.17c-.06.15.02.32.17.37.18.06.33.19.41.36.08.18.09.37.03.55-.06.18-.19.32-.37.41-.17.08-.37.09-.54.02-.25-.08-.4-.3-.55-.54-.66-1.52 1.04-2.93 1.24-3.08.07-.06.11-.12.12-.2s-.01-.15-.06-.21a.268.268 0 0 0-.23-.12c-.06 0-.12.02-.17.06-.1.07-2.34 1.79-1.43 3.79 0 .02.01.03.02.04.2.33.44.66.87.81.07.02.14.04.21.05H0v.01h12v-.01h-1.16c.52-.07.92-.38 1.09-.84zm-.06-8.82a.649.649 0 0 0-.52-.26l-.19.01c-.12 0-.18-.01-.31-.01h-.15a2.88 2.88 0 0 0-4.88 2.07c0 .07 0 .13.01.2A6.832 6.832 0 0 1 1.58.948a.658.658 0 0 0-1.09.19c-.35.87-.49 1.67-.49 2.41 0 2.47 1.67 4.16 3.08 4.78-.61.35-1.31.56-2.01.6-.22.02-.4.16-.48.36-.07.2-.01.43.15.58.28.26 1.17.87 3.29.87.66 0 1.28-.09 1.86-.23.04-.01.05-.03.06-.05.01-.03 0-.05-.03-.08-.11-.12-.2-.24-.29-.41 0 0-.04-.05-.07-.07-.04-.01-.06-.01-.1-.01-.45.1-.93.16-1.43.16-1.2 0-2.03-.22-2.51-.47.7-.1 1.38-.34 1.99-.69.21-.13.34-.36.32-.6a.66.66 0 0 0-.4-.56c-1.15-.47-3.78-2.52-2.32-6.27a7.548 7.548 0 0 0 4.69 2.32h.07c.18 0 .35-.07.48-.2.12-.14.18-.32.17-.51 0-.02-.01-.04-.01-.06-.05-.99.59-1.94 1.55-2.22.79-.22 1.6-.01 2.16.53.12.12.28.18.44.19h.17c.14 0 .2.01.33.01h.13c-.07.26-.13.45-.23.75l-.14.43a.9.9 0 0 1-.03.16v.06c0 .09.01.18.01.26 0 .85-.14 1.6-.45 2.41.01-.01-.01.05.05.02.19-.16.39-.29.64-.33.07-.01.14-.06.16-.13.18-.65.29-1.31.29-1.97v-.31l.13-.39c.1-.33.17-.53.25-.83.02-.06.03-.12.03-.18a.7.7 0 0 0-.13-.39zm0 0a.649.649 0 0 0-.52-.26l-.19.01c-.12 0-.18-.01-.31-.01h-.15a2.88 2.88 0 0 0-4.88 2.07c0 .07 0 .13.01.2A6.832 6.832 0 0 1 1.58.948a.658.658 0 0 0-1.09.19c-.35.87-.49 1.67-.49 2.41 0 2.47 1.67 4.16 3.08 4.78-.61.35-1.31.56-2.01.6-.22.02-.4.16-.48.36-.07.2-.01.43.15.58.28.26 1.17.87 3.29.87.66 0 1.28-.09 1.86-.23.04-.01.05-.03.06-.05.01-.03 0-.05-.03-.08-.11-.12-.2-.24-.29-.41 0 0-.04-.05-.07-.07-.04-.01-.06-.01-.1-.01-.45.1-.93.16-1.43.16-1.2 0-2.03-.22-2.51-.47.7-.1 1.38-.34 1.99-.69.21-.13.34-.36.32-.6a.66.66 0 0 0-.4-.56c-1.15-.47-3.78-2.52-2.32-6.27a7.548 7.548 0 0 0 4.69 2.32h.07c.18 0 .35-.07.48-.2.12-.14.18-.32.17-.51 0-.02-.01-.04-.01-.06-.05-.99.59-1.94 1.55-2.22.79-.22 1.6-.01 2.16.53.12.12.28.18.44.19h.17c.14 0 .2.01.33.01h.13c-.07.26-.13.45-.23.75l-.14.43a.9.9 0 0 1-.03.16v.06c0 .09.01.18.01.26 0 .85-.14 1.6-.45 2.41.01-.01-.01.05.05.02.19-.16.39-.29.64-.33.07-.01.14-.06.16-.13.18-.65.29-1.31.29-1.97v-.31l.13-.39c.1-.33.17-.53.25-.83.02-.06.03-.12.03-.18a.7.7 0 0 0-.13-.39zm-.73 7.18c-.15-.06-.31.02-.37.17-.05.15.03.32.18.37.18.06.32.19.4.36.09.18.1.37.03.55-.06.18-.19.32-.36.41-.17.08-.37.09-.55.03-.24-.09-.4-.31-.55-.55-.66-1.51 1.05-2.93 1.24-3.08.07-.06.11-.12.12-.2a.301.301 0 0 0-.05-.21.28.28 0 0 0-.23-.12c-.06 0-.12.02-.18.06-.09.07-2.33 1.79-1.43 3.78v.01c.01.01.01.03.02.04.21.33.45.66.87.81.06.02.13.04.18.05h.38c.52-.07.92-.38 1.09-.84.05-.14.07-.28.07-.42 0-.54-.33-1.04-.86-1.22zm-3.33 0a.278.278 0 0 0-.37.17c-.06.15.02.32.17.37.18.06.33.19.41.36.08.18.09.37.03.55-.06.18-.19.32-.37.41-.17.08-.37.09-.54.02-.25-.08-.4-.3-.55-.54-.66-1.52 1.04-2.93 1.24-3.08.07-.06.11-.12.12-.2s-.01-.15-.06-.21a.268.268 0 0 0-.23-.12c-.06 0-.12.02-.17.06-.1.07-2.34 1.79-1.43 3.79 0 .02.01.03.02.04.2.33.44.66.87.81.07.02.14.04.21.05h.41c.13-.01.25-.05.36-.1.31-.15.55-.41.66-.74.24-.67-.11-1.41-.78-1.64zM0-.002v.01h12v-.01H0zm11.93 9.9c.05-.14.07-.28.07-.42 0-.54-.33-1.04-.86-1.22-.15-.06-.31.02-.37.17-.05.15.03.32.18.37.18.06.32.19.4.36.09.18.1.37.03.55-.06.18-.19.32-.36.41-.17.08-.37.09-.55.03-.24-.09-.4-.31-.55-.55-.66-1.51 1.05-2.93 1.24-3.08.07-.06.11-.12.12-.2a.301.301 0 0 0-.05-.21.28.28 0 0 0-.23-.12c-.06 0-.12.02-.18.06-.09.07-2.33 1.79-1.43 3.78v.01c.01.01.01.03.02.04.21.33.45.66.87.81.06.02.13.04.18.05H7.57c.13-.01.25-.05.36-.1.31-.15.55-.41.66-.74.24-.67-.11-1.41-.78-1.64a.278.278 0 0 0-.37.17c-.06.15.02.32.17.37.18.06.33.19.41.36.08.18.09.37.03.55-.06.18-.19.32-.37.41-.17.08-.37.09-.54.02-.25-.08-.4-.3-.55-.54-.66-1.52 1.04-2.93 1.24-3.08.07-.06.11-.12.12-.2s-.01-.15-.06-.21a.268.268 0 0 0-.23-.12c-.06 0-.12.02-.17.06-.1.07-2.34 1.79-1.43 3.79 0 .02.01.03.02.04.2.33.44.66.87.81.07.02.14.04.21.05H0v.01h12v-.01h-1.16c.52-.07.92-.38 1.09-.84zm-.06-8.82a.649.649 0 0 0-.52-.26l-.19.01c-.12 0-.18-.01-.31-.01h-.15a2.88 2.88 0 0 0-4.88 2.07c0 .07 0 .13.01.2A6.832 6.832 0 0 1 1.58.948a.658.658 0 0 0-1.09.19c-.35.87-.49 1.67-.49 2.41 0 2.47 1.67 4.16 3.08 4.78-.61.35-1.31.56-2.01.6-.22.02-.4.16-.48.36-.07.2-.01.43.15.58.28.26 1.17.87 3.29.87.66 0 1.28-.09 1.86-.23.04-.01.05-.03.06-.05.01-.03 0-.05-.03-.08-.11-.12-.2-.24-.29-.41 0 0-.04-.05-.07-.07-.04-.01-.06-.01-.1-.01-.45.1-.93.16-1.43.16-1.2 0-2.03-.22-2.51-.47.7-.1 1.38-.34 1.99-.69.21-.13.34-.36.32-.6a.66.66 0 0 0-.4-.56c-1.15-.47-3.78-2.52-2.32-6.27a7.548 7.548 0 0 0 4.69 2.32h.07c.18 0 .35-.07.48-.2.12-.14.18-.32.17-.51 0-.02-.01-.04-.01-.06-.05-.99.59-1.94 1.55-2.22.79-.22 1.6-.01 2.16.53.12.12.28.18.44.19h.17c.14 0 .2.01.33.01h.13c-.07.26-.13.45-.23.75l-.14.43a.9.9 0 0 1-.03.16v.06c0 .09.01.18.01.26 0 .85-.14 1.6-.45 2.41.01-.01-.01.05.05.02.19-.16.39-.29.64-.33.07-.01.14-.06.16-.13.18-.65.29-1.31.29-1.97v-.31l.13-.39c.1-.33.17-.53.25-.83.02-.06.03-.12.03-.18a.7.7 0 0 0-.13-.39z"/></svg>