<svg width="121" height="54" xmlns="http://www.w3.org/2000/svg"><g transform="translate(0 1)" fill="none" fill-rule="evenodd"><path d="M86.164 13.794c-3.77 0-6.836 3.088-6.836 6.883 0 .218.044.424.064.637l-7.067 2.454c-1.455-2.48-4.108-4.164-7.169-4.164-.039 0-.075.011-.113.012l-.815-3.608c2.875-1.325 4.887-4.232 4.887-7.617 0-4.627-3.737-8.391-8.33-8.391-4.595 0-8.332 3.764-8.332 8.39 0 4.626 3.737 8.39 8.332 8.39l.015-.001.822 3.644a8.409 8.409 0 0 0-3.354 2.846l-1.676-.776c.028-.255.077-.504.077-.766 0-3.795-3.067-6.883-6.835-6.883S43 17.932 43 21.727s3.066 6.883 6.834 6.883c2.253 0 4.239-1.118 5.485-2.817l1.63.755c-.085.48-.148.966-.148 1.47a8.38 8.38 0 0 0 1.582 4.887l-2.809 3.234c-1.146-.596-2.427-.966-3.803-.966-4.607 0-8.354 3.774-8.354 8.414 0 4.639 3.747 8.413 8.354 8.413 4.606 0 8.355-3.774 8.355-8.413 0-1.972-.705-3.764-1.837-5.2l2.707-3.116c1.23.719 2.639 1.161 4.16 1.161 1.542 0 2.97-.451 4.21-1.188l3.78 4.156a6.743 6.743 0 0 0-.989 3.487c0 3.738 3.02 6.78 6.732 6.78 3.711 0 6.731-3.042 6.731-6.78 0-3.738-3.02-6.78-6.731-6.78-1.164 0-2.244.327-3.2.853l-3.725-4.097a8.389 8.389 0 0 0 1.546-4.846c0-.304-.057-.593-.089-.89l7.17-2.488c1.24 1.762 3.27 2.922 5.573 2.922 3.77 0 6.836-3.088 6.836-6.884 0-3.795-3.066-6.883-6.836-6.883zM56.669 8.39c0-2.285 1.847-4.145 4.116-4.145 2.269 0 4.114 1.86 4.114 4.145 0 2.285-1.845 4.144-4.114 4.144-2.27 0-4.116-1.859-4.116-4.144zm-6.835 15.973a2.631 2.631 0 0 1-2.618-2.637 2.631 2.631 0 0 1 2.618-2.638 2.631 2.631 0 0 1 2.62 2.638 2.631 2.631 0 0 1-2.62 2.637zm1.937 23.39c-2.283 0-4.139-1.868-4.139-4.167 0-2.3 1.856-4.168 4.139-4.168 2.282 0 4.14 1.869 4.14 4.168 0 2.299-1.858 4.167-4.14 4.167zm9.245-19.737c0-2.299 1.858-4.167 4.14-4.167 2.283 0 4.139 1.868 4.139 4.167 0 2.3-1.856 4.17-4.139 4.17-2.282 0-4.14-1.87-4.14-4.17zm20.389 14.87a2.528 2.528 0 0 1-2.516 2.534 2.528 2.528 0 0 1-2.516-2.534 2.528 2.528 0 0 1 2.516-2.534 2.528 2.528 0 0 1 2.516 2.534zm4.759-19.571a2.632 2.632 0 0 1-2.62-2.64 2.632 2.632 0 0 1 2.62-2.637 2.632 2.632 0 0 1 2.62 2.638 2.632 2.632 0 0 1-2.62 2.639z" stroke="#FFF" stroke-width="2" fill="#40A3F5" fill-rule="nonzero"/><circle fill-opacity=".378" fill="#ADD7F9" cx="65.15" cy="28" r="5.5"/><path d="M32.222 5.294l-2.487.004-.004-2.55a.75.75 0 0 0-1.5.003l.004 2.549-2.486.004a.75.75 0 0 0 .002 1.5l2.486-.004.004 2.548a.75.75 0 0 0 1.5-.002l-.004-2.548 2.488-.004a.75.75 0 0 0-.003-1.5zM4.749 2.997l-1.25.002-.002-1.25a.75.75 0 0 0-1.5.002l.002 1.25-1.25.002a.75.75 0 0 0 .002 1.5l1.25-.002.002 1.25a.75.75 0 0 0 1.5-.002l-.002-1.25 1.25-.002a.75.75 0 0 0-.002-1.5zm115.473 37.297l-2.487.004-.004-2.55a.75.75 0 0 0-1.5.003l.004 2.549-2.486.004a.75.75 0 0 0 .002 1.5l2.487-.004.003 2.548a.75.75 0 0 0 1.5-.002l-.003-2.548 2.487-.004a.75.75 0 0 0-.003-1.5z" fill="#40A3F5" fill-rule="nonzero"/></g></svg>