<svg xmlns="http://www.w3.org/2000/svg" viewBox="0 0 14 14"><path d="M11.925 3.714a1.856 1.856 0 0 0-1.854 1.853c0 .059.013.114.018.171L8.173 6.4a2.258 2.258 0 0 0-1.944-1.121l-.03.003-.222-.971a2.258 2.258 0 0 0 1.325-2.05A2.261 2.261 0 0 0 5.044 0a2.261 2.261 0 0 0-2.26 2.26 2.261 2.261 0 0 0 2.26 2.258h.004l.223.98a2.276 2.276 0 0 0-.91.767l-.454-.21c.007-.068.02-.135.02-.205 0-1.022-.83-1.854-1.853-1.854S.221 4.828.221 5.85s.832 1.853 1.853 1.853c.611 0 1.15-.301 1.487-.759l.442.204c-.023.129-.04.26-.04.395 0 .492.162.944.43 1.316l-.762.87a2.245 2.245 0 0 0-1.032-.26c-1.249 0-2.265 1.017-2.265 2.266S1.35 14 2.6 14s2.266-1.016 2.266-2.265c0-.531-.191-1.013-.498-1.4l.734-.839c.333.194.715.313 1.128.313.418 0 .805-.122 1.142-.32l1.024 1.119a1.806 1.806 0 0 0-.268.939c0 1.006.82 1.825 1.825 1.825s1.826-.82 1.826-1.825-.82-1.826-1.826-1.826c-.315 0-.608.088-.867.23l-1.01-1.103c.262-.37.42-.818.42-1.305 0-.082-.017-.16-.025-.24l1.944-.67a1.85 1.85 0 0 0 3.365-1.066 1.856 1.856 0 0 0-1.854-1.853zM3.928 2.259a1.117 1.117 0 1 1 1.116 1.116c-.616 0-1.116-.5-1.116-1.116zm-1.854 4.3a.71.71 0 1 1 .002-1.421.71.71 0 0 1-.002 1.422zm.525 6.298a1.123 1.123 0 0 1 0-2.244 1.123 1.123 0 0 1 0 2.244zm2.507-5.314a1.123 1.123 0 0 1 2.245 0 1.123 1.123 0 0 1-2.245 0zm5.529 4.004a.683.683 0 1 1-1.366-.002.683.683 0 0 1 1.366.002zm1.29-5.27a.711.711 0 1 1 .001-1.422.711.711 0 0 1 0 1.422z"/></svg>