<svg xmlns="http://www.w3.org/2000/svg" viewBox="0 0 4.87 14"><path d="M1.559.267A.912.912 0 1 1 .268 1.558.912.912 0 1 1 1.559.267m0 3.044A.912.912 0 1 1 .268 4.602a.912.912 0 1 1 1.291-1.291m0 3.043A.912.912 0 1 1 .268 7.645a.912.912 0 1 1 1.291-1.291m0 3.044a.912.912 0 1 1-1.291 1.291.912.912 0 1 1 1.291-1.291m0 3.043a.912.912 0 1 1-1.291 1.291.912.912 0 1 1 1.291-1.291M4.602.267a.912.912 0 1 1-1.291 1.291A.912.912 0 1 1 4.602.267m0 3.044a.912.912 0 1 1-1.291 1.291.912.912 0 1 1 1.291-1.291m0 3.043a.912.912 0 1 1-1.291 1.291.913.913 0 1 1 1.291-1.291m0 3.044a.912.912 0 1 1-1.291 1.291.912.912 0 1 1 1.291-1.291m0 3.043a.912.912 0 1 1-1.291 1.291.912.912 0 1 1 1.291-1.291" fill="#323232"/></svg>