<svg xmlns="http://www.w3.org/2000/svg" viewBox="0 0 12 12"><path d="M11.5 1.8c-.3 0-.5.2-.5.5v6.1c0 .3-.1.6-.2.7-.2.2-.6.2-.7.2H6.3l1-1c.2-.2.2-.5 0-.7-.25-.25-.6-.2-.8 0L4.8 9.4c-.2.2-.2.5 0 .7l1.7 1.8c.1 0 .019.1.4.1.1 0 .15.05.3-.1.2-.2.2-.5 0-.7l-.8-.8h3.7c.3 0 .936-.04 1.336-.34.5-.5.564-1.06.564-1.66V2.3c0-.3-.2-.5-.5-.5zm-4.3.1L5.5.2C5.3 0 5-.1 4.8.1s-.2.5 0 .7l.8.8H1.9c-.341 0-.796-.104-1.4.5-.284.348-.5.8-.5 1.5v6.2c0 .3.2.5.5.5s.443-.2.443-.5V3.6c0-.3.056-.5.257-.7.3-.3.529-.3.7-.3h3.8l-1 1c-.2.2-.2.5 0 .7.2.2.3.2.4.2s.3-.1.4-.2l1.7-1.8c.211-.211.2-.4 0-.6z" fill="#231F20"/></svg>