<svg id="Layer_1" xmlns="http://www.w3.org/2000/svg" viewBox="38.167 280.752 12 12"><style></style><path d="M46.834 285.636c-.271 0-.507-.248-.507-.538a.746.746 0 0 0-.003-.059v-2.024c0-.66-.458-1.184-1.063-1.218l-2.083-.002-2.08.002c-.608.034-1.065.558-1.065 1.218v7.474c0 .17.035.337.106.51.173.419.532.684.96.706l2.08.018c.298 0 .54.235.54.525 0 .29-.242.504-.54.504 0 0-2.249.003-2.276-.002a.53.53 0 0 0-.054-.01c-.891-.112-1.606-.838-1.776-1.807a2.4 2.4 0 0 1-.041-.444v-7.474c0-.148.014-.297.04-.443.168-.959.873-1.684 1.752-1.804l.061-.012a500.75 500.75 0 0 1 4.586 0l.063.011c.879.12 1.582.846 1.75 1.805.027.14.04.29.04.443v2.096c0 .29-.22.525-.49.525z"/><path d="M45.234 291.452l1.626-1.627 1.586 1.586a.5.5 0 0 0 .707-.707l-1.586-1.586 1.59-1.59a.504.504 0 0 0-.004-.71.496.496 0 0 0-.703.004l-1.59 1.59-1.593-1.594a.5.5 0 0 0-.707.707l1.593 1.593-1.59 1.59a.496.496 0 0 0-.003.703c.195.196.515.199.674.04z"/></svg>