<svg xmlns="http://www.w3.org/2000/svg" viewBox="0 0 14 14"><path fill="#1D1D1B" d="M12.781 6.465l-1.423.172a.39.39 0 0 0 .093.773l1.423-.171a.389.389 0 0 0-.093-.773zm-1.638 2.139a.388.388 0 1 0-.424.65l.826.542a.386.386 0 0 0 .537-.112.39.39 0 0 0-.113-.54l-.826-.54zm-1.478 1.481a.39.39 0 0 0-.528-.15.39.39 0 0 0-.15.53l.753 1.35a.389.389 0 1 0 .678-.38l-.753-1.35zM4.614 3.551a.389.389 0 0 0 .253-.524L4.318 1.7a.389.389 0 0 0-.716.298l.55 1.328a.388.388 0 0 0 .463.226zM2.979 4.889a.386.386 0 0 0 .54-.095.39.39 0 0 0-.095-.542l-.751-.528a.388.388 0 0 0-.541.095.39.39 0 0 0 .096.542l.75.528zM1.174 7l1.542-.007a.389.389 0 0 0-.004-.778l-1.542.006a.389.389 0 0 0 .004.778zM10.792.388l-.036-.02a2.737 2.737 0 0 0-3.74 1.002L5.047 4.778h.002l-.006.01a.598.598 0 1 0 1.038.6l.813-1.411.001-.002 1.159-2.007c.274-.475.786-.77 1.335-.77.268 0 .533.071.804.228.356.205.61.537.717.934a1.53 1.53 0 0 1-.154 1.168l-1.968 3.41h.001v.002a.598.598 0 1 0 1.038.599l.813-1.411.002-.004 1.152-1.997a2.738 2.738 0 0 0-1.002-3.74zM8.691 8.305a.598.598 0 0 0-.818.219l-.003.005-2.023 3.502c-.274.475-.785.77-1.335.77a1.58 1.58 0 0 1-.804-.228 1.529 1.529 0 0 1-.717-.934 1.529 1.529 0 0 1 .154-1.168l2.022-3.503.008-.016a.598.598 0 1 0-1.037-.6l-.814 1.411v.001L2.107 9.872a2.738 2.738 0 0 0 1.002 3.74l.037.02a2.737 2.737 0 0 0 3.74-1.002l1.209-2.094.002-.002.814-1.411a.598.598 0 0 0-.22-.818z"/></svg>