<svg xmlns="http://www.w3.org/2000/svg" viewBox="0 0 12 6.752"><path d="M6.892 6.282c1.06-.444 1.732-2.162 1.732-2.162.253 1.31 1.501 2.11 1.645 2.2a3.36 3.36 0 0 1-1.656.432c-.628 0-1.217-.17-1.721-.47zM9.14.023A3.387 3.387 0 0 1 12 3.368c0 .809-.285 1.55-.757 2.131C9.463 4.421 9.14 2.73 9.14 2.73V.023zM8.064 2.706c-.086 1.586-1.953 2.74-2.07 2.81 0-.002 0-.004-.003-.008a3.37 3.37 0 0 0 .783-2.164c0-.812-.286-1.559-.765-2.142A3.386 3.386 0 0 1 8.053.03l.01 2.677zM3.43 4.109c.26 1.33 1.506 2.126 1.609 2.19a3.357 3.357 0 0 1-1.651.431c-.62 0-1.2-.165-1.7-.455 1.066-.44 1.743-2.166 1.743-2.166z"/><path d="M5.225 3.368c0 .813.287 1.557.766 2.14a.025.025 0 0 1-.005.008h-.002c-1.789-1.077-2.036-2.8-2.036-2.8V.006a3.373 3.373 0 0 1 2.061 1.196 3.368 3.368 0 0 0-.784 2.166zM2.86 0l.01 2.695C2.786 4.252 1.009 5.469.843 5.578A3.384 3.384 0 0 1 2.86 0z"/></svg>