<svg xmlns="http://www.w3.org/2000/svg" viewBox="0 0 14 10"><path fill="#323232" d="M13.998 9.51c-.017-.031-.028-.048-.036-.066a3.622 3.622 0 0 0-1.362-1.55c-.619-.403-1.305-.644-2.024-.805-.534-.12-1.075-.19-1.62-.232a23.585 23.585 0 0 0-1.99-.052c-.012 0-.023.002-.045.004v.085l-.003 2.87a.678.678 0 0 1-.012.135c-.017.086-.086.122-.168.089a.434.434 0 0 1-.093-.054 15419.797 15419.797 0 0 1-6.54-4.761c-.141-.111-.14-.255.005-.363.147-.109.296-.215.444-.322L6.519.165c.06-.044.119-.09.182-.129.121-.076.215-.027.222.114.003.074.002.148.002.221l-.002 2.435v.089l.313.034c.626.067 1.24.194 1.842.374.892.267 1.729.646 2.478 1.198 1.187.874 1.934 2.026 2.26 3.447.115.501.167 1.008.184 1.519l-.002.043z"/></svg>