<svg xmlns="http://www.w3.org/2000/svg" viewBox="0 0 14 14"><path d="M12.845 1.142L7.237.032A.573.573 0 0 0 7.03.028L1.2.932a.6.6 0 0 0-.479.408.6.6 0 0 0-.05.246l.007.545C.74 7.285.8 12.153 7.032 13.956a.584.584 0 0 0 .364-.01c5.37-1.872 5.879-7.283 5.933-12.21a.6.6 0 0 0-.484-.594zM7.181 12.748C1.987 11.154 1.938 7.16 1.878 2.117l-.001-.076 5.231-.811 5.013.991c-.108 5.409-1.029 9.066-4.94 10.527z"/><path d="M3.644 6.684c0 1.85 1.506 3.356 3.356 3.356s3.357-1.506 3.357-3.356S8.85 3.327 7 3.327 3.644 4.833 3.644 6.684zM7 4.327c.47 0 .904.142 1.271.379l-3.249 3.25a2.337 2.337 0 0 1-.378-1.272A2.36 2.36 0 0 1 7 4.327zM7 9.04c-.468 0-.903-.141-1.27-.378l3.248-3.25c.237.368.379.803.379 1.272A2.36 2.36 0 0 1 7 9.04z"/></svg>