<svg data-name="Layer 1" xmlns="http://www.w3.org/2000/svg" viewBox="0 0 14 14"><path d="M13.472 1.31l-.25 2.57a.605.605 0 0 1-.6.54h-.06l-2.57-.25a.603.603 0 1 1 .12-1.2l1.18.12a5.805 5.805 0 1 0 .28 7.5.598.598 0 1 1 .94.74A7.01 7.01 0 1 1 7.002-.01a6.98 6.98 0 0 1 5.17 2.28l.1-1.08a.603.603 0 0 1 1.2.12zm-2.79 5.39v3.04A1.261 1.261 0 0 1 9.422 11h-4.84a1.255 1.255 0 0 1-1.26-1.26V6.7a1.255 1.255 0 0 1 1.26-1.26h.18v-.92a1.928 1.928 0 0 1 2.06-1.77h.35a1.938 1.938 0 0 1 2.07 1.77v.92h.18a1.261 1.261 0 0 1 1.26 1.26zm-4.72-1.26h2.08v-.92c0-.27-.36-.57-.87-.57h-.35c-.51 0-.86.3-.86.57zm3.52 1.26l-4.9-.06-.06 3.1 4.9.06a.065.065 0 0 0 .06-.06zm-2.49.65a.602.602 0 0 0-.6.6v.57a.6.6 0 0 0 1.2 0v-.57a.602.602 0 0 0-.6-.6z"/></svg>