<svg xmlns="http://www.w3.org/2000/svg" xmlns:xlink="http://www.w3.org/1999/xlink" viewBox="0 0 12 10.748"><defs><path id="a" d="M0 0h12v10.748H0z"/></defs><clipPath id="b"><use xlink:href="#a" overflow="visible"/></clipPath><g clip-path="url(#b)"><defs><path id="c" d="M.002.014h11.996v10.721H.002z"/></defs><clipPath id="d"><use xlink:href="#c" overflow="visible"/></clipPath><g clip-path="url(#d)"><defs><path id="e" d="M0 0h12v10.748H0z"/></defs><clipPath id="f"><use xlink:href="#e" overflow="visible"/></clipPath><path clip-path="url(#f)" d="M11.866 1.085a.643.643 0 0 0-.517-.259h-.004l-.189.001c-.126 0-.183-.002-.333-.006l-.12.004A2.88 2.88 0 0 0 5.827 3.09 6.849 6.849 0 0 1 1.57.94.643.643 0 0 0 .98.745a.644.644 0 0 0-.484.395c-1.512 3.776.76 6.392 2.591 7.194a4.762 4.762 0 0 1-2.02.6.535.535 0 0 0-.471.356.542.542 0 0 0 .143.58c.283.26 1.168.865 3.294.865 1.163 0 2.252-.232 3.236-.688a.344.344 0 0 0-.289-.624c-.893.413-1.884.624-2.946.624-1.204 0-2.036-.217-2.512-.469a5.447 5.447 0 0 0 1.992-.694.635.635 0 0 0 .315-.596.65.65 0 0 0-.402-.557C2.28 7.257-.355 5.21 1.112 1.457a7.54 7.54 0 0 0 4.69 2.322.647.647 0 0 0 .521-.18.657.657 0 0 0 .195-.525 2.191 2.191 0 0 1 3.708-1.753.65.65 0 0 0 .432.184l.146.004c.159.004.22.006.353.006h.138c-.08.27-.143.466-.241.775l-.132.411a.274.274 0 0 0-.013.057l-.014.108a.372.372 0 0 0-.003.055A6.766 6.766 0 0 1 10.644 5a.345.345 0 0 0 .664.183 7.49 7.49 0 0 0 .273-2.258l.128-.426c.107-.335.173-.54.264-.846a.647.647 0 0 0-.107-.57"/><path clip-path="url(#f)" d="M9.71 6.722H8.348l.716-.716a.345.345 0 0 0-.487-.486L7.275 6.823c-.007.007-.01.017-.016.024a.332.332 0 0 0-.058.088.333.333 0 0 0-.023.115c0 .006-.003.01-.003.016s.002.01.003.016c.002.04.008.079.023.115a.336.336 0 0 0 .059.088c.006.008.008.017.015.024l1.303 1.303a.343.343 0 0 0 .487 0 .345.345 0 0 0 0-.487l-.716-.715h1.36c.617 0 1.12.502 1.12 1.12v1.715a.344.344 0 0 0 .687 0V8.53A1.808 1.808 0 0 0 9.71 6.722"/></g></g></svg>