<svg xmlns="http://www.w3.org/2000/svg" viewBox="0 0 14 14"><path d="M13.984 4.312a.589.589 0 0 0-.035-.298c-.002-.004 0-.008-.001-.01-.005-.012-.017-.017-.023-.027a.576.576 0 0 0-.096-.151l-2.679-2.79a.6.6 0 1 0-.865.83l1.704 1.775H1.41a.6.6 0 1 0 0 1.2h10.6l-1.762 1.88a.6.6 0 1 0 .875.821l2.71-2.89c.01-.01.009-.024.017-.034a.582.582 0 0 0 .118-.236c.006-.024.012-.045.015-.07zM12.59 9.158H1.988L3.75 7.28a.6.6 0 1 0-.875-.82L.166 9.347c-.01.01-.009.024-.017.034a.582.582 0 0 0-.118.236c-.006.024-.012.045-.015.07a.589.589 0 0 0 .035.298c.002.004 0 .007.001.01.005.012.017.017.023.027a.576.576 0 0 0 .096.151l2.679 2.79a.598.598 0 0 0 .848.017.6.6 0 0 0 .017-.848l-1.704-1.774H12.59a.6.6 0 1 0 0-1.2z"/></svg>