<svg xmlns="http://www.w3.org/2000/svg" viewBox="0 0 14 14"><path d="M6.47 10.954c-.11.17-.24.32-.37.46-.46.47-.97.68-1.6.68-.55-.02-1.02-.24-1.43-.68-1.5-1.64-1.75-5.82-1.71-8.16.71.34 1.79.72 3.12.74-.03-.45-.04-.86-.04-1.2-1.93-.05-3.19-.97-3.28-1.04a.597.597 0 0 0-.96.44c-.02.3-.46 7.36 1.99 10.03.63.69 1.4 1.05 2.29 1.07h.07c.92 0 1.73-.35 2.41-1.04.13-.14.26-.28.38-.44-.31-.23-.6-.52-.87-.86zm-1.73-8.15c0 .1 0 .21.01.32v-.32h-.01zm3.86 2.1c0 .33-.27.6-.6.6h-.79c-.34 0-.6-.27-.6-.6 0-.33.26-.6.6-.6h.83c.31.02.56.28.56.6zm2.396.596h-.79a.6.6 0 0 1 0-1.199h.79a.6.6 0 0 1 0 1.2zm.264 2.424c-.61.96-1.32 1.45-2.09 1.45h-.04c-.22 0-.43-.05-.61-.12-.44-.15-.79-.45-1.05-.73-.27-.29-.44-.56-.47-.62a.606.606 0 0 1 .22-.82c.17-.11.38-.11.55-.02.11.04.21.12.27.23.1.17.41.58.77.77.11.07.23.11.35.11.43.03.83-.48 1.09-.9.18-.27.55-.36.83-.18.28.18.36.55.18.83zM3.513 6.5h-.79a.6.6 0 1 1 0-1.199h.79a.6.6 0 1 1 0 1.2zM5.22 8.384c.18.6.4 1.13.64 1.59-.2-.22-.44-.39-.69-.39h-.01c-.51.01-1.01.7-1.12.88a.6.6 0 0 1-.52.3c-.1 0-.21-.03-.3-.09a.6.6 0 0 1-.22-.82c.09-.14.88-1.44 2.13-1.47h.09zm8.62-7.4a.608.608 0 0 0-.31-.5.618.618 0 0 0-.59.01c-3.99 2.38-7.05.15-7.19.04a.61.61 0 0 0-.61-.07c-.2.1-.34.29-.35.51-.01.09-.05.8-.04 1.83v.32c0 .11.01.23.01.36 0 .16.01.34.03.52 0 .06 0 .13.01.2.09 1.27.3 2.82.76 4.23.26.83.62 1.61 1.09 2.24.02.03.04.05.06.08a3.791 3.791 0 0 0 1.28 1.1c.34.14.7.21 1.08.22h.07c.92 0 1.73-.35 2.41-1.04 2.59-2.66 2.31-9.75 2.29-10.05zm-3.15 9.21c-.46.47-.99.68-1.6.68-.38-.01-.72-.11-1.03-.33-.14-.09-.27-.21-.4-.35a3.95 3.95 0 0 1-.49-.68c-.79-1.43-1.1-3.7-1.18-5.63-.03-.43-.04-.84-.04-1.22v-.63a7.464 7.464 0 0 0 3.31.76c1 0 2.16-.21 3.4-.79-.02 1.97-.25 6.43-1.97 8.19z"/></svg>