<svg data-name="Layer 1" xmlns="http://www.w3.org/2000/svg" viewBox="0 0 13 13"><path d="M6.8 3.4L3.3 6.5l-.8-1a.483.483 0 0 0-.7 0c-.2.1-.2.5-.1.7l1.2 1.4c.1.1.2.1.4.1a.367.367 0 0 0 .3-.1l3.8-3.4a.5.5 0 1 0-.6-.8zm-2.2 8.1zM8.8.9zm0-.2H4.4A2.209 2.209 0 0 0 2.6 3a.472.472 0 0 0 .5.5.472.472 0 0 0 .5-.5 1.3 1.3 0 0 1 1.1-1.3h4.2A1.23 1.23 0 0 1 10 3v7a1.3 1.3 0 0 1-1.1 1.3H4.7A1.23 1.23 0 0 1 3.6 10a.472.472 0 0 0-.5-.5.472.472 0 0 0-.5.5 2.12 2.12 0 0 0 2 2.2H9a2.174 2.174 0 0 0 1.9-2.2V3A2.298 2.298 0 0 0 8.8.7z" fill="#4b4b55"/></svg>