<svg xmlns="http://www.w3.org/2000/svg" viewBox="0 0 14 14"><linearGradient id="a" gradientUnits="userSpaceOnUse" x1=".208" y1="12.126" x2="3.853" y2="12.126"><stop offset="0" stop-color="#fdbf3e"/><stop offset="1" stop-color="#fdbf3e"/></linearGradient><path d="M2.029 14c-1.007 0-1.822-.839-1.822-1.873 0-1.037.815-1.875 1.822-1.875 1.008 0 1.824.839 1.824 1.875 0 1.034-.816 1.873-1.824 1.873z" fill="url(#a)"/><linearGradient id="b" gradientUnits="userSpaceOnUse" x1=".302" y1="9.321" x2="9.205" y2="9.321"><stop offset="0" stop-color="#fdbf3e"/><stop offset="1" stop-color="#fdbf3e"/></linearGradient><path d="M6.609 13.916c0-1.745-.655-3.383-1.848-4.611A6.15 6.15 0 0 0 .302 7.397v-2.67c4.909 0 8.903 4.121 8.903 9.188H6.609z" fill="url(#b)"/><linearGradient id="c" gradientUnits="userSpaceOnUse" x1=".306" y1="6.96" x2="13.792" y2="6.96"><stop offset="0" stop-color="#fdbf3e"/><stop offset="1" stop-color="#fdbf3e"/></linearGradient><path d="M11.195 13.919c0-6.205-4.884-11.252-10.888-11.252V0C7.74 0 13.792 6.242 13.792 13.919h-2.597z" fill="url(#c)"/></svg>