<svg xmlns="http://www.w3.org/2000/svg" viewBox="0 0 12 12"><path d="M9.917 7.91c-.985 0-1.808.696-2.01 1.621H6.16c-1.394 0-2.6-.715-3.25-1.764a2.06 2.06 0 0 0 1.202-1.868c0-.78-.44-1.45-1.08-1.8.676-.937 1.825-1.556 3.128-1.556h1.757a2.06 2.06 0 0 0 2 1.59c1.136 0 2.06-.925 2.06-2.06s-.924-2.06-2.06-2.06c-.952 0-1.747.651-1.982 1.53H6.16c-1.778 0-3.313.934-4.131 2.3A2.061 2.061 0 0 0-.008 5.898c0 1.07.824 1.943 1.869 2.041.762 1.526 2.396 2.591 4.3 2.591h1.784a2.057 2.057 0 0 0 1.972 1.5c1.136 0 2.06-.926 2.06-2.061s-.924-2.06-2.06-2.06zm0-6.897a1.06 1.06 0 1 1-.001 2.121 1.06 1.06 0 0 1 .001-2.121zM1.474 6.764A1.043 1.043 0 0 1 .992 5.9c0-.394.227-.726.548-.908a1.03 1.03 0 0 1 .513-.151c.197 0 .372.069.53.163.31.186.53.51.53.896 0 .42-.25.776-.604.948-.14.067-.291.113-.456.113a1.03 1.03 0 0 1-.579-.196zm8.443 4.266c-.584 0-1.06-.475-1.06-1.06a1.061 1.061 0 0 1 2.12 0 1.06 1.06 0 0 1-1.06 1.06z"/></svg>