<svg xmlns="http://www.w3.org/2000/svg" viewBox="0 0 24 24"><circle fill="#19A1DD" cx="12.026" cy="12.003" r="11.959"/><g fill="#FFF"><path d="M10.302 13.346c.704-.373 1.034-.99 1.011-1.782-.022-.756-.41-1.273-1.099-1.565-.244-.103-.5-.179-.75-.27-.323-.118-.667-.2-.962-.366-.686-.386-.72-1.359-.083-1.782a1.344 1.344 0 0 1 1.865.327c.158.215.303.44.476.643.065.075.191.097.29.144.036-.113.115-.23.102-.337a3.516 3.516 0 0 0-.166-.745c-.047-.132-.149-.284-.268-.344-.783-.393-1.597-.475-2.41-.107-.662.3-1.093.815-1.128 1.565-.034.747.315 1.306.98 1.648.254.13.535.21.803.316.328.132.67.243.98.41.391.211.578.569.568 1.015.015.455-.19.767-.585.969-.717.368-1.484.163-1.9-.53-.182-.303-.323-.633-.509-.935-.047-.076-.194-.09-.296-.133-.021.086-.071.176-.06.257.063.416.127.834.22 1.244.028.123.13.272.239.326.885.445 1.79.505 2.682.032z"/><path d="M18.323 6.244c-.51-.295-1.076-.336-1.65-.178-.758.209-1.277.704-1.638 1.323-.324.555-.573 1.148-.828 1.735-.069.16-.132.224-.317.215-.297-.015-.596-.004-.895-.004-.33 0-.332 0-.327.334h1.349c-.026.092-.042.16-.064.226-.278.85-.55 1.701-.839 2.547a259.014 259.014 0 0 1-1.424 4.098c-.19.527-.46 1.028-.865 1.448-.353.367-.791.543-1.326.469-.383-.054-.493-.185-.462-.54a.785.785 0 0 0 .002-.142c-.026-.296-.21-.448-.52-.433-.281.014-.462.197-.466.47-.005.35.255.66.702.823.535.194 1.085.189 1.634.069.897-.196 1.513-.745 1.896-1.482.4-.767.745-1.566 1.028-2.377.578-1.652 1.101-3.32 1.639-4.984.048-.148.113-.205.28-.197.255.013.51.004.767.003.34 0 .34 0 .365-.337H15.13c.083-.265.145-.511.238-.746.198-.497.387-1 .63-1.479.119-.235.32-.454.537-.623.424-.332.946-.24 1.26.182.122.163.225.34.36.492.16.181.426.224.596.11.21-.14.198-.348.084-.51-.134-.194-.305-.393-.51-.512z"/></g></svg>