<svg xmlns="http://www.w3.org/2000/svg" viewBox="0 0 12 10.299"><path d="M11.997.888c-.03-.026-1.752-1.527-3.813.328C6.605-.814.626-.718 1.782 4.743c-3 2.005-1.601 5.053-.223 5.556L12 10.269V.886l-.003.001zM4.969 6.543a6.727 6.727 0 0 1-.09-.511c-.005-.033.015-.07.024-.106.042.018.102.024.122.055.076.124.134.26.209.385.171.285.486.369.781.217.162-.083.247-.21.24-.398a.434.434 0 0 0-.233-.417c-.128-.069-.268-.114-.403-.169-.11-.044-.226-.076-.33-.13-.273-.14-.417-.37-.403-.677.014-.308.192-.52.464-.643.334-.152.669-.118.99.044.05.024.092.087.11.141.035.098.057.203.07.306.004.044-.028.092-.043.139-.04-.02-.093-.029-.12-.06-.07-.083-.13-.175-.195-.264a.553.553 0 0 0-.767-.134.432.432 0 0 0 .035.732c.121.069.262.102.395.15.102.038.208.07.308.112.283.12.443.332.452.643.01.326-.126.58-.415.733-.367.194-.74.17-1.103-.013a.22.22 0 0 1-.098-.135zm4.673-2.351c-.07.046-.179.029-.245-.046-.055-.063-.098-.135-.148-.202-.129-.174-.343-.211-.518-.075a.804.804 0 0 0-.22.256c-.1.197-.178.404-.26.608-.038.097-.063.198-.097.307h.507c-.01.138-.01.138-.15.139-.105 0-.21.003-.315-.002-.068-.003-.095.02-.115.081-.221.684-.436 1.37-.674 2.049a7.458 7.458 0 0 1-.422.977 1.129 1.129 0 0 1-.78.61 1.19 1.19 0 0 1-.671-.03c-.184-.066-.291-.194-.289-.337.002-.113.076-.188.191-.194.128-.006.203.056.214.178a.33.33 0 0 1 0 .059c-.013.146.032.2.19.221a.6.6 0 0 0 .544-.192c.167-.173.278-.379.356-.596.201-.559.394-1.121.586-1.684.118-.348.23-.698.344-1.047.01-.027.016-.055.027-.093h-.555c-.002-.137-.002-.137.135-.137.122 0 .245-.004.368.001.075.004.101-.022.13-.088.105-.241.207-.485.34-.713.148-.254.362-.458.673-.544a.86.86 0 0 1 .679.073c.084.05.155.13.21.21.046.067.052.153-.035.21z"/></svg>