<svg xmlns="http://www.w3.org/2000/svg" viewBox="0 0 12 12"><path fill="#404040" d="M8.04 12.008H2.328c-1.304 0-2.365-1.087-2.365-2.423V6.437c0-1.336 1.06-2.423 2.365-2.423H8.04c1.06 0 1.958.716 2.259 1.702l.4-.32a.656.656 0 0 1 .309-.22.743.743 0 0 1 .578.056.82.82 0 0 1 .452.739v4.138a.822.822 0 0 1-.39.705c-.302.227-.66.046-.802-.025a.487.487 0 0 1-.098-.066l-.462-.392c-.315.962-1.217 1.677-2.246 1.677zM2.328 5.014c-.753 0-1.365.638-1.365 1.423v3.148c0 .785.612 1.423 1.365 1.423H8.04c.727 0 1.365-.665 1.365-1.423v-.233a.5.5 0 0 1 .824-.381l.809.687V6.405l-.82.656a.5.5 0 0 1-.813-.39v-.234c0-.785-.612-1.423-1.365-1.423H2.328zm.868-3.576c.329 0 .577.248.577.578s-.248.577-.577.577c-.33 0-.578-.248-.578-.577s.248-.578.578-.578m0-1c-.884 0-1.578.694-1.578 1.578 0 .883.694 1.577 1.578 1.577.883 0 1.577-.694 1.577-1.577 0-.884-.694-1.578-1.577-1.578zm3.786 1c.33 0 .578.248.578.578s-.249.577-.578.577-.578-.248-.578-.577.249-.578.578-.578m0-1c-.884 0-1.578.694-1.578 1.578 0 .883.694 1.577 1.578 1.577.884 0 1.578-.694 1.578-1.577 0-.884-.694-1.578-1.578-1.578z"/></svg>