<svg xmlns="http://www.w3.org/2000/svg" viewBox="0 0 14 14"><path d="M4.25 5.545h5.388a.604.604 0 0 0 0-1.209H4.251a.604.604 0 0 0 0 1.21z"/><path d="M13.992 7.18a.6.6 0 0 0-.072-.285l-2.765-5.157a.602.602 0 0 0-.532-.319l-7.257-.003a.605.605 0 0 0-.533.319L.071 6.895A.613.613 0 0 0 0 7.182v4.799c0 .334.27.604.604.604h12.792A.605.605 0 0 0 14 11.98l-.008-4.799zM3.728 2.625l6.533.003 2.117 3.948h-2.49l.044.646c.009.127-.012.657-.272.936-.133.142-.326.21-.59.21H4.837c-.173-.007-.737-.114-.737-1.187v-.605H1.613l2.115-3.951zm-2.52 8.75v-3.59h1.733c.086.507.288.92.603 1.235.542.54 1.205.557 1.281.557H9.07c.601 0 1.111-.205 1.474-.594.344-.368.493-.828.556-1.197h1.686l.006 3.59H1.208z"/></svg>