<svg xmlns="http://www.w3.org/2000/svg" viewBox="0 0 12 12"><path fill="#404040" d="M2.9 9.852c-1.727 0-2.757-1.39-2.882-2.764-.2-2.188 1.246-4.141 3.515-4.75.07-.019.786-.167.903-.167.056 0 .203.022.257.04.027.016.166.09.19.109a.693.693 0 0 1 .233.448c.024.17.05.339.084.506a.869.869 0 0 1-.033.41.503.503 0 0 1-.062.128.747.747 0 0 1-.366.278c-.229.089-.416.16-.585.257a1.05 1.05 0 0 0-.351.335c1.215.329 1.936 1.437 1.803 2.782-.13 1.299-1.185 2.3-2.51 2.382a3.415 3.415 0 0 1-.196.006zm1.276-6.627a7.445 7.445 0 0 0-.383.079c-1.791.48-2.933 2-2.779 3.694.084.921.758 1.854 1.886 1.854l.139-.005a1.662 1.662 0 0 0 1.572-1.482c.085-.866-.35-1.545-1.109-1.728L2.95 5.51a.501.501 0 0 1-.35-.68l.122-.291c.248-.438.482-.802.937-1.06.155-.09.324-.165.519-.243l-.002-.01zm5.106 6.627c-1.728 0-2.758-1.39-2.882-2.764-.2-2.188 1.245-4.14 3.514-4.75.07-.019.786-.167.903-.167.057 0 .203.022.257.04.027.016.166.09.19.109a.695.695 0 0 1 .233.444c.025.174.05.343.084.51a.869.869 0 0 1-.033.41.503.503 0 0 1-.062.128.744.744 0 0 1-.366.278c-.228.089-.416.16-.585.257-.141.08-.245.184-.353.338a2.66 2.66 0 0 1 1.805 2.779c-.129 1.299-1.184 2.3-2.51 2.382a3.411 3.411 0 0 1-.195.006zm1.275-6.627a6.945 6.945 0 0 0-.382.079c-1.792.48-2.934 2-2.78 3.694.084.921.76 1.854 1.887 1.854l.138-.005c.829-.05 1.492-.674 1.572-1.482A1.651 1.651 0 0 0 9.75 5.6l-.411-.088a.498.498 0 0 1-.357-.681l.121-.291c.248-.438.483-.802.937-1.06a4.16 4.16 0 0 1 .519-.243.09.09 0 0 0-.002-.01z"/></svg>