<svg xmlns="http://www.w3.org/2000/svg" viewBox="0 0 12 12"><path fill="#19171D" d="M11.25 7.423H.75a.75.75 0 0 1-.75-.75V5.327a.75.75 0 0 1 .75-.75h10.5a.75.75 0 0 1 .75.75v1.346c0 .413-.337.75-.75.75zM1 6.423h10v-.846H1v.846zM11.25 12H.75a.751.751 0 0 1-.75-.75V9.903a.75.75 0 0 1 .75-.75h10.5c.413 0 .75.337.75.75v1.347c0 .413-.337.75-.75.75zM1 11h10v-.847H1V11zm10.25-8.154H.75a.75.75 0 0 1-.75-.75V.75A.75.75 0 0 1 .75 0h10.5a.75.75 0 0 1 .75.75v1.346a.75.75 0 0 1-.75.75zM1 1.846h10V1H1v.846z"/></svg>