<svg xmlns="http://www.w3.org/2000/svg" viewBox="0 0 12 12"><path d="M2.914 10.456c-.27 0-.546-.045-.814-.14C1.288 10.03.833 9.393.437 8.764a.5.5 0 1 1 .846-.534c.387.616.686.98 1.149 1.143a1.458 1.458 0 1 0 .491-2.832c-.275-.003-.498-.229-.495-.505s.185-.52.505-.495a2.461 2.461 0 0 1 2.3 3.275 2.462 2.462 0 0 1-2.319 1.64z"/><path d="M.86 8.997a.5.5 0 0 1-.454-.29C-1.37 4.845 2.99 1.502 3.177 1.361a.5.5 0 1 1 .602.799c-.04.03-3.902 3-2.465 6.127a.5.5 0 0 1-.454.71zm8.63 1.439c-.276 0-.552-.047-.82-.141-.81-.284-1.265-.922-1.663-1.552a.499.499 0 1 1 .846-.533c.389.615.686.98 1.148 1.142.37.13.765.109 1.115-.06.351-.168.616-.462.745-.83.13-.366.108-.762-.06-1.113a1.447 1.447 0 0 0-1.305-.828.5.5 0 0 1 .002-1H9.5c.273 0 .543.047.803.14a2.44 2.44 0 0 1 1.4 1.256c.284.592.32 1.26.101 1.879a2.44 2.44 0 0 1-1.256 1.398 2.442 2.442 0 0 1-1.058.242z"/><path d="M7.43 8.977a.5.5 0 0 1-.454-.291C5.203 4.823 9.56 1.48 9.747 1.34a.5.5 0 1 1 .602.799c-.04.029-3.9 3-2.465 6.128a.5.5 0 0 1-.454.709z"/></svg>