<svg xmlns="http://www.w3.org/2000/svg" viewBox="0 0 14 14"><path d="M12.8 2.2v1.1H1.2V2.2h11.6m.716-1.2H.484A.485.485 0 0 0 0 1.485v2.53c0 .268.217.485.484.485h13.032A.484.484 0 0 0 14 4.015v-2.53A.485.485 0 0 0 13.516 1zm-.716 9.7v1.1H1.2v-1.1h11.6m.716-1.2H.484A.485.485 0 0 0 0 9.985v2.53c0 .268.217.485.484.485h13.032a.485.485 0 0 0 .484-.485v-2.53a.485.485 0 0 0-.484-.485zM1.58 7.593H.594a.593.593 0 0 1 0-1.186h.988a.593.593 0 0 1 0 1.186zm8.671 0H8.084a.593.593 0 0 1 0-1.186h2.167a.593.593 0 0 1 0 1.186zm-4.336 0H3.748a.593.593 0 0 1 0-1.186h2.167a.593.593 0 0 1 0 1.186zm7.492 0h-.988a.593.593 0 0 1 0-1.186h.988a.593.593 0 0 1 0 1.186z"/></svg>