<svg xmlns="http://www.w3.org/2000/svg" viewBox="0 0 14 14"><g fill="#010101"><path d="M13.616 2.381a.435.435 0 0 0-.315-.135h-.01c-.465 0-.898-.185-1.221-.523a1.695 1.695 0 0 1-.473-1.267.434.434 0 0 0-.434-.456H2.837a.435.435 0 0 0-.434.456c.023.474-.145.924-.473 1.267a1.676 1.676 0 0 1-1.221.523H.7a.434.434 0 0 0-.436.458c.15 2.773 1.194 7.918 6.505 11.23a.434.434 0 0 0 .46 0c5.312-3.312 6.356-8.457 6.505-11.23a.435.435 0 0 0-.119-.323zM7 13.051c-4.53-2.946-5.62-7.342-5.839-9.975a2.537 2.537 0 0 0 1.398-.752c.381-.4.623-.913.694-1.455h7.494c.07.542.313 1.056.694 1.455.383.4.868.658 1.398.752-.22 2.633-1.31 7.029-5.839 9.974z"/><path d="M7.298 1.982a3.868 3.868 0 0 0-4.15 3.554 3.868 3.868 0 0 0 3.855 4.162 3.869 3.869 0 0 0 3.849-3.566 3.868 3.868 0 0 0-3.554-4.15zm2.688 4.083A2.999 2.999 0 0 1 6.769 8.82a2.998 2.998 0 0 1-2.754-3.217A2.998 2.998 0 0 1 7.23 2.85a2.998 2.998 0 0 1 2.755 3.216z"/><path d="M8.442 4.62L6.384 6.385l-.71-.83a.435.435 0 1 0-.66.565l.993 1.16a.434.434 0 0 0 .612.048L9.008 5.28a.435.435 0 1 0-.566-.66z"/></g></svg>