<svg xmlns="http://www.w3.org/2000/svg" viewBox="0 0 14 14"><path d="M12.728 5.106a6.2 6.2 0 0 0-.223-.543 1.72 1.72 0 0 0 .226-.858c0-.462-.18-.894-.506-1.218l-.546-.548c-.502-.5-1.36-.633-2.006-.311a5.77 5.77 0 0 0-.543-.229A1.727 1.727 0 0 0 7.467.13h-.774c-.753 0-1.411.48-1.641 1.196a5.592 5.592 0 0 0-.548.226c-.654-.358-1.56-.237-2.07.277l-.55.546a1.718 1.718 0 0 0-.311 2.01 5.907 5.907 0 0 0-.228.54 1.728 1.728 0 0 0-1.27 1.664v.77c0 .755.48 1.414 1.197 1.644.06.174.135.356.223.543a1.73 1.73 0 0 0-.228.857c0 .461.181.894.507 1.218l.547.549c.5.5 1.362.633 2.005.31.17.083.352.16.545.23.204.748.886 1.27 1.663 1.27h.77c.754 0 1.414-.481 1.645-1.198a5.81 5.81 0 0 0 .547-.225 1.762 1.762 0 0 0 2.071-.277l.547-.546c.534-.537.66-1.342.313-2.01.084-.175.162-.358.228-.54a1.729 1.729 0 0 0 1.27-1.664v-.771c0-.754-.48-1.413-1.197-1.642zm-1.732 4.736l.289.321a.525.525 0 0 1-.02.722l-.547.546a.516.516 0 0 1-.369.135h-.003a.536.536 0 0 1-.373-.135l-.302-.302-.013-.014-.394.213c-.336.183-.67.32-.996.41l-.413.116-.024.427a.528.528 0 0 1-.527.497h-.77a.525.525 0 0 1-.524-.524l-.002-.447-.43-.128a4.705 4.705 0 0 1-.991-.417l-.375-.212-.322.288c-.18.162-.55.153-.721-.017l-.547-.55a.523.523 0 0 1 0-.742l.3-.301.014-.013-.21-.392a4.942 4.942 0 0 1-.412-1L2.2 7.907l-.429-.024a.526.526 0 0 1-.495-.526v-.77c0-.29.235-.526.526-.526h.447l.127-.43c.105-.356.246-.691.417-.994l.212-.375-.29-.32a.525.525 0 0 1 .02-.72l.548-.547a.523.523 0 0 1 .37-.135h.001c.15 0 .285.049.371.135l.304.301.013.013.391-.212a4.95 4.95 0 0 1 1-.411l.396-.11.017-.005.025-.428a.524.524 0 0 1 .523-.495h.773c.289 0 .524.235.524.524v.449l.43.127c.357.105.691.245.993.417l.376.212.32-.289c.184-.164.548-.154.722.02l.547.547c.098.1.153.23.153.37a.52.52 0 0 1-.154.373l-.301.301-.014.014.211.392c.182.334.32.67.412 1l.116.413.428.024a.525.525 0 0 1 .495.525v.771c0 .29-.235.525-.524.525h-.448l-.127.43a4.823 4.823 0 0 1-.417.992l-.212.376z"/><path d="M7 4.889a2.168 2.168 0 0 0-2.165 2.165c0 1.193.971 2.165 2.165 2.165s2.165-.972 2.165-2.165A2.168 2.168 0 0 0 7 4.89zm.964 2.165A.966.966 0 0 1 7 8.019a.966.966 0 0 1 0-1.93c.531 0 .964.432.964.965z"/></svg>