<svg xmlns="http://www.w3.org/2000/svg" viewBox="0 0 14 14"><path d="M.604 12.794A.603.603 0 0 1 0 12.186c.021-2.55.8-4.575 2.315-6.016C4.24 4.338 6.81 3.976 7.985 3.91v-2.1a.605.605 0 0 1 1.034-.425l4.806 4.857c.232.234.234.61.003.846l-4.805 4.926a.605.605 0 0 1-1.037-.422V9.345c-5.239-.372-6.763 2.942-6.828 3.088a.607.607 0 0 1-.554.361zm7.87-7.687c-.543 0-3.39.092-5.333 1.946-.835.796-1.402 1.822-1.696 3.062C2.704 8.963 4.94 7.772 8.658 8.193a.604.604 0 0 1 .536.6v1.314l3.354-3.438-3.354-3.39v1.225a.603.603 0 0 1-.628.604l-.091-.001z"/></svg>