<svg data-name="Layer 1" xmlns="http://www.w3.org/2000/svg" viewBox="0 0 24 24"><circle cx="12" cy="12" r="12" fill="#95bf46"/><path d="M17.194 6.797a.152.152 0 0 0-.137-.127l-1.265-.094-.931-.925a.382.382 0 0 0-.342-.044l-.47.145c-.28-.806-.774-1.547-1.644-1.547-.024 0-.05 0-.074.002a1.057 1.057 0 0 0-.819-.47c-2.026 0-2.995 2.534-3.298 3.822l-1.419.44c-.44.138-.453.152-.511.566-.044.314-1.194 9.209-1.194 9.209l8.963 1.68 4.857-1.051-1.716-11.606zm-3.64-.892l-.758.235v-.164a3.72 3.72 0 0 0-.18-1.224c.447.056.746.566.938 1.153zM12.06 4.851a3.76 3.76 0 0 1 .206 1.366v.087l-1.567.486a2.678 2.678 0 0 1 1.361-1.939zm-.602-.57a.458.458 0 0 1 .26.088 3.37 3.37 0 0 0-1.64 2.613l-1.238.383c.343-1.172 1.16-3.084 2.617-3.084z" fill="#fff"/><path d="M17.057 6.67l-1.265-.094-.931-.925a.23.23 0 0 0-.13-.06l-.677 13.862 4.856-1.05-1.716-11.606a.152.152 0 0 0-.137-.127" fill="#fff"/><path d="M12.405 9.353l-.6 1.782a2.755 2.755 0 0 0-1.167-.28c-.943 0-.99.591-.99.74 0 .814 2.12 1.126 2.12 3.031a2.247 2.247 0 0 1-2.233 2.465 3.107 3.107 0 0 1-2.325-.958l.412-1.36a2.945 2.945 0 0 0 1.491.694.602.602 0 0 0 .628-.608C9.74 13.798 8 13.75 8 12.007a2.899 2.899 0 0 1 3.18-2.888 2.616 2.616 0 0 1 1.224.234" fill="#95bf46"/><path fill="none" stroke="#95bf46" stroke-miterlimit="10" stroke-width=".2" d="M14.963 5.083l-.735 15.036"/></svg>