<svg xmlns="http://www.w3.org/2000/svg" viewBox="0 0 80 80"><path d="M47.3 21.6l-1.5.5c-.6-1.9-1.5-3.2-2.6-4-.8-.6-1.7-.8-2.7-.8-.2-.3-.4-.5-.7-.7-1.1-.9-2.4-1-4.1-.4-4.9 1.8-7 8.2-7.8 11.4l-4.3 1.3s-1 .3-1.2.6c-.3.3-.3 1.2-.3 1.2l-3.6 28.1 27.3 5.1L48 21.6c-.3-.1-.6 0-.7 0zm-7 2.2l-4.7 1.5c.6-2.5 1.8-5 4.1-6 .5 1.2.6 2.9.6 4.5zm-4-6c1-.4 1.8-.3 2.4 0-3.1 1.4-4.4 5-5 8L29.9 27c.8-3.1 2.7-7.9 6.4-9.2zM39 38.5c-.2-.1-.5-.2-.8-.3-.3-.1-.6-.2-1-.3-.3-.1-.7-.2-1.1-.2-.4 0-.8-.1-1.2 0-.4 0-.7.1-1 .2-.3.1-.6.3-.8.4-.2.2-.4.4-.5.7-.1.3-.2.5-.2.9 0 .2 0 .5.1.7.1.2.2.4.4.6.2.2.4.4.7.6.3.2.6.4 1 .7.5.3 1.1.7 1.6 1.1.5.4 1 .9 1.4 1.5.4.6.8 1.2 1 1.9.2.7.4 1.5.3 2.4-.1 1.4-.4 2.7-.9 3.7s-1.2 1.8-2.1 2.4c-.8.6-1.8.9-2.9 1.1-1 .1-2.1.1-3.3-.2-.5-.1-1-.3-1.5-.5s-.9-.4-1.3-.6c-.4-.2-.8-.5-1.1-.7-.3-.3-.6-.5-.8-.8l1.2-4.1c.2.2.5.4.8.6.3.2.6.4 1 .6.4.2.7.4 1.1.5.4.2.8.3 1.2.3.4.1.7 0 1 0 .3-.1.5-.2.7-.3.2-.2.4-.4.5-.6.1-.2.2-.5.2-.8 0-.3 0-.6-.1-.8-.1-.3-.2-.5-.4-.8-.2-.3-.4-.5-.7-.8-.3-.3-.6-.5-1-.8-.5-.4-.9-.7-1.3-1.2-.4-.4-.7-.9-1-1.4-.3-.5-.5-1-.7-1.6-.1-.6-.2-1.2-.2-1.8 0-1.1.3-2.1.6-3.1.4-.9.9-1.8 1.6-2.5.7-.7 1.5-1.4 2.5-1.8 1-.5 2.1-.8 3.4-1 .6-.1 1.1-.1 1.7-.1.5 0 1 0 1.5.1s.9.1 1.3.3c.4.1.7.2 1 .4L39 38.5zm3-15.3v-.6c-.1-1.5-.3-2.7-.6-3.7.4 0 .7.2 1 .4.9.6 1.5 1.8 1.9 3.2l-2.3.7zm14.1 2s0-.2-.2-.3c-.1-.1-.3-.1-.3-.1l-3.9-.3-2.7-2.8c-.1-.1-.2-.1-.4-.2l-2.1 42.3 14.8-3.2-5.2-35.4z" fill="#94BE47"/></svg>