<svg xmlns="http://www.w3.org/2000/svg" viewBox="0 0 14 14"><path d="M13.842.306a.614.614 0 0 0-.201-.201s0-.012-.012-.012a.71.71 0 0 0-.638-.033l-.123.056L.428 6.135a.668.668 0 0 0-.37.638.656.656 0 0 0 .425.593l4.42 1.667 1.823 4.553c.1.246.336.414.604.414h.023a.667.667 0 0 0 .604-.38L13.887.955a.468.468 0 0 0 .044-.18.608.608 0 0 0 0-.245.554.554 0 0 0-.09-.224zm-4.207 3.14l-4.2 4.2-2.52-.95 6.72-3.25zm-2.28 7.71l-1.06-2.68 4.36-4.36-3.3 7.04zm5.57-10.33a.634.634 0 0 0-.57-.03l-.11.05a.57.57 0 0 1 .68-.02z"/></svg>