<svg xmlns="http://www.w3.org/2000/svg" viewBox="0 0 12 12"><path fill-rule="evenodd" clip-rule="evenodd" d="M10.813 6.805c.243-.224.398-.958.398-1.313V1.83c0-.673-.55-1.22-1.226-1.22H2.016C1.34.61.79 1.157.79 1.83v3.662c0 .355.155 1.09.398 1.313C.614 6.702.178 5.789.178 5.188V1.22A1.22 1.22 0 0 1 1.402 0h9.195c.676 0 1.225.546 1.225 1.22v3.968c0 .6-.437 1.514-1.01 1.617z"/><path d="M7.84 3.504c-.767 0-1.393.643-1.393 1.443 0 .794.626 1.437 1.394 1.437.767 0 1.393-.643 1.393-1.437 0-.8-.626-1.443-1.393-1.443zM6.22 9.12c-.03.004-.061.004-.091.004-.03.006-.066.006-.096.006v.465c.03 0 .065 0 .096-.005.03 0 .06 0 .096-.005l-.005-.466zM4.336 3.504c-.768 0-1.389.643-1.389 1.443 0 .794.621 1.437 1.39 1.437.767 0 1.393-.643 1.393-1.437 0-.8-.626-1.443-1.394-1.443z"/><path d="M8.053 7.488c-.086 0-.288.1-.596.376-.202.178-.45.267-.727.267a1.52 1.52 0 0 1-.51-.094c-.03-.005-.061-.021-.091-.032a.525.525 0 0 1-.096-.041v-.1a1.855 1.855 0 0 1-.495-.33c-.298-.287-.591-.512-1.106-.512h-.076c-.055.006-.121.006-.187.006-.63 0-1.767-.09-2.449-.257C1.05 6.604.397 5.752.155 5.752c-.03 0-.056.016-.071.052-.141.288-.136.706.268 1.218.399.508 1.924.957 1.924.957s-.015 1.862-.015 2.484c0 .627 1.166 1.218 1.818 1.218.646 0 1.136-.46 1.136-.784V8.93c.262.141.54.199.818.199v-.1c.03 0 .065 0 .096-.005.03 0 .06 0 .09-.005.778-.073 1.52-.607 1.738-1.088a.256.256 0 0 0 .02-.057c.136-.314.096-.382.076-.387z"/><path d="M11.84 5.652c-.106 0-.258.09-.409.262-.399.46-2.131 1.05-2.358 1.05H7.174c-.424 0-1.141.116-1.141.393v.507c.03.016.06.026.096.042.03.01.06.026.09.037.162.057.334.094.51.094a.982.982 0 0 0 .667-.246c.288-.261.525-.397.657-.397.136 0 .166.151.035.475-.66 1.292-2.055 1.26-2.055 1.26l.197.455h-.005c-.036.006-.066.006-.096.006-.03.005-.066.005-.096.005v1.302c0 .324.439 1.103 1.757 1.103 1.318 0 1.666-1.615 1.666-1.893V8.141c.94-.507 1.9-.784 2.359-1.694.273-.538.212-.795.025-.795z"/></svg>