<svg xmlns="http://www.w3.org/2000/svg" viewBox="0 0 14 14"><path fill="#FFFC00" d="M12.522 14.001H1.478a1.478 1.478 0 0 1-1.479-1.478V1.478A1.48 1.48 0 0 1 1.478 0h11.044c.817 0 1.479.662 1.479 1.478v11.045c0 .816-.662 1.478-1.479 1.478z"/><path fill="none" d="M-.001 0H14v14.001H-.001z"/><path fill="#FFF" d="M7.065 11.817l-.078-.002a.601.601 0 0 1-.052.002c-.61 0-1.019-.29-1.38-.544-.258-.183-.502-.355-.787-.403a2.542 2.542 0 0 0-.414-.035c-.243 0-.435.038-.575.065-.086.017-.16.032-.218.032-.06 0-.133-.014-.164-.118-.024-.082-.041-.161-.058-.238-.042-.191-.072-.308-.144-.319-.766-.118-1.219-.292-1.309-.503a.196.196 0 0 1-.016-.067.123.123 0 0 1 .103-.128c.609-.1 1.15-.422 1.608-.956a3.605 3.605 0 0 0 .551-.859c.089-.18.106-.334.053-.46-.099-.233-.426-.337-.642-.406a2.31 2.31 0 0 1-.145-.049c-.192-.075-.507-.236-.465-.456.03-.161.243-.274.415-.274.048 0 .09.009.126.025.195.092.37.138.52.138.188 0 .278-.071.3-.092l-.018-.305v-.001c-.045-.7-.1-1.57.123-2.068.666-1.494 2.079-1.61 2.496-1.61a106.46 106.46 0 0 0 .206-.002c.418 0 1.833.117 2.5 1.61.222.5.168 1.37.123 2.07l-.002.034-.016.272c.02.02.103.084.272.091.143-.005.308-.051.49-.136a.387.387 0 0 1 .16-.032c.064 0 .129.012.183.035h.003c.154.056.255.165.257.28.002.107-.077.267-.469.421-.04.016-.091.032-.145.05-.217.068-.543.172-.642.405-.054.126-.036.28.052.46l.003.006c.028.064.687 1.567 2.157 1.809.062.01.106.065.103.128a.197.197 0 0 1-.017.067c-.09.21-.542.384-1.308.502-.072.011-.102.128-.144.318a3.352 3.352 0 0 1-.058.237c-.023.076-.072.113-.152.113h-.012a1.25 1.25 0 0 1-.218-.028 2.87 2.87 0 0 0-.575-.06c-.134 0-.274.011-.414.035-.285.047-.529.22-.787.401-.361.256-.77.545-1.38.545"/><path fill="#020202" d="M12.055 9.388c-1.376-.227-2-1.646-2.033-1.72-.064-.132-.08-.24-.047-.317.068-.16.36-.252.563-.316l.128-.045c.2-.079.342-.164.437-.263a.45.45 0 0 0 .141-.323c-.003-.19-.144-.357-.367-.437a.654.654 0 0 0-.25-.047.56.56 0 0 0-.232.048c-.16.074-.3.114-.415.12-.047-.002-.083-.011-.094-.011h-.001l.012-.202c.045-.718.102-1.612-.138-2.151a2.901 2.901 0 0 0-.655-.938 2.736 2.736 0 0 0-.782-.518 3.141 3.141 0 0 0-1.248-.256l-.18.002a3.09 3.09 0 0 0-1.22.257 2.738 2.738 0 0 0-.782.518c-.268.256-.488.57-.651.936-.24.539-.183 1.433-.138 2.15l.007.112.036.074a.364.364 0 0 1-.151.028c-.125 0-.276-.04-.448-.121a.467.467 0 0 0-.198-.041.684.684 0 0 0-.34.094.486.486 0 0 0-.247.32c-.016.084-.016.25.165.415.095.086.232.165.407.234.045.018.1.036.158.054.186.06.466.148.534.307.033.078.016.185-.055.331a3.45 3.45 0 0 1-.521.809 2.88 2.88 0 0 1-.628.554 2.279 2.279 0 0 1-.877.343.296.296 0 0 0-.247.31.36.36 0 0 0 .03.124c.054.129.179.237.38.33.237.11.587.202 1.004.246.02.04.046.158.058.215.017.08.036.163.061.25.046.156.163.242.33.242.072 0 .155-.016.252-.035.133-.026.314-.062.54-.062.126 0 .256.012.387.033.246.041.463.195.716.373.38.269.81.574 1.523.574l.085.002c.668 0 1.1-.306 1.489-.581.249-.176.464-.328.707-.368a2.406 2.406 0 0 1 .927.025c.106.021.188.031.264.031a.316.316 0 0 0 .318-.237c.025-.087.043-.167.064-.262.014-.062.037-.165.019-.174.453-.071.803-.162 1.04-.272.2-.093.325-.201.38-.33a.36.36 0 0 0 .03-.125.295.295 0 0 0-.247-.309zm-1.616 1.363c-.043 0-.108-.01-.184-.024a2.741 2.741 0 0 0-1.05-.027c-.325.053-.584.236-.86.432-.355.25-.722.51-1.353.51l-.056.002c-.558 0-.925-.26-1.285-.516-.273-.192-.531-.375-.854-.428a2.761 2.761 0 0 0-.443-.038c-.257 0-.459.04-.612.07-.074.013-.138.027-.179.034-.02-.07-.035-.139-.055-.227-.047-.217-.091-.422-.286-.453-.975-.15-1.145-.347-1.207-.356l-.002-.002c1.525-.258 2.203-1.74 2.275-1.907.112-.227.13-.43.056-.605-.13-.305-.501-.424-.748-.503a2.13 2.13 0 0 1-.135-.045c-.312-.123-.364-.231-.358-.263.01-.054.12-.124.272-.124H3.4c.218.103.418.154.594.154.28 0 .41-.128.433-.154l.04-.09-.02-.34c-.042-.68-.095-1.525.11-1.984.623-1.399 1.946-1.508 2.337-1.508l.206-.002c.392 0 1.717.11 2.341 1.509.205.458.153 1.3.107 2.026l-.016.276.025.097.014.016c.013.014.135.143.411.153.166-.006.354-.057.645-.168.042 0 .085.008.127.025.088.031.142.086.143.12 0 .001 0 .116-.359.257l-.135.046c-.246.078-.618.196-.748.502-.074.175-.055.378.055.603.073.169.763 1.66 2.244 1.866-.01.023-.13.24-1.177.4-.193.03-.238.234-.286.451a2.706 2.706 0 0 1-.053.215z"/></svg>