<svg xmlns="http://www.w3.org/2000/svg" viewBox="0 0 14 14"><path d="M13.818 7.26c-.23.21-.59.19-.8-.04-.35-.37-.79-.64-1.27-.79h-.74c-.33-.29-.61-.45-.79-.54.17-.21.31-.43.43-.68 0-.01.01-.01.01-.02.1-.01.2-.01.3-.01.23 0 .46.02.68.06.46-.23.77-.72.77-1.27 0-.8-.65-1.44-1.45-1.44-.04 0-.09 0-.13.01-.12-.38-.32-.74-.56-1.05.22-.07.45-.1.69-.1 1.43 0 2.59 1.15 2.59 2.58 0 .66-.24 1.25-.65 1.71.35.21.68.46.96.77.21.23.2.59-.04.81zm-9.29-1.37c-.16.08-.41.22-.69.45-.09-.01-.19-.02-.29-.02-.25.01-.5.05-.74.12-.6.18-1.14.56-1.5 1.09-.18.26-.54.32-.79.14a.566.566 0 0 1-.15-.79c.34-.49.78-.89 1.29-1.18-.42-.46-.67-1.06-.67-1.73a2.58 2.58 0 0 1 3.45-2.43c-.23.31-.42.66-.54 1.03a1.44 1.44 0 0 0-.99 2.68c.2-.04.41-.06.62-.07.19-.01.38 0 .57.03.11.25.26.47.43.68zm7.27 2.17c-.22-.05-.45-.08-.68-.08-.25 0-.49.03-.72.09a3.64 3.64 0 0 0-1.81-1.37 3.5 3.5 0 0 0-1.21-.21c-.43 0-.84.07-1.22.21-1.43.5-2.46 1.84-2.49 3.42h-1.21a4.933 4.933 0 0 1 2.54-4.22c-.24-.23-.42-.49-.57-.77a3.356 3.356 0 0 1-.35-1.11 4.58 4.58 0 0 1-.02-.37c0-.13.01-.26.03-.38 0-.09.02-.18.04-.26.01-.12.04-.23.07-.34.1-.37.28-.72.51-1.02.59-.8 1.54-1.33 2.61-1.35h.11c1.04.02 1.97.51 2.55 1.28.25.3.44.65.55 1.02.01.02.01.04.01.06.09.31.15.62.15.95v.04c0 .28-.03.55-.11.81-.03.12-.07.24-.12.36 0 .03-.01.05-.03.07-.05.12-.11.23-.17.34-.08.17-.18.32-.32.47v.01c-.05.07-.11.13-.17.19.87.49 1.59 1.25 2.03 2.16zm-3.09-2.83a2.085 2.085 0 0 0 .29-2.95 2.095 2.095 0 0 0-3.35.14c-.24.34-.38.75-.38 1.19 0 .58.24 1.11.63 1.49.12.12.25.22.4.31.35-.09.71-.13 1.08-.13.37 0 .74.04 1.09.12.09-.05.17-.11.24-.17zm2.41 3.06c-.09 0-.18 0-.27.02.09 0 .19-.01.28-.01.15 0 .29.01.42.03-.14-.03-.28-.04-.43-.04zm2.78 2.79a2.77 2.77 0 0 1-2.77 2.77 2.77 2.77 0 0 1-2.72-2.22h-4.71v.67c0 .34-.27.61-.61.61-.33 0-.61-.27-.61-.61v-.67h-1.11v1.4a.606.606 0 1 1-1.21 0v-2c0-.34.27-.61.6-.61h7.67c.07-.26.17-.51.3-.73.24-.42.59-.77 1.01-1.02.08-.05.17-.09.26-.13.09-.04.18-.08.27-.11.1-.04.19-.06.29-.08.01-.01.02 0 .02 0 .09-.02.18-.03.27-.04.09 0 .19-.01.28-.01a2.744 2.744 0 0 1 .81.12h.01c.02 0 .04.01.06.02.1.03.2.07.29.11.06.04.13.07.19.11.1.05.2.12.29.19.08.05.15.11.21.18.06.05.12.11.17.17.09.09.17.19.24.3.08.11.14.22.2.34 0 0 0 .01.01.01.19.37.29.79.29 1.23zm-1.21 0c0-.4-.15-.77-.41-1.05a1.52 1.52 0 0 0-1.15-.52c-.04 0-.08 0-.12.01-.81.06-1.45.74-1.45 1.56 0 .86.71 1.56 1.57 1.56.86 0 1.56-.7 1.56-1.56z"/></svg>