<svg data-name="Layer 1" xmlns="http://www.w3.org/2000/svg" viewBox="0 0 356 255"><defs><clipPath id="a"><path d="M204.16-415.67a.751.751 0 0 0-.749.751l.004 2.55-2.486.002a.75.75 0 0 0-.749.751.752.752 0 0 0 .751.75l2.487-.005.004 2.55a.75.75 0 0 0 .751.748.753.753 0 0 0 .75-.752l-.006-2.548 2.488-.004a.75.75 0 0 0 .748-.75.749.749 0 0 0-.75-.75l-2.488.004-.003-2.549a.751.751 0 0 0-.75-.749z" fill="#6681e2" clip-rule="evenodd"/></clipPath><clipPath id="b"><path d="M193.175-397.553l.004 2.549-2.487.004a.75.75 0 0 0-.748.75.751.751 0 0 0 .752.75l2.485-.005.005 2.549a.75.75 0 0 0 .75.749.75.75 0 0 0 .749-.751l-.003-2.548 2.487-.005a.75.75 0 0 0 .749-.75.751.751 0 0 0-.752-.749l-2.487.003-.005-2.548a.75.75 0 0 0-.75-.749.75.75 0 0 0-.749.751z" fill="#e6ebfa" clip-rule="evenodd"/></clipPath><clipPath id="c"><path d="M302.16-230.67a.751.751 0 0 0-.749.751l.004 2.55-2.486.002a.75.75 0 0 0-.749.751.752.752 0 0 0 .751.75l2.487-.005.004 2.55a.75.75 0 0 0 .751.748.753.753 0 0 0 .75-.752l-.006-2.548 2.488-.004a.75.75 0 0 0 .748-.75.749.749 0 0 0-.75-.75l-2.488.004-.003-2.549a.751.751 0 0 0-.75-.749z" fill="#6681e2" clip-rule="evenodd"/></clipPath><clipPath id="d"><path d="M204.16 1.33a.751.751 0 0 0-.749.751l.004 2.55-2.486.002a.75.75 0 0 0 .002 1.501l2.487-.005.004 2.55a.75.75 0 0 0 1.501-.004l-.006-2.548 2.488-.004a.75.75 0 0 0-.002-1.5l-2.488.004-.003-2.549a.751.751 0 0 0-.75-.749z" fill="#e6e8f5" clip-rule="evenodd"/></clipPath><clipPath id="e"><path fill="#6681e2" d="M-758.695-439.531h1440v900h-1440z"/></clipPath><clipPath id="f"><path fill="#e6e8f5" d="M194.305-4.531h19v19h-19z"/></clipPath><clipPath id="g"><path fill="#e6e8f5" d="M195.18-3.671h17.974v18.097H195.18z"/></clipPath><clipPath id="h"><path fill="#e6e8f5" d="M199.305.469h9v9h-9z"/></clipPath><clipPath id="i"><path d="M193.175 19.447l.004 2.549-2.487.004a.75.75 0 0 0 .004 1.5l2.485-.005.005 2.549a.75.75 0 1 0 1.499-.002l-.003-2.548 2.487-.005a.75.75 0 1 0-.003-1.499l-2.487.003-.005-2.548a.75.75 0 1 0-1.499.002z" fill="#e6e8f5" clip-rule="evenodd"/></clipPath><clipPath id="j"><path fill="#e6ebfa" d="M-864-406H576v900H-864z"/></clipPath><clipPath id="k"><path fill="#e6e8f5" d="M184 13h19v19h-19z"/></clipPath><clipPath id="l"><path fill="#e6e8f5" d="M184.944 13.696h17.974v18.097h-17.974z"/></clipPath><clipPath id="m"><path fill="#e6e8f5" d="M189 18h9v9h-9z"/></clipPath><clipPath id="n"><path d="M114.268 153.006a.707.707 0 0 0-.615-.37 241.622 241.622 0 0 1-43.752-4.533 241.751 241.751 0 0 1-42.102-12.373 241.406 241.406 0 0 1-22.683-10.368.727.727 0 0 0-.974.307.702.702 0 0 0 0 .662.693.693 0 0 0 .292.288 243.425 243.425 0 0 0 22.816 10.43A243.049 243.049 0 0 0 69.6 149.49a242.87 242.87 0 0 0 44.014 4.562.726.726 0 0 0 .735-.707.691.691 0 0 0-.081-.34z" fill="#e6e8f5"/></clipPath><clipPath id="o"><path d="M129.157 171.377a.699.699 0 0 0-.667-.11 242.954 242.954 0 0 1-47.028 11.212c-4.54.612-9.154 1.1-13.713 1.451a.728.728 0 0 0-.668.773.705.705 0 0 0 .265.504.697.697 0 0 0 .486.147c4.574-.351 9.216-.842 13.796-1.46a244.458 244.458 0 0 0 47.303-11.279.728.728 0 0 0 .453-.916.694.694 0 0 0-.227-.322z" fill="#e6e8f5"/></clipPath><clipPath id="p"><path d="M142.255 197.98a.702.702 0 0 0-.734.099 228.776 228.776 0 0 1-37.854 24.829.727.727 0 0 0-.31.972.686.686 0 0 0 .333.32.7.7 0 0 0 .615-.02 230.174 230.174 0 0 0 38.091-24.987.724.724 0 0 0 .115-1.013.692.692 0 0 0-.256-.2z" fill="#e6e8f5"/></clipPath><clipPath id="q"><path d="M149.824 191.165a.711.711 0 0 0-.757.12c-.834.738-1.689 1.483-2.54 2.215a.723.723 0 0 0-.085 1.015.685.685 0 0 0 .244.184.708.708 0 0 0 .749-.112 240.29 240.29 0 0 0 2.556-2.23.722.722 0 0 0 .07-1.016.67.67 0 0 0-.237-.176z" fill="#e6e8f5"/></clipPath><clipPath id="r"><path d="M271.184 113.734a.699.699 0 0 1 .267-.621 242.954 242.954 0 0 0 34.752-33.61 241.161 241.161 0 0 0 8.6-10.779.728.728 0 0 1 1.012-.147.705.705 0 0 1 .282.494.697.697 0 0 1-.137.49 243.438 243.438 0 0 1-8.653 10.843 244.458 244.458 0 0 1-34.957 33.806.728.728 0 0 1-1.016-.111.694.694 0 0 1-.15-.365z" fill="#e6e8f5"/></clipPath><clipPath id="s"><path d="M295.493 138.413a.702.702 0 0 1 .595-.44 228.776 228.776 0 0 0 44.447-8.596.727.727 0 0 1 .9.48.686.686 0 0 1-.016.462.7.7 0 0 1-.455.414 230.174 230.174 0 0 1-44.727 8.648.724.724 0 0 1-.788-.645.692.692 0 0 1 .044-.323z" fill="#e6e8f5"/></clipPath><clipPath id="t"><path d="M285.315 138.806a.711.711 0 0 1 .626-.443c1.113-.052 2.246-.113 3.365-.182a.723.723 0 0 1 .77.667.685.685 0 0 1-.047.302.708.708 0 0 1-.615.442c-1.127.07-2.266.132-3.387.185a.722.722 0 0 1-.759-.68.67.67 0 0 1 .047-.291z" fill="#e6e8f5"/></clipPath><clipPath id="u"><path d="M302.16 186.33a.751.751 0 0 0-.749.751l.004 2.55-2.486.002a.75.75 0 0 0 .002 1.501l2.487-.005.004 2.55a.75.75 0 0 0 1.501-.004l-.006-2.548 2.488-.004a.75.75 0 0 0-.002-1.5l-2.488.004-.003-2.549a.751.751 0 0 0-.75-.749z" fill="#e6e8f5" clip-rule="evenodd"/></clipPath><clipPath id="v"><path fill="#e6e8f5" d="M-660.695-254.531h1440v900h-1440z"/></clipPath><clipPath id="w"><path fill="#e6e8f5" d="M292.305 180.469h19v19h-19z"/></clipPath><clipPath id="x"><path fill="#e6e8f5" d="M293.18 181.329h17.974v18.097H293.18z"/></clipPath><clipPath id="y"><path fill="#e6e8f5" d="M297.305 185.469h9v9h-9z"/></clipPath></defs><path d="M204.16-415.67a.751.751 0 0 0-.749.751l.004 2.55-2.486.002a.75.75 0 0 0-.749.751.752.752 0 0 0 .751.75l2.487-.005.004 2.55a.75.75 0 0 0 .751.748.753.753 0 0 0 .75-.752l-.006-2.548 2.488-.004a.75.75 0 0 0 .748-.75.749.749 0 0 0-.75-.75l-2.488.004-.003-2.549a.751.751 0 0 0-.75-.749z" fill="#6681e2" fill-rule="evenodd"/><g clip-path="url(#a)"><path fill="#6681e2" d="M-758.695-856.531h1440v900h-1440z"/></g><path d="M193.175-397.553l.004 2.549-2.487.004a.75.75 0 0 0-.748.75.751.751 0 0 0 .752.75l2.485-.005.005 2.549a.75.75 0 0 0 .75.749.75.75 0 0 0 .749-.751l-.003-2.548 2.487-.005a.75.75 0 0 0 .749-.75.751.751 0 0 0-.752-.749l-2.487.003-.005-2.548a.75.75 0 0 0-.75-.749.75.75 0 0 0-.749.751z" fill="#e6ebfa" fill-rule="evenodd"/><g clip-path="url(#b)"><path fill="#e6ebfa" d="M-864-823H576V77H-864z"/></g><path d="M302.16-230.67a.751.751 0 0 0-.749.751l.004 2.55-2.486.002a.75.75 0 0 0-.749.751.752.752 0 0 0 .751.75l2.487-.005.004 2.55a.75.75 0 0 0 .751.748.753.753 0 0 0 .75-.752l-.006-2.548 2.488-.004a.75.75 0 0 0 .748-.75.749.749 0 0 0-.75-.75l-2.488.004-.003-2.549a.751.751 0 0 0-.75-.749z" fill="#6681e2" fill-rule="evenodd"/><g clip-path="url(#c)"><path fill="#6681e2" d="M-660.695-671.531h1440v900h-1440z"/></g><path d="M204.16 1.33a.751.751 0 0 0-.749.751l.004 2.55-2.486.002a.75.75 0 0 0 .002 1.501l2.487-.005.004 2.55a.75.75 0 0 0 1.501-.004l-.006-2.548 2.488-.004a.75.75 0 0 0-.002-1.5l-2.488.004-.003-2.549a.751.751 0 0 0-.75-.749z" fill="#e6e8f5" fill-rule="evenodd"/><g clip-path="url(#d)"><path fill="#6681e2" d="M-758.695-439.531h1440v900h-1440z"/><g style="isolation:isolate" clip-path="url(#e)"><path fill="#e6e8f5" d="M194.305-4.531h19v19h-19z"/><g clip-path="url(#f)"><path fill="#e6e8f5" d="M195.18-3.671h17.974v18.097H195.18z"/><g clip-path="url(#g)"><path fill="#e6e8f5" d="M199.305.469h9v9h-9z"/><g clip-path="url(#h)"><path fill="#e6e8f5" d="M190.18-8.671h27.974v28.097H190.18z"/></g></g></g></g></g><path d="M193.175 19.447l.004 2.549-2.487.004a.75.75 0 0 0 .004 1.5l2.485-.005.005 2.549a.75.75 0 1 0 1.499-.002l-.003-2.548 2.487-.005a.75.75 0 1 0-.003-1.499l-2.487.003-.005-2.548a.75.75 0 1 0-1.499.002z" fill="#e6e8f5" fill-rule="evenodd"/><g clip-path="url(#i)"><path fill="#e6ebfa" d="M-864-406H576v900H-864z"/><g style="isolation:isolate" clip-path="url(#j)"><path fill="#e6e8f5" d="M184 13h19v19h-19z"/><g clip-path="url(#k)"><path fill="#e6e8f5" d="M184.944 13.696h17.974v18.097h-17.974z"/><g clip-path="url(#l)"><path fill="#e6e8f5" d="M189 18h9v9h-9z"/><g clip-path="url(#m)"><path fill="#e6e8f5" d="M179.944 8.696h27.974v28.097h-27.974z"/></g></g></g></g></g><path d="M114.268 153.006a.707.707 0 0 0-.615-.37 241.622 241.622 0 0 1-43.752-4.533 241.751 241.751 0 0 1-42.102-12.373 241.406 241.406 0 0 1-22.683-10.368.727.727 0 0 0-.974.307.702.702 0 0 0 0 .662.693.693 0 0 0 .292.288 243.425 243.425 0 0 0 22.816 10.43A243.049 243.049 0 0 0 69.6 149.49a242.87 242.87 0 0 0 44.014 4.562.726.726 0 0 0 .735-.707.691.691 0 0 0-.081-.34z" fill="#e6e8f5"/><g clip-path="url(#n)"><path fill="#e6e8f5" d="M-2.963 123.668l83.188-44.655 41.147 76.653-83.187 44.655z"/></g><path d="M129.157 171.377a.699.699 0 0 0-.667-.11 242.954 242.954 0 0 1-47.028 11.212c-4.54.612-9.154 1.1-13.713 1.451a.728.728 0 0 0-.668.773.705.705 0 0 0 .265.504.697.697 0 0 0 .486.147c4.574-.351 9.216-.842 13.796-1.46a244.458 244.458 0 0 0 47.303-11.279.728.728 0 0 0 .453-.916.694.694 0 0 0-.227-.322z" fill="#e6e8f5"/><g clip-path="url(#o)"><path fill="#e6e8f5" d="M59.768 185.6l36.614-46.435 40.35 31.817-36.614 46.434z"/></g><path d="M142.255 197.98a.702.702 0 0 0-.734.099 228.776 228.776 0 0 1-37.854 24.829.727.727 0 0 0-.31.972.686.686 0 0 0 .333.32.7.7 0 0 0 .615-.02 230.174 230.174 0 0 0 38.091-24.987.724.724 0 0 0 .115-1.013.692.692 0 0 0-.256-.2z" fill="#e6e8f5"/><g clip-path="url(#p)"><path fill="#e6e8f5" d="M96.439 226.425l20.35-45.352 32.718 14.681-20.351 45.352z"/></g><path d="M149.824 191.165a.711.711 0 0 0-.757.12c-.834.738-1.689 1.483-2.54 2.215a.723.723 0 0 0-.085 1.015.685.685 0 0 0 .244.184.708.708 0 0 0 .749-.112 240.29 240.29 0 0 0 2.556-2.23.722.722 0 0 0 .07-1.016.67.67 0 0 0-.237-.176z" fill="#e6e8f5"/><g clip-path="url(#q)"><path fill="#e6e8f5" d="M139.434 196.925l5.94-13.237 11.704 5.252-5.94 13.237z"/></g><path d="M271.184 113.734a.699.699 0 0 1 .267-.621 242.954 242.954 0 0 0 34.752-33.61 241.161 241.161 0 0 0 8.6-10.779.728.728 0 0 1 1.012-.147.705.705 0 0 1 .282.494.697.697 0 0 1-.137.49 243.438 243.438 0 0 1-8.653 10.843 244.458 244.458 0 0 1-34.957 33.806.728.728 0 0 1-1.016-.111.694.694 0 0 1-.15-.365z" fill="#e6e8f5"/><g clip-path="url(#r)"><path fill="#e6e8f5" d="M261.665 68.778l58.84-5.883 5.111 51.13-58.84 5.883z"/></g><path d="M295.493 138.413a.702.702 0 0 1 .595-.44 228.776 228.776 0 0 0 44.447-8.596.727.727 0 0 1 .9.48.686.686 0 0 1-.016.462.7.7 0 0 1-.455.414 230.174 230.174 0 0 1-44.727 8.648.724.724 0 0 1-.788-.645.692.692 0 0 1 .044-.323z" fill="#e6e8f5"/><g clip-path="url(#s)"><path fill="#e6e8f5" d="M288.743 141.873l13.216-33.335 46.21 18.32-13.216 33.336z"/></g><path d="M285.315 138.806a.711.711 0 0 1 .626-.443c1.113-.052 2.246-.113 3.365-.182a.723.723 0 0 1 .77.667.685.685 0 0 1-.047.302.708.708 0 0 1-.615.442c-1.127.07-2.266.132-3.387.185a.722.722 0 0 1-.759-.68.67.67 0 0 1 .047-.291z" fill="#e6e8f5"/><g clip-path="url(#t)"><path fill="#e6e8f5" d="M278.564 142.267l4.728-11.925 13.487 5.348-4.727 11.925z"/></g><path d="M302.16 186.33a.751.751 0 0 0-.749.751l.004 2.55-2.486.002a.75.75 0 0 0 .002 1.501l2.487-.005.004 2.55a.75.75 0 0 0 1.501-.004l-.006-2.548 2.488-.004a.75.75 0 0 0-.002-1.5l-2.488.004-.003-2.549a.751.751 0 0 0-.75-.749z" fill="#e6e8f5" fill-rule="evenodd"/><g clip-path="url(#u)"><path fill="#e6e8f5" d="M-660.695-254.531h1440v900h-1440z"/><g style="isolation:isolate" clip-path="url(#v)"><path fill="#e6e8f5" d="M292.305 180.469h19v19h-19z"/><g clip-path="url(#w)"><path fill="#e6e8f5" d="M293.18 181.329h17.974v18.097H293.18z"/><g clip-path="url(#x)"><path fill="#e6e8f5" d="M297.305 185.469h9v9h-9z"/><g clip-path="url(#y)"><path fill="#e6e8f5" d="M288.18 176.329h27.974v28.097H288.18z"/></g></g></g></g></g><path d="M156.2 94.07a.856.856 0 0 0 .07.1h.01a.704.704 0 0 0-.08-.1zm13.55 8.13c.25.04.5.07.74.1.23.03.47.05.7.06-.48-.04-.96-.09-1.44-.16zm2.92.21h-.01c-.48 0-.97-.02-1.45-.05a.037.037 0 0 0 .03.01c.24.01.49.03.74.04.12.01.25.01.38.01.12.01.24.01.37.01.09 0 .19-.01.28-.01a4.202 4.202 0 0 0 .5-.03 7.861 7.861 0 0 1-.84.02zm1.19-.03c.13 0 .26-.01.39-.02a2.298 2.298 0 0 0 .26-.03c-.21.02-.43.04-.65.05zm.96-.08a2.103 2.103 0 0 0 .25-.02 2 2 0 0 0 .24-.04 3.867 3.867 0 0 1-.49.06zm2.94-.54a.237.237 0 0 1-.08.02c-.01 0-.03.01-.04.01-.05.02-.1.03-.15.05.11-.03.22-.05.33-.09-.02 0-.04.01-.06.01zm27.5-16.43h.01c.02-.03.04-.05.05-.07a.434.434 0 0 0-.06.07zm.06-.07a17.9 17.9 0 0 0 1.24-1.55c-.39.53-.8 1.05-1.24 1.55zm1.28-1.61h.01q.165-.225.3-.45c-.1.15-.21.3-.31.45zm.46-.67a.549.549 0 0 0 .07-.09.641.641 0 0 0 .08-.14c-.05.08-.1.16-.15.23zm.15-.23h.01a.437.437 0 0 0 .04-.07.302.302 0 0 0-.05.07zm1.49-2.79a.924.924 0 0 1 .05-.1c.13-.32.27-.65.39-.99-.14.37-.29.74-.44 1.09z" fill="#0828cc"/><path d="M177.9 101.73a.01.01 0 0 0-.01.01.837.837 0 0 0 .15-.04c-.04.01-.09.02-.14.03zm-.34.08c-.31.08-.62.15-.94.22l.57-.12c.1-.03.2-.05.3-.07.05-.02.1-.03.15-.05a.235.235 0 0 1-.08.02z" fill="#0828cc"/><path d="M160.06 114.08l.3.29.01-.01zm4.08-13.52c-.24-.11-.48-.23-.72-.35-.22-.11-.44-.23-.65-.35a17.43 17.43 0 0 1-1.69-1.04c-.22-.15-.44-.3-.65-.46a20.053 20.053 0 0 1-2.15-1.86c-.22-.22-.44-.46-.65-.69h-.01a4.752 4.752 0 0 1-3.22.28 4.805 4.805 0 0 1-2.98-2.23l-2.13-3.6a9.928 9.928 0 0 0-2.09 4.02c0 .02-.01.03-.01.05l-.25 1.45a9.934 9.934 0 0 0 1.33 6.13l8.47 14.31.73-1.84-2.65-2.48 6.65-4.77a8.982 8.982 0 0 1 3.1-6.38l.01-.01c-.15-.06-.29-.12-.44-.18zm41.12-15.23a.138.138 0 0 0-.03.04c.01-.02.03-.03.04-.04.02-.03.04-.05.05-.07a.434.434 0 0 0-.06.07zm.06-.07a17.9 17.9 0 0 0 1.24-1.55c-.39.53-.8 1.05-1.24 1.55zm1.89-2.51c-.05.08-.1.16-.15.23a.549.549 0 0 0 .07-.09c.03-.04.06-.09.09-.14a.437.437 0 0 0 .04-.07.302.302 0 0 0-.05.07zm-.61.9c-.01.02-.03.04-.04.06a.263.263 0 0 0 .05-.06q.165-.225.3-.45c-.1.15-.21.3-.31.45zm2.1-3.69a.924.924 0 0 1 .05-.1c.13-.32.27-.65.39-.99-.14.37-.29.74-.44 1.09zm-52.5 14.11a.856.856 0 0 0 .07.1h.01a.704.704 0 0 0-.08-.1zm21.56 7.69a.237.237 0 0 1-.08.02c-.01 0-.03.01-.04.01a.235.235 0 0 1-.08.02c-.31.08-.62.15-.94.22l.57-.12c.1-.03.2-.05.3-.07.11-.03.22-.05.33-.09-.02 0-.04.01-.06.01zm.14-.03a.01.01 0 0 0-.01.01.837.837 0 0 0 .15-.04c-.04.01-.09.02-.14.03zm-8.15.47c.25.04.5.07.74.1.23.03.47.05.7.06-.48-.04-.96-.09-1.44-.16zm1.46.16a.037.037 0 0 0 .03.01c.24.01.49.03.74.04.12.01.25.01.38.01.1 0 .2 0 .3-.01-.48 0-.97-.02-1.45-.05z" fill="#e6e8f5"/><path d="M229.12 104.61L215.2 81.06c-.09-.15-.18-.3-.29-.45-.05-.07-.09-.14-.15-.21a4.647 4.647 0 0 0-.32-.42l5.58-2.51z" fill="#e6ebfa"/><path d="M220.58 75.03l-.46.21-7.23 3.24a.01.01 0 0 1-.01-.01c-.19-.14-.39-.28-.6-.41a1.59 1.59 0 0 0-.22-.13 5.842 5.842 0 0 0-.65-.35l-.01-.01c-.23-.11-.47-.21-.71-.3a1.456 1.456 0 0 0-.19-.07 5.938 5.938 0 0 0-.75-.23c.01-.05.03-.1.04-.15a20.227 20.227 0 0 0-2-15.1 4.837 4.837 0 0 0 1.46-2.41 9.931 9.931 0 0 1 4.37 3.95l6.91 11.68z" fill="#e6e8f5"/><path d="M202.4 56.5h-.01l3.5 5.91zm6.3 23.46a.924.924 0 0 1 .05-.1c.13-.32.27-.65.39-.99-.14.37-.29.74-.44 1.09zm-2.1 3.69c-.01.02-.03.04-.04.06a.263.263 0 0 0 .05-.06q.165-.225.3-.45c-.1.15-.21.3-.31.45zm.61-.9c-.05.08-.1.16-.15.23a.549.549 0 0 0 .07-.09c.03-.04.06-.09.09-.14a.437.437 0 0 0 .04-.07.302.302 0 0 0-.05.07zm-1.89 2.51a17.9 17.9 0 0 0 1.24-1.55c-.39.53-.8 1.05-1.24 1.55zm-.06.07a.138.138 0 0 0-.03.04c.01-.02.03-.03.04-.04.02-.03.04-.05.05-.07a.434.434 0 0 0-.06.07zm-27.36 16.4a.01.01 0 0 0-.01.01.837.837 0 0 0 .15-.04c-.04.01-.09.02-.14.03zm-.14.03a.237.237 0 0 1-.08.02c-.01 0-.03.01-.04.01a.235.235 0 0 1-.08.02c-.12.04-.24.07-.37.1.1-.03.2-.05.3-.07.11-.03.22-.05.33-.09-.02 0-.04.01-.06.01zm-6.55.6a.037.037 0 0 0 .03.01c.24.01.49.03.74.04.12.01.25.01.38.01.1 0 .2 0 .3-.01-.48 0-.97-.02-1.45-.05zm-1.46-.16c.25.04.5.07.74.1.23.03.47.05.7.06-.48-.04-.96-.09-1.44-.16zm-5.61-1.64c.14.06.28.13.43.19l.01-.01c-.15-.06-.29-.12-.44-.18zm-7.94-6.49a.856.856 0 0 0 .07.1h.01a.704.704 0 0 0-.08-.1zm69.05 67.76l-.24.36.52-.31z" fill="#0828cc"/><path fill="#fff" d="M221.8 76.48v.01l-.25.18.25-.19z"/><path d="M230.92 106.19l-.34.33.7.72zm-10.39-31.25l-.41.3.46-.21zm1.02 1.73l.25-.18v-.01zm30.27 6.45l-.01.01-12.57-16.67 12.58 16.66zM136 135l-.35.5.38-.49zm28.58-34.26l-.01.01a1.07 1.07 0 0 0 .19.07 1.424 1.424 0 0 1-.18-.08z" fill="#0828cc"/><path d="M61.29 47.89l-.01.8a1.502 1.502 0 0 0 0 .3l1-.03v-.21a1.495 1.495 0 0 1 .35-.67l.02-.02zm1.62.2a.486.486 0 0 0 .33.58.771.771 0 0 0 .15.02.504.504 0 0 0 .48-.34l.04-.14zm98.75 61.36c.02.07.03.14.05.21l.13-.34zm69.26-3.26l-.34.33.7.72zm-9.37-29.52l.25-.18v-.01zm33.85 2.39c.26-.33.51-.67.78-1.05q-.405.555-.78 1.05z" fill="#0828cc"/><path d="M168.56 148.86l-5.48 6.75c-.04.05-4.04 4.92-9.69 5.29a11.681 11.681 0 0 1-7.54-2.32.138.138 0 0 0-.04-.03c-.59-.45-1.19-.97-1.81-1.55-8.42-7.98-13.11-11.06-15-12l6.6-9.42.05-.08.38-.49 5.04 2.29 5.06 2.51a6.855 6.855 0 0 0 2.48.85h.02A7.562 7.562 0 0 0 154 140l9.93 5.95.17.11.07.04zm90.53-75.21c-.85 1.35-1.62 2.52-2.32 3.53-.21.28-.4.56-.59.82v.01c-.27.38-.52.72-.78 1.05a.61.61 0 0 1-.07.1c-.16.21-.31.41-.46.6-.32.42-.63.8-.91 1.14-.28.33-.53.61-.77.87s-.45.49-.65.68c-.15.15-.28.28-.4.38-.12.12-.23.21-.32.29l-.01.01-12.57-16.67c.41-1.57.33-5.75-7.45-13.07l6.89-9.99c3.42 2.44 16.31 11.7 18.21 13.49 2.98 2.82 7.23 8.74 2.2 16.76z" fill="#e6e8f5"/><path d="M161.84 109.32l-.13.34c-.02-.07-.03-.14-.05-.21z" fill="#fff"/><path fill="#0828cc" d="M160.37 114.36l-.01.01-.3-.29.31.28z"/><path d="M288.27 202.95c-4.29-2.08-4.08-7.48-4.07-7.8-1.11-28.11-15.38-41.61-15.99-42.17l-11.73-8.79a12.033 12.033 0 0 0 .04-12.33l-17.91-30.28 15.73-15.11-1.32-1.75c1.28-1.06 3.79-3.69 7.76-10.01 6.01-9.57.24-16.66-2.51-19.27-2.21-2.09-17.56-13.05-19.14-14.18l-.01-.01c-5.81-6.99-11.61-7.22-12.76-7.19-1.01-.23-4.32-.23-10.95 6.14-3.25 3.12-4.38 5.47-3.45 7.18.94 1.75 3.57 1.77 4.22 1.61.19-.04.47-.14.82-.26a11.312 11.312 0 0 1 2.65-.69 5.936 5.936 0 0 0-2.16 1.43 2.251 2.251 0 0 0-.67 2.28c.55 1.87 3.69 2.76 4.64 3l.13.03 8.5-.23c4.48 4.14 6.25 7.07 6.91 8.94l-.27-.36-14.57 10.62-6.81-11.51a12.107 12.107 0 0 0-6.03-5.07 4.817 4.817 0 0 0-.59-1.54l-5.09-8.61a4.841 4.841 0 0 0-2.98-2.23 4.771 4.771 0 0 0-3.12.23 20.47 20.47 0 0 0-25.73-4.15l-17.43 10.31a20.394 20.394 0 0 0-7.16 27.9l.05.09a4.875 4.875 0 0 0-.94 6.09l1.89 3.19a11.264 11.264 0 0 0-2.04 2.9 9.95 9.95 0 0 0-3.37-3.89 8.696 8.696 0 0 0-9.63-.07c-1.99 1.4-3.1 3.57-4.08 5.49l-.2.38c-1.47 2.86-3.56 6.45-6.68 8.75-3.03 2.24-6.8 2.87-9.61 1.62-4.96-2.19-6.09-8.99-6.16-14.3l-.02-1.33c-.05-5.83-.12-12.43-4.37-16.95-5.14-5.45-13.86-4.93-19.62-4.58-5.95.36-13.22.17-16.69-4.55-2.63-3.56-2.29-8.51-1.67-13.69l-.17-.02-.04.14a.504.504 0 0 1-.48.34.771.771 0 0 1-.15-.02.486.486 0 0 1-.33-.58l-.26-.03-.02.02a1.495 1.495 0 0 0-.35.67v.21l-1 .03a1.502 1.502 0 0 1 0-.3l.01-.8-.19-.02c-.66 5.58-1.04 11.39 2.23 15.83 4.33 5.88 12.58 6.17 19.29 5.77 6.89-.42 13.4-.45 17.25 3.64 3.45 3.66 3.51 9.38 3.56 14.92l.02 1.34c.12 8.88 2.86 14.76 7.94 17.01a10.672 10.672 0 0 0 4.33.87 14.105 14.105 0 0 0 8.28-2.83c3.62-2.67 5.95-6.63 7.57-9.79l.2-.38c.9-1.77 1.75-3.43 3.14-4.41a5.707 5.707 0 0 1 6.23.11 7.819 7.819 0 0 1 3.23 5.99l.54-.03a12.074 12.074 0 0 0 1.64 7.02l9.25 15.65-7.08 17.83 3.02 1.9a5.3 5.3 0 0 1-4.64-.24l-10.91-5.41a58.486 58.486 0 0 0-7.64-9.09c-.53-.52-1.06-1.04-1.64-1.65-.77-.79-1.92-1.8-3.1-1.39-1.33.47-1.49 2.22-1.65 3.91l-.03.38a4.348 4.348 0 0 0 .73 2.73 28.183 28.183 0 0 1-4.35-1.8c-.72-.46-4.43-2.64-6.68-1.21q-1.755 1.125-1.35 4.37c.9 7.21 5.23 9.99 5.38 10.09l9.61 6.5.96.65.15.05c.01 0 .21.08.63.28 1.61.79 6.4 3.55 15.05 11.73 3.3 3.13 6.81 4.72 10.43 4.72.28 0 .55-.01.83-.03 6.52-.44 10.93-5.81 11.12-6.04l5.62-6.93 3.22 2.02 1.06-1.69 11.08 18.72-8.64 17.17-.06.15c-.17.54-4.08 13.67 3.64 47.39.36 1.59-.36 2.64-1.57 4.22a11.831 11.831 0 0 0-1.89 3.07c-1.24 3.27 1.49 7.91 1.81 8.43l.13.17a5.33 5.33 0 0 0 3.95 1.28c2.45 0 6.16-.94 11.58-4.39 4.8-3.06 7.38-6.09 7.65-9a4.788 4.788 0 0 0-.99-3.47l-1.48-6.47c-4.07-17.8 5.44-32.17 5.54-32.32l20.89-31.18c17.8 3.32 27.23 12.15 32.01 19.02 6.33 9.1 7.26 18.23 6.71 21.22-1.06 5.84 5.38 9.02 8.85 9.86 12.66 4.29 16.67.91 17.08.51l.18-.17.07-.22c.12-.35 2.89-8.55-2.81-11.3zm-40.59-82.12l7.12 12.04a10.087 10.087 0 0 1 .07 10.12l-.26.14-15.8-12.17-.1-.07a23.527 23.527 0 0 0 .02-6.96.148.148 0 0 1-.01-.07 23.197 23.197 0 0 0-2.92-7.95l-1.82-3.08-1.72-5.15 5.13-4.77zm-89.72-8.72l3.7-2.66.18-.13-.13.34a8.878 8.878 0 0 0 .99 2.45l5.74 9.7-8.08-7.44-.3-.29v-.01zm6.47-1.02a6.98 6.98 0 0 1 2.41-9.53c.48.14.96.27 1.45.37.24.06.48.11.73.15l.73.12c.48.07.96.12 1.44.16h.02c.48.03.97.05 1.45.05h.01c.28 0 .56-.01.84-.02.12 0 .24 0 .35-.01.22-.01.44-.03.65-.05l.31-.03a3.867 3.867 0 0 0 .49-.06 3.039 3.039 0 0 0 .42-.06.687.687 0 0 0 .13-.02 2.883 2.883 0 0 0 .29-.04c.07-.01.15-.03.23-.04.06-.01.13-.03.19-.04.02 0 .03-.01.05-.01.32-.07.63-.14.94-.22a.235.235 0 0 0 .08-.02c.01 0 .03-.01.04-.01a.237.237 0 0 0 .08-.02c.02 0 .04-.01.06-.01h.01c.01 0 .03 0 .03-.01h.03a.01.01 0 0 1 .01-.01c.05-.01.1-.02.14-.03.05-.01.1-.03.15-.04.59-.17 1.18-.36 1.76-.58h.01c.42-.16.83-.34 1.24-.52l.01-.01c.41-.19.81-.39 1.21-.61.2-.11.4-.22.6-.34l17.43-10.31a18.918 18.918 0 0 0 1.28-.83c.3-.2.59-.42.87-.64.22-.17.44-.35.65-.53a.138.138 0 0 1 .04-.03c.21-.18.42-.37.62-.55.21-.2.42-.4.62-.6.24-.24.47-.49.7-.74a.138.138 0 0 1 .03-.04.434.434 0 0 1 .06-.07c.44-.5.85-1.02 1.24-1.55.01-.02.03-.04.04-.06.1-.15.21-.3.31-.45.05-.07.1-.14.15-.22.05-.07.1-.15.15-.23a.302.302 0 0 1 .05-.07l.36-.6c.05-.08.09-.16.14-.24a.03.03 0 0 1 .01-.02c.08-.14.16-.28.23-.42a.035.035 0 0 0 .01-.02c.1-.18.19-.36.29-.55.02-.04.04-.09.06-.13.12-.25.23-.49.34-.74.15-.35.3-.72.44-1.09h.01a6.896 6.896 0 0 1 4.32 3.21l20.61 34.84a21.27 21.27 0 0 1-7.47 29.1l-12.48 7.38a21.3 21.3 0 0 1-29.1-7.47l-4.37-7.39-7.1-12.01zm50.01-31.11l5.58-2.51 9.1 27.14-13.92-23.55c-.09-.15-.18-.3-.29-.45-.05-.07-.09-.14-.15-.21a4.647 4.647 0 0 0-.32-.42zm16.14 26.54l.34-.33.36 1.05zm-.64-53.97l-8.13.22c-1.47-.38-2.94-1.14-3.08-1.59-.01-.05.06-.18.21-.34a5.596 5.596 0 0 1 2.98-1.39c.76-.18 1.55-.36 1.69-1.18.15-.85-.63-1.34-1.05-1.6a4.491 4.491 0 0 0-2.46-.66 11.432 11.432 0 0 0-3.78.84c-.25.09-.45.16-.57.19-.41.07-1.76-.07-2.04-.62-.06-.13-.52-1.32 3.09-4.78 5.51-5.29 8.26-5.65 8.93-5.65a.92.92 0 0 1 .16.01l.22.08.22-.02c.22-.02 5.36-.3 10.85 6zm1.85.84l6.89-9.99c3.42 2.44 16.31 11.7 18.21 13.49 2.98 2.82 7.23 8.74 2.2 16.76-.85 1.35-1.62 2.52-2.32 3.53-.2.29-.39.56-.59.82v.01c-.27.38-.52.72-.78 1.05a.61.61 0 0 1-.07.1c-.16.21-.31.41-.46.6-.32.42-.63.8-.91 1.14-.28.33-.53.61-.77.87s-.45.49-.65.68c-.15.15-.28.28-.4.38-.12.12-.23.21-.32.29l-.01.01-12.57-16.67c.41-1.57.33-5.75-7.45-13.07zm-9.99 23.09l.56-.4.82-.6 13.13-9.57 14.96 19.82.4.53-14.1 13.55-.75.71-.74.71-4.53 4.35-9.75-29.09-.25.18zm-12.55-17.17a9.931 9.931 0 0 1 4.37 3.95l6.91 11.68.05.09-.46.21-7.23 3.24a.01.01 0 0 1-.01-.01c-.19-.14-.39-.28-.6-.41a1.59 1.59 0 0 0-.22-.13 5.842 5.842 0 0 0-.65-.35l-.01-.01c-.23-.11-.47-.21-.71-.3a1.456 1.456 0 0 0-.19-.07c-.25-.09-.5-.16-.75-.23.01-.05.03-.1.04-.15a20.227 20.227 0 0 0-2-15.1 4.837 4.837 0 0 0 1.46-2.41zm-9.09-12.58a2.822 2.822 0 0 1 1.76 1.31l5.02 8.48.07.12a2.991 2.991 0 0 1 .35 2 2.854 2.854 0 0 1-.61 1.29l-.92-1.55-.61-1.03-.59-1-4.92-8.32c-.17-.29-.35-.58-.54-.86-.1-.16-.21-.31-.32-.47a2.648 2.648 0 0 1 1.31.03zM155.4 52.9l17.43-10.31a18.238 18.238 0 0 1 9.28-2.55 18.78 18.78 0 0 1 4.63.59 18.23 18.23 0 0 1 9.69 6.19l.09.11c.35.44.68.89.98 1.35.17.26.34.51.49.77l4.4 7.45h.01l3.49 5.91a18.229 18.229 0 0 1 1.96 13.91c-.07.26-.14.53-.22.78l-.11.33c-.17.53-.36 1.06-.58 1.57s-.46 1-.72 1.49c-.13.25-.26.49-.41.72a7.408 7.408 0 0 1-.44.7 5.986 5.986 0 0 1-.46.66c-.01.01-.01.02-.02.03a6.4 6.4 0 0 1-.39.52c-.05.07-.1.13-.15.19-.01.01-.02.03-.04.04a5.624 5.624 0 0 1-.44.53 6.022 6.022 0 0 1-.42.46c-.11.13-.22.24-.34.36-.26.26-.52.51-.8.76-.21.19-.43.38-.65.55-.23.2-.47.38-.71.55a16.033 16.033 0 0 1-1.52 1.01L182 97.88c-.36.21-.72.41-1.08.59q-.555.285-1.11.51l-.01.01c-.19.07-.38.15-.57.22q-.285.12-.57.21c-.12.05-.25.09-.38.13-.06.02-.12.04-.19.06-.19.06-.39.12-.59.17-.38.1-.77.2-1.15.28-.2.04-.39.07-.59.11a14.568 14.568 0 0 1-1.48.18 2.58 2.58 0 0 1-.29.03 19.197 19.197 0 0 1-2.01.02 4.283 4.283 0 0 1-.71-.04c-.24-.02-.48-.05-.72-.07l-.3-.03c-.14-.02-.28-.04-.41-.07l-.71-.12c-.24-.05-.47-.1-.71-.16-.11-.02-.22-.04-.33-.07-.12-.03-.25-.07-.37-.11-.38-.1-.76-.22-1.13-.35-.26-.08-.51-.18-.76-.28s-.5-.2-.75-.32c-.24-.1-.48-.22-.72-.34a.168.168 0 0 0-.05-.02c-.46-.23-.91-.49-1.35-.76a17.219 17.219 0 0 1-1.95-1.39c-.01-.01-.01-.01-.02-.01a31 31 0 0 1-.59-.51c-.21-.18-.42-.38-.62-.58-.18-.17-.35-.35-.52-.53-.11-.12-.22-.23-.32-.35l-.09-.1c-.14-.15-.27-.31-.4-.47a4.46 4.46 0 0 1-.33-.43l-.39-.51c-.17-.24-.33-.48-.49-.73-.15-.21-.27-.42-.4-.63l-3.77-6.37-4.12-6.97-.01-.02a18.392 18.392 0 0 1 6.46-25.16zm-7.35 31.34a2.889 2.889 0 0 1 .27-3.3l3.03 5.13 1.02 1.72 2.75 4.65c.15.24.3.49.45.73.09.12.17.25.26.37.01.01.01.03.03.04.11.17.23.33.34.49a.704.704 0 0 1 .08.1h-.01a2.764 2.764 0 0 1-1.37-.01 2.863 2.863 0 0 1-1.76-1.32l-2.37-4.01-.52-.86a.21.21 0 0 0-.08.06.504.504 0 0 1 .08-.07l-.51-.86zm.22 17.67a9.934 9.934 0 0 1-1.33-6.13 8 8 0 0 1 .25-1.45c0-.02.01-.03.01-.05a9.928 9.928 0 0 1 2.09-4.02l2.13 3.6a4.805 4.805 0 0 0 2.98 2.23 4.752 4.752 0 0 0 3.22-.28h.01c.21.23.43.47.65.69a20.053 20.053 0 0 0 2.15 1.86c.21.16.43.31.65.46a17.43 17.43 0 0 0 1.69 1.04c.21.12.43.24.65.35.24.12.48.24.72.35.15.06.29.12.44.18a1.424 1.424 0 0 0 .18.08 1.07 1.07 0 0 1-.19-.07 8.982 8.982 0 0 0-3.1 6.38l-6.65 4.77 2.65 2.48-.73 1.84zm-21.6 41.99l-9.71-6.57c-.15-.1-3.72-2.45-4.5-8.67-.16-1.28 0-2.15.44-2.43a1.303 1.303 0 0 1 .72-.17 9.067 9.067 0 0 1 3.91 1.43c1.53.77 5.25 2.55 6.77 2.19a1.393 1.393 0 0 0 1.08-.84c.28-.69-.12-1.29-.51-1.86a3.17 3.17 0 0 1-.75-1.97l.04-.39a9.406 9.406 0 0 1 .34-2.13 4.466 4.466 0 0 1 .97.82c.59.62 1.13 1.15 1.67 1.68a55.638 55.638 0 0 1 7.26 8.6zm36.41 11.71c-.04.05-4.04 4.92-9.69 5.29a11.681 11.681 0 0 1-7.54-2.32.138.138 0 0 0-.04-.03c-.59-.45-1.19-.97-1.81-1.55-8.42-7.98-13.11-11.06-15-12l6.6-9.42.05-.08.35-.5.03.01 5.04 2.29 5.06 2.51a6.855 6.855 0 0 0 2.48.85h.02A7.562 7.562 0 0 0 154 140l9.93 5.95.17.11.07.04 4.39 2.76zm9.77-6.42L162 142.38l-8.36-5.25h-.01l-2.44-1.53 7.85-19.74 12.87 11.82.01.01 6.61 11.18-.47 2.03zm2.89-.84l4.19-6.67.07-.32 3.31 5.59a22.978 22.978 0 0 0 9.04 8.65l-5.66 11.25zm23.6 86.34l.07.29.21.21a2.695 2.695 0 0 1 .61 2.15c-.17 1.54-1.48 4.09-6.74 7.44-9.06 5.78-12.49 3.79-12.95 3.46-.76-1.29-2.31-4.61-1.57-6.55a10.64 10.64 0 0 1 1.6-2.57c1.19-1.54 2.53-3.29 1.94-5.87-1.4-6.12-2.41-11.56-3.12-16.35a18.805 18.805 0 0 0 5.62.83 23.94 23.94 0 0 0 11.88-3.35 43.549 43.549 0 0 0 .91 13.6zm60.49-52.78c-4.82-6.93-14.13-15.75-31.35-19.45-.48-.11-.96-.21-1.46-.3-.37-.07-.75-.14-1.13-.21l-.36-.07-.52.31-1.29 1.93-1.29 1.92-18.8 28.05a46.04 46.04 0 0 0-6.44 17.77c-.54.35-1.08.67-1.6.95-7.14 3.93-12.84 3.03-15.45 2.24-.45-.14-.81-.28-1.07-.39-2.53-18.61-.49-26.88-.26-27.7l8.02-15.93.53-1.06.54-1.07 6.26-12.44a22.403 22.403 0 0 0 3.38 1.15 24.012 24.012 0 0 0 5.86.74 22.978 22.978 0 0 0 11.75-3.23l12.48-7.38a23.15 23.15 0 0 0 10.76-14.59l15.32 11.47.81.6.8.6 11.57 8.66c.65.63 10.68 10.56 14.17 30.14a13.236 13.236 0 0 1-1.73 1.08c-3.65 1.9-8.44 2.53-11.88 2.71-1.75.1-3.15.09-3.89.06a41.945 41.945 0 0 0-3.73-6.56zm29.45 31.4c-.85.52-4.81 2.34-14.97-1.1-.09-.02-8.43-2.14-7.44-7.58.51-2.81-.1-8.21-2.44-14.14.15.01.32.01.49.01 3.65 0 11.32-.43 16.5-3.7a75.603 75.603 0 0 1 .78 8.33c-.01.29-.3 6.96 5.2 9.62 3.62 1.74 2.27 7.24 1.88 8.56z" fill="#090f94"/><path d="M192.35 155.6l-5.66 11.25-10.95-18.5 4.19-6.67.07-.32 3.31 5.59a22.978 22.978 0 0 0 9.04 8.65z" fill="#e6e8f5"/><path d="M160.36 114.37l.01-.01-.31-.28v-.01l-2.1-1.96 3.7-2.66c.02.07.03.14.05.21a8.878 8.878 0 0 0 .99 2.45l5.74 9.7z" fill="#e6ebfa"/><path d="M194.46 66.63a16.657 16.657 0 0 0-16.21-12.94 17.018 17.018 0 0 0-3.74.42 16.655 16.655 0 1 0 19.95 12.52zm-7.72 14.54a1.004 1.004 0 0 1-1.42.05 1.008 1.008 0 0 1-.04-1.42 12.893 12.893 0 0 0 .74-16.74.997.997 0 1 1 1.57-1.23 14.874 14.874 0 0 1-.85 19.34z" fill="#e6e8f5"/><path d="M196.41 66.19a18.647 18.647 0 1 0 .47 4.15 18.528 18.528 0 0 0-.47-4.15zm-34.42 7.87a16.676 16.676 0 0 1 12.52-19.95 17.018 17.018 0 0 1 3.74-.42 16.655 16.655 0 1 1-16.26 20.37z" fill="#090f94"/><path d="M229.12 104.61L215.2 81.06c-.09-.15-.18-.3-.29-.45-.05-.07-.09-.14-.15-.21a4.647 4.647 0 0 0-.32-.42l5.58-2.51z" fill="#e6e8f5"/><path d="M177.56 101.81c-.31.08-.62.15-.94.22l.57-.12c.1-.03.2-.05.3-.07.05-.02.1-.03.15-.05a.235.235 0 0 1-.08.02zm-12.98-1.07l-.01.01a1.07 1.07 0 0 0 .19.07 1.424 1.424 0 0 1-.18-.08zm-14.41-12.71a.21.21 0 0 1 .08-.06v-.01a.504.504 0 0 0-.08.07zm6.03 6.04a.856.856 0 0 0 .07.1h.01a.704.704 0 0 0-.08-.1z" fill="#0828cc"/><path d="M148.96 78.08h-.01l4.12 6.97zm9.64 15.8c-.16-.2-.33-.39-.48-.59a4.46 4.46 0 0 0 .33.43c.13.16.26.32.4.47zm-8.43-5.85a.21.21 0 0 1 .08-.06v-.01a.504.504 0 0 0-.08.07z" fill="#0828cc"/><path d="M175.86 102.16c.04 0 .08-.01.12-.01a.68.68 0 0 1 .14-.02.037.037 0 0 1 .03-.01 2.883 2.883 0 0 1-.29.04z" fill="#e6ebfa"/><path d="M254.87 142.99l-.26.14-15.8-12.17-.1-.07a23.527 23.527 0 0 0 .02-6.96.148.148 0 0 1-.01-.07 23.197 23.197 0 0 0-2.92-7.95l-1.82-3.08-1.72-5.15 5.13-4.77 10.29 17.92 7.12 12.04a10.087 10.087 0 0 1 .07 10.12zm-59.28 69.82c-7.14 3.93-12.84 3.03-15.45 2.24zm83.74-27.11c-3.65 1.9-8.44 2.53-11.88 2.71z" fill="#e6e8f5"/><path d="M219.5 145.75a1.004 1.004 0 0 0-1.37-.35 21.4 21.4 0 0 1-23.95-1.6 1.011 1.011 0 0 0-1.41.17 1 1 0 0 0 .17 1.4 23.383 23.383 0 0 0 14.43 4.95 23.133 23.133 0 0 0 11.78-3.2 1.004 1.004 0 0 0 .35-1.37zm0 0a1.004 1.004 0 0 0-1.37-.35 21.4 21.4 0 0 1-23.95-1.6 1.011 1.011 0 0 0-1.41.17 1 1 0 0 0 .17 1.4 23.383 23.383 0 0 0 14.43 4.95 23.133 23.133 0 0 0 11.78-3.2 1.004 1.004 0 0 0 .35-1.37zm0 0a1.004 1.004 0 0 0-1.37-.35 21.4 21.4 0 0 1-23.95-1.6 1.011 1.011 0 0 0-1.41.17 1 1 0 0 0 .17 1.4 23.383 23.383 0 0 0 14.43 4.95 23.133 23.133 0 0 0 11.78-3.2 1.004 1.004 0 0 0 .35-1.37z" fill="#fff"/><path d="M189.03 137.93l-18.45-31.2a1 1 0 0 0-1.72 1.02l18.45 31.2a.993.993 0 0 0 .86.49.936.936 0 0 0 .51-.14.987.987 0 0 0 .35-1.37zm0 0l-18.45-31.2a1 1 0 0 0-1.72 1.02l18.45 31.2a.993.993 0 0 0 .86.49.936.936 0 0 0 .51-.14.987.987 0 0 0 .35-1.37zm0 0l-18.45-31.2a1 1 0 0 0-1.72 1.02l18.45 31.2a.993.993 0 0 0 .86.49.936.936 0 0 0 .51-.14.987.987 0 0 0 .35-1.37zm0 0l-18.45-31.2a1 1 0 0 0-1.72 1.02l18.45 31.2a.993.993 0 0 0 .86.49.936.936 0 0 0 .51-.14.987.987 0 0 0 .35-1.37zm0 0l-18.45-31.2a1 1 0 0 0-1.72 1.02l18.45 31.2a.993.993 0 0 0 .86.49.936.936 0 0 0 .51-.14.987.987 0 0 0 .35-1.37zm-21.31-38.2c.12.04.25.08.37.11.11.03.22.05.33.07-.23-.05-.47-.11-.7-.18zm2.12.46c.13.03.27.05.41.07l.3.03c-.23-.03-.47-.06-.71-.1zm2.14.21a19.197 19.197 0 0 0 2.01-.02 2.58 2.58 0 0 0 .29-.03c.1-.01.2-.03.29-.04a18.637 18.637 0 0 1-2.59.09zm3.06-.15c.24-.03.49-.04.72-.08.2-.04.39-.07.59-.11.38-.08.77-.18 1.15-.28a17.215 17.215 0 0 1-2.46.47zm2.46-.47c.2-.05.4-.11.59-.17.07-.02.13-.04.19-.06.13-.04.26-.08.38-.13-.38.13-.77.25-1.16.36z" fill="#0828cc"/><path d="M219.15 147.12a23.133 23.133 0 0 1-11.78 3.2 23.383 23.383 0 0 1-14.43-4.95 1 1 0 0 1-.17-1.4 1.011 1.011 0 0 1 1.41-.17 21.4 21.4 0 0 0 23.95 1.6 1 1 0 0 1 1.02 1.72zm-30.47-7.82a.936.936 0 0 1-.51.14.993.993 0 0 1-.86-.49l-18.45-31.2a1 1 0 0 1 1.72-1.02l18.45 31.2a.987.987 0 0 1-.35 1.37z" fill="#e6e8f5"/><path d="M194 207a1 1 0 0 1-1-1c0-9.264 5.986-16.354 6.24-16.65a1 1 0 0 1 1.52 1.3c-.058.068-5.76 6.843-5.76 15.35a1 1 0 0 1-1 1z" fill="#090f94"/><path d="M126.58 146.2l-.15-.05.68.46.1-.13c-.42-.2-.62-.28-.63-.28z" fill="#0828cc"/><path d="M66.42 45.55a1.56 1.56 0 0 1-1.81 1.1l-.12-.03c-.02 0-.04-.01-.07-.01l-.51 1.6-.04.14a.504.504 0 0 1-.48.34.771.771 0 0 1-.15-.02.486.486 0 0 1-.33-.58.09.09 0 0 1 .01-.05l.3-.93.3-.91a.9.9 0 0 1 .19-.36.665.665 0 0 1 .33-.21 1.248 1.248 0 0 1 .7.02.583.583 0 0 0 .71-.36.502.502 0 0 1 .97.26z" fill="#090f94"/><path d="M66.26 40.22a.501.501 0 0 0-.7-.03 2.055 2.055 0 0 1-.74.37 3.662 3.662 0 0 0-.94.45 2 2 0 0 0-.77 1.9 3.752 3.752 0 0 0 .12.48c.02.07.05.14.07.22a3.236 3.236 0 0 1-.55 2.35l-.13.2a6.308 6.308 0 0 0-.4.72.035.035 0 0 0-.01.02c0-.01-.01-.02-.02-.04a.787.787 0 0 0-.72-.35c-.44-.01-.93-.19-1.03-.53a1.298 1.298 0 0 1-.02-.45 3.247 3.247 0 0 0-.05-.74.51.51 0 0 0-.62-.35.5.5 0 0 0-.35.61 2 2 0 0 1 .02.44 2.385 2.385 0 0 0 .06.78 1.945 1.945 0 0 0 1.81 1.23v.39l-.01.8a1.502 1.502 0 0 0 0 .3l1-.03v-.21a1.495 1.495 0 0 1 .35-.67l.02-.02a3.279 3.279 0 0 0 .48-.78c.03-.06.06-.12.09-.17.08-.14.17-.28.25-.41l.14-.22a6.113 6.113 0 0 0 .43-.85 3.682 3.682 0 0 0 .23-2.27 2.756 2.756 0 0 1-.08-.27 1.89 1.89 0 0 1-.09-.34 1.01 1.01 0 0 1 .38-.94 2.68 2.68 0 0 1 .68-.31 3.139 3.139 0 0 0 1.08-.57.504.504 0 0 0 .02-.71z" fill="#090f94"/></svg>