<svg width="125" height="128" xmlns="http://www.w3.org/2000/svg"><g transform="translate(1)" fill="none" fill-rule="evenodd"><path fill="#0828CC" fill-rule="nonzero" d="M110.5 64.5V62h-1v2.5H107v1h2.5V68h1v-2.5h2.5v-1zm-95 9V71h-1v2.5H12v1h2.5V77h1v-2.5H18v-1z"/><circle stroke="#0828CC" stroke-width="2" cx="120.5" cy="42.5" r="2.5"/><circle stroke="#0828CC" stroke-width="2" cx="2.5" cy="23.5" r="2.5"/><circle fill-opacity=".1" fill="#090F94" fill-rule="nonzero" cx="54" cy="40" r="32"/><path d="M106.116 106.366L86.777 79.393c-1.014-1.454-2.752-2.109-4.346-1.963l-4.852-6.762c9.488-7.197 15.644-18.54 15.644-31.408C93.223 17.594 75.695 0 54.112 0 32.528 0 15 17.594 15 39.26c0 21.666 17.528 39.26 39.112 39.26 7.098 0 13.761-1.89 19.483-5.234l4.925 6.907c-.652 1.526-.58 3.344.507 4.798l19.339 26.973c.941 1.309 2.39 2.036 3.91 2.036.942 0 1.956-.29 2.826-.872 2.028-1.6 2.535-4.58 1.014-6.762zM89.529 39.26c0 19.63-15.934 35.625-35.49 35.625-19.556 0-35.49-15.995-35.49-35.625 0-19.63 15.934-35.625 35.49-35.625 19.556 0 35.49 15.995 35.49 35.625z" fill="#090F94" fill-rule="nonzero"/><ellipse fill-opacity=".1" fill="#090F94" fill-rule="nonzero" cx="58.5" cy="124" rx="46.5" ry="4"/><g fill-rule="nonzero"><path d="M43.423 54.924c1.356-2.255 3.556-2.251 4.906-.006l7.57 12.587L69.962 90.89c1.356 2.254.342 4.082-2.255 4.082H24.05c-2.602 0-3.613-1.826-2.256-4.082l21.63-35.966z" stroke="#FFF" fill="#090F94"/><path fill="#FFF" d="M44.785 84.452h2.973v3.006h-2.973zm0-16.532h2.973v13.526h-2.973z"/></g></g></svg>