<svg xmlns="http://www.w3.org/2000/svg" viewBox="0 0 716.6 307.5"><path d="M261 20.9c.4-6.9 6.2-13 14.1-12.5 2.2.1 4.8.3 8.6 3.2 17.4 15.1 27.6 41.8 24.5 64.9-.1 1.1-1.5 1.1-1.8 0-4.9-16.5-20.9-35.6-35.2-41.2-6.7-2.7-10.6-7.7-10.2-14.4m123.3-1.3c0-10.5-8.8-19.9-21.7-19.6-24.4.6-57.3 63.4-38.5 120.5.2 1.2 1.4.9 1.4-.2 2.6-39.7 26.5-70.8 47.9-82.9 8.6-4.8 10.9-10.6 10.9-17.8M250.4 77.1c.5 7.9 7.2 11.8 13.3 11.8 13.9 0 31.4 6.6 41.7 15.1.8.7 1 .5.4-1.5-4.2-14.5-26.4-38.9-42.5-38.9-8.4.1-13.4 7.1-12.9 13.5m149.7 0c-.5 7.9-7.2 11.8-13.3 11.8-13.9 0-31.4 6.6-41.7 15.1-.8.7-1 .5-.4-1.5 4.2-14.5 26.4-38.9 42.5-38.9 8.4.1 13.3 7.1 12.9 13.5M1 243.9l1.4-1.6c1.6-1.9 3.5-1.9 5.6-.2 4.9 4.2 16.6 11.9 33.2 11.9 14.2 0 26.9-7.5 26.9-22 0-29.7-64.3-21.3-64.3-59.3 0-20.8 17.5-31.5 37.4-31.5 17 0 27.6 6.5 31.8 10 1.9 1.4 2.3 3.3.9 5.4l-1.4 1.9c-1.6 2.1-3.5 2.1-5.6.5-4.2-3.3-13.1-8.2-26.4-8.2-13.3 0-26.4 6.1-26.4 21.3 0 30.4 64.2 21.3 64.2 60 0 18.7-15.9 31.5-37.4 31.5-21 0-34.3-9.3-39.5-14.2-1.8-1.7-1.8-3.6-.4-5.5zm107.5-96c0-2.6 1.4-4 4-4h1.9c2.6 0 4 1.4 4 4V158c0 5.4-.7 9.3-.7 9.3h.5s9.6-26.2 42.1-26.2c31.3 0 50.5 25 50.5 61.2 0 37.1-21.7 61.2-51.9 61.2-30.4 0-40.9-26.4-40.9-26.4h-.5s.9 4.2.9 10.3v56.1c0 2.6-1.4 4-4 4h-1.9c-2.6 0-4-1.4-4-4V147.9zM158.7 254c22.9 0 41.6-18.9 41.6-51.6 0-31.5-16.8-51.6-40.7-51.6-21.5 0-41.6 15.2-41.6 51.9 0 25.8 14.5 51.3 40.7 51.3zm83.2-106.1c0-2.6 1.4-4 4-4h1.9c2.6 0 4 1.4 4 4v18.2c0 5.4-.9 9.6-.9 9.6h.5c5.8-18 19.6-32.5 39.3-32.5 3.3 0 4.9 1.4 4.9 4v2.1c0 2.6-2.1 4-5.1 4-26.2 0-38.6 31.1-38.6 57v46.5c0 2.6-1.4 4-4 4H246c-2.6 0-4-1.4-4-4V147.9zm80.8-4h-1.9c-2.6 0-4 1.4-4 4v108.9c0 2.6 1.4 4 4 4h1.9c2.6 0 4-1.4 4-4V147.9c0-2.6-1.4-4-4-4zm43.2 4c0-2.6 1.4-4 4-4h1.9c2.6 0 4 1.4 4 4v16.6c0 5.4-.9 9.6-.9 9.6h.5c4-11 20.3-32.9 49.5-32.9 30.4 0 38.6 18 38.6 45.6v70.1c0 2.6-1.4 4-4 4h-1.9c-2.6 0-4-1.4-4-4v-66.6c0-20.3-2.6-39.5-28.7-39.5-26.6 0-49.1 22-49.1 51.9v54.2c0 2.6-1.4 4-4 4h-1.9c-2.6 0-4-1.4-4-4v-109zm135-46.7c0-2.6 1.4-4 4-4h1.9c2.6 0 4 1.4 4 4V190h20.8l36-43.7c1.4-1.6 2.8-2.3 4.9-2.3h3.5c3.3 0 4.4 2.3 2.1 4.9L540 194.2v.5l43 61.2c1.9 2.8.7 4.9-2.6 4.9h-3.5c-2.1 0-3.5-.7-4.7-2.6l-40.7-59.1h-20.8v57.7c0 2.6-1.4 4-4 4h-1.9c-2.6 0-4-1.4-4-4V101.2zm108.9 0c0-2.6 1.4-4 4-4h1.9c2.6 0 4 1.4 4 4v132.7c0 16.4 7.9 17.8 13.5 18.5 2.1.2 3.7.9 3.7 3.7v1.4c0 2.6-.9 4.2-4.2 4.2-6.8 0-22.9-2.6-22.9-24.5v-136zm53.3 46.7c0-2.6 1.4-4 4-4h1.9c2.6 0 4 1.4 4 4v18.2c0 5.4-.9 9.6-.9 9.6h.5c5.8-18 19.6-32.5 39.3-32.5 3.3 0 4.9 1.4 4.9 4v2.1c0 2.6-2.1 4-5.1 4-26.2 0-38.6 31.1-38.6 57v46.5c0 2.6-1.4 4-4 4H667c-2.6 0-4-1.4-4-4V147.9z" fill="#fff"/></svg>