<svg xmlns="http://www.w3.org/2000/svg" viewBox="0 0 12 8.904"><path d="M11.72 4.675c-.34-.437-.743-.53-1.021-.53-.479 0-.844.265-.908.315-2.136 1.587-2.345 3.602-2.344 3.605-.039.227-.052.464.12.67l.17.17h.212c.209 0 .397-.119.55-.34.987-1.26 2.036-1.673 2.185-1.727.457-.117 1.054-.46 1.254-1.043.091-.268.127-.68-.218-1.12zm-.695.808c-.056.166-.327.358-.616.432-.087.028-.685.234-1.434.82a5.41 5.41 0 0 1 1.393-1.503.64.64 0 0 1 .33-.123c.066 0 .153.018.262.159.097.123.076.185.065.215z"/><path d="M9.619 3.689c.57-.375.906-.835.996-1.364.13-.77-.337-1.359-.346-1.37C9.852.47 9.363.226 8.816.226 8.1.226 7.534.68 7.508.715 5.09 2.495 5.852 8.1 5.866 8.185c.113.42.361.509.55.509.175 0 .483-.082.566-.627.51-3.252 2.253-4.2 2.637-4.378zm-.803-2.5c.254 0 .495.13.7.365.021.03.2.303.148.61-.042.25-.225.49-.486.673-.177.07-1.538.665-2.459 2.694.06-1.509.362-3.304 1.391-4.065.003-.003.328-.276.706-.276zM3.733.59C3.373.2 2.988 0 2.59 0c-.425 0-.69.236-.711.256-.384.328-.57.697-.553 1.098.027.658.62 1.042.646 1.057C3.76 3.315 4.3 5.06 4.328 5.149c.125.342.387.38.494.38.236 0 .497-.16.518-.615C5.39 1.994 3.737.59 3.733.59zm.26 2.147a5.36 5.36 0 0 0-1.52-1.145c-.058-.044-.179-.171-.184-.281-.003-.086.077-.203.215-.322 0 0 .033-.026.087-.026.065 0 .212.04.471.317.03.026.554.507.931 1.457zm-2.5.771c-.07 0-.14.004-.205.01-.041.004-1.019.099-1.284 1.353-.046.587.289 1.527 1.37 1.703.015.005 1.543.484 2.621 1.878a.615.615 0 0 0 .468.242c.212 0 .464-.143.525-.5l-.01-.135c-.04-.185-.97-4.55-3.485-4.55zm2.042 3.15c-.992-.745-1.912-1.014-1.944-1.022-.573-.094-.632-.499-.636-.625.103-.48.39-.53.419-.533a1.2 1.2 0 0 1 .119-.006c.963 0 1.647 1.212 2.042 2.187z"/></svg>