<svg xmlns="http://www.w3.org/2000/svg" xmlns:xlink="http://www.w3.org/1999/xlink" viewBox="0 0 14 14"><path d="M12.991 6.51L1.384.05C1.2-.053.98.008.85.199a.624.624 0 0 0-.01.662L4.656 7 .84 13.138a.626.626 0 0 0 .01.662c.086.13.215.2.347.2a.38.38 0 0 0 .186-.05L12.99 7.488c.16-.088.26-.278.26-.488s-.1-.401-.259-.49z"/><defs><path id="a" d="M33 1.2c3.198 0 5.8 2.602 5.8 5.8s-2.602 5.8-5.8 5.8-5.8-2.602-5.8-5.8 2.602-5.8 5.8-5.8M33 0a7 7 0 1 0 0 14 7 7 0 0 0 0-14"/></defs><use xlink:href="#a" overflow="visible" fill-rule="evenodd" clip-rule="evenodd"/><clipPath id="b"><use xlink:href="#a" overflow="visible"/></clipPath><g clip-path="url(#b)"><defs><path id="c" d="M-1435.444-1141h1687v2520h-1687z"/></defs><use xlink:href="#c" overflow="visible"/></g><g><defs><path id="d" d="M29.546 8.473c.036.082.927 2.027 3.454 2.027 2.547 0 3.418-1.944 3.454-2.027a.552.552 0 0 0-.283-.726.547.547 0 0 0-.72.283c-.028.058-.651 1.366-2.451 1.366-1.82 0-2.426-1.314-2.451-1.37a.549.549 0 1 0-1.003.447"/></defs><use xlink:href="#d" overflow="visible" fill-rule="evenodd" clip-rule="evenodd"/><clipPath id="e"><use xlink:href="#d" overflow="visible"/></clipPath><g clip-path="url(#e)"><defs><path id="f" d="M-1435.444-1141h1687v2520h-1687z"/></defs><use xlink:href="#f" overflow="visible"/></g></g><g><defs><path id="g" d="M31.6 4.9a.7.7 0 1 1-1.399.001A.7.7 0 0 1 31.6 4.9"/></defs><use xlink:href="#g" overflow="visible" fill-rule="evenodd" clip-rule="evenodd"/><clipPath id="h"><use xlink:href="#g" overflow="visible"/></clipPath><g clip-path="url(#h)"><defs><path id="i" d="M-1435.444-1141h1687v2520h-1687z"/></defs><use xlink:href="#i" overflow="visible"/></g></g><g><defs><path id="j" d="M35.799 4.9a.7.7 0 1 1-1.399.001.7.7 0 0 1 1.399-.001"/></defs><use xlink:href="#j" overflow="visible" fill-rule="evenodd" clip-rule="evenodd"/><clipPath id="k"><use xlink:href="#j" overflow="visible"/></clipPath><g clip-path="url(#k)"><defs><path id="l" d="M-1435.444-1141h1687v2520h-1687z"/></defs><use xlink:href="#l" overflow="visible"/></g></g></svg>