<svg xmlns="http://www.w3.org/2000/svg" viewBox="0 0 14 14"><path d="M5.6 4.9a.7.7 0 1 1-1.399.001A.7.7 0 0 1 5.6 4.9m4.199 0a.7.7 0 1 1-1.399.001.7.7 0 0 1 1.399-.001M3.546 8.473C3.582 8.555 4.473 10.5 7 10.5c2.547 0 3.418-1.944 3.454-2.027a.552.552 0 0 0-.283-.726.547.547 0 0 0-.72.283C9.422 8.088 8.8 9.396 7 9.396c-1.82 0-2.426-1.314-2.451-1.37a.549.549 0 1 0-1.003.447M7 1.2c3.198 0 5.8 2.602 5.8 5.8s-2.602 5.8-5.8 5.8A5.807 5.807 0 0 1 1.2 7c0-3.198 2.602-5.8 5.8-5.8M7 0a7 7 0 1 0 0 14A7 7 0 0 0 7 0"/></svg>