<svg xmlns="http://www.w3.org/2000/svg" viewBox="0 0 14 14"><path d="M13.979 5.391a.439.439 0 0 0-.355-.298L9.32 4.467 7.394.566a.439.439 0 0 0-.788 0L4.681 4.467l-4.305.626a.439.439 0 0 0-.243.748l3.115 3.037-.736 4.288a.439.439 0 0 0 .637.462L7 11.604l3.85 2.024a.439.439 0 0 0 .638-.462l-.736-4.288 3.115-3.037a.439.439 0 0 0 .111-.45zm-4.499 2.8a.366.366 0 0 0-.105.325l.52 3.034-2.725-1.433a.366.366 0 0 0-.34 0L4.105 11.55l.52-3.034a.366.366 0 0 0-.105-.324l-2.205-2.15L5.362 5.6a.366.366 0 0 0 .275-.2L7 2.64 8.363 5.4a.366.366 0 0 0 .275.2l3.047.443L9.48 8.192z"/></svg>