<svg xmlns="http://www.w3.org/2000/svg" viewBox="0 0 12 12"><path d="M6.038 12a6.038 6.038 0 0 1-3.957-1.466C.863 9.484.13 8.024.015 6.425S.422 3.28 1.48 2.068A6.038 6.038 0 0 1 6.896.06a.501.501 0 1 1-.141.99A5.027 5.027 0 0 0 2.24 2.723a4.95 4.95 0 0 0-1.22 3.632 4.955 4.955 0 0 0 1.72 3.424c2.097 1.807 5.283 1.585 7.105-.5.37-.424.662-.9.87-1.412a.502.502 0 0 1 .654-.278.498.498 0 0 1 .28.65 5.99 5.99 0 0 1-1.043 1.696A6.052 6.052 0 0 1 6.037 12z"/><path d="M11.849 2.403a.53.53 0 0 0-.73 0l-.802.797-2.055 2.042-.846-.84c-.013-.012-.03-.017-.044-.028l-.224-.222a.532.532 0 0 0-.729 0 .506.506 0 0 0 0 .724l.81.804.006-.009.662.658c.097.097.227.15.365.15a.513.513 0 0 0 .364-.15l1.942-1.93 1.28-1.272a.507.507 0 0 0 .001-.724z"/></svg>