<svg xmlns="http://www.w3.org/2000/svg" viewBox="0 0 12 12"><path d="M6 11.7c-1.3 0-2.7-.5-3.7-1.4C1.2 9.3.5 7.9.4 6.4s.4-3 1.4-4.1C3 .8 4.9.1 6.8.4c.3 0 .4.3.4.5 0 .3-.3.4-.5.4-1.6-.2-3.2.4-4.2 1.6-.8 1-1.2 2.2-1.2 3.4.1 1.3.7 2.4 1.6 3.3 2 1.7 5 1.5 6.7-.5.3-.4.6-.8.8-1.3.1-.2.4-.4.6-.3.2.1.4.4.3.6-.2.6-.6 1.1-1 1.6-1.1 1.3-2.7 2-4.3 2z"/><path d="M11.5 2.6c-.2-.2-.5-.2-.7 0l-.8.8-1.9 1.9-.8-.8-.2-.2c-.2-.2-.5-.2-.7 0-.1.1-.1.2-.1.3 0 .1.1.3.1.3l.8.8.6.6c.1.1.2.2.3.2.1 0 .3-.1.3-.1l1.8-1.8 1.2-1.2c.1-.1.1-.2.1-.3.2-.3.1-.4 0-.5z"/></svg>