<svg xmlns="http://www.w3.org/2000/svg" viewBox="0 0 14 14"><path d="M13.78 2.385a.498.498 0 0 1-.708 0l-.638-.64v3.921a.5.5 0 1 1-1 0V1.692l-.64.638a.5.5 0 1 1-.706-.707L11.554.158a.5.5 0 0 1 .707 0l1.518 1.52a.5.5 0 0 1 0 .707zm-1.846 4.747a.5.5 0 0 0-.5.5v5.097a.16.16 0 0 1-.159.16H1.16a.16.16 0 0 1-.16-.16V1.17a.16.16 0 0 1 .16-.159h8.05a.5.5 0 1 0 0-1H1.159c-.64 0-1.16.52-1.16 1.16v11.558c0 .64.52 1.16 1.16 1.16h10.116a1.16 1.16 0 0 0 1.159-1.16V7.632a.5.5 0 0 0-.5-.5zM5.708 4.958v5.347a.5.5 0 1 0 1 0V4.958a.5.5 0 1 0-1 0zm2.048 1.42v3.912a.5.5 0 1 0 1 0V6.378a.5.5 0 1 0-1 0zM3.678 3.594v6.696a.5.5 0 1 0 1 0V3.594a.5.5 0 1 0-1 0z"/></svg>