<svg xmlns="http://www.w3.org/2000/svg" viewBox="-254.5 331 156 131"><path fill="none" d="M-185.4 442.3l-17.4 18.1c-.2-.2-.4-.5-.4-.9V425c0-.3.1-.6.4-.9l17.4 18.2zM-151 425v34.5c0 .3-.1.6-.4.9l-17.4-18.1 17.4-18.1c.2.2.4.5.4.8"/><path fill="none" d="M-152.3 423.8h-49.6c-.3 0-.7.1-.9.4l25.7 26.2 25.7-26.2c-.2-.3-.5-.4-.9-.4"/><path fill="none" d="M-168.8 442.3l17.4 18.1c-.2.2-.5.4-.9.4h-49.6c-.3 0-.7-.1-.9-.4l17.4-18.1 8.3 8.1 8.3-8.1z"/><path fill="#0828CC" fill-opacity=".1" d="M-192.2 449.4c-.5-.5-1.3-.5-1.7 0l-7.9 8.2v-30.8l14.8 15.4-4 4.2c-.5.5-.5 1.3 0 1.7.2.2.5.3.9.3.3 0 .6-.1.9-.4l3.9-4.1 5.7 5.9c.7.7 1.6 1.1 2.6 1.1s1.9-.4 2.6-1.1l5.7-5.9 14.9 15.5h-46.3l8-8.3c.4-.4.3-1.2-.1-1.7z"/><path fill="#0828CC" d="M-217.2 435c-.4 0-.8-.3-.8-.8v-6.6c0-.4.3-.8.8-.8s.8.3.8.8v6.6c0 .5-.4.8-.8.8z"/><path fill="#0828CC" d="M-213.9 431.8h-6.5c-.4 0-.8-.3-.8-.8s.3-.8.8-.8h6.5c.4 0 .8.3.8.8s-.4.8-.8.8zm-13.3-2c-.4 0-.8-.3-.8-.8v-4c0-.4.3-.8.8-.8s.8.3.8.8v4c0 .5-.4.8-.8.8z"/><path fill="#0828CC" d="M-225.2 427.8h-4c-.4 0-.8-.3-.8-.8s.3-.8.8-.8h4c.4 0 .8.3.8.8s-.4.8-.8.8zm96 33.9c-.4 0-.8-.3-.8-.8v-6.6c0-.4.3-.8.8-.8.4 0 .8.3.8.8v6.6c-.1.5-.4.8-.8.8z"/><path fill="#0828CC" d="M-126 458.4h-6.5c-.4 0-.8-.3-.8-.8s.3-.8.8-.8h6.5c.4 0 .8.3.8.8s-.4.8-.8.8zm-75.9 3.3c-.6 0-1.2-.2-1.6-.7-.4-.4-.6-.9-.6-1.5V425c0-.5.2-1.1.6-1.5.4-.5 1-.7 1.6-.7h49.6c.6 0 1.2.2 1.6.7.4.4.6.9.6 1.5v34.5c0 .5-.2 1.1-.6 1.5-.4.5-1 .7-1.6.7h-49.6zm8.8-12.3c.2 0 .5.1.6.3.2.2.3.4.3.7 0 .2-.1.5-.3.7l-8.5 8.8h47.7l-15.6-16.2-5.9 6.2c-.6.7-1.5 1-2.4 1-.9 0-1.8-.4-2.4-1l-5.9-6.2-4.1 4.3c-.2.2-.4.3-.7.3-.2 0-.5-.1-.6-.3-.2-.2-.3-.4-.3-.7 0-.2.1-.5.3-.7l4.2-4.4-15.5-16.1v32.3l8.4-8.7c.2-.2.4-.3.7-.3zm25.6-7.1l15.5 16.1v-32.3l-15.5 16.2zm-10.6 6.2c.3.3.6.4 1 .4s.8-.2 1-.4l22.8-23.7H-201l22.9 23.7zm.9-33.1c-.3 0-.5-.1-.6-.4-7.1-12.8-15.4-25.1-24.7-36.4-9.3-11.3-19.6-21.8-30.8-31.2-6.3-5.4-13-10.4-19.9-15.1-.3-.2-.4-.7-.2-1 .1-.2.3-.3.6-.3.1 0 .3 0 .4.1 6.9 4.7 13.6 9.8 20 15.2 11.2 9.5 21.7 20.1 31 31.4 9.4 11.4 17.7 23.7 24.8 36.6.2.3.1.8-.3 1-.1.1-.2.1-.3.1z"/><path fill="#FFF" d="M-182.8 418.9c-.2 0-.5-.1-.6-.3-8.7-13.6-18.8-26.4-30-37.9-3.2-3.3-6.5-6.5-9.9-9.6-.3-.3-.3-.7 0-1 .1-.1.3-.2.5-.2s.3.1.5.2c3.4 3.1 6.7 6.4 9.9 9.7 11.3 11.6 21.4 24.5 30.2 38.1.2.3.1.8-.2 1h-.4z"/><path fill="#0828CC" d="M-174.8 404.5c-.3 0-.5-.1-.6-.4-6.8-13.3-15-26.2-24.4-38.2-.2-.3-.2-.8.1-1 .1-.1.3-.2.4-.2.2 0 .4.1.6.3 9.5 12 17.7 25 24.5 38.4.2.4 0 .8-.3 1 0 0-.2.1-.3.1z"/><path fill="#FFF" d="M-170.6 413.8c-.3 0-.5-.2-.6-.4-.5-1-.9-2-1.4-3.1-.2-.4 0-.8.3-1 .1 0 .2-.1.3-.1.3 0 .5.2.6.4.5 1 1 2.1 1.4 3.1.2.4 0 .8-.4 1 0 .1-.1.1-.2.1z"/><path fill="#0828CC" fill-opacity=".6" d="M-182.8 418.9c-.2 0-.5-.1-.6-.3-8.7-13.6-18.8-26.4-30-37.9-3.2-3.3-6.5-6.5-9.9-9.6-.3-.3-.3-.7 0-1 .1-.1.3-.2.5-.2s.3.1.5.2c3.4 3.1 6.7 6.4 9.9 9.7 11.3 11.6 21.4 24.5 30.2 38.1.2.3.1.8-.2 1h-.4zm12.2-5.1c-.3 0-.5-.2-.6-.4-.5-1-.9-2-1.4-3.1-.2-.4 0-.8.3-1 .1 0 .2-.1.3-.1.3 0 .5.2.6.4.5 1 1 2.1 1.4 3.1.2.4 0 .8-.4 1 0 .1-.1.1-.2.1z"/></svg>