<svg xmlns="http://www.w3.org/2000/svg" viewBox="0 0 12.001 7.931"><path d="M11.738 4.95c-.495-.747-1.473-.522-1.473-.522-.773-2.825-3.55-3.193-3.55-3.193C6.499.807 7.44 0 7.44 0c-.942.285-1.449 1.068-1.449 1.068-.265-.83-.724-.747-.724-.747.422.213.35.878.35.878-3.163.25-3.84 3.194-3.84 3.194a1.482 1.482 0 0 0-1.34.356C-.6 5.912.535 6.874.535 6.874c.64.63 1.425.225 1.425.225.133.523.447.832.447.832l1.207-.772c-1.316-2.173 0-3.194 0-3.194 1.304-1.14 2.378.32 2.378.32l.483-.38c1.183-.89 2.089.155 2.089.155 1.012 1.386-.12 3.146-.12 3.146l1.194.725c.314-.297.507-.843.507-.843.121.154.471.166.471.166 1.123-.107 1.352-.95 1.352-.95.145-.997-.229-1.353-.229-1.353zM1.54 6.102s-.268.06-.328-.189c0 0-.06-.19 0-.273 0 0-.023-.279.328-.148v.61zm9.256-.189c-.06.25-.333.19-.333.19V5.49c.35-.13.333.148.333.148.06.083 0 .273 0 .273z"/></svg>