<svg xmlns="http://www.w3.org/2000/svg" xmlns:xlink="http://www.w3.org/1999/xlink" viewBox="0 0 14 14"><defs><path id="a" d="M176.35 105.701a1.4 1.4 0 1 1 0-2.8 1.4 1.4 0 0 1 0 2.8zm-5.6 0a1.4 1.4 0 1 1 0-2.8 1.4 1.4 0 0 1 0 2.8zm-5.6 0a1.4 1.4 0 1 1 0-2.8 1.4 1.4 0 0 1 0 2.8z"/></defs><clipPath id="b"><use xlink:href="#a" overflow="visible"/></clipPath><path d="M.671 1.347H12.73V13.3a.6.6 0 1 0 1.2 0V.747a.6.6 0 0 0-.6-.6H.67a.6.6 0 1 0 0 1.2z"/><path d="M9.571 3.96a.599.599 0 0 0-.424.176l-7.716 7.716V8.305a.6.6 0 1 0-1.2 0v4.998a.579.579 0 0 0 .132.356c.06.077.132.143.224.184.006.002.008.009.014.011.01.005.022 0 .032.003.064.023.13.041.201.043l5.011-.03a.6.6 0 0 0-.003-1.2h-.003l-3.55.021 7.707-7.707A.6.6 0 0 0 9.57 3.96z"/></svg>