<svg xmlns="http://www.w3.org/2000/svg" viewBox="0 0 12 12.002"><path d="M11.5 5.536h-1.15a4.37 4.37 0 0 0-3.843-3.844V.5a.499.499 0 1 0-.999 0v1.193a4.37 4.37 0 0 0-3.843 3.844H.5a.499.499 0 1 0 0 .999h1.166a4.37 4.37 0 0 0 3.843 3.843v1.125a.499.499 0 1 0 .999 0v-1.125a4.37 4.37 0 0 0 3.843-3.843h1.15a.499.499 0 1 0 0-.999zM6.508 9.38v-.261a.499.499 0 1 0-.999 0v.261a3.383 3.383 0 0 1-2.844-2.844h.22a.499.499 0 1 0 0-.999h-.22a3.383 3.383 0 0 1 2.844-2.845v.193a.499.499 0 1 0 .999 0v-.193a3.383 3.383 0 0 1 2.845 2.845h-.236a.499.499 0 1 0 0 .999h.236A3.383 3.383 0 0 1 6.508 9.38z"/></svg>