<svg xmlns="http://www.w3.org/2000/svg" viewBox="0 0 14 14"><g fill="#010101"><path d="M12.333.417H10.89A.982.982 0 0 0 10.1 0H3.9c-.33 0-.608.17-.79.417H1.666c-.158 0-.31-.004-.454.056A1.173 1.173 0 0 0 .5 1.548v11.25C.5 13.442 1.023 14 1.667 14h10.666c.157 0 .31-.066.457-.128a1.168 1.168 0 0 0 .71-1.074V1.548c0-.644-.523-1.131-1.167-1.131zm0 12.416H1.666V1.583H3.11c.182.247.46.417.79.417h6.2c.33 0 .608-.17.79-.417h1.443v11.25z"/><path d="M10.1 4.083H3.9a.5.5 0 1 0 0 1h6.2a.5.5 0 1 0 0-1zM10.1 7H3.9a.5.5 0 1 0 0 1h6.2a.5.5 0 1 0 0-1zm0 2.917H3.9a.5.5 0 1 0 0 1h6.2a.5.5 0 1 0 0-1z"/></g></svg>