<svg xmlns="http://www.w3.org/2000/svg" viewBox="0 0 12 10.116"><path d="M.987 4.256s.215.416-.116.578c0 0-.448.142-.577-.289 0 0-1.01-2.367.981-3.897 0 0 1.703-1.357 3.81-.144 0 0 2.166 1.299 1.27 3.955 0 0-.952 2.569-3.925 1.934 0 0-.293-.089-.26-.404 0 0 .087-.376.52-.29 0 0 1.946.541 2.886-1.27 0 0 1.04-1.933-.866-3.319 0 0-1.991-1.184-3.492.693 0 0-.75.924-.231 2.453z"/><path d="M3.325 1.977a1.27 1.27 0 0 0-1.173 1.756S-.335 6.162.037 9.741c0 0-.004.318.285.375 0 0 .26-.057.289-.461 0 0-.295-3.023 1.988-5.365a1.27 1.27 0 1 0 .725-2.313zm5.616 3.889s.271-.025.291.183c0 0-.005.259-.277.255 0 0-1.501.06-1.922-1.344 0 0-.386-1.211.712-2.109 0 0 1.158-.91 2.421.129 0 0 1.203 1.053.24 2.543 0 0-.1.127-.275.057 0 0-.186-.125-.05-.343 0 0 .7-.95-.093-1.838 0 0-.839-.968-1.99-.217 0 0-1.06.84-.347 2.049 0 0 .348.601 1.29.635z"/><path d="M8.183 4.117a.742.742 0 0 0 .714 1.005s.809 1.86 2.838 2.4c0 0 .173.068.264-.077 0 0 .022-.154-.192-.253 0 0-1.71-.467-2.513-2.199a.741.741 0 1 0-1.11-.875z"/></svg>