<svg xmlns="http://www.w3.org/2000/svg" viewBox="0 0 14 14"><path d="M12.647 2.372L10.182.302A1.293 1.293 0 0 0 9.351 0H1.919A.919.919 0 0 0 1 .919V13.08c0 .508.411.919.919.919H12.08a.919.919 0 0 0 .919-.919V3.13c0-.293-.13-.57-.353-.758zm-1.194.564H9.805V1.553l1.648 1.383zM2.2 12.8V1.2h6.405v2.336a.6.6 0 0 0 .6.6H11.8V12.8H2.2z"/><path d="M9.463 9.016l-1.499-.902 1.494-.91a.5.5 0 1 0-.52-.854L7.5 7.226V5.543a.5.5 0 1 0-1 0v1.69l-1.447-.871a.5.5 0 1 0-.516.856l1.498.902-1.493.91a.5.5 0 1 0 .52.853L6.5 9.007v1.683a.5.5 0 1 0 1 0V9.002l1.447.87a.5.5 0 0 0 .516-.856z"/></svg>