<svg xmlns="http://www.w3.org/2000/svg" viewBox="0 0 14 14"><path fill="#050606" d="M7.003 9.578a2.582 2.582 0 0 1-2.58-2.579 2.583 2.583 0 0 1 2.58-2.58A2.583 2.583 0 0 1 9.582 7a2.582 2.582 0 0 1-2.58 2.579zm0-3.959c-.76 0-1.38.62-1.38 1.38 0 .76.62 1.38 1.38 1.38s1.38-.62 1.38-1.38c0-.76-.62-1.38-1.38-1.38z"/><path fill="#010101" d="M7.005 3.167a.6.6 0 0 1-.6-.6V.627a.6.6 0 1 1 1.2 0v1.94a.6.6 0 0 1-.6.6zm3.214 1.207a.6.6 0 0 1-.424-1.025l1.372-1.371a.6.6 0 1 1 .848.848l-1.372 1.372a.597.597 0 0 1-.424.176zm1.163 7.831a.6.6 0 0 1-.425-.176l-1.371-1.372a.6.6 0 0 1 .85-.848l1.37 1.372a.6.6 0 0 1-.424 1.024zM3.769 4.413a.597.597 0 0 1-.424-.176L1.973 2.865a.6.6 0 0 1 .847-.848l1.372 1.371a.6.6 0 0 1-.423 1.025zM2.51 12.266a.599.599 0 0 1-.424-1.023L3.458 9.87a.599.599 0 1 1 .848.847L2.934 12.09a.597.597 0 0 1-.424.176zM7.005 14a.6.6 0 0 1-.6-.599v-1.94a.6.6 0 0 1 1.2 0v1.94a.6.6 0 0 1-.6.6zM2.606 7.658H.667a.6.6 0 0 1 0-1.2h1.94a.6.6 0 0 1 0 1.2zm10.661 0h-1.94a.6.6 0 0 1 0-1.2h1.94a.6.6 0 0 1 0 1.2z"/></svg>