<svg xmlns="http://www.w3.org/2000/svg" viewBox="0 0 14 14"><g fill="#020202"><path d="M13.851 12.015c-.656-.674-2.28-1.192-4.21-1.46a2.579 2.579 0 0 0-2.573-2.508 2.576 2.576 0 0 0-2.564 2.433c-1.786.207-3.382.681-4.304 1.507a.6.6 0 0 0 .8.895c2.44-2.186 10.723-1.332 11.992-.029a.6.6 0 1 0 .86-.838zm-8.138-1.632a1.38 1.38 0 0 1 1.355-1.136c.69 0 1.26.51 1.36 1.174-.89-.07-1.812-.082-2.715-.038zm4.058-2.569a.597.597 0 0 0 .424-.176l1.372-1.372a.6.6 0 0 0-.848-.848L9.347 6.79a.6.6 0 0 0 .424 1.024zm-5.755.05a.6.6 0 0 0 .85-.849L3.495 5.644a.6.6 0 0 0-.85.848l1.371 1.372z"/><path d="M1.06 10.303H3a.6.6 0 0 0 0-1.199H1.06a.6.6 0 0 0 0 1.2zm9.36-.553a.6.6 0 0 0 .6.6h1.939a.6.6 0 0 0 0-1.199h-1.94a.6.6 0 0 0-.6.6zM5.31 4.035c.154 0 .31-.06.427-.18l.603-.613.008 3.252a.6.6 0 0 0 .6.598h.002a.6.6 0 0 0 .597-.601L7.54 3.243l.6.604a.598.598 0 0 0 .849.003.6.6 0 0 0 .003-.848L7.36 1.359a.6.6 0 0 0-.849-.003c-.005.005-.006.012-.011.017-.005.005-.01.006-.015.01L4.88 3.015a.6.6 0 0 0 .428 1.02z"/></g></svg>