<svg xmlns="http://www.w3.org/2000/svg" viewBox="0 0 12 12"><path d="M4.04 3.036c-.17-.698-.64-1.15-1.197-1.152h-.004c-.441 0-.986.299-1.197 1.139L.015 9.492a.502.502 0 0 0 .973.245l.457-1.818h2.757l.444 1.815a.501.501 0 1 0 .975-.24L4.04 3.037zm-2.343 3.88l.918-3.648c.073-.29.196-.38.224-.38.03 0 .155.092.227.386l.89 3.642H1.698zm8.119.189h1.682a.501.501 0 1 0 0-1.003h-1.88a11.45 11.45 0 0 1-.103-1.533.501.501 0 1 0-1.003 0c0 .544-.038 1.055-.102 1.533H6.53a.501.501 0 1 0 0 1.003h1.682c-.62 2.634-2.009 4.011-2.027 4.029a.502.502 0 0 0 .687.73c.078-.073 1.398-1.348 2.142-3.813.744 2.465 2.064 3.74 2.141 3.813a.501.501 0 0 0 .687-.73c-.017-.018-1.407-1.395-2.026-4.029zM6.322 2.65c.065.147.378.204.605.049l2.115-1.586 2.034 1.582a.502.502 0 1 0 .576-.822L9.335.09a.505.505 0 0 0-.571-.004L6.362 1.87c-.23.156-.288.469-.04.782z" fill="#010101"/></svg>