<svg xmlns="http://www.w3.org/2000/svg" viewBox="0 0 12 12"><path d="M11.516 2.149H6.11a.5.5 0 1 1 0-1h5.405a.5.5 0 1 1 0 1zM9.624 7.09h1.661a.5.5 0 1 0 0-1H9.43a11.648 11.648 0 0 1-.097-1.516.5.5 0 0 0-.5-.5c-.007 0-.012.003-.019.004-.007 0-.012-.004-.02-.004a.5.5 0 0 0-.5.5c0 .537-.035 1.042-.098 1.515H6.343a.5.5 0 1 0 0 1H8c-.609 2.634-1.979 4.035-1.996 4.052a.5.5 0 0 0 .696.718c.077-.074 1.385-1.38 2.113-3.862.728 2.483 2.036 3.788 2.113 3.862a.499.499 0 1 0 .695-.719c-.017-.017-1.39-1.406-1.997-4.05zM3.986 3.252c-.11-.457-.516-.797-1.007-.845-.544-.055-1.03.26-1.319.905L.015 9.958a.5.5 0 1 0 .97.24l.444-1.802h2.778l.443 1.821a.501.501 0 0 0 .972-.236l-1.636-6.73zm-2.31 4.144L2.6 3.642c.043-.094.088-.267.282-.24.067.007.124.05.132.086l.95 3.908H1.675z"/></svg>