<svg xmlns="http://www.w3.org/2000/svg" viewBox="0 0 12 8.232"><path d="M4.04 1.152C3.87.454 3.4.002 2.844 0H2.84c-.441 0-.986.299-1.197 1.139L.015 7.608a.502.502 0 0 0 .973.245l.457-1.818h2.757l.444 1.815a.501.501 0 1 0 .975-.24L4.04 1.153zm-2.343 3.88l.918-3.648c.073-.29.196-.38.224-.38.03 0 .155.092.227.386l.89 3.642H1.698zm8.119-1.925h1.682a.501.501 0 1 0 0-1.003h-1.88A11.45 11.45 0 0 1 9.515.57a.501.501 0 1 0-1.003 0c0 .545-.038 1.055-.102 1.534H6.53a.501.501 0 1 0 0 1.003h1.682c-.62 2.634-2.009 4.01-2.027 4.028a.502.502 0 0 0 .687.73c.078-.072 1.398-1.347 2.142-3.813.744 2.466 2.064 3.741 2.141 3.813a.501.501 0 0 0 .687-.73c-.017-.017-1.407-1.394-2.026-4.028z"/></svg>