<svg xmlns="http://www.w3.org/2000/svg" viewBox="0 0 12 12"><path d="M11.512 1.19H6.529V.516a.5.5 0 1 0-1 0v.676H.49a.5.5 0 1 0 0 1h.29l.943 7.25c.008.065.03.125.06.18.358 1.583 1.194 2.364 2.562 2.364H7.84c1.176 0 2.086-.998 2.366-2.553.007-.024.02-.045.023-.07l.963-7.171h.32a.5.5 0 1 0 0-1zM9.258 9.088l-.001.004c-.122.874-.567 1.894-1.417 1.894H4.344c-.783 0-1.36-.303-1.635-1.781-.002-.013-.01-.022-.014-.034l-.907-6.98h8.396l-.926 6.897z"/><path d="M6.019 9.533a.5.5 0 0 0 .5-.5V4a.5.5 0 1 0-1 0v5.032a.5.5 0 0 0 .5.5zm-1.959 0l.045-.002a.5.5 0 0 0 .455-.542l-.44-5.012a.5.5 0 0 0-.996.088l.438 5.012a.5.5 0 0 0 .498.456zm3.864-.003l.045.003a.5.5 0 0 0 .497-.456l.438-5.012a.5.5 0 0 0-.454-.542.503.503 0 0 0-.542.454L7.47 8.989a.5.5 0 0 0 .454.542z"/></svg>