<svg id="Layer_1" xmlns="http://www.w3.org/2000/svg" viewBox="0 0 14 14"><style></style><path d="M14.042 4.101a3.48 3.48 0 0 0-.644 1.175c-.054.132-.032.238.05.364 1.355 2.088.15 4.893-2.294 5.319-1.278.222-2.368-.17-3.248-1.13l-.082-.09c-.279.348-.524.716-.778 1.084-.218-.356-.46-.69-.717-1.015-.054-.069-.076-.06-.13 0-.661.748-1.488 1.162-2.49 1.203A3.462 3.462 0 0 1 .143 8.215c-.19-.949-.005-1.833.536-2.637a.236.236 0 0 0 .035-.215 3.388 3.388 0 0 0-.62-1.202l-.052-.064H2.18a.22.22 0 0 0 .134-.032c.746-.487 1.566-.798 2.429-1.002a9.894 9.894 0 0 1 2.523-.261c1.271.03 2.495.277 3.647.834.244.118.482.249.707.4a.35.35 0 0 0 .207.063c.717-.003 1.433-.002 2.15-.001l.066.003zm-10.47.632A2.803 2.803 0 0 0 .76 7.523a2.805 2.805 0 0 0 2.801 2.812c1.527-.001 2.801-1.256 2.802-2.76.002-1.577-1.24-2.842-2.792-2.842zm9.76 2.804c.004-1.526-1.256-2.797-2.773-2.805a2.814 2.814 0 0 0-2.833 2.732 2.809 2.809 0 0 0 2.796 2.87c1.537.01 2.807-1.255 2.81-2.797zm-6.286-.293c.089-.869.435-1.613 1.063-2.218.628-.606 1.386-.923 2.27-.975-.741-.352-2.003-.675-3.389-.665-1.116.008-3.057.384-3.363.663a3.42 3.42 0 0 1 2.086.745c.79.626 1.222 1.45 1.333 2.45z" fill="#020202"/><path d="M3.571 4.733c1.552 0 2.794 1.265 2.792 2.842-.001 1.504-1.275 2.759-2.802 2.76A2.805 2.805 0 0 1 .76 7.523a2.803 2.803 0 0 1 2.811-2.79zm1.645 2.78c-.029-.986-.798-1.712-1.78-1.68-.91.03-1.645.826-1.608 1.759.037.95.834 1.662 1.782 1.626.877-.034 1.631-.825 1.606-1.704zm8.117.024c-.004 1.542-1.274 2.807-2.81 2.798a2.809 2.809 0 0 1-2.797-2.871 2.814 2.814 0 0 1 2.833-2.732c1.517.008 2.777 1.28 2.774 2.805zm-1.114-.02a1.692 1.692 0 0 0-3.387-.004 1.693 1.693 0 0 0 3.386.003z" fill="#fdfdfd"/><path d="M7.046 7.244c-.111-1-.543-1.824-1.333-2.45a3.416 3.416 0 0 0-2.086-.745c.306-.28 2.247-.655 3.363-.663 1.386-.01 2.648.313 3.39.665-.885.052-1.643.37-2.271.975-.628.605-.974 1.349-1.063 2.218z" fill="#fddc9b"/><path d="M5.216 7.514c.025.879-.73 1.67-1.606 1.704-.948.036-1.745-.675-1.782-1.626-.037-.933.698-1.73 1.608-1.759.982-.032 1.751.694 1.78 1.68zm-1.7 1.175c.652 0 1.178-.522 1.176-1.166a1.171 1.171 0 0 0-2.34.003c0 .644.52 1.163 1.164 1.163zm8.703-1.173a1.693 1.693 0 1 1-3.387-.003 1.694 1.694 0 0 1 3.387.003zm-2.86-.004a1.17 1.17 0 0 0 1.165 1.174c.645 0 1.171-.525 1.172-1.17 0-.64-.532-1.172-1.172-1.17a1.174 1.174 0 0 0-1.165 1.166z" fill="#030303"/><path d="M3.516 8.69c-.644 0-1.163-.52-1.164-1.164a1.171 1.171 0 0 1 2.34-.002 1.169 1.169 0 0 1-1.176 1.165zm.487-1.16a.57.57 0 1 0-.572.565c.318 0 .571-.25.572-.565zm5.356-.018a1.174 1.174 0 0 1 1.165-1.166c.64-.002 1.172.53 1.172 1.17a1.174 1.174 0 0 1-1.172 1.17 1.17 1.17 0 0 1-1.165-1.174zm1.082-.562a.562.562 0 0 0-.572.563.576.576 0 0 0 .574.578.578.578 0 0 0 .57-.574.565.565 0 0 0-.572-.567z" fill="#fcfcfc"/><path d="M4.003 7.53a.565.565 0 0 1-.572.565.57.57 0 1 1 .572-.565z" fill="#ea2429"/><ellipse transform="rotate(-.077 10.441 7.518)" cx="10.441" cy="7.518" rx=".572" ry=".57" fill="#0ba54f"/></svg>