<svg xmlns="http://www.w3.org/2000/svg" viewBox="0 0 14 14"><path d="M11.275 13.888H1.16c-.64 0-1.16-.52-1.16-1.159V1.17C0 .531.52.011 1.16.011h8.05a.5.5 0 1 1 0 1H1.159a.16.16 0 0 0-.16.16v11.558c0 .088.072.16.16.16h10.116a.159.159 0 0 0 .159-.16V7.632a.5.5 0 1 1 1 0v5.097c0 .64-.52 1.16-1.159 1.16zM13.78 1.68L12.26.16c-.19-.2-.51-.2-.71 0l-1.46 1.46c-.2.2-.2.51 0 .71.19.2.51.2.7 0l.64-.63v3.97c0 .27.23.5.5.5.28 0 .5-.23.5-.5V1.74l.64.64c.1.1.23.15.36.15a.501.501 0 0 0 .35-.85zM3.193 6.226a.892.892 0 0 1-.594-.068 1.65 1.65 0 0 0 1.205 1.408c-.218.072-.45.095-.679.068.22.548.72.932 1.307 1.001a3.278 3.278 0 0 1-2.105.679c.357.34 3.14 1.34 4.939-.357a4.247 4.247 0 0 0 1.527-3.479c.311-.169.557-.438.696-.764-.25.102-.513.17-.78.204.661-.51.576-.814.576-.814a1.91 1.91 0 0 1-.899.373 1.446 1.446 0 0 0-1.731-.322 1.64 1.64 0 0 0-.764 1.697A4.26 4.26 0 0 1 2.77 4.291a1.542 1.542 0 0 0 .424 1.935z"/></svg>