<svg id="Layer_1" xmlns="http://www.w3.org/2000/svg" viewBox="0 0 14 14"><style></style><path d="M13.662 7.494a1.429 1.429 0 0 1 0-.982c.092-.257.176-.516.259-.776.196-.618.018-1.182-.507-1.585a11.91 11.91 0 0 0-.666-.47 1.634 1.634 0 0 1-.679-.883c-.081-.252-.16-.505-.253-.753-.197-.526-.578-.868-1.158-.946-.343-.046-.695-.034-1.043-.029A1.734 1.734 0 0 1 8.508.722c-.159-.12-.327-.23-.49-.345-.706-.5-1.326-.502-2.027-.008-.17.12-.343.235-.51.359a1.67 1.67 0 0 1-1.083.341 17.254 17.254 0 0 0-.754-.006c-.718.009-1.234.366-1.47 1.015a16.35 16.35 0 0 0-.24.709 1.637 1.637 0 0 1-.671.888c-.239.161-.478.322-.704.499-.451.354-.645.816-.523 1.367.074.332.196.656.306.979.11.323.113.64 0 .961-.093.265-.182.531-.267.799-.191.605-.012 1.173.503 1.565.221.17.453.328.685.484.331.222.555.515.673.887.087.274.175.55.283.817.189.47.547.779 1.065.857.357.054.726.047 1.09.042.423-.006.796.106 1.128.356.185.139.376.271.568.401.613.417 1.257.414 1.87-.005.125-.085.255-.167.371-.264.46-.383.984-.56 1.531-.479h.476c.761-.007 1.27-.356 1.519-1.048.082-.228.158-.457.231-.687.119-.371.346-.662.678-.883.24-.159.479-.322.703-.5.44-.351.635-.805.517-1.348-.072-.333-.192-.657-.304-.981zm-2.957-2.53L5.871 9.799a.18.18 0 0 1-.254 0l-.027-.027c-.001-.001-.004 0-.005-.002l-2.29-2.29a.18.18 0 0 1 0-.254l.509-.509a.18.18 0 0 1 .254 0l1.684 1.684 4.2-4.199a.18.18 0 0 1 .254 0l.509.508a.18.18 0 0 1 0 .254z"/></svg>