<svg data-name="Layer 1" xmlns="http://www.w3.org/2000/svg" viewBox="0 0 24 24"><g data-name="Layer 1"><circle cx="12" cy="12" r="12" fill="#55acee"/><path d="M18.429 7.987a5.634 5.634 0 0 1-1.402.366c1.188-.914 1.036-1.462 1.036-1.462a3.436 3.436 0 0 1-1.615.67 2.596 2.596 0 0 0-3.107-.58 2.945 2.945 0 0 0-1.371 3.048 7.65 7.65 0 0 1-5.606-2.803 2.767 2.767 0 0 0 .761 3.473 1.598 1.598 0 0 1-1.066-.122 2.957 2.957 0 0 0 2.163 2.529 2.838 2.838 0 0 1-1.218.122 2.891 2.891 0 0 0 2.345 1.797 5.888 5.888 0 0 1-3.778 1.22c.64.608 5.637 2.406 8.866-.64s2.742-6.247 2.742-6.247a2.823 2.823 0 0 0 1.25-1.37z" fill="#fff"/></g></svg>