<svg xmlns="http://www.w3.org/2000/svg" viewBox="0 0 12 11.01"><path d="M8.517 9.618l.536 1.371h-.202l-.15-.413h-.58l-.153.413H7.78l.534-1.371h.202zm.127.804l-.229-.64h-.004l-.232.64h.465zm1.241.568v-.135H9.88a.24.24 0 0 1-.127.119.486.486 0 0 1-.19.036.411.411 0 0 1-.343-.156.494.494 0 0 1-.085-.165.701.701 0 0 1 0-.4.47.47 0 0 1 .083-.163.41.41 0 0 1 .142-.112.451.451 0 0 1 .282-.033.414.414 0 0 1 .172.074c.026.02.048.044.066.074h.004v-.511h.163v1.371h-.163zm-.587-.353c.012.044.03.083.056.118a.27.27 0 0 0 .233.113.28.28 0 0 0 .14-.032.28.28 0 0 0 .094-.086.358.358 0 0 0 .053-.12.576.576 0 0 0 0-.278.352.352 0 0 0-.056-.12.279.279 0 0 0-.24-.115.26.26 0 0 0-.232.12.374.374 0 0 0-.051.122.655.655 0 0 0-.015.142c0 .046.006.091.018.136zm1.126.13a.173.173 0 0 0 .06.06.269.269 0 0 0 .085.031.473.473 0 0 0 .256-.017.145.145 0 0 0 .059-.045.121.121 0 0 0 .023-.076.109.109 0 0 0-.048-.096.405.405 0 0 0-.12-.053c-.049-.013-.1-.025-.157-.036s-.109-.026-.157-.046-.088-.048-.12-.084-.048-.085-.048-.15c0-.05.012-.093.034-.128a.275.275 0 0 1 .086-.088c.036-.022.075-.039.12-.05s.087-.016.131-.016c.056 0 .108.005.156.014a.36.36 0 0 1 .125.05.258.258 0 0 1 .088.096c.022.04.034.091.038.151h-.163a.166.166 0 0 0-.025-.08.166.166 0 0 0-.054-.05.247.247 0 0 0-.072-.028.367.367 0 0 0-.153-.003.246.246 0 0 0-.069.02.137.137 0 0 0-.05.038.097.097 0 0 0-.019.063c0 .028.01.051.03.07.02.018.045.034.076.046.03.012.065.023.104.03l.115.027c.04.009.08.02.12.032a.42.42 0 0 1 .104.051c.03.021.054.048.073.08a.235.235 0 0 1 .028.12c0 .06-.013.11-.038.149a.29.29 0 0 1-.098.096.412.412 0 0 1-.136.051.81.81 0 0 1-.309-.003.384.384 0 0 1-.132-.057.289.289 0 0 1-.092-.103.36.36 0 0 1-.039-.157h.163c.002.036.01.066.025.091zM.74.516s1.677 2.388 5.232 2.616c0 0-.37-1.962 1.28-2.844 1.648-.881 2.9.54 2.9.54s.74-.056 1.507-.625c0 0 .142.512-.967 1.365 0 0 .597-.057 1.308-.341 0 0-.227.71-1.166 1.28 0 0 .455 2.985-2.559 5.829C5.261 11.179.597 9.5 0 8.933c0 0 2.247.085 3.526-1.138 0 0-1.45-.057-2.19-1.677 0 0 .598.085 1.138-.114 0 0-1.848-.455-2.02-2.36 0 0 .37.227.996.113 0 0-1.62-1.109-.71-3.241z"/></svg>