<svg data-name="Layer 1" xmlns="http://www.w3.org/2000/svg" viewBox="0 0 13.896 13.896"><path d="M11.231.001H2.825a1.437 1.437 0 0 0-1.44 1.43v11.036a1.436 1.436 0 0 0 1.44 1.429h8.246a1.435 1.435 0 0 0 1.44-1.43V1.273a1.276 1.276 0 0 0-1.28-1.27zm.089 12.39l-.002-.002a.327.327 0 0 1-.349.324H2.924a.316.316 0 0 1-.347-.305V1.487a.317.317 0 0 1 .335-.303h8.069a.328.328 0 0 1 .337.322l.002-.002z" fill="#231f20"/><path d="M9.88 8.918H4.016a.545.545 0 0 0-.545.54v.102a.545.545 0 0 0 .545.541H9.88a.545.545 0 0 0 .545-.54v-.102a.545.545 0 0 0-.545-.541zM8.93 10.74H4.064a.57.57 0 0 0-.593.54v.102a.57.57 0 0 0 .593.54H8.93a.57.57 0 0 0 .593-.54v-.101a.57.57 0 0 0-.593-.541zM8.276 6.901A3.997 3.997 0 0 0 9.73 3.613a1.489 1.489 0 0 0 .663-.722 2.998 2.998 0 0 1-.744.193c.63-.481.55-.77.55-.77a1.828 1.828 0 0 1-.856.353 1.384 1.384 0 0 0-1.649-.305 1.545 1.545 0 0 0-.727 1.605A4.063 4.063 0 0 1 3.993 2.49a1.451 1.451 0 0 0 .404 1.829.855.855 0 0 1-.565-.064 1.562 1.562 0 0 0 1.147 1.33 1.511 1.511 0 0 1-.646.065 1.533 1.533 0 0 0 1.244.946 3.14 3.14 0 0 1-2.004.642c.34.32 2.99 1.267 4.703-.338z" fill="#231f20"/></svg>