<svg xmlns="http://www.w3.org/2000/svg" viewBox="0 0 12 12"><path d="M11.226 0H.774A.778.778 0 0 0 0 .774v10.452c0 .425.35.774.774.774h10.452c.425 0 .774-.35.774-.774V.774A.778.778 0 0 0 11.226 0zM7.57 2.92h2.046v2.046H7.57V2.92zm1.692 2.859v1.337H7.925V5.779h1.337zM6.179 3.473h.712v.713H6.18v-.713zm-1.04-.949h.476V3H5.14v-.475zM3.96 3.607h.896v.897H3.96v-.897zm-2.024.517h1.346V5.47H1.935V4.124zm.91 4.429h-.474v-.475h.475v.475zM3.01 6.17h.95v.95h-.95v-.95zm.797 3.305v-.072c.004-.14.003-.28.012-.42a.557.557 0 0 1 .126-.342.525.525 0 0 1 .24-.157c.12-.038.243-.069.366-.1.164-.04.328-.08.484-.146a.741.741 0 0 0 .204-.12.3.3 0 0 0 .094-.35c-.03-.082-.071-.16-.11-.239a3.283 3.283 0 0 1-.308-.849 1.58 1.58 0 0 1 .003-.717c.105-.397.36-.643.76-.732.235-.053.47-.04.697.048a.935.935 0 0 1 .585.656c.043.15.054.304.044.46a2.638 2.638 0 0 1-.235.907c-.055.127-.12.25-.18.376a.486.486 0 0 0-.05.189.307.307 0 0 0 .128.263c.098.078.21.126.329.16.186.052.375.097.562.146.088.023.173.053.253.098a.474.474 0 0 1 .243.348c.016.093.022.187.026.281.004.103 0 .206 0 .312H3.807zm6.259-.713h-.897v-.896h.897v.896z"/></svg>