<svg xmlns="http://www.w3.org/2000/svg" viewBox="0 0 14 14"><path fill="#0C070D" d="M13.478 3.816c-.442-.346-1.006-.237-1.285-.109l-2.012.918V4.2c0-.878-.715-1.593-1.593-1.593H1.593A1.594 1.594 0 0 0 0 4.199v5.602c0 .878.715 1.593 1.593 1.593h6.995c.878 0 1.593-.715 1.593-1.593v-.44l2 .902c.212.107.414.141.587.141.323 0 .545-.12.536-.12.512-.198.658-.748.682-.857A.554.554 0 0 0 14 9.304V5.071c0-.816-.286-1.133-.522-1.255zM9.047 9.801a.46.46 0 0 1-.459.459H1.593a.46.46 0 0 1-.459-.459V4.199a.46.46 0 0 1 .459-.459h6.995a.46.46 0 0 1 .459.459v5.602zm3.819-.587c-.01.018-.02.035-.032.04-.016.008-.076.03-.165-.014L10.18 8.118V5.872l2.484-1.134a1.24 1.24 0 0 1 .112-.03c.02.02.04.038.063.054.011.053.026.15.026.31v4.142z"/></svg>