<svg xmlns="http://www.w3.org/2000/svg" viewBox="0 0 60.69 40"><g fill-rule="evenodd" clip-rule="evenodd"><path d="M30.216 13.793a1.38 1.38 0 0 0-.776.323l-4.828 4.138a1.383 1.383 0 1 0 1.81 2.09l2.544-2.176v13.556a1.38 1.38 0 1 0 2.758 0V18.168l2.543 2.177a1.383 1.383 0 1 0 1.81-2.09l-4.827-4.139a1.38 1.38 0 0 0-1.034-.323z"/><path d="M35.862 2.759c7.362 0 13.353 5.725 13.772 12.974a1.38 1.38 0 0 0 .97 1.25 10.364 10.364 0 0 1 7.327 9.914c0 5.73-4.615 10.344-10.345 10.344H13.103A10.324 10.324 0 0 1 2.76 26.897c0-5.14 3.73-9.373 8.62-10.194a1.38 1.38 0 0 0 1.121-1.164 6.875 6.875 0 0 1 6.81-5.884 6.81 6.81 0 0 1 2.824.604 1.38 1.38 0 0 0 1.767-.582 13.738 13.738 0 0 1 11.961-6.918zm0-2.759c-5.717 0-10.69 2.97-13.664 7.392-.918-.294-1.868-.495-2.888-.495-4.484 0-8.129 3.125-9.202 7.284C4.319 15.54 0 20.708 0 26.897 0 34.117 5.883 40 13.103 40h34.483c7.22 0 13.104-5.883 13.104-13.103 0-5.56-3.518-10.257-8.427-12.156C51.353 6.465 44.37 0 35.863 0z"/></g></svg>