<svg xmlns="http://www.w3.org/2000/svg" viewBox="0 0 14 14"><path d="M5.971 9.297H5.97l-2.746.012c-.549-.016-1.058-.212-1.4-.54-.32-.308-.52-.654-.59-1.032-.12-.616.108-1.265.617-1.778.324-.325.838-.536 1.396-.505h2.667a.6.6 0 0 0 0-1.201H3.256c-.875.009-1.699.3-2.256.86-.783.785-1.137 1.85-.948 2.847.12.627.436 1.191.942 1.675.56.538 1.34.848 2.215.873l2.764-.011a.6.6 0 0 0-.002-1.2zm7.028-4.185c-.557-.56-1.376-.874-2.245-.859H8.088a.6.6 0 0 0 0 1.2h2.675c.533-.032 1.062.18 1.386.506.51.513.737 1.162.62 1.779-.071.376-.271.722-.593 1.031-.341.327-.851.524-1.378.54L8.03 9.297h-.002a.6.6 0 0 0-.002 1.2l2.785.011c.853-.024 1.632-.334 2.195-.872.505-.486.822-1.05.94-1.674.19-.998-.164-2.063-.948-2.85z"/><path d="M4.235 7.425a.6.6 0 0 0 .6.6h4.308a.6.6 0 0 0 0-1.2H4.835a.6.6 0 0 0-.6.6z"/></svg>