<svg xmlns="http://www.w3.org/2000/svg" viewBox="0 0 14 14"><path d="M7.587 7.075c.36-.48.57-1.07.57-1.71 0-1.6-1.3-2.89-2.89-2.89-1.6 0-2.9 1.29-2.9 2.89 0 .59.19 1.15.5 1.61a5.49 5.49 0 0 0-2.85 3.2c-.28.84.36 1.71 1.24 1.71l3.89.01h3.83c.88 0 1.51-.86 1.24-1.69a5.509 5.509 0 0 0-2.63-3.13zm-4.22-1.71a1.895 1.895 0 1 1 3.79 0c0 .51-.21.98-.55 1.32-.33.35-.81.57-1.34.57-.57 0-1.08-.25-1.41-.64-.31-.33-.49-.77-.49-1.25zm5.86 5.4c-.04.05-.11.13-.25.13h-3.83l-3.89-.01c-.14 0-.22-.08-.25-.13-.04-.06-.08-.15-.04-.26a4.405 4.405 0 0 1 2.65-2.76c.47.33 1.04.52 1.65.52.56 0 1.09-.16 1.53-.45h.01c1.13.49 2.05 1.46 2.46 2.71.04.11 0 .2-.04.25z"/><path d="M13.927 6.645c-.23-.7-.68-1.3-1.24-1.72a2.044 2.044 0 0 0-1.68-3.22c-1.13 0-2.04.91-2.04 2.04 0 .3.07.59.18.85-.19.08-.36.19-.53.31-.22.16-.27.47-.11.7.17.22.48.27.7.11.19-.14.39-.25.6-.32a2.012 2.012 0 0 0 2.08.2c.5.3.89.78 1.09 1.37.03.09 0 .15-.03.19-.02.02-.08.09-.18.09h-2.11c-.28 0-.5.22-.5.5 0 .27.22.5.5.5h2.11a1.223 1.223 0 0 0 1.16-1.6zm-3.96-2.9a1.046 1.046 0 0 1 2.09 0c0 .27-.1.52-.27.7-.19.22-.47.35-.78.35-.38 0-.71-.2-.89-.51a.998.998 0 0 1-.15-.54z"/></svg>