<svg xmlns="http://www.w3.org/2000/svg" viewBox="0 0 12 12"><path d="M6 0C2.691 0 0 2.691 0 6s2.691 6 6 6 6-2.691 6-6-2.691-6-6-6zm0 1c2.757 0 5 2.243 5 5 0 .285-.038.56-.084.833-.528-.398-1.205-.604-1.947-.555-.855.044-1.627.403-2.097.938a4.174 4.174 0 0 0-1.22-.616c-1.468-.459-3.15-.1-4.403.881A4.93 4.93 0 0 1 1 6c0-2.757 2.243-5 5-5zM1.665 8.443c1.013-.912 2.45-1.273 3.69-.89 1.28.4 2.134 1.5 2.433 3.102A4.952 4.952 0 0 1 6 11c-1.865 0-3.476-1.039-4.335-2.557zm7.047 1.746c-.21-.9-.586-1.67-1.103-2.277.282-.348.818-.605 1.41-.636.34-.02 1.097.024 1.594.648a5.022 5.022 0 0 1-1.9 2.265z"/><path d="M4.092 5.719A1.591 1.591 0 1 0 2.5 4.127c0 .877.714 1.59 1.59 1.59zm0-2.182a.591.591 0 1 1 0 1.182.591.591 0 0 1 0-1.182zM7.908 5.85c.877 0 1.591-.713 1.591-1.59s-.714-1.591-1.59-1.591-1.592.714-1.592 1.59.714 1.592 1.591 1.592zm0-2.181a.591.591 0 1 1 0 1.182.591.591 0 0 1 0-1.182z"/></svg>