<svg xmlns="http://www.w3.org/2000/svg" viewBox="0 0 14 14"><path d="M14.004 11.686a7.47 7.47 0 0 0-3.679-4.29 3.826 3.826 0 0 0 .783-2.306 3.866 3.866 0 0 0-3.863-3.862 3.866 3.866 0 0 0-3.86 3.862c0 .807.25 1.556.675 2.176a7.453 7.453 0 0 0-3.969 4.39c-.382 1.141.485 2.323 1.69 2.327L7.084 14h5.23c1.2 0 2.065-1.175 1.689-2.314zM7.245 2.428A2.666 2.666 0 0 1 9.91 5.09a2.65 2.65 0 0 1-.747 1.84 2.65 2.65 0 0 1-1.917.823 2.645 2.645 0 0 1-1.986-.909 2.642 2.642 0 0 1-.676-1.754 2.665 2.665 0 0 1 2.662-2.662zm5.539 10.13a.577.577 0 0 1-.47.242H7.09l-5.305-.017a.586.586 0 0 1-.476-.247.546.546 0 0 1-.079-.5 6.196 6.196 0 0 1 3.726-3.854 3.825 3.825 0 0 0 4.444.112 6.193 6.193 0 0 1 3.465 3.768.542.542 0 0 1-.08.496z"/></svg>