<svg xmlns="http://www.w3.org/2000/svg" viewBox="0 0 14 14"><defs><path id="a" d="M157.044 105.701a1.4 1.4 0 1 1 0-2.8 1.4 1.4 0 0 1 0 2.8zm-5.6 0a1.4 1.4 0 1 1 0-2.8 1.4 1.4 0 0 1 0 2.8zm-5.6 0a1.4 1.4 0 1 1 0-2.8 1.4 1.4 0 0 1 0 2.8z"/></defs><path d="M5.612 7.021c-1.798 0-3.26-1.462-3.26-3.26S3.813.5 5.611.5s3.26 1.463 3.26 3.26-1.462 3.261-3.26 3.261zm0-5.385A2.127 2.127 0 0 0 3.487 3.76c0 1.171.954 2.124 2.125 2.124A2.127 2.127 0 0 0 7.737 3.76a2.127 2.127 0 0 0-2.125-2.125z"/><path d="M.568 12.086A.568.568 0 0 1 0 11.518c0-.057.065-5.633 5.653-5.633 2.76 0 4.123 1.432 4.78 2.634a.567.567 0 1 1-.997.544c-.74-1.355-2.013-2.042-3.783-2.042-4.466 0-4.517 4.313-4.517 4.497a.568.568 0 0 1-.568.568z"/><path d="M9.579 13.5a.598.598 0 0 1-.425-.176L6.92 11.088a.6.6 0 1 1 .848-.849l1.812 1.813 3.397-3.392a.6.6 0 0 1 .848.85l-3.821 3.815a.599.599 0 0 1-.424.175z"/></svg>