<svg xmlns="http://www.w3.org/2000/svg" viewBox="0 0 14 8.131"><path fill="#323232" d="M14 7.238v.383c-.207.405-.544.527-.986.508-.618-.026-1.238.008-1.856-.014a.894.894 0 0 1-.512-.19c-.353-.3-.675-.636-1.008-.96-.236-.227-.463-.464-.705-.685-.274-.25-.498-.178-.585.188-.034.14-.027.288-.044.432-.035.288-.053.58-.118.861-.056.245-.232.372-.504.365-.582-.013-1.165-.002-1.747-.018a.886.886 0 0 1-.441-.118c-.448-.291-.941-.548-1.307-.925C2.467 5.294.995 3.34 0 1.06V.676C.095.403.287.326.57.34c.435.023.88.054 1.31-.006.66-.091 1.024.23 1.287.766.08.163.17.323.262.48.282.477.56.958.857 1.427.165.26.354.51.56.74.068.077.224.108.336.1.042-.003.102-.175.103-.271.008-.738 0-1.476.004-2.215 0-.25-.095-.385-.36-.413-.276-.03-.37-.18-.33-.454.043-.28.261-.477.607-.482a44.038 44.038 0 0 1 2.296.006c.602.022.788.24.793.841.006.893-.002 1.787.009 2.68.001.113.05.28.13.321.073.038.235-.036.325-.103.384-.286.616-.688.806-1.117.284-.64.563-1.283.857-1.92.076-.164.136-.374.383-.374.865 0 1.731-.006 2.597.007.344.005.577.243.536.583-.034.28-.123.572-.262.816-.193.337-.456.634-.688.95-.373.504-.744 1.011-1.119 1.515-.174.233-.158.426.044.65.705.782 1.393 1.58 2.087 2.371z"/></svg>