<svg data-name="Layer 1" xmlns="http://www.w3.org/2000/svg" viewBox="0 0 24 24"><circle cx="12" cy="12" r="12" fill="#40a3f5"/><path d="M11.536 15.227c0-.036.01-.07.01-.105a7.241 7.241 0 0 1-.969-1.344l1.226-.055a4.686 4.686 0 0 1 .459-.988l-2.087.094a5.434 5.434 0 0 1-.276-1.536 6.193 6.193 0 0 1 .237-1.827l3.405-.138a6.32 6.32 0 0 1 .27 1.878 4.679 4.679 0 0 1 .944-.435 7.522 7.522 0 0 0-.22-1.483l2.045-.082a5.06 5.06 0 0 1 .264 1.357 4.675 4.675 0 0 1 .988.23 5.907 5.907 0 1 0-6.039 5.905 4.672 4.672 0 0 1-.257-1.471zm4.605-6.97l-1.913.077a10.569 10.569 0 0 0-1.33-2.379 4.938 4.938 0 0 1 3.243 2.302zm-2.951.119l-2.712.11a10.135 10.135 0 0 1 1.38-2.296 10.192 10.192 0 0 1 1.332 2.186zm-2.408-2.373a10.464 10.464 0 0 0-1.364 2.525l-1.898.077a4.937 4.937 0 0 1 3.262-2.602zM7.498 12.95a4.647 4.647 0 0 1-.347-3.364l1.972-.08a7.109 7.109 0 0 0-.19 1.807 6.415 6.415 0 0 0 .242 1.561zm.604.94l1.424-.065a7.695 7.695 0 0 0 1.084 1.714 4.922 4.922 0 0 1-2.508-1.65z" fill="#fff"/><path d="M19.535 14.39h-.382a3.228 3.228 0 0 0-2.687-2.687v-.429a.5.5 0 0 0-1 0v.43a3.229 3.229 0 0 0-2.688 2.686h-.382a.5.5 0 0 0 0 1h.382a3.23 3.23 0 0 0 2.688 2.688v.382a.5.5 0 0 0 1 0v-.382a3.229 3.229 0 0 0 2.687-2.688h.382a.5.5 0 0 0 0-1zm-3.069 2.677v-.27a.5.5 0 0 0-1 0v.27a2.24 2.24 0 0 1-1.677-1.677h.27a.5.5 0 0 0 0-1h-.27a2.24 2.24 0 0 1 1.677-1.676v.223a.5.5 0 0 0 1 0v-.223a2.24 2.24 0 0 1 1.676 1.676h-.27a.5.5 0 0 0 0 1h.27a2.24 2.24 0 0 1-1.676 1.677z" fill="#fff"/></svg>