<svg xmlns="http://www.w3.org/2000/svg" viewBox="0 0 14 14"><path fill="none" d="M1.327 3.604h11.338c.079-.026.142-.087.142-.175V2.088a.197.197 0 0 0-.197-.197H1.382a.197.197 0 0 0-.197.197v1.341c0 .088.064.149.142.175zm11.27 1.226H1.368a.197.197 0 0 0-.197.197v4.928c0 .108.089.196.197.196h8.096v-2.32h3.33V5.028a.197.197 0 0 0-.197-.197zM8.276 7.319L5.942 8.528a.237.237 0 0 1-.346-.21V5.9c0-.177.188-.291.346-.21L8.276 6.9c.17.088.17.332 0 .42z"/><path d="M8.276 6.899L5.942 5.69a.237.237 0 0 0-.346.21v2.418c0 .177.188.291.346.21l2.334-1.209a.237.237 0 0 0 0-.42z"/><path d="M1.368 10.151a.197.197 0 0 1-.197-.196V5.027c0-.109.089-.197.197-.197h11.229c.108 0 .197.088.197.197v2.805H14V2.015C14 1.29 13.411.7 12.685.7H1.315C.59.7 0 1.29 0 2.015v8.01c0 .726.589 1.315 1.315 1.315h8.149v-1.19H1.368zm-.183-8.063c0-.11.088-.197.197-.197H12.61c.11 0 .197.088.197.197v1.341c0 .088-.063.149-.142.175H1.327c-.078-.026-.142-.087-.142-.175V2.088z"/><path fill="#FFF" d="M11.507 11.695l-.018.014h.024l-.004-.008zm-1.224-1.544V8.237c0-.13.143-.205.243-.127l2.268 1.77 1.012.791.194.152V7.832H9.464v3.878h.82v-1.56zm2.137 1.135l.027.054.19.37H14v-.885l-.37.108z"/><path d="M14 10.823l-.194-.152-1.012-.79-2.268-1.771c-.1-.078-.243-.004-.243.127v4.475l1.206-1.003.018-.014c0 .002 0 .004.002.006l.004.008 1.028 2.01a.5.5 0 0 0 .89-.454l-.795-1.556-.19-.37-.027-.053 1.21-.353.371-.108h.002L14 10.822z"/></svg>