<svg xmlns="http://www.w3.org/2000/svg" viewBox="0 0 12 9.886"><path d="M12 6.586c-.034.171-.057.346-.104.515-.195.703-.618 1.246-1.204 1.667-.084.06-.092.113-.066.202.085.296.164.594.251.916-.05-.019-.085-.03-.116-.045-.347-.16-.696-.319-1.04-.485-.082-.04-.152-.032-.235-.01-1.281.329-2.484.167-3.567-.619-.662-.48-1.095-1.123-1.215-1.945-.125-.858.129-1.609.694-2.253.588-.672 1.345-1.051 2.215-1.195 1.04-.172 2.027-.006 2.922.568.77.492 1.278 1.173 1.43 2.092.01.065.023.129.034.194l.001.398zm-2.442-.747a.52.52 0 0 0 .514-.514.53.53 0 0 0-.524-.52.52.52 0 0 0-.511.518c0 .29.23.518.521.516zm-2.455-.024a.508.508 0 0 0 .503-.51.514.514 0 0 0-.502-.501.508.508 0 0 0-.506.506c0 .28.226.507.505.505z"/><path d="M8.533 2.972a4.568 4.568 0 0 0-1.241.118c-1.036.256-1.888.785-2.46 1.703-.473.758-.584 1.579-.339 2.443l.023.092c-.103 0-.2.003-.295 0a5.378 5.378 0 0 1-1.34-.204.26.26 0 0 0-.165.016c-.424.19-.845.388-1.267.582-.035.017-.07.032-.129.058.016-.066.026-.113.039-.16.086-.32.17-.642.263-.96.025-.087.008-.13-.065-.182C.915 6.023.423 5.445.178 4.69-.228 3.43.071 2.32.961 1.367 1.665.612 2.56.203 3.57.057 4.787-.117 5.925.103 6.956.78c.75.492 1.283 1.158 1.537 2.031.014.048.025.097.041.161zm-6.266-.56a.607.607 0 0 0 1.215.008.617.617 0 0 0-.605-.618.61.61 0 0 0-.61.61zm4.081-.014a.595.595 0 0 0-.584-.596.593.593 0 0 0-.596.595c0 .33.27.6.595.597a.597.597 0 0 0 .585-.596z"/></svg>