<svg xmlns="http://www.w3.org/2000/svg" viewBox="0 0 14 14"><path fill-rule="evenodd" clip-rule="evenodd" d="M12.271 6.544l.001 5.615c0 .09-.073.163-.163.163H1.897a.163.163 0 0 1-.163-.163V6.544a.163.163 0 0 0-.163-.163H.21a.156.156 0 0 0-.162.156v6.777c0 .38.307.686.687.686h12.678c.336 0 .537-.194.537-.523 0-1.36-.002-5.207-.004-6.942 0-.09-.073-.154-.162-.154h-1.351a.163.163 0 0 0-.163.163z"/><path d="M11.808 3.493a.302.302 0 0 0-.244-.206l-2.966-.43L7.27.168a.302.302 0 0 0-.542 0L5.402 2.856l-2.966.431a.302.302 0 0 0-.167.516l2.146 2.092-.507 2.955a.302.302 0 0 0 .439.318L7 7.774l2.653 1.394a.302.302 0 0 0 .439-.318l-.507-2.955 2.146-2.092a.3.3 0 0 0 .077-.31z"/></svg>