<svg xmlns="http://www.w3.org/2000/svg" viewBox="0 0 12 11.999"><path d="M10.243 1.757C9.01.585 7.592 0 5.99 0 4.139 0 2.574.763 1.296 2.29.433 3.413 0 4.654 0 6.01c0 1.71.671 3.198 2.012 4.461 1.186 1.02 2.506 1.527 3.953 1.527h.068c1.836 0 3.401-.771 4.696-2.31C11.575 8.576 12 7.36 12 6.034v-.07c0-1.572-.585-2.974-1.757-4.208zm-6.613 9.11C2.566 10.372 1.726 9.54 1.11 8.37.757 7.568.58 6.774.58 5.989c0-.71.154-1.442.462-2.197h.045l2.568 7.074H3.63zm4.16.254c-.598.2-1.2.3-1.8.3a4.93 4.93 0 0 1-1.526-.23l1.618-4.74c.03 0 .247.578.646 1.734l1.087 2.936H7.79zm.326-3.56L6.728 3.444h.023c.54 0 .81-.069.81-.207v-.069c-.03-.108-.086-.17-.161-.185l-1.503.07-1.526-.07a.226.226 0 0 0-.116.208h-.023c0 .17.224.253.669.253l.117.024.831 2.335-1.178 3.539h-.023L2.683 3.468v-.024h.024c.524 0 .784-.06.784-.184v-.07c0-.092-.054-.161-.161-.207l-1.757.07H1.48v-.048c.155-.277.517-.678 1.086-1.202C3.6.986 4.747.578 6.013.578c1.37 0 2.588.478 3.652 1.433v.023l-.07-.023c-.431 0-.732.262-.901.786v.208c0 .309.216.787.647 1.435.215.415.324.862.324 1.34 0 .401-.194 1.15-.578 2.242l-.37 1.273c-.033 0-.231-.579-.6-1.734zm1.456 2.52c-.292.246-.57.447-.831.6h-.024v-.023l1.895-5.526c.108-.445.162-.84.162-1.178l-.045-.555h.045c.433.863.647 1.733.647 2.612 0 1.574-.618 2.93-1.849 4.07z"/></svg>