<svg xmlns="http://www.w3.org/2000/svg" viewBox="0 0 12 12"><path d="M11.342.35a.57.57 0 0 0-.508-.27c-.103.003-.206.003-.31.003l-.476-.001H9.26a.793.793 0 0 0-.175.016c-.316.065-.48.294-.577.461L4.943 6.883a.396.396 0 0 0-.001.403L7.2 11.428c.179.326.431.492.751.492h1.61a.586.586 0 0 0 .188-.029.538.538 0 0 0 .335-.314.61.61 0 0 0-.054-.517c-.191-.344-.38-.688-.57-1.034L8.138 7.605c-.095-.174-.19-.349-.282-.524.02-.038.043-.077.067-.12l3.18-5.62c.081-.146.164-.292.244-.44a.555.555 0 0 0-.004-.552zM7.358 6.658c-.046.08-.091.16-.128.238a.421.421 0 0 0 .002.374c.112.215.228.429.344.64l1.323 2.422c.17.311.34.622.519.946H7.95c-.045 0-.103 0-.19-.157L5.564 7.086 9.062.88c.075-.129.117-.147.199-.156h.787l.477.001c.07 0 .14 0 .195-.014L7.358 6.66zM5.182 4.632l-.478-.834a50.698 50.698 0 0 1-.541-.95c-.208-.379-.501-.562-.957-.562H3.2c-.155.006-.31.01-.464.01l-.884-.007-.094.002c-.223.008-.405.11-.5.28a.55.55 0 0 0 .019.547c.114.204.231.406.348.608l.155.267c.166.288.332.577.5.863L.755 7.546c-.039.069-.078.137-.113.208a.582.582 0 0 0-.015.485.546.546 0 0 0 .34.303c.09.028.183.057.223.028h.381l.813-.003c.081 0 .163 0 .244.005l.055.002c.237 0 .568-.085.8-.489L5.182 5.07a.42.42 0 0 0-.001-.437zM2.928 7.767a.315.315 0 0 1-.135.14c-.096-.004-.318.02-.408.02l-.813.004h-.298l.067-.119 1.55-2.74a.42.42 0 0 0 0-.438l-.712-1.228-.272-.477h.022l.807.006c.165 0 .33-.002.526-.012.138 0 .233.037.34.233.178.323.363.642.548.963l.42.733-1.642 2.915z"/></svg>