<svg xmlns="http://www.w3.org/2000/svg" viewBox="0 0 14 14"><path d="M5.864 9.864L3.928 12.22a.632.632 0 0 0 .257.99l1.893.745a.632.632 0 0 0 .863-.572l.082-3.088c.016-.622-.764-.913-1.16-.432zM5.542 7.52l-2.87-1.03a.632.632 0 0 0-.846.575L1.76 9.097a.632.632 0 0 0 .83.622l2.935-.962c.591-.193.603-1.026.017-1.237zm3.29.331l2.94-.81a.632.632 0 0 0 .361-.957l-1.117-1.7a.632.632 0 0 0-1.035-.03L8.134 6.83c-.372.499.098 1.187.698 1.021zM6.703.785a.75.75 0 0 0-.947-.758L3.428.663a.75.75 0 0 0-.415 1.156l2.671 4.628a.72.72 0 0 0 .074.107c.395.465 1.138.292 1.321-.252a.767.767 0 0 0 .034-.305L6.703.785zm5.09 9.182L8.84 9.06c-.595-.183-1.085.49-.727 1l1.752 2.498a.632.632 0 0 0 1.022.017l1.225-1.623a.632.632 0 0 0-.32-.985z"/></svg>