<svg id="Layer_1" xmlns="http://www.w3.org/2000/svg" viewBox="0 0 14 14"><style>.st53{fill:#c41402}</style><path d="M7.02 4.652c.024.386.056.771.073 1.158.022.468-.141.783-.44.88-.29.094-.56-.045-.832-.459-.34-.517-.667-1.042-.998-1.565-.62-.98-1.239-1.961-1.857-2.943-.276-.439-.219-.68.247-.933C3.91.413 4.67.22 5.441.07 5.67.024 5.9-.007 6.133 0c.39.014.576.16.605.549.104 1.366.195 2.734.29 4.101H7.02z" fill="#c41301"/><path class="st53" d="M12.253 6.46c.006.409-.12.589-.4.658-1.029.257-2.056.522-3.088.77-.275.067-.502-.06-.652-.294-.143-.222-.167-.462-.004-.685.627-.857 1.259-1.712 1.893-2.564.167-.225.41-.315.64-.153.839.59 1.296 1.45 1.61 2.268z"/><path d="M10.33 12.971c-.157-.014-.295-.074-.384-.218-.574-.92-1.152-1.836-1.716-2.76-.148-.243-.092-.499.087-.71.17-.198.381-.285.652-.194.974.327 1.953.641 2.926.97.419.143.555.405.38.797a5.22 5.22 0 0 1-1.54 1.967.703.703 0 0 1-.404.148z" fill="#c41403"/><path class="st53" d="M1.652 8.503c.003-.555.042-.997.145-1.429.13-.543.407-.693.922-.487.913.364 1.82.744 2.731 1.11.312.125.445.351.425.673-.019.301-.184.469-.477.559-.929.285-1.85.593-2.778.884-.555.174-.806.01-.903-.562a4.074 4.074 0 0 1-.065-.748z"/><path d="M7.03 11.893c0 .509.005 1.017-.002 1.526-.006.409-.191.61-.595.578a4.779 4.779 0 0 1-2.424-.889c-.312-.224-.334-.502-.086-.802.661-.801 1.335-1.592 2.006-2.385.196-.232.449-.275.72-.172.278.105.405.309.396.618-.015.508-.004 1.017-.004 1.526H7.03z" fill="#c41302"/></svg>