<svg xmlns="http://www.w3.org/2000/svg" viewBox="0 2.094 14 9.813"><path fill="#323232" d="M7.004 2.098c.543 0 1.087-.011 1.63.002.933.023 1.866.057 2.799.096.355.014.71.057 1.057.146.588.15.97.518 1.17 1.086.134.38.196.773.235 1.17.097.99.117 1.983.1 2.976-.013.707-.036 1.415-.137 2.116a5.38 5.38 0 0 1-.206.89c-.194.594-.615.951-1.224 1.092-.387.09-.782.122-1.177.142-.52.025-1.04.053-1.56.06-1.135.018-2.27.04-3.405.03-1.156-.01-2.313-.046-3.47-.088a8.77 8.77 0 0 1-1.17-.132c-.696-.12-1.136-.54-1.342-1.215a5.991 5.991 0 0 1-.216-1.242A26.086 26.086 0 0 1 0 6.717c.007-.764.036-1.528.122-2.287.039-.344.103-.682.218-1.01.209-.59.617-.951 1.226-1.093.432-.101.872-.133 1.313-.15.791-.031 1.583-.056 2.375-.071.583-.011 1.166-.002 1.749-.002v-.006zM5.61 8.95l3.74-1.949-3.74-1.95v3.9z"/></svg>