<svg xmlns="http://www.w3.org/2000/svg" viewBox="0 0 12 11.594"><path d="M10.618 6.887c-.526.29-1.1.428-1.663.428a2.9 2.9 0 0 1-1.039-.18 7.856 7.856 0 0 1-1.47 1.005 3.309 3.309 0 0 0 2.007 1.42c.268.066.537.097.801.097.592 0 1.162-.159 1.647-.415.07-.27.106-.549.106-.83 0-.518-.126-1.041-.389-1.526zm-.566-4.077c-.04-.01-.077-.028-.117-.036v.004c.04.007.077.023.117.031z"/><path d="M9.932 2.804a3.13 3.13 0 0 1-.79 1.661c.02.115.035.24.035.371-.001.762-.403 1.425-.905 1.958a3.361 3.361 0 0 0 2.477-.663A3.282 3.282 0 0 0 12 4.05a3.537 3.537 0 0 0-1.947-1.24c-.04-.008-.077-.024-.118-.03l-.002.025zm-.529-.557A3.25 3.25 0 0 0 8.498 0H8.45c-.792 0-1.486.276-2.116.833.602.626.818 1.42.818 2.214 0 .064-.002.127-.004.19.135-.034.272-.05.407-.05h.036c.517.01 1.039.262 1.338.736.3-.49.474-1.063.474-1.676zM3.425.058c-.05 0-.097 0-.114-.01a3.206 3.206 0 0 0-.866 2.189c0 .012 0 .023-.005.029l.114-.001a3.36 3.36 0 0 1 2.337.928c.497.034 1.005.292 1.272.804.143-.276.356-.476.582-.58l.001-.112c0-.896-.379-1.79-1.116-2.43A3.351 3.351 0 0 0 3.425.058zm1.033 3.197h-.001zm-.103-.016A3.365 3.365 0 0 0 2.1 2.845 3.367 3.367 0 0 0 0 4.113c.13.783.553 1.52 1.234 2.04A3.182 3.182 0 0 1 3.152 4.94l-.002-.105C3.149 3.95 3.711 3.4 4.355 3.24zM1.434 6.895a3.168 3.168 0 0 0-.39 1.519c0 .307.044.611.113.88.483.26 1.03.4 1.594.4.267 0 .538-.032.81-.097a3.219 3.219 0 0 1-.124-.882c0-.695.225-1.363.625-1.916-.385-.406-.712-.888-.847-1.433a3.292 3.292 0 0 0-1.781 1.53zm4.606 4.699a3.283 3.283 0 0 0 1.725-1.67A3.282 3.282 0 0 1 5.97 8.186 7.786 7.786 0 0 1 4.359 7.09c-.242.459-.37.97-.37 1.49 0 .443.09.892.29 1.322a3.335 3.335 0 0 0 1.762 1.692z"/></svg>