<svg xmlns="http://www.w3.org/2000/svg" viewBox="0 0 14 14"><path d="M7.068 11.054c-.622.092-1.245.179-1.877.14-1.507-.096-2.87-.55-4.004-1.591C-.22 8.31-.399 6.356.771 4.858c.099-.127.105-.227.057-.37C.66 4.003.509 3.51.345 3.023c-.066-.196-.05-.37.104-.51.163-.148.343-.137.537-.04.549.27 1.103.53 1.653.798.099.049.184.068.293.024 1.334-.53 2.707-.607 4.108-.342.688.152 1.333.418 1.955.746.243.183.496.356.73.552 1.564 1.312 1.8 3.346.573 4.905-.355.452-.801.8-1.269 1.126a8.242 8.242 0 0 1-1.961.773zm-2.116-.774c.001.05.037.033.064.033.644.052 1.283.034 1.912-.135.938-.186 1.77-.587 2.448-1.265.955-.959 1.125-2.225.433-3.276C9.133 4.609 8.124 4.084 6.95 3.83c-.639-.163-1.285-.228-1.942-.133-.67.02-1.305.193-1.913.464-.217.096-.406.101-.619-.011-.317-.168-.646-.313-1.015-.488.114.358.21.67.314.98.061.18.03.33-.095.47a6.899 6.899 0 0 0-.22.257c-.782.976-.82 2.165-.073 3.169.679.911 1.638 1.382 2.716 1.639.278.066.56.148.853.104l-.004-.002z"/><path d="M7.068 11.054a8.242 8.242 0 0 0 1.961-.773c.036.014.075.044.107.039.604-.098 1.206-.207 1.76-.478.227-.11.423-.096.64.02.31.165.632.307.994.48-.087-.27-.141-.506-.237-.723-.154-.35-.098-.614.165-.912.914-1.04.922-2.354.016-3.405-.91-1.054-2.123-1.495-3.48-1.604-.62-.328-1.266-.594-1.954-.746 2.134-.372 4.102-.043 5.755 1.45 1.448 1.309 1.597 3.21.413 4.76-.086.114-.092.206-.05.33.162.481.314.965.475 1.446.068.205.085.4-.093.556-.177.156-.37.119-.564.024-.521-.253-1.047-.498-1.564-.76a.473.473 0 0 0-.428-.022c-1.24.479-2.52.576-3.826.352-.031-.006-.06-.023-.09-.034zm-2.112-.772c-.34-.254-.684-.502-.985-.807-1.468-1.492-1.4-3.7.159-5.103.275-.248.578-.459.878-.674.657-.095 1.303-.03 1.942.133-.646.18-1.263.424-1.814.817-1.838 1.31-1.817 3.462.044 4.743.537.37 1.133.596 1.748.787-.629.17-1.268.187-1.912.135l-.064-.033.004.002z"/><path d="M6.94 8.966a2.343 2.343 0 0 1-1.763-.873c-.221-.27-.219-.531-.001-.701.213-.167.442-.114.662.151A1.568 1.568 0 0 0 8.25 7.54c.214-.258.458-.311.666-.145.21.167.206.442-.01.703-.457.554-1.134.87-1.967.869zm-.443-3.014a.652.652 0 0 1-.641.649.647.647 0 0 1-.66-.654.646.646 0 0 1 .665-.646.648.648 0 0 1 .636.651zm2.387-.007a.637.637 0 0 1-.632.656.654.654 0 0 1-.662-.659.649.649 0 0 1 .652-.641c.364 0 .641.278.642.644z"/></svg>