<svg xmlns="http://www.w3.org/2000/svg" viewBox="0 0 14 14"><path d="M9.265 1.169a.68.68 0 0 1 .403.16l2.965 2.808c.093.089.17.266.17.395v8.065a.234.234 0 0 1-.234.234H1.43a.234.234 0 0 1-.234-.234V1.403c0-.129.106-.234.234-.234h7.834m0-1.169H1.43C.658 0 .03.63.03 1.403v11.194A1.402 1.402 0 0 0 1.43 14h11.14c.773 0 1.402-.63 1.402-1.403V4.532c0-.448-.21-.936-.534-1.243L10.472.48A1.848 1.848 0 0 0 9.265 0z"/><path d="M5.02 2.497h-.392a.5.5 0 1 1 0-1h.393a.5.5 0 1 1 0 1zm-1.137.895H3.49a.5.5 0 1 1 0-1h.393a.5.5 0 1 1 0 1zm1.137.885h-.392a.5.5 0 1 1 0-1h.393a.5.5 0 1 1 0 1zm-1.137.952H3.49a.5.5 0 1 1 0-1h.393a.5.5 0 1 1 0 1zm1.137.929h-.392a.5.5 0 1 1 0-1h.393a.5.5 0 1 1 0 1zm-1.137.895H3.49a.5.5 0 1 1 0-1h.393a.5.5 0 1 1 0 1zm.766 2.859a.312.312 0 0 0 .31-.338l-.157-1.866H3.675l-.157 1.866a.312.312 0 0 0 .31.338h.82z"/></svg>